<svg id="Layer_1" data-name="Layer 1" xmlns="http://www.w3.org/2000/svg" viewBox="0 0 452.21 450.43"><defs><style>.cls-1,.cls-2{fill:#fff;}.cls-1{opacity:0;}</style></defs><title>handwearable</title><path class="cls-1" d="M73.31,72H523.74V522.44H73.31ZM222.73,424.69c7.51,2.36,15,4.53,22.35,7.07,12.83,4.42,25.7,8.76,38.3,13.75a118.88,118.88,0,0,0,23.23,6.84,268.47,268.47,0,0,0,34.23,3.48c12.22.56,24.37,1.07,36.51-1.54,13.58-2.92,27.21-5.57,40.33-10.25,6.17-2.2,12.27-4.64,17.32-9,1.87-1.61,3.53-3.47,3.66-6.09.35-7.44-1.17-14.43-5.71-20.47-5.89-7.84-14.26-10.95-23.66-11.92-8.47-.87-16.81.25-25.12,1.74-3.49.62-7,1.68-10.48,1.8-5.79.2-11.6-.19-17.41-.33-.78,0-1.56,0-2.34,0l-.09-.54c2.27-1,4.51-2,6.8-2.93a74,74,0,0,1,28.21-5.51c31.41.27,62.82.11,94.24.09,2.43,0,4.87-.13,7.29-.35,15.35-1.4,26.57-14.13,25.34-29.47a14.79,14.79,0,0,1,2.74-10.32c4.33-6.43,6.09-13.64,4.27-21.39-2.05-8.73-7.73-14.49-15.61-18.22a3.69,3.69,0,0,1-2.47-3.42,26.5,26.5,0,0,0-5.94-14.3c-5.68-7.17-13.16-11.49-21.94-13.76-6-1.54-12-1.16-18.07-1.09-1.87,0-2.61-.48-3.2-2.32-3.86-12-11.57-20.49-23.81-24.08-4.41-1.29-9.2-1.4-13.84-1.81-13.55-1.19-27.1-2.35-40.67-3.34-17.39-1.28-34.79-1.86-52.2-.32-8.92.79-17.69,2.38-25.73,6.58s-16.17,8.63-24.2,13c-13.7,7.49-27.72,14.21-43,18-2.81.7-5.66,1.25-8.45,1.87-3.62-12.11-9.71-17.29-19.83-17a17.55,17.55,0,0,0-10.67,4,18.84,18.84,0,0,0-7.2,14.74H73.83v18.73h112v93.62h-112V419h112c2.13,11.64,7.46,17.33,17.26,18.58C211.09,438.64,218.32,433.94,222.73,424.69ZM209.52,138c-21.53.15-37.91,2.7-53.78,8.21-28.77,10-52.19,27.32-70.64,51.47a9.22,9.22,0,0,0-1.77,8.28,8.82,8.82,0,0,0,7.18,6.83,9.12,9.12,0,0,0,9.56-3.75,128.71,128.71,0,0,1,18-19.5Q153.29,158.78,200,157A129.09,129.09,0,0,1,257.4,167.8a130.56,130.56,0,0,1,52,41.16c3.46,4.53,9.14,5.36,13.39,2.1s5-9.07,1.41-13.62C293.87,158.54,253.87,139.14,209.52,138Zm70.21,103.07a9,9,0,0,0,8.26-5.18,8.85,8.85,0,0,0-1-10c-24.43-30.9-56.36-44.28-95.41-40.13-18.36,2-34.87,9.07-49.54,20.35a102.73,102.73,0,0,0-19.55,19.8,9,9,0,0,0-.87,10.2,8.89,8.89,0,0,0,8.77,4.94c3.68-.13,6-2.34,8.08-5.05a84.08,84.08,0,0,1,99.7-25.49,82.57,82.57,0,0,1,33.15,25.84C273.46,239.15,276,241.13,279.74,241.05Zm-75.87-9.5c-2.1.22-5.15.38-8.16.87-14.92,2.43-26.87,9.82-36,21.82a9.39,9.39,0,0,0,5.8,14.74,9.16,9.16,0,0,0,9.39-3.7c10.83-13.83,28.59-18.58,44.43-11.89a37,37,0,0,1,15.05,11.69c2.52,3.26,5.8,4.74,9.86,3.79a9.3,9.3,0,0,0,5.16-15.05C238.13,239.29,223.15,232.09,203.87,231.56Z" transform="translate(-71.54 -72.01)"/><path class="cls-2" d="M222.73,424.72c-4.41,9.24-22.51,13.94-30.52,12.91-9.79-1.25-15.12-6.94-17.26-18.58H73.82v-18.8H174.95V306.64H73.83V287.91H175.05a18.84,18.84,0,0,1,7.2-14.74,17.55,17.55,0,0,1,10.67-4c10.12-.26,27.09,4.93,30.71,17,2.8-.61,5.65-1.16,8.45-1.87,15.23-3.82,29.26-10.54,43-18,8-4.39,16.09-8.77,24.2-13s16.81-5.79,25.73-6.58c17.4-1.54,34.81-1,52.2.32,13.56,1,27.12,2.15,40.67,3.34,4.64.41,9.43.51,13.84,1.81,12.24,3.59,20,12.07,23.81,24.08.59,1.83,1.33,2.34,3.2,2.32,6-.07,12.11-.45,18.07,1.09,8.78,2.27,16.26,6.59,21.94,13.76a26.5,26.5,0,0,1,5.94,14.3,3.69,3.69,0,0,0,2.47,3.42c7.88,3.73,13.56,9.49,15.61,18.22,1.82,7.74.06,15-4.27,21.39a14.79,14.79,0,0,0-2.74,10.32c1.23,15.34-10,28.07-25.34,29.47-2.42.22-4.86.35-7.29.35-31.41,0-62.83.19-94.24-.09a74,74,0,0,0-28.21,5.51c-2.29.91-4.54,1.95-6.8,2.93l.09.54c.78,0,1.56,0,2.34,0,5.8.14,11.62.54,17.41.33,3.51-.12,7-1.18,10.48-1.8,8.31-1.49,16.65-2.61,25.12-1.74,9.4,1,17.77,4.08,23.66,11.92,4.54,6,6.06,13,5.71,20.47-.12,2.62-1.79,4.48-3.66,6.09-5.05,4.36-11.15,6.8-17.32,9-13.12,4.68-26.75,7.34-40.33,10.25-12.14,2.61-24.3,2.1-36.51,1.54a268.47,268.47,0,0,1-34.23-3.48,118.88,118.88,0,0,1-23.23-6.84c-12.61-5-25.48-9.33-38.3-13.75C237.72,429.25,230.24,427.08,222.73,424.72Zm196.75-1c-.87-4.68-3.8-6.78-7.67-7.71-6.87-1.66-13.79-1-20.63.18-9,1.54-17.86,3.22-27.08,2.47-6.58-.53-13.23-.23-19.84-.51-4.42-.19-8.84-.64-13-2.47-4.58-2-6.62-5.64-6.29-10.61.4-6,3.57-10.53,7.86-14.38,5.84-5.24,12.75-8.69,20-11.48,12-4.63,24.3-7.36,37.35-7.22,31.35.32,62.7.11,94,.09a33.21,33.21,0,0,0,4.48-.31c5-.68,8.36-4.21,8.44-8.73.09-5-2.91-8.41-8.16-9.29a26.12,26.12,0,0,0-4.28-.34q-50.49,0-101,0a14.54,14.54,0,0,1-3-.18,9.45,9.45,0,0,1-7.6-9.92,9.32,9.32,0,0,1,9.59-8.62q51.71,0,103.41,0A31.76,31.76,0,0,1,502.6,339a6.43,6.43,0,0,0,.76.33c2.27-4.53,1.39-7.92-2.74-10.54a10.89,10.89,0,0,0-3.52-1.67c-3.77-.74-7.58-1.75-11.39-1.77-37-.13-73.94-.08-110.91-.08-.75,0-1.5,0-2.25,0a9.38,9.38,0,0,1-8.56-11,9.21,9.21,0,0,1,9.58-7.73H485c-.5-.77-.74-1.2-1-1.58a15.61,15.61,0,0,0-1.36-1.54c-4.56-4.39-10.13-6.24-16.35-6.24q-50.77,0-101.54,0a12.76,12.76,0,0,1-3-.23A9.35,9.35,0,0,1,364,278.5h72.11a14.87,14.87,0,0,0-10.54-8.58,87.63,87.63,0,0,0-9.66-.9c-13.55-1.12-27.1-2.34-40.67-3.33-16.26-1.19-32.55-1.77-48.83-.31-6.8.61-13.48,1.8-19.59,5.07-8.52,4.56-17,9.18-25.5,13.77-14.35,7.76-29.12,14.46-45,18.38-4.21,1-8.47,1.85-12.73,2.78,0,.41-.05.79-.05,1.16q0,48.62,0,97.23c0,1.56.78,1.81,1.89,2.16,15.53,5,31.11,9.8,46.55,15.05,8.24,2.8,16.17,6.51,24.35,9.51,9,3.3,18.52,4.62,28,5.31,12.51.91,25.05,1.25,37.58,1.77a21.83,21.83,0,0,0,5.58-.4c10.21-2.27,20.43-4.5,30.56-7.07C405.2,428.26,412.23,425.91,419.48,423.76Z" transform="translate(-71.54 -72.01)"/><path class="cls-2" d="M198.06,135.34c44.34,1.15,84.35,20.56,114.63,59.46,3.54,4.55,2.9,10.32-1.41,13.62s-9.93,2.42-13.39-2.1a130.56,130.56,0,0,0-52-41.16,129.09,129.09,0,0,0-57.39-10.81q-46.72,1.77-81.92,32.55a128.71,128.71,0,0,0-18,19.5A9.12,9.12,0,0,1,79,210.13a8.82,8.82,0,0,1-7.18-6.83A9.22,9.22,0,0,1,73.63,195c18.45-24.15,41.87-41.49,70.64-51.47C160.15,138,176.52,135.49,198.06,135.34Z" transform="translate(-71.54 -72.01)"/><path class="cls-2" d="M268.27,238.41c-3.75.07-6.27-1.9-8.45-4.73a82.57,82.57,0,0,0-33.15-25.84A84.08,84.08,0,0,0,127,233.33c-2.11,2.71-4.4,4.92-8.08,5.05a8.89,8.89,0,0,1-8.77-4.94,9,9,0,0,1,.87-10.2,102.73,102.73,0,0,1,19.55-19.8c14.67-11.28,31.18-18.4,49.54-20.35,39.06-4.15,71,9.23,95.41,40.13a8.85,8.85,0,0,1,1,10A9,9,0,0,1,268.27,238.41Z" transform="translate(-71.54 -72.01)"/><path class="cls-2" d="M192.4,228.91c19.28.53,34.26,7.73,45.54,22.25a9.3,9.3,0,0,1-5.16,15.05c-4.06,1-7.33-.53-9.86-3.79a37,37,0,0,0-15.05-11.69c-15.84-6.68-33.6-1.94-44.43,11.89a9.16,9.16,0,0,1-9.39,3.7,9.39,9.39,0,0,1-5.8-14.74c9.12-12,21.07-19.39,36-21.82C187.25,229.29,190.31,229.13,192.4,228.91Z" transform="translate(-71.54 -72.01)"/><path class="cls-1" d="M419.48,423.76c-7.24,2.16-14.27,4.51-21.44,6.33-10.13,2.57-20.36,4.8-30.56,7.07a21.83,21.83,0,0,1-5.58.4c-12.53-.52-25.08-.86-37.58-1.77-9.5-.69-19-2-28-5.31-8.18-3-16.11-6.71-24.35-9.51-15.44-5.25-31-10.07-46.55-15.05-1.11-.36-1.9-.61-1.89-2.16q.09-48.62,0-97.23c0-.37,0-.74.05-1.16,4.26-.92,8.52-1.74,12.73-2.78,15.91-3.91,30.69-10.62,45-18.38,8.5-4.6,17-9.22,25.5-13.77,6.11-3.27,12.79-4.46,19.59-5.07,16.28-1.45,32.57-.87,48.83.31,13.56,1,27.11,2.21,40.67,3.33a87.63,87.63,0,0,1,9.66.9,14.87,14.87,0,0,1,10.54,8.58H364a9.35,9.35,0,0,0-2.3,18.47,12.76,12.76,0,0,0,3,.23q50.77,0,101.54,0c6.22,0,11.78,1.85,16.35,6.24a15.61,15.61,0,0,1,1.36,1.54c.3.38.54.81,1,1.58H373.57a9.21,9.21,0,0,0-9.58,7.73,9.38,9.38,0,0,0,8.56,11c.75,0,1.5,0,2.25,0,37,0,73.94-.05,110.91.08,3.8,0,7.61,1,11.39,1.77a10.89,10.89,0,0,1,3.52,1.67c4.14,2.62,5,6,2.74,10.54a6.43,6.43,0,0,1-.76-.33,31.76,31.76,0,0,0-16.42-4.37q-51.71,0-103.41,0a9.32,9.32,0,0,0-9.59,8.62,9.45,9.45,0,0,0,7.6,9.92,14.54,14.54,0,0,0,3,.18q50.49,0,101,0a26.12,26.12,0,0,1,4.28.34c5.25.88,8.25,4.34,8.16,9.29-.08,4.52-3.46,8-8.44,8.73a33.21,33.21,0,0,1-4.48.31c-31.35,0-62.7.23-94-.09-13.05-.13-25.34,2.59-37.35,7.22-7.25,2.79-14.16,6.24-20,11.48-4.29,3.85-7.46,8.34-7.86,14.38-.33,5,1.71,8.58,6.29,10.61,4.13,1.83,8.55,2.29,13,2.47,6.61.28,13.26,0,19.84.51,9.21.75,18.11-.93,27.08-2.47,6.84-1.18,13.76-1.84,20.63-.18C415.68,417,418.61,419.07,419.48,423.76Z" transform="translate(-71.54 -72.01)"/></svg>