<svg xmlns="http://www.w3.org/2000/svg" xmlns:xlink="http://www.w3.org/1999/xlink" width="100" height="100" viewBox="0 0 100 100"><g><g transform="translate(50 50) scale(0.69 0.69) rotate(0) translate(-50 -50)" style="fill:#000000"><svg fill="#000000" xmlns="http://www.w3.org/2000/svg" xmlns:xlink="http://www.w3.org/1999/xlink" version="1.1" x="0px" y="0px" viewBox="0 0 100 100" enable-background="new 0 0 100 100" xml:space="preserve"><path d="M23.118,67.937c4.036,0,7.308-3.272,7.308-7.308s-3.271-7.304-7.308-7.304c-4.031,0-7.304,3.269-7.304,7.304  S19.087,67.937,23.118,67.937z M93.486,71.864c0-5.785-4.693-10.477-10.478-10.477h-29.58v21.229h35.058v10.243h5l-0.003-20.995  H93.486z M30.426,70.364h20.003v-8.977h-9.646C35.504,61.388,31.154,65.293,30.426,70.364z M11.514,48.199h-5v44.66h5V82.616h38.915  v-9.252H11.514V48.199z M44.595,35.584l5.408,10.335l5.404-10.335c1.828-0.717,3.545-1.792,5.021-3.269  c5.758-5.76,5.758-15.097,0-20.855c-5.759-5.759-15.095-5.759-20.855,0c-5.758,5.759-5.758,15.096,0,20.855  C41.05,33.792,42.767,34.867,44.595,35.584z M41.381,18.915h5.746v-5.746h5.744v5.746h5.748v5.742h-5.748v5.75h-5.744v-5.75h-5.746  V18.915z"></path></svg></g></g></svg>