<svg xmlns="http://www.w3.org/2000/svg" xmlns:xlink="http://www.w3.org/1999/xlink" width="100" height="100" viewBox="0 0 100 100"><g><g transform="translate(50 50) scale(0.69 0.69) rotate(0) translate(-50 -50)" style="fill:#1A1A1A"><svg fill="#1A1A1A" xmlns="http://www.w3.org/2000/svg" xmlns:xlink="http://www.w3.org/1999/xlink" xml:space="preserve" version="1.1" style="shape-rendering:geometricPrecision;text-rendering:geometricPrecision;image-rendering:optimizeQuality;" viewBox="0 0 846.66 846.66" x="0px" y="0px" fill-rule="evenodd" clip-rule="evenodd"><defs><style type="text/css">
   
    .fil0 {fill:#1A1A1A}
   
  </style></defs><g><path class="fil0" d="M423.36 149.93c-182.13,-170.09 -418.94,-8.91 -383.02,217.77l135.62 0 35.16 -59.83c11.68,-22.99 45.73,-21.94 55.36,2.71l63.91 162.16 24.55 -52.54c4.67,-10 14.65,-17.09 26.43,-17.51l49.59 -1.9 43.9 -114.78c9.96,-26.11 47.63,-26.06 57,0.81l41.47 119.07 14.55 -23.49c5.01,-9.93 15.3,-16.74 27.18,-16.74l191.59 0c34.18,-225.6 -201.72,-385.31 -383.29,-215.73zm-367.03 278.6c41.25,113.07 151.53,235.82 367.03,339.09 216.78,-103.88 327.11,-227.48 367.77,-341.1l-159.26 0 -40.47 65.35c-13.54,21.93 -46.17,17.76 -54.42,-5.95l-35.05 -100.56 -21.3 55.78c-4.74,12.45 -16.79,19.98 -29.41,19.57l-49 1.89 -46.55 99.99c-11.69,25.12 -47.86,22.53 -56.44,-3.23l-66.46 -168.65 -13.38 22.75c-5.63,9.62 -15.75,14.98 -26.15,14.99l-136.91 0.08z"></path></g></svg></g></g></svg>