<svg xmlns="http://www.w3.org/2000/svg" xmlns:xlink="http://www.w3.org/1999/xlink" width="100" height="100" viewBox="0 0 100 100"><g><g transform="translate(50 50) scale(0.69 0.69) rotate(0) translate(-50 -50)" style="fill:#1A1A1A"><svg fill="#1A1A1A" xmlns:sketch="http://www.bohemiancoding.com/sketch/ns" xmlns="http://www.w3.org/2000/svg" xmlns:xlink="http://www.w3.org/1999/xlink" version="1.1" x="0px" y="0px" viewBox="-189 590.8 100 100" style="enable-background:new -189 590.8 100 100;" xml:space="preserve"><style type="text/css">
	.st0{fill:#1A1A1A;}
</style><g><path d="M-128.6,633.9c-2.1-3.6-5.9-6-10.4-6s-8.3,2.4-10.4,6c-4.8,0.2-8.6,4.1-8.6,9c0,5,4,9,9,9h20c5,0,9-4,9-9   C-120,638-123.8,634.1-128.6,633.9z M-129,648.8h-20c-3.3,0-6-2.7-6-6c0-3.2,2.5-5.8,5.7-6l1.6-0.1l0.8-1.4   c1.6-2.8,4.6-4.5,7.8-4.5c3.2,0,6.2,1.7,7.8,4.5l0.8,1.4l1.6,0.1c3.2,0.1,5.7,2.8,5.7,6C-123,646.1-125.7,648.8-129,648.8z"></path><path d="M-112.5,625.8v-5c0-5.3-3.7-9.8-8.6-11.1c-0.9-2.6-1.4-6.7-1.4-9.9c0-4.1-3.4-7.5-7.5-7.5h-18c-4.1,0-7.5,3.4-7.5,7.5   c0,3.2-0.5,7.3-1.4,9.9c-4.9,1.3-8.6,5.8-8.6,11.1v40c0,5.3,3.7,9.8,8.6,11.1c0.9,2.6,1.4,6.7,1.4,9.9c0,4.1,3.4,7.5,7.5,7.5h18   c4.1,0,7.5-3.4,7.5-7.5c0-3.2,0.5-7.3,1.4-9.9c4.9-1.3,8.6-5.8,8.6-11.1v-25c0.8,0,1.5-0.7,1.5-1.5v-7   C-111,626.5-111.7,625.8-112.5,625.8z M-152.5,599.8c0-2.5,2-4.5,4.5-4.5h18c2.5,0,4.5,2,4.5,4.5c0,1.4,0.1,5.8,1.1,9.5h-29.3   C-152.6,605.6-152.5,601.2-152.5,599.8z M-125.5,681.8c0,2.5-2,4.5-4.5,4.5h-18c-2.5,0-4.5-2-4.5-4.5c0-1.4-0.1-5.8-1.1-9.5h29.3   C-125.4,676.1-125.5,680.4-125.5,681.8z M-115.5,660.8c0,4.7-3.8,8.5-8.5,8.5h-30c-4.7,0-8.5-3.8-8.5-8.5v-40   c0-4.7,3.8-8.5,8.5-8.5h30c4.7,0,8.5,3.8,8.5,8.5V660.8z M-134.9,637.8c-0.6-0.6-1.5-0.6-2.1,0l-1.9,1.9l-1.9-1.9   c-0.6-0.6-1.5-0.6-2.1,0s-0.6,1.5,0,2.1l1.9,1.9l-1.9,1.9c-0.6,0.6-0.6,1.5,0,2.1c0.3,0.3,0.7,0.4,1.1,0.4s0.8-0.1,1.1-0.4l1.9-1.9   l1.9,1.9c0.3,0.3,0.7,0.4,1.1,0.4s0.8-0.1,1.1-0.4c0.6-0.6,0.6-1.5,0-2.1l-1.9-1.9l1.9-1.9C-134.4,639.3-134.4,638.4-134.9,637.8z"></path></g></svg></g></g></svg>