<svg xmlns="http://www.w3.org/2000/svg" xmlns:xlink="http://www.w3.org/1999/xlink" width="100" height="100" viewBox="0 0 100 100"><g><g transform="translate(50 50) scale(0.69 0.69) rotate(0) translate(-50 -50)" style="fill:#1A1A1A"><svg fill="#1A1A1A" xmlns:x="http://ns.adobe.com/Extensibility/1.0/" xmlns:i="http://ns.adobe.com/AdobeIllustrator/10.0/" xmlns:graph="http://ns.adobe.com/Graphs/1.0/" xmlns="http://www.w3.org/2000/svg" xmlns:xlink="http://www.w3.org/1999/xlink" version="1.1" x="0px" y="0px" viewBox="0 0 100 100" style="enable-background:new 0 0 100 100;" xml:space="preserve"><g><g i:extraneous="self"><g><path d="M84.7,11.2L46.5,2.9L43.7,16H17.1v44.1c0.6-0.1,1.3-0.1,2-0.1c0.8,0,1.5,0,2.3,0.1V20.3h31.8v15.5h15.5v44.1H39.5     c0,0.2,0,0.4,0,0.6c0,1.3-0.1,2.4-0.4,3.6h33.7v-5.9l13.8,3l10.8-50.2L84.7,11.2z M84.3,18.5l6.4,9.9l-8.1-1.8L84.3,18.5z      M57.4,31.6v-8.3l8.3,8.3H57.4z M83.4,76.2L72.9,74v-8l4.2,0.9l0.9-4.2l-5.1-1.1v-8l6.8,1.5l0.9-4.2l-7.7-1.6v-8l9.3,2l0.9-4.2     l-10.2-2.2v-4.1L56.1,16H48l1.7-8.1l31.1,6.7l-3.3,15.2l15.2,3.3L83.4,76.2z"></path><path d="M60.5,67.8H35.1c1,1.3,1.9,2.7,2.6,4.2h22.8V67.8z"></path><rect x="29.5" y="55.7" width="31" height="4.2"></rect><path d="M28.2,41.7H31c0.4,1.1,0.9,2.1,1.5,3c0.8,1.1,1.8,1.9,2.9,2.4c1.1,0.5,2.3,0.8,3.6,0.9c0,0,0.1,0,0.1,0h0.2     c1.8-0.1,3.5-0.6,4.9-1.5l-1.6-3.1c-1,0.7-2.2,1-3.5,1.1c-1.7-0.1-3.5-0.9-4.6-2.8h5.3v-3.4h-6.2c0-0.3-0.1-0.7-0.1-1     c0-0.4,0-0.8,0.1-1.2h6.2v-3.4h-5.3c1-1.9,2.8-2.7,4.5-2.8c1.3,0.1,2.5,0.4,3.5,1.1l1.6-3.2c-1.5-0.9-3.2-1.3-4.9-1.4h-0.3     c-1.3,0-2.6,0.3-3.6,0.9c-1.2,0.6-2.1,1.4-2.9,2.4c-0.6,0.9-1.2,1.8-1.5,2.9h-2.8v3.4h2.1c0,0.4-0.1,0.8-0.1,1.2c0,0.4,0,0.7,0,1     h-2.1V41.7z"></path><path d="M19.1,63.9c-9.2,0-16.6,7.4-16.6,16.6c0,9.2,7.4,16.6,16.6,16.6c9.2,0,16.6-7.4,16.6-16.6C35.7,71.3,28.2,63.9,19.1,63.9     z M25.5,84.6c0.6,0.6,0.6,1.7,0,2.3c-0.3,0.3-0.7,0.5-1.2,0.5c-0.4,0-0.8-0.2-1.2-0.5l-4.1-4.1L14.9,87c-0.3,0.3-0.7,0.5-1.2,0.5     s-0.8-0.2-1.2-0.5c-0.6-0.6-0.6-1.7,0-2.3l4.1-4.1l-4.1-4.1c-0.6-0.6-0.6-1.7,0-2.3c0.6-0.6,1.7-0.6,2.3,0l4.1,4.1l4.1-4.1     c0.6-0.6,1.7-0.6,2.3,0c0.6,0.6,0.6,1.7,0,2.3l-4.1,4.1L25.5,84.6z"></path></g></g></g></svg></g></g></svg>