<svg xmlns="http://www.w3.org/2000/svg" xmlns:xlink="http://www.w3.org/1999/xlink" width="100" height="100" viewBox="0 0 100 100"><g><g transform="translate(50 50) scale(0.69 0.69) rotate(0) translate(-50 -50)" style="fill:#1A1A1A"><svg fill="#1A1A1A" xmlns="http://www.w3.org/2000/svg" xmlns:xlink="http://www.w3.org/1999/xlink" version="1.1" x="0px" y="0px" viewBox="0 0 100 100" enable-background="new 0 0 100 100" xml:space="preserve"><g><g><path d="M64.242,39.32L47.906,22.984v22.603l-8.396-7.698l-2.625,2.863l10.661,9.772L36.824,61.247l2.746,2.746l8.336-8.336    v21.358l16.396-16.397L53.16,50.402L64.242,39.32z M51.789,32.359l6.961,6.961l-6.961,6.961V32.359z M58.689,60.739l-6.9,6.901    V54.414L58.689,60.739z"></path><path d="M72.883,40.716c-0.758-0.758-1.986-0.758-2.746,0c-0.758,0.758-0.758,1.987,0,2.746c1.94,1.941,3.01,4.522,3.01,7.267    c0,2.747-1.068,5.326-3.009,7.264c-0.759,0.758-0.76,1.987-0.002,2.746c0.38,0.38,0.877,0.569,1.374,0.569    c0.496,0,0.993-0.189,1.372-0.567c2.675-2.671,4.147-6.227,4.147-10.012C77.029,46.947,75.557,43.392,72.883,40.716z"></path><path d="M78.401,34.235c-0.758-0.756-1.986-0.758-2.746,0.002c-0.758,0.759-0.757,1.988,0.002,2.746    c3.672,3.668,5.694,8.55,5.694,13.745c0,5.194-2.022,10.076-5.694,13.746c-0.759,0.758-0.76,1.987-0.001,2.745    c0.379,0.38,0.876,0.569,1.373,0.569s0.993-0.189,1.372-0.568c4.406-4.402,6.833-10.26,6.833-16.492    C85.234,44.495,82.808,38.638,78.401,34.235z"></path><path d="M84.988,27.755c-0.76-0.758-1.988-0.758-2.746,0c-0.758,0.759-0.758,1.988,0,2.746c5.403,5.402,8.379,12.586,8.379,20.228    c0,7.641-2.976,14.823-8.379,20.227c-0.758,0.759-0.758,1.987,0,2.746c0.379,0.379,0.876,0.568,1.373,0.568    s0.994-0.189,1.373-0.568c6.137-6.137,9.516-14.295,9.516-22.973C94.504,42.049,91.125,33.891,84.988,27.755z"></path><path d="M29.864,40.717c-0.757-0.758-1.987-0.758-2.746-0.002c-2.675,2.67-4.147,6.227-4.147,10.014    c0,3.785,1.473,7.341,4.147,10.012c0.379,0.378,0.876,0.567,1.372,0.567c0.497,0,0.994-0.189,1.374-0.569    c0.758-0.759,0.757-1.988-0.002-2.746c-1.94-1.938-3.009-4.517-3.009-7.264c0-2.749,1.068-5.329,3.009-7.266    C30.621,42.705,30.622,41.477,29.864,40.717z"></path><path d="M18.646,50.729c0-5.194,2.023-10.076,5.696-13.745c0.759-0.758,0.76-1.987,0.002-2.746s-1.986-0.759-2.746-0.002    c-4.408,4.403-6.835,10.261-6.835,16.493c0,6.231,2.427,12.089,6.835,16.492c0.379,0.379,0.875,0.568,1.372,0.568    s0.994-0.189,1.373-0.569c0.759-0.758,0.758-1.987-0.001-2.745C20.67,60.804,18.646,55.922,18.646,50.729z"></path><path d="M9.379,50.729c0-7.642,2.976-14.825,8.377-20.228c0.758-0.759,0.758-1.988,0-2.746c-0.76-0.758-1.988-0.758-2.746,0    C8.875,33.892,5.496,42.05,5.496,50.729c0,8.677,3.379,16.835,9.514,22.973c0.379,0.379,0.876,0.568,1.373,0.568    s0.993-0.189,1.373-0.568c0.758-0.758,0.758-1.987,0-2.746C12.354,65.552,9.379,58.368,9.379,50.729z"></path></g></g></svg></g></g></svg>