<svg xmlns="http://www.w3.org/2000/svg" xmlns:xlink="http://www.w3.org/1999/xlink" width="100" height="100" viewBox="0 0 100 100"><g><g transform="translate(50 50) scale(0.69 0.69) rotate(0) translate(-50 -50)" style="fill:#1A1A1A"><svg fill="#1A1A1A" xmlns="http://www.w3.org/2000/svg" xmlns:xlink="http://www.w3.org/1999/xlink" version="1.1" x="0px" y="0px" viewBox="0 0 100 100" enable-background="new 0 0 100 100" xml:space="preserve"><g><polygon points="93.107,42.146 93.107,42.143 52.018,42.143 52.018,64.731 52.021,64.731 52.021,42.146  "></polygon><path d="M46.731,69.119v-0.146v-2.308v-0.087v-8.98c-1.417-0.718-3.236-0.846-5.383-1.378c0.215,0.697,0.354,1.421,0.404,2.148   c1.638,0.371,2.866,1.836,2.866,3.584c0,2.027-1.65,3.677-3.677,3.677s-3.677-1.649-3.677-3.677c0-1.722,1.19-3.166,2.79-3.564   c-0.079-0.977-0.343-1.943-0.773-2.801c-1.388-0.52-2.881-1.289-4.466-2.521l-4.739,10.156l-1.213-3.702   c0.255-0.188,0.424-0.486,0.472-0.897l0.894-2.134c0-0.619-0.544-1.122-1.213-1.122h-1.454h-1.454   c-0.669,0-1.213,0.503-1.213,1.122l0.894,2.134c0.047,0.411,0.216,0.71,0.472,0.897l-1.213,3.702l-4.738-10.156   c-1.442,1.12-2.807,1.858-4.088,2.374c-0.495,0.833-0.791,1.794-0.824,2.823c0.328,0.19,0.592,0.484,0.755,0.841   c1.208,0.57,2.276,1.771,3.093,3.479c0.137,0.288,0.155,0.613,0.054,0.909c0.489,1.262,0.77,2.64,0.77,3.796   c0,1.622,0,3.155-1.768,3.55c-0.192,0.159-0.431,0.247-0.683,0.247h-1.181c-0.592,0-1.075-0.483-1.075-1.075l0.001-0.042   c0.023-0.57,0.5-1.032,1.074-1.032h1.181c0.12,0,0.238,0.02,0.352,0.061c0.072-0.021,0.094-0.037,0.095-0.037   c0.131-0.233,0.131-1.204,0.131-1.671c0-0.94-0.235-2.074-0.647-3.13c-0.214-0.121-0.387-0.306-0.494-0.528   c-0.716-1.499-1.69-2.468-2.481-2.468c-0.809,0-1.832,1.047-2.544,2.605c-0.116,0.253-0.32,0.46-0.572,0.583   c-0.373,1.01-0.577,2.05-0.577,2.938c0,0.393,0,1.431,0.149,1.675c0.002,0,0.036,0.021,0.129,0.043   c0.122-0.046,0.253-0.07,0.384-0.07h1.184c0.551,0,1.012,0.42,1.067,0.966l0.007,0.066c0,0.634-0.482,1.117-1.074,1.117h-1.184   c-0.235,0-0.461-0.079-0.648-0.222c-0.676-0.127-1.152-0.425-1.454-0.911c-0.365-0.587-0.432-1.356-0.432-2.664   c0-1.146,0.264-2.466,0.746-3.727c-0.071-0.27-0.047-0.551,0.07-0.806c0.501-1.095,1.138-2.032,1.842-2.711   c0.386-0.373,0.803-0.673,1.237-0.892c0.165-0.382,0.448-0.696,0.796-0.895c0.018-0.732,0.135-1.44,0.347-2.108   C8.456,57.612,5,56.1,5,68.665c0,4.584,12.237,6.79,22.518,6.79c0.015,0,0.031,0,0.045,0c0.016,0,0.031,0,0.045,0   c7.464,0,15.953-1.163,20.048-3.556C47.077,71.12,46.731,70.159,46.731,69.119z"></path><path d="M17.708,43.499c1.762,4.799,5.532,9.33,9.9,9.33c4.374,0,8.148-4.543,9.907-9.349c0.679-0.202,1.392-1.49,1.683-3.136   c0.315-1.79,0.017-3.351-0.667-3.605c-0.032-0.582-0.087-1.169-0.167-1.757c-0.276-5.058-1.821-7.319-4.106-8.329   c-1.617-1.298-3.78-2.109-6.651-2.109c-2.862,0-5.018,0.79-6.629,2.061c-2.516,1.056-4.162,3.571-4.256,9.54   c-0.014,0.189-0.027,0.378-0.038,0.567c-0.747,0.145-1.086,1.766-0.757,3.633C16.233,42.069,17,43.398,17.708,43.499z"></path><circle cx="40.942" cy="61.952" r="1.697"></circle><path d="M93.661,40.384H72.935h-0.707H51.5c-0.74,0-1.375,0.549-1.375,1.268v24.926v0.087v2.308v0.146   c0,0.721,0.634,1.325,1.375,1.325h16.602c-0.021,0.413-0.152,2.19-1.019,3.052c-0.682,0.678-1.631,1.314-1.261,1.643   c0.092,0.199,0.515,0.316,1.485,0.316c2.135,0,4.445,0,5.29,0c0.217,0,0.337,0,0.337,0c0.846,0,3.157,0,5.292,0   c1.105,0,1.488-0.176,1.492-0.439h-0.038v-0.089h-0.039c-0.047-0.352-0.782-0.878-1.34-1.431c-0.867-0.861-0.999-2.639-1.017-3.052   h16.376c0.74,0,1.339-0.604,1.339-1.325v-0.146v-2.308v-0.087V41.653C94.999,40.933,94.401,40.384,93.661,40.384z M72.563,69.833   c-0.851,0-1.542-0.675-1.542-1.503c0-0.829,0.691-1.504,1.542-1.504s1.54,0.675,1.54,1.504   C74.103,69.158,73.413,69.833,72.563,69.833z M93.11,64.736H52.021v-0.005h-0.004V42.143h41.09v0.004h0.003V64.736z"></path><path d="M59.763,49.771c0.007-0.013,0.017-0.024,0.024-0.037c0.018-0.028,0.035-0.056,0.056-0.082   c0.015-0.02,0.031-0.038,0.048-0.056c0.021-0.022,0.041-0.043,0.063-0.063c0.021-0.018,0.042-0.033,0.063-0.048   c0.022-0.016,0.046-0.032,0.07-0.046c0.025-0.015,0.051-0.027,0.077-0.038c0.017-0.007,0.031-0.018,0.048-0.023   c0.009-0.003,0.018-0.004,0.027-0.007c0.027-0.009,0.055-0.015,0.083-0.021c0.026-0.006,0.054-0.013,0.08-0.016   s0.053-0.004,0.079-0.004c0.029-0.001,0.057-0.002,0.085,0c0.026,0.002,0.053,0.007,0.079,0.011   c0.027,0.005,0.056,0.009,0.082,0.016c0.025,0.007,0.051,0.017,0.076,0.026c0.027,0.01,0.054,0.021,0.081,0.034   c0.008,0.004,0.018,0.006,0.025,0.011c0.016,0.008,0.028,0.02,0.043,0.029c0.025,0.015,0.05,0.031,0.072,0.048   c0.022,0.017,0.043,0.036,0.063,0.055c0.021,0.019,0.039,0.038,0.058,0.058c0.019,0.022,0.036,0.045,0.053,0.068   c0.015,0.021,0.029,0.042,0.042,0.064c0.016,0.028,0.029,0.056,0.042,0.085c0.007,0.014,0.016,0.027,0.021,0.042l1.445,3.875   l2.481-5.327c0.005-0.011,0.013-0.02,0.018-0.031c0.015-0.028,0.03-0.054,0.048-0.081c0.015-0.021,0.029-0.042,0.046-0.063   c0.018-0.022,0.036-0.042,0.056-0.063c0.021-0.02,0.041-0.039,0.063-0.058c0.02-0.016,0.041-0.031,0.063-0.046   c0.025-0.018,0.051-0.033,0.078-0.048c0.012-0.006,0.021-0.014,0.032-0.02c0.013-0.006,0.024-0.008,0.037-0.013   c0.027-0.011,0.054-0.021,0.082-0.03c0.026-0.008,0.053-0.015,0.08-0.021c0.026-0.005,0.052-0.008,0.078-0.011   c0.028-0.003,0.057-0.005,0.086-0.005c0.026,0,0.053,0.002,0.079,0.004c0.027,0.003,0.056,0.006,0.083,0.012   c0.026,0.005,0.053,0.012,0.079,0.02c0.027,0.008,0.054,0.017,0.08,0.028c0.014,0.005,0.027,0.008,0.04,0.014   c0.013,0.006,0.023,0.015,0.035,0.021c0.025,0.013,0.049,0.027,0.072,0.043s0.047,0.031,0.067,0.049   c0.021,0.017,0.041,0.035,0.061,0.054c0.021,0.02,0.04,0.041,0.058,0.063c0.017,0.02,0.032,0.042,0.047,0.063   c0.018,0.025,0.033,0.05,0.047,0.076c0.006,0.012,0.015,0.022,0.021,0.034l1.813,3.795h4.435c0.53-1.834,0.057-3.804-1.354-5.195   c-0.075-0.075-0.156-0.14-0.235-0.209c-1.978-1.736-4.933-1.784-6.955-0.138c-0.142,0.114-0.277,0.237-0.406,0.365   c-0.131-0.128-0.266-0.251-0.407-0.365c-2.023-1.646-4.979-1.599-6.956,0.138c-0.078,0.069-0.157,0.134-0.234,0.209   c-1.439,1.419-1.907,3.443-1.323,5.308h3.247L59.763,49.771z"></path><path d="M68.043,53.909c-0.001,0-0.004-0.002-0.005-0.002c-0.071,0-0.139-0.012-0.204-0.028c-0.019-0.005-0.035-0.01-0.054-0.017   c-0.055-0.018-0.105-0.04-0.155-0.068c-0.013-0.007-0.026-0.014-0.039-0.021c-0.058-0.037-0.111-0.081-0.158-0.131   c-0.012-0.013-0.021-0.026-0.031-0.039c-0.04-0.046-0.074-0.097-0.103-0.151c-0.005-0.01-0.013-0.017-0.017-0.025l-1.269-2.655   l-2.573,5.525c-0.001,0.003-0.002,0.005-0.003,0.007l-0.001,0.002c-0.001,0.002-0.003,0.003-0.003,0.005   c-0.03,0.064-0.071,0.124-0.118,0.179c-0.011,0.014-0.021,0.026-0.034,0.04c-0.049,0.052-0.102,0.1-0.164,0.138l0,0   c-0.048,0.03-0.099,0.056-0.153,0.075c-0.009,0.004-0.019,0.003-0.027,0.006c-0.086,0.028-0.176,0.049-0.267,0.049   c-0.002,0-0.002,0-0.003,0l0,0c-0.075,0-0.15-0.014-0.224-0.034c-0.021-0.006-0.042-0.014-0.063-0.021   c-0.024-0.009-0.049-0.013-0.072-0.024c-0.033-0.016-0.063-0.036-0.093-0.055c-0.013-0.008-0.024-0.014-0.036-0.022   c-0.063-0.043-0.116-0.095-0.163-0.151c-0.011-0.012-0.02-0.025-0.028-0.038c-0.046-0.063-0.086-0.129-0.112-0.2   c-0.001-0.003-0.003-0.004-0.004-0.006l-0.001-0.004c-0.001-0.002-0.001-0.002-0.002-0.003l-1.495-4.013l-0.729,1.353   c-0.004,0.008-0.011,0.014-0.016,0.021c-0.032,0.055-0.068,0.105-0.111,0.152c-0.006,0.005-0.01,0.013-0.016,0.02   c-0.048,0.048-0.101,0.087-0.158,0.123c-0.017,0.011-0.033,0.019-0.05,0.027c-0.045,0.023-0.091,0.043-0.14,0.059   c-0.019,0.006-0.037,0.012-0.056,0.017c-0.063,0.016-0.127,0.026-0.194,0.026c-0.003,0-0.005,0.001-0.007,0.001   c-0.001,0-0.002,0-0.003,0h-2.87c0.181,0.243,0.379,0.48,0.605,0.705l6.247,6.199c0.654,0.647,1.722,0.647,2.375,0l6.247-6.199   c0.262-0.26,0.49-0.535,0.692-0.818h-4.142C68.045,53.909,68.044,53.909,68.043,53.909z"></path><path d="M78.839,48.916h10.465c0.625,0,1.132-0.507,1.132-1.131c0-0.625-0.507-1.131-1.132-1.131H78.839   c-0.624,0-1.131,0.506-1.131,1.131C77.708,48.409,78.215,48.916,78.839,48.916z"></path><path d="M78.839,54.573h10.465c0.625,0,1.132-0.508,1.132-1.132c0-0.625-0.507-1.131-1.132-1.131H78.839   c-0.624,0-1.131,0.506-1.131,1.131C77.708,54.065,78.215,54.573,78.839,54.573z"></path><path d="M78.839,60.229h10.465c0.625,0,1.132-0.507,1.132-1.132s-0.507-1.131-1.132-1.131H78.839c-0.624,0-1.131,0.506-1.131,1.131   S78.215,60.229,78.839,60.229z"></path></g></svg></g></g></svg>