<svg xmlns="http://www.w3.org/2000/svg" xmlns:xlink="http://www.w3.org/1999/xlink" width="100" height="100" viewBox="0 0 100 100"><g><g transform="translate(50 50) scale(0.69 0.69) rotate(0) translate(-50 -50)" style="fill:#1A1A1A"><svg fill="#1A1A1A" xmlns="http://www.w3.org/2000/svg" xmlns:xlink="http://www.w3.org/1999/xlink" viewBox="0 0 24 24" version="1.1" x="0px" y="0px"><title>icon/house-alt</title><desc>Created with Sketch.</desc><g stroke="none" stroke-width="1" fill="none" fill-rule="evenodd"><path d="M19,8.29289322 L21.8535534,11.1464466 C21.9473216,11.2402148 22,11.3673918 22,11.5 L22,13.5 C22,13.7761424 21.7761424,14 21.5,14 L20,14 L20,19.5 C20,19.7761424 19.7761424,20 19.5,20 L13.5,20 C13.2238576,20 13,19.7761424 13,19.5 L13,15.5 C13,14.6721424 12.3278576,14 11.5,14 C10.6721424,14 10,14.6721424 10,15.5 L10,19.5 C10,19.7761424 9.77614237,20 9.5,20 L3.5,20 C3.22385763,20 3,19.7761424 3,19.5 L3,14 L1.5,14 C1.22385763,14 1,13.7761424 1,13.5 L1,11.5 C1,11.3673918 1.05267842,11.2402148 1.14644661,11.1464466 L11.1464466,1.14644661 C11.3417088,0.951184464 11.6582912,0.951184464 11.8535534,1.14644661 L15,4.29289322 L15,3.5 C15,3.22385763 15.2238576,3 15.5,3 L18.5,3 C18.7761424,3 19,3.22385763 19,3.5 L19,8.29289322 Z M21,11.7071068 L18.1464466,8.85355339 C18.0526784,8.7597852 18,8.63260824 18,8.5 L18,4 L16,4 L16,5.5 C16,5.94545243 15.461429,6.16853582 15.1464466,5.85355339 L11.5,2.20710678 L2,11.7071068 L2,13 L3.5,13 C3.77614237,13 4,13.2238576 4,13.5 L4,19 L9,19 L9,15.5 C9,14.1198576 10.1198576,13 11.5,13 C12.8801424,13 14,14.1198576 14,15.5 L14,19 L19,19 L19,13.5 C19,13.2238576 19.2238576,13 19.5,13 L21,13 L21,11.7071068 Z" fill="#1A1A1A" fill-rule="nonzero"></path></g></svg></g></g></svg>