<svg xmlns="http://www.w3.org/2000/svg" xmlns:xlink="http://www.w3.org/1999/xlink" width="100" height="100" viewBox="0 0 100 100"><g><g transform="translate(50 50) scale(0.69 0.69) rotate(0) translate(-50 -50)" style="fill:#1A1A1A"><svg fill="#1A1A1A" xmlns="http://www.w3.org/2000/svg" xmlns:xlink="http://www.w3.org/1999/xlink" version="1.1" x="0px" y="0px" viewBox="0 0 100 100" style="enable-background:new 0 0 100 100;" xml:space="preserve"><path d="M91.5,39h-0.6v-8c0-2.2-1.8-4-3.9-4H9c-2.2,0-4,1.8-4,4V69c0,2.2,1.8,4,4,4h78c2.2,0,3.9-1.8,3.9-4v-8h0.6  c2,0,3.5-1.7,3.5-3.8V42.8C95,40.7,93.4,39,91.5,39z M91,57h-4.1L87,69L9,69l0-38l78,0v12H91L91,57z M13,34.5h15.8v31H13V34.5z   M31.1,34.5h15.8v31H31.1V34.5z M49.1,34.5h15.8v31H49.1V34.5z M67.2,34.5H83v31H67.2V34.5z"></path></svg></g></g></svg>