<svg xmlns="http://www.w3.org/2000/svg" xmlns:xlink="http://www.w3.org/1999/xlink" width="100" height="100" viewBox="0 0 100 100"><g><g transform="translate(50 50) scale(0.69 0.69) rotate(0) translate(-50 -50)" style="fill:#000000"><svg fill="#000000" xmlns:x="http://ns.adobe.com/Extensibility/1.0/" xmlns:i="http://ns.adobe.com/AdobeIllustrator/10.0/" xmlns:graph="http://ns.adobe.com/Graphs/1.0/" xmlns="http://www.w3.org/2000/svg" xmlns:xlink="http://www.w3.org/1999/xlink" version="1.1" x="0px" y="0px" viewBox="-949 951 100 100" style="enable-background:new -949 951 100 100;" xml:space="preserve"><g><g i:extraneous="self"><g><path d="M-938.9,991.3c0-0.6-0.5-1.2-1.2-1.2h-6.8c-0.6,0-1.2,0.5-1.2,1.2v51c0,0.6,0.5,1.2,1.2,1.2h6.8c0.6,0,1.2-0.5,1.2-1.2     v-10h79.8v10c0,0.6,0.5,1.2,1.2,1.2h6.8c0.6,0,1.2-0.5,1.2-1.2v-19.1h-88.9V991.3z"></path><circle cx="-924.5" cy="1008.9" r="10.5"></circle><path d="M-859.7,1006.8l-43.2-9.3c-3.8-0.8-7.3,2.1-7.3,5.9v16h60.2v-0.6C-850,1013-854,1008-859.7,1006.8z"></path><path d="M-925,990.4h10.6c0.5,0,0.9-0.4,0.9-0.9v-3.2c0-0.5-0.4-0.9-0.9-0.9h-5l5.5-10.3c0.6-1.1-0.2-2.3-1.4-2.3h-9.8     c-0.5,0-0.9,0.4-0.9,0.9v3.2c0,0.5,0.4,0.9,0.9,0.9h4.3l-5.5,10.3C-927,989.1-926.2,990.4-925,990.4z"></path><path d="M-907,980.3h8.7c0.5,0,0.9-0.4,0.9-0.9v-2.3c0-0.5-0.4-0.9-0.9-0.9h-4l4.6-8.5c0.5-0.9-0.2-1.9-1.2-1.9h-8     c-0.5,0-0.9,0.4-0.9,0.9v2.3c0,0.5,0.4,0.9,0.9,0.9h3.4l-4.6,8.5C-908.7,979.2-908,980.3-907,980.3z"></path><path d="M-891.3,970.2h6.8c0.5,0,0.9-0.4,0.9-0.9v-1.5c0-0.5-0.4-0.9-0.9-0.9h-3.1l3.7-6.8c0.4-0.7-0.1-1.6-0.9-1.6h-6.3     c-0.5,0-0.9,0.4-0.9,0.9v1.5c0,0.5,0.4,0.9,0.9,0.9h2.5l-3.7,6.8C-892.6,969.3-892.1,970.2-891.3,970.2z"></path></g></g></g></svg></g></g></svg>