<svg xmlns="http://www.w3.org/2000/svg" xmlns:xlink="http://www.w3.org/1999/xlink" width="100" height="100" viewBox="0 0 100 100"><g><g transform="translate(50 50) scale(0.69 0.69) rotate(0) translate(-50 -50)" style="fill:#1A1A1A"><svg fill="#1A1A1A" xmlns:x="http://ns.adobe.com/Extensibility/1.0/" xmlns:i="http://ns.adobe.com/AdobeIllustrator/10.0/" xmlns:graph="http://ns.adobe.com/Graphs/1.0/" xmlns="http://www.w3.org/2000/svg" xmlns:xlink="http://www.w3.org/1999/xlink" version="1.1" x="0px" y="0px" viewBox="0 0 100 100" enable-background="new 0 0 100 100" xml:space="preserve"><g><g i:extraneous="self"><g><rect x="-192" width="185" height="99"></rect><rect y="-36" width="100" height="30"></rect><text transform="matrix(1 0 0 1 66 -19.5)" fill="#1A1A1A" font-family="'Helvetica'" font-size="2.4">http://thenounproject.com</text><text transform="matrix(1 0 0 1 7.166 -24.5)"><tspan x="0" y="0" fill="#1A1A1A" font-family="'Helvetica-Bold'" font-size="6.1578">The Noun Project</tspan><tspan x="1.12" y="4.8" fill="#1A1A1A" font-family="'Helvetica-Bold'" font-size="4">Icon Template</tspan></text><text transform="matrix(1 0 0 1 -178.5 10.5)" fill="#1A1A1A" font-family="'Helvetica-Bold'" font-size="6.1578">Reminders</text><line fill="#1A1A1A" stroke="#1A1A1A" stroke-miterlimit="10" x1="8" y1="-14.5" x2="18" y2="-14.5"></line><line fill="#1A1A1A" stroke="#1A1A1A" stroke-miterlimit="10" x1="-179" y1="16.5" x2="-162" y2="16.5"></line><g><g><g><rect x="-170.802" y="31.318" fill="#1A1A1A" width="8.721" height="8.642"></rect><path fill="#1A1A1A" d="M-164.455,42.312h4.747v-4.703h-4.747V42.312z M-159.266,42.749h-5.63V37.17h5.63V42.749        L-159.266,42.749z M-166.221,44.062h8.279v-8.203h-8.279V44.062L-166.221,44.062z M-157.5,44.5h-9.163v-9.079h9.163V44.5        L-157.5,44.5z"></path><polygon fill="#1A1A1A" points="-166.149,44.133 -166.292,43.991 -158.013,35.787 -157.871,35.929       "></polygon></g></g></g><rect x="-179" y="58" fill="none" width="35" height="32.5"></rect><text transform="matrix(1 0 0 1 -179 60.1572)"><tspan x="0" y="0" fill="#1A1A1A" font-family="'Helvetica-Bold'" font-size="3">Strokes</tspan><tspan x="0" y="5" fill="#1A1A1A" font-family="'Helvetica'" font-size="2.4">Try to keep strokes at 4px</tspan><tspan x="0" y="10" fill="#1A1A1A" font-family="'Helvetica'" font-size="2.4">Minimum stroke weight is 2px</tspan><tspan x="0" y="14.5" fill="#1A1A1A" font-family="'Helvetica'" font-size="2.4">For thicker strokes use even </tspan><tspan x="0" y="17.5" fill="#1A1A1A" font-family="'Helvetica'" font-size="2.4">numbers: 6px, 8px etc.</tspan><tspan x="0" y="22" fill="#1A1A1A" font-family="'Helvetica-Bold'" font-size="2.4">Remember to expand strokes </tspan><tspan x="0" y="25" fill="#1A1A1A" font-family="'Helvetica-Bold'" font-size="2.4">before saving as an SVG </tspan></text><rect x="-136.5" y="58" fill="none" width="35" height="32.5"></rect><text transform="matrix(1 0 0 1 -136.5 60.1572)"><tspan x="0" y="0" fill="#1A1A1A" font-family="'Helvetica-Bold'" font-size="3">Size</tspan><tspan x="0" y="5" fill="#1A1A1A" font-family="'Helvetica'" font-size="2.4">Cannot be wider or taller than </tspan><tspan x="0" y="8.5" fill="#1A1A1A" font-family="'Helvetica'" font-size="2.4">100px (artboard size)</tspan><tspan x="0" y="13.5" fill="#1A1A1A" font-family="'Helvetica'" font-size="2.4">Scale your icon to fill as much of </tspan><tspan x="0" y="16.5" fill="#1A1A1A" font-family="'Helvetica'" font-size="2.4">the artboard as possible</tspan></text><rect x="-94" y="58" fill="none" width="35" height="32.5"></rect><text transform="matrix(1 0 0 1 -94 60.1572)"><tspan x="0" y="0" fill="#1A1A1A" font-family="'Helvetica-Bold'" font-size="3">Ungroup</tspan><tspan x="0" y="5" fill="#1A1A1A" font-family="'Helvetica'" font-size="2.4">If your design has more than one </tspan><tspan x="0" y="8" fill="#1A1A1A" font-family="'Helvetica'" font-size="2.4">shape, make sure to ungroup</tspan></text><rect x="-50" y="58" fill="none" width="35" height="32.5"></rect><text transform="matrix(1 0 0 1 -50 60.1572)"><tspan x="0" y="0" fill="#1A1A1A" font-family="'Helvetica-Bold'" font-size="3">Save as</tspan><tspan x="0" y="5" fill="#1A1A1A" font-family="'Helvetica'" font-size="2.4">Save as .SVG and make sure </tspan><tspan x="0" y="8" fill="#1A1A1A" font-family="'Helvetica'" font-size="2.4">“Use Artboards” is checked</tspan></text><text transform="matrix(1.0074 0 0 1 -125.542 30.5933)" fill="#1A1A1A" font-family="'Helvetica'" font-size="2.5731">100px</text><text transform="matrix(1.0074 0 0 1 -41 39)" fill="#1A1A1A" font-family="'Helvetica-Bold'" font-size="5.1462">.SVG</text><rect x="-126.514" y="34.815" fill="#1A1A1A" width="10.261" height="10.185"></rect><rect x="-126.477" y="31.766" fill="#1A1A1A" width="0.522" height="2.337"></rect><rect x="-116.812" y="31.766" fill="#1A1A1A" width="0.523" height="2.337"></rect><rect x="-127" y="32.337" fill="#1A1A1A" width="11.233" height="0.572"></rect><g><rect x="-83.805" y="33.844" fill="#1A1A1A" width="10.305" height="10.156"></rect><rect x="-76.809" y="28.707" fill="#1A1A1A" width="3.308" height="3.261"></rect></g><rect x="-178.5" y="22.5" fill="#1A1A1A" stroke="#1A1A1A" stroke-miterlimit="10" width="30" height="30"></rect><rect x="-136.5" y="22.5" fill="#1A1A1A" stroke="#1A1A1A" stroke-miterlimit="10" width="30" height="30"></rect><rect x="-93.5" y="22.5" fill="#1A1A1A" stroke="#1A1A1A" stroke-miterlimit="10" width="30" height="30"></rect><rect x="-49.5" y="22.5" fill="#1A1A1A" stroke="#1A1A1A" stroke-miterlimit="10" width="30" height="30"></rect></g><g><path d="M24.514,40.492l8.977-5.604l-8.977-5.604V40.492z M65.479,68.401V34.888H50.074v33.647     c-4.922,2.762-8.289,7.964-8.289,14.006c0,8.9,7.215,16.117,16.111,16.117c8.904,0,16.123-7.217,16.123-16.117     C74.02,76.399,70.539,71.121,65.479,68.401z"></path><path d="M67.09,67.427V9.193C67.09,4.115,62.979,0,57.9,0c-5.07,0-9.189,4.115-9.189,9.193v58.233     c-5.033,3.092-8.393,8.648-8.393,14.987C40.318,92.13,48.188,100,57.9,100s17.586-7.87,17.586-17.586     C75.486,76.075,72.123,70.519,67.09,67.427z M57.9,97.356c-8.234,0-14.939-6.703-14.939-14.942c0-5.233,2.67-9.991,7.135-12.732     l1.26-0.774V9.193c0-3.611,2.938-6.549,6.545-6.549c3.609,0,6.545,2.938,6.545,6.549v59.714l1.26,0.771     c4.471,2.744,7.135,7.506,7.135,12.735C72.84,90.653,66.141,97.356,57.9,97.356z M45.154,7.871h-8.104v2.645h8.104V7.871z      M45.154,23.361v-2.645h-5.502v2.645H45.154z M45.154,59.257h-8.104v2.645h8.104V59.257z M45.154,33.565h-8.104v2.645h8.104     V33.565z M45.154,49.055v-2.644h-5.502v2.644H45.154z"></path><line x1="48.711" y1="9.193" x2="48.711" y2="67.427"></line></g></g></g></svg></g></g></svg>