<svg xmlns="http://www.w3.org/2000/svg" xmlns:xlink="http://www.w3.org/1999/xlink" width="100" height="100" viewBox="0 0 100 100"><g><g transform="translate(50 50) scale(0.69 0.69) rotate(0) translate(-50 -50)" style="fill:#1A1A1A"><svg fill="#1A1A1A" xmlns="http://www.w3.org/2000/svg" xmlns:xlink="http://www.w3.org/1999/xlink" version="1.1" x="0px" y="0px" viewBox="0 0 1024 1024" style="enable-background:new 0 0 1024 1024;" xml:space="preserve"><g><g><g><path d="M784,853c-16.7,0-33.5,0-50.2,0c-40.2,0-80.4,0-120.6,0c-48.6,0-97.3,0-145.9,0c-42,0-84.1,0-126.1,0     c-20.4,0-40.8-0.3-61.2,0c-0.3,0-0.6,0-0.8,0c16.7,16.7,33.3,33.3,50,50c0-9.5,0-19,0-28.5c-12.2,16.1-24.5,32.1-36.7,48.2     c12.5-4,24.8-9.1,36.4-15.2c11-5.8,20.8-13.2,30.5-21c14.9-11.9,27.4-27.2,37.5-43.4c19.8-31.9,28.5-69.2,31.1-106.3     c1.6-23.1,0.6-46.5,0.6-69.6c0-45.1,0.1-90.1,0.1-135.2c0-46,0.1-91.9,0.1-137.9c0-22.2-0.4-44.5,0.1-66.7c0.2-8.5,0.9-17,2-25.5     c-0.6,4.4-1.2,8.9-1.8,13.3c2.7-19.9,8-39.2,15.8-57.7c-1.7,4-3.4,8-5,11.9c7.1-16.6,16.2-32.2,27.2-46.5     c-2.6,3.4-5.2,6.7-7.8,10.1c10.4-13.4,22.3-25.4,35.7-35.8c-3.4,2.6-6.7,5.2-10.1,7.8c13.5-10.4,28.2-19,43.9-25.6     c-4,1.7-8,3.4-11.9,5c16.3-6.8,33.3-11.3,50.8-13.7c-4.4,0.6-8.9,1.2-13.3,1.8c18.3-2.4,36.8-2.4,55.1,0     c-4.4-0.6-8.9-1.2-13.3-1.8c17.5,2.4,34.5,6.9,50.7,13.7c-4-1.7-8-3.4-11.9-5c15.7,6.6,30.3,15.2,43.8,25.6     c-3.4-2.6-6.7-5.2-10.1-7.8c13.3,10.4,25.2,22.4,35.6,35.8c-2.6-3.4-5.2-6.7-7.8-10.1c11,14.3,20,29.9,27.1,46.5     c-1.7-4-3.4-8-5-11.9c7.8,18.5,13,37.9,15.7,57.7c-0.6-4.4-1.2-8.9-1.8-13.3c1.4,10.6,2.1,21.2,2.1,31.8     c0,12.8,5.6,26.3,14.6,35.4c8.7,8.7,22.9,15.2,35.4,14.6c12.9-0.6,26.3-4.8,35.4-14.6c9-9.8,14.7-21.8,14.6-35.4     c-0.1-28.5-4.1-57.8-13-85c-8.5-26.1-20.4-51.7-36.9-73.8c-9.1-12.2-18.6-24.2-29.6-34.8c-11.1-10.7-23.4-20.3-36.1-28.9     c-9.7-6.6-19.9-12.2-30.6-16.9c-14.3-6.3-28.7-12.2-43.9-15.9c-59.8-14.7-122.8-7.5-177.8,20c-10.4,5.2-20.4,11.4-29.7,18.4     c-12.2,9.2-24.1,18.6-34.7,29.6c-18.7,19.6-35,42.5-46.3,67.2c-6.5,14.3-12.5,28.9-16.8,44c-4.4,15.8-6.8,32.1-8.7,48.4     c-1.2,10.5-1.6,21.1-1.6,31.7c0,18.6,0,37.1,0,55.7c0,32.4-0.1,64.9-0.1,97.3c0,35.8-0.1,71.5-0.1,107.3c0,29-0.1,58.1-0.1,87.1     c0,12.1,0,24.2,0,36.3c-0.1,10.1-0.7,20.1-2.1,30.1c0.6-4.4,1.2-8.9,1.8-13.3c-2.2,15.9-6.1,31.4-12.3,46.2c1.7-4,3.4-8,5-11.9     c-4.7,11.1-10.7,21.6-18,31.2c2.6-3.4,5.2-6.7,7.8-10.1c-6.7,8.6-14.4,16.4-23.1,23.1c3.4-2.6,6.7-5.2,10.1-7.8     c-9.6,7.3-20,13.2-31,17.9c4-1.7,8-3.4,11.9-5c-4.2,1.7-8.5,3.3-12.8,4.7c-21.1,6.8-36.7,25.5-36.7,48.2c0,9.5,0,19,0,28.5     c0,27,22.9,50,50,50c16.7,0,33.5,0,50.2,0c40.2,0,80.4,0,120.6,0c48.6,0,97.3,0,145.9,0c42,0,84.1,0,126.1,0     c20.4,0,40.8,0.3,61.2,0c0.3,0,0.6,0,0.8,0c12.8,0,26.3-5.6,35.4-14.6c8.7-8.7,15.2-22.9,14.6-35.4c-0.6-12.9-4.8-26.3-14.6-35.4     C809.6,858.7,797.5,853,784,853L784,853z"></path></g></g><g><g><path d="M683,496c-14.7,0-29.4,0-44.1,0c-35.3,0-70.7,0-106,0c-42.8,0-85.5,0-128.3,0c-37,0-73.9,0-110.9,0     c-18,0-35.9-0.2-53.9,0c-0.3,0-0.5,0-0.8,0c-12.8,0-26.3,5.6-35.4,14.6c-8.7,8.7-15.2,22.9-14.6,35.4     c0.6,12.9,4.8,26.3,14.6,35.4c9.8,9,21.8,14.6,35.4,14.6c14.7,0,29.4,0,44.1,0c35.3,0,70.7,0,106,0c42.8,0,85.5,0,128.3,0     c37,0,73.9,0,110.9,0c18,0,35.9,0.2,53.9,0c0.3,0,0.5,0,0.8,0c12.8,0,26.3-5.6,35.4-14.6c8.7-8.7,15.2-22.9,14.6-35.4     c-0.6-12.9-4.8-26.3-14.6-35.4C708.6,501.7,696.5,496,683,496L683,496z"></path></g></g></g></svg></g></g></svg>