<svg xmlns="http://www.w3.org/2000/svg" xmlns:xlink="http://www.w3.org/1999/xlink" width="100" height="100" viewBox="0 0 100 100"><g><g transform="translate(50 50) scale(0.69 0.69) rotate(0) translate(-50 -50)" style="fill:#1A1A1A"><svg fill="#1A1A1A" xmlns="http://www.w3.org/2000/svg" xmlns:xlink="http://www.w3.org/1999/xlink" version="1.1" x="0px" y="0px" viewBox="0 0 100 100" style="enable-background:new 0 0 100 100;" xml:space="preserve"><g><path d="M51.443,85.1c-0.545-0.775-1.024-1.446-1.48-2.446h-0.002h-37.35v-69h38v15.855v0.019c3,0.644,5,2.703,7,5.565v-3.439h1v-8   h-1v-2h1v-8h-1V8.77c0-3.604-2.891-6.116-6.487-6.116H13.452c-3.604,0-7.841,2.512-7.841,6.116v81.898   c0,3.597,4.236,6.985,7.841,6.985h37.672c3.253,0,5.969-2.866,6.46-6.103C55.355,89.793,53.294,87.731,51.443,85.1z M31.468,94.753   c-2.532,0-4.576-2.054-4.576-4.576s2.044-4.568,4.576-4.568c2.524,0,4.568,2.046,4.568,4.568S33.992,94.753,31.468,94.753z"></path><path d="M92.901,82.374c-1.849-3.182-1.521-6.11-1.107-9.817c0.516-4.614,1.158-10.356-2.173-18.588   c-2.344-5.786-4.62-8.487-7.612-9.032c-1.549-0.283-3.146,0.338-4.177,1.619c-0.042,0.053-0.083,0.105-0.122,0.159   c-0.432-0.403-0.907-0.749-1.416-1.027c-1.528-0.835-3.241-0.963-4.703-0.352c-1.086,0.455-1.936,1.266-2.502,2.283   c-1.765-2.022-4.396-2.884-6.653-1.938c-0.933,0.391-1.691,1.043-2.246,1.862l-2.132-5.094l-2.876-6.179   c-0.869-2.077-2.57-3.561-4.57-4.168v-0.024c0-0.007,0.213-0.016,0.189-0.022c-1.18-0.37-2.297-0.362-3.448,0.118   c-2.942,1.234-4.309,5.077-2.855,8.556l6.114,15.324v0.162l2.473,6.122c-0.765-0.541-1.473-1.051-2.473-1.485V60.82   c0-0.012,0.211-0.021,0.189-0.032c-2.555-1.267-5.282-1.82-7.861-0.321c-0.759,0.442-3.006,1.787-3.074,3.923   c-0.072,2.205,2.102,3.645,4.369,5.169c0.965,0.647,1.978,1.317,2.718,2c1.034,0.953,1.867,3.295,2.881,5.561   c0.323,0.722,0.778,1.447,0.778,2.169v0.138c1,1.497,1.721,2.959,2.621,4.239c1.406,2.001,3.082,3.728,4.714,5.174   c0.838,0.742,1.756,1.416,2.646,2.004c0.986,0.65,2.156,1.065,3.262,1.466c1.646,0.597,3.216,1.16,4.259,2.425   c1.811,2.193,4.944,3.153,8.413,3.152c4.218,0,8.945-1.419,12.424-3.764C93.68,90.931,95.168,86.554,92.901,82.374z M87.274,91.635   c-5.562,3.752-14.216,4.363-16.834,1.188c-1.565-1.896-3.675-2.66-5.537-3.335c-0.983-0.357-1.913-0.694-2.602-1.148   c-1.49-0.986-2.909-2.238-4.244-3.731c-0.731-0.817-1.438-1.705-2.114-2.668c-1.194-1.7-2.217-3.91-3.174-6.047   c-0.559-1.249-0.712-2.46-1.712-3.541c0-0.041,0.022-0.086,0-0.127c-0.629-1.168-1.295-2.172-2.058-2.874   c-0.909-0.838-2.003-1.572-3.06-2.283c-0.984-0.661-3.031-2.037-3.014-2.581c0-0.005,0.086-0.517,1.65-1.428   c0.592-0.344,1.017-0.495,1.698-0.495c1.455,0,3.336,0.692,4.336,1.644v0.042c2,1.353,4.301,3.215,5.348,4.402l1.987,4.503   l0.3,0.597c0.313,0.766,1.213,1.131,1.984,0.82c0.768-0.314,1.148-1.19,0.835-1.957l-2.17-5.316   c-0.003-0.009-0.003-0.017-0.007-0.024l-1.056-2.04l-7.222-16.939v-0.162l-3.277-8.551c-0.807-1.931-0.423-4.057,0.97-4.642   c0.751-0.312,2.308-0.115,2.308,0.424v0.049c1,0.464,1.477,1.154,1.836,2.016l5.499,12.791l1.737,4.018   c0.001,0.004,0.031,0.007,0.031,0.01c0.002,0.003,0.019,0.006,0.02,0.01l3.109,7.415c0.24,0.575,0.801,0.921,1.389,0.921   c0.191,0,0.39-0.037,0.579-0.116c0.764-0.319,1.125-1.198,0.806-1.963l-3.111-7.438c-0.801-1.928-0.305-4.044,1.088-4.627   c1.393-0.582,3.255,0.555,4.064,2.487l1.038,2.479c-0.062-0.148-0.091-0.301-0.104-0.452c0.02,0.151,0.042,0.304,0.104,0.452   l0.204,0.488l0.001,0.001c0.034,0.08,0.075,0.154,0.118,0.226l2.172,5.222c0.24,0.575,0.786,0.921,1.373,0.921   c0.192,0,0.389-0.037,0.578-0.116c0.764-0.319,1.047-1.157,0.728-1.922l-2.085-5.45c0,0-0.28-0.797-0.385-0.911   c-0.363-1.659,0.164-3.271,1.349-3.769c0.625-0.261,1.371-0.183,2.107,0.217c0.831,0.454,1.545,1.281,1.96,2.274l0.209,0.495v0.001   l2.484,5.938c0.24,0.575,0.798,0.921,1.385,0.921c0.192,0,0.389-0.037,0.578-0.116c0.764-0.319,1.124-1.198,0.805-1.963   l-2.274-5.437c-0.002-0.004-0.002-0.008-0.004-0.012c-0.425-1.015-0.075-1.68,0.171-1.985c0.335-0.417,0.843-0.628,1.301-0.549   c1.136,0.207,2.928,1.179,5.369,7.207c3.046,7.527,2.477,12.628,1.973,17.129c-0.438,3.918-0.852,7.619,1.474,11.619   C92.176,87.329,89.691,90.005,87.274,91.635z"></path><polygon points="70.284,53.323 70.282,53.319 70.283,53.321  "></polygon><path d="M45.847,27.293c2.129,0,3.86-1.731,3.86-3.86s-1.731-3.86-3.86-3.86s-3.86,1.731-3.86,3.86   c0,0.712,0.207,1.371,0.545,1.945l-2.458,2.912c-0.631-0.448-1.396-0.718-2.227-0.718c-1.159,0-2.189,0.524-2.897,1.336   l-3.325-1.684c0.054-0.256,0.083-0.521,0.083-0.792c0-2.129-1.731-3.86-3.86-3.86s-3.86,1.731-3.86,3.86   c0,0.728,0.214,1.402,0.565,1.983l-5.239,5.449c-0.452-0.187-0.946-0.293-1.466-0.293c-2.129,0-3.86,1.731-3.86,3.86   s1.731,3.86,3.86,3.86s3.86-1.731,3.86-3.86c0-0.881-0.308-1.684-0.806-2.334l5.096-5.299c0.552,0.305,1.176,0.493,1.85,0.493   c1.139,0,2.152-0.505,2.859-1.291l3.354,1.699c-0.046,0.237-0.074,0.48-0.074,0.731c0,2.129,1.731,3.86,3.86,3.86   s3.86-1.731,3.86-3.86c0-0.561-0.126-1.091-0.342-1.572l2.599-3.079C44.523,27.098,45.159,27.293,45.847,27.293z M19.707,37.433   c0,1.025-0.835,1.86-1.86,1.86s-1.86-0.835-1.86-1.86c0-0.959,0.733-1.742,1.666-1.841c0.065-0.007,0.128-0.02,0.194-0.02   c0.713,0,1.327,0.408,1.639,0.999C19.622,36.83,19.707,37.12,19.707,37.433z M29.707,26.433c0,0.682-0.373,1.272-0.922,1.597   c-0.276,0.163-0.595,0.264-0.938,0.264c-0.125,0-0.247-0.014-0.366-0.037c-0.709-0.143-1.27-0.69-1.438-1.39   c-0.034-0.14-0.057-0.284-0.057-0.434c0-1.025,0.835-1.86,1.86-1.86c0.961,0,1.745,0.735,1.841,1.671   C29.694,26.307,29.707,26.368,29.707,26.433z M37.847,33.293c-0.938,0-1.708-0.7-1.834-1.604c-0.012-0.085-0.026-0.169-0.026-0.257   c0-0.656,0.345-1.232,0.86-1.563c0.289-0.186,0.631-0.297,1-0.297c0.339,0,0.652,0.098,0.927,0.257   c0.555,0.322,0.934,0.917,0.934,1.604c0,0.165-0.028,0.321-0.068,0.474C39.427,32.702,38.707,33.293,37.847,33.293z M43.986,23.433   c0-0.986,0.775-1.789,1.747-1.849c0.038-0.003,0.074-0.012,0.113-0.012c0.721,0,1.341,0.417,1.649,1.019   c0.13,0.254,0.211,0.537,0.211,0.842c0,1.025-0.835,1.86-1.86,1.86c-0.192,0-0.374-0.038-0.549-0.092   c-0.695-0.218-1.212-0.826-1.292-1.571C43.999,23.564,43.986,23.5,43.986,23.433z"></path><path d="M29.661,53.479l-9.46-3.078c-0.24,0.877-0.379,1.795-0.379,2.749c0,3.474,1.702,6.541,4.311,8.439   c0.902,0.657,1.915,1.171,3.002,1.516c0.481-1.846,1.212-4.633,2.319-8.839C29.522,54.007,29.59,53.75,29.661,53.479z"></path><path d="M40.193,49.925c-0.065-0.201-0.142-0.396-0.219-0.592l-5.315,2.39l-3.972,1.786c-0.015,0.054-0.029,0.109-0.044,0.164   c-0.809,3.074-1.82,6.928-2.54,9.686c0.697,0.148,1.418,0.234,2.161,0.234c2.295,0,4.409-0.749,6.132-2.003   c2.608-1.898,4.311-4.966,4.311-8.439C40.707,52.023,40.523,50.941,40.193,49.925z"></path><path d="M30.254,52.607l9.315-4.189c-1.725-3.388-5.242-5.71-9.305-5.71c-0.07,0-0.138,0.009-0.207,0.011   c-4.372,0.085-8.076,2.855-9.547,6.731l9.725,3.165L30.254,52.607z"></path><rect x="16.611" y="71.653" width="3" height="9"></rect><rect x="20.611" y="76.653" width="3" height="4"></rect><rect x="36.611" y="74.653" width="3" height="6"></rect><polygon points="44.611,72.653 44.611,72.653 44.611,72.744 42.061,72.794 42.069,80.632 45.079,80.637 44.839,73.213    44.611,73.218  "></polygon><rect x="32.611" y="76.653" width="3" height="4"></rect><rect x="24.611" y="71.653" width="3" height="9"></rect><rect x="28.611" y="67.653" width="3" height="13"></rect></g></svg></g></g></svg>