<svg xmlns="http://www.w3.org/2000/svg" xmlns:xlink="http://www.w3.org/1999/xlink" width="100" height="100" viewBox="0 0 100 100"><g><g transform="translate(50 50) scale(0.69 0.69) rotate(0) translate(-50 -50)" style="fill:#1A1A1A"><svg fill="#1A1A1A" xmlns="http://www.w3.org/2000/svg" data-name="Layer 1" viewBox="0 0 128 128" x="0px" y="0px"><title>expand lines</title><path d="M12,32.31a2.5,2.5,0,0,1,.55-1.83A2,2,0,0,1,13.9,30a2,2,0,0,0,.22-4,6.11,6.11,0,0,0-4.3,1.54A6.25,6.25,0,0,0,8,32.31V34a2,2,0,0,0,4,0Z"></path><path d="M45.45,8.89a2,2,0,0,0-2.56-1.2l-1,.36a2,2,0,1,0,1.43,3.74l.9-.34A2,2,0,0,0,45.45,8.89Z"></path><path d="M50.86,122.5l-.94-.23a2,2,0,0,0-1,3.88l1,.24a2,2,0,0,0,.9-3.9Z"></path><path d="M125.44,57.63a2,2,0,1,0-4,.53q.06.48.12,1a2,2,0,0,0,2,1.77h.24a2,2,0,0,0,1.75-2.22Q125.51,58.14,125.44,57.63Z"></path><path d="M51.25,9.36a2,2,0,0,0,.42,0l.94-.2a2,2,0,1,0-.78-3.92l-1,.21a2,2,0,0,0,.42,4Z"></path><path d="M6.58,74.25q-.07-.48-.13-1a2,2,0,0,0-4,.5q.06.51.14,1a2,2,0,0,0,2,1.72l.28,0A2,2,0,0,0,6.58,74.25Z"></path><path d="M2,64.52q0,.51,0,1a2,2,0,0,0,2,2H4a2,2,0,0,0,2-2q0-.48,0-1a2,2,0,0,0-4-.09Z"></path><path d="M2.76,56.3a2,2,0,0,0,1.67,2.29l.31,0a2,2,0,0,0,2-1.69q.07-.46.15-.92H2.8Z"></path><path d="M35.49,15.48l.84-.47a2,2,0,1,0-1.91-3.51l-.56.31a14.17,14.17,0,0,1-.68,2.86,15.79,15.79,0,0,1,2.22.85Z"></path><path d="M121.21,75.62a2,2,0,0,0,1.64,2.3l.33,0a2,2,0,0,0,2-1.67q.08-.51.16-1a2,2,0,1,0-4-.59Q121.29,75.15,121.21,75.62Z"></path><path d="M122,66q0,.48,0,1a2,2,0,0,0,2,2h0a2,2,0,0,0,2-2q0-.51,0-1a2,2,0,0,0-4,0Z"></path><path d="M59.44,123.82l-1-.08a2,2,0,1,0-.38,4l1,.09h.16a2,2,0,0,0,.15-4Z"></path><path d="M69,8.21l1,.09h.2a2,2,0,0,0,.2-4l-1-.1a2,2,0,0,0-.34,4Z"></path><path d="M60.15,8.12h.13l1-.05a2,2,0,1,0-.19-4l-1,.06a2,2,0,0,0,.12,4Z"></path><path d="M76.74,122.6l-.94.2a2,2,0,1,0,.81,3.92l1-.22a2,2,0,0,0-.87-3.9Z"></path><path d="M68.14,123.85l-1,.06a2,2,0,0,0,.11,4h.11l1-.06a2,2,0,1,0-.28-4Z"></path><path d="M77.55,9.59l.94.23a2,2,0,1,0,1-3.87l-1-.25a2,2,0,1,0-.93,3.89Z"></path><path d="M89.35,11.56a2,2,0,0,0-1.06-2.62l-1-.4a2,2,0,0,0-1.51,3.71l.89.37a2,2,0,0,0,2.62-1.06Z"></path><path d="M31.25,18.3A14.09,14.09,0,0,1,27.17,22h1.42C32.68,22,36,25,36,28.63V48H4V28.63C4,25,7.32,22,11.41,22h1.42a14.09,14.09,0,0,1-4.07-3.7A10.81,10.81,0,0,0,0,28.63V49.88A2.21,2.21,0,0,0,2.28,52H37.72A2.21,2.21,0,0,0,40,49.88V28.63A10.81,10.81,0,0,0,31.25,18.3Z"></path><path d="M20,20A10,10,0,1,0,10,10,10,10,0,0,0,20,20ZM20,4a6,6,0,1,1-6,6A6,6,0,0,1,20,4Z"></path><circle cx="10" cy="42" r="2"></circle><path d="M28.59,94H26a10,10,0,1,0-12,0H11.41C5.11,94,0,98.76,0,104.63v21.25A2.21,2.21,0,0,0,2.28,128H37.72A2.21,2.21,0,0,0,40,125.88V104.63C40,98.76,34.89,94,28.59,94ZM20,80a6,6,0,1,1-6,6A6,6,0,0,1,20,80Zm16,44H4V104.63C4,101,7.32,98,11.41,98H28.59c4.09,0,7.41,3,7.41,6.63Z"></path><path d="M14.13,102a6.12,6.12,0,0,0-4.3,1.54A6.25,6.25,0,0,0,8,108.31V110a2,2,0,0,0,4,0v-1.69a2.5,2.5,0,0,1,.55-1.83A2,2,0,0,1,13.9,106a2,2,0,0,0,.22-4Z"></path><path d="M4.62,83.89A2,2,0,0,0,6,85.23,13.9,13.9,0,0,1,7.1,80.55a2,2,0,0,0-1.39-.12A2,2,0,0,0,4.33,82.9Q4.47,83.39,4.62,83.89Z"></path><circle cx="10" cy="118" r="2"></circle><path d="M64,60A10,10,0,1,0,54,50,10,10,0,0,0,64,60Zm0-16a6,6,0,1,1-6,6A6,6,0,0,1,64,44Z"></path><path d="M100,32.31a2.5,2.5,0,0,1,.55-1.83A2,2,0,0,1,101.9,30a2,2,0,0,0,.22-4,6.1,6.1,0,0,0-4.3,1.54A6.25,6.25,0,0,0,96,32.31V34a2,2,0,0,0,4,0Z"></path><path d="M94.82,14.66a14.26,14.26,0,0,1-.59-2.22,2,2,0,0,0-1.32,2.93A15.72,15.72,0,0,1,94.82,14.66Z"></path><path d="M119.25,18.3a14.09,14.09,0,0,1-4.07,3.7h1.42c4.09,0,7.41,3,7.41,6.63V48H92V28.63C92,25,95.32,22,99.41,22h1.42a14.09,14.09,0,0,1-4.07-3.7A10.81,10.81,0,0,0,88,28.63V49.88A2.21,2.21,0,0,0,90.28,52h35.44A2.21,2.21,0,0,0,128,49.88V28.63A10.81,10.81,0,0,0,119.25,18.3Z"></path><path d="M108,20A10,10,0,1,0,98,10,10,10,0,0,0,108,20Zm0-16a6,6,0,1,1-6,6A6,6,0,0,1,108,4Z"></path><circle cx="98" cy="42" r="2"></circle><path d="M83,123a2,2,0,0,0,1,1.1v-3.6A2,2,0,0,0,83,123Z"></path><path d="M100,108.31a2.5,2.5,0,0,1,.55-1.83,2,2,0,0,1,1.35-.48,2,2,0,0,0,.22-4,6.11,6.11,0,0,0-4.3,1.54A6.25,6.25,0,0,0,96,108.31V110a2,2,0,0,0,4,0Z"></path><path d="M122.93,85.31l.31-1a2,2,0,0,0-1.32-2.5,2,2,0,0,0-.6-.08A13.93,13.93,0,0,1,122,86c0,.14,0,.28,0,.42A2,2,0,0,0,122.93,85.31Z"></path><path d="M119.25,94.3a14.09,14.09,0,0,1-4.07,3.7h1.42c4.09,0,7.41,3,7.41,6.63V124H92V104.63C92,101,95.32,98,99.41,98h1.42a14.09,14.09,0,0,1-4.07-3.7A10.81,10.81,0,0,0,88,104.63v21.25A2.21,2.21,0,0,0,90.28,128h35.44a2.21,2.21,0,0,0,2.28-2.12V104.63A10.81,10.81,0,0,0,119.25,94.3Z"></path><path d="M118,86a10,10,0,1,0-10,10A10,10,0,0,0,118,86Zm-16,0a6,6,0,1,1,6,6A6,6,0,0,1,102,86Z"></path><circle cx="98" cy="118" r="2"></circle><path d="M57.75,88H48V68.63C48,65,51.32,62,55.41,62h.82l.33-.18a14.08,14.08,0,0,1-3.8-3.52A10.81,10.81,0,0,0,44,68.63V89.88A2.21,2.21,0,0,0,46.28,92H57.75Z"></path><path d="M75.25,58.3a14.09,14.09,0,0,1-4,3.67l0,0h1.33C76.68,62,80,65,80,68.63V88H72.22a15.22,15.22,0,0,1-2.47,1.36V92h12A2.21,2.21,0,0,0,84,89.88V68.63A10.81,10.81,0,0,0,75.25,58.3Z"></path><circle cx="64" cy="104" r="2"></circle><path d="M63.75,82.59a2,2,0,0,0-2,2V96a2,2,0,1,0,4,0V86.42A11.29,11.29,0,1,0,53.11,71.64a2,2,0,0,0,3.79,1.29,7.26,7.26,0,1,1,6.86,9.67Z"></path></svg></g></g></svg>