<svg xmlns="http://www.w3.org/2000/svg" xmlns:xlink="http://www.w3.org/1999/xlink" width="100" height="100" viewBox="0 0 100 100"><g><g transform="translate(50 50) scale(0.69 0.69) rotate(0) translate(-50 -50)" style="fill:#1A1A1A"><svg fill="#1A1A1A" xmlns="http://www.w3.org/2000/svg" viewBox="0 0 457 885" version="1.1" x="0px" y="0px"><g><path fill="#1A1A1A" opacity="1.00" d=" M 58.88 0.00 L 397.94 0.00 C 413.44 0.75 428.57 7.45 439.38 18.61 C 449.92 29.29 456.21 43.90 457.00 58.86 L 457.00 825.99 C 456.25 841.22 449.76 856.10 438.92 866.86 C 428.19 877.71 413.34 884.20 398.12 885.00 L 59.04 885.00 C 43.56 884.25 28.45 877.56 17.65 866.42 C 7.09 855.74 0.79 841.12 0.00 826.14 L 0.00 59.03 C 0.75 43.55 7.44 28.44 18.59 17.63 C 29.28 7.08 43.90 0.79 58.88 0.00 M 28.65 60.04 C 28.45 81.24 28.62 102.46 28.56 123.66 C 161.84 123.70 295.13 123.70 428.41 123.66 C 428.36 102.47 428.48 81.27 428.35 60.08 C 427.84 43.28 412.82 28.68 396.03 28.59 C 284.35 28.55 172.68 28.55 61.00 28.59 C 44.21 28.66 29.19 43.25 28.65 60.04 M 28.57 152.28 C 28.56 339.41 28.57 526.54 28.56 713.67 C 161.84 713.70 295.12 713.69 428.40 713.67 C 428.41 526.55 428.40 339.43 428.41 152.30 C 295.13 152.26 161.85 152.30 28.57 152.28 M 28.56 742.29 C 28.56 767.52 28.57 792.75 28.56 817.98 C 28.53 822.66 28.45 827.43 29.79 831.97 C 32.42 841.71 39.76 850.02 49.09 853.86 C 55.97 856.98 63.63 856.43 70.98 856.44 C 179.32 856.42 287.67 856.47 396.02 856.41 C 412.81 856.33 427.83 841.73 428.35 824.94 C 428.48 797.39 428.37 769.84 428.41 742.28 C 295.12 742.29 161.84 742.27 28.56 742.29 Z"></path><path fill="#1A1A1A" opacity="1.00" d=" M 177.27 67.31 C 178.74 66.65 180.38 66.60 181.98 66.58 C 213.32 66.61 244.66 66.57 276.01 66.61 C 281.09 66.40 285.72 70.91 285.64 76.01 C 285.86 81.15 281.23 85.82 276.09 85.65 C 244.36 85.67 212.63 85.67 180.90 85.64 C 176.11 85.79 171.70 81.76 171.40 76.98 C 170.96 72.92 173.48 68.80 177.27 67.31 Z"></path><path fill="#1A1A1A" opacity="1.00" d=" M 80.73 288.80 C 85.05 286.02 91.31 287.61 93.87 292.03 C 125.03 338.72 156.15 385.44 187.34 432.12 C 202.14 402.62 216.83 373.06 231.68 343.58 C 234.77 337.55 244.33 337.24 247.84 343.03 C 280.63 392.14 313.39 441.29 346.16 490.42 C 348.52 479.66 350.82 468.87 353.28 458.13 C 354.51 452.92 360.67 449.75 365.64 451.69 C 370.21 453.19 372.97 458.45 371.69 463.08 C 367.80 480.70 363.97 498.33 360.05 515.93 C 359.13 520.80 353.90 524.29 349.04 523.23 C 331.67 519.50 314.33 515.60 296.96 511.84 C 292.79 511.35 288.93 508.31 288.18 504.06 C 286.67 497.88 292.71 491.50 298.97 492.79 C 309.07 494.87 319.11 497.21 329.20 499.37 C 299.82 455.34 270.46 411.31 241.09 367.28 C 226.48 396.60 211.79 425.89 197.14 455.19 C 195.06 459.91 188.86 462.05 184.30 459.66 C 181.38 458.36 179.93 455.37 178.22 452.88 C 144.73 402.66 111.21 352.46 77.75 302.22 C 74.72 297.94 76.18 291.39 80.73 288.80 Z"></path><path fill="#1A1A1A" opacity="1.00" d=" M 219.23 760.35 C 228.40 758.47 238.21 759.91 246.40 764.46 C 254.94 769.12 261.65 777.03 264.84 786.24 C 268.15 795.68 267.73 806.39 263.63 815.53 C 259.62 824.60 252.09 832.04 242.97 835.93 C 233.20 840.17 221.74 840.23 211.93 836.12 C 202.52 832.24 194.75 824.61 190.70 815.27 C 185.91 804.42 186.35 791.40 191.91 780.92 C 197.34 770.43 207.65 762.64 219.23 760.35 M 221.36 779.46 C 214.23 781.51 208.47 787.66 206.95 794.94 C 205.18 802.53 208.25 810.91 214.42 815.66 C 220.01 820.14 227.98 821.35 234.65 818.71 C 241.30 816.21 246.41 810.06 247.64 803.06 C 248.98 796.09 246.35 788.58 241.04 783.91 C 235.83 779.16 228.11 777.40 221.36 779.46 Z"></path></g></svg></g></g></svg>