<svg xmlns="http://www.w3.org/2000/svg" xmlns:xlink="http://www.w3.org/1999/xlink" width="100" height="100" viewBox="0 0 100 100"><g><g transform="translate(50 50) scale(0.69 0.69) rotate(0) translate(-50 -50)" style="fill:#000000"><svg fill="#000000" xmlns="http://www.w3.org/2000/svg" viewBox="0 0 64 64" x="0px" y="0px"><g><path d="M31,20H11a1,1,0,0,0-1,1V43a1,1,0,0,0,1,1H31a1,1,0,0,0,1-1V21A1,1,0,0,0,31,20ZM30,42H12V22H30Z"></path><path d="M19,31h2.382l-2.277,4.553,1.79.894,3-6A1,1,0,0,0,23,29H20.477l1.452-3.628-1.858-.744-2,5A1,1,0,0,0,19,31Z"></path><path d="M51.071,35.628l-2,5A1,1,0,0,0,50,42h2.382l-2.277,4.553,1.79.894,3-6A1,1,0,0,0,54,40H51.477l1.452-3.628Z"></path><path d="M42.071,13.628l-2,5A1,1,0,0,0,41,20h2.382l-2.277,4.553,1.79.894,3-6A1,1,0,0,0,45,18H42.477l1.452-3.628Z"></path><path d="M21,40a7.008,7.008,0,0,0,7-7,7.123,7.123,0,0,0-1.135-3.5l-1.73,1A5.34,5.34,0,0,1,26,33a5,5,0,0,1-10,0,3.991,3.991,0,0,1,.833-2.446l-1.666-1.108A5.957,5.957,0,0,0,14,33,7.008,7.008,0,0,0,21,40Z"></path><rect x="26" y="24" width="2" height="2"></rect><rect x="14" y="25" width="2" height="2"></rect><path d="M50,14v9a1,1,0,0,0,1,1h9v7H46V30a1,1,0,0,0-1-1H42V28a1,1,0,0,0-1-1H36V19a3,3,0,0,0-3-3H31V3a1,1,0,0,0-1-1H12a1,1,0,0,0-1,1V16H9a3,3,0,0,0-3,3v1H3a1,1,0,0,0-1,1v6a1,1,0,0,0,1,1H6V45a3,3,0,0,0,3,3h2V61a1,1,0,0,0,1,1H30a1,1,0,0,0,1-1V48h2a3,3,0,0,0,3-3V37h5a1,1,0,0,0,1-1V35h3a1,1,0,0,0,1-1V33H61a1,1,0,0,0,1-1V23a1,1,0,0,0-1-1H52V15H62V13H51A1,1,0,0,0,50,14ZM13,4H29V16H13ZM4,26V22H6v4ZM29,60H13V48H29Zm5-15a1,1,0,0,1-1,1H9a1,1,0,0,1-1-1V19a1,1,0,0,1,1-1H33a1,1,0,0,1,1,1Zm6-10H36V29h4Zm4-2H42V31h2Z"></path><rect x="15" y="6" width="4" height="2"></rect><rect x="15" y="10" width="4" height="2"></rect><rect x="23" y="6" width="4" height="2"></rect><rect x="23" y="10" width="4" height="2"></rect><rect x="15" y="52" width="4" height="2"></rect><rect x="15" y="56" width="4" height="2"></rect><rect x="23" y="52" width="4" height="2"></rect><rect x="23" y="56" width="4" height="2"></rect></g></svg></g></g></svg>