<?xml version="1.0" encoding="utf-8"?>
<!-- Svg Vector Icons : http://www.onlinewebfonts.com/icon -->
<!DOCTYPE svg PUBLIC "-//W3C//DTD SVG 1.1//EN" "http://www.w3.org/Graphics/SVG/1.1/DTD/svg11.dtd">
<svg version="1.1" xmlns="http://www.w3.org/2000/svg" xmlns:xlink="http://www.w3.org/1999/xlink" x="0px" y="0px" viewBox="0 0 1000 1000" enable-background="new 0 0 1000 1000" xml:space="preserve">
<metadata> Svg Vector Icons : http://www.onlinewebfonts.com/icon </metadata>
<g><g transform="translate(0.000000,511.000000) scale(0.100000,-0.100000)"><path d="M3637.8,4667.9c-109.6-41.9-205.3-121.6-267.1-227.2c-49.8-81.7-55.8-111.6-51.8-243.2c2-81.7,6-167.4,10-189.4c4-33.9-267.1-283-1283.7-1176L755.5,1696H600.1c-135.5,0-167.4-8-251.1-55.8c-51.8-31.9-121.6-93.7-153.5-137.5C0.1,1233.5,117.7,846.8,428.7,739.2l71.7-25.9l956.8-2166.6L2413.9-3622l-57.8-101.7c-49.8-87.7-57.8-121.6-57.8-251.1c0-127.6,8-163.4,55.8-245.2c103.7-173.4,285-267.1,484.4-247.2c133.5,14,217.3,57.8,318.9,167.4l83.7,87.7l2124.8,607.9l2124.8,607.9l63.8-35.9c45.9-23.9,111.6-35.9,217.3-35.9c133.5,0,161.4,6,249.2,59.8c249.2,153.5,318.9,466.4,157.5,707.6l-67.8,101.6l645.8,2441.7c356.8,1341.4,647.8,2443.7,647.8,2447.7c0,4,39.9,14,87.7,19.9c119.6,17.9,261.1,113.6,330.9,223.3c149.5,237.2,75.7,544.2-167.4,695.6c-87.7,51.8-115.6,59.8-249.2,59.8c-129.6,0-165.5-8-245.2-53.8c-49.8-31.9-109.6-77.7-129.6-103.6l-37.8-47.8l-2332.1,406.6c-1281.7,223.2-2336.1,406.6-2344.1,406.6c-8,0-29.9,33.9-45.8,73.8c-81.7,191.3-235.2,305-434.5,316.9C3761.3,4693.8,3685.6,4685.8,3637.8,4667.9z M6647.5,3689.2c1229.9-213.3,2240.4-388.7,2248.4-388.7c6,0,10-27.9,6-61.8l-6-59.8l-1295.6-528.2c-711.6-289-1301.6-526.2-1309.6-526.2c-7.9,0-55.8,31.9-105.6,69.8c-139.5,105.6-247.2,123.6-490.3,85.7c-25.9-4-853.1,887-1467,1580.6c-23.9,29.9-23.9,41.9,12,99.7c23.9,37.9,41.9,83.7,41.9,105.6c0,29.9,10,33.9,65.8,23.9C4381.2,4083.9,5417.7,3904.5,6647.5,3689.2z M3757.4,3705.1c77.7-6,145.5,0,205.3,21.9c83.7,27.9,91.7,27.9,121.6-4c29.9-31.9,1295.6-1439.1,1379.3-1532.8c37.9-41.8,37.9-43.8-13.9-131.5c-29.9-49.8-59.8-139.5-67.8-201.3l-13.9-113.6l-783.3-318.9L3801.2,1106l-69.8,59.8c-119.6,107.6-183.4,131.6-348.8,131.6c-133.5,0-161.5-6-249.2-59.8c-55.8-35.9-125.6-103.7-165.4-159.5c-47.8-73.8-77.7-97.7-109.6-95.7c-85.7,10-1678.3,245.2-1718.2,255.1c-29.9,6-49.8,33.9-63.8,95.7c-12,47.9-49.8,123.6-81.7,169.4l-61.8,81.7l564.1,496.3c309,273.1,879,775.4,1267.7,1116.2l703.6,621.9l87.7-51.8C3611.8,3735,3685.6,3711.1,3757.4,3705.1z M8981.6,2941.7c22-35.9-45.8-147.5-707.6-1146.1L7542.5,689.4l-129.6,12c-89.7,8-157.5,4-213.3-16l-79.7-27.9l-378.7,416.6c-207.3,229.2-386.7,430.5-400.7,448.5c-19.9,27.9-17.9,51.8,6,123.6c16,47.8,27.9,133.6,25.9,187.4l-6,101.7l1283.7,522.2c707.6,287,1289.6,524.2,1295.6,524.2C8951.7,2981.6,8967.7,2963.7,8981.6,2941.7z M9194.9,2742.4c10-15.9-1086.3-4209.7-1237.8-4737.9c-33.9-115.6-77.7-139.5-95.7-49.8c-27.9,141.5-291,1803.9-287,1805.9c73.8,41.9,167.4,133.6,209.3,207.3c47.8,79.7,55.8,115.6,55.8,245.2c0,135.5-6,161.5-65.8,257.1L7708,575.8l105.6,161.4C8692.6,2068.7,9157,2762.3,9169,2762.3C9177,2762.3,9188.9,2752.4,9194.9,2742.4z M5493.4,1486.7c23.9-31.9,85.7-83.7,137.5-113.6c81.7-47.8,117.6-55.8,245.2-55.8c117.6,0,165.4,10,223.2,43.9l75.8,43.8l362.7-402.6c470.4-520.2,428.5-460.4,382.7-542.2c-19.9-37.9-45.9-69.8-57.8-69.8c-21.9,0-2794.5,408.6-2914.1,428.5c-51.8,10-65.8,21.9-65.8,57.8c0,41.9,59.8,71.8,673.7,320.9c368.8,149.5,707.6,289,751.5,309C5419.7,1556.4,5443.6,1554.4,5493.4,1486.7z M2041.2,900.7l831.2-123.6l33.9-105.6c45.8-137.5,127.6-235.2,249.2-299c55.8-27.9,101.7-51.8,105.6-53.8c2-2-97.7-833.2-225.2-1851.7c-125.6-1016.6-229.2-1867.7-229.2-1891.6c0-35.9-15.9-45.8-111.6-63.8l-111.6-19.9l-27.9,59.8c-15.9,33.9-436.5,984.6-932.8,2114.8l-904.9,2051l61.8,27.9c99.7,41.9,189.4,119.6,243.2,213.3c47.8,81.7,55.8,85.7,119.6,75.7C1178.1,1028.2,1582.7,968.4,2041.2,900.7z M5346,410.3c813.2-119.6,1485-219.3,1490.9-219.3c6,0,17.9-33.9,25.9-73.8c8-41.8,25.9-97.7,41.8-127.6c25.9-53.8,23.9-57.8-113.6-191.3c-77.7-73.8-922.9-881-1877.6-1789.9L3175.3-3647.9l-93.7,69.8c-77.7,57.8-91.7,77.7-83.7,121.6c4,27.9,111.6,883,237.2,1899.6c125.6,1018.5,233.2,1859.7,241.2,1869.7c6,10,25.9,17.9,45.8,17.9c63.8,0,221.3,119.6,277.1,209.3c29.9,47.8,57.8,89.7,59.8,89.7C3863,629.6,4532.7,531.9,5346,410.3z M7281.4-281.3c69.8-8,91.7-19.9,99.7-53.8c6-21.9,67.8-404.6,139.5-849.1c71.7-444.5,133.5-831.2,139.5-859.1c10-45.8,4-53.8-43.9-63.8c-85.7-17.9-217.2-121.6-275-223.2c-67.8-115.6-85.7-283-41.8-408.6c15.9-47.9,27.9-91.7,23.9-93.7c-8-8-4026.3-1158.1-4030.3-1154.1c-2,0-8,35.9-14,77.7l-12,73.8l1903.5,1813.8L7076.1-207.6l57.8-29.9C7165.8-255.4,7231.6-273.3,7281.4-281.3z"/></g></g>
</svg>