<?xml version="1.0" standalone="no"?>
 <!DOCTYPE svg PUBLIC "-//W3C//DTD SVG 1.1//EN" 
 "http://www.w3.org/Graphics/SVG/1.1/DTD/svg11.dtd"> 
<svg xmlns="http://www.w3.org/2000/svg" version="1.1" 
    width="29.7002cm" height="21.0007cm" viewBox="0 0 116930 82680 ">
<title>SVG Picture created as HealthMonitor-B_Paste.svg date 2019/06/02 16:58:32 </title>
  <desc>Picture generated by PCBNEW </desc>
<g style="fill:#000000; fill-opacity:1;stroke:#000000; stroke-opacity:1;
stroke-linecap:round; stroke-linejoin:round; "
 transform="translate(0 0) scale(1 1)">
</g>
<g style="fill:#000000; fill-opacity:0.0; 
stroke:#000000; stroke-width:-0.000393701; stroke-opacity:1; 
stroke-linecap:round; stroke-linejoin:round;">
</g>
<g style="fill:#000000; fill-opacity:0.0; 
stroke:#000000; stroke-width:59.0551; stroke-opacity:1; 
stroke-linecap:round; stroke-linejoin:round;">
<path d="M67704 49649
L40145 49649
" />
<path d="M40145 37838
L40145 49649
" />
<path d="M67704 37838
L40145 37838
" />
<path d="M67708 37838
L67708 49649
" />
<g >
</g>
<g >
</g>
<g >
</g>
<g >
</g>
<g style="fill:#000000; fill-opacity:0.0; 
stroke:#000000; stroke-width:0; stroke-opacity:1; 
stroke-linecap:round; stroke-linejoin:round;">
</g>
<g style="fill:#000000; fill-opacity:1.0; 
stroke:#000000; stroke-width:0; stroke-opacity:1; 
stroke-linecap:round; stroke-linejoin:round;">
<path style="fill:#000000; fill-opacity:1.0; 
stroke:#000000; stroke-width:0; stroke-opacity:1; 
stroke-linecap:round; stroke-linejoin:round;fill-rule:evenodd;"
d="M 43255,47501
43263,47502
43271,47504
43278,47506
43286,47510
43293,47514
43299,47519
43305,47524
43311,47530
43315,47537
43320,47544
43323,47551
43326,47559
43328,47567
43329,47575
43329,47583
43329,47748
43329,47756
43328,47764
43326,47772
43323,47780
43320,47787
43315,47794
43311,47801
43305,47807
43299,47812
43293,47817
43286,47821
43278,47825
43271,47827
43263,47829
43255,47831
43247,47831
42865,47831
42857,47831
42849,47829
42841,47827
42833,47825
42826,47821
42819,47817
42812,47812
42806,47807
42801,47801
42796,47794
42792,47787
42788,47780
42786,47772
42784,47764
42782,47756
42782,47748
42782,47583
42782,47575
42784,47567
42786,47559
42788,47551
42792,47544
42796,47537
42801,47530
42806,47524
42812,47519
42819,47514
42826,47510
42833,47506
42841,47504
42849,47502
42857,47501
42865,47500
43247,47500
43255,47501
Z" /> 
<path style="fill:#000000; fill-opacity:1.0; 
stroke:#000000; stroke-width:0; stroke-opacity:1; 
stroke-linecap:round; stroke-linejoin:round;fill-rule:evenodd;"
d="M 44259,47501
44267,47502
44275,47504
44282,47506
44290,47510
44296,47514
44303,47519
44309,47524
44314,47530
44319,47537
44323,47544
44327,47551
44330,47559
44332,47567
44333,47575
44333,47583
44333,47748
44333,47756
44332,47764
44330,47772
44327,47780
44323,47787
44319,47794
44314,47801
44309,47807
44303,47812
44296,47817
44290,47821
44282,47825
44275,47827
44267,47829
44259,47831
44251,47831
43869,47831
43861,47831
43853,47829
43845,47827
43837,47825
43830,47821
43823,47817
43816,47812
43810,47807
43805,47801
43800,47794
43796,47787
43792,47780
43790,47772
43788,47764
43786,47756
43786,47748
43786,47583
43786,47575
43788,47567
43790,47559
43792,47551
43796,47544
43800,47537
43805,47530
43810,47524
43816,47519
43823,47514
43830,47510
43837,47506
43845,47504
43853,47502
43861,47501
43869,47500
44251,47500
44259,47501
Z" /> 
<path style="fill:#000000; fill-opacity:1.0; 
stroke:#000000; stroke-width:0; stroke-opacity:1; 
stroke-linecap:round; stroke-linejoin:round;fill-rule:evenodd;"
d="M 43255,45847
43263,45848
43271,45850
43278,45853
43286,45856
43293,45861
43299,45865
43305,45871
43311,45877
43315,45883
43320,45890
43323,45898
43326,45905
43328,45913
43329,45921
43329,45929
43329,46095
43329,46103
43328,46111
43326,46119
43323,46126
43320,46134
43315,46141
43311,46147
43305,46153
43299,46159
43293,46163
43286,46168
43278,46171
43271,46174
43263,46176
43255,46177
43247,46177
42865,46177
42857,46177
42849,46176
42841,46174
42833,46171
42826,46168
42819,46163
42812,46159
42806,46153
42801,46147
42796,46141
42792,46134
42788,46126
42786,46119
42784,46111
42782,46103
42782,46095
42782,45929
42782,45921
42784,45913
42786,45905
42788,45898
42792,45890
42796,45883
42801,45877
42806,45871
42812,45865
42819,45861
42826,45856
42833,45853
42841,45850
42849,45848
42857,45847
42865,45847
43247,45847
43255,45847
Z" /> 
<path style="fill:#000000; fill-opacity:1.0; 
stroke:#000000; stroke-width:0; stroke-opacity:1; 
stroke-linecap:round; stroke-linejoin:round;fill-rule:evenodd;"
d="M 44259,45847
44267,45848
44275,45850
44282,45853
44290,45856
44296,45861
44303,45865
44309,45871
44314,45877
44319,45883
44323,45890
44327,45898
44330,45905
44332,45913
44333,45921
44333,45929
44333,46095
44333,46103
44332,46111
44330,46119
44327,46126
44323,46134
44319,46141
44314,46147
44309,46153
44303,46159
44296,46163
44290,46168
44282,46171
44275,46174
44267,46176
44259,46177
44251,46177
43869,46177
43861,46177
43853,46176
43845,46174
43837,46171
43830,46168
43823,46163
43816,46159
43810,46153
43805,46147
43800,46141
43796,46134
43792,46126
43790,46119
43788,46111
43786,46103
43786,46095
43786,45929
43786,45921
43788,45913
43790,45905
43792,45898
43796,45890
43800,45883
43805,45877
43810,45871
43816,45865
43823,45861
43830,45856
43837,45853
43845,45850
43853,45848
43861,45847
43869,45847
44251,45847
44259,45847
Z" /> 
</g>
<g >
</g>
<g >
<path style="fill:#000000; fill-opacity:1.0; 
stroke:#000000; stroke-width:0; stroke-opacity:1; 
stroke-linecap:round; stroke-linejoin:round;fill-rule:evenodd;"
d="M 45519,44105
45520,44106
45521,44106
45522,44106
45522,44106
45523,44107
45524,44107
45524,44108
45525,44109
45526,44109
45526,44110
45526,44111
45527,44112
45527,44113
45527,44113
45527,44114
45527,44358
45527,44359
45527,44360
45527,44361
45526,44362
45526,44363
45526,44363
45525,44364
45524,44365
45524,44365
45523,44366
45522,44366
45522,44367
45521,44367
45520,44367
45519,44367
45518,44367
45500,44367
45500,44367
45499,44367
45498,44367
45497,44367
45496,44366
45496,44366
45495,44365
45494,44365
45494,44364
45493,44363
45493,44363
45492,44362
45492,44361
45492,44360
45492,44359
45492,44358
45492,44114
45492,44113
45492,44113
45492,44112
45492,44111
45493,44110
45493,44109
45494,44109
45494,44108
45495,44107
45496,44107
45496,44106
45497,44106
45498,44106
45499,44106
45500,44105
45500,44105
45518,44105
45519,44105
Z" /> 
<path style="fill:#000000; fill-opacity:1.0; 
stroke:#000000; stroke-width:0; stroke-opacity:1; 
stroke-linecap:round; stroke-linejoin:round;fill-rule:evenodd;"
d="M 45716,44105
45717,44106
45718,44106
45718,44106
45719,44106
45720,44107
45721,44107
45721,44108
45722,44109
45722,44109
45723,44110
45723,44111
45724,44112
45724,44113
45724,44113
45724,44114
45724,44358
45724,44359
45724,44360
45724,44361
45723,44362
45723,44363
45722,44363
45722,44364
45721,44365
45721,44365
45720,44366
45719,44366
45718,44367
45718,44367
45717,44367
45716,44367
45715,44367
45697,44367
45696,44367
45696,44367
45695,44367
45694,44367
45693,44366
45692,44366
45692,44365
45691,44365
45690,44364
45690,44363
45690,44363
45689,44362
45689,44361
45689,44360
45689,44359
45688,44358
45688,44114
45689,44113
45689,44113
45689,44112
45689,44111
45690,44110
45690,44109
45690,44109
45691,44108
45692,44107
45692,44107
45693,44106
45694,44106
45695,44106
45696,44106
45696,44105
45697,44105
45715,44105
45716,44105
Z" /> 
<path style="fill:#000000; fill-opacity:1.0; 
stroke:#000000; stroke-width:0; stroke-opacity:1; 
stroke-linecap:round; stroke-linejoin:round;fill-rule:evenodd;"
d="M 45913,44105
45914,44106
45914,44106
45915,44106
45916,44106
45917,44107
45918,44107
45918,44108
45919,44109
45919,44109
45920,44110
45920,44111
45920,44112
45921,44113
45921,44113
45921,44114
45921,44358
45921,44359
45921,44360
45920,44361
45920,44362
45920,44363
45919,44363
45919,44364
45918,44365
45918,44365
45917,44366
45916,44366
45915,44367
45914,44367
45914,44367
45913,44367
45912,44367
45894,44367
45893,44367
45892,44367
45892,44367
45891,44367
45890,44366
45889,44366
45889,44365
45888,44365
45887,44364
45887,44363
45886,44363
45886,44362
45886,44361
45885,44360
45885,44359
45885,44358
45885,44114
45885,44113
45885,44113
45886,44112
45886,44111
45886,44110
45887,44109
45887,44109
45888,44108
45889,44107
45889,44107
45890,44106
45891,44106
45892,44106
45892,44106
45893,44105
45894,44105
45912,44105
45913,44105
Z" /> 
<path style="fill:#000000; fill-opacity:1.0; 
stroke:#000000; stroke-width:0; stroke-opacity:1; 
stroke-linecap:round; stroke-linejoin:round;fill-rule:evenodd;"
d="M 46110,44105
46110,44106
46111,44106
46112,44106
46113,44106
46114,44107
46114,44107
46115,44108
46116,44109
46116,44109
46117,44110
46117,44111
46117,44112
46117,44113
46118,44113
46118,44114
46118,44358
46118,44359
46117,44360
46117,44361
46117,44362
46117,44363
46116,44363
46116,44364
46115,44365
46114,44365
46114,44366
46113,44366
46112,44367
46111,44367
46110,44367
46110,44367
46109,44367
46091,44367
46090,44367
46089,44367
46088,44367
46088,44367
46087,44366
46086,44366
46085,44365
46085,44365
46084,44364
46084,44363
46083,44363
46083,44362
46083,44361
46082,44360
46082,44359
46082,44358
46082,44114
46082,44113
46082,44113
46083,44112
46083,44111
46083,44110
46084,44109
46084,44109
46085,44108
46085,44107
46086,44107
46087,44106
46088,44106
46088,44106
46089,44106
46090,44105
46091,44105
46109,44105
46110,44105
Z" /> 
<path style="fill:#000000; fill-opacity:1.0; 
stroke:#000000; stroke-width:0; stroke-opacity:1; 
stroke-linecap:round; stroke-linejoin:round;fill-rule:evenodd;"
d="M 46306,44105
46307,44106
46308,44106
46309,44106
46310,44106
46311,44107
46311,44107
46312,44108
46312,44109
46313,44109
46313,44110
46314,44111
46314,44112
46314,44113
46314,44113
46314,44114
46314,44358
46314,44359
46314,44360
46314,44361
46314,44362
46313,44363
46313,44363
46312,44364
46312,44365
46311,44365
46311,44366
46310,44366
46309,44367
46308,44367
46307,44367
46306,44367
46306,44367
46288,44367
46287,44367
46286,44367
46285,44367
46284,44367
46284,44366
46283,44366
46282,44365
46282,44365
46281,44364
46281,44363
46280,44363
46280,44362
46279,44361
46279,44360
46279,44359
46279,44358
46279,44114
46279,44113
46279,44113
46279,44112
46280,44111
46280,44110
46281,44109
46281,44109
46282,44108
46282,44107
46283,44107
46284,44106
46284,44106
46285,44106
46286,44106
46287,44105
46288,44105
46306,44105
46306,44105
Z" /> 
<path style="fill:#000000; fill-opacity:1.0; 
stroke:#000000; stroke-width:0; stroke-opacity:1; 
stroke-linecap:round; stroke-linejoin:round;fill-rule:evenodd;"
d="M 46503,44105
46504,44106
46505,44106
46506,44106
46507,44106
46507,44107
46508,44107
46509,44108
46509,44109
46510,44109
46510,44110
46511,44111
46511,44112
46511,44113
46511,44113
46511,44114
46511,44358
46511,44359
46511,44360
46511,44361
46511,44362
46510,44363
46510,44363
46509,44364
46509,44365
46508,44365
46507,44366
46507,44366
46506,44367
46505,44367
46504,44367
46503,44367
46502,44367
46485,44367
46484,44367
46483,44367
46482,44367
46481,44367
46481,44366
46480,44366
46479,44365
46478,44365
46478,44364
46477,44363
46477,44363
46477,44362
46476,44361
46476,44360
46476,44359
46476,44358
46476,44114
46476,44113
46476,44113
46476,44112
46477,44111
46477,44110
46477,44109
46478,44109
46478,44108
46479,44107
46480,44107
46481,44106
46481,44106
46482,44106
46483,44106
46484,44105
46485,44105
46502,44105
46503,44105
Z" /> 
<path style="fill:#000000; fill-opacity:1.0; 
stroke:#000000; stroke-width:0; stroke-opacity:1; 
stroke-linecap:round; stroke-linejoin:round;fill-rule:evenodd;"
d="M 46887,43948
46888,43948
46889,43948
46890,43949
46890,43949
46891,43949
46892,43950
46893,43950
46893,43951
46894,43952
46894,43953
46894,43953
46895,43954
46895,43955
46895,43956
46895,43957
46895,43974
46895,43975
46895,43976
46895,43977
46894,43978
46894,43979
46894,43979
46893,43980
46893,43981
46892,43981
46891,43982
46890,43982
46890,43983
46889,43983
46888,43983
46887,43983
46886,43983
46642,43983
46641,43983
46640,43983
46640,43983
46639,43983
46638,43982
46637,43982
46637,43981
46636,43981
46635,43980
46635,43979
46634,43979
46634,43978
46634,43977
46634,43976
46633,43975
46633,43974
46633,43957
46633,43956
46634,43955
46634,43954
46634,43953
46634,43953
46635,43952
46635,43951
46636,43950
46637,43950
46637,43949
46638,43949
46639,43949
46640,43948
46640,43948
46641,43948
46642,43948
46886,43948
46887,43948
Z" /> 
<path style="fill:#000000; fill-opacity:1.0; 
stroke:#000000; stroke-width:0; stroke-opacity:1; 
stroke-linecap:round; stroke-linejoin:round;fill-rule:evenodd;"
d="M 46887,43751
46888,43751
46889,43751
46890,43752
46890,43752
46891,43753
46892,43753
46893,43754
46893,43754
46894,43755
46894,43756
46894,43757
46895,43757
46895,43758
46895,43759
46895,43760
46895,43778
46895,43778
46895,43779
46895,43780
46894,43781
46894,43782
46894,43783
46893,43783
46893,43784
46892,43784
46891,43785
46890,43785
46890,43786
46889,43786
46888,43786
46887,43786
46886,43786
46642,43786
46641,43786
46640,43786
46640,43786
46639,43786
46638,43785
46637,43785
46637,43784
46636,43784
46635,43783
46635,43783
46634,43782
46634,43781
46634,43780
46634,43779
46633,43778
46633,43778
46633,43760
46633,43759
46634,43758
46634,43757
46634,43757
46634,43756
46635,43755
46635,43754
46636,43754
46637,43753
46637,43753
46638,43752
46639,43752
46640,43751
46640,43751
46641,43751
46642,43751
46886,43751
46887,43751
Z" /> 
<path style="fill:#000000; fill-opacity:1.0; 
stroke:#000000; stroke-width:0; stroke-opacity:1; 
stroke-linecap:round; stroke-linejoin:round;fill-rule:evenodd;"
d="M 46887,43554
46888,43554
46889,43555
46890,43555
46890,43555
46891,43556
46892,43556
46893,43557
46893,43557
46894,43558
46894,43559
46894,43560
46895,43560
46895,43561
46895,43562
46895,43563
46895,43581
46895,43582
46895,43582
46895,43583
46894,43584
46894,43585
46894,43586
46893,43586
46893,43587
46892,43588
46891,43588
46890,43589
46890,43589
46889,43589
46888,43589
46887,43590
46886,43590
46642,43590
46641,43590
46640,43589
46640,43589
46639,43589
46638,43589
46637,43588
46637,43588
46636,43587
46635,43586
46635,43586
46634,43585
46634,43584
46634,43583
46634,43582
46633,43582
46633,43581
46633,43563
46633,43562
46634,43561
46634,43560
46634,43560
46634,43559
46635,43558
46635,43557
46636,43557
46637,43556
46637,43556
46638,43555
46639,43555
46640,43555
46640,43554
46641,43554
46642,43554
46886,43554
46887,43554
Z" /> 
<path style="fill:#000000; fill-opacity:1.0; 
stroke:#000000; stroke-width:0; stroke-opacity:1; 
stroke-linecap:round; stroke-linejoin:round;fill-rule:evenodd;"
d="M 46887,43357
46888,43358
46889,43358
46890,43358
46890,43358
46891,43359
46892,43359
46893,43360
46893,43361
46894,43361
46894,43362
46894,43363
46895,43364
46895,43364
46895,43365
46895,43366
46895,43384
46895,43385
46895,43386
46895,43386
46894,43387
46894,43388
46894,43389
46893,43390
46893,43390
46892,43391
46891,43391
46890,43392
46890,43392
46889,43392
46888,43393
46887,43393
46886,43393
46642,43393
46641,43393
46640,43393
46640,43392
46639,43392
46638,43392
46637,43391
46637,43391
46636,43390
46635,43390
46635,43389
46634,43388
46634,43387
46634,43386
46634,43386
46633,43385
46633,43384
46633,43366
46633,43365
46634,43364
46634,43364
46634,43363
46634,43362
46635,43361
46635,43361
46636,43360
46637,43359
46637,43359
46638,43358
46639,43358
46640,43358
46640,43358
46641,43357
46642,43357
46886,43357
46887,43357
Z" /> 
<path style="fill:#000000; fill-opacity:1.0; 
stroke:#000000; stroke-width:0; stroke-opacity:1; 
stroke-linecap:round; stroke-linejoin:round;fill-rule:evenodd;"
d="M 46887,43161
46888,43161
46889,43161
46890,43161
46890,43162
46891,43162
46892,43163
46893,43163
46893,43164
46894,43164
46894,43165
46894,43166
46895,43167
46895,43168
46895,43168
46895,43169
46895,43187
46895,43188
46895,43189
46895,43190
46894,43190
46894,43191
46894,43192
46893,43193
46893,43193
46892,43194
46891,43194
46890,43195
46890,43195
46889,43196
46888,43196
46887,43196
46886,43196
46642,43196
46641,43196
46640,43196
46640,43196
46639,43195
46638,43195
46637,43194
46637,43194
46636,43193
46635,43193
46635,43192
46634,43191
46634,43190
46634,43190
46634,43189
46633,43188
46633,43187
46633,43169
46633,43168
46634,43168
46634,43167
46634,43166
46634,43165
46635,43164
46635,43164
46636,43163
46637,43163
46637,43162
46638,43162
46639,43161
46640,43161
46640,43161
46641,43161
46642,43160
46886,43160
46887,43161
Z" /> 
<path style="fill:#000000; fill-opacity:1.0; 
stroke:#000000; stroke-width:0; stroke-opacity:1; 
stroke-linecap:round; stroke-linejoin:round;fill-rule:evenodd;"
d="M 46887,42964
46888,42964
46889,42964
46890,42964
46890,42965
46891,42965
46892,42966
46893,42966
46893,42967
46894,42968
46894,42968
46894,42969
46895,42970
46895,42971
46895,42972
46895,42972
46895,42990
46895,42991
46895,42992
46895,42993
46894,42994
46894,42994
46894,42995
46893,42996
46893,42996
46892,42997
46891,42998
46890,42998
46890,42998
46889,42999
46888,42999
46887,42999
46886,42999
46642,42999
46641,42999
46640,42999
46640,42999
46639,42998
46638,42998
46637,42998
46637,42997
46636,42996
46635,42996
46635,42995
46634,42994
46634,42994
46634,42993
46634,42992
46633,42991
46633,42990
46633,42972
46633,42972
46634,42971
46634,42970
46634,42969
46634,42968
46635,42968
46635,42967
46636,42966
46637,42966
46637,42965
46638,42965
46639,42964
46640,42964
46640,42964
46641,42964
46642,42964
46886,42964
46887,42964
Z" /> 
<path style="fill:#000000; fill-opacity:1.0; 
stroke:#000000; stroke-width:0; stroke-opacity:1; 
stroke-linecap:round; stroke-linejoin:round;fill-rule:evenodd;"
d="M 46503,42580
46504,42580
46505,42580
46506,42580
46507,42581
46507,42581
46508,42582
46509,42582
46509,42583
46510,42584
46510,42584
46511,42585
46511,42586
46511,42587
46511,42588
46511,42589
46511,42833
46511,42834
46511,42834
46511,42835
46511,42836
46510,42837
46510,42838
46509,42838
46509,42839
46508,42840
46507,42840
46507,42841
46506,42841
46505,42841
46504,42841
46503,42842
46502,42842
46485,42842
46484,42842
46483,42841
46482,42841
46481,42841
46481,42841
46480,42840
46479,42840
46478,42839
46478,42838
46477,42838
46477,42837
46477,42836
46476,42835
46476,42834
46476,42834
46476,42833
46476,42589
46476,42588
46476,42587
46476,42586
46477,42585
46477,42584
46477,42584
46478,42583
46478,42582
46479,42582
46480,42581
46481,42581
46481,42580
46482,42580
46483,42580
46484,42580
46485,42580
46502,42580
46503,42580
Z" /> 
<path style="fill:#000000; fill-opacity:1.0; 
stroke:#000000; stroke-width:0; stroke-opacity:1; 
stroke-linecap:round; stroke-linejoin:round;fill-rule:evenodd;"
d="M 46306,42580
46307,42580
46308,42580
46309,42580
46310,42581
46311,42581
46311,42582
46312,42582
46312,42583
46313,42584
46313,42584
46314,42585
46314,42586
46314,42587
46314,42588
46314,42589
46314,42833
46314,42834
46314,42834
46314,42835
46314,42836
46313,42837
46313,42838
46312,42838
46312,42839
46311,42840
46311,42840
46310,42841
46309,42841
46308,42841
46307,42841
46306,42842
46306,42842
46288,42842
46287,42842
46286,42841
46285,42841
46284,42841
46284,42841
46283,42840
46282,42840
46282,42839
46281,42838
46281,42838
46280,42837
46280,42836
46279,42835
46279,42834
46279,42834
46279,42833
46279,42589
46279,42588
46279,42587
46279,42586
46280,42585
46280,42584
46281,42584
46281,42583
46282,42582
46282,42582
46283,42581
46284,42581
46284,42580
46285,42580
46286,42580
46287,42580
46288,42580
46306,42580
46306,42580
Z" /> 
<path style="fill:#000000; fill-opacity:1.0; 
stroke:#000000; stroke-width:0; stroke-opacity:1; 
stroke-linecap:round; stroke-linejoin:round;fill-rule:evenodd;"
d="M 46110,42580
46110,42580
46111,42580
46112,42580
46113,42581
46114,42581
46114,42582
46115,42582
46116,42583
46116,42584
46117,42584
46117,42585
46117,42586
46117,42587
46118,42588
46118,42589
46118,42833
46118,42834
46117,42834
46117,42835
46117,42836
46117,42837
46116,42838
46116,42838
46115,42839
46114,42840
46114,42840
46113,42841
46112,42841
46111,42841
46110,42841
46110,42842
46109,42842
46091,42842
46090,42842
46089,42841
46088,42841
46088,42841
46087,42841
46086,42840
46085,42840
46085,42839
46084,42838
46084,42838
46083,42837
46083,42836
46083,42835
46082,42834
46082,42834
46082,42833
46082,42589
46082,42588
46082,42587
46083,42586
46083,42585
46083,42584
46084,42584
46084,42583
46085,42582
46085,42582
46086,42581
46087,42581
46088,42580
46088,42580
46089,42580
46090,42580
46091,42580
46109,42580
46110,42580
Z" /> 
<path style="fill:#000000; fill-opacity:1.0; 
stroke:#000000; stroke-width:0; stroke-opacity:1; 
stroke-linecap:round; stroke-linejoin:round;fill-rule:evenodd;"
d="M 45913,42580
45914,42580
45914,42580
45915,42580
45916,42581
45917,42581
45918,42582
45918,42582
45919,42583
45919,42584
45920,42584
45920,42585
45920,42586
45921,42587
45921,42588
45921,42589
45921,42833
45921,42834
45921,42834
45920,42835
45920,42836
45920,42837
45919,42838
45919,42838
45918,42839
45918,42840
45917,42840
45916,42841
45915,42841
45914,42841
45914,42841
45913,42842
45912,42842
45894,42842
45893,42842
45892,42841
45892,42841
45891,42841
45890,42841
45889,42840
45889,42840
45888,42839
45887,42838
45887,42838
45886,42837
45886,42836
45886,42835
45885,42834
45885,42834
45885,42833
45885,42589
45885,42588
45885,42587
45886,42586
45886,42585
45886,42584
45887,42584
45887,42583
45888,42582
45889,42582
45889,42581
45890,42581
45891,42580
45892,42580
45892,42580
45893,42580
45894,42580
45912,42580
45913,42580
Z" /> 
<path style="fill:#000000; fill-opacity:1.0; 
stroke:#000000; stroke-width:0; stroke-opacity:1; 
stroke-linecap:round; stroke-linejoin:round;fill-rule:evenodd;"
d="M 45716,42580
45717,42580
45718,42580
45718,42580
45719,42581
45720,42581
45721,42582
45721,42582
45722,42583
45722,42584
45723,42584
45723,42585
45724,42586
45724,42587
45724,42588
45724,42589
45724,42833
45724,42834
45724,42834
45724,42835
45723,42836
45723,42837
45722,42838
45722,42838
45721,42839
45721,42840
45720,42840
45719,42841
45718,42841
45718,42841
45717,42841
45716,42842
45715,42842
45697,42842
45696,42842
45696,42841
45695,42841
45694,42841
45693,42841
45692,42840
45692,42840
45691,42839
45690,42838
45690,42838
45690,42837
45689,42836
45689,42835
45689,42834
45689,42834
45688,42833
45688,42589
45689,42588
45689,42587
45689,42586
45689,42585
45690,42584
45690,42584
45690,42583
45691,42582
45692,42582
45692,42581
45693,42581
45694,42580
45695,42580
45696,42580
45696,42580
45697,42580
45715,42580
45716,42580
Z" /> 
<path style="fill:#000000; fill-opacity:1.0; 
stroke:#000000; stroke-width:0; stroke-opacity:1; 
stroke-linecap:round; stroke-linejoin:round;fill-rule:evenodd;"
d="M 45519,42580
45520,42580
45521,42580
45522,42580
45522,42581
45523,42581
45524,42582
45524,42582
45525,42583
45526,42584
45526,42584
45526,42585
45527,42586
45527,42587
45527,42588
45527,42589
45527,42833
45527,42834
45527,42834
45527,42835
45526,42836
45526,42837
45526,42838
45525,42838
45524,42839
45524,42840
45523,42840
45522,42841
45522,42841
45521,42841
45520,42841
45519,42842
45518,42842
45500,42842
45500,42842
45499,42841
45498,42841
45497,42841
45496,42841
45496,42840
45495,42840
45494,42839
45494,42838
45493,42838
45493,42837
45492,42836
45492,42835
45492,42834
45492,42834
45492,42833
45492,42589
45492,42588
45492,42587
45492,42586
45492,42585
45493,42584
45493,42584
45494,42583
45494,42582
45495,42582
45496,42581
45496,42581
45497,42580
45498,42580
45499,42580
45500,42580
45500,42580
45518,42580
45519,42580
Z" /> 
<path style="fill:#000000; fill-opacity:1.0; 
stroke:#000000; stroke-width:0; stroke-opacity:1; 
stroke-linecap:round; stroke-linejoin:round;fill-rule:evenodd;"
d="M 45362,42964
45362,42964
45363,42964
45364,42964
45365,42965
45366,42965
45366,42966
45367,42966
45368,42967
45368,42968
45369,42968
45369,42969
45369,42970
45369,42971
45370,42972
45370,42972
45370,42990
45370,42991
45369,42992
45369,42993
45369,42994
45369,42994
45368,42995
45368,42996
45367,42996
45366,42997
45366,42998
45365,42998
45364,42998
45363,42999
45362,42999
45362,42999
45361,42999
45117,42999
45116,42999
45115,42999
45114,42999
45113,42998
45112,42998
45112,42998
45111,42997
45110,42996
45110,42996
45109,42995
45109,42994
45108,42994
45108,42993
45108,42992
45108,42991
45108,42990
45108,42972
45108,42972
45108,42971
45108,42970
45108,42969
45109,42968
45109,42968
45110,42967
45110,42966
45111,42966
45112,42965
45112,42965
45113,42964
45114,42964
45115,42964
45116,42964
45117,42964
45361,42964
45362,42964
Z" /> 
<path style="fill:#000000; fill-opacity:1.0; 
stroke:#000000; stroke-width:0; stroke-opacity:1; 
stroke-linecap:round; stroke-linejoin:round;fill-rule:evenodd;"
d="M 45362,43161
45362,43161
45363,43161
45364,43161
45365,43162
45366,43162
45366,43163
45367,43163
45368,43164
45368,43164
45369,43165
45369,43166
45369,43167
45369,43168
45370,43168
45370,43169
45370,43187
45370,43188
45369,43189
45369,43190
45369,43190
45369,43191
45368,43192
45368,43193
45367,43193
45366,43194
45366,43194
45365,43195
45364,43195
45363,43196
45362,43196
45362,43196
45361,43196
45117,43196
45116,43196
45115,43196
45114,43196
45113,43195
45112,43195
45112,43194
45111,43194
45110,43193
45110,43193
45109,43192
45109,43191
45108,43190
45108,43190
45108,43189
45108,43188
45108,43187
45108,43169
45108,43168
45108,43168
45108,43167
45108,43166
45109,43165
45109,43164
45110,43164
45110,43163
45111,43163
45112,43162
45112,43162
45113,43161
45114,43161
45115,43161
45116,43161
45117,43160
45361,43160
45362,43161
Z" /> 
<path style="fill:#000000; fill-opacity:1.0; 
stroke:#000000; stroke-width:0; stroke-opacity:1; 
stroke-linecap:round; stroke-linejoin:round;fill-rule:evenodd;"
d="M 45362,43357
45362,43358
45363,43358
45364,43358
45365,43358
45366,43359
45366,43359
45367,43360
45368,43361
45368,43361
45369,43362
45369,43363
45369,43364
45369,43364
45370,43365
45370,43366
45370,43384
45370,43385
45369,43386
45369,43386
45369,43387
45369,43388
45368,43389
45368,43390
45367,43390
45366,43391
45366,43391
45365,43392
45364,43392
45363,43392
45362,43393
45362,43393
45361,43393
45117,43393
45116,43393
45115,43393
45114,43392
45113,43392
45112,43392
45112,43391
45111,43391
45110,43390
45110,43390
45109,43389
45109,43388
45108,43387
45108,43386
45108,43386
45108,43385
45108,43384
45108,43366
45108,43365
45108,43364
45108,43364
45108,43363
45109,43362
45109,43361
45110,43361
45110,43360
45111,43359
45112,43359
45112,43358
45113,43358
45114,43358
45115,43358
45116,43357
45117,43357
45361,43357
45362,43357
Z" /> 
<path style="fill:#000000; fill-opacity:1.0; 
stroke:#000000; stroke-width:0; stroke-opacity:1; 
stroke-linecap:round; stroke-linejoin:round;fill-rule:evenodd;"
d="M 45362,43554
45362,43554
45363,43555
45364,43555
45365,43555
45366,43556
45366,43556
45367,43557
45368,43557
45368,43558
45369,43559
45369,43560
45369,43560
45369,43561
45370,43562
45370,43563
45370,43581
45370,43582
45369,43582
45369,43583
45369,43584
45369,43585
45368,43586
45368,43586
45367,43587
45366,43588
45366,43588
45365,43589
45364,43589
45363,43589
45362,43589
45362,43590
45361,43590
45117,43590
45116,43590
45115,43589
45114,43589
45113,43589
45112,43589
45112,43588
45111,43588
45110,43587
45110,43586
45109,43586
45109,43585
45108,43584
45108,43583
45108,43582
45108,43582
45108,43581
45108,43563
45108,43562
45108,43561
45108,43560
45108,43560
45109,43559
45109,43558
45110,43557
45110,43557
45111,43556
45112,43556
45112,43555
45113,43555
45114,43555
45115,43554
45116,43554
45117,43554
45361,43554
45362,43554
Z" /> 
<path style="fill:#000000; fill-opacity:1.0; 
stroke:#000000; stroke-width:0; stroke-opacity:1; 
stroke-linecap:round; stroke-linejoin:round;fill-rule:evenodd;"
d="M 45362,43751
45362,43751
45363,43751
45364,43752
45365,43752
45366,43753
45366,43753
45367,43754
45368,43754
45368,43755
45369,43756
45369,43757
45369,43757
45369,43758
45370,43759
45370,43760
45370,43778
45370,43778
45369,43779
45369,43780
45369,43781
45369,43782
45368,43783
45368,43783
45367,43784
45366,43784
45366,43785
45365,43785
45364,43786
45363,43786
45362,43786
45362,43786
45361,43786
45117,43786
45116,43786
45115,43786
45114,43786
45113,43786
45112,43785
45112,43785
45111,43784
45110,43784
45110,43783
45109,43783
45109,43782
45108,43781
45108,43780
45108,43779
45108,43778
45108,43778
45108,43760
45108,43759
45108,43758
45108,43757
45108,43757
45109,43756
45109,43755
45110,43754
45110,43754
45111,43753
45112,43753
45112,43752
45113,43752
45114,43751
45115,43751
45116,43751
45117,43751
45361,43751
45362,43751
Z" /> 
<path style="fill:#000000; fill-opacity:1.0; 
stroke:#000000; stroke-width:0; stroke-opacity:1; 
stroke-linecap:round; stroke-linejoin:round;fill-rule:evenodd;"
d="M 45362,43948
45362,43948
45363,43948
45364,43949
45365,43949
45366,43949
45366,43950
45367,43950
45368,43951
45368,43952
45369,43953
45369,43953
45369,43954
45369,43955
45370,43956
45370,43957
45370,43974
45370,43975
45369,43976
45369,43977
45369,43978
45369,43979
45368,43979
45368,43980
45367,43981
45366,43981
45366,43982
45365,43982
45364,43983
45363,43983
45362,43983
45362,43983
45361,43983
45117,43983
45116,43983
45115,43983
45114,43983
45113,43983
45112,43982
45112,43982
45111,43981
45110,43981
45110,43980
45109,43979
45109,43979
45108,43978
45108,43977
45108,43976
45108,43975
45108,43974
45108,43957
45108,43956
45108,43955
45108,43954
45108,43953
45109,43953
45109,43952
45110,43951
45110,43950
45111,43950
45112,43949
45112,43949
45113,43949
45114,43948
45115,43948
45116,43948
45117,43948
45361,43948
45362,43948
Z" /> 
<path style="fill:#000000; fill-opacity:1.0; 
stroke:#000000; stroke-width:0; stroke-opacity:1; 
stroke-linecap:round; stroke-linejoin:round;fill-rule:evenodd;"
d="M 46375,43011
46385,43013
46394,43015
46403,43018
46412,43023
46420,43027
46428,43033
46435,43040
46442,43047
46447,43055
46452,43063
46457,43072
46460,43081
46462,43090
46464,43100
46464,43109
46464,43326
46464,43335
46462,43345
46460,43354
46457,43364
46452,43372
46447,43381
46442,43388
46435,43395
46428,43402
46420,43408
46412,43413
46403,43417
46394,43420
46385,43422
46375,43424
46366,43424
46149,43424
46139,43424
46130,43422
46121,43420
46111,43417
46103,43413
46094,43408
46087,43402
46080,43395
46073,43388
46067,43381
46062,43372
46058,43364
46055,43354
46053,43345
46051,43335
46051,43326
46051,43109
46051,43100
46053,43090
46055,43081
46058,43072
46062,43063
46067,43055
46073,43047
46080,43040
46087,43033
46094,43027
46103,43023
46111,43018
46121,43015
46130,43013
46139,43011
46149,43011
46366,43011
46375,43011
Z" /> 
<path style="fill:#000000; fill-opacity:1.0; 
stroke:#000000; stroke-width:0; stroke-opacity:1; 
stroke-linecap:round; stroke-linejoin:round;fill-rule:evenodd;"
d="M 46375,43523
46385,43525
46394,43527
46403,43530
46412,43534
46420,43539
46428,43545
46435,43552
46442,43559
46447,43566
46452,43575
46457,43583
46460,43593
46462,43602
46464,43611
46464,43621
46464,43838
46464,43847
46462,43857
46460,43866
46457,43875
46452,43884
46447,43892
46442,43900
46435,43907
46428,43914
46420,43919
46412,43924
46403,43929
46394,43932
46385,43934
46375,43936
46366,43936
46149,43936
46139,43936
46130,43934
46121,43932
46111,43929
46103,43924
46094,43919
46087,43914
46080,43907
46073,43900
46067,43892
46062,43884
46058,43875
46055,43866
46053,43857
46051,43847
46051,43838
46051,43621
46051,43611
46053,43602
46055,43593
46058,43583
46062,43575
46067,43566
46073,43559
46080,43552
46087,43545
46094,43539
46103,43534
46111,43530
46121,43527
46130,43525
46139,43523
46149,43523
46366,43523
46375,43523
Z" /> 
<path style="fill:#000000; fill-opacity:1.0; 
stroke:#000000; stroke-width:0; stroke-opacity:1; 
stroke-linecap:round; stroke-linejoin:round;fill-rule:evenodd;"
d="M 45863,43011
45873,43013
45882,43015
45891,43018
45900,43023
45909,43027
45916,43033
45923,43040
45930,43047
45936,43055
45941,43063
45945,43072
45948,43081
45950,43090
45952,43100
45952,43109
45952,43326
45952,43335
45950,43345
45948,43354
45945,43364
45941,43372
45936,43381
45930,43388
45923,43395
45916,43402
45909,43408
45900,43413
45891,43417
45882,43420
45873,43422
45863,43424
45854,43424
45637,43424
45628,43424
45618,43422
45609,43420
45600,43417
45591,43413
45583,43408
45575,43402
45568,43395
45561,43388
45555,43381
45550,43372
45546,43364
45543,43354
45541,43345
45539,43335
45539,43326
45539,43109
45539,43100
45541,43090
45543,43081
45546,43072
45550,43063
45555,43055
45561,43047
45568,43040
45575,43033
45583,43027
45591,43023
45600,43018
45609,43015
45618,43013
45628,43011
45637,43011
45854,43011
45863,43011
Z" /> 
<path style="fill:#000000; fill-opacity:1.0; 
stroke:#000000; stroke-width:0; stroke-opacity:1; 
stroke-linecap:round; stroke-linejoin:round;fill-rule:evenodd;"
d="M 45863,43523
45873,43525
45882,43527
45891,43530
45900,43534
45909,43539
45916,43545
45923,43552
45930,43559
45936,43566
45941,43575
45945,43583
45948,43593
45950,43602
45952,43611
45952,43621
45952,43838
45952,43847
45950,43857
45948,43866
45945,43875
45941,43884
45936,43892
45930,43900
45923,43907
45916,43914
45909,43919
45900,43924
45891,43929
45882,43932
45873,43934
45863,43936
45854,43936
45637,43936
45628,43936
45618,43934
45609,43932
45600,43929
45591,43924
45583,43919
45575,43914
45568,43907
45561,43900
45555,43892
45550,43884
45546,43875
45543,43866
45541,43857
45539,43847
45539,43838
45539,43621
45539,43611
45541,43602
45543,43593
45546,43583
45550,43575
45555,43566
45561,43559
45568,43552
45575,43545
45583,43539
45591,43534
45600,43530
45609,43527
45618,43525
45628,43523
45637,43523
45854,43523
45863,43523
Z" /> 
</g>
<g >
</g>
<g >
</g>
<g >
</g>
<g >
</g>
<g >
</g>
<g >
</g>
<g >
</g>
<g >
</g>
<g >
</g>
<g >
</g>
<g >
<path style="fill:#000000; fill-opacity:1.0; 
stroke:#000000; stroke-width:0; stroke-opacity:1; 
stroke-linecap:round; stroke-linejoin:round;fill-rule:evenodd;"
d="M 45370,40001
45370,39867
45555,39867
45555,40001
45370,40001
Z" /> 
<path style="fill:#000000; fill-opacity:1.0; 
stroke:#000000; stroke-width:0; stroke-opacity:1; 
stroke-linecap:round; stroke-linejoin:round;fill-rule:evenodd;"
d="M 45370,40277
45370,40143
45555,40143
45555,40277
45370,40277
Z" /> 
<path style="fill:#000000; fill-opacity:1.0; 
stroke:#000000; stroke-width:0; stroke-opacity:1; 
stroke-linecap:round; stroke-linejoin:round;fill-rule:evenodd;"
d="M 45370,39726
45370,39592
45555,39592
45555,39726
45370,39726
Z" /> 
<path style="fill:#000000; fill-opacity:1.0; 
stroke:#000000; stroke-width:0; stroke-opacity:1; 
stroke-linecap:round; stroke-linejoin:round;fill-rule:evenodd;"
d="M 46339,40143
46339,40277
46154,40277
46154,40143
46339,40143
Z" /> 
<path style="fill:#000000; fill-opacity:1.0; 
stroke:#000000; stroke-width:0; stroke-opacity:1; 
stroke-linecap:round; stroke-linejoin:round;fill-rule:evenodd;"
d="M 46339,39592
46339,39726
46154,39726
46154,39592
46339,39592
Z" /> 
<path style="fill:#000000; fill-opacity:1.0; 
stroke:#000000; stroke-width:0; stroke-opacity:1; 
stroke-linecap:round; stroke-linejoin:round;fill-rule:evenodd;"
d="M 46339,39867
46339,40001
46154,40001
46154,39867
46339,39867
Z" /> 
<path style="fill:#000000; fill-opacity:1.0; 
stroke:#000000; stroke-width:0; stroke-opacity:1; 
stroke-linecap:round; stroke-linejoin:round;fill-rule:evenodd;"
d="M 45921,40281
45787,40281
45787,40096
45921,40096
45921,40281
Z" /> 
<path style="fill:#000000; fill-opacity:1.0; 
stroke:#000000; stroke-width:0; stroke-opacity:1; 
stroke-linecap:round; stroke-linejoin:round;fill-rule:evenodd;"
d="M 45787,39312
45921,39312
45921,39497
45787,39497
45787,39312
Z" /> 
<path style="fill:#000000; fill-opacity:1.0; 
stroke:#000000; stroke-width:0; stroke-opacity:1; 
stroke-linecap:round; stroke-linejoin:round;fill-rule:evenodd;"
d="M 45370,39450
45370,39316
45555,39316
45555,39450
45370,39450
Z" /> 
<path style="fill:#000000; fill-opacity:1.0; 
stroke:#000000; stroke-width:0; stroke-opacity:1; 
stroke-linecap:round; stroke-linejoin:round;fill-rule:evenodd;"
d="M 46339,39316
46339,39450
46154,39450
46154,39316
46339,39316
Z" /> 
</g>
<g >
</g>
<g >
</g>
<g >
<path style="fill:#000000; fill-opacity:1.0; 
stroke:#000000; stroke-width:0; stroke-opacity:1; 
stroke-linecap:round; stroke-linejoin:round;fill-rule:evenodd;"
d="M 46298,38866
46303,38866
46307,38867
46310,38869
46314,38870
46318,38872
46321,38875
46324,38878
46327,38881
46329,38884
46332,38888
46333,38891
46335,38895
46336,38899
46336,38904
46337,38908
46337,39012
46336,39016
46336,39020
46335,39024
46333,39028
46332,39032
46329,39035
46327,39039
46324,39042
46321,39045
46318,39047
46314,39049
46310,39051
46307,39052
46303,39053
46298,39054
46294,39054
46210,39054
46205,39054
46201,39053
46197,39052
46193,39051
46190,39049
46186,39047
46183,39045
46180,39042
46177,39039
46174,39035
46172,39032
46171,39028
46169,39024
46168,39020
46167,39016
46167,39012
46167,38908
46167,38904
46168,38899
46169,38895
46171,38891
46172,38888
46174,38884
46177,38881
46180,38878
46183,38875
46186,38872
46190,38870
46193,38869
46197,38867
46201,38866
46205,38866
46210,38865
46294,38865
46298,38866
Z" /> 
<path style="fill:#000000; fill-opacity:1.0; 
stroke:#000000; stroke-width:0; stroke-opacity:1; 
stroke-linecap:round; stroke-linejoin:round;fill-rule:evenodd;"
d="M 45917,38866
45921,38866
45925,38867
45929,38869
45932,38870
45936,38872
45939,38875
45942,38878
45945,38881
45948,38884
45950,38888
45951,38891
45953,38895
45954,38899
45954,38904
45955,38908
45955,39012
45954,39016
45954,39020
45953,39024
45951,39028
45950,39032
45948,39035
45945,39039
45942,39042
45939,39045
45936,39047
45932,39049
45929,39051
45925,39052
45921,39053
45917,39054
45912,39054
45828,39054
45824,39054
45819,39053
45815,39052
45812,39051
45808,39049
45804,39047
45801,39045
45798,39042
45795,39039
45793,39035
45790,39032
45789,39028
45787,39024
45786,39020
45786,39016
45785,39012
45785,38908
45786,38904
45786,38899
45787,38895
45789,38891
45790,38888
45793,38884
45795,38881
45798,38878
45801,38875
45804,38872
45808,38870
45812,38869
45815,38867
45819,38866
45824,38866
45828,38865
45912,38865
45917,38866
Z" /> 
</g>
<g >
<path style="fill:#000000; fill-opacity:1.0; 
stroke:#000000; stroke-width:0; stroke-opacity:1; 
stroke-linecap:round; stroke-linejoin:round;fill-rule:evenodd;"
d="M 45907,38403
45911,38404
45915,38405
45919,38406
45922,38408
45926,38410
45929,38412
45932,38415
45935,38418
45938,38422
45940,38425
45942,38429
45943,38433
45944,38437
45945,38441
45945,38445
45945,38549
45945,38554
45944,38558
45943,38562
45942,38566
45940,38569
45938,38573
45935,38576
45932,38579
45929,38582
45926,38585
45922,38587
45919,38588
45915,38590
45911,38591
45907,38592
45903,38592
45818,38592
45814,38592
45810,38591
45806,38590
45802,38588
45798,38587
45794,38585
45791,38582
45788,38579
45785,38576
45783,38573
45781,38569
45779,38566
45777,38562
45776,38558
45776,38554
45776,38549
45776,38445
45776,38441
45776,38437
45777,38433
45779,38429
45781,38425
45783,38422
45785,38418
45788,38415
45791,38412
45794,38410
45798,38408
45802,38406
45806,38405
45810,38404
45814,38403
45818,38403
45903,38403
45907,38403
Z" /> 
<path style="fill:#000000; fill-opacity:1.0; 
stroke:#000000; stroke-width:0; stroke-opacity:1; 
stroke-linecap:round; stroke-linejoin:round;fill-rule:evenodd;"
d="M 46289,38403
46293,38404
46297,38405
46301,38406
46304,38408
46308,38410
46311,38412
46314,38415
46317,38418
46320,38422
46322,38425
46324,38429
46325,38433
46326,38437
46327,38441
46327,38445
46327,38549
46327,38554
46326,38558
46325,38562
46324,38566
46322,38569
46320,38573
46317,38576
46314,38579
46311,38582
46308,38585
46304,38587
46301,38588
46297,38590
46293,38591
46289,38592
46284,38592
46200,38592
46196,38592
46192,38591
46187,38590
46184,38588
46180,38587
46176,38585
46173,38582
46170,38579
46167,38576
46165,38573
46162,38569
46161,38566
46159,38562
46158,38558
46158,38554
46157,38549
46157,38445
46158,38441
46158,38437
46159,38433
46161,38429
46162,38425
46165,38422
46167,38418
46170,38415
46173,38412
46176,38410
46180,38408
46184,38406
46187,38405
46192,38404
46196,38403
46200,38403
46284,38403
46289,38403
Z" /> 
</g>
<g >
<path style="fill:#000000; fill-opacity:1.0; 
stroke:#000000; stroke-width:0; stroke-opacity:1; 
stroke-linecap:round; stroke-linejoin:round;fill-rule:evenodd;"
d="M 44976,39236
44980,39236
44984,39237
44988,39239
44991,39240
44995,39243
44998,39245
45001,39248
45004,39251
45007,39254
45009,39258
45011,39262
45012,39265
45013,39269
45014,39274
45014,39278
45014,39362
45014,39367
45013,39371
45012,39375
45011,39379
45009,39382
45007,39386
45004,39389
45001,39392
44998,39395
44995,39398
44991,39400
44988,39401
44984,39403
44980,39404
44976,39404
44971,39405
44867,39405
44863,39404
44859,39404
44855,39403
44851,39401
44847,39400
44844,39398
44840,39395
44837,39392
44834,39389
44832,39386
44830,39382
44828,39379
44827,39375
44826,39371
44825,39367
44825,39362
44825,39278
44825,39274
44826,39269
44827,39265
44828,39262
44830,39258
44832,39254
44834,39251
44837,39248
44840,39245
44844,39243
44847,39240
44851,39239
44855,39237
44859,39236
44863,39236
44867,39235
44971,39235
44976,39236
Z" /> 
<path style="fill:#000000; fill-opacity:1.0; 
stroke:#000000; stroke-width:0; stroke-opacity:1; 
stroke-linecap:round; stroke-linejoin:round;fill-rule:evenodd;"
d="M 44976,39618
44980,39618
44984,39619
44988,39621
44991,39622
44995,39624
44998,39627
45001,39630
45004,39633
45007,39636
45009,39640
45011,39643
45012,39647
45013,39651
45014,39655
45014,39660
45014,39744
45014,39748
45013,39753
45012,39757
45011,39760
45009,39764
45007,39768
45004,39771
45001,39774
44998,39777
44995,39779
44991,39782
44988,39783
44984,39785
44980,39786
44976,39786
44971,39787
44867,39787
44863,39786
44859,39786
44855,39785
44851,39783
44847,39782
44844,39779
44840,39777
44837,39774
44834,39771
44832,39768
44830,39764
44828,39760
44827,39757
44826,39753
44825,39748
44825,39744
44825,39660
44825,39655
44826,39651
44827,39647
44828,39643
44830,39640
44832,39636
44834,39633
44837,39630
44840,39627
44844,39624
44847,39622
44851,39621
44855,39619
44859,39618
44863,39618
44867,39617
44971,39617
44976,39618
Z" /> 
</g>
<g >
</g>
<g >
<path style="fill:#000000; fill-opacity:1.0; 
stroke:#000000; stroke-width:0; stroke-opacity:1; 
stroke-linecap:round; stroke-linejoin:round;fill-rule:evenodd;"
d="M 41410,48919
41417,48920
41424,48922
41430,48924
41437,48927
41443,48931
41448,48935
41453,48939
41458,48945
41462,48950
41466,48956
41469,48962
41471,48969
41473,48975
41474,48982
41474,48989
41474,49130
41474,49137
41473,49144
41471,49150
41469,49157
41466,49163
41462,49169
41458,49175
41453,49180
41448,49184
41443,49188
41437,49192
41430,49195
41424,49197
41417,49199
41410,49200
41404,49200
41233,49200
41226,49200
41220,49199
41213,49197
41206,49195
41200,49192
41194,49188
41189,49184
41183,49180
41179,49175
41175,49169
41171,49163
41168,49157
41166,49150
41164,49144
41163,49137
41163,49130
41163,48989
41163,48982
41164,48975
41166,48969
41168,48962
41171,48956
41175,48950
41179,48945
41183,48939
41189,48935
41194,48931
41200,48927
41206,48924
41213,48922
41220,48920
41226,48919
41233,48919
41404,48919
41410,48919
Z" /> 
<path style="fill:#000000; fill-opacity:1.0; 
stroke:#000000; stroke-width:0; stroke-opacity:1; 
stroke-linecap:round; stroke-linejoin:round;fill-rule:evenodd;"
d="M 41410,48299
41417,48300
41424,48302
41430,48304
41437,48307
41443,48311
41448,48315
41453,48319
41458,48324
41462,48330
41466,48336
41469,48342
41471,48349
41473,48355
41474,48362
41474,48369
41474,48510
41474,48517
41473,48524
41471,48530
41469,48537
41466,48543
41462,48549
41458,48554
41453,48560
41448,48564
41443,48568
41437,48572
41430,48575
41424,48577
41417,48579
41410,48580
41404,48580
41233,48580
41226,48580
41220,48579
41213,48577
41206,48575
41200,48572
41194,48568
41189,48564
41183,48560
41179,48554
41175,48549
41171,48543
41168,48537
41166,48530
41164,48524
41163,48517
41163,48510
41163,48369
41163,48362
41164,48355
41166,48349
41168,48342
41171,48336
41175,48330
41179,48324
41183,48319
41189,48315
41194,48311
41200,48307
41206,48304
41213,48302
41220,48300
41226,48299
41233,48299
41404,48299
41410,48299
Z" /> 
</g>
<g >
</g>
<g >
</g>
<g >
<path style="fill:#000000; fill-opacity:1.0; 
stroke:#000000; stroke-width:0; stroke-opacity:1; 
stroke-linecap:round; stroke-linejoin:round;fill-rule:evenodd;"
d="M 41426,45055
41433,45056
41440,45058
41446,45060
41452,45063
41458,45066
41464,45071
41469,45075
41474,45080
41478,45086
41481,45092
41484,45098
41487,45105
41488,45111
41489,45118
41490,45125
41490,45266
41489,45273
41488,45279
41487,45286
41484,45293
41481,45299
41478,45305
41474,45310
41469,45316
41464,45320
41458,45324
41452,45328
41446,45331
41440,45333
41433,45335
41426,45336
41419,45336
41249,45336
41242,45336
41235,45335
41229,45333
41222,45331
41216,45328
41210,45324
41204,45320
41199,45316
41195,45310
41190,45305
41187,45299
41184,45293
41182,45286
41180,45279
41179,45273
41179,45266
41179,45125
41179,45118
41180,45111
41182,45105
41184,45098
41187,45092
41190,45086
41195,45080
41199,45075
41204,45071
41210,45066
41216,45063
41222,45060
41229,45058
41235,45056
41242,45055
41249,45055
41419,45055
41426,45055
Z" /> 
<path style="fill:#000000; fill-opacity:1.0; 
stroke:#000000; stroke-width:0; stroke-opacity:1; 
stroke-linecap:round; stroke-linejoin:round;fill-rule:evenodd;"
d="M 41426,44435
41433,44436
41440,44438
41446,44440
41452,44443
41458,44446
41464,44451
41469,44455
41474,44460
41478,44466
41481,44472
41484,44478
41487,44484
41488,44491
41489,44498
41490,44505
41490,44646
41489,44653
41488,44659
41487,44666
41484,44673
41481,44679
41478,44685
41474,44690
41469,44695
41464,44700
41458,44704
41452,44708
41446,44711
41440,44713
41433,44715
41426,44716
41419,44716
41249,44716
41242,44716
41235,44715
41229,44713
41222,44711
41216,44708
41210,44704
41204,44700
41199,44695
41195,44690
41190,44685
41187,44679
41184,44673
41182,44666
41180,44659
41179,44653
41179,44646
41179,44505
41179,44498
41180,44491
41182,44484
41184,44478
41187,44472
41190,44466
41195,44460
41199,44455
41204,44451
41210,44446
41216,44443
41222,44440
41229,44438
41235,44436
41242,44435
41249,44435
41419,44435
41426,44435
Z" /> 
</g>
<g >
<path style="fill:#000000; fill-opacity:1.0; 
stroke:#000000; stroke-width:0; stroke-opacity:1; 
stroke-linecap:round; stroke-linejoin:round;fill-rule:evenodd;"
d="M 42338,48253
42338,49214
41811,49214
41811,48253
42338,48253
Z" /> 
<path style="fill:#000000; fill-opacity:1.0; 
stroke:#000000; stroke-width:0; stroke-opacity:1; 
stroke-linecap:round; stroke-linejoin:round;fill-rule:evenodd;"
d="M 43519,48253
43519,49214
42992,49214
42992,48253
43519,48253
Z" /> 
</g>
<g >
<path style="fill:#000000; fill-opacity:1.0; 
stroke:#000000; stroke-width:0; stroke-opacity:1; 
stroke-linecap:round; stroke-linejoin:round;fill-rule:evenodd;"
d="M 42346,44405
42346,45366
41818,45366
41818,44405
42346,44405
Z" /> 
<path style="fill:#000000; fill-opacity:1.0; 
stroke:#000000; stroke-width:0; stroke-opacity:1; 
stroke-linecap:round; stroke-linejoin:round;fill-rule:evenodd;"
d="M 43527,44405
43527,45366
43000,45366
43000,44405
43527,44405
Z" /> 
</g>
<g >
<path style="fill:#000000; fill-opacity:1.0; 
stroke:#000000; stroke-width:0; stroke-opacity:1; 
stroke-linecap:round; stroke-linejoin:round;fill-rule:evenodd;"
d="M 41472,47492
41480,47493
41488,47495
41496,47498
41503,47501
41510,47506
41517,47510
41523,47516
41528,47522
41533,47528
41537,47535
41540,47543
41543,47550
41545,47558
41546,47566
41547,47574
41547,47740
41546,47748
41545,47756
41543,47764
41540,47771
41537,47779
41533,47786
41528,47792
41523,47798
41517,47804
41510,47808
41503,47813
41496,47816
41488,47819
41480,47821
41472,47822
41464,47822
41082,47822
41074,47822
41066,47821
41058,47819
41051,47816
41043,47813
41036,47808
41030,47804
41024,47798
41018,47792
41013,47786
41009,47779
41006,47771
41003,47764
41001,47756
41000,47748
41000,47740
41000,47574
41000,47566
41001,47558
41003,47550
41006,47543
41009,47535
41013,47528
41018,47522
41024,47516
41030,47510
41036,47506
41043,47501
41051,47498
41058,47495
41066,47493
41074,47492
41082,47492
41464,47492
41472,47492
Z" /> 
<path style="fill:#000000; fill-opacity:1.0; 
stroke:#000000; stroke-width:0; stroke-opacity:1; 
stroke-linecap:round; stroke-linejoin:round;fill-rule:evenodd;"
d="M 42476,47492
42484,47493
42492,47495
42500,47498
42507,47501
42514,47506
42520,47510
42526,47516
42532,47522
42537,47528
42541,47535
42544,47543
42547,47550
42549,47558
42550,47566
42551,47574
42551,47740
42550,47748
42549,47756
42547,47764
42544,47771
42541,47779
42537,47786
42532,47792
42526,47798
42520,47804
42514,47808
42507,47813
42500,47816
42492,47819
42484,47821
42476,47822
42468,47822
42086,47822
42078,47822
42070,47821
42062,47819
42054,47816
42047,47813
42040,47808
42034,47804
42028,47798
42022,47792
42017,47786
42013,47779
42010,47771
42007,47764
42005,47756
42004,47748
42003,47740
42003,47574
42004,47566
42005,47558
42007,47550
42010,47543
42013,47535
42017,47528
42022,47522
42028,47516
42034,47510
42040,47506
42047,47501
42054,47498
42062,47495
42070,47493
42078,47492
42086,47492
42468,47492
42476,47492
Z" /> 
<path style="fill:#000000; fill-opacity:1.0; 
stroke:#000000; stroke-width:0; stroke-opacity:1; 
stroke-linecap:round; stroke-linejoin:round;fill-rule:evenodd;"
d="M 41472,45838
41480,45840
41488,45842
41496,45844
41503,45848
41510,45852
41517,45857
41523,45862
41528,45868
41533,45875
41537,45882
41540,45889
41543,45897
41545,45905
41546,45913
41547,45921
41547,46086
41546,46094
41545,46102
41543,46110
41540,46118
41537,46125
41533,46132
41528,46139
41523,46145
41517,46150
41510,46155
41503,46159
41496,46162
41488,46165
41480,46167
41472,46168
41464,46169
41082,46169
41074,46168
41066,46167
41058,46165
41051,46162
41043,46159
41036,46155
41030,46150
41024,46145
41018,46139
41013,46132
41009,46125
41006,46118
41003,46110
41001,46102
41000,46094
41000,46086
41000,45921
41000,45913
41001,45905
41003,45897
41006,45889
41009,45882
41013,45875
41018,45868
41024,45862
41030,45857
41036,45852
41043,45848
41051,45844
41058,45842
41066,45840
41074,45838
41082,45838
41464,45838
41472,45838
Z" /> 
<path style="fill:#000000; fill-opacity:1.0; 
stroke:#000000; stroke-width:0; stroke-opacity:1; 
stroke-linecap:round; stroke-linejoin:round;fill-rule:evenodd;"
d="M 42476,45838
42484,45840
42492,45842
42500,45844
42507,45848
42514,45852
42520,45857
42526,45862
42532,45868
42537,45875
42541,45882
42544,45889
42547,45897
42549,45905
42550,45913
42551,45921
42551,46086
42550,46094
42549,46102
42547,46110
42544,46118
42541,46125
42537,46132
42532,46139
42526,46145
42520,46150
42514,46155
42507,46159
42500,46162
42492,46165
42484,46167
42476,46168
42468,46169
42086,46169
42078,46168
42070,46167
42062,46165
42054,46162
42047,46159
42040,46155
42034,46150
42028,46145
42022,46139
42017,46132
42013,46125
42010,46118
42007,46110
42005,46102
42004,46094
42003,46086
42003,45921
42004,45913
42005,45905
42007,45897
42010,45889
42013,45882
42017,45875
42022,45868
42028,45862
42034,45857
42040,45852
42047,45848
42054,45844
42062,45842
42070,45840
42078,45838
42086,45838
42468,45838
42476,45838
Z" /> 
</g>
<g >
</g>
<g >
</g>
<g >
</g>
<g >
</g>
<g >
</g>
<g >
</g>
<g >
</g>
<g >
</g>
<g >
</g>
<g >
</g>
<g >
</g>
<g >
</g>
<g >
</g>
<g >
</g>
<g >
</g>
<g >
</g>
<g >
</g>
<g >
<path style="fill:#000000; fill-opacity:1.0; 
stroke:#000000; stroke-width:0; stroke-opacity:1; 
stroke-linecap:round; stroke-linejoin:round;fill-rule:evenodd;"
d="M 45981,41716
45985,41716
45989,41717
45993,41719
45997,41721
46000,41723
46004,41725
46007,41728
46010,41731
46012,41734
46014,41738
46016,41742
46017,41746
46018,41750
46019,41754
46019,41758
46019,41843
46019,41847
46018,41851
46017,41855
46016,41859
46014,41863
46012,41866
46010,41869
46007,41873
46004,41875
46000,41878
45997,41880
45993,41882
45989,41883
45985,41884
45981,41885
45977,41885
45873,41885
45868,41885
45864,41884
45860,41883
45856,41882
45853,41880
45849,41878
45846,41875
45843,41873
45840,41869
45837,41866
45835,41863
45833,41859
45832,41855
45831,41851
45830,41847
45830,41843
45830,41758
45830,41754
45831,41750
45832,41746
45833,41742
45835,41738
45837,41734
45840,41731
45843,41728
45846,41725
45849,41723
45853,41721
45856,41719
45860,41717
45864,41716
45868,41716
45873,41716
45977,41716
45981,41716
Z" /> 
<path style="fill:#000000; fill-opacity:1.0; 
stroke:#000000; stroke-width:0; stroke-opacity:1; 
stroke-linecap:round; stroke-linejoin:round;fill-rule:evenodd;"
d="M 45981,42098
45985,42098
45989,42099
45993,42101
45997,42102
46000,42105
46004,42107
46007,42110
46010,42113
46012,42116
46014,42120
46016,42124
46017,42128
46018,42132
46019,42136
46019,42140
46019,42224
46019,42229
46018,42233
46017,42237
46016,42241
46014,42244
46012,42248
46010,42251
46007,42254
46004,42257
46000,42260
45997,42262
45993,42264
45989,42265
45985,42266
45981,42267
45977,42267
45873,42267
45868,42267
45864,42266
45860,42265
45856,42264
45853,42262
45849,42260
45846,42257
45843,42254
45840,42251
45837,42248
45835,42244
45833,42241
45832,42237
45831,42233
45830,42229
45830,42224
45830,42140
45830,42136
45831,42132
45832,42128
45833,42124
45835,42120
45837,42116
45840,42113
45843,42110
45846,42107
45849,42105
45853,42102
45856,42101
45860,42099
45864,42098
45868,42098
45873,42098
45977,42098
45981,42098
Z" /> 
</g>
<g >
</g>
<g >
<path style="fill:#000000; fill-opacity:1.0; 
stroke:#000000; stroke-width:0; stroke-opacity:1; 
stroke-linecap:round; stroke-linejoin:round;fill-rule:evenodd;"
d="M 46865,39608
46869,39608
46873,39609
46877,39611
46881,39612
46885,39615
46888,39617
46891,39620
46894,39623
46896,39626
46899,39630
46900,39634
46902,39637
46903,39642
46903,39646
46904,39650
46904,39734
46903,39739
46903,39743
46902,39747
46900,39751
46899,39754
46896,39758
46894,39761
46891,39764
46888,39767
46885,39770
46881,39772
46877,39774
46873,39775
46869,39776
46865,39777
46861,39777
46757,39777
46753,39777
46749,39776
46745,39775
46741,39774
46737,39772
46733,39770
46730,39767
46727,39764
46724,39761
46722,39758
46720,39754
46718,39751
46716,39747
46715,39743
46715,39739
46715,39734
46715,39650
46715,39646
46715,39642
46716,39637
46718,39634
46720,39630
46722,39626
46724,39623
46727,39620
46730,39617
46733,39615
46737,39612
46741,39611
46745,39609
46749,39608
46753,39608
46757,39607
46861,39607
46865,39608
Z" /> 
<path style="fill:#000000; fill-opacity:1.0; 
stroke:#000000; stroke-width:0; stroke-opacity:1; 
stroke-linecap:round; stroke-linejoin:round;fill-rule:evenodd;"
d="M 46865,39226
46869,39226
46873,39227
46877,39229
46881,39231
46885,39233
46888,39235
46891,39238
46894,39241
46896,39244
46899,39248
46900,39252
46902,39256
46903,39260
46903,39264
46904,39268
46904,39353
46903,39357
46903,39361
46902,39365
46900,39369
46899,39372
46896,39376
46894,39379
46891,39382
46888,39385
46885,39388
46881,39390
46877,39392
46873,39393
46869,39394
46865,39395
46861,39395
46757,39395
46753,39395
46749,39394
46745,39393
46741,39392
46737,39390
46733,39388
46730,39385
46727,39382
46724,39379
46722,39376
46720,39372
46718,39369
46716,39365
46715,39361
46715,39357
46715,39353
46715,39268
46715,39264
46715,39260
46716,39256
46718,39252
46720,39248
46722,39244
46724,39241
46727,39238
46730,39235
46733,39233
46737,39231
46741,39229
46745,39227
46749,39226
46753,39226
46757,39226
46861,39226
46865,39226
Z" /> 
</g>
<g >
</g>
<g >
</g>
<g >
</g>
<g >
</g>
<g >
</g>
<g >
</g>
<g >
</g>
<g >
</g>
<g >
</g>
<g >
</g>
<g >
<path style="fill:#000000; fill-opacity:1.0; 
stroke:#000000; stroke-width:0; stroke-opacity:1; 
stroke-linecap:round; stroke-linejoin:round;fill-rule:evenodd;"
d="M 45568,41716
45572,41716
45576,41717
45580,41719
45583,41721
45587,41723
45590,41725
45593,41728
45596,41731
45599,41734
45601,41738
45603,41742
45604,41746
45605,41750
45606,41754
45606,41758
45606,41843
45606,41847
45605,41851
45604,41855
45603,41859
45601,41863
45599,41866
45596,41869
45593,41873
45590,41875
45587,41878
45583,41880
45580,41882
45576,41883
45572,41884
45568,41885
45563,41885
45459,41885
45455,41885
45451,41884
45447,41883
45443,41882
45439,41880
45436,41878
45432,41875
45429,41873
45426,41869
45424,41866
45422,41863
45420,41859
45419,41855
45418,41851
45417,41847
45417,41843
45417,41758
45417,41754
45418,41750
45419,41746
45420,41742
45422,41738
45424,41734
45426,41731
45429,41728
45432,41725
45436,41723
45439,41721
45443,41719
45447,41717
45451,41716
45455,41716
45459,41716
45563,41716
45568,41716
Z" /> 
<path style="fill:#000000; fill-opacity:1.0; 
stroke:#000000; stroke-width:0; stroke-opacity:1; 
stroke-linecap:round; stroke-linejoin:round;fill-rule:evenodd;"
d="M 45568,42098
45572,42098
45576,42099
45580,42101
45583,42102
45587,42105
45590,42107
45593,42110
45596,42113
45599,42116
45601,42120
45603,42124
45604,42128
45605,42132
45606,42136
45606,42140
45606,42224
45606,42229
45605,42233
45604,42237
45603,42241
45601,42244
45599,42248
45596,42251
45593,42254
45590,42257
45587,42260
45583,42262
45580,42264
45576,42265
45572,42266
45568,42267
45563,42267
45459,42267
45455,42267
45451,42266
45447,42265
45443,42264
45439,42262
45436,42260
45432,42257
45429,42254
45426,42251
45424,42248
45422,42244
45420,42241
45419,42237
45418,42233
45417,42229
45417,42224
45417,42140
45417,42136
45418,42132
45419,42128
45420,42124
45422,42120
45424,42116
45426,42113
45429,42110
45432,42107
45436,42105
45439,42102
45443,42101
45447,42099
45451,42098
45455,42098
45459,42098
45563,42098
45568,42098
Z" /> 
</g>
<g >
<path style="fill:#000000; fill-opacity:1.0; 
stroke:#000000; stroke-width:0; stroke-opacity:1; 
stroke-linecap:round; stroke-linejoin:round;fill-rule:evenodd;"
d="M 44485,43531
44489,43532
44493,43533
44497,43534
44501,43536
44504,43538
44508,43541
44511,43543
44514,43546
44516,43550
44518,43553
44520,43557
44521,43561
44522,43565
44523,43569
44523,43573
44523,43658
44523,43662
44522,43666
44521,43670
44520,43674
44518,43678
44516,43681
44514,43685
44511,43688
44508,43691
44504,43693
44501,43695
44497,43697
44493,43698
44489,43699
44485,43700
44481,43700
44376,43700
44372,43700
44368,43699
44364,43698
44360,43697
44357,43695
44353,43693
44350,43691
44347,43688
44344,43685
44341,43681
44339,43678
44337,43674
44336,43670
44335,43666
44334,43662
44334,43658
44334,43573
44334,43569
44335,43565
44336,43561
44337,43557
44339,43553
44341,43550
44344,43546
44347,43543
44350,43541
44353,43538
44357,43536
44360,43534
44364,43533
44368,43532
44372,43531
44376,43531
44481,43531
44485,43531
Z" /> 
<path style="fill:#000000; fill-opacity:1.0; 
stroke:#000000; stroke-width:0; stroke-opacity:1; 
stroke-linecap:round; stroke-linejoin:round;fill-rule:evenodd;"
d="M 44485,43149
44489,43150
44493,43151
44497,43152
44501,43154
44504,43156
44508,43159
44511,43162
44514,43165
44516,43168
44518,43171
44520,43175
44521,43179
44522,43183
44523,43187
44523,43191
44523,43276
44523,43280
44522,43284
44521,43288
44520,43292
44518,43296
44516,43300
44514,43303
44511,43306
44508,43309
44504,43311
44501,43313
44497,43315
44493,43317
44489,43318
44485,43318
44481,43318
44376,43318
44372,43318
44368,43318
44364,43317
44360,43315
44357,43313
44353,43311
44350,43309
44347,43306
44344,43303
44341,43300
44339,43296
44337,43292
44336,43288
44335,43284
44334,43280
44334,43276
44334,43191
44334,43187
44335,43183
44336,43179
44337,43175
44339,43171
44341,43168
44344,43165
44347,43162
44350,43159
44353,43156
44357,43154
44360,43152
44364,43151
44368,43150
44372,43149
44376,43149
44481,43149
44485,43149
Z" /> 
</g>
<g >
</g>
<g >
</g>
<g >
</g>
<g >
</g>
<g >
</g>
<g >
</g>
<g >
<path style="fill:#000000; fill-opacity:1.0; 
stroke:#000000; stroke-width:0; stroke-opacity:1; 
stroke-linecap:round; stroke-linejoin:round;fill-rule:evenodd;"
d="M 46291,40763
46298,40764
46304,40766
46311,40768
46317,40771
46323,40775
46329,40779
46334,40784
46338,40789
46342,40794
46346,40800
46349,40806
46351,40813
46353,40820
46354,40826
46354,40833
46354,41004
46354,41011
46353,41017
46351,41024
46349,41031
46346,41037
46342,41043
46338,41048
46334,41053
46329,41058
46323,41062
46317,41066
46311,41069
46304,41071
46298,41073
46291,41074
46284,41074
46143,41074
46136,41074
46129,41073
46123,41071
46116,41069
46110,41066
46104,41062
46099,41058
46093,41053
46089,41048
46085,41043
46081,41037
46078,41031
46076,41024
46074,41017
46073,41011
46073,41004
46073,40833
46073,40826
46074,40820
46076,40813
46078,40806
46081,40800
46085,40794
46089,40789
46093,40784
46099,40779
46104,40775
46110,40771
46116,40768
46123,40766
46129,40764
46136,40763
46143,40763
46284,40763
46291,40763
Z" /> 
<path style="fill:#000000; fill-opacity:1.0; 
stroke:#000000; stroke-width:0; stroke-opacity:1; 
stroke-linecap:round; stroke-linejoin:round;fill-rule:evenodd;"
d="M 45671,40763
45678,40764
45684,40766
45691,40768
45697,40771
45703,40775
45708,40779
45714,40784
45718,40789
45722,40794
45726,40800
45729,40806
45731,40813
45733,40820
45734,40826
45734,40833
45734,41004
45734,41011
45733,41017
45731,41024
45729,41031
45726,41037
45722,41043
45718,41048
45714,41053
45708,41058
45703,41062
45697,41066
45691,41069
45684,41071
45678,41073
45671,41074
45664,41074
45523,41074
45516,41074
45509,41073
45503,41071
45496,41069
45490,41066
45484,41062
45478,41058
45473,41053
45469,41048
45465,41043
45461,41037
45458,41031
45456,41024
45454,41017
45453,41011
45453,41004
45453,40833
45453,40826
45454,40820
45456,40813
45458,40806
45461,40800
45465,40794
45469,40789
45473,40784
45478,40779
45484,40775
45490,40771
45496,40768
45503,40766
45509,40764
45516,40763
45523,40763
45664,40763
45671,40763
Z" /> 
</g>
<g >
<path style="fill:#000000; fill-opacity:1.0; 
stroke:#000000; stroke-width:0; stroke-opacity:1; 
stroke-linecap:round; stroke-linejoin:round;fill-rule:evenodd;"
d="M 44460,39277
44467,39278
44474,39280
44480,39282
44486,39285
44492,39289
44498,39293
44503,39297
44508,39302
44512,39308
44515,39314
44518,39320
44521,39327
44522,39333
44523,39340
44524,39347
44524,39488
44523,39495
44522,39502
44521,39508
44518,39515
44515,39521
44512,39527
44508,39533
44503,39538
44498,39542
44492,39546
44486,39550
44480,39553
44474,39555
44467,39557
44460,39558
44453,39558
44283,39558
44276,39558
44269,39557
44263,39555
44256,39553
44250,39550
44244,39546
44238,39542
44233,39538
44229,39533
44224,39527
44221,39521
44218,39515
44216,39508
44214,39502
44213,39495
44213,39488
44213,39347
44213,39340
44214,39333
44216,39327
44218,39320
44221,39314
44224,39308
44229,39302
44233,39297
44238,39293
44244,39289
44250,39285
44256,39282
44263,39280
44269,39278
44276,39277
44283,39277
44453,39277
44460,39277
Z" /> 
<path style="fill:#000000; fill-opacity:1.0; 
stroke:#000000; stroke-width:0; stroke-opacity:1; 
stroke-linecap:round; stroke-linejoin:round;fill-rule:evenodd;"
d="M 44460,39897
44467,39898
44474,39900
44480,39902
44486,39905
44492,39909
44498,39913
44503,39917
44508,39923
44512,39928
44515,39934
44518,39940
44521,39947
44522,39953
44523,39960
44524,39967
44524,40108
44523,40115
44522,40122
44521,40128
44518,40135
44515,40141
44512,40147
44508,40153
44503,40158
44498,40162
44492,40166
44486,40170
44480,40173
44474,40175
44467,40177
44460,40178
44453,40178
44283,40178
44276,40178
44269,40177
44263,40175
44256,40173
44250,40170
44244,40166
44238,40162
44233,40158
44229,40153
44224,40147
44221,40141
44218,40135
44216,40128
44214,40122
44213,40115
44213,40108
44213,39967
44213,39960
44214,39953
44216,39947
44218,39940
44221,39934
44224,39928
44229,39923
44233,39917
44238,39913
44244,39909
44250,39905
44256,39902
44263,39900
44269,39898
44276,39897
44283,39897
44453,39897
44460,39897
Z" /> 
</g>
<g >
<path style="fill:#000000; fill-opacity:1.0; 
stroke:#000000; stroke-width:0; stroke-opacity:1; 
stroke-linecap:round; stroke-linejoin:round;fill-rule:evenodd;"
d="M 47442,39262
47449,39263
47456,39265
47462,39267
47469,39270
47475,39274
47480,39278
47485,39283
47490,39288
47494,39293
47498,39299
47501,39305
47503,39312
47505,39319
47506,39325
47506,39332
47506,39473
47506,39480
47505,39487
47503,39494
47501,39500
47498,39506
47494,39512
47490,39518
47485,39523
47480,39528
47475,39532
47469,39535
47462,39538
47456,39540
47449,39542
47442,39543
47436,39543
47265,39543
47258,39543
47251,39542
47245,39540
47238,39538
47232,39535
47226,39532
47221,39528
47215,39523
47211,39518
47207,39512
47203,39506
47200,39500
47198,39494
47196,39487
47195,39480
47195,39473
47195,39332
47195,39325
47196,39319
47198,39312
47200,39305
47203,39299
47207,39293
47211,39288
47215,39283
47221,39278
47226,39274
47232,39270
47238,39267
47245,39265
47251,39263
47258,39262
47265,39262
47436,39262
47442,39262
Z" /> 
<path style="fill:#000000; fill-opacity:1.0; 
stroke:#000000; stroke-width:0; stroke-opacity:1; 
stroke-linecap:round; stroke-linejoin:round;fill-rule:evenodd;"
d="M 47442,39882
47449,39883
47456,39885
47462,39887
47469,39890
47475,39894
47480,39898
47485,39903
47490,39908
47494,39913
47498,39919
47501,39926
47503,39932
47505,39939
47506,39946
47506,39952
47506,40093
47506,40100
47505,40107
47503,40114
47501,40120
47498,40126
47494,40132
47490,40138
47485,40143
47480,40148
47475,40152
47469,40155
47462,40158
47456,40161
47449,40162
47442,40163
47436,40164
47265,40164
47258,40163
47251,40162
47245,40161
47238,40158
47232,40155
47226,40152
47221,40148
47215,40143
47211,40138
47207,40132
47203,40126
47200,40120
47198,40114
47196,40107
47195,40100
47195,40093
47195,39952
47195,39946
47196,39939
47198,39932
47200,39926
47203,39919
47207,39913
47211,39908
47215,39903
47221,39898
47226,39894
47232,39890
47238,39887
47245,39885
47251,39883
47258,39882
47265,39882
47436,39882
47442,39882
Z" /> 
</g>
<g >
</g>
<g >
</g>
<g >
</g>
<g >
</g>
<g >
</g>
<g >
</g>
<g >
</g>
<g >
</g>
<g >
</g>
<g >
</g>
<g >
</g>
<g >
</g>
<g >
</g>
<g >
</g>
<g >
</g>
<g >
</g>
<g >
</g>
<g >
</g>
<g >
</g>
<g >
</g>
<g >
</g>
<g >
</g>
<g >
</g>
<g >
</g>
<g >
</g>
<g >
</g>
<g >
</g>
<g >
</g>
<g >
</g>
<g >
</g>
<g >
</g>
<g >
</g>
<g >
</g>
<g >
</g>
<g >
</g>
<g >
</g>
<g >
</g>
<g >
</g>
<g >
</g>
<g >
</g>
<g >
</g>
<g >
</g>
<g >
</g>
<g >
</g>
<g >
</g>
<g >
</g>
</g> 
</svg>
