<svg id="Layer_1" data-name="Layer 1" xmlns="http://www.w3.org/2000/svg" viewBox="0 0 120.82 371.09"><defs><style>.cls-1{fill:#fff;}</style></defs><title>thermometer</title><path class="cls-1" d="M304.75,163.46c0-11.94-3.13-21.64-7-21.64s-7,9.71-7,21.64V372.72h13.94Z" transform="translate(-237.37 -112.51)"/><path class="cls-1" d="M331.43,373l-1.12-.75V342.44h-6.55v-5.07h6.55V326.29h-6.55v-5.07h6.55V310.13h-6.55v-5.07h6.55V294h-6.55V288.9h6.55V277.82h-6.55v-5.07h6.55v-11.1h-6.55v-5.07h6.55V245.48h-6.55v-5.07h6.55V229.33h-6.55v-5.07h6.55V213.17h-6.55V208.1h6.55V197h-6.55v-5.07h6.55v-11.1h-6.55v-5.07h6.55V164.69h-6.55v-5.07h6.55V130s-24.07-17.48-32.52-17.48S265.26,130,265.26,130V372.25l-1.12.76a60.41,60.41,0,1,0,67.29,0Zm-33.64,87.13a36.94,36.94,0,0,1-12-71.87V150c0-7.32,5.4-13.27,12-13.27s12,6,12,13.27V388.27a36.94,36.94,0,0,1-12,71.87Z" transform="translate(-237.37 -112.51)"/><circle class="cls-1" cx="60.41" cy="310.68" r="29.05"/></svg>