<?xml version="1.0" standalone="no"?>
 <!DOCTYPE svg PUBLIC "-//W3C//DTD SVG 1.1//EN" 
 "http://www.w3.org/Graphics/SVG/1.1/DTD/svg11.dtd"> 
<svg xmlns="http://www.w3.org/2000/svg" version="1.1" 
    width="29.7002cm" height="21.0007cm" viewBox="0 0 116930 82680 ">
<title>SVG Picture created as HealthMonitor-B_Mask.svg date 2019/06/10 10:58:05 </title>
  <desc>Picture generated by PCBNEW </desc>
<g style="fill:#000000; fill-opacity:1;stroke:#000000; stroke-opacity:1;
stroke-linecap:round; stroke-linejoin:round; "
 transform="translate(0 0) scale(1 1)">
</g>
<g style="fill:#000000; fill-opacity:0.0; 
stroke:#000000; stroke-width:-0.000393701; stroke-opacity:1; 
stroke-linecap:round; stroke-linejoin:round;">
</g>
<g style="fill:#000000; fill-opacity:0.0; 
stroke:#000000; stroke-width:59.0551; stroke-opacity:1; 
stroke-linecap:round; stroke-linejoin:round;">
<path d="M66929 39370
L59055 39370
" />
<path d="M66929 51181
L59055 51181
" />
<path d="M51181 51181
L51181 39370
" />
<path d="M59055 51181
L59055 39370
" />
<path d="M39370 39370
L39370 51181
" />
<path d="M51181 39370
L39370 39370
" />
<path d="M51181 51181
L39370 51181
" />
<path d="M66929 51181
L66929 39370
" />
</g>
<g style="fill:#000000; fill-opacity:1.0; 
stroke:#000000; stroke-width:0; stroke-opacity:1; 
stroke-linecap:round; stroke-linejoin:round;">
<path style="fill:#000000; fill-opacity:1.0; 
stroke:#000000; stroke-width:0; stroke-opacity:1; 
stroke-linecap:round; stroke-linejoin:round;fill-rule:evenodd;"
d="M 66665,50998
66231,50998
66231,50564
66665,50564
66665,50998
Z" /> 
<path style="fill:#000000; fill-opacity:1.0; 
stroke:#000000; stroke-width:0; stroke-opacity:1; 
stroke-linecap:round; stroke-linejoin:round;fill-rule:evenodd;"
d="M 42795,50797
42164,50797
42164,49733
42795,49733
42795,50797
Z" /> 
<path style="fill:#000000; fill-opacity:1.0; 
stroke:#000000; stroke-width:0; stroke-opacity:1; 
stroke-linecap:round; stroke-linejoin:round;fill-rule:evenodd;"
d="M 41614,50797
40983,50797
40983,49733
41614,49733
41614,50797
Z" /> 
<path style="fill:#000000; fill-opacity:1.0; 
stroke:#000000; stroke-width:0; stroke-opacity:1; 
stroke-linecap:round; stroke-linejoin:round;fill-rule:evenodd;"
d="M 40692,50400
40706,50404
40718,50411
40729,50420
40738,50431
40744,50443
40748,50456
40750,50473
40750,50709
40748,50726
40744,50739
40738,50751
40729,50762
40718,50771
40706,50778
40692,50782
40676,50783
40410,50783
40393,50782
40380,50778
40368,50771
40357,50762
40348,50751
40341,50739
40337,50726
40336,50709
40336,50473
40337,50456
40341,50443
40348,50431
40357,50420
40368,50411
40380,50404
40393,50400
40410,50399
40676,50399
40692,50400
Z" /> 
<path style="fill:#000000; fill-opacity:1.0; 
stroke:#000000; stroke-width:0; stroke-opacity:1; 
stroke-linecap:round; stroke-linejoin:round;fill-rule:evenodd;"
d="M 65775,50451
65342,50451
65342,50017
65775,50017
65775,50451
Z" /> 
<path style="fill:#000000; fill-opacity:1.0; 
stroke:#000000; stroke-width:0; stroke-opacity:1; 
stroke-linecap:round; stroke-linejoin:round;fill-rule:evenodd;"
d="M 66665,50447
66231,50447
66231,50013
66665,50013
66665,50447
Z" /> 
<path style="fill:#000000; fill-opacity:1.0; 
stroke:#000000; stroke-width:0; stroke-opacity:1; 
stroke-linecap:round; stroke-linejoin:round;fill-rule:evenodd;"
d="M 40692,49780
40706,49784
40718,49791
40729,49800
40738,49811
40744,49823
40748,49836
40750,49853
40750,50089
40748,50106
40744,50119
40738,50131
40729,50142
40718,50151
40706,50158
40692,50162
40676,50163
40410,50163
40393,50162
40380,50158
40368,50151
40357,50142
40348,50131
40341,50119
40337,50106
40336,50089
40336,49853
40337,49836
40341,49823
40348,49811
40357,49800
40368,49791
40380,49784
40393,49780
40410,49779
40676,49779
40692,49780
Z" /> 
<path style="fill:#000000; fill-opacity:1.0; 
stroke:#000000; stroke-width:0; stroke-opacity:1; 
stroke-linecap:round; stroke-linejoin:round;fill-rule:evenodd;"
d="M 66665,49896
66231,49896
66231,49462
66665,49462
66665,49896
Z" /> 
<path style="fill:#000000; fill-opacity:1.0; 
stroke:#000000; stroke-width:0; stroke-opacity:1; 
stroke-linecap:round; stroke-linejoin:round;fill-rule:evenodd;"
d="M 42538,48982
42553,48987
42568,48994
42581,49005
42591,49018
42599,49032
42603,49048
42605,49066
42605,49328
42603,49346
42599,49362
42591,49377
42581,49389
42568,49400
42553,49407
42538,49412
42519,49414
42041,49414
42022,49412
42007,49407
41992,49400
41980,49389
41969,49377
41961,49362
41957,49346
41955,49328
41955,49066
41957,49048
41961,49032
41969,49018
41980,49005
41992,48994
42007,48987
42022,48982
42041,48980
42519,48980
42538,48982
Z" /> 
<path style="fill:#000000; fill-opacity:1.0; 
stroke:#000000; stroke-width:0; stroke-opacity:1; 
stroke-linecap:round; stroke-linejoin:round;fill-rule:evenodd;"
d="M 43542,48982
43557,48987
43572,48994
43584,49005
43595,49018
43603,49032
43607,49048
43609,49066
43609,49328
43607,49346
43603,49362
43595,49377
43584,49389
43572,49400
43557,49407
43542,49412
43523,49414
43045,49414
43026,49412
43011,49407
42996,49400
42984,49389
42973,49377
42965,49362
42961,49346
42959,49328
42959,49066
42961,49048
42965,49032
42973,49018
42984,49005
42996,48994
43011,48987
43026,48982
43045,48980
43523,48980
43542,48982
Z" /> 
<path style="fill:#000000; fill-opacity:1.0; 
stroke:#000000; stroke-width:0; stroke-opacity:1; 
stroke-linecap:round; stroke-linejoin:round;fill-rule:evenodd;"
d="M 41759,48973
41775,48978
41789,48986
41802,48996
41812,49009
41820,49023
41825,49039
41827,49058
41827,49319
41825,49338
41820,49354
41812,49368
41802,49381
41789,49391
41775,49399
41759,49404
41740,49405
41263,49405
41244,49404
41228,49399
41214,49391
41201,49381
41191,49368
41183,49354
41178,49338
41176,49319
41176,49058
41178,49039
41183,49023
41191,49009
41201,48996
41214,48986
41228,48978
41244,48973
41263,48972
41740,48972
41759,48973
Z" /> 
<path style="fill:#000000; fill-opacity:1.0; 
stroke:#000000; stroke-width:0; stroke-opacity:1; 
stroke-linecap:round; stroke-linejoin:round;fill-rule:evenodd;"
d="M 40755,48973
40771,48978
40785,48986
40798,48996
40808,49009
40816,49023
40821,49039
40823,49058
40823,49319
40821,49338
40816,49354
40808,49368
40798,49381
40785,49391
40771,49399
40755,49404
40736,49405
40259,49405
40240,49404
40224,49399
40210,49391
40197,49381
40187,49368
40179,49354
40174,49338
40172,49319
40172,49058
40174,49039
40179,49023
40187,49009
40197,48996
40210,48986
40224,48978
40240,48973
40259,48972
40736,48972
40755,48973
Z" /> 
<path style="fill:#000000; fill-opacity:1.0; 
stroke:#000000; stroke-width:0; stroke-opacity:1; 
stroke-linecap:round; stroke-linejoin:round;fill-rule:evenodd;"
d="M 66665,49344
66231,49344
66231,48911
66665,48911
66665,49344
Z" /> 
<path style="fill:#000000; fill-opacity:1.0; 
stroke:#000000; stroke-width:0; stroke-opacity:1; 
stroke-linecap:round; stroke-linejoin:round;fill-rule:evenodd;"
d="M 66665,48793
66231,48793
66231,48359
66665,48359
66665,48793
Z" /> 
<path style="fill:#000000; fill-opacity:1.0; 
stroke:#000000; stroke-width:0; stroke-opacity:1; 
stroke-linecap:round; stroke-linejoin:round;fill-rule:evenodd;"
d="M 66665,48242
66231,48242
66231,47808
66665,47808
66665,48242
Z" /> 
<path style="fill:#000000; fill-opacity:1.0; 
stroke:#000000; stroke-width:0; stroke-opacity:1; 
stroke-linecap:round; stroke-linejoin:round;fill-rule:evenodd;"
d="M 50240,47811
49806,47811
49806,47377
50240,47377
50240,47811
Z" /> 
<path style="fill:#000000; fill-opacity:1.0; 
stroke:#000000; stroke-width:0; stroke-opacity:1; 
stroke-linecap:round; stroke-linejoin:round;fill-rule:evenodd;"
d="M 42538,47328
42553,47333
42568,47341
42581,47351
42591,47364
42599,47378
42603,47394
42605,47413
42605,47674
42603,47693
42599,47709
42591,47723
42581,47736
42568,47746
42553,47754
42538,47759
42519,47760
42041,47760
42022,47759
42007,47754
41992,47746
41980,47736
41969,47723
41961,47709
41957,47693
41955,47674
41955,47413
41957,47394
41961,47378
41969,47364
41980,47351
41992,47341
42007,47333
42022,47328
42041,47327
42519,47327
42538,47328
Z" /> 
<path style="fill:#000000; fill-opacity:1.0; 
stroke:#000000; stroke-width:0; stroke-opacity:1; 
stroke-linecap:round; stroke-linejoin:round;fill-rule:evenodd;"
d="M 43542,47328
43557,47333
43572,47341
43584,47351
43595,47364
43603,47378
43607,47394
43609,47413
43609,47674
43607,47693
43603,47709
43595,47723
43584,47736
43572,47746
43557,47754
43542,47759
43523,47760
43045,47760
43026,47759
43011,47754
42996,47746
42984,47736
42973,47723
42965,47709
42961,47693
42959,47674
42959,47413
42961,47394
42965,47378
42973,47364
42984,47351
42996,47341
43011,47333
43026,47328
43045,47327
43523,47327
43542,47328
Z" /> 
<path style="fill:#000000; fill-opacity:1.0; 
stroke:#000000; stroke-width:0; stroke-opacity:1; 
stroke-linecap:round; stroke-linejoin:round;fill-rule:evenodd;"
d="M 41759,47320
41775,47325
41789,47332
41802,47343
41812,47355
41820,47370
41825,47386
41827,47404
41827,47666
41825,47684
41820,47700
41812,47714
41802,47727
41789,47738
41775,47745
41759,47750
41740,47752
41263,47752
41244,47750
41228,47745
41214,47738
41201,47727
41191,47714
41183,47700
41178,47684
41176,47666
41176,47404
41178,47386
41183,47370
41191,47355
41201,47343
41214,47332
41228,47325
41244,47320
41263,47318
41740,47318
41759,47320
Z" /> 
<path style="fill:#000000; fill-opacity:1.0; 
stroke:#000000; stroke-width:0; stroke-opacity:1; 
stroke-linecap:round; stroke-linejoin:round;fill-rule:evenodd;"
d="M 40755,47320
40771,47325
40785,47332
40798,47343
40808,47355
40816,47370
40821,47386
40823,47404
40823,47666
40821,47684
40816,47700
40808,47714
40798,47727
40785,47738
40771,47745
40755,47750
40736,47752
40259,47752
40240,47750
40224,47745
40210,47738
40197,47727
40187,47714
40179,47700
40174,47684
40172,47666
40172,47404
40174,47386
40179,47370
40187,47355
40197,47343
40210,47332
40224,47325
40240,47320
40259,47318
40736,47318
40755,47320
Z" /> 
<path style="fill:#000000; fill-opacity:1.0; 
stroke:#000000; stroke-width:0; stroke-opacity:1; 
stroke-linecap:round; stroke-linejoin:round;fill-rule:evenodd;"
d="M 66665,47691
66231,47691
66231,47257
66665,47257
66665,47691
Z" /> 
<path style="fill:#000000; fill-opacity:1.0; 
stroke:#000000; stroke-width:0; stroke-opacity:1; 
stroke-linecap:round; stroke-linejoin:round;fill-rule:evenodd;"
d="M 50240,47260
49806,47260
49806,46826
50240,46826
50240,47260
Z" /> 
<path style="fill:#000000; fill-opacity:1.0; 
stroke:#000000; stroke-width:0; stroke-opacity:1; 
stroke-linecap:round; stroke-linejoin:round;fill-rule:evenodd;"
d="M 66665,47140
66231,47140
66231,46706
66665,46706
66665,47140
Z" /> 
<path style="fill:#000000; fill-opacity:1.0; 
stroke:#000000; stroke-width:0; stroke-opacity:1; 
stroke-linecap:round; stroke-linejoin:round;fill-rule:evenodd;"
d="M 41622,46949
40991,46949
40991,45885
41622,45885
41622,46949
Z" /> 
<path style="fill:#000000; fill-opacity:1.0; 
stroke:#000000; stroke-width:0; stroke-opacity:1; 
stroke-linecap:round; stroke-linejoin:round;fill-rule:evenodd;"
d="M 42803,46949
42172,46949
42172,45885
42803,45885
42803,46949
Z" /> 
<path style="fill:#000000; fill-opacity:1.0; 
stroke:#000000; stroke-width:0; stroke-opacity:1; 
stroke-linecap:round; stroke-linejoin:round;fill-rule:evenodd;"
d="M 40708,46536
40721,46540
40734,46547
40745,46556
40753,46566
40760,46579
40764,46592
40766,46609
40766,46845
40764,46862
40760,46875
40753,46887
40745,46898
40734,46907
40721,46914
40708,46918
40692,46919
40425,46919
40409,46918
40396,46914
40383,46907
40373,46898
40364,46887
40357,46875
40353,46862
40351,46845
40351,46609
40353,46592
40357,46579
40364,46566
40373,46556
40383,46547
40396,46540
40409,46536
40425,46535
40692,46535
40708,46536
Z" /> 
<path style="fill:#000000; fill-opacity:1.0; 
stroke:#000000; stroke-width:0; stroke-opacity:1; 
stroke-linecap:round; stroke-linejoin:round;fill-rule:evenodd;"
d="M 50240,46709
49806,46709
49806,46275
50240,46275
50240,46709
Z" /> 
<path style="fill:#000000; fill-opacity:1.0; 
stroke:#000000; stroke-width:0; stroke-opacity:1; 
stroke-linecap:round; stroke-linejoin:round;fill-rule:evenodd;"
d="M 66665,46588
66231,46588
66231,46155
66665,46155
66665,46588
Z" /> 
<path style="fill:#000000; fill-opacity:1.0; 
stroke:#000000; stroke-width:0; stroke-opacity:1; 
stroke-linecap:round; stroke-linejoin:round;fill-rule:evenodd;"
d="M 40708,45916
40721,45920
40734,45927
40745,45936
40753,45946
40760,45959
40764,45972
40766,45988
40766,46225
40764,46241
40760,46255
40753,46267
40745,46278
40734,46287
40721,46293
40708,46297
40692,46299
40425,46299
40409,46297
40396,46293
40383,46287
40373,46278
40364,46267
40357,46255
40353,46241
40351,46225
40351,45988
40353,45972
40357,45959
40364,45946
40373,45936
40383,45927
40396,45920
40409,45916
40425,45914
40692,45914
40708,45916
Z" /> 
<path style="fill:#000000; fill-opacity:1.0; 
stroke:#000000; stroke-width:0; stroke-opacity:1; 
stroke-linecap:round; stroke-linejoin:round;fill-rule:evenodd;"
d="M 50240,46157
49806,46157
49806,45724
50240,45724
50240,46157
Z" /> 
<path style="fill:#000000; fill-opacity:1.0; 
stroke:#000000; stroke-width:0; stroke-opacity:1; 
stroke-linecap:round; stroke-linejoin:round;fill-rule:evenodd;"
d="M 66665,46037
66231,46037
66231,45603
66665,45603
66665,46037
Z" /> 
<path style="fill:#000000; fill-opacity:1.0; 
stroke:#000000; stroke-width:0; stroke-opacity:1; 
stroke-linecap:round; stroke-linejoin:round;fill-rule:evenodd;"
d="M 44795,44060
44797,44061
44798,44062
44801,44064
44809,44069
44818,44073
44827,44075
44837,44075
44846,44073
44855,44069
44863,44064
44866,44062
44868,44061
44869,44060
44874,44060
44987,44060
44992,44060
44994,44061
44995,44062
44998,44064
45006,44069
45015,44073
45024,44075
45034,44075
45043,44073
45052,44069
45060,44064
45063,44062
45064,44061
45066,44060
45071,44060
45184,44060
45189,44060
45190,44061
45192,44062
45195,44064
45203,44069
45212,44073
45221,44075
45231,44075
45240,44073
45249,44069
45257,44064
45260,44062
45261,44061
45263,44060
45267,44060
45381,44060
45385,44060
45387,44061
45389,44062
45392,44064
45400,44069
45408,44073
45418,44075
45428,44075
45437,44073
45446,44069
45454,44064
45456,44062
45458,44061
45460,44060
45464,44060
45578,44060
45582,44060
45584,44061
45586,44062
45588,44064
45596,44069
45605,44073
45615,44075
45624,44075
45634,44073
45643,44069
45651,44064
45653,44062
45655,44061
45657,44060
45661,44060
45775,44060
45779,44060
45781,44061
45783,44062
45784,44063
45785,44064
45786,44066
45787,44068
45787,44072
45787,44394
45788,44404
45791,44413
45796,44422
45802,44429
45809,44435
45818,44440
45827,44443
45837,44444
46159,44444
46163,44444
46165,44445
46167,44445
46168,44447
46169,44448
46170,44450
46171,44452
46171,44456
46171,44570
46171,44574
46170,44576
46169,44578
46167,44580
46162,44588
46158,44597
46156,44606
46156,44616
46158,44626
46162,44634
46167,44642
46169,44645
46170,44647
46171,44649
46171,44653
46171,44767
46171,44771
46170,44773
46169,44774
46167,44777
46162,44785
46158,44794
46156,44803
46156,44813
46158,44822
46162,44831
46167,44839
46169,44842
46170,44844
46171,44845
46171,44850
46171,44963
46171,44968
46170,44970
46169,44971
46167,44974
46162,44982
46158,44991
46156,45000
46156,45010
46158,45019
46162,45028
46167,45036
46169,45039
46170,45040
46171,45042
46171,45047
46171,45160
46171,45165
46170,45166
46169,45168
46167,45171
46162,45179
46158,45188
46156,45197
46156,45207
46158,45216
46162,45225
46167,45233
46169,45236
46170,45237
46171,45239
46171,45243
46171,45357
46171,45361
46170,45363
46169,45365
46167,45367
46162,45375
46158,45384
46156,45394
46156,45404
46158,45413
46162,45422
46167,45430
46169,45432
46170,45434
46171,45436
46171,45440
46171,45554
46171,45558
46170,45560
46169,45562
46168,45563
46167,45565
46165,45565
46163,45566
46159,45566
45837,45566
45827,45567
45818,45570
45809,45575
45802,45581
45796,45588
45791,45597
45788,45606
45787,45616
45787,45938
45787,45942
45786,45944
45785,45946
45784,45947
45783,45948
45781,45949
45779,45950
45775,45950
45661,45950
45657,45950
45655,45949
45653,45948
45651,45946
45643,45941
45634,45937
45624,45935
45615,45935
45605,45937
45596,45941
45588,45946
45586,45948
45584,45949
45582,45950
45578,45950
45464,45950
45460,45950
45458,45949
45456,45948
45454,45946
45446,45941
45437,45937
45428,45935
45418,45935
45408,45937
45400,45941
45392,45946
45389,45948
45387,45949
45385,45950
45381,45950
45267,45950
45263,45950
45261,45949
45260,45948
45257,45946
45249,45941
45240,45937
45231,45935
45221,45935
45212,45937
45203,45941
45195,45946
45192,45948
45190,45949
45189,45950
45184,45950
45071,45950
45066,45950
45064,45949
45063,45948
45060,45946
45052,45941
45043,45937
45034,45935
45024,45935
45015,45937
45006,45941
44998,45946
44995,45948
44994,45949
44992,45950
44987,45950
44874,45950
44869,45950
44868,45949
44866,45948
44863,45946
44855,45941
44846,45937
44837,45935
44827,45935
44818,45937
44809,45941
44801,45946
44798,45948
44797,45949
44795,45950
44791,45950
44677,45950
44673,45950
44671,45949
44669,45948
44668,45947
44666,45946
44665,45944
44665,45942
44664,45938
44664,45616
44664,45606
44661,45597
44656,45588
44650,45581
44643,45575
44634,45570
44625,45567
44615,45566
44293,45566
44289,45566
44287,45565
44285,45565
44284,45563
44282,45562
44282,45560
44281,45558
44281,45554
44281,45440
44281,45436
44282,45434
44282,45432
44285,45430
44290,45422
44294,45413
44295,45404
44295,45394
44294,45384
44290,45375
44285,45367
44282,45365
44282,45363
44281,45361
44281,45357
44281,45243
44281,45239
44282,45237
44282,45236
44285,45233
44290,45225
44294,45216
44295,45207
44295,45197
44294,45188
44290,45179
44285,45171
44282,45168
44282,45166
44281,45165
44281,45160
44281,45047
44281,45042
44282,45040
44282,45039
44285,45036
44290,45028
44294,45019
44295,45010
44295,45000
44294,44991
44290,44982
44285,44974
44282,44971
44282,44970
44281,44968
44281,44963
44281,44850
44281,44845
44282,44844
44282,44842
44285,44839
44290,44831
44294,44822
44295,44813
44295,44803
44294,44794
44290,44785
44285,44777
44282,44774
44282,44773
44281,44771
44281,44767
44281,44653
44281,44649
44282,44647
44282,44645
44285,44642
44290,44634
44294,44626
44295,44616
44295,44606
44294,44597
44290,44588
44285,44580
44282,44578
44282,44576
44281,44574
44281,44570
44281,44456
44281,44452
44282,44450
44282,44448
44284,44447
44285,44445
44287,44445
44289,44444
44293,44444
44615,44444
44625,44443
44634,44440
44643,44435
44650,44429
44656,44422
44661,44413
44664,44404
44664,44394
44664,44072
44665,44068
44665,44066
44666,44064
44668,44063
44669,44062
44671,44061
44673,44060
44677,44060
44791,44060
44795,44060
Z" /> 
<path style="fill:#000000; fill-opacity:1.0; 
stroke:#000000; stroke-width:0; stroke-opacity:1; 
stroke-linecap:round; stroke-linejoin:round;fill-rule:evenodd;"
d="M 50240,45606
49806,45606
49806,45172
50240,45172
50240,45606
Z" /> 
<path style="fill:#000000; fill-opacity:1.0; 
stroke:#000000; stroke-width:0; stroke-opacity:1; 
stroke-linecap:round; stroke-linejoin:round;fill-rule:evenodd;"
d="M 66665,45486
66231,45486
66231,45052
66665,45052
66665,45486
Z" /> 
<path style="fill:#000000; fill-opacity:1.0; 
stroke:#000000; stroke-width:0; stroke-opacity:1; 
stroke-linecap:round; stroke-linejoin:round;fill-rule:evenodd;"
d="M 43764,45012
43772,45014
43780,45018
43786,45024
43792,45030
43796,45038
43798,45046
43799,45057
43799,45237
43798,45248
43796,45256
43792,45264
43786,45270
43780,45276
43772,45280
43764,45282
43753,45283
43553,45283
43542,45282
43534,45280
43526,45276
43520,45270
43515,45264
43511,45256
43508,45248
43507,45237
43507,45057
43508,45046
43511,45038
43515,45030
43520,45024
43526,45018
43534,45014
43542,45012
43553,45011
43753,45011
43764,45012
Z" /> 
<path style="fill:#000000; fill-opacity:1.0; 
stroke:#000000; stroke-width:0; stroke-opacity:1; 
stroke-linecap:round; stroke-linejoin:round;fill-rule:evenodd;"
d="M 65898,45211
65464,45211
65464,44777
65898,44777
65898,45211
Z" /> 
<path style="fill:#000000; fill-opacity:1.0; 
stroke:#000000; stroke-width:0; stroke-opacity:1; 
stroke-linecap:round; stroke-linejoin:round;fill-rule:evenodd;"
d="M 50240,45055
49806,45055
49806,44621
50240,44621
50240,45055
Z" /> 
<path style="fill:#000000; fill-opacity:1.0; 
stroke:#000000; stroke-width:0; stroke-opacity:1; 
stroke-linecap:round; stroke-linejoin:round;fill-rule:evenodd;"
d="M 66665,44935
66231,44935
66231,44501
66665,44501
66665,44935
Z" /> 
<path style="fill:#000000; fill-opacity:1.0; 
stroke:#000000; stroke-width:0; stroke-opacity:1; 
stroke-linecap:round; stroke-linejoin:round;fill-rule:evenodd;"
d="M 43764,44630
43772,44633
43780,44637
43786,44642
43792,44648
43796,44656
43798,44664
43799,44675
43799,44856
43798,44866
43796,44875
43792,44882
43786,44889
43780,44894
43772,44898
43764,44900
43753,44901
43553,44901
43542,44900
43534,44898
43526,44894
43520,44889
43515,44882
43511,44875
43508,44866
43507,44856
43507,44675
43508,44664
43511,44656
43515,44648
43520,44642
43526,44637
43534,44633
43542,44630
43553,44629
43753,44629
43764,44630
Z" /> 
<path style="fill:#000000; fill-opacity:1.0; 
stroke:#000000; stroke-width:0; stroke-opacity:1; 
stroke-linecap:round; stroke-linejoin:round;fill-rule:evenodd;"
d="M 39984,44827
39550,44827
39550,44393
39984,44393
39984,44827
Z" /> 
<path style="fill:#000000; fill-opacity:1.0; 
stroke:#000000; stroke-width:0; stroke-opacity:1; 
stroke-linecap:round; stroke-linejoin:round;fill-rule:evenodd;"
d="M 65898,44659
65464,44659
65464,44225
65898,44225
65898,44659
Z" /> 
<path style="fill:#000000; fill-opacity:1.0; 
stroke:#000000; stroke-width:0; stroke-opacity:1; 
stroke-linecap:round; stroke-linejoin:round;fill-rule:evenodd;"
d="M 50240,44504
49806,44504
49806,44070
50240,44070
50240,44504
Z" /> 
<path style="fill:#000000; fill-opacity:1.0; 
stroke:#000000; stroke-width:0; stroke-opacity:1; 
stroke-linecap:round; stroke-linejoin:round;fill-rule:evenodd;"
d="M 43169,43890
42735,43890
42735,43456
43169,43456
43169,43890
Z" /> 
<path style="fill:#000000; fill-opacity:1.0; 
stroke:#000000; stroke-width:0; stroke-opacity:1; 
stroke-linecap:round; stroke-linejoin:round;fill-rule:evenodd;"
d="M 45260,43578
45268,43581
45276,43585
45282,43590
45288,43597
45292,43604
45294,43612
45295,43623
45295,43804
45294,43815
45292,43823
45288,43830
45282,43837
45276,43842
45268,43846
45260,43849
45249,43850
45049,43850
45038,43849
45030,43846
45023,43842
45016,43837
45011,43830
45007,43823
45004,43815
45003,43804
45003,43623
45004,43612
45007,43604
45011,43597
45016,43590
45023,43585
45030,43581
45038,43578
45049,43577
45249,43577
45260,43578
Z" /> 
<path style="fill:#000000; fill-opacity:1.0; 
stroke:#000000; stroke-width:0; stroke-opacity:1; 
stroke-linecap:round; stroke-linejoin:round;fill-rule:evenodd;"
d="M 44847,43578
44855,43581
44862,43585
44869,43590
44874,43597
44878,43604
44881,43612
44882,43623
44882,43804
44881,43815
44878,43823
44874,43830
44869,43837
44862,43842
44855,43846
44847,43849
44836,43850
44636,43850
44625,43849
44617,43846
44609,43842
44603,43837
44597,43830
44593,43823
44591,43815
44590,43804
44590,43623
44591,43612
44593,43604
44597,43597
44603,43590
44609,43585
44617,43581
44625,43578
44636,43577
44836,43577
44847,43578
Z" /> 
<path style="fill:#000000; fill-opacity:1.0; 
stroke:#000000; stroke-width:0; stroke-opacity:1; 
stroke-linecap:round; stroke-linejoin:round;fill-rule:evenodd;"
d="M 50732,43740
50298,43740
50298,43306
50732,43306
50732,43740
Z" /> 
<path style="fill:#000000; fill-opacity:1.0; 
stroke:#000000; stroke-width:0; stroke-opacity:1; 
stroke-linecap:round; stroke-linejoin:round;fill-rule:evenodd;"
d="M 45260,43197
45268,43199
45276,43203
45282,43208
45288,43215
45292,43222
45294,43231
45295,43241
45295,43422
45294,43433
45292,43441
45288,43449
45282,43455
45276,43460
45268,43464
45260,43467
45249,43468
45049,43468
45038,43467
45030,43464
45023,43460
45016,43455
45011,43449
45007,43441
45004,43433
45003,43422
45003,43241
45004,43231
45007,43222
45011,43215
45016,43208
45023,43203
45030,43199
45038,43197
45049,43196
45249,43196
45260,43197
Z" /> 
<path style="fill:#000000; fill-opacity:1.0; 
stroke:#000000; stroke-width:0; stroke-opacity:1; 
stroke-linecap:round; stroke-linejoin:round;fill-rule:evenodd;"
d="M 44847,43197
44855,43199
44862,43203
44869,43208
44874,43215
44878,43222
44881,43231
44882,43241
44882,43422
44881,43433
44878,43441
44874,43449
44869,43455
44862,43460
44855,43464
44847,43467
44836,43468
44636,43468
44625,43467
44617,43464
44609,43460
44603,43455
44597,43449
44593,43441
44591,43433
44590,43422
44590,43241
44591,43231
44593,43222
44597,43215
44603,43208
44609,43203
44617,43199
44625,43197
44636,43196
44836,43196
44847,43197
Z" /> 
<path style="fill:#000000; fill-opacity:1.0; 
stroke:#000000; stroke-width:0; stroke-opacity:1; 
stroke-linecap:round; stroke-linejoin:round;fill-rule:evenodd;"
d="M 50732,43189
50298,43189
50298,42755
50732,42755
50732,43189
Z" /> 
<path style="fill:#000000; fill-opacity:1.0; 
stroke:#000000; stroke-width:0; stroke-opacity:1; 
stroke-linecap:round; stroke-linejoin:round;fill-rule:evenodd;"
d="M 63243,42078
63276,42089
63307,42105
63334,42127
63357,42154
63373,42185
63383,42219
63386,42245
63386,42498
63383,42524
63373,42558
63357,42589
63334,42616
63319,42628
63312,42635
63307,42643
63303,42652
63301,42662
63301,42671
63303,42681
63307,42690
63312,42698
63319,42704
63327,42710
63336,42714
63345,42715
63350,42716
63483,42716
63505,42718
63533,42726
63559,42740
63581,42758
63600,42781
63613,42807
63622,42835
63625,42864
63622,42893
63613,42921
63600,42946
63581,42969
63559,42987
63533,43001
63505,43010
63483,43012
63350,43012
63329,43010
63301,43001
63275,42987
63253,42969
63234,42946
63220,42921
63212,42893
63209,42864
63212,42835
63220,42807
63234,42781
63253,42758
63258,42754
63265,42747
63271,42739
63274,42730
63276,42720
63276,42711
63274,42701
63271,42692
63265,42684
63258,42678
63250,42672
63242,42669
63232,42667
63222,42667
63208,42668
63208,42668
63205,42668
63173,42665
63140,42654
63109,42638
63082,42616
63060,42589
63043,42558
63033,42524
63031,42498
63031,42245
63033,42219
63043,42185
63060,42154
63082,42127
63109,42105
63140,42089
63173,42078
63208,42075
63243,42078
Z" /> 
<path style="fill:#000000; fill-opacity:1.0; 
stroke:#000000; stroke-width:0; stroke-opacity:1; 
stroke-linecap:round; stroke-linejoin:round;fill-rule:evenodd;"
d="M 66295,42721
66295,42721
66295,42721
66322,42732
66346,42749
66366,42769
66383,42794
66388,42807
66394,42820
66400,42849
66400,42878
66397,42893
66394,42907
66383,42934
66366,42958
66346,42979
66322,42995
66295,43006
66295,43006
66295,43006
66266,43012
66237,43012
66208,43006
66208,43006
66208,43006
66181,42995
66157,42979
66136,42958
66120,42934
66109,42907
66106,42893
66103,42878
66103,42849
66109,42820
66115,42807
66120,42794
66136,42769
66157,42749
66181,42732
66208,42721
66208,42721
66208,42721
66237,42716
66266,42716
66295,42721
Z" /> 
<path style="fill:#000000; fill-opacity:1.0; 
stroke:#000000; stroke-width:0; stroke-opacity:1; 
stroke-linecap:round; stroke-linejoin:round;fill-rule:evenodd;"
d="M 66495,42078
66528,42089
66559,42105
66586,42127
66608,42154
66625,42185
66635,42219
66638,42245
66638,42498
66635,42524
66625,42558
66608,42589
66586,42616
66559,42638
66528,42654
66495,42665
66460,42668
66425,42665
66392,42654
66361,42638
66334,42616
66312,42589
66295,42558
66285,42524
66283,42498
66283,42245
66285,42219
66295,42185
66312,42154
66334,42127
66361,42105
66392,42089
66425,42078
66460,42075
66495,42078
Z" /> 
<path style="fill:#000000; fill-opacity:1.0; 
stroke:#000000; stroke-width:0; stroke-opacity:1; 
stroke-linecap:round; stroke-linejoin:round;fill-rule:evenodd;"
d="M 44953,42244
44966,42249
44978,42255
44989,42264
44998,42275
45005,42287
45009,42301
45010,42317
45010,42583
45009,42599
45005,42613
44998,42625
44989,42636
44978,42645
44966,42651
44953,42655
44936,42657
44700,42657
44683,42655
44670,42651
44657,42645
44647,42636
44638,42625
44631,42613
44627,42599
44626,42583
44626,42317
44627,42301
44631,42287
44638,42275
44647,42264
44657,42255
44670,42249
44683,42244
44700,42243
44936,42243
44953,42244
Z" /> 
<path style="fill:#000000; fill-opacity:1.0; 
stroke:#000000; stroke-width:0; stroke-opacity:1; 
stroke-linecap:round; stroke-linejoin:round;fill-rule:evenodd;"
d="M 45573,42244
45586,42249
45598,42255
45609,42264
45618,42275
45625,42287
45629,42301
45630,42317
45630,42583
45629,42599
45625,42613
45618,42625
45609,42636
45598,42645
45586,42651
45573,42655
45556,42657
45320,42657
45303,42655
45290,42651
45278,42645
45267,42636
45258,42625
45251,42613
45247,42599
45246,42583
45246,42317
45247,42301
45251,42287
45258,42275
45267,42264
45278,42255
45290,42249
45303,42244
45320,42243
45556,42243
45573,42244
Z" /> 
<path style="fill:#000000; fill-opacity:1.0; 
stroke:#000000; stroke-width:0; stroke-opacity:1; 
stroke-linecap:round; stroke-linejoin:round;fill-rule:evenodd;"
d="M 49421,40006
49422,40016
49425,40025
49429,40034
49436,40041
49443,40047
49452,40052
49461,40055
49470,40056
49480,40055
49489,40052
49498,40047
49505,40041
49511,40034
49514,40029
49523,40012
49550,39979
49583,39952
49611,39937
49621,39932
49662,39920
49694,39916
49715,39916
49747,39920
49788,39932
49798,39937
49825,39952
49858,39979
49885,40012
49900,40039
49906,40050
49918,40091
49922,40133
49918,40176
49906,40217
49905,40217
49885,40254
49858,40287
49825,40315
49798,40329
49788,40335
49783,40336
49774,40340
49766,40345
49759,40352
49754,40360
49750,40369
49748,40379
49748,40388
49750,40398
49754,40407
49759,40415
49766,40421
49774,40427
49783,40430
49788,40432
49798,40438
49825,40452
49858,40479
49885,40512
49900,40539
49906,40550
49918,40591
49922,40633
49918,40676
49906,40717
49902,40723
49885,40754
49858,40787
49825,40815
49798,40829
49788,40835
49783,40836
49774,40840
49766,40845
49759,40852
49754,40860
49750,40869
49748,40879
49748,40888
49750,40898
49754,40907
49759,40915
49766,40921
49774,40927
49783,40930
49788,40932
49795,40936
49825,40952
49858,40979
49885,41012
49895,41030
49906,41050
49918,41091
49922,41133
49918,41176
49906,41217
49906,41217
49885,41254
49858,41287
49825,41315
49801,41328
49788,41335
49783,41336
49774,41340
49766,41345
49759,41352
49754,41360
49750,41369
49748,41379
49748,41388
49750,41398
49754,41407
49759,41415
49766,41421
49774,41427
49783,41430
49788,41432
49792,41434
49825,41452
49858,41479
49885,41512
49900,41539
49906,41550
49918,41591
49922,41633
49918,41676
49906,41717
49906,41717
49885,41754
49858,41787
49825,41815
49798,41829
49788,41835
49783,41836
49774,41840
49766,41845
49759,41852
49754,41860
49750,41869
49748,41879
49748,41888
49750,41898
49754,41907
49759,41915
49766,41921
49774,41927
49783,41930
49788,41932
49798,41938
49825,41952
49858,41979
49885,42012
49900,42039
49906,42050
49918,42091
49922,42133
49918,42176
49906,42217
49906,42217
49885,42254
49858,42287
49825,42315
49798,42329
49788,42335
49747,42347
49715,42350
49694,42350
49662,42347
49621,42335
49610,42329
49583,42315
49550,42287
49523,42254
49503,42217
49503,42217
49501,42212
49498,42203
49492,42195
49485,42188
49477,42183
49469,42179
49459,42177
49449,42177
49440,42179
49431,42183
49423,42188
49416,42195
49411,42203
49407,42212
49406,42217
49406,42217
49385,42254
49358,42287
49325,42315
49298,42329
49288,42335
49247,42347
49215,42350
49194,42350
49162,42347
49121,42335
49110,42329
49083,42315
49050,42287
49023,42254
49003,42217
49003,42217
48990,42176
48986,42133
48990,42091
49003,42050
49009,42039
49023,42012
49050,41979
49083,41952
49110,41938
49121,41932
49126,41930
49135,41927
49143,41921
49150,41915
49155,41907
49159,41898
49161,41888
49161,41879
49161,41879
49248,41879
49248,41888
49250,41898
49254,41907
49259,41915
49266,41921
49274,41927
49283,41930
49288,41932
49298,41938
49325,41952
49358,41979
49385,42012
49400,42039
49406,42050
49407,42055
49411,42064
49416,42072
49423,42079
49431,42084
49440,42088
49449,42090
49459,42090
49469,42088
49477,42084
49485,42079
49492,42072
49498,42064
49501,42055
49503,42050
49509,42039
49523,42012
49550,41979
49583,41952
49610,41938
49621,41932
49626,41930
49635,41927
49643,41921
49650,41915
49655,41907
49659,41898
49661,41888
49661,41879
49659,41869
49655,41860
49650,41852
49643,41845
49635,41840
49626,41836
49621,41835
49610,41829
49583,41815
49550,41787
49523,41754
49503,41717
49503,41717
49501,41712
49498,41703
49492,41695
49485,41688
49477,41683
49469,41679
49459,41677
49449,41677
49440,41679
49431,41683
49423,41688
49416,41695
49411,41703
49407,41712
49406,41717
49406,41717
49385,41754
49358,41787
49325,41815
49298,41829
49288,41835
49283,41836
49274,41840
49266,41845
49259,41852
49254,41860
49250,41869
49248,41879
49161,41879
49159,41869
49155,41860
49150,41852
49143,41845
49135,41840
49126,41836
49121,41835
49110,41829
49083,41815
49050,41787
49023,41754
49003,41717
49003,41717
48990,41676
48986,41633
48990,41591
49003,41550
49009,41539
49023,41512
49050,41479
49083,41452
49116,41434
49121,41432
49126,41430
49135,41427
49143,41421
49150,41415
49155,41407
49159,41398
49161,41388
49161,41379
49161,41379
49248,41379
49248,41388
49250,41398
49254,41407
49259,41415
49266,41421
49274,41427
49283,41430
49288,41432
49292,41434
49325,41452
49358,41479
49385,41512
49400,41539
49406,41550
49407,41555
49411,41564
49416,41572
49423,41579
49431,41584
49440,41588
49449,41590
49459,41590
49469,41588
49477,41584
49485,41579
49492,41572
49498,41564
49501,41555
49503,41550
49509,41539
49523,41512
49550,41479
49583,41452
49616,41434
49621,41432
49626,41430
49635,41427
49643,41421
49650,41415
49655,41407
49659,41398
49661,41388
49661,41379
49659,41369
49655,41360
49650,41352
49643,41345
49635,41340
49626,41336
49621,41335
49607,41328
49583,41315
49550,41287
49523,41254
49503,41217
49503,41217
49501,41212
49498,41203
49492,41195
49485,41188
49477,41183
49469,41179
49459,41177
49449,41177
49440,41179
49431,41183
49423,41188
49416,41195
49411,41203
49407,41212
49406,41217
49406,41217
49385,41254
49358,41287
49325,41315
49301,41328
49288,41335
49283,41336
49274,41340
49266,41345
49259,41352
49254,41360
49250,41369
49248,41379
49161,41379
49159,41369
49155,41360
49150,41352
49143,41345
49135,41340
49126,41336
49121,41335
49107,41328
49083,41315
49050,41287
49023,41254
49003,41217
49003,41217
48990,41176
48986,41133
48990,41091
49003,41050
49013,41030
49023,41012
49050,40979
49083,40952
49113,40936
49121,40932
49126,40930
49135,40927
49143,40921
49150,40915
49155,40907
49159,40898
49161,40888
49161,40879
49161,40879
49248,40879
49248,40888
49250,40898
49254,40907
49259,40915
49266,40921
49274,40927
49283,40930
49288,40932
49295,40936
49325,40952
49358,40979
49385,41012
49395,41030
49406,41050
49407,41055
49411,41064
49416,41072
49423,41079
49431,41084
49440,41088
49449,41090
49459,41090
49469,41088
49477,41084
49485,41079
49492,41072
49498,41064
49501,41055
49503,41050
49513,41030
49523,41012
49550,40979
49583,40952
49613,40936
49621,40932
49626,40930
49635,40927
49643,40921
49650,40915
49655,40907
49659,40898
49661,40888
49661,40879
49659,40869
49655,40860
49650,40852
49643,40845
49635,40840
49626,40836
49621,40835
49610,40829
49583,40815
49550,40787
49523,40754
49506,40723
49503,40717
49501,40712
49498,40703
49492,40695
49485,40688
49477,40683
49469,40679
49459,40677
49449,40677
49440,40679
49431,40683
49423,40688
49416,40695
49411,40703
49407,40712
49406,40717
49402,40723
49385,40754
49358,40787
49325,40815
49298,40829
49288,40835
49283,40836
49274,40840
49266,40845
49259,40852
49254,40860
49250,40869
49248,40879
49161,40879
49159,40869
49155,40860
49150,40852
49143,40845
49135,40840
49126,40836
49121,40835
49110,40829
49083,40815
49050,40787
49023,40754
49006,40723
49003,40717
48990,40676
48986,40633
48990,40591
49003,40550
49009,40539
49023,40512
49050,40479
49083,40452
49083,40452
49083,40452
49100,40443
49108,40438
49115,40431
49121,40423
49124,40414
49126,40404
49126,40399
49282,40399
49283,40409
49286,40418
49290,40427
49296,40434
49304,40440
49308,40443
49325,40452
49325,40452
49325,40452
49358,40479
49385,40512
49400,40539
49406,40550
49407,40555
49411,40564
49416,40572
49423,40579
49431,40584
49440,40588
49449,40590
49459,40590
49469,40588
49477,40584
49485,40579
49492,40572
49498,40564
49501,40555
49503,40550
49509,40539
49523,40512
49550,40479
49583,40452
49610,40438
49621,40432
49626,40430
49635,40427
49643,40421
49650,40415
49655,40407
49659,40398
49661,40388
49661,40379
49659,40369
49655,40360
49650,40352
49643,40345
49635,40340
49626,40336
49621,40335
49610,40329
49583,40315
49550,40287
49523,40254
49519,40246
49514,40237
49508,40229
49502,40222
49494,40217
49485,40213
49475,40211
49466,40211
49456,40213
49447,40217
49439,40222
49432,40229
49427,40237
49423,40246
49421,40256
49421,40260
49421,40350
49331,40350
49322,40351
49312,40354
49304,40359
49296,40365
49290,40372
49286,40381
49283,40390
49282,40399
49126,40399
49126,40395
49124,40385
49121,40376
49115,40368
49108,40361
49100,40356
49091,40352
49082,40351
49077,40350
48987,40350
48987,39916
49421,39916
49421,40006
Z" /> 
<path style="fill:#000000; fill-opacity:1.0; 
stroke:#000000; stroke-width:0; stroke-opacity:1; 
stroke-linecap:round; stroke-linejoin:round;fill-rule:evenodd;"
d="M 45197,41864
44960,41864
44960,41576
45197,41576
45197,41864
Z" /> 
<path style="fill:#000000; fill-opacity:1.0; 
stroke:#000000; stroke-width:0; stroke-opacity:1; 
stroke-linecap:round; stroke-linejoin:round;fill-rule:evenodd;"
d="M 44831,41860
44543,41860
44543,40796
44831,40796
44831,41860
Z" /> 
<path style="fill:#000000; fill-opacity:1.0; 
stroke:#000000; stroke-width:0; stroke-opacity:1; 
stroke-linecap:round; stroke-linejoin:round;fill-rule:evenodd;"
d="M 45615,41860
45326,41860
45326,40796
45615,40796
45615,41860
Z" /> 
<path style="fill:#000000; fill-opacity:1.0; 
stroke:#000000; stroke-width:0; stroke-opacity:1; 
stroke-linecap:round; stroke-linejoin:round;fill-rule:evenodd;"
d="M 43742,41378
43755,41382
43768,41389
43778,41398
43787,41409
43794,41421
43798,41434
43800,41451
43800,41687
43798,41704
43794,41717
43787,41729
43778,41740
43768,41749
43755,41756
43742,41760
43726,41761
43459,41761
43443,41760
43430,41756
43417,41749
43407,41740
43398,41729
43391,41717
43387,41704
43385,41687
43385,41451
43387,41434
43391,41421
43398,41409
43407,41398
43417,41389
43430,41382
43443,41378
43459,41377
43726,41377
43742,41378
Z" /> 
<path style="fill:#000000; fill-opacity:1.0; 
stroke:#000000; stroke-width:0; stroke-opacity:1; 
stroke-linecap:round; stroke-linejoin:round;fill-rule:evenodd;"
d="M 46724,41364
46738,41368
46750,41374
46761,41383
46770,41394
46776,41406
46780,41420
46782,41436
46782,41673
46780,41689
46776,41702
46770,41715
46761,41726
46750,41734
46738,41741
46724,41745
46708,41747
46442,41747
46425,41745
46412,41741
46400,41734
46389,41726
46380,41715
46373,41702
46369,41689
46368,41673
46368,41436
46369,41420
46373,41406
46380,41394
46389,41383
46400,41374
46412,41368
46425,41364
46442,41362
46708,41362
46724,41364
Z" /> 
<path style="fill:#000000; fill-opacity:1.0; 
stroke:#000000; stroke-width:0; stroke-opacity:1; 
stroke-linecap:round; stroke-linejoin:round;fill-rule:evenodd;"
d="M 44255,41098
44263,41101
44270,41105
44277,41110
44282,41117
44286,41124
44289,41132
44290,41143
44290,41324
44289,41335
44286,41343
44282,41350
44277,41357
44270,41362
44263,41366
44255,41369
44244,41370
44044,41370
44033,41369
44025,41366
44017,41362
44011,41357
44005,41350
44001,41343
43999,41335
43998,41324
43998,41143
43999,41132
44001,41124
44005,41117
44011,41110
44017,41105
44025,41101
44033,41098
44044,41097
44244,41097
44255,41098
Z" /> 
<path style="fill:#000000; fill-opacity:1.0; 
stroke:#000000; stroke-width:0; stroke-opacity:1; 
stroke-linecap:round; stroke-linejoin:round;fill-rule:evenodd;"
d="M 46144,41088
46153,41091
46160,41095
46167,41100
46172,41107
46176,41114
46178,41122
46179,41133
46179,41314
46178,41325
46176,41333
46172,41340
46167,41347
46160,41352
46153,41356
46144,41359
46134,41360
45933,41360
45922,41359
45914,41356
45907,41352
45900,41347
45895,41340
45891,41333
45888,41325
45887,41314
45887,41133
45888,41122
45891,41114
45895,41107
45900,41100
45907,41095
45914,41091
45922,41088
45933,41087
46134,41087
46144,41088
Z" /> 
<path style="fill:#000000; fill-opacity:1.0; 
stroke:#000000; stroke-width:0; stroke-opacity:1; 
stroke-linecap:round; stroke-linejoin:round;fill-rule:evenodd;"
d="M 43742,40758
43755,40762
43768,40769
43778,40778
43787,40789
43794,40801
43798,40814
43800,40831
43800,41067
43798,41084
43794,41097
43787,41109
43778,41120
43768,41129
43755,41136
43742,41140
43726,41141
43459,41141
43443,41140
43430,41136
43417,41129
43407,41120
43398,41109
43391,41097
43387,41084
43385,41067
43385,40831
43387,40814
43391,40801
43398,40789
43407,40778
43417,40769
43430,40762
43443,40758
43459,40757
43726,40757
43742,40758
Z" /> 
<path style="fill:#000000; fill-opacity:1.0; 
stroke:#000000; stroke-width:0; stroke-opacity:1; 
stroke-linecap:round; stroke-linejoin:round;fill-rule:evenodd;"
d="M 46724,40744
46738,40748
46750,40754
46761,40763
46770,40774
46776,40786
46780,40800
46782,40816
46782,41053
46780,41069
46776,41082
46770,41095
46761,41105
46750,41114
46738,41121
46724,41125
46708,41127
46442,41127
46425,41125
46412,41121
46400,41114
46389,41105
46380,41095
46373,41082
46369,41069
46368,41053
46368,40816
46369,40800
46373,40786
46380,40774
46389,40763
46400,40754
46412,40748
46425,40744
46442,40742
46708,40742
46724,40744
Z" /> 
<path style="fill:#000000; fill-opacity:1.0; 
stroke:#000000; stroke-width:0; stroke-opacity:1; 
stroke-linecap:round; stroke-linejoin:round;fill-rule:evenodd;"
d="M 45197,41080
44960,41080
44960,40792
45197,40792
45197,41080
Z" /> 
<path style="fill:#000000; fill-opacity:1.0; 
stroke:#000000; stroke-width:0; stroke-opacity:1; 
stroke-linecap:round; stroke-linejoin:round;fill-rule:evenodd;"
d="M 44255,40716
44263,40719
44270,40723
44277,40728
44282,40735
44286,40742
44289,40750
44290,40761
44290,40942
44289,40953
44286,40961
44282,40968
44277,40975
44270,40980
44263,40984
44255,40987
44244,40988
44044,40988
44033,40987
44025,40984
44017,40980
44011,40975
44005,40968
44001,40961
43999,40953
43998,40942
43998,40761
43999,40750
44001,40742
44005,40735
44011,40728
44017,40723
44025,40719
44033,40716
44044,40715
44244,40715
44255,40716
Z" /> 
<path style="fill:#000000; fill-opacity:1.0; 
stroke:#000000; stroke-width:0; stroke-opacity:1; 
stroke-linecap:round; stroke-linejoin:round;fill-rule:evenodd;"
d="M 46144,40707
46153,40709
46160,40713
46167,40718
46172,40725
46176,40732
46178,40741
46179,40751
46179,40932
46178,40943
46176,40951
46172,40958
46167,40965
46160,40970
46153,40974
46144,40977
46134,40978
45933,40978
45922,40977
45914,40974
45907,40970
45900,40965
45895,40958
45891,40951
45888,40943
45887,40932
45887,40751
45888,40741
45891,40732
45895,40725
45900,40718
45907,40713
45914,40709
45922,40707
45933,40705
46134,40705
46144,40707
Z" /> 
<path style="fill:#000000; fill-opacity:1.0; 
stroke:#000000; stroke-width:0; stroke-opacity:1; 
stroke-linecap:round; stroke-linejoin:round;fill-rule:evenodd;"
d="M 45578,40346
45586,40349
45593,40353
45600,40358
45605,40365
45609,40372
45612,40380
45613,40391
45613,40591
45612,40602
45609,40610
45605,40618
45600,40624
45593,40630
45586,40634
45578,40636
45567,40637
45386,40637
45375,40636
45367,40634
45360,40630
45353,40624
45348,40618
45344,40610
45341,40602
45340,40591
45340,40391
45341,40380
45344,40372
45348,40365
45353,40358
45360,40353
45367,40349
45375,40346
45386,40345
45567,40345
45578,40346
Z" /> 
<path style="fill:#000000; fill-opacity:1.0; 
stroke:#000000; stroke-width:0; stroke-opacity:1; 
stroke-linecap:round; stroke-linejoin:round;fill-rule:evenodd;"
d="M 45196,40346
45204,40349
45211,40353
45218,40358
45223,40365
45227,40372
45230,40380
45231,40391
45231,40591
45230,40602
45227,40610
45223,40618
45218,40624
45211,40630
45204,40634
45196,40636
45185,40637
45004,40637
44993,40636
44985,40634
44978,40630
44971,40624
44966,40618
44962,40610
44959,40602
44958,40591
44958,40391
44959,40380
44962,40372
44966,40365
44971,40358
44978,40353
44985,40349
44993,40346
45004,40345
45185,40345
45196,40346
Z" /> 
<path style="fill:#000000; fill-opacity:1.0; 
stroke:#000000; stroke-width:0; stroke-opacity:1; 
stroke-linecap:round; stroke-linejoin:round;fill-rule:evenodd;"
d="M 66637,39736
66670,39746
66701,39763
66728,39785
66750,39812
66767,39843
66777,39876
66779,39902
66779,40156
66777,40182
66767,40215
66750,40246
66728,40273
66701,40295
66670,40312
66637,40322
66602,40326
66567,40322
66534,40312
66503,40295
66476,40273
66454,40246
66437,40215
66427,40182
66424,40156
66424,39902
66427,39876
66437,39843
66454,39812
66476,39785
66503,39763
66534,39746
66567,39736
66602,39732
66637,39736
Z" /> 
<path style="fill:#000000; fill-opacity:1.0; 
stroke:#000000; stroke-width:0; stroke-opacity:1; 
stroke-linecap:round; stroke-linejoin:round;fill-rule:evenodd;"
d="M 63101,39736
63135,39746
63166,39763
63193,39785
63215,39812
63231,39843
63241,39876
63244,39902
63244,40156
63241,40182
63231,40215
63215,40246
63193,40273
63166,40295
63135,40312
63101,40322
63066,40326
63032,40322
62998,40312
62967,40295
62940,40273
62918,40246
62902,40215
62891,40182
62889,40156
62889,39902
62891,39876
62902,39843
62918,39812
62940,39785
62967,39763
62998,39746
63032,39736
63066,39732
63101,39736
Z" /> 
<path style="fill:#000000; fill-opacity:1.0; 
stroke:#000000; stroke-width:0; stroke-opacity:1; 
stroke-linecap:round; stroke-linejoin:round;fill-rule:evenodd;"
d="M 45568,39884
45576,39886
45583,39890
45590,39896
45595,39902
45599,39910
45602,39918
45603,39929
45603,40129
45602,40140
45599,40148
45595,40155
45590,40162
45583,40167
45576,40171
45568,40174
45557,40175
45376,40175
45365,40174
45357,40171
45350,40167
45343,40162
45338,40155
45334,40148
45331,40140
45330,40129
45330,39929
45331,39918
45334,39910
45338,39902
45343,39896
45350,39890
45357,39886
45365,39884
45376,39883
45557,39883
45568,39884
Z" /> 
<path style="fill:#000000; fill-opacity:1.0; 
stroke:#000000; stroke-width:0; stroke-opacity:1; 
stroke-linecap:round; stroke-linejoin:round;fill-rule:evenodd;"
d="M 45186,39884
45194,39886
45201,39890
45208,39896
45213,39902
45217,39910
45220,39918
45221,39929
45221,40129
45220,40140
45217,40148
45213,40155
45208,40162
45201,40167
45194,40171
45186,40174
45175,40175
44994,40175
44983,40174
44975,40171
44968,40167
44961,40162
44956,40155
44952,40148
44949,40140
44948,40129
44948,39929
44949,39918
44952,39910
44956,39902
44961,39896
44968,39890
44975,39886
44983,39884
44994,39883
45175,39883
45186,39884
Z" /> 
</g> 
</svg>
