G04 #@! TF.GenerationSoftware,KiCad,Pcbnew,5.1.2-f72e74a~84~ubuntu18.04.1*
G04 #@! TF.CreationDate,2019-06-03T11:10:06+01:00*
G04 #@! TF.ProjectId,HealthMonitor,4865616c-7468-44d6-9f6e-69746f722e6b,rev?*
G04 #@! TF.SameCoordinates,Original*
G04 #@! TF.FileFunction,Legend,Bot*
G04 #@! TF.FilePolarity,Positive*
%FSLAX46Y46*%
G04 Gerber Fmt 4.6, Leading zero omitted, Abs format (unit mm)*
G04 Created by KiCad (PCBNEW 5.1.2-f72e74a~84~ubuntu18.04.1) date 2019-06-03 11:10:06*
%MOMM*%
%LPD*%
G04 APERTURE LIST*
%ADD10C,0.120000*%
%ADD11C,0.127000*%
%ADD12C,0.200000*%
%ADD13C,0.752000*%
%ADD14O,1.052000X0.752000*%
%ADD15O,0.902000X1.502000*%
%ADD16R,1.102000X1.102000*%
%ADD17C,0.100000*%
%ADD18C,2.702000*%
%ADD19C,0.352000*%
%ADD20C,1.102000*%
%ADD21C,0.692000*%
%ADD22C,0.977000*%
%ADD23O,1.102000X1.102000*%
%ADD24R,0.732000X0.602000*%
%ADD25R,0.602000X0.732000*%
%ADD26R,1.602000X2.702000*%
G04 APERTURE END LIST*
D10*
X116510001Y-116423919D02*
X116985001Y-116423919D01*
X116985001Y-116423919D02*
X116985001Y-115948919D01*
X113240001Y-112203919D02*
X112765001Y-112203919D01*
X112765001Y-112203919D02*
X112765001Y-112678919D01*
X116510001Y-112203919D02*
X116985001Y-112203919D01*
X116985001Y-112203919D02*
X116985001Y-112678919D01*
X113240001Y-116423919D02*
X112765001Y-116423919D01*
X102470000Y-127552221D02*
X102470000Y-127877779D01*
X103490000Y-127552221D02*
X103490000Y-127877779D01*
X115426198Y-108559209D02*
X113141198Y-108559209D01*
X113141198Y-108559209D02*
X113141198Y-107089209D01*
X113141198Y-107089209D02*
X115426198Y-107089209D01*
X111461198Y-103999209D02*
X111461198Y-106284209D01*
X111461198Y-106284209D02*
X109991198Y-106284209D01*
X109991198Y-106284209D02*
X109991198Y-103999209D01*
X119036198Y-103961709D02*
X119036198Y-106246709D01*
X119036198Y-106246709D02*
X117566198Y-106246709D01*
X117566198Y-106246709D02*
X117566198Y-103961709D01*
D11*
X112951198Y-106524209D02*
X114151198Y-106524209D01*
X112951198Y-103424209D02*
X114151198Y-103424209D01*
X114851198Y-106524209D02*
X116051198Y-106524209D01*
X114851198Y-103424209D02*
X116051198Y-103424209D01*
X116051198Y-103424209D02*
X116051198Y-103624209D01*
X112951198Y-103424209D02*
X112951198Y-103624209D01*
X116051198Y-106324209D02*
X116051198Y-106524209D01*
X112951198Y-106324209D02*
X112951198Y-106524209D01*
D12*
X116681198Y-103874209D02*
G75*
G03X116681198Y-103874209I-180000J0D01*
G01*
D10*
X104150000Y-129275000D02*
X108800000Y-129275000D01*
X104150000Y-126075000D02*
X108800000Y-126075000D01*
X108800000Y-126075000D02*
X108800000Y-126875000D01*
X104170000Y-119500000D02*
X108820000Y-119500000D01*
X104170000Y-116300000D02*
X108820000Y-116300000D01*
X108820000Y-116300000D02*
X108820000Y-117100000D01*
X102510000Y-117737221D02*
X102510000Y-118062779D01*
X103530000Y-117737221D02*
X103530000Y-118062779D01*
%LPC*%
D13*
X168280000Y-108875000D03*
D14*
X161080000Y-108875000D03*
D15*
X169170000Y-101675000D03*
X160190000Y-101675000D03*
X160550000Y-107625000D03*
X168810000Y-107625000D03*
D16*
X109100000Y-110930000D03*
X101010000Y-113310000D03*
D17*
G36*
X115991659Y-112964170D02*
G01*
X116016879Y-112967911D01*
X116041611Y-112974106D01*
X116065617Y-112982696D01*
X116088666Y-112993597D01*
X116110535Y-113006705D01*
X116131013Y-113021893D01*
X116149905Y-113039015D01*
X116167027Y-113057907D01*
X116182215Y-113078385D01*
X116195323Y-113100254D01*
X116206224Y-113123303D01*
X116214814Y-113147309D01*
X116221009Y-113172041D01*
X116224750Y-113197261D01*
X116226001Y-113222727D01*
X116226001Y-115405111D01*
X116224750Y-115430577D01*
X116221009Y-115455797D01*
X116214814Y-115480529D01*
X116206224Y-115504535D01*
X116195323Y-115527584D01*
X116182215Y-115549453D01*
X116167027Y-115569931D01*
X116149905Y-115588823D01*
X116131013Y-115605945D01*
X116110535Y-115621133D01*
X116088666Y-115634241D01*
X116065617Y-115645142D01*
X116041611Y-115653732D01*
X116016879Y-115659927D01*
X115991659Y-115663668D01*
X115966193Y-115664919D01*
X113783809Y-115664919D01*
X113758343Y-115663668D01*
X113733123Y-115659927D01*
X113708391Y-115653732D01*
X113684385Y-115645142D01*
X113661336Y-115634241D01*
X113639467Y-115621133D01*
X113618989Y-115605945D01*
X113600097Y-115588823D01*
X113582975Y-115569931D01*
X113567787Y-115549453D01*
X113554679Y-115527584D01*
X113543778Y-115504535D01*
X113535188Y-115480529D01*
X113528993Y-115455797D01*
X113525252Y-115430577D01*
X113524001Y-115405111D01*
X113524001Y-113222727D01*
X113525252Y-113197261D01*
X113528993Y-113172041D01*
X113535188Y-113147309D01*
X113543778Y-113123303D01*
X113554679Y-113100254D01*
X113567787Y-113078385D01*
X113582975Y-113057907D01*
X113600097Y-113039015D01*
X113618989Y-113021893D01*
X113639467Y-113006705D01*
X113661336Y-112993597D01*
X113684385Y-112982696D01*
X113708391Y-112974106D01*
X113733123Y-112967911D01*
X113758343Y-112964170D01*
X113783809Y-112962919D01*
X115966193Y-112962919D01*
X115991659Y-112964170D01*
X115991659Y-112964170D01*
G37*
D18*
X114875001Y-114313919D03*
D17*
G36*
X113321627Y-115388343D02*
G01*
X113330169Y-115389610D01*
X113338546Y-115391708D01*
X113346677Y-115394618D01*
X113354484Y-115398310D01*
X113361891Y-115402750D01*
X113368828Y-115407894D01*
X113375226Y-115413694D01*
X113381026Y-115420092D01*
X113386170Y-115427029D01*
X113390610Y-115434436D01*
X113394302Y-115442243D01*
X113397212Y-115450374D01*
X113399310Y-115458751D01*
X113400577Y-115467293D01*
X113401001Y-115475919D01*
X113401001Y-115651919D01*
X113400577Y-115660545D01*
X113399310Y-115669087D01*
X113397212Y-115677464D01*
X113394302Y-115685595D01*
X113390610Y-115693402D01*
X113386170Y-115700809D01*
X113381026Y-115707746D01*
X113375226Y-115714144D01*
X113368828Y-115719944D01*
X113361891Y-115725088D01*
X113354484Y-115729528D01*
X113346677Y-115733220D01*
X113338546Y-115736130D01*
X113330169Y-115738228D01*
X113321627Y-115739495D01*
X113313001Y-115739919D01*
X112562001Y-115739919D01*
X112553375Y-115739495D01*
X112544833Y-115738228D01*
X112536456Y-115736130D01*
X112528325Y-115733220D01*
X112520518Y-115729528D01*
X112513111Y-115725088D01*
X112506174Y-115719944D01*
X112499776Y-115714144D01*
X112493976Y-115707746D01*
X112488832Y-115700809D01*
X112484392Y-115693402D01*
X112480700Y-115685595D01*
X112477790Y-115677464D01*
X112475692Y-115669087D01*
X112474425Y-115660545D01*
X112474001Y-115651919D01*
X112474001Y-115475919D01*
X112474425Y-115467293D01*
X112475692Y-115458751D01*
X112477790Y-115450374D01*
X112480700Y-115442243D01*
X112484392Y-115434436D01*
X112488832Y-115427029D01*
X112493976Y-115420092D01*
X112499776Y-115413694D01*
X112506174Y-115407894D01*
X112513111Y-115402750D01*
X112520518Y-115398310D01*
X112528325Y-115394618D01*
X112536456Y-115391708D01*
X112544833Y-115389610D01*
X112553375Y-115388343D01*
X112562001Y-115387919D01*
X113313001Y-115387919D01*
X113321627Y-115388343D01*
X113321627Y-115388343D01*
G37*
D19*
X112937501Y-115563919D03*
D17*
G36*
X113321627Y-114888343D02*
G01*
X113330169Y-114889610D01*
X113338546Y-114891708D01*
X113346677Y-114894618D01*
X113354484Y-114898310D01*
X113361891Y-114902750D01*
X113368828Y-114907894D01*
X113375226Y-114913694D01*
X113381026Y-114920092D01*
X113386170Y-114927029D01*
X113390610Y-114934436D01*
X113394302Y-114942243D01*
X113397212Y-114950374D01*
X113399310Y-114958751D01*
X113400577Y-114967293D01*
X113401001Y-114975919D01*
X113401001Y-115151919D01*
X113400577Y-115160545D01*
X113399310Y-115169087D01*
X113397212Y-115177464D01*
X113394302Y-115185595D01*
X113390610Y-115193402D01*
X113386170Y-115200809D01*
X113381026Y-115207746D01*
X113375226Y-115214144D01*
X113368828Y-115219944D01*
X113361891Y-115225088D01*
X113354484Y-115229528D01*
X113346677Y-115233220D01*
X113338546Y-115236130D01*
X113330169Y-115238228D01*
X113321627Y-115239495D01*
X113313001Y-115239919D01*
X112562001Y-115239919D01*
X112553375Y-115239495D01*
X112544833Y-115238228D01*
X112536456Y-115236130D01*
X112528325Y-115233220D01*
X112520518Y-115229528D01*
X112513111Y-115225088D01*
X112506174Y-115219944D01*
X112499776Y-115214144D01*
X112493976Y-115207746D01*
X112488832Y-115200809D01*
X112484392Y-115193402D01*
X112480700Y-115185595D01*
X112477790Y-115177464D01*
X112475692Y-115169087D01*
X112474425Y-115160545D01*
X112474001Y-115151919D01*
X112474001Y-114975919D01*
X112474425Y-114967293D01*
X112475692Y-114958751D01*
X112477790Y-114950374D01*
X112480700Y-114942243D01*
X112484392Y-114934436D01*
X112488832Y-114927029D01*
X112493976Y-114920092D01*
X112499776Y-114913694D01*
X112506174Y-114907894D01*
X112513111Y-114902750D01*
X112520518Y-114898310D01*
X112528325Y-114894618D01*
X112536456Y-114891708D01*
X112544833Y-114889610D01*
X112553375Y-114888343D01*
X112562001Y-114887919D01*
X113313001Y-114887919D01*
X113321627Y-114888343D01*
X113321627Y-114888343D01*
G37*
D19*
X112937501Y-115063919D03*
D17*
G36*
X113321627Y-114388343D02*
G01*
X113330169Y-114389610D01*
X113338546Y-114391708D01*
X113346677Y-114394618D01*
X113354484Y-114398310D01*
X113361891Y-114402750D01*
X113368828Y-114407894D01*
X113375226Y-114413694D01*
X113381026Y-114420092D01*
X113386170Y-114427029D01*
X113390610Y-114434436D01*
X113394302Y-114442243D01*
X113397212Y-114450374D01*
X113399310Y-114458751D01*
X113400577Y-114467293D01*
X113401001Y-114475919D01*
X113401001Y-114651919D01*
X113400577Y-114660545D01*
X113399310Y-114669087D01*
X113397212Y-114677464D01*
X113394302Y-114685595D01*
X113390610Y-114693402D01*
X113386170Y-114700809D01*
X113381026Y-114707746D01*
X113375226Y-114714144D01*
X113368828Y-114719944D01*
X113361891Y-114725088D01*
X113354484Y-114729528D01*
X113346677Y-114733220D01*
X113338546Y-114736130D01*
X113330169Y-114738228D01*
X113321627Y-114739495D01*
X113313001Y-114739919D01*
X112562001Y-114739919D01*
X112553375Y-114739495D01*
X112544833Y-114738228D01*
X112536456Y-114736130D01*
X112528325Y-114733220D01*
X112520518Y-114729528D01*
X112513111Y-114725088D01*
X112506174Y-114719944D01*
X112499776Y-114714144D01*
X112493976Y-114707746D01*
X112488832Y-114700809D01*
X112484392Y-114693402D01*
X112480700Y-114685595D01*
X112477790Y-114677464D01*
X112475692Y-114669087D01*
X112474425Y-114660545D01*
X112474001Y-114651919D01*
X112474001Y-114475919D01*
X112474425Y-114467293D01*
X112475692Y-114458751D01*
X112477790Y-114450374D01*
X112480700Y-114442243D01*
X112484392Y-114434436D01*
X112488832Y-114427029D01*
X112493976Y-114420092D01*
X112499776Y-114413694D01*
X112506174Y-114407894D01*
X112513111Y-114402750D01*
X112520518Y-114398310D01*
X112528325Y-114394618D01*
X112536456Y-114391708D01*
X112544833Y-114389610D01*
X112553375Y-114388343D01*
X112562001Y-114387919D01*
X113313001Y-114387919D01*
X113321627Y-114388343D01*
X113321627Y-114388343D01*
G37*
D19*
X112937501Y-114563919D03*
D17*
G36*
X113321627Y-113888343D02*
G01*
X113330169Y-113889610D01*
X113338546Y-113891708D01*
X113346677Y-113894618D01*
X113354484Y-113898310D01*
X113361891Y-113902750D01*
X113368828Y-113907894D01*
X113375226Y-113913694D01*
X113381026Y-113920092D01*
X113386170Y-113927029D01*
X113390610Y-113934436D01*
X113394302Y-113942243D01*
X113397212Y-113950374D01*
X113399310Y-113958751D01*
X113400577Y-113967293D01*
X113401001Y-113975919D01*
X113401001Y-114151919D01*
X113400577Y-114160545D01*
X113399310Y-114169087D01*
X113397212Y-114177464D01*
X113394302Y-114185595D01*
X113390610Y-114193402D01*
X113386170Y-114200809D01*
X113381026Y-114207746D01*
X113375226Y-114214144D01*
X113368828Y-114219944D01*
X113361891Y-114225088D01*
X113354484Y-114229528D01*
X113346677Y-114233220D01*
X113338546Y-114236130D01*
X113330169Y-114238228D01*
X113321627Y-114239495D01*
X113313001Y-114239919D01*
X112562001Y-114239919D01*
X112553375Y-114239495D01*
X112544833Y-114238228D01*
X112536456Y-114236130D01*
X112528325Y-114233220D01*
X112520518Y-114229528D01*
X112513111Y-114225088D01*
X112506174Y-114219944D01*
X112499776Y-114214144D01*
X112493976Y-114207746D01*
X112488832Y-114200809D01*
X112484392Y-114193402D01*
X112480700Y-114185595D01*
X112477790Y-114177464D01*
X112475692Y-114169087D01*
X112474425Y-114160545D01*
X112474001Y-114151919D01*
X112474001Y-113975919D01*
X112474425Y-113967293D01*
X112475692Y-113958751D01*
X112477790Y-113950374D01*
X112480700Y-113942243D01*
X112484392Y-113934436D01*
X112488832Y-113927029D01*
X112493976Y-113920092D01*
X112499776Y-113913694D01*
X112506174Y-113907894D01*
X112513111Y-113902750D01*
X112520518Y-113898310D01*
X112528325Y-113894618D01*
X112536456Y-113891708D01*
X112544833Y-113889610D01*
X112553375Y-113888343D01*
X112562001Y-113887919D01*
X113313001Y-113887919D01*
X113321627Y-113888343D01*
X113321627Y-113888343D01*
G37*
D19*
X112937501Y-114063919D03*
D17*
G36*
X113321627Y-113388343D02*
G01*
X113330169Y-113389610D01*
X113338546Y-113391708D01*
X113346677Y-113394618D01*
X113354484Y-113398310D01*
X113361891Y-113402750D01*
X113368828Y-113407894D01*
X113375226Y-113413694D01*
X113381026Y-113420092D01*
X113386170Y-113427029D01*
X113390610Y-113434436D01*
X113394302Y-113442243D01*
X113397212Y-113450374D01*
X113399310Y-113458751D01*
X113400577Y-113467293D01*
X113401001Y-113475919D01*
X113401001Y-113651919D01*
X113400577Y-113660545D01*
X113399310Y-113669087D01*
X113397212Y-113677464D01*
X113394302Y-113685595D01*
X113390610Y-113693402D01*
X113386170Y-113700809D01*
X113381026Y-113707746D01*
X113375226Y-113714144D01*
X113368828Y-113719944D01*
X113361891Y-113725088D01*
X113354484Y-113729528D01*
X113346677Y-113733220D01*
X113338546Y-113736130D01*
X113330169Y-113738228D01*
X113321627Y-113739495D01*
X113313001Y-113739919D01*
X112562001Y-113739919D01*
X112553375Y-113739495D01*
X112544833Y-113738228D01*
X112536456Y-113736130D01*
X112528325Y-113733220D01*
X112520518Y-113729528D01*
X112513111Y-113725088D01*
X112506174Y-113719944D01*
X112499776Y-113714144D01*
X112493976Y-113707746D01*
X112488832Y-113700809D01*
X112484392Y-113693402D01*
X112480700Y-113685595D01*
X112477790Y-113677464D01*
X112475692Y-113669087D01*
X112474425Y-113660545D01*
X112474001Y-113651919D01*
X112474001Y-113475919D01*
X112474425Y-113467293D01*
X112475692Y-113458751D01*
X112477790Y-113450374D01*
X112480700Y-113442243D01*
X112484392Y-113434436D01*
X112488832Y-113427029D01*
X112493976Y-113420092D01*
X112499776Y-113413694D01*
X112506174Y-113407894D01*
X112513111Y-113402750D01*
X112520518Y-113398310D01*
X112528325Y-113394618D01*
X112536456Y-113391708D01*
X112544833Y-113389610D01*
X112553375Y-113388343D01*
X112562001Y-113387919D01*
X113313001Y-113387919D01*
X113321627Y-113388343D01*
X113321627Y-113388343D01*
G37*
D19*
X112937501Y-113563919D03*
D17*
G36*
X113321627Y-112888343D02*
G01*
X113330169Y-112889610D01*
X113338546Y-112891708D01*
X113346677Y-112894618D01*
X113354484Y-112898310D01*
X113361891Y-112902750D01*
X113368828Y-112907894D01*
X113375226Y-112913694D01*
X113381026Y-112920092D01*
X113386170Y-112927029D01*
X113390610Y-112934436D01*
X113394302Y-112942243D01*
X113397212Y-112950374D01*
X113399310Y-112958751D01*
X113400577Y-112967293D01*
X113401001Y-112975919D01*
X113401001Y-113151919D01*
X113400577Y-113160545D01*
X113399310Y-113169087D01*
X113397212Y-113177464D01*
X113394302Y-113185595D01*
X113390610Y-113193402D01*
X113386170Y-113200809D01*
X113381026Y-113207746D01*
X113375226Y-113214144D01*
X113368828Y-113219944D01*
X113361891Y-113225088D01*
X113354484Y-113229528D01*
X113346677Y-113233220D01*
X113338546Y-113236130D01*
X113330169Y-113238228D01*
X113321627Y-113239495D01*
X113313001Y-113239919D01*
X112562001Y-113239919D01*
X112553375Y-113239495D01*
X112544833Y-113238228D01*
X112536456Y-113236130D01*
X112528325Y-113233220D01*
X112520518Y-113229528D01*
X112513111Y-113225088D01*
X112506174Y-113219944D01*
X112499776Y-113214144D01*
X112493976Y-113207746D01*
X112488832Y-113200809D01*
X112484392Y-113193402D01*
X112480700Y-113185595D01*
X112477790Y-113177464D01*
X112475692Y-113169087D01*
X112474425Y-113160545D01*
X112474001Y-113151919D01*
X112474001Y-112975919D01*
X112474425Y-112967293D01*
X112475692Y-112958751D01*
X112477790Y-112950374D01*
X112480700Y-112942243D01*
X112484392Y-112934436D01*
X112488832Y-112927029D01*
X112493976Y-112920092D01*
X112499776Y-112913694D01*
X112506174Y-112907894D01*
X112513111Y-112902750D01*
X112520518Y-112898310D01*
X112528325Y-112894618D01*
X112536456Y-112891708D01*
X112544833Y-112889610D01*
X112553375Y-112888343D01*
X112562001Y-112887919D01*
X113313001Y-112887919D01*
X113321627Y-112888343D01*
X113321627Y-112888343D01*
G37*
D19*
X112937501Y-113063919D03*
D17*
G36*
X113721627Y-111913343D02*
G01*
X113730169Y-111914610D01*
X113738546Y-111916708D01*
X113746677Y-111919618D01*
X113754484Y-111923310D01*
X113761891Y-111927750D01*
X113768828Y-111932894D01*
X113775226Y-111938694D01*
X113781026Y-111945092D01*
X113786170Y-111952029D01*
X113790610Y-111959436D01*
X113794302Y-111967243D01*
X113797212Y-111975374D01*
X113799310Y-111983751D01*
X113800577Y-111992293D01*
X113801001Y-112000919D01*
X113801001Y-112751919D01*
X113800577Y-112760545D01*
X113799310Y-112769087D01*
X113797212Y-112777464D01*
X113794302Y-112785595D01*
X113790610Y-112793402D01*
X113786170Y-112800809D01*
X113781026Y-112807746D01*
X113775226Y-112814144D01*
X113768828Y-112819944D01*
X113761891Y-112825088D01*
X113754484Y-112829528D01*
X113746677Y-112833220D01*
X113738546Y-112836130D01*
X113730169Y-112838228D01*
X113721627Y-112839495D01*
X113713001Y-112839919D01*
X113537001Y-112839919D01*
X113528375Y-112839495D01*
X113519833Y-112838228D01*
X113511456Y-112836130D01*
X113503325Y-112833220D01*
X113495518Y-112829528D01*
X113488111Y-112825088D01*
X113481174Y-112819944D01*
X113474776Y-112814144D01*
X113468976Y-112807746D01*
X113463832Y-112800809D01*
X113459392Y-112793402D01*
X113455700Y-112785595D01*
X113452790Y-112777464D01*
X113450692Y-112769087D01*
X113449425Y-112760545D01*
X113449001Y-112751919D01*
X113449001Y-112000919D01*
X113449425Y-111992293D01*
X113450692Y-111983751D01*
X113452790Y-111975374D01*
X113455700Y-111967243D01*
X113459392Y-111959436D01*
X113463832Y-111952029D01*
X113468976Y-111945092D01*
X113474776Y-111938694D01*
X113481174Y-111932894D01*
X113488111Y-111927750D01*
X113495518Y-111923310D01*
X113503325Y-111919618D01*
X113511456Y-111916708D01*
X113519833Y-111914610D01*
X113528375Y-111913343D01*
X113537001Y-111912919D01*
X113713001Y-111912919D01*
X113721627Y-111913343D01*
X113721627Y-111913343D01*
G37*
D19*
X113625001Y-112376419D03*
D17*
G36*
X114221627Y-111913343D02*
G01*
X114230169Y-111914610D01*
X114238546Y-111916708D01*
X114246677Y-111919618D01*
X114254484Y-111923310D01*
X114261891Y-111927750D01*
X114268828Y-111932894D01*
X114275226Y-111938694D01*
X114281026Y-111945092D01*
X114286170Y-111952029D01*
X114290610Y-111959436D01*
X114294302Y-111967243D01*
X114297212Y-111975374D01*
X114299310Y-111983751D01*
X114300577Y-111992293D01*
X114301001Y-112000919D01*
X114301001Y-112751919D01*
X114300577Y-112760545D01*
X114299310Y-112769087D01*
X114297212Y-112777464D01*
X114294302Y-112785595D01*
X114290610Y-112793402D01*
X114286170Y-112800809D01*
X114281026Y-112807746D01*
X114275226Y-112814144D01*
X114268828Y-112819944D01*
X114261891Y-112825088D01*
X114254484Y-112829528D01*
X114246677Y-112833220D01*
X114238546Y-112836130D01*
X114230169Y-112838228D01*
X114221627Y-112839495D01*
X114213001Y-112839919D01*
X114037001Y-112839919D01*
X114028375Y-112839495D01*
X114019833Y-112838228D01*
X114011456Y-112836130D01*
X114003325Y-112833220D01*
X113995518Y-112829528D01*
X113988111Y-112825088D01*
X113981174Y-112819944D01*
X113974776Y-112814144D01*
X113968976Y-112807746D01*
X113963832Y-112800809D01*
X113959392Y-112793402D01*
X113955700Y-112785595D01*
X113952790Y-112777464D01*
X113950692Y-112769087D01*
X113949425Y-112760545D01*
X113949001Y-112751919D01*
X113949001Y-112000919D01*
X113949425Y-111992293D01*
X113950692Y-111983751D01*
X113952790Y-111975374D01*
X113955700Y-111967243D01*
X113959392Y-111959436D01*
X113963832Y-111952029D01*
X113968976Y-111945092D01*
X113974776Y-111938694D01*
X113981174Y-111932894D01*
X113988111Y-111927750D01*
X113995518Y-111923310D01*
X114003325Y-111919618D01*
X114011456Y-111916708D01*
X114019833Y-111914610D01*
X114028375Y-111913343D01*
X114037001Y-111912919D01*
X114213001Y-111912919D01*
X114221627Y-111913343D01*
X114221627Y-111913343D01*
G37*
D19*
X114125001Y-112376419D03*
D17*
G36*
X114721627Y-111913343D02*
G01*
X114730169Y-111914610D01*
X114738546Y-111916708D01*
X114746677Y-111919618D01*
X114754484Y-111923310D01*
X114761891Y-111927750D01*
X114768828Y-111932894D01*
X114775226Y-111938694D01*
X114781026Y-111945092D01*
X114786170Y-111952029D01*
X114790610Y-111959436D01*
X114794302Y-111967243D01*
X114797212Y-111975374D01*
X114799310Y-111983751D01*
X114800577Y-111992293D01*
X114801001Y-112000919D01*
X114801001Y-112751919D01*
X114800577Y-112760545D01*
X114799310Y-112769087D01*
X114797212Y-112777464D01*
X114794302Y-112785595D01*
X114790610Y-112793402D01*
X114786170Y-112800809D01*
X114781026Y-112807746D01*
X114775226Y-112814144D01*
X114768828Y-112819944D01*
X114761891Y-112825088D01*
X114754484Y-112829528D01*
X114746677Y-112833220D01*
X114738546Y-112836130D01*
X114730169Y-112838228D01*
X114721627Y-112839495D01*
X114713001Y-112839919D01*
X114537001Y-112839919D01*
X114528375Y-112839495D01*
X114519833Y-112838228D01*
X114511456Y-112836130D01*
X114503325Y-112833220D01*
X114495518Y-112829528D01*
X114488111Y-112825088D01*
X114481174Y-112819944D01*
X114474776Y-112814144D01*
X114468976Y-112807746D01*
X114463832Y-112800809D01*
X114459392Y-112793402D01*
X114455700Y-112785595D01*
X114452790Y-112777464D01*
X114450692Y-112769087D01*
X114449425Y-112760545D01*
X114449001Y-112751919D01*
X114449001Y-112000919D01*
X114449425Y-111992293D01*
X114450692Y-111983751D01*
X114452790Y-111975374D01*
X114455700Y-111967243D01*
X114459392Y-111959436D01*
X114463832Y-111952029D01*
X114468976Y-111945092D01*
X114474776Y-111938694D01*
X114481174Y-111932894D01*
X114488111Y-111927750D01*
X114495518Y-111923310D01*
X114503325Y-111919618D01*
X114511456Y-111916708D01*
X114519833Y-111914610D01*
X114528375Y-111913343D01*
X114537001Y-111912919D01*
X114713001Y-111912919D01*
X114721627Y-111913343D01*
X114721627Y-111913343D01*
G37*
D19*
X114625001Y-112376419D03*
D17*
G36*
X115221627Y-111913343D02*
G01*
X115230169Y-111914610D01*
X115238546Y-111916708D01*
X115246677Y-111919618D01*
X115254484Y-111923310D01*
X115261891Y-111927750D01*
X115268828Y-111932894D01*
X115275226Y-111938694D01*
X115281026Y-111945092D01*
X115286170Y-111952029D01*
X115290610Y-111959436D01*
X115294302Y-111967243D01*
X115297212Y-111975374D01*
X115299310Y-111983751D01*
X115300577Y-111992293D01*
X115301001Y-112000919D01*
X115301001Y-112751919D01*
X115300577Y-112760545D01*
X115299310Y-112769087D01*
X115297212Y-112777464D01*
X115294302Y-112785595D01*
X115290610Y-112793402D01*
X115286170Y-112800809D01*
X115281026Y-112807746D01*
X115275226Y-112814144D01*
X115268828Y-112819944D01*
X115261891Y-112825088D01*
X115254484Y-112829528D01*
X115246677Y-112833220D01*
X115238546Y-112836130D01*
X115230169Y-112838228D01*
X115221627Y-112839495D01*
X115213001Y-112839919D01*
X115037001Y-112839919D01*
X115028375Y-112839495D01*
X115019833Y-112838228D01*
X115011456Y-112836130D01*
X115003325Y-112833220D01*
X114995518Y-112829528D01*
X114988111Y-112825088D01*
X114981174Y-112819944D01*
X114974776Y-112814144D01*
X114968976Y-112807746D01*
X114963832Y-112800809D01*
X114959392Y-112793402D01*
X114955700Y-112785595D01*
X114952790Y-112777464D01*
X114950692Y-112769087D01*
X114949425Y-112760545D01*
X114949001Y-112751919D01*
X114949001Y-112000919D01*
X114949425Y-111992293D01*
X114950692Y-111983751D01*
X114952790Y-111975374D01*
X114955700Y-111967243D01*
X114959392Y-111959436D01*
X114963832Y-111952029D01*
X114968976Y-111945092D01*
X114974776Y-111938694D01*
X114981174Y-111932894D01*
X114988111Y-111927750D01*
X114995518Y-111923310D01*
X115003325Y-111919618D01*
X115011456Y-111916708D01*
X115019833Y-111914610D01*
X115028375Y-111913343D01*
X115037001Y-111912919D01*
X115213001Y-111912919D01*
X115221627Y-111913343D01*
X115221627Y-111913343D01*
G37*
D19*
X115125001Y-112376419D03*
D17*
G36*
X115721627Y-111913343D02*
G01*
X115730169Y-111914610D01*
X115738546Y-111916708D01*
X115746677Y-111919618D01*
X115754484Y-111923310D01*
X115761891Y-111927750D01*
X115768828Y-111932894D01*
X115775226Y-111938694D01*
X115781026Y-111945092D01*
X115786170Y-111952029D01*
X115790610Y-111959436D01*
X115794302Y-111967243D01*
X115797212Y-111975374D01*
X115799310Y-111983751D01*
X115800577Y-111992293D01*
X115801001Y-112000919D01*
X115801001Y-112751919D01*
X115800577Y-112760545D01*
X115799310Y-112769087D01*
X115797212Y-112777464D01*
X115794302Y-112785595D01*
X115790610Y-112793402D01*
X115786170Y-112800809D01*
X115781026Y-112807746D01*
X115775226Y-112814144D01*
X115768828Y-112819944D01*
X115761891Y-112825088D01*
X115754484Y-112829528D01*
X115746677Y-112833220D01*
X115738546Y-112836130D01*
X115730169Y-112838228D01*
X115721627Y-112839495D01*
X115713001Y-112839919D01*
X115537001Y-112839919D01*
X115528375Y-112839495D01*
X115519833Y-112838228D01*
X115511456Y-112836130D01*
X115503325Y-112833220D01*
X115495518Y-112829528D01*
X115488111Y-112825088D01*
X115481174Y-112819944D01*
X115474776Y-112814144D01*
X115468976Y-112807746D01*
X115463832Y-112800809D01*
X115459392Y-112793402D01*
X115455700Y-112785595D01*
X115452790Y-112777464D01*
X115450692Y-112769087D01*
X115449425Y-112760545D01*
X115449001Y-112751919D01*
X115449001Y-112000919D01*
X115449425Y-111992293D01*
X115450692Y-111983751D01*
X115452790Y-111975374D01*
X115455700Y-111967243D01*
X115459392Y-111959436D01*
X115463832Y-111952029D01*
X115468976Y-111945092D01*
X115474776Y-111938694D01*
X115481174Y-111932894D01*
X115488111Y-111927750D01*
X115495518Y-111923310D01*
X115503325Y-111919618D01*
X115511456Y-111916708D01*
X115519833Y-111914610D01*
X115528375Y-111913343D01*
X115537001Y-111912919D01*
X115713001Y-111912919D01*
X115721627Y-111913343D01*
X115721627Y-111913343D01*
G37*
D19*
X115625001Y-112376419D03*
D17*
G36*
X116221627Y-111913343D02*
G01*
X116230169Y-111914610D01*
X116238546Y-111916708D01*
X116246677Y-111919618D01*
X116254484Y-111923310D01*
X116261891Y-111927750D01*
X116268828Y-111932894D01*
X116275226Y-111938694D01*
X116281026Y-111945092D01*
X116286170Y-111952029D01*
X116290610Y-111959436D01*
X116294302Y-111967243D01*
X116297212Y-111975374D01*
X116299310Y-111983751D01*
X116300577Y-111992293D01*
X116301001Y-112000919D01*
X116301001Y-112751919D01*
X116300577Y-112760545D01*
X116299310Y-112769087D01*
X116297212Y-112777464D01*
X116294302Y-112785595D01*
X116290610Y-112793402D01*
X116286170Y-112800809D01*
X116281026Y-112807746D01*
X116275226Y-112814144D01*
X116268828Y-112819944D01*
X116261891Y-112825088D01*
X116254484Y-112829528D01*
X116246677Y-112833220D01*
X116238546Y-112836130D01*
X116230169Y-112838228D01*
X116221627Y-112839495D01*
X116213001Y-112839919D01*
X116037001Y-112839919D01*
X116028375Y-112839495D01*
X116019833Y-112838228D01*
X116011456Y-112836130D01*
X116003325Y-112833220D01*
X115995518Y-112829528D01*
X115988111Y-112825088D01*
X115981174Y-112819944D01*
X115974776Y-112814144D01*
X115968976Y-112807746D01*
X115963832Y-112800809D01*
X115959392Y-112793402D01*
X115955700Y-112785595D01*
X115952790Y-112777464D01*
X115950692Y-112769087D01*
X115949425Y-112760545D01*
X115949001Y-112751919D01*
X115949001Y-112000919D01*
X115949425Y-111992293D01*
X115950692Y-111983751D01*
X115952790Y-111975374D01*
X115955700Y-111967243D01*
X115959392Y-111959436D01*
X115963832Y-111952029D01*
X115968976Y-111945092D01*
X115974776Y-111938694D01*
X115981174Y-111932894D01*
X115988111Y-111927750D01*
X115995518Y-111923310D01*
X116003325Y-111919618D01*
X116011456Y-111916708D01*
X116019833Y-111914610D01*
X116028375Y-111913343D01*
X116037001Y-111912919D01*
X116213001Y-111912919D01*
X116221627Y-111913343D01*
X116221627Y-111913343D01*
G37*
D19*
X116125001Y-112376419D03*
D17*
G36*
X117196627Y-112888343D02*
G01*
X117205169Y-112889610D01*
X117213546Y-112891708D01*
X117221677Y-112894618D01*
X117229484Y-112898310D01*
X117236891Y-112902750D01*
X117243828Y-112907894D01*
X117250226Y-112913694D01*
X117256026Y-112920092D01*
X117261170Y-112927029D01*
X117265610Y-112934436D01*
X117269302Y-112942243D01*
X117272212Y-112950374D01*
X117274310Y-112958751D01*
X117275577Y-112967293D01*
X117276001Y-112975919D01*
X117276001Y-113151919D01*
X117275577Y-113160545D01*
X117274310Y-113169087D01*
X117272212Y-113177464D01*
X117269302Y-113185595D01*
X117265610Y-113193402D01*
X117261170Y-113200809D01*
X117256026Y-113207746D01*
X117250226Y-113214144D01*
X117243828Y-113219944D01*
X117236891Y-113225088D01*
X117229484Y-113229528D01*
X117221677Y-113233220D01*
X117213546Y-113236130D01*
X117205169Y-113238228D01*
X117196627Y-113239495D01*
X117188001Y-113239919D01*
X116437001Y-113239919D01*
X116428375Y-113239495D01*
X116419833Y-113238228D01*
X116411456Y-113236130D01*
X116403325Y-113233220D01*
X116395518Y-113229528D01*
X116388111Y-113225088D01*
X116381174Y-113219944D01*
X116374776Y-113214144D01*
X116368976Y-113207746D01*
X116363832Y-113200809D01*
X116359392Y-113193402D01*
X116355700Y-113185595D01*
X116352790Y-113177464D01*
X116350692Y-113169087D01*
X116349425Y-113160545D01*
X116349001Y-113151919D01*
X116349001Y-112975919D01*
X116349425Y-112967293D01*
X116350692Y-112958751D01*
X116352790Y-112950374D01*
X116355700Y-112942243D01*
X116359392Y-112934436D01*
X116363832Y-112927029D01*
X116368976Y-112920092D01*
X116374776Y-112913694D01*
X116381174Y-112907894D01*
X116388111Y-112902750D01*
X116395518Y-112898310D01*
X116403325Y-112894618D01*
X116411456Y-112891708D01*
X116419833Y-112889610D01*
X116428375Y-112888343D01*
X116437001Y-112887919D01*
X117188001Y-112887919D01*
X117196627Y-112888343D01*
X117196627Y-112888343D01*
G37*
D19*
X116812501Y-113063919D03*
D17*
G36*
X117196627Y-113388343D02*
G01*
X117205169Y-113389610D01*
X117213546Y-113391708D01*
X117221677Y-113394618D01*
X117229484Y-113398310D01*
X117236891Y-113402750D01*
X117243828Y-113407894D01*
X117250226Y-113413694D01*
X117256026Y-113420092D01*
X117261170Y-113427029D01*
X117265610Y-113434436D01*
X117269302Y-113442243D01*
X117272212Y-113450374D01*
X117274310Y-113458751D01*
X117275577Y-113467293D01*
X117276001Y-113475919D01*
X117276001Y-113651919D01*
X117275577Y-113660545D01*
X117274310Y-113669087D01*
X117272212Y-113677464D01*
X117269302Y-113685595D01*
X117265610Y-113693402D01*
X117261170Y-113700809D01*
X117256026Y-113707746D01*
X117250226Y-113714144D01*
X117243828Y-113719944D01*
X117236891Y-113725088D01*
X117229484Y-113729528D01*
X117221677Y-113733220D01*
X117213546Y-113736130D01*
X117205169Y-113738228D01*
X117196627Y-113739495D01*
X117188001Y-113739919D01*
X116437001Y-113739919D01*
X116428375Y-113739495D01*
X116419833Y-113738228D01*
X116411456Y-113736130D01*
X116403325Y-113733220D01*
X116395518Y-113729528D01*
X116388111Y-113725088D01*
X116381174Y-113719944D01*
X116374776Y-113714144D01*
X116368976Y-113707746D01*
X116363832Y-113700809D01*
X116359392Y-113693402D01*
X116355700Y-113685595D01*
X116352790Y-113677464D01*
X116350692Y-113669087D01*
X116349425Y-113660545D01*
X116349001Y-113651919D01*
X116349001Y-113475919D01*
X116349425Y-113467293D01*
X116350692Y-113458751D01*
X116352790Y-113450374D01*
X116355700Y-113442243D01*
X116359392Y-113434436D01*
X116363832Y-113427029D01*
X116368976Y-113420092D01*
X116374776Y-113413694D01*
X116381174Y-113407894D01*
X116388111Y-113402750D01*
X116395518Y-113398310D01*
X116403325Y-113394618D01*
X116411456Y-113391708D01*
X116419833Y-113389610D01*
X116428375Y-113388343D01*
X116437001Y-113387919D01*
X117188001Y-113387919D01*
X117196627Y-113388343D01*
X117196627Y-113388343D01*
G37*
D19*
X116812501Y-113563919D03*
D17*
G36*
X117196627Y-113888343D02*
G01*
X117205169Y-113889610D01*
X117213546Y-113891708D01*
X117221677Y-113894618D01*
X117229484Y-113898310D01*
X117236891Y-113902750D01*
X117243828Y-113907894D01*
X117250226Y-113913694D01*
X117256026Y-113920092D01*
X117261170Y-113927029D01*
X117265610Y-113934436D01*
X117269302Y-113942243D01*
X117272212Y-113950374D01*
X117274310Y-113958751D01*
X117275577Y-113967293D01*
X117276001Y-113975919D01*
X117276001Y-114151919D01*
X117275577Y-114160545D01*
X117274310Y-114169087D01*
X117272212Y-114177464D01*
X117269302Y-114185595D01*
X117265610Y-114193402D01*
X117261170Y-114200809D01*
X117256026Y-114207746D01*
X117250226Y-114214144D01*
X117243828Y-114219944D01*
X117236891Y-114225088D01*
X117229484Y-114229528D01*
X117221677Y-114233220D01*
X117213546Y-114236130D01*
X117205169Y-114238228D01*
X117196627Y-114239495D01*
X117188001Y-114239919D01*
X116437001Y-114239919D01*
X116428375Y-114239495D01*
X116419833Y-114238228D01*
X116411456Y-114236130D01*
X116403325Y-114233220D01*
X116395518Y-114229528D01*
X116388111Y-114225088D01*
X116381174Y-114219944D01*
X116374776Y-114214144D01*
X116368976Y-114207746D01*
X116363832Y-114200809D01*
X116359392Y-114193402D01*
X116355700Y-114185595D01*
X116352790Y-114177464D01*
X116350692Y-114169087D01*
X116349425Y-114160545D01*
X116349001Y-114151919D01*
X116349001Y-113975919D01*
X116349425Y-113967293D01*
X116350692Y-113958751D01*
X116352790Y-113950374D01*
X116355700Y-113942243D01*
X116359392Y-113934436D01*
X116363832Y-113927029D01*
X116368976Y-113920092D01*
X116374776Y-113913694D01*
X116381174Y-113907894D01*
X116388111Y-113902750D01*
X116395518Y-113898310D01*
X116403325Y-113894618D01*
X116411456Y-113891708D01*
X116419833Y-113889610D01*
X116428375Y-113888343D01*
X116437001Y-113887919D01*
X117188001Y-113887919D01*
X117196627Y-113888343D01*
X117196627Y-113888343D01*
G37*
D19*
X116812501Y-114063919D03*
D17*
G36*
X117196627Y-114388343D02*
G01*
X117205169Y-114389610D01*
X117213546Y-114391708D01*
X117221677Y-114394618D01*
X117229484Y-114398310D01*
X117236891Y-114402750D01*
X117243828Y-114407894D01*
X117250226Y-114413694D01*
X117256026Y-114420092D01*
X117261170Y-114427029D01*
X117265610Y-114434436D01*
X117269302Y-114442243D01*
X117272212Y-114450374D01*
X117274310Y-114458751D01*
X117275577Y-114467293D01*
X117276001Y-114475919D01*
X117276001Y-114651919D01*
X117275577Y-114660545D01*
X117274310Y-114669087D01*
X117272212Y-114677464D01*
X117269302Y-114685595D01*
X117265610Y-114693402D01*
X117261170Y-114700809D01*
X117256026Y-114707746D01*
X117250226Y-114714144D01*
X117243828Y-114719944D01*
X117236891Y-114725088D01*
X117229484Y-114729528D01*
X117221677Y-114733220D01*
X117213546Y-114736130D01*
X117205169Y-114738228D01*
X117196627Y-114739495D01*
X117188001Y-114739919D01*
X116437001Y-114739919D01*
X116428375Y-114739495D01*
X116419833Y-114738228D01*
X116411456Y-114736130D01*
X116403325Y-114733220D01*
X116395518Y-114729528D01*
X116388111Y-114725088D01*
X116381174Y-114719944D01*
X116374776Y-114714144D01*
X116368976Y-114707746D01*
X116363832Y-114700809D01*
X116359392Y-114693402D01*
X116355700Y-114685595D01*
X116352790Y-114677464D01*
X116350692Y-114669087D01*
X116349425Y-114660545D01*
X116349001Y-114651919D01*
X116349001Y-114475919D01*
X116349425Y-114467293D01*
X116350692Y-114458751D01*
X116352790Y-114450374D01*
X116355700Y-114442243D01*
X116359392Y-114434436D01*
X116363832Y-114427029D01*
X116368976Y-114420092D01*
X116374776Y-114413694D01*
X116381174Y-114407894D01*
X116388111Y-114402750D01*
X116395518Y-114398310D01*
X116403325Y-114394618D01*
X116411456Y-114391708D01*
X116419833Y-114389610D01*
X116428375Y-114388343D01*
X116437001Y-114387919D01*
X117188001Y-114387919D01*
X117196627Y-114388343D01*
X117196627Y-114388343D01*
G37*
D19*
X116812501Y-114563919D03*
D17*
G36*
X117196627Y-114888343D02*
G01*
X117205169Y-114889610D01*
X117213546Y-114891708D01*
X117221677Y-114894618D01*
X117229484Y-114898310D01*
X117236891Y-114902750D01*
X117243828Y-114907894D01*
X117250226Y-114913694D01*
X117256026Y-114920092D01*
X117261170Y-114927029D01*
X117265610Y-114934436D01*
X117269302Y-114942243D01*
X117272212Y-114950374D01*
X117274310Y-114958751D01*
X117275577Y-114967293D01*
X117276001Y-114975919D01*
X117276001Y-115151919D01*
X117275577Y-115160545D01*
X117274310Y-115169087D01*
X117272212Y-115177464D01*
X117269302Y-115185595D01*
X117265610Y-115193402D01*
X117261170Y-115200809D01*
X117256026Y-115207746D01*
X117250226Y-115214144D01*
X117243828Y-115219944D01*
X117236891Y-115225088D01*
X117229484Y-115229528D01*
X117221677Y-115233220D01*
X117213546Y-115236130D01*
X117205169Y-115238228D01*
X117196627Y-115239495D01*
X117188001Y-115239919D01*
X116437001Y-115239919D01*
X116428375Y-115239495D01*
X116419833Y-115238228D01*
X116411456Y-115236130D01*
X116403325Y-115233220D01*
X116395518Y-115229528D01*
X116388111Y-115225088D01*
X116381174Y-115219944D01*
X116374776Y-115214144D01*
X116368976Y-115207746D01*
X116363832Y-115200809D01*
X116359392Y-115193402D01*
X116355700Y-115185595D01*
X116352790Y-115177464D01*
X116350692Y-115169087D01*
X116349425Y-115160545D01*
X116349001Y-115151919D01*
X116349001Y-114975919D01*
X116349425Y-114967293D01*
X116350692Y-114958751D01*
X116352790Y-114950374D01*
X116355700Y-114942243D01*
X116359392Y-114934436D01*
X116363832Y-114927029D01*
X116368976Y-114920092D01*
X116374776Y-114913694D01*
X116381174Y-114907894D01*
X116388111Y-114902750D01*
X116395518Y-114898310D01*
X116403325Y-114894618D01*
X116411456Y-114891708D01*
X116419833Y-114889610D01*
X116428375Y-114888343D01*
X116437001Y-114887919D01*
X117188001Y-114887919D01*
X117196627Y-114888343D01*
X117196627Y-114888343D01*
G37*
D19*
X116812501Y-115063919D03*
D17*
G36*
X117196627Y-115388343D02*
G01*
X117205169Y-115389610D01*
X117213546Y-115391708D01*
X117221677Y-115394618D01*
X117229484Y-115398310D01*
X117236891Y-115402750D01*
X117243828Y-115407894D01*
X117250226Y-115413694D01*
X117256026Y-115420092D01*
X117261170Y-115427029D01*
X117265610Y-115434436D01*
X117269302Y-115442243D01*
X117272212Y-115450374D01*
X117274310Y-115458751D01*
X117275577Y-115467293D01*
X117276001Y-115475919D01*
X117276001Y-115651919D01*
X117275577Y-115660545D01*
X117274310Y-115669087D01*
X117272212Y-115677464D01*
X117269302Y-115685595D01*
X117265610Y-115693402D01*
X117261170Y-115700809D01*
X117256026Y-115707746D01*
X117250226Y-115714144D01*
X117243828Y-115719944D01*
X117236891Y-115725088D01*
X117229484Y-115729528D01*
X117221677Y-115733220D01*
X117213546Y-115736130D01*
X117205169Y-115738228D01*
X117196627Y-115739495D01*
X117188001Y-115739919D01*
X116437001Y-115739919D01*
X116428375Y-115739495D01*
X116419833Y-115738228D01*
X116411456Y-115736130D01*
X116403325Y-115733220D01*
X116395518Y-115729528D01*
X116388111Y-115725088D01*
X116381174Y-115719944D01*
X116374776Y-115714144D01*
X116368976Y-115707746D01*
X116363832Y-115700809D01*
X116359392Y-115693402D01*
X116355700Y-115685595D01*
X116352790Y-115677464D01*
X116350692Y-115669087D01*
X116349425Y-115660545D01*
X116349001Y-115651919D01*
X116349001Y-115475919D01*
X116349425Y-115467293D01*
X116350692Y-115458751D01*
X116352790Y-115450374D01*
X116355700Y-115442243D01*
X116359392Y-115434436D01*
X116363832Y-115427029D01*
X116368976Y-115420092D01*
X116374776Y-115413694D01*
X116381174Y-115407894D01*
X116388111Y-115402750D01*
X116395518Y-115398310D01*
X116403325Y-115394618D01*
X116411456Y-115391708D01*
X116419833Y-115389610D01*
X116428375Y-115388343D01*
X116437001Y-115387919D01*
X117188001Y-115387919D01*
X117196627Y-115388343D01*
X117196627Y-115388343D01*
G37*
D19*
X116812501Y-115563919D03*
D17*
G36*
X116221627Y-115788343D02*
G01*
X116230169Y-115789610D01*
X116238546Y-115791708D01*
X116246677Y-115794618D01*
X116254484Y-115798310D01*
X116261891Y-115802750D01*
X116268828Y-115807894D01*
X116275226Y-115813694D01*
X116281026Y-115820092D01*
X116286170Y-115827029D01*
X116290610Y-115834436D01*
X116294302Y-115842243D01*
X116297212Y-115850374D01*
X116299310Y-115858751D01*
X116300577Y-115867293D01*
X116301001Y-115875919D01*
X116301001Y-116626919D01*
X116300577Y-116635545D01*
X116299310Y-116644087D01*
X116297212Y-116652464D01*
X116294302Y-116660595D01*
X116290610Y-116668402D01*
X116286170Y-116675809D01*
X116281026Y-116682746D01*
X116275226Y-116689144D01*
X116268828Y-116694944D01*
X116261891Y-116700088D01*
X116254484Y-116704528D01*
X116246677Y-116708220D01*
X116238546Y-116711130D01*
X116230169Y-116713228D01*
X116221627Y-116714495D01*
X116213001Y-116714919D01*
X116037001Y-116714919D01*
X116028375Y-116714495D01*
X116019833Y-116713228D01*
X116011456Y-116711130D01*
X116003325Y-116708220D01*
X115995518Y-116704528D01*
X115988111Y-116700088D01*
X115981174Y-116694944D01*
X115974776Y-116689144D01*
X115968976Y-116682746D01*
X115963832Y-116675809D01*
X115959392Y-116668402D01*
X115955700Y-116660595D01*
X115952790Y-116652464D01*
X115950692Y-116644087D01*
X115949425Y-116635545D01*
X115949001Y-116626919D01*
X115949001Y-115875919D01*
X115949425Y-115867293D01*
X115950692Y-115858751D01*
X115952790Y-115850374D01*
X115955700Y-115842243D01*
X115959392Y-115834436D01*
X115963832Y-115827029D01*
X115968976Y-115820092D01*
X115974776Y-115813694D01*
X115981174Y-115807894D01*
X115988111Y-115802750D01*
X115995518Y-115798310D01*
X116003325Y-115794618D01*
X116011456Y-115791708D01*
X116019833Y-115789610D01*
X116028375Y-115788343D01*
X116037001Y-115787919D01*
X116213001Y-115787919D01*
X116221627Y-115788343D01*
X116221627Y-115788343D01*
G37*
D19*
X116125001Y-116251419D03*
D17*
G36*
X115721627Y-115788343D02*
G01*
X115730169Y-115789610D01*
X115738546Y-115791708D01*
X115746677Y-115794618D01*
X115754484Y-115798310D01*
X115761891Y-115802750D01*
X115768828Y-115807894D01*
X115775226Y-115813694D01*
X115781026Y-115820092D01*
X115786170Y-115827029D01*
X115790610Y-115834436D01*
X115794302Y-115842243D01*
X115797212Y-115850374D01*
X115799310Y-115858751D01*
X115800577Y-115867293D01*
X115801001Y-115875919D01*
X115801001Y-116626919D01*
X115800577Y-116635545D01*
X115799310Y-116644087D01*
X115797212Y-116652464D01*
X115794302Y-116660595D01*
X115790610Y-116668402D01*
X115786170Y-116675809D01*
X115781026Y-116682746D01*
X115775226Y-116689144D01*
X115768828Y-116694944D01*
X115761891Y-116700088D01*
X115754484Y-116704528D01*
X115746677Y-116708220D01*
X115738546Y-116711130D01*
X115730169Y-116713228D01*
X115721627Y-116714495D01*
X115713001Y-116714919D01*
X115537001Y-116714919D01*
X115528375Y-116714495D01*
X115519833Y-116713228D01*
X115511456Y-116711130D01*
X115503325Y-116708220D01*
X115495518Y-116704528D01*
X115488111Y-116700088D01*
X115481174Y-116694944D01*
X115474776Y-116689144D01*
X115468976Y-116682746D01*
X115463832Y-116675809D01*
X115459392Y-116668402D01*
X115455700Y-116660595D01*
X115452790Y-116652464D01*
X115450692Y-116644087D01*
X115449425Y-116635545D01*
X115449001Y-116626919D01*
X115449001Y-115875919D01*
X115449425Y-115867293D01*
X115450692Y-115858751D01*
X115452790Y-115850374D01*
X115455700Y-115842243D01*
X115459392Y-115834436D01*
X115463832Y-115827029D01*
X115468976Y-115820092D01*
X115474776Y-115813694D01*
X115481174Y-115807894D01*
X115488111Y-115802750D01*
X115495518Y-115798310D01*
X115503325Y-115794618D01*
X115511456Y-115791708D01*
X115519833Y-115789610D01*
X115528375Y-115788343D01*
X115537001Y-115787919D01*
X115713001Y-115787919D01*
X115721627Y-115788343D01*
X115721627Y-115788343D01*
G37*
D19*
X115625001Y-116251419D03*
D17*
G36*
X115221627Y-115788343D02*
G01*
X115230169Y-115789610D01*
X115238546Y-115791708D01*
X115246677Y-115794618D01*
X115254484Y-115798310D01*
X115261891Y-115802750D01*
X115268828Y-115807894D01*
X115275226Y-115813694D01*
X115281026Y-115820092D01*
X115286170Y-115827029D01*
X115290610Y-115834436D01*
X115294302Y-115842243D01*
X115297212Y-115850374D01*
X115299310Y-115858751D01*
X115300577Y-115867293D01*
X115301001Y-115875919D01*
X115301001Y-116626919D01*
X115300577Y-116635545D01*
X115299310Y-116644087D01*
X115297212Y-116652464D01*
X115294302Y-116660595D01*
X115290610Y-116668402D01*
X115286170Y-116675809D01*
X115281026Y-116682746D01*
X115275226Y-116689144D01*
X115268828Y-116694944D01*
X115261891Y-116700088D01*
X115254484Y-116704528D01*
X115246677Y-116708220D01*
X115238546Y-116711130D01*
X115230169Y-116713228D01*
X115221627Y-116714495D01*
X115213001Y-116714919D01*
X115037001Y-116714919D01*
X115028375Y-116714495D01*
X115019833Y-116713228D01*
X115011456Y-116711130D01*
X115003325Y-116708220D01*
X114995518Y-116704528D01*
X114988111Y-116700088D01*
X114981174Y-116694944D01*
X114974776Y-116689144D01*
X114968976Y-116682746D01*
X114963832Y-116675809D01*
X114959392Y-116668402D01*
X114955700Y-116660595D01*
X114952790Y-116652464D01*
X114950692Y-116644087D01*
X114949425Y-116635545D01*
X114949001Y-116626919D01*
X114949001Y-115875919D01*
X114949425Y-115867293D01*
X114950692Y-115858751D01*
X114952790Y-115850374D01*
X114955700Y-115842243D01*
X114959392Y-115834436D01*
X114963832Y-115827029D01*
X114968976Y-115820092D01*
X114974776Y-115813694D01*
X114981174Y-115807894D01*
X114988111Y-115802750D01*
X114995518Y-115798310D01*
X115003325Y-115794618D01*
X115011456Y-115791708D01*
X115019833Y-115789610D01*
X115028375Y-115788343D01*
X115037001Y-115787919D01*
X115213001Y-115787919D01*
X115221627Y-115788343D01*
X115221627Y-115788343D01*
G37*
D19*
X115125001Y-116251419D03*
D17*
G36*
X114721627Y-115788343D02*
G01*
X114730169Y-115789610D01*
X114738546Y-115791708D01*
X114746677Y-115794618D01*
X114754484Y-115798310D01*
X114761891Y-115802750D01*
X114768828Y-115807894D01*
X114775226Y-115813694D01*
X114781026Y-115820092D01*
X114786170Y-115827029D01*
X114790610Y-115834436D01*
X114794302Y-115842243D01*
X114797212Y-115850374D01*
X114799310Y-115858751D01*
X114800577Y-115867293D01*
X114801001Y-115875919D01*
X114801001Y-116626919D01*
X114800577Y-116635545D01*
X114799310Y-116644087D01*
X114797212Y-116652464D01*
X114794302Y-116660595D01*
X114790610Y-116668402D01*
X114786170Y-116675809D01*
X114781026Y-116682746D01*
X114775226Y-116689144D01*
X114768828Y-116694944D01*
X114761891Y-116700088D01*
X114754484Y-116704528D01*
X114746677Y-116708220D01*
X114738546Y-116711130D01*
X114730169Y-116713228D01*
X114721627Y-116714495D01*
X114713001Y-116714919D01*
X114537001Y-116714919D01*
X114528375Y-116714495D01*
X114519833Y-116713228D01*
X114511456Y-116711130D01*
X114503325Y-116708220D01*
X114495518Y-116704528D01*
X114488111Y-116700088D01*
X114481174Y-116694944D01*
X114474776Y-116689144D01*
X114468976Y-116682746D01*
X114463832Y-116675809D01*
X114459392Y-116668402D01*
X114455700Y-116660595D01*
X114452790Y-116652464D01*
X114450692Y-116644087D01*
X114449425Y-116635545D01*
X114449001Y-116626919D01*
X114449001Y-115875919D01*
X114449425Y-115867293D01*
X114450692Y-115858751D01*
X114452790Y-115850374D01*
X114455700Y-115842243D01*
X114459392Y-115834436D01*
X114463832Y-115827029D01*
X114468976Y-115820092D01*
X114474776Y-115813694D01*
X114481174Y-115807894D01*
X114488111Y-115802750D01*
X114495518Y-115798310D01*
X114503325Y-115794618D01*
X114511456Y-115791708D01*
X114519833Y-115789610D01*
X114528375Y-115788343D01*
X114537001Y-115787919D01*
X114713001Y-115787919D01*
X114721627Y-115788343D01*
X114721627Y-115788343D01*
G37*
D19*
X114625001Y-116251419D03*
D17*
G36*
X114221627Y-115788343D02*
G01*
X114230169Y-115789610D01*
X114238546Y-115791708D01*
X114246677Y-115794618D01*
X114254484Y-115798310D01*
X114261891Y-115802750D01*
X114268828Y-115807894D01*
X114275226Y-115813694D01*
X114281026Y-115820092D01*
X114286170Y-115827029D01*
X114290610Y-115834436D01*
X114294302Y-115842243D01*
X114297212Y-115850374D01*
X114299310Y-115858751D01*
X114300577Y-115867293D01*
X114301001Y-115875919D01*
X114301001Y-116626919D01*
X114300577Y-116635545D01*
X114299310Y-116644087D01*
X114297212Y-116652464D01*
X114294302Y-116660595D01*
X114290610Y-116668402D01*
X114286170Y-116675809D01*
X114281026Y-116682746D01*
X114275226Y-116689144D01*
X114268828Y-116694944D01*
X114261891Y-116700088D01*
X114254484Y-116704528D01*
X114246677Y-116708220D01*
X114238546Y-116711130D01*
X114230169Y-116713228D01*
X114221627Y-116714495D01*
X114213001Y-116714919D01*
X114037001Y-116714919D01*
X114028375Y-116714495D01*
X114019833Y-116713228D01*
X114011456Y-116711130D01*
X114003325Y-116708220D01*
X113995518Y-116704528D01*
X113988111Y-116700088D01*
X113981174Y-116694944D01*
X113974776Y-116689144D01*
X113968976Y-116682746D01*
X113963832Y-116675809D01*
X113959392Y-116668402D01*
X113955700Y-116660595D01*
X113952790Y-116652464D01*
X113950692Y-116644087D01*
X113949425Y-116635545D01*
X113949001Y-116626919D01*
X113949001Y-115875919D01*
X113949425Y-115867293D01*
X113950692Y-115858751D01*
X113952790Y-115850374D01*
X113955700Y-115842243D01*
X113959392Y-115834436D01*
X113963832Y-115827029D01*
X113968976Y-115820092D01*
X113974776Y-115813694D01*
X113981174Y-115807894D01*
X113988111Y-115802750D01*
X113995518Y-115798310D01*
X114003325Y-115794618D01*
X114011456Y-115791708D01*
X114019833Y-115789610D01*
X114028375Y-115788343D01*
X114037001Y-115787919D01*
X114213001Y-115787919D01*
X114221627Y-115788343D01*
X114221627Y-115788343D01*
G37*
D19*
X114125001Y-116251419D03*
D17*
G36*
X113721627Y-115788343D02*
G01*
X113730169Y-115789610D01*
X113738546Y-115791708D01*
X113746677Y-115794618D01*
X113754484Y-115798310D01*
X113761891Y-115802750D01*
X113768828Y-115807894D01*
X113775226Y-115813694D01*
X113781026Y-115820092D01*
X113786170Y-115827029D01*
X113790610Y-115834436D01*
X113794302Y-115842243D01*
X113797212Y-115850374D01*
X113799310Y-115858751D01*
X113800577Y-115867293D01*
X113801001Y-115875919D01*
X113801001Y-116626919D01*
X113800577Y-116635545D01*
X113799310Y-116644087D01*
X113797212Y-116652464D01*
X113794302Y-116660595D01*
X113790610Y-116668402D01*
X113786170Y-116675809D01*
X113781026Y-116682746D01*
X113775226Y-116689144D01*
X113768828Y-116694944D01*
X113761891Y-116700088D01*
X113754484Y-116704528D01*
X113746677Y-116708220D01*
X113738546Y-116711130D01*
X113730169Y-116713228D01*
X113721627Y-116714495D01*
X113713001Y-116714919D01*
X113537001Y-116714919D01*
X113528375Y-116714495D01*
X113519833Y-116713228D01*
X113511456Y-116711130D01*
X113503325Y-116708220D01*
X113495518Y-116704528D01*
X113488111Y-116700088D01*
X113481174Y-116694944D01*
X113474776Y-116689144D01*
X113468976Y-116682746D01*
X113463832Y-116675809D01*
X113459392Y-116668402D01*
X113455700Y-116660595D01*
X113452790Y-116652464D01*
X113450692Y-116644087D01*
X113449425Y-116635545D01*
X113449001Y-116626919D01*
X113449001Y-115875919D01*
X113449425Y-115867293D01*
X113450692Y-115858751D01*
X113452790Y-115850374D01*
X113455700Y-115842243D01*
X113459392Y-115834436D01*
X113463832Y-115827029D01*
X113468976Y-115820092D01*
X113474776Y-115813694D01*
X113481174Y-115807894D01*
X113488111Y-115802750D01*
X113495518Y-115798310D01*
X113503325Y-115794618D01*
X113511456Y-115791708D01*
X113519833Y-115789610D01*
X113528375Y-115788343D01*
X113537001Y-115787919D01*
X113713001Y-115787919D01*
X113721627Y-115788343D01*
X113721627Y-115788343D01*
G37*
D19*
X113625001Y-116251419D03*
D17*
G36*
X110520129Y-120212088D02*
G01*
X110546872Y-120216055D01*
X110573098Y-120222624D01*
X110598554Y-120231732D01*
X110622995Y-120243292D01*
X110646185Y-120257191D01*
X110667900Y-120273297D01*
X110687933Y-120291453D01*
X110706089Y-120311486D01*
X110722195Y-120333201D01*
X110736094Y-120356391D01*
X110747654Y-120380832D01*
X110756762Y-120406288D01*
X110763331Y-120432514D01*
X110767298Y-120459257D01*
X110768625Y-120486261D01*
X110768625Y-121037261D01*
X110767298Y-121064265D01*
X110763331Y-121091008D01*
X110756762Y-121117234D01*
X110747654Y-121142690D01*
X110736094Y-121167131D01*
X110722195Y-121190321D01*
X110706089Y-121212036D01*
X110687933Y-121232069D01*
X110667900Y-121250225D01*
X110646185Y-121266331D01*
X110622995Y-121280230D01*
X110598554Y-121291790D01*
X110573098Y-121300898D01*
X110546872Y-121307467D01*
X110520129Y-121311434D01*
X110493125Y-121312761D01*
X109392125Y-121312761D01*
X109365121Y-121311434D01*
X109338378Y-121307467D01*
X109312152Y-121300898D01*
X109286696Y-121291790D01*
X109262255Y-121280230D01*
X109239065Y-121266331D01*
X109217350Y-121250225D01*
X109197317Y-121232069D01*
X109179161Y-121212036D01*
X109163055Y-121190321D01*
X109149156Y-121167131D01*
X109137596Y-121142690D01*
X109128488Y-121117234D01*
X109121919Y-121091008D01*
X109117952Y-121064265D01*
X109116625Y-121037261D01*
X109116625Y-120486261D01*
X109117952Y-120459257D01*
X109121919Y-120432514D01*
X109128488Y-120406288D01*
X109137596Y-120380832D01*
X109149156Y-120356391D01*
X109163055Y-120333201D01*
X109179161Y-120311486D01*
X109197317Y-120291453D01*
X109217350Y-120273297D01*
X109239065Y-120257191D01*
X109262255Y-120243292D01*
X109286696Y-120231732D01*
X109312152Y-120222624D01*
X109338378Y-120216055D01*
X109365121Y-120212088D01*
X109392125Y-120210761D01*
X110493125Y-120210761D01*
X110520129Y-120212088D01*
X110520129Y-120212088D01*
G37*
D20*
X109942625Y-120761761D03*
D17*
G36*
X107970129Y-120212088D02*
G01*
X107996872Y-120216055D01*
X108023098Y-120222624D01*
X108048554Y-120231732D01*
X108072995Y-120243292D01*
X108096185Y-120257191D01*
X108117900Y-120273297D01*
X108137933Y-120291453D01*
X108156089Y-120311486D01*
X108172195Y-120333201D01*
X108186094Y-120356391D01*
X108197654Y-120380832D01*
X108206762Y-120406288D01*
X108213331Y-120432514D01*
X108217298Y-120459257D01*
X108218625Y-120486261D01*
X108218625Y-121037261D01*
X108217298Y-121064265D01*
X108213331Y-121091008D01*
X108206762Y-121117234D01*
X108197654Y-121142690D01*
X108186094Y-121167131D01*
X108172195Y-121190321D01*
X108156089Y-121212036D01*
X108137933Y-121232069D01*
X108117900Y-121250225D01*
X108096185Y-121266331D01*
X108072995Y-121280230D01*
X108048554Y-121291790D01*
X108023098Y-121300898D01*
X107996872Y-121307467D01*
X107970129Y-121311434D01*
X107943125Y-121312761D01*
X106842125Y-121312761D01*
X106815121Y-121311434D01*
X106788378Y-121307467D01*
X106762152Y-121300898D01*
X106736696Y-121291790D01*
X106712255Y-121280230D01*
X106689065Y-121266331D01*
X106667350Y-121250225D01*
X106647317Y-121232069D01*
X106629161Y-121212036D01*
X106613055Y-121190321D01*
X106599156Y-121167131D01*
X106587596Y-121142690D01*
X106578488Y-121117234D01*
X106571919Y-121091008D01*
X106567952Y-121064265D01*
X106566625Y-121037261D01*
X106566625Y-120486261D01*
X106567952Y-120459257D01*
X106571919Y-120432514D01*
X106578488Y-120406288D01*
X106587596Y-120380832D01*
X106599156Y-120356391D01*
X106613055Y-120333201D01*
X106629161Y-120311486D01*
X106647317Y-120291453D01*
X106667350Y-120273297D01*
X106689065Y-120257191D01*
X106712255Y-120243292D01*
X106736696Y-120231732D01*
X106762152Y-120222624D01*
X106788378Y-120216055D01*
X106815121Y-120212088D01*
X106842125Y-120210761D01*
X107943125Y-120210761D01*
X107970129Y-120212088D01*
X107970129Y-120212088D01*
G37*
D20*
X107392625Y-120761761D03*
D17*
G36*
X110520129Y-124412088D02*
G01*
X110546872Y-124416055D01*
X110573098Y-124422624D01*
X110598554Y-124431732D01*
X110622995Y-124443292D01*
X110646185Y-124457191D01*
X110667900Y-124473297D01*
X110687933Y-124491453D01*
X110706089Y-124511486D01*
X110722195Y-124533201D01*
X110736094Y-124556391D01*
X110747654Y-124580832D01*
X110756762Y-124606288D01*
X110763331Y-124632514D01*
X110767298Y-124659257D01*
X110768625Y-124686261D01*
X110768625Y-125237261D01*
X110767298Y-125264265D01*
X110763331Y-125291008D01*
X110756762Y-125317234D01*
X110747654Y-125342690D01*
X110736094Y-125367131D01*
X110722195Y-125390321D01*
X110706089Y-125412036D01*
X110687933Y-125432069D01*
X110667900Y-125450225D01*
X110646185Y-125466331D01*
X110622995Y-125480230D01*
X110598554Y-125491790D01*
X110573098Y-125500898D01*
X110546872Y-125507467D01*
X110520129Y-125511434D01*
X110493125Y-125512761D01*
X109392125Y-125512761D01*
X109365121Y-125511434D01*
X109338378Y-125507467D01*
X109312152Y-125500898D01*
X109286696Y-125491790D01*
X109262255Y-125480230D01*
X109239065Y-125466331D01*
X109217350Y-125450225D01*
X109197317Y-125432069D01*
X109179161Y-125412036D01*
X109163055Y-125390321D01*
X109149156Y-125367131D01*
X109137596Y-125342690D01*
X109128488Y-125317234D01*
X109121919Y-125291008D01*
X109117952Y-125264265D01*
X109116625Y-125237261D01*
X109116625Y-124686261D01*
X109117952Y-124659257D01*
X109121919Y-124632514D01*
X109128488Y-124606288D01*
X109137596Y-124580832D01*
X109149156Y-124556391D01*
X109163055Y-124533201D01*
X109179161Y-124511486D01*
X109197317Y-124491453D01*
X109217350Y-124473297D01*
X109239065Y-124457191D01*
X109262255Y-124443292D01*
X109286696Y-124431732D01*
X109312152Y-124422624D01*
X109338378Y-124416055D01*
X109365121Y-124412088D01*
X109392125Y-124410761D01*
X110493125Y-124410761D01*
X110520129Y-124412088D01*
X110520129Y-124412088D01*
G37*
D20*
X109942625Y-124961761D03*
D17*
G36*
X107970129Y-124412088D02*
G01*
X107996872Y-124416055D01*
X108023098Y-124422624D01*
X108048554Y-124431732D01*
X108072995Y-124443292D01*
X108096185Y-124457191D01*
X108117900Y-124473297D01*
X108137933Y-124491453D01*
X108156089Y-124511486D01*
X108172195Y-124533201D01*
X108186094Y-124556391D01*
X108197654Y-124580832D01*
X108206762Y-124606288D01*
X108213331Y-124632514D01*
X108217298Y-124659257D01*
X108218625Y-124686261D01*
X108218625Y-125237261D01*
X108217298Y-125264265D01*
X108213331Y-125291008D01*
X108206762Y-125317234D01*
X108197654Y-125342690D01*
X108186094Y-125367131D01*
X108172195Y-125390321D01*
X108156089Y-125412036D01*
X108137933Y-125432069D01*
X108117900Y-125450225D01*
X108096185Y-125466331D01*
X108072995Y-125480230D01*
X108048554Y-125491790D01*
X108023098Y-125500898D01*
X107996872Y-125507467D01*
X107970129Y-125511434D01*
X107943125Y-125512761D01*
X106842125Y-125512761D01*
X106815121Y-125511434D01*
X106788378Y-125507467D01*
X106762152Y-125500898D01*
X106736696Y-125491790D01*
X106712255Y-125480230D01*
X106689065Y-125466331D01*
X106667350Y-125450225D01*
X106647317Y-125432069D01*
X106629161Y-125412036D01*
X106613055Y-125390321D01*
X106599156Y-125367131D01*
X106587596Y-125342690D01*
X106578488Y-125317234D01*
X106571919Y-125291008D01*
X106567952Y-125264265D01*
X106566625Y-125237261D01*
X106566625Y-124686261D01*
X106567952Y-124659257D01*
X106571919Y-124632514D01*
X106578488Y-124606288D01*
X106587596Y-124580832D01*
X106599156Y-124556391D01*
X106613055Y-124533201D01*
X106629161Y-124511486D01*
X106647317Y-124491453D01*
X106667350Y-124473297D01*
X106689065Y-124457191D01*
X106712255Y-124443292D01*
X106736696Y-124431732D01*
X106762152Y-124422624D01*
X106788378Y-124416055D01*
X106815121Y-124412088D01*
X106842125Y-124410761D01*
X107943125Y-124410761D01*
X107970129Y-124412088D01*
X107970129Y-124412088D01*
G37*
D20*
X107392625Y-124961761D03*
D16*
X127060000Y-112490000D03*
X127060000Y-116690000D03*
D17*
G36*
X114894957Y-110688753D02*
G01*
X114911751Y-110691244D01*
X114928219Y-110695369D01*
X114944204Y-110701089D01*
X114959552Y-110708348D01*
X114974114Y-110717076D01*
X114987750Y-110727189D01*
X115000329Y-110738591D01*
X115011731Y-110751170D01*
X115021844Y-110764806D01*
X115030572Y-110779368D01*
X115037831Y-110794716D01*
X115043551Y-110810701D01*
X115047676Y-110827169D01*
X115050167Y-110843963D01*
X115051000Y-110860920D01*
X115051000Y-111206920D01*
X115050167Y-111223877D01*
X115047676Y-111240671D01*
X115043551Y-111257139D01*
X115037831Y-111273124D01*
X115030572Y-111288472D01*
X115021844Y-111303034D01*
X115011731Y-111316670D01*
X115000329Y-111329249D01*
X114987750Y-111340651D01*
X114974114Y-111350764D01*
X114959552Y-111359492D01*
X114944204Y-111366751D01*
X114928219Y-111372471D01*
X114911751Y-111376596D01*
X114894957Y-111379087D01*
X114878000Y-111379920D01*
X114482000Y-111379920D01*
X114465043Y-111379087D01*
X114448249Y-111376596D01*
X114431781Y-111372471D01*
X114415796Y-111366751D01*
X114400448Y-111359492D01*
X114385886Y-111350764D01*
X114372250Y-111340651D01*
X114359671Y-111329249D01*
X114348269Y-111316670D01*
X114338156Y-111303034D01*
X114329428Y-111288472D01*
X114322169Y-111273124D01*
X114316449Y-111257139D01*
X114312324Y-111240671D01*
X114309833Y-111223877D01*
X114309000Y-111206920D01*
X114309000Y-110860920D01*
X114309833Y-110843963D01*
X114312324Y-110827169D01*
X114316449Y-110810701D01*
X114322169Y-110794716D01*
X114329428Y-110779368D01*
X114338156Y-110764806D01*
X114348269Y-110751170D01*
X114359671Y-110738591D01*
X114372250Y-110727189D01*
X114385886Y-110717076D01*
X114400448Y-110708348D01*
X114415796Y-110701089D01*
X114431781Y-110695369D01*
X114448249Y-110691244D01*
X114465043Y-110688753D01*
X114482000Y-110687920D01*
X114878000Y-110687920D01*
X114894957Y-110688753D01*
X114894957Y-110688753D01*
G37*
D21*
X114680000Y-111033920D03*
D17*
G36*
X114894957Y-109718753D02*
G01*
X114911751Y-109721244D01*
X114928219Y-109725369D01*
X114944204Y-109731089D01*
X114959552Y-109738348D01*
X114974114Y-109747076D01*
X114987750Y-109757189D01*
X115000329Y-109768591D01*
X115011731Y-109781170D01*
X115021844Y-109794806D01*
X115030572Y-109809368D01*
X115037831Y-109824716D01*
X115043551Y-109840701D01*
X115047676Y-109857169D01*
X115050167Y-109873963D01*
X115051000Y-109890920D01*
X115051000Y-110236920D01*
X115050167Y-110253877D01*
X115047676Y-110270671D01*
X115043551Y-110287139D01*
X115037831Y-110303124D01*
X115030572Y-110318472D01*
X115021844Y-110333034D01*
X115011731Y-110346670D01*
X115000329Y-110359249D01*
X114987750Y-110370651D01*
X114974114Y-110380764D01*
X114959552Y-110389492D01*
X114944204Y-110396751D01*
X114928219Y-110402471D01*
X114911751Y-110406596D01*
X114894957Y-110409087D01*
X114878000Y-110409920D01*
X114482000Y-110409920D01*
X114465043Y-110409087D01*
X114448249Y-110406596D01*
X114431781Y-110402471D01*
X114415796Y-110396751D01*
X114400448Y-110389492D01*
X114385886Y-110380764D01*
X114372250Y-110370651D01*
X114359671Y-110359249D01*
X114348269Y-110346670D01*
X114338156Y-110333034D01*
X114329428Y-110318472D01*
X114322169Y-110303124D01*
X114316449Y-110287139D01*
X114312324Y-110270671D01*
X114309833Y-110253877D01*
X114309000Y-110236920D01*
X114309000Y-109890920D01*
X114309833Y-109873963D01*
X114312324Y-109857169D01*
X114316449Y-109840701D01*
X114322169Y-109824716D01*
X114329428Y-109809368D01*
X114338156Y-109794806D01*
X114348269Y-109781170D01*
X114359671Y-109768591D01*
X114372250Y-109757189D01*
X114385886Y-109747076D01*
X114400448Y-109738348D01*
X114415796Y-109731089D01*
X114431781Y-109725369D01*
X114448249Y-109721244D01*
X114465043Y-109718753D01*
X114482000Y-109717920D01*
X114878000Y-109717920D01*
X114894957Y-109718753D01*
X114894957Y-109718753D01*
G37*
D21*
X114680000Y-110063920D03*
D17*
G36*
X117141155Y-103394042D02*
G01*
X117157949Y-103396533D01*
X117174417Y-103400658D01*
X117190402Y-103406378D01*
X117205750Y-103413637D01*
X117220312Y-103422365D01*
X117233948Y-103432478D01*
X117246527Y-103443880D01*
X117257929Y-103456459D01*
X117268042Y-103470095D01*
X117276770Y-103484657D01*
X117284029Y-103500005D01*
X117289749Y-103515990D01*
X117293874Y-103532458D01*
X117296365Y-103549252D01*
X117297198Y-103566209D01*
X117297198Y-103912209D01*
X117296365Y-103929166D01*
X117293874Y-103945960D01*
X117289749Y-103962428D01*
X117284029Y-103978413D01*
X117276770Y-103993761D01*
X117268042Y-104008323D01*
X117257929Y-104021959D01*
X117246527Y-104034538D01*
X117233948Y-104045940D01*
X117220312Y-104056053D01*
X117205750Y-104064781D01*
X117190402Y-104072040D01*
X117174417Y-104077760D01*
X117157949Y-104081885D01*
X117141155Y-104084376D01*
X117124198Y-104085209D01*
X116728198Y-104085209D01*
X116711241Y-104084376D01*
X116694447Y-104081885D01*
X116677979Y-104077760D01*
X116661994Y-104072040D01*
X116646646Y-104064781D01*
X116632084Y-104056053D01*
X116618448Y-104045940D01*
X116605869Y-104034538D01*
X116594467Y-104021959D01*
X116584354Y-104008323D01*
X116575626Y-103993761D01*
X116568367Y-103978413D01*
X116562647Y-103962428D01*
X116558522Y-103945960D01*
X116556031Y-103929166D01*
X116555198Y-103912209D01*
X116555198Y-103566209D01*
X116556031Y-103549252D01*
X116558522Y-103532458D01*
X116562647Y-103515990D01*
X116568367Y-103500005D01*
X116575626Y-103484657D01*
X116584354Y-103470095D01*
X116594467Y-103456459D01*
X116605869Y-103443880D01*
X116618448Y-103432478D01*
X116632084Y-103422365D01*
X116646646Y-103413637D01*
X116661994Y-103406378D01*
X116677979Y-103400658D01*
X116694447Y-103396533D01*
X116711241Y-103394042D01*
X116728198Y-103393209D01*
X117124198Y-103393209D01*
X117141155Y-103394042D01*
X117141155Y-103394042D01*
G37*
D21*
X116926198Y-103739209D03*
D17*
G36*
X117141155Y-104364042D02*
G01*
X117157949Y-104366533D01*
X117174417Y-104370658D01*
X117190402Y-104376378D01*
X117205750Y-104383637D01*
X117220312Y-104392365D01*
X117233948Y-104402478D01*
X117246527Y-104413880D01*
X117257929Y-104426459D01*
X117268042Y-104440095D01*
X117276770Y-104454657D01*
X117284029Y-104470005D01*
X117289749Y-104485990D01*
X117293874Y-104502458D01*
X117296365Y-104519252D01*
X117297198Y-104536209D01*
X117297198Y-104882209D01*
X117296365Y-104899166D01*
X117293874Y-104915960D01*
X117289749Y-104932428D01*
X117284029Y-104948413D01*
X117276770Y-104963761D01*
X117268042Y-104978323D01*
X117257929Y-104991959D01*
X117246527Y-105004538D01*
X117233948Y-105015940D01*
X117220312Y-105026053D01*
X117205750Y-105034781D01*
X117190402Y-105042040D01*
X117174417Y-105047760D01*
X117157949Y-105051885D01*
X117141155Y-105054376D01*
X117124198Y-105055209D01*
X116728198Y-105055209D01*
X116711241Y-105054376D01*
X116694447Y-105051885D01*
X116677979Y-105047760D01*
X116661994Y-105042040D01*
X116646646Y-105034781D01*
X116632084Y-105026053D01*
X116618448Y-105015940D01*
X116605869Y-105004538D01*
X116594467Y-104991959D01*
X116584354Y-104978323D01*
X116575626Y-104963761D01*
X116568367Y-104948413D01*
X116562647Y-104932428D01*
X116558522Y-104915960D01*
X116556031Y-104899166D01*
X116555198Y-104882209D01*
X116555198Y-104536209D01*
X116556031Y-104519252D01*
X116558522Y-104502458D01*
X116562647Y-104485990D01*
X116568367Y-104470005D01*
X116575626Y-104454657D01*
X116584354Y-104440095D01*
X116594467Y-104426459D01*
X116605869Y-104413880D01*
X116618448Y-104402478D01*
X116632084Y-104392365D01*
X116646646Y-104383637D01*
X116661994Y-104376378D01*
X116677979Y-104370658D01*
X116694447Y-104366533D01*
X116711241Y-104364042D01*
X116728198Y-104363209D01*
X117124198Y-104363209D01*
X117141155Y-104364042D01*
X117141155Y-104364042D01*
G37*
D21*
X116926198Y-104709209D03*
D17*
G36*
X113844957Y-110688753D02*
G01*
X113861751Y-110691244D01*
X113878219Y-110695369D01*
X113894204Y-110701089D01*
X113909552Y-110708348D01*
X113924114Y-110717076D01*
X113937750Y-110727189D01*
X113950329Y-110738591D01*
X113961731Y-110751170D01*
X113971844Y-110764806D01*
X113980572Y-110779368D01*
X113987831Y-110794716D01*
X113993551Y-110810701D01*
X113997676Y-110827169D01*
X114000167Y-110843963D01*
X114001000Y-110860920D01*
X114001000Y-111206920D01*
X114000167Y-111223877D01*
X113997676Y-111240671D01*
X113993551Y-111257139D01*
X113987831Y-111273124D01*
X113980572Y-111288472D01*
X113971844Y-111303034D01*
X113961731Y-111316670D01*
X113950329Y-111329249D01*
X113937750Y-111340651D01*
X113924114Y-111350764D01*
X113909552Y-111359492D01*
X113894204Y-111366751D01*
X113878219Y-111372471D01*
X113861751Y-111376596D01*
X113844957Y-111379087D01*
X113828000Y-111379920D01*
X113432000Y-111379920D01*
X113415043Y-111379087D01*
X113398249Y-111376596D01*
X113381781Y-111372471D01*
X113365796Y-111366751D01*
X113350448Y-111359492D01*
X113335886Y-111350764D01*
X113322250Y-111340651D01*
X113309671Y-111329249D01*
X113298269Y-111316670D01*
X113288156Y-111303034D01*
X113279428Y-111288472D01*
X113272169Y-111273124D01*
X113266449Y-111257139D01*
X113262324Y-111240671D01*
X113259833Y-111223877D01*
X113259000Y-111206920D01*
X113259000Y-110860920D01*
X113259833Y-110843963D01*
X113262324Y-110827169D01*
X113266449Y-110810701D01*
X113272169Y-110794716D01*
X113279428Y-110779368D01*
X113288156Y-110764806D01*
X113298269Y-110751170D01*
X113309671Y-110738591D01*
X113322250Y-110727189D01*
X113335886Y-110717076D01*
X113350448Y-110708348D01*
X113365796Y-110701089D01*
X113381781Y-110695369D01*
X113398249Y-110691244D01*
X113415043Y-110688753D01*
X113432000Y-110687920D01*
X113828000Y-110687920D01*
X113844957Y-110688753D01*
X113844957Y-110688753D01*
G37*
D21*
X113630000Y-111033920D03*
D17*
G36*
X113844957Y-109718753D02*
G01*
X113861751Y-109721244D01*
X113878219Y-109725369D01*
X113894204Y-109731089D01*
X113909552Y-109738348D01*
X113924114Y-109747076D01*
X113937750Y-109757189D01*
X113950329Y-109768591D01*
X113961731Y-109781170D01*
X113971844Y-109794806D01*
X113980572Y-109809368D01*
X113987831Y-109824716D01*
X113993551Y-109840701D01*
X113997676Y-109857169D01*
X114000167Y-109873963D01*
X114001000Y-109890920D01*
X114001000Y-110236920D01*
X114000167Y-110253877D01*
X113997676Y-110270671D01*
X113993551Y-110287139D01*
X113987831Y-110303124D01*
X113980572Y-110318472D01*
X113971844Y-110333034D01*
X113961731Y-110346670D01*
X113950329Y-110359249D01*
X113937750Y-110370651D01*
X113924114Y-110380764D01*
X113909552Y-110389492D01*
X113894204Y-110396751D01*
X113878219Y-110402471D01*
X113861751Y-110406596D01*
X113844957Y-110409087D01*
X113828000Y-110409920D01*
X113432000Y-110409920D01*
X113415043Y-110409087D01*
X113398249Y-110406596D01*
X113381781Y-110402471D01*
X113365796Y-110396751D01*
X113350448Y-110389492D01*
X113335886Y-110380764D01*
X113322250Y-110370651D01*
X113309671Y-110359249D01*
X113298269Y-110346670D01*
X113288156Y-110333034D01*
X113279428Y-110318472D01*
X113272169Y-110303124D01*
X113266449Y-110287139D01*
X113262324Y-110270671D01*
X113259833Y-110253877D01*
X113259000Y-110236920D01*
X113259000Y-109890920D01*
X113259833Y-109873963D01*
X113262324Y-109857169D01*
X113266449Y-109840701D01*
X113272169Y-109824716D01*
X113279428Y-109809368D01*
X113288156Y-109794806D01*
X113298269Y-109781170D01*
X113309671Y-109768591D01*
X113322250Y-109757189D01*
X113335886Y-109747076D01*
X113350448Y-109738348D01*
X113365796Y-109731089D01*
X113381781Y-109725369D01*
X113398249Y-109721244D01*
X113415043Y-109718753D01*
X113432000Y-109717920D01*
X113828000Y-109717920D01*
X113844957Y-109718753D01*
X113844957Y-109718753D01*
G37*
D21*
X113630000Y-110063920D03*
D17*
G36*
X111094957Y-113359833D02*
G01*
X111111751Y-113362324D01*
X111128219Y-113366449D01*
X111144204Y-113372169D01*
X111159552Y-113379428D01*
X111174114Y-113388156D01*
X111187750Y-113398269D01*
X111200329Y-113409671D01*
X111211731Y-113422250D01*
X111221844Y-113435886D01*
X111230572Y-113450448D01*
X111237831Y-113465796D01*
X111243551Y-113481781D01*
X111247676Y-113498249D01*
X111250167Y-113515043D01*
X111251000Y-113532000D01*
X111251000Y-113878000D01*
X111250167Y-113894957D01*
X111247676Y-113911751D01*
X111243551Y-113928219D01*
X111237831Y-113944204D01*
X111230572Y-113959552D01*
X111221844Y-113974114D01*
X111211731Y-113987750D01*
X111200329Y-114000329D01*
X111187750Y-114011731D01*
X111174114Y-114021844D01*
X111159552Y-114030572D01*
X111144204Y-114037831D01*
X111128219Y-114043551D01*
X111111751Y-114047676D01*
X111094957Y-114050167D01*
X111078000Y-114051000D01*
X110682000Y-114051000D01*
X110665043Y-114050167D01*
X110648249Y-114047676D01*
X110631781Y-114043551D01*
X110615796Y-114037831D01*
X110600448Y-114030572D01*
X110585886Y-114021844D01*
X110572250Y-114011731D01*
X110559671Y-114000329D01*
X110548269Y-113987750D01*
X110538156Y-113974114D01*
X110529428Y-113959552D01*
X110522169Y-113944204D01*
X110516449Y-113928219D01*
X110512324Y-113911751D01*
X110509833Y-113894957D01*
X110509000Y-113878000D01*
X110509000Y-113532000D01*
X110509833Y-113515043D01*
X110512324Y-113498249D01*
X110516449Y-113481781D01*
X110522169Y-113465796D01*
X110529428Y-113450448D01*
X110538156Y-113435886D01*
X110548269Y-113422250D01*
X110559671Y-113409671D01*
X110572250Y-113398269D01*
X110585886Y-113388156D01*
X110600448Y-113379428D01*
X110615796Y-113372169D01*
X110631781Y-113366449D01*
X110648249Y-113362324D01*
X110665043Y-113359833D01*
X110682000Y-113359000D01*
X111078000Y-113359000D01*
X111094957Y-113359833D01*
X111094957Y-113359833D01*
G37*
D21*
X110880000Y-113705000D03*
D17*
G36*
X111094957Y-114329833D02*
G01*
X111111751Y-114332324D01*
X111128219Y-114336449D01*
X111144204Y-114342169D01*
X111159552Y-114349428D01*
X111174114Y-114358156D01*
X111187750Y-114368269D01*
X111200329Y-114379671D01*
X111211731Y-114392250D01*
X111221844Y-114405886D01*
X111230572Y-114420448D01*
X111237831Y-114435796D01*
X111243551Y-114451781D01*
X111247676Y-114468249D01*
X111250167Y-114485043D01*
X111251000Y-114502000D01*
X111251000Y-114848000D01*
X111250167Y-114864957D01*
X111247676Y-114881751D01*
X111243551Y-114898219D01*
X111237831Y-114914204D01*
X111230572Y-114929552D01*
X111221844Y-114944114D01*
X111211731Y-114957750D01*
X111200329Y-114970329D01*
X111187750Y-114981731D01*
X111174114Y-114991844D01*
X111159552Y-115000572D01*
X111144204Y-115007831D01*
X111128219Y-115013551D01*
X111111751Y-115017676D01*
X111094957Y-115020167D01*
X111078000Y-115021000D01*
X110682000Y-115021000D01*
X110665043Y-115020167D01*
X110648249Y-115017676D01*
X110631781Y-115013551D01*
X110615796Y-115007831D01*
X110600448Y-115000572D01*
X110585886Y-114991844D01*
X110572250Y-114981731D01*
X110559671Y-114970329D01*
X110548269Y-114957750D01*
X110538156Y-114944114D01*
X110529428Y-114929552D01*
X110522169Y-114914204D01*
X110516449Y-114898219D01*
X110512324Y-114881751D01*
X110509833Y-114864957D01*
X110509000Y-114848000D01*
X110509000Y-114502000D01*
X110509833Y-114485043D01*
X110512324Y-114468249D01*
X110516449Y-114451781D01*
X110522169Y-114435796D01*
X110529428Y-114420448D01*
X110538156Y-114405886D01*
X110548269Y-114392250D01*
X110559671Y-114379671D01*
X110572250Y-114368269D01*
X110585886Y-114358156D01*
X110600448Y-114349428D01*
X110615796Y-114342169D01*
X110631781Y-114336449D01*
X110648249Y-114332324D01*
X110665043Y-114329833D01*
X110682000Y-114329000D01*
X111078000Y-114329000D01*
X111094957Y-114329833D01*
X111094957Y-114329833D01*
G37*
D21*
X110880000Y-114675000D03*
D17*
G36*
X103285691Y-126440176D02*
G01*
X103309401Y-126443693D01*
X103332652Y-126449517D01*
X103355220Y-126457592D01*
X103376889Y-126467841D01*
X103397448Y-126480164D01*
X103416701Y-126494442D01*
X103434461Y-126510539D01*
X103450558Y-126528299D01*
X103464836Y-126547552D01*
X103477159Y-126568111D01*
X103487408Y-126589780D01*
X103495483Y-126612348D01*
X103501307Y-126635599D01*
X103504824Y-126659309D01*
X103506000Y-126683250D01*
X103506000Y-127171750D01*
X103504824Y-127195691D01*
X103501307Y-127219401D01*
X103495483Y-127242652D01*
X103487408Y-127265220D01*
X103477159Y-127286889D01*
X103464836Y-127307448D01*
X103450558Y-127326701D01*
X103434461Y-127344461D01*
X103416701Y-127360558D01*
X103397448Y-127374836D01*
X103376889Y-127387159D01*
X103355220Y-127397408D01*
X103332652Y-127405483D01*
X103309401Y-127411307D01*
X103285691Y-127414824D01*
X103261750Y-127416000D01*
X102698250Y-127416000D01*
X102674309Y-127414824D01*
X102650599Y-127411307D01*
X102627348Y-127405483D01*
X102604780Y-127397408D01*
X102583111Y-127387159D01*
X102562552Y-127374836D01*
X102543299Y-127360558D01*
X102525539Y-127344461D01*
X102509442Y-127326701D01*
X102495164Y-127307448D01*
X102482841Y-127286889D01*
X102472592Y-127265220D01*
X102464517Y-127242652D01*
X102458693Y-127219401D01*
X102455176Y-127195691D01*
X102454000Y-127171750D01*
X102454000Y-126683250D01*
X102455176Y-126659309D01*
X102458693Y-126635599D01*
X102464517Y-126612348D01*
X102472592Y-126589780D01*
X102482841Y-126568111D01*
X102495164Y-126547552D01*
X102509442Y-126528299D01*
X102525539Y-126510539D01*
X102543299Y-126494442D01*
X102562552Y-126480164D01*
X102583111Y-126467841D01*
X102604780Y-126457592D01*
X102627348Y-126449517D01*
X102650599Y-126443693D01*
X102674309Y-126440176D01*
X102698250Y-126439000D01*
X103261750Y-126439000D01*
X103285691Y-126440176D01*
X103285691Y-126440176D01*
G37*
D22*
X102980000Y-126927500D03*
D17*
G36*
X103285691Y-128015176D02*
G01*
X103309401Y-128018693D01*
X103332652Y-128024517D01*
X103355220Y-128032592D01*
X103376889Y-128042841D01*
X103397448Y-128055164D01*
X103416701Y-128069442D01*
X103434461Y-128085539D01*
X103450558Y-128103299D01*
X103464836Y-128122552D01*
X103477159Y-128143111D01*
X103487408Y-128164780D01*
X103495483Y-128187348D01*
X103501307Y-128210599D01*
X103504824Y-128234309D01*
X103506000Y-128258250D01*
X103506000Y-128746750D01*
X103504824Y-128770691D01*
X103501307Y-128794401D01*
X103495483Y-128817652D01*
X103487408Y-128840220D01*
X103477159Y-128861889D01*
X103464836Y-128882448D01*
X103450558Y-128901701D01*
X103434461Y-128919461D01*
X103416701Y-128935558D01*
X103397448Y-128949836D01*
X103376889Y-128962159D01*
X103355220Y-128972408D01*
X103332652Y-128980483D01*
X103309401Y-128986307D01*
X103285691Y-128989824D01*
X103261750Y-128991000D01*
X102698250Y-128991000D01*
X102674309Y-128989824D01*
X102650599Y-128986307D01*
X102627348Y-128980483D01*
X102604780Y-128972408D01*
X102583111Y-128962159D01*
X102562552Y-128949836D01*
X102543299Y-128935558D01*
X102525539Y-128919461D01*
X102509442Y-128901701D01*
X102495164Y-128882448D01*
X102482841Y-128861889D01*
X102472592Y-128840220D01*
X102464517Y-128817652D01*
X102458693Y-128794401D01*
X102455176Y-128770691D01*
X102454000Y-128746750D01*
X102454000Y-128258250D01*
X102455176Y-128234309D01*
X102458693Y-128210599D01*
X102464517Y-128187348D01*
X102472592Y-128164780D01*
X102482841Y-128143111D01*
X102495164Y-128122552D01*
X102509442Y-128103299D01*
X102525539Y-128085539D01*
X102543299Y-128069442D01*
X102562552Y-128055164D01*
X102583111Y-128042841D01*
X102604780Y-128032592D01*
X102627348Y-128024517D01*
X102650599Y-128018693D01*
X102674309Y-128015176D01*
X102698250Y-128014000D01*
X103261750Y-128014000D01*
X103285691Y-128015176D01*
X103285691Y-128015176D01*
G37*
D22*
X102980000Y-128502500D03*
D17*
G36*
X114106889Y-107299385D02*
G01*
X114130599Y-107302902D01*
X114153850Y-107308726D01*
X114176418Y-107316801D01*
X114198087Y-107327050D01*
X114218646Y-107339373D01*
X114237899Y-107353651D01*
X114255659Y-107369748D01*
X114271756Y-107387508D01*
X114286034Y-107406761D01*
X114298357Y-107427320D01*
X114308606Y-107448989D01*
X114316681Y-107471557D01*
X114322505Y-107494808D01*
X114326022Y-107518518D01*
X114327198Y-107542459D01*
X114327198Y-108105959D01*
X114326022Y-108129900D01*
X114322505Y-108153610D01*
X114316681Y-108176861D01*
X114308606Y-108199429D01*
X114298357Y-108221098D01*
X114286034Y-108241657D01*
X114271756Y-108260910D01*
X114255659Y-108278670D01*
X114237899Y-108294767D01*
X114218646Y-108309045D01*
X114198087Y-108321368D01*
X114176418Y-108331617D01*
X114153850Y-108339692D01*
X114130599Y-108345516D01*
X114106889Y-108349033D01*
X114082948Y-108350209D01*
X113594448Y-108350209D01*
X113570507Y-108349033D01*
X113546797Y-108345516D01*
X113523546Y-108339692D01*
X113500978Y-108331617D01*
X113479309Y-108321368D01*
X113458750Y-108309045D01*
X113439497Y-108294767D01*
X113421737Y-108278670D01*
X113405640Y-108260910D01*
X113391362Y-108241657D01*
X113379039Y-108221098D01*
X113368790Y-108199429D01*
X113360715Y-108176861D01*
X113354891Y-108153610D01*
X113351374Y-108129900D01*
X113350198Y-108105959D01*
X113350198Y-107542459D01*
X113351374Y-107518518D01*
X113354891Y-107494808D01*
X113360715Y-107471557D01*
X113368790Y-107448989D01*
X113379039Y-107427320D01*
X113391362Y-107406761D01*
X113405640Y-107387508D01*
X113421737Y-107369748D01*
X113439497Y-107353651D01*
X113458750Y-107339373D01*
X113479309Y-107327050D01*
X113500978Y-107316801D01*
X113523546Y-107308726D01*
X113546797Y-107302902D01*
X113570507Y-107299385D01*
X113594448Y-107298209D01*
X114082948Y-107298209D01*
X114106889Y-107299385D01*
X114106889Y-107299385D01*
G37*
D22*
X113838698Y-107824209D03*
D17*
G36*
X115681889Y-107299385D02*
G01*
X115705599Y-107302902D01*
X115728850Y-107308726D01*
X115751418Y-107316801D01*
X115773087Y-107327050D01*
X115793646Y-107339373D01*
X115812899Y-107353651D01*
X115830659Y-107369748D01*
X115846756Y-107387508D01*
X115861034Y-107406761D01*
X115873357Y-107427320D01*
X115883606Y-107448989D01*
X115891681Y-107471557D01*
X115897505Y-107494808D01*
X115901022Y-107518518D01*
X115902198Y-107542459D01*
X115902198Y-108105959D01*
X115901022Y-108129900D01*
X115897505Y-108153610D01*
X115891681Y-108176861D01*
X115883606Y-108199429D01*
X115873357Y-108221098D01*
X115861034Y-108241657D01*
X115846756Y-108260910D01*
X115830659Y-108278670D01*
X115812899Y-108294767D01*
X115793646Y-108309045D01*
X115773087Y-108321368D01*
X115751418Y-108331617D01*
X115728850Y-108339692D01*
X115705599Y-108345516D01*
X115681889Y-108349033D01*
X115657948Y-108350209D01*
X115169448Y-108350209D01*
X115145507Y-108349033D01*
X115121797Y-108345516D01*
X115098546Y-108339692D01*
X115075978Y-108331617D01*
X115054309Y-108321368D01*
X115033750Y-108309045D01*
X115014497Y-108294767D01*
X114996737Y-108278670D01*
X114980640Y-108260910D01*
X114966362Y-108241657D01*
X114954039Y-108221098D01*
X114943790Y-108199429D01*
X114935715Y-108176861D01*
X114929891Y-108153610D01*
X114926374Y-108129900D01*
X114925198Y-108105959D01*
X114925198Y-107542459D01*
X114926374Y-107518518D01*
X114929891Y-107494808D01*
X114935715Y-107471557D01*
X114943790Y-107448989D01*
X114954039Y-107427320D01*
X114966362Y-107406761D01*
X114980640Y-107387508D01*
X114996737Y-107369748D01*
X115014497Y-107353651D01*
X115033750Y-107339373D01*
X115054309Y-107327050D01*
X115075978Y-107316801D01*
X115098546Y-107308726D01*
X115121797Y-107302902D01*
X115145507Y-107299385D01*
X115169448Y-107298209D01*
X115657948Y-107298209D01*
X115681889Y-107299385D01*
X115681889Y-107299385D01*
G37*
D22*
X115413698Y-107824209D03*
D17*
G36*
X111031889Y-105099385D02*
G01*
X111055599Y-105102902D01*
X111078850Y-105108726D01*
X111101418Y-105116801D01*
X111123087Y-105127050D01*
X111143646Y-105139373D01*
X111162899Y-105153651D01*
X111180659Y-105169748D01*
X111196756Y-105187508D01*
X111211034Y-105206761D01*
X111223357Y-105227320D01*
X111233606Y-105248989D01*
X111241681Y-105271557D01*
X111247505Y-105294808D01*
X111251022Y-105318518D01*
X111252198Y-105342459D01*
X111252198Y-105830959D01*
X111251022Y-105854900D01*
X111247505Y-105878610D01*
X111241681Y-105901861D01*
X111233606Y-105924429D01*
X111223357Y-105946098D01*
X111211034Y-105966657D01*
X111196756Y-105985910D01*
X111180659Y-106003670D01*
X111162899Y-106019767D01*
X111143646Y-106034045D01*
X111123087Y-106046368D01*
X111101418Y-106056617D01*
X111078850Y-106064692D01*
X111055599Y-106070516D01*
X111031889Y-106074033D01*
X111007948Y-106075209D01*
X110444448Y-106075209D01*
X110420507Y-106074033D01*
X110396797Y-106070516D01*
X110373546Y-106064692D01*
X110350978Y-106056617D01*
X110329309Y-106046368D01*
X110308750Y-106034045D01*
X110289497Y-106019767D01*
X110271737Y-106003670D01*
X110255640Y-105985910D01*
X110241362Y-105966657D01*
X110229039Y-105946098D01*
X110218790Y-105924429D01*
X110210715Y-105901861D01*
X110204891Y-105878610D01*
X110201374Y-105854900D01*
X110200198Y-105830959D01*
X110200198Y-105342459D01*
X110201374Y-105318518D01*
X110204891Y-105294808D01*
X110210715Y-105271557D01*
X110218790Y-105248989D01*
X110229039Y-105227320D01*
X110241362Y-105206761D01*
X110255640Y-105187508D01*
X110271737Y-105169748D01*
X110289497Y-105153651D01*
X110308750Y-105139373D01*
X110329309Y-105127050D01*
X110350978Y-105116801D01*
X110373546Y-105108726D01*
X110396797Y-105102902D01*
X110420507Y-105099385D01*
X110444448Y-105098209D01*
X111007948Y-105098209D01*
X111031889Y-105099385D01*
X111031889Y-105099385D01*
G37*
D22*
X110726198Y-105586709D03*
D17*
G36*
X111031889Y-103524385D02*
G01*
X111055599Y-103527902D01*
X111078850Y-103533726D01*
X111101418Y-103541801D01*
X111123087Y-103552050D01*
X111143646Y-103564373D01*
X111162899Y-103578651D01*
X111180659Y-103594748D01*
X111196756Y-103612508D01*
X111211034Y-103631761D01*
X111223357Y-103652320D01*
X111233606Y-103673989D01*
X111241681Y-103696557D01*
X111247505Y-103719808D01*
X111251022Y-103743518D01*
X111252198Y-103767459D01*
X111252198Y-104255959D01*
X111251022Y-104279900D01*
X111247505Y-104303610D01*
X111241681Y-104326861D01*
X111233606Y-104349429D01*
X111223357Y-104371098D01*
X111211034Y-104391657D01*
X111196756Y-104410910D01*
X111180659Y-104428670D01*
X111162899Y-104444767D01*
X111143646Y-104459045D01*
X111123087Y-104471368D01*
X111101418Y-104481617D01*
X111078850Y-104489692D01*
X111055599Y-104495516D01*
X111031889Y-104499033D01*
X111007948Y-104500209D01*
X110444448Y-104500209D01*
X110420507Y-104499033D01*
X110396797Y-104495516D01*
X110373546Y-104489692D01*
X110350978Y-104481617D01*
X110329309Y-104471368D01*
X110308750Y-104459045D01*
X110289497Y-104444767D01*
X110271737Y-104428670D01*
X110255640Y-104410910D01*
X110241362Y-104391657D01*
X110229039Y-104371098D01*
X110218790Y-104349429D01*
X110210715Y-104326861D01*
X110204891Y-104303610D01*
X110201374Y-104279900D01*
X110200198Y-104255959D01*
X110200198Y-103767459D01*
X110201374Y-103743518D01*
X110204891Y-103719808D01*
X110210715Y-103696557D01*
X110218790Y-103673989D01*
X110229039Y-103652320D01*
X110241362Y-103631761D01*
X110255640Y-103612508D01*
X110271737Y-103594748D01*
X110289497Y-103578651D01*
X110308750Y-103564373D01*
X110329309Y-103552050D01*
X110350978Y-103541801D01*
X110373546Y-103533726D01*
X110396797Y-103527902D01*
X110420507Y-103524385D01*
X110444448Y-103523209D01*
X111007948Y-103523209D01*
X111031889Y-103524385D01*
X111031889Y-103524385D01*
G37*
D22*
X110726198Y-104011709D03*
D17*
G36*
X118606889Y-105061885D02*
G01*
X118630599Y-105065402D01*
X118653850Y-105071226D01*
X118676418Y-105079301D01*
X118698087Y-105089550D01*
X118718646Y-105101873D01*
X118737899Y-105116151D01*
X118755659Y-105132248D01*
X118771756Y-105150008D01*
X118786034Y-105169261D01*
X118798357Y-105189820D01*
X118808606Y-105211489D01*
X118816681Y-105234057D01*
X118822505Y-105257308D01*
X118826022Y-105281018D01*
X118827198Y-105304959D01*
X118827198Y-105793459D01*
X118826022Y-105817400D01*
X118822505Y-105841110D01*
X118816681Y-105864361D01*
X118808606Y-105886929D01*
X118798357Y-105908598D01*
X118786034Y-105929157D01*
X118771756Y-105948410D01*
X118755659Y-105966170D01*
X118737899Y-105982267D01*
X118718646Y-105996545D01*
X118698087Y-106008868D01*
X118676418Y-106019117D01*
X118653850Y-106027192D01*
X118630599Y-106033016D01*
X118606889Y-106036533D01*
X118582948Y-106037709D01*
X118019448Y-106037709D01*
X117995507Y-106036533D01*
X117971797Y-106033016D01*
X117948546Y-106027192D01*
X117925978Y-106019117D01*
X117904309Y-106008868D01*
X117883750Y-105996545D01*
X117864497Y-105982267D01*
X117846737Y-105966170D01*
X117830640Y-105948410D01*
X117816362Y-105929157D01*
X117804039Y-105908598D01*
X117793790Y-105886929D01*
X117785715Y-105864361D01*
X117779891Y-105841110D01*
X117776374Y-105817400D01*
X117775198Y-105793459D01*
X117775198Y-105304959D01*
X117776374Y-105281018D01*
X117779891Y-105257308D01*
X117785715Y-105234057D01*
X117793790Y-105211489D01*
X117804039Y-105189820D01*
X117816362Y-105169261D01*
X117830640Y-105150008D01*
X117846737Y-105132248D01*
X117864497Y-105116151D01*
X117883750Y-105101873D01*
X117904309Y-105089550D01*
X117925978Y-105079301D01*
X117948546Y-105071226D01*
X117971797Y-105065402D01*
X117995507Y-105061885D01*
X118019448Y-105060709D01*
X118582948Y-105060709D01*
X118606889Y-105061885D01*
X118606889Y-105061885D01*
G37*
D22*
X118301198Y-105549209D03*
D17*
G36*
X118606889Y-103486885D02*
G01*
X118630599Y-103490402D01*
X118653850Y-103496226D01*
X118676418Y-103504301D01*
X118698087Y-103514550D01*
X118718646Y-103526873D01*
X118737899Y-103541151D01*
X118755659Y-103557248D01*
X118771756Y-103575008D01*
X118786034Y-103594261D01*
X118798357Y-103614820D01*
X118808606Y-103636489D01*
X118816681Y-103659057D01*
X118822505Y-103682308D01*
X118826022Y-103706018D01*
X118827198Y-103729959D01*
X118827198Y-104218459D01*
X118826022Y-104242400D01*
X118822505Y-104266110D01*
X118816681Y-104289361D01*
X118808606Y-104311929D01*
X118798357Y-104333598D01*
X118786034Y-104354157D01*
X118771756Y-104373410D01*
X118755659Y-104391170D01*
X118737899Y-104407267D01*
X118718646Y-104421545D01*
X118698087Y-104433868D01*
X118676418Y-104444117D01*
X118653850Y-104452192D01*
X118630599Y-104458016D01*
X118606889Y-104461533D01*
X118582948Y-104462709D01*
X118019448Y-104462709D01*
X117995507Y-104461533D01*
X117971797Y-104458016D01*
X117948546Y-104452192D01*
X117925978Y-104444117D01*
X117904309Y-104433868D01*
X117883750Y-104421545D01*
X117864497Y-104407267D01*
X117846737Y-104391170D01*
X117830640Y-104373410D01*
X117816362Y-104354157D01*
X117804039Y-104333598D01*
X117793790Y-104311929D01*
X117785715Y-104289361D01*
X117779891Y-104266110D01*
X117776374Y-104242400D01*
X117775198Y-104218459D01*
X117775198Y-103729959D01*
X117776374Y-103706018D01*
X117779891Y-103682308D01*
X117785715Y-103659057D01*
X117793790Y-103636489D01*
X117804039Y-103614820D01*
X117816362Y-103594261D01*
X117830640Y-103575008D01*
X117846737Y-103557248D01*
X117864497Y-103541151D01*
X117883750Y-103526873D01*
X117904309Y-103514550D01*
X117925978Y-103504301D01*
X117948546Y-103496226D01*
X117971797Y-103490402D01*
X117995507Y-103486885D01*
X118019448Y-103485709D01*
X118582948Y-103485709D01*
X118606889Y-103486885D01*
X118606889Y-103486885D01*
G37*
D22*
X118301198Y-103974209D03*
D16*
X127060000Y-120890000D03*
X124980000Y-101940000D03*
D23*
X126250000Y-101940000D03*
X124980000Y-103210000D03*
X126250000Y-103210000D03*
X124980000Y-104480000D03*
X126250000Y-104480000D03*
X124980000Y-105750000D03*
X126250000Y-105750000D03*
X124980000Y-107020000D03*
X126250000Y-107020000D03*
D16*
X127060000Y-113890000D03*
D24*
X115496198Y-103924209D03*
X113506198Y-103924209D03*
D25*
X114501198Y-103979209D03*
X114501198Y-105969209D03*
D24*
X115496198Y-105324209D03*
X115496198Y-104624209D03*
X115496198Y-106024209D03*
X113506198Y-104624209D03*
X113506198Y-106024209D03*
X113506198Y-105324209D03*
D17*
G36*
X115676155Y-101304042D02*
G01*
X115692949Y-101306533D01*
X115709417Y-101310658D01*
X115725402Y-101316378D01*
X115740750Y-101323637D01*
X115755312Y-101332365D01*
X115768948Y-101342478D01*
X115781527Y-101353880D01*
X115792929Y-101366459D01*
X115803042Y-101380095D01*
X115811770Y-101394657D01*
X115819029Y-101410005D01*
X115824749Y-101425990D01*
X115828874Y-101442458D01*
X115831365Y-101459252D01*
X115832198Y-101476209D01*
X115832198Y-101872209D01*
X115831365Y-101889166D01*
X115828874Y-101905960D01*
X115824749Y-101922428D01*
X115819029Y-101938413D01*
X115811770Y-101953761D01*
X115803042Y-101968323D01*
X115792929Y-101981959D01*
X115781527Y-101994538D01*
X115768948Y-102005940D01*
X115755312Y-102016053D01*
X115740750Y-102024781D01*
X115725402Y-102032040D01*
X115709417Y-102037760D01*
X115692949Y-102041885D01*
X115676155Y-102044376D01*
X115659198Y-102045209D01*
X115313198Y-102045209D01*
X115296241Y-102044376D01*
X115279447Y-102041885D01*
X115262979Y-102037760D01*
X115246994Y-102032040D01*
X115231646Y-102024781D01*
X115217084Y-102016053D01*
X115203448Y-102005940D01*
X115190869Y-101994538D01*
X115179467Y-101981959D01*
X115169354Y-101968323D01*
X115160626Y-101953761D01*
X115153367Y-101938413D01*
X115147647Y-101922428D01*
X115143522Y-101905960D01*
X115141031Y-101889166D01*
X115140198Y-101872209D01*
X115140198Y-101476209D01*
X115141031Y-101459252D01*
X115143522Y-101442458D01*
X115147647Y-101425990D01*
X115153367Y-101410005D01*
X115160626Y-101394657D01*
X115169354Y-101380095D01*
X115179467Y-101366459D01*
X115190869Y-101353880D01*
X115203448Y-101342478D01*
X115217084Y-101332365D01*
X115231646Y-101323637D01*
X115246994Y-101316378D01*
X115262979Y-101310658D01*
X115279447Y-101306533D01*
X115296241Y-101304042D01*
X115313198Y-101303209D01*
X115659198Y-101303209D01*
X115676155Y-101304042D01*
X115676155Y-101304042D01*
G37*
D21*
X115486198Y-101674209D03*
D17*
G36*
X114706155Y-101304042D02*
G01*
X114722949Y-101306533D01*
X114739417Y-101310658D01*
X114755402Y-101316378D01*
X114770750Y-101323637D01*
X114785312Y-101332365D01*
X114798948Y-101342478D01*
X114811527Y-101353880D01*
X114822929Y-101366459D01*
X114833042Y-101380095D01*
X114841770Y-101394657D01*
X114849029Y-101410005D01*
X114854749Y-101425990D01*
X114858874Y-101442458D01*
X114861365Y-101459252D01*
X114862198Y-101476209D01*
X114862198Y-101872209D01*
X114861365Y-101889166D01*
X114858874Y-101905960D01*
X114854749Y-101922428D01*
X114849029Y-101938413D01*
X114841770Y-101953761D01*
X114833042Y-101968323D01*
X114822929Y-101981959D01*
X114811527Y-101994538D01*
X114798948Y-102005940D01*
X114785312Y-102016053D01*
X114770750Y-102024781D01*
X114755402Y-102032040D01*
X114739417Y-102037760D01*
X114722949Y-102041885D01*
X114706155Y-102044376D01*
X114689198Y-102045209D01*
X114343198Y-102045209D01*
X114326241Y-102044376D01*
X114309447Y-102041885D01*
X114292979Y-102037760D01*
X114276994Y-102032040D01*
X114261646Y-102024781D01*
X114247084Y-102016053D01*
X114233448Y-102005940D01*
X114220869Y-101994538D01*
X114209467Y-101981959D01*
X114199354Y-101968323D01*
X114190626Y-101953761D01*
X114183367Y-101938413D01*
X114177647Y-101922428D01*
X114173522Y-101905960D01*
X114171031Y-101889166D01*
X114170198Y-101872209D01*
X114170198Y-101476209D01*
X114171031Y-101459252D01*
X114173522Y-101442458D01*
X114177647Y-101425990D01*
X114183367Y-101410005D01*
X114190626Y-101394657D01*
X114199354Y-101380095D01*
X114209467Y-101366459D01*
X114220869Y-101353880D01*
X114233448Y-101342478D01*
X114247084Y-101332365D01*
X114261646Y-101323637D01*
X114276994Y-101316378D01*
X114292979Y-101310658D01*
X114309447Y-101306533D01*
X114326241Y-101304042D01*
X114343198Y-101303209D01*
X114689198Y-101303209D01*
X114706155Y-101304042D01*
X114706155Y-101304042D01*
G37*
D21*
X114516198Y-101674209D03*
D17*
G36*
X112341155Y-104389042D02*
G01*
X112357949Y-104391533D01*
X112374417Y-104395658D01*
X112390402Y-104401378D01*
X112405750Y-104408637D01*
X112420312Y-104417365D01*
X112433948Y-104427478D01*
X112446527Y-104438880D01*
X112457929Y-104451459D01*
X112468042Y-104465095D01*
X112476770Y-104479657D01*
X112484029Y-104495005D01*
X112489749Y-104510990D01*
X112493874Y-104527458D01*
X112496365Y-104544252D01*
X112497198Y-104561209D01*
X112497198Y-104907209D01*
X112496365Y-104924166D01*
X112493874Y-104940960D01*
X112489749Y-104957428D01*
X112484029Y-104973413D01*
X112476770Y-104988761D01*
X112468042Y-105003323D01*
X112457929Y-105016959D01*
X112446527Y-105029538D01*
X112433948Y-105040940D01*
X112420312Y-105051053D01*
X112405750Y-105059781D01*
X112390402Y-105067040D01*
X112374417Y-105072760D01*
X112357949Y-105076885D01*
X112341155Y-105079376D01*
X112324198Y-105080209D01*
X111928198Y-105080209D01*
X111911241Y-105079376D01*
X111894447Y-105076885D01*
X111877979Y-105072760D01*
X111861994Y-105067040D01*
X111846646Y-105059781D01*
X111832084Y-105051053D01*
X111818448Y-105040940D01*
X111805869Y-105029538D01*
X111794467Y-105016959D01*
X111784354Y-105003323D01*
X111775626Y-104988761D01*
X111768367Y-104973413D01*
X111762647Y-104957428D01*
X111758522Y-104940960D01*
X111756031Y-104924166D01*
X111755198Y-104907209D01*
X111755198Y-104561209D01*
X111756031Y-104544252D01*
X111758522Y-104527458D01*
X111762647Y-104510990D01*
X111768367Y-104495005D01*
X111775626Y-104479657D01*
X111784354Y-104465095D01*
X111794467Y-104451459D01*
X111805869Y-104438880D01*
X111818448Y-104427478D01*
X111832084Y-104417365D01*
X111846646Y-104408637D01*
X111861994Y-104401378D01*
X111877979Y-104395658D01*
X111894447Y-104391533D01*
X111911241Y-104389042D01*
X111928198Y-104388209D01*
X112324198Y-104388209D01*
X112341155Y-104389042D01*
X112341155Y-104389042D01*
G37*
D21*
X112126198Y-104734209D03*
D17*
G36*
X112341155Y-103419042D02*
G01*
X112357949Y-103421533D01*
X112374417Y-103425658D01*
X112390402Y-103431378D01*
X112405750Y-103438637D01*
X112420312Y-103447365D01*
X112433948Y-103457478D01*
X112446527Y-103468880D01*
X112457929Y-103481459D01*
X112468042Y-103495095D01*
X112476770Y-103509657D01*
X112484029Y-103525005D01*
X112489749Y-103540990D01*
X112493874Y-103557458D01*
X112496365Y-103574252D01*
X112497198Y-103591209D01*
X112497198Y-103937209D01*
X112496365Y-103954166D01*
X112493874Y-103970960D01*
X112489749Y-103987428D01*
X112484029Y-104003413D01*
X112476770Y-104018761D01*
X112468042Y-104033323D01*
X112457929Y-104046959D01*
X112446527Y-104059538D01*
X112433948Y-104070940D01*
X112420312Y-104081053D01*
X112405750Y-104089781D01*
X112390402Y-104097040D01*
X112374417Y-104102760D01*
X112357949Y-104106885D01*
X112341155Y-104109376D01*
X112324198Y-104110209D01*
X111928198Y-104110209D01*
X111911241Y-104109376D01*
X111894447Y-104106885D01*
X111877979Y-104102760D01*
X111861994Y-104097040D01*
X111846646Y-104089781D01*
X111832084Y-104081053D01*
X111818448Y-104070940D01*
X111805869Y-104059538D01*
X111794467Y-104046959D01*
X111784354Y-104033323D01*
X111775626Y-104018761D01*
X111768367Y-104003413D01*
X111762647Y-103987428D01*
X111758522Y-103970960D01*
X111756031Y-103954166D01*
X111755198Y-103937209D01*
X111755198Y-103591209D01*
X111756031Y-103574252D01*
X111758522Y-103557458D01*
X111762647Y-103540990D01*
X111768367Y-103525005D01*
X111775626Y-103509657D01*
X111784354Y-103495095D01*
X111794467Y-103481459D01*
X111805869Y-103468880D01*
X111818448Y-103457478D01*
X111832084Y-103447365D01*
X111846646Y-103438637D01*
X111861994Y-103431378D01*
X111877979Y-103425658D01*
X111894447Y-103421533D01*
X111911241Y-103419042D01*
X111928198Y-103418209D01*
X112324198Y-103418209D01*
X112341155Y-103419042D01*
X112341155Y-103419042D01*
G37*
D21*
X112126198Y-103764209D03*
D17*
G36*
X105992504Y-120190327D02*
G01*
X106019247Y-120194294D01*
X106045473Y-120200863D01*
X106070929Y-120209971D01*
X106095370Y-120221531D01*
X106118560Y-120235430D01*
X106140275Y-120251536D01*
X106160308Y-120269692D01*
X106178464Y-120289725D01*
X106194570Y-120311440D01*
X106208469Y-120334630D01*
X106220029Y-120359071D01*
X106229137Y-120384527D01*
X106235706Y-120410753D01*
X106239673Y-120437496D01*
X106241000Y-120464500D01*
X106241000Y-121015500D01*
X106239673Y-121042504D01*
X106235706Y-121069247D01*
X106229137Y-121095473D01*
X106220029Y-121120929D01*
X106208469Y-121145370D01*
X106194570Y-121168560D01*
X106178464Y-121190275D01*
X106160308Y-121210308D01*
X106140275Y-121228464D01*
X106118560Y-121244570D01*
X106095370Y-121258469D01*
X106070929Y-121270029D01*
X106045473Y-121279137D01*
X106019247Y-121285706D01*
X105992504Y-121289673D01*
X105965500Y-121291000D01*
X104864500Y-121291000D01*
X104837496Y-121289673D01*
X104810753Y-121285706D01*
X104784527Y-121279137D01*
X104759071Y-121270029D01*
X104734630Y-121258469D01*
X104711440Y-121244570D01*
X104689725Y-121228464D01*
X104669692Y-121210308D01*
X104651536Y-121190275D01*
X104635430Y-121168560D01*
X104621531Y-121145370D01*
X104609971Y-121120929D01*
X104600863Y-121095473D01*
X104594294Y-121069247D01*
X104590327Y-121042504D01*
X104589000Y-121015500D01*
X104589000Y-120464500D01*
X104590327Y-120437496D01*
X104594294Y-120410753D01*
X104600863Y-120384527D01*
X104609971Y-120359071D01*
X104621531Y-120334630D01*
X104635430Y-120311440D01*
X104651536Y-120289725D01*
X104669692Y-120269692D01*
X104689725Y-120251536D01*
X104711440Y-120235430D01*
X104734630Y-120221531D01*
X104759071Y-120209971D01*
X104784527Y-120200863D01*
X104810753Y-120194294D01*
X104837496Y-120190327D01*
X104864500Y-120189000D01*
X105965500Y-120189000D01*
X105992504Y-120190327D01*
X105992504Y-120190327D01*
G37*
D20*
X105415000Y-120740000D03*
D17*
G36*
X103442504Y-120190327D02*
G01*
X103469247Y-120194294D01*
X103495473Y-120200863D01*
X103520929Y-120209971D01*
X103545370Y-120221531D01*
X103568560Y-120235430D01*
X103590275Y-120251536D01*
X103610308Y-120269692D01*
X103628464Y-120289725D01*
X103644570Y-120311440D01*
X103658469Y-120334630D01*
X103670029Y-120359071D01*
X103679137Y-120384527D01*
X103685706Y-120410753D01*
X103689673Y-120437496D01*
X103691000Y-120464500D01*
X103691000Y-121015500D01*
X103689673Y-121042504D01*
X103685706Y-121069247D01*
X103679137Y-121095473D01*
X103670029Y-121120929D01*
X103658469Y-121145370D01*
X103644570Y-121168560D01*
X103628464Y-121190275D01*
X103610308Y-121210308D01*
X103590275Y-121228464D01*
X103568560Y-121244570D01*
X103545370Y-121258469D01*
X103520929Y-121270029D01*
X103495473Y-121279137D01*
X103469247Y-121285706D01*
X103442504Y-121289673D01*
X103415500Y-121291000D01*
X102314500Y-121291000D01*
X102287496Y-121289673D01*
X102260753Y-121285706D01*
X102234527Y-121279137D01*
X102209071Y-121270029D01*
X102184630Y-121258469D01*
X102161440Y-121244570D01*
X102139725Y-121228464D01*
X102119692Y-121210308D01*
X102101536Y-121190275D01*
X102085430Y-121168560D01*
X102071531Y-121145370D01*
X102059971Y-121120929D01*
X102050863Y-121095473D01*
X102044294Y-121069247D01*
X102040327Y-121042504D01*
X102039000Y-121015500D01*
X102039000Y-120464500D01*
X102040327Y-120437496D01*
X102044294Y-120410753D01*
X102050863Y-120384527D01*
X102059971Y-120359071D01*
X102071531Y-120334630D01*
X102085430Y-120311440D01*
X102101536Y-120289725D01*
X102119692Y-120269692D01*
X102139725Y-120251536D01*
X102161440Y-120235430D01*
X102184630Y-120221531D01*
X102209071Y-120209971D01*
X102234527Y-120200863D01*
X102260753Y-120194294D01*
X102287496Y-120190327D01*
X102314500Y-120189000D01*
X103415500Y-120189000D01*
X103442504Y-120190327D01*
X103442504Y-120190327D01*
G37*
D20*
X102865000Y-120740000D03*
D17*
G36*
X105992504Y-124390327D02*
G01*
X106019247Y-124394294D01*
X106045473Y-124400863D01*
X106070929Y-124409971D01*
X106095370Y-124421531D01*
X106118560Y-124435430D01*
X106140275Y-124451536D01*
X106160308Y-124469692D01*
X106178464Y-124489725D01*
X106194570Y-124511440D01*
X106208469Y-124534630D01*
X106220029Y-124559071D01*
X106229137Y-124584527D01*
X106235706Y-124610753D01*
X106239673Y-124637496D01*
X106241000Y-124664500D01*
X106241000Y-125215500D01*
X106239673Y-125242504D01*
X106235706Y-125269247D01*
X106229137Y-125295473D01*
X106220029Y-125320929D01*
X106208469Y-125345370D01*
X106194570Y-125368560D01*
X106178464Y-125390275D01*
X106160308Y-125410308D01*
X106140275Y-125428464D01*
X106118560Y-125444570D01*
X106095370Y-125458469D01*
X106070929Y-125470029D01*
X106045473Y-125479137D01*
X106019247Y-125485706D01*
X105992504Y-125489673D01*
X105965500Y-125491000D01*
X104864500Y-125491000D01*
X104837496Y-125489673D01*
X104810753Y-125485706D01*
X104784527Y-125479137D01*
X104759071Y-125470029D01*
X104734630Y-125458469D01*
X104711440Y-125444570D01*
X104689725Y-125428464D01*
X104669692Y-125410308D01*
X104651536Y-125390275D01*
X104635430Y-125368560D01*
X104621531Y-125345370D01*
X104609971Y-125320929D01*
X104600863Y-125295473D01*
X104594294Y-125269247D01*
X104590327Y-125242504D01*
X104589000Y-125215500D01*
X104589000Y-124664500D01*
X104590327Y-124637496D01*
X104594294Y-124610753D01*
X104600863Y-124584527D01*
X104609971Y-124559071D01*
X104621531Y-124534630D01*
X104635430Y-124511440D01*
X104651536Y-124489725D01*
X104669692Y-124469692D01*
X104689725Y-124451536D01*
X104711440Y-124435430D01*
X104734630Y-124421531D01*
X104759071Y-124409971D01*
X104784527Y-124400863D01*
X104810753Y-124394294D01*
X104837496Y-124390327D01*
X104864500Y-124389000D01*
X105965500Y-124389000D01*
X105992504Y-124390327D01*
X105992504Y-124390327D01*
G37*
D20*
X105415000Y-124940000D03*
D17*
G36*
X103442504Y-124390327D02*
G01*
X103469247Y-124394294D01*
X103495473Y-124400863D01*
X103520929Y-124409971D01*
X103545370Y-124421531D01*
X103568560Y-124435430D01*
X103590275Y-124451536D01*
X103610308Y-124469692D01*
X103628464Y-124489725D01*
X103644570Y-124511440D01*
X103658469Y-124534630D01*
X103670029Y-124559071D01*
X103679137Y-124584527D01*
X103685706Y-124610753D01*
X103689673Y-124637496D01*
X103691000Y-124664500D01*
X103691000Y-125215500D01*
X103689673Y-125242504D01*
X103685706Y-125269247D01*
X103679137Y-125295473D01*
X103670029Y-125320929D01*
X103658469Y-125345370D01*
X103644570Y-125368560D01*
X103628464Y-125390275D01*
X103610308Y-125410308D01*
X103590275Y-125428464D01*
X103568560Y-125444570D01*
X103545370Y-125458469D01*
X103520929Y-125470029D01*
X103495473Y-125479137D01*
X103469247Y-125485706D01*
X103442504Y-125489673D01*
X103415500Y-125491000D01*
X102314500Y-125491000D01*
X102287496Y-125489673D01*
X102260753Y-125485706D01*
X102234527Y-125479137D01*
X102209071Y-125470029D01*
X102184630Y-125458469D01*
X102161440Y-125444570D01*
X102139725Y-125428464D01*
X102119692Y-125410308D01*
X102101536Y-125390275D01*
X102085430Y-125368560D01*
X102071531Y-125345370D01*
X102059971Y-125320929D01*
X102050863Y-125295473D01*
X102044294Y-125269247D01*
X102040327Y-125242504D01*
X102039000Y-125215500D01*
X102039000Y-124664500D01*
X102040327Y-124637496D01*
X102044294Y-124610753D01*
X102050863Y-124584527D01*
X102059971Y-124559071D01*
X102071531Y-124534630D01*
X102085430Y-124511440D01*
X102101536Y-124489725D01*
X102119692Y-124469692D01*
X102139725Y-124451536D01*
X102161440Y-124435430D01*
X102184630Y-124421531D01*
X102209071Y-124409971D01*
X102234527Y-124400863D01*
X102260753Y-124394294D01*
X102287496Y-124390327D01*
X102314500Y-124389000D01*
X103415500Y-124389000D01*
X103442504Y-124390327D01*
X103442504Y-124390327D01*
G37*
D20*
X102865000Y-124940000D03*
D16*
X127060000Y-119490000D03*
X128310000Y-109150000D03*
X127060000Y-118090000D03*
X128310000Y-110550000D03*
D26*
X107900000Y-127675000D03*
X104900000Y-127675000D03*
X107920000Y-117900000D03*
X104920000Y-117900000D03*
D17*
G36*
X103325691Y-116625176D02*
G01*
X103349401Y-116628693D01*
X103372652Y-116634517D01*
X103395220Y-116642592D01*
X103416889Y-116652841D01*
X103437448Y-116665164D01*
X103456701Y-116679442D01*
X103474461Y-116695539D01*
X103490558Y-116713299D01*
X103504836Y-116732552D01*
X103517159Y-116753111D01*
X103527408Y-116774780D01*
X103535483Y-116797348D01*
X103541307Y-116820599D01*
X103544824Y-116844309D01*
X103546000Y-116868250D01*
X103546000Y-117356750D01*
X103544824Y-117380691D01*
X103541307Y-117404401D01*
X103535483Y-117427652D01*
X103527408Y-117450220D01*
X103517159Y-117471889D01*
X103504836Y-117492448D01*
X103490558Y-117511701D01*
X103474461Y-117529461D01*
X103456701Y-117545558D01*
X103437448Y-117559836D01*
X103416889Y-117572159D01*
X103395220Y-117582408D01*
X103372652Y-117590483D01*
X103349401Y-117596307D01*
X103325691Y-117599824D01*
X103301750Y-117601000D01*
X102738250Y-117601000D01*
X102714309Y-117599824D01*
X102690599Y-117596307D01*
X102667348Y-117590483D01*
X102644780Y-117582408D01*
X102623111Y-117572159D01*
X102602552Y-117559836D01*
X102583299Y-117545558D01*
X102565539Y-117529461D01*
X102549442Y-117511701D01*
X102535164Y-117492448D01*
X102522841Y-117471889D01*
X102512592Y-117450220D01*
X102504517Y-117427652D01*
X102498693Y-117404401D01*
X102495176Y-117380691D01*
X102494000Y-117356750D01*
X102494000Y-116868250D01*
X102495176Y-116844309D01*
X102498693Y-116820599D01*
X102504517Y-116797348D01*
X102512592Y-116774780D01*
X102522841Y-116753111D01*
X102535164Y-116732552D01*
X102549442Y-116713299D01*
X102565539Y-116695539D01*
X102583299Y-116679442D01*
X102602552Y-116665164D01*
X102623111Y-116652841D01*
X102644780Y-116642592D01*
X102667348Y-116634517D01*
X102690599Y-116628693D01*
X102714309Y-116625176D01*
X102738250Y-116624000D01*
X103301750Y-116624000D01*
X103325691Y-116625176D01*
X103325691Y-116625176D01*
G37*
D22*
X103020000Y-117112500D03*
D17*
G36*
X103325691Y-118200176D02*
G01*
X103349401Y-118203693D01*
X103372652Y-118209517D01*
X103395220Y-118217592D01*
X103416889Y-118227841D01*
X103437448Y-118240164D01*
X103456701Y-118254442D01*
X103474461Y-118270539D01*
X103490558Y-118288299D01*
X103504836Y-118307552D01*
X103517159Y-118328111D01*
X103527408Y-118349780D01*
X103535483Y-118372348D01*
X103541307Y-118395599D01*
X103544824Y-118419309D01*
X103546000Y-118443250D01*
X103546000Y-118931750D01*
X103544824Y-118955691D01*
X103541307Y-118979401D01*
X103535483Y-119002652D01*
X103527408Y-119025220D01*
X103517159Y-119046889D01*
X103504836Y-119067448D01*
X103490558Y-119086701D01*
X103474461Y-119104461D01*
X103456701Y-119120558D01*
X103437448Y-119134836D01*
X103416889Y-119147159D01*
X103395220Y-119157408D01*
X103372652Y-119165483D01*
X103349401Y-119171307D01*
X103325691Y-119174824D01*
X103301750Y-119176000D01*
X102738250Y-119176000D01*
X102714309Y-119174824D01*
X102690599Y-119171307D01*
X102667348Y-119165483D01*
X102644780Y-119157408D01*
X102623111Y-119147159D01*
X102602552Y-119134836D01*
X102583299Y-119120558D01*
X102565539Y-119104461D01*
X102549442Y-119086701D01*
X102535164Y-119067448D01*
X102522841Y-119046889D01*
X102512592Y-119025220D01*
X102504517Y-119002652D01*
X102498693Y-118979401D01*
X102495176Y-118955691D01*
X102494000Y-118931750D01*
X102494000Y-118443250D01*
X102495176Y-118419309D01*
X102498693Y-118395599D01*
X102504517Y-118372348D01*
X102512592Y-118349780D01*
X102522841Y-118328111D01*
X102535164Y-118307552D01*
X102549442Y-118288299D01*
X102565539Y-118270539D01*
X102583299Y-118254442D01*
X102602552Y-118240164D01*
X102623111Y-118227841D01*
X102644780Y-118217592D01*
X102667348Y-118209517D01*
X102690599Y-118203693D01*
X102714309Y-118200176D01*
X102738250Y-118199000D01*
X103301750Y-118199000D01*
X103325691Y-118200176D01*
X103325691Y-118200176D01*
G37*
D22*
X103020000Y-118687500D03*
D17*
G36*
X114731155Y-102479042D02*
G01*
X114747949Y-102481533D01*
X114764417Y-102485658D01*
X114780402Y-102491378D01*
X114795750Y-102498637D01*
X114810312Y-102507365D01*
X114823948Y-102517478D01*
X114836527Y-102528880D01*
X114847929Y-102541459D01*
X114858042Y-102555095D01*
X114866770Y-102569657D01*
X114874029Y-102585005D01*
X114879749Y-102600990D01*
X114883874Y-102617458D01*
X114886365Y-102634252D01*
X114887198Y-102651209D01*
X114887198Y-103047209D01*
X114886365Y-103064166D01*
X114883874Y-103080960D01*
X114879749Y-103097428D01*
X114874029Y-103113413D01*
X114866770Y-103128761D01*
X114858042Y-103143323D01*
X114847929Y-103156959D01*
X114836527Y-103169538D01*
X114823948Y-103180940D01*
X114810312Y-103191053D01*
X114795750Y-103199781D01*
X114780402Y-103207040D01*
X114764417Y-103212760D01*
X114747949Y-103216885D01*
X114731155Y-103219376D01*
X114714198Y-103220209D01*
X114368198Y-103220209D01*
X114351241Y-103219376D01*
X114334447Y-103216885D01*
X114317979Y-103212760D01*
X114301994Y-103207040D01*
X114286646Y-103199781D01*
X114272084Y-103191053D01*
X114258448Y-103180940D01*
X114245869Y-103169538D01*
X114234467Y-103156959D01*
X114224354Y-103143323D01*
X114215626Y-103128761D01*
X114208367Y-103113413D01*
X114202647Y-103097428D01*
X114198522Y-103080960D01*
X114196031Y-103064166D01*
X114195198Y-103047209D01*
X114195198Y-102651209D01*
X114196031Y-102634252D01*
X114198522Y-102617458D01*
X114202647Y-102600990D01*
X114208367Y-102585005D01*
X114215626Y-102569657D01*
X114224354Y-102555095D01*
X114234467Y-102541459D01*
X114245869Y-102528880D01*
X114258448Y-102517478D01*
X114272084Y-102507365D01*
X114286646Y-102498637D01*
X114301994Y-102491378D01*
X114317979Y-102485658D01*
X114334447Y-102481533D01*
X114351241Y-102479042D01*
X114368198Y-102478209D01*
X114714198Y-102478209D01*
X114731155Y-102479042D01*
X114731155Y-102479042D01*
G37*
D21*
X114541198Y-102849209D03*
D17*
G36*
X115701155Y-102479042D02*
G01*
X115717949Y-102481533D01*
X115734417Y-102485658D01*
X115750402Y-102491378D01*
X115765750Y-102498637D01*
X115780312Y-102507365D01*
X115793948Y-102517478D01*
X115806527Y-102528880D01*
X115817929Y-102541459D01*
X115828042Y-102555095D01*
X115836770Y-102569657D01*
X115844029Y-102585005D01*
X115849749Y-102600990D01*
X115853874Y-102617458D01*
X115856365Y-102634252D01*
X115857198Y-102651209D01*
X115857198Y-103047209D01*
X115856365Y-103064166D01*
X115853874Y-103080960D01*
X115849749Y-103097428D01*
X115844029Y-103113413D01*
X115836770Y-103128761D01*
X115828042Y-103143323D01*
X115817929Y-103156959D01*
X115806527Y-103169538D01*
X115793948Y-103180940D01*
X115780312Y-103191053D01*
X115765750Y-103199781D01*
X115750402Y-103207040D01*
X115734417Y-103212760D01*
X115717949Y-103216885D01*
X115701155Y-103219376D01*
X115684198Y-103220209D01*
X115338198Y-103220209D01*
X115321241Y-103219376D01*
X115304447Y-103216885D01*
X115287979Y-103212760D01*
X115271994Y-103207040D01*
X115256646Y-103199781D01*
X115242084Y-103191053D01*
X115228448Y-103180940D01*
X115215869Y-103169538D01*
X115204467Y-103156959D01*
X115194354Y-103143323D01*
X115185626Y-103128761D01*
X115178367Y-103113413D01*
X115172647Y-103097428D01*
X115168522Y-103080960D01*
X115166031Y-103064166D01*
X115165198Y-103047209D01*
X115165198Y-102651209D01*
X115166031Y-102634252D01*
X115168522Y-102617458D01*
X115172647Y-102600990D01*
X115178367Y-102585005D01*
X115185626Y-102569657D01*
X115194354Y-102555095D01*
X115204467Y-102541459D01*
X115215869Y-102528880D01*
X115228448Y-102517478D01*
X115242084Y-102507365D01*
X115256646Y-102498637D01*
X115271994Y-102491378D01*
X115287979Y-102485658D01*
X115304447Y-102481533D01*
X115321241Y-102479042D01*
X115338198Y-102478209D01*
X115684198Y-102478209D01*
X115701155Y-102479042D01*
X115701155Y-102479042D01*
G37*
D21*
X115511198Y-102849209D03*
D16*
X127060000Y-115290000D03*
X166520000Y-127595000D03*
X168780000Y-113585000D03*
X166830000Y-112885000D03*
X166830000Y-114285000D03*
X168780000Y-120585000D03*
X168780000Y-117785000D03*
X168780000Y-119185000D03*
X168780000Y-114985000D03*
X168780000Y-116385000D03*
X168780000Y-121985000D03*
X168780000Y-127585000D03*
X168780000Y-126185000D03*
X168780000Y-128985000D03*
X168780000Y-123385000D03*
X168780000Y-124785000D03*
M02*
