<?xml version="1.0" standalone="no"?>
 <!DOCTYPE svg PUBLIC "-//W3C//DTD SVG 1.1//EN" 
 "http://www.w3.org/Graphics/SVG/1.1/DTD/svg11.dtd"> 
<svg xmlns="http://www.w3.org/2000/svg" version="1.1" 
    width="29.7002cm" height="21.0007cm" viewBox="0 0 116930 82680 ">
<title>SVG Picture created as HealthMonitor-B_Paste.svg date 2019/06/10 11:26:41 </title>
  <desc>Picture generated by PCBNEW </desc>
<g style="fill:#000000; fill-opacity:1;stroke:#000000; stroke-opacity:1;
stroke-linecap:round; stroke-linejoin:round; "
 transform="translate(0 0) scale(1 1)">
</g>
<g style="fill:#000000; fill-opacity:0.0; 
stroke:#000000; stroke-width:-0.000393701; stroke-opacity:1; 
stroke-linecap:round; stroke-linejoin:round;">
</g>
<g style="fill:#000000; fill-opacity:0.0; 
stroke:#000000; stroke-width:59.0551; stroke-opacity:1; 
stroke-linecap:round; stroke-linejoin:round;">
<path d="M66929 39370
L59055 39370
" />
<path d="M66929 51181
L59055 51181
" />
<path d="M51181 51181
L51181 39370
" />
<path d="M59055 51181
L59055 39370
" />
<path d="M39370 39370
L39370 51181
" />
<path d="M51181 39370
L39370 39370
" />
<path d="M51181 51181
L39370 51181
" />
<path d="M66929 51181
L66929 39370
" />
<g >
</g>
<g >
</g>
<g >
</g>
<g >
</g>
<g >
</g>
<g >
</g>
<g >
</g>
<g >
</g>
<g >
</g>
<g style="fill:#000000; fill-opacity:0.0; 
stroke:#000000; stroke-width:0; stroke-opacity:1; 
stroke-linecap:round; stroke-linejoin:round;">
</g>
<g style="fill:#000000; fill-opacity:1.0; 
stroke:#000000; stroke-width:0; stroke-opacity:1; 
stroke-linecap:round; stroke-linejoin:round;">
<path style="fill:#000000; fill-opacity:1.0; 
stroke:#000000; stroke-width:0; stroke-opacity:1; 
stroke-linecap:round; stroke-linejoin:round;fill-rule:evenodd;"
d="M 45088,45055
45097,45056
45107,45058
45116,45062
45125,45066
45133,45071
45141,45077
45148,45083
45154,45090
45160,45098
45165,45106
45169,45115
45172,45124
45175,45133
45176,45143
45177,45153
45177,45369
45176,45379
45175,45388
45172,45398
45169,45407
45165,45416
45160,45424
45154,45432
45148,45439
45141,45445
45133,45451
45125,45456
45116,45460
45107,45463
45097,45466
45088,45467
45078,45468
44862,45468
44852,45467
44843,45466
44833,45463
44824,45460
44815,45456
44807,45451
44799,45445
44792,45439
44786,45432
44780,45424
44775,45416
44771,45407
44768,45398
44765,45388
44764,45379
44763,45369
44763,45153
44764,45143
44765,45133
44768,45124
44771,45115
44775,45106
44780,45098
44786,45090
44792,45083
44799,45077
44807,45071
44815,45066
44824,45062
44833,45058
44843,45056
44852,45055
44862,45054
45078,45054
45088,45055
Z" /> 
<path style="fill:#000000; fill-opacity:1.0; 
stroke:#000000; stroke-width:0; stroke-opacity:1; 
stroke-linecap:round; stroke-linejoin:round;fill-rule:evenodd;"
d="M 45088,44543
45097,44544
45107,44547
45116,44550
45125,44554
45133,44559
45141,44565
45148,44571
45154,44578
45160,44586
45165,44594
45169,44603
45172,44612
45175,44622
45176,44631
45177,44641
45177,44857
45176,44867
45175,44877
45172,44886
45169,44895
45165,44904
45160,44912
45154,44920
45148,44927
45141,44933
45133,44939
45125,44944
45116,44948
45107,44952
45097,44954
45088,44955
45078,44956
44862,44956
44852,44955
44843,44954
44833,44952
44824,44948
44815,44944
44807,44939
44799,44933
44792,44927
44786,44920
44780,44912
44775,44904
44771,44895
44768,44886
44765,44877
44764,44867
44763,44857
44763,44641
44764,44631
44765,44622
44768,44612
44771,44603
44775,44594
44780,44586
44786,44578
44792,44571
44799,44565
44807,44559
44815,44554
44824,44550
44833,44547
44843,44544
44852,44543
44862,44542
45078,44542
45088,44543
Z" /> 
<path style="fill:#000000; fill-opacity:1.0; 
stroke:#000000; stroke-width:0; stroke-opacity:1; 
stroke-linecap:round; stroke-linejoin:round;fill-rule:evenodd;"
d="M 45600,45055
45609,45056
45619,45058
45628,45062
45636,45066
45645,45071
45652,45077
45660,45083
45666,45090
45672,45098
45677,45106
45681,45115
45684,45124
45687,45133
45688,45143
45688,45153
45688,45369
45688,45379
45687,45388
45684,45398
45681,45407
45677,45416
45672,45424
45666,45432
45660,45439
45652,45445
45645,45451
45636,45456
45628,45460
45619,45463
45609,45466
45600,45467
45590,45468
45374,45468
45364,45467
45354,45466
45345,45463
45336,45460
45327,45456
45319,45451
45311,45445
45304,45439
45297,45432
45292,45424
45287,45416
45283,45407
45279,45398
45277,45388
45276,45379
45275,45369
45275,45153
45276,45143
45277,45133
45279,45124
45283,45115
45287,45106
45292,45098
45297,45090
45304,45083
45311,45077
45319,45071
45327,45066
45336,45062
45345,45058
45354,45056
45364,45055
45374,45054
45590,45054
45600,45055
Z" /> 
<path style="fill:#000000; fill-opacity:1.0; 
stroke:#000000; stroke-width:0; stroke-opacity:1; 
stroke-linecap:round; stroke-linejoin:round;fill-rule:evenodd;"
d="M 45600,44543
45609,44544
45619,44547
45628,44550
45636,44554
45645,44559
45652,44565
45660,44571
45666,44578
45672,44586
45677,44594
45681,44603
45684,44612
45687,44622
45688,44631
45688,44641
45688,44857
45688,44867
45687,44877
45684,44886
45681,44895
45677,44904
45672,44912
45666,44920
45660,44927
45652,44933
45645,44939
45636,44944
45628,44948
45619,44952
45609,44954
45600,44955
45590,44956
45374,44956
45364,44955
45354,44954
45345,44952
45336,44948
45327,44944
45319,44939
45311,44933
45304,44927
45297,44920
45292,44912
45287,44904
45283,44895
45279,44886
45277,44877
45276,44867
45275,44857
45275,44641
45276,44631
45277,44622
45279,44612
45283,44603
45287,44594
45292,44586
45297,44578
45304,44571
45311,44565
45319,44559
45327,44554
45336,44550
45345,44547
45354,44544
45364,44543
45374,44542
45590,44542
45600,44543
Z" /> 
<path style="fill:#000000; fill-opacity:1.0; 
stroke:#000000; stroke-width:0; stroke-opacity:1; 
stroke-linecap:round; stroke-linejoin:round;fill-rule:evenodd;"
d="M 44586,45479
44587,45480
44588,45480
44589,45480
44589,45480
44590,45481
44591,45481
44591,45482
44592,45483
44592,45483
44593,45484
44593,45485
44594,45486
44594,45487
44594,45487
44594,45488
44594,45506
44594,45507
44594,45508
44594,45509
44593,45509
44593,45510
44592,45511
44592,45512
44591,45512
44591,45513
44590,45513
44589,45514
44589,45514
44588,45514
44587,45515
44586,45515
44585,45515
44341,45515
44340,45515
44339,45515
44338,45514
44338,45514
44337,45514
44336,45513
44335,45513
44335,45512
44334,45512
44334,45511
44333,45510
44333,45509
44333,45509
44332,45508
44332,45507
44332,45506
44332,45488
44332,45487
44332,45487
44333,45486
44333,45485
44333,45484
44334,45483
44334,45483
44335,45482
44335,45481
44336,45481
44337,45480
44338,45480
44338,45480
44339,45480
44340,45479
44341,45479
44585,45479
44586,45479
Z" /> 
<path style="fill:#000000; fill-opacity:1.0; 
stroke:#000000; stroke-width:0; stroke-opacity:1; 
stroke-linecap:round; stroke-linejoin:round;fill-rule:evenodd;"
d="M 44586,45283
44587,45283
44588,45283
44589,45283
44589,45284
44590,45284
44591,45285
44591,45285
44592,45286
44592,45286
44593,45287
44593,45288
44594,45289
44594,45290
44594,45291
44594,45291
44594,45309
44594,45310
44594,45311
44594,45312
44593,45313
44593,45313
44592,45314
44592,45315
44591,45315
44591,45316
44590,45316
44589,45317
44589,45317
44588,45318
44587,45318
44586,45318
44585,45318
44341,45318
44340,45318
44339,45318
44338,45318
44338,45317
44337,45317
44336,45316
44335,45316
44335,45315
44334,45315
44334,45314
44333,45313
44333,45313
44333,45312
44332,45311
44332,45310
44332,45309
44332,45291
44332,45291
44332,45290
44333,45289
44333,45288
44333,45287
44334,45286
44334,45286
44335,45285
44335,45285
44336,45284
44337,45284
44338,45283
44338,45283
44339,45283
44340,45283
44341,45283
44585,45283
44586,45283
Z" /> 
<path style="fill:#000000; fill-opacity:1.0; 
stroke:#000000; stroke-width:0; stroke-opacity:1; 
stroke-linecap:round; stroke-linejoin:round;fill-rule:evenodd;"
d="M 44586,45086
44587,45086
44588,45086
44589,45086
44589,45087
44590,45087
44591,45088
44591,45088
44592,45089
44592,45090
44593,45090
44593,45091
44594,45092
44594,45093
44594,45094
44594,45095
44594,45112
44594,45113
44594,45114
44594,45115
44593,45116
44593,45116
44592,45117
44592,45118
44591,45119
44591,45119
44590,45120
44589,45120
44589,45120
44588,45121
44587,45121
44586,45121
44585,45121
44341,45121
44340,45121
44339,45121
44338,45121
44338,45120
44337,45120
44336,45120
44335,45119
44335,45119
44334,45118
44334,45117
44333,45116
44333,45116
44333,45115
44332,45114
44332,45113
44332,45112
44332,45095
44332,45094
44332,45093
44333,45092
44333,45091
44333,45090
44334,45090
44334,45089
44335,45088
44335,45088
44336,45087
44337,45087
44338,45086
44338,45086
44339,45086
44340,45086
44341,45086
44585,45086
44586,45086
Z" /> 
<path style="fill:#000000; fill-opacity:1.0; 
stroke:#000000; stroke-width:0; stroke-opacity:1; 
stroke-linecap:round; stroke-linejoin:round;fill-rule:evenodd;"
d="M 44586,44889
44587,44889
44588,44889
44589,44890
44589,44890
44590,44890
44591,44891
44591,44891
44592,44892
44592,44893
44593,44894
44593,44894
44594,44895
44594,44896
44594,44897
44594,44898
44594,44915
44594,44916
44594,44917
44594,44918
44593,44919
44593,44920
44592,44920
44592,44921
44591,44922
44591,44922
44590,44923
44589,44923
44589,44924
44588,44924
44587,44924
44586,44924
44585,44924
44341,44924
44340,44924
44339,44924
44338,44924
44338,44924
44337,44923
44336,44923
44335,44922
44335,44922
44334,44921
44334,44920
44333,44920
44333,44919
44333,44918
44332,44917
44332,44916
44332,44915
44332,44898
44332,44897
44332,44896
44333,44895
44333,44894
44333,44894
44334,44893
44334,44892
44335,44891
44335,44891
44336,44890
44337,44890
44338,44890
44338,44889
44339,44889
44340,44889
44341,44889
44585,44889
44586,44889
Z" /> 
<path style="fill:#000000; fill-opacity:1.0; 
stroke:#000000; stroke-width:0; stroke-opacity:1; 
stroke-linecap:round; stroke-linejoin:round;fill-rule:evenodd;"
d="M 44586,44692
44587,44692
44588,44692
44589,44693
44589,44693
44590,44693
44591,44694
44591,44695
44592,44695
44592,44696
44593,44697
44593,44697
44594,44698
44594,44699
44594,44700
44594,44701
44594,44719
44594,44719
44594,44720
44594,44721
44593,44722
44593,44723
44592,44723
44592,44724
44591,44725
44591,44725
44590,44726
44589,44726
44589,44727
44588,44727
44587,44727
44586,44727
44585,44727
44341,44727
44340,44727
44339,44727
44338,44727
44338,44727
44337,44726
44336,44726
44335,44725
44335,44725
44334,44724
44334,44723
44333,44723
44333,44722
44333,44721
44332,44720
44332,44719
44332,44719
44332,44701
44332,44700
44332,44699
44333,44698
44333,44697
44333,44697
44334,44696
44334,44695
44335,44695
44335,44694
44336,44693
44337,44693
44338,44693
44338,44692
44339,44692
44340,44692
44341,44692
44585,44692
44586,44692
Z" /> 
<path style="fill:#000000; fill-opacity:1.0; 
stroke:#000000; stroke-width:0; stroke-opacity:1; 
stroke-linecap:round; stroke-linejoin:round;fill-rule:evenodd;"
d="M 44586,44495
44587,44495
44588,44496
44589,44496
44589,44496
44590,44497
44591,44497
44591,44498
44592,44498
44592,44499
44593,44500
44593,44501
44594,44501
44594,44502
44594,44503
44594,44504
44594,44522
44594,44523
44594,44523
44594,44524
44593,44525
44593,44526
44592,44527
44592,44527
44591,44528
44591,44529
44590,44529
44589,44530
44589,44530
44588,44530
44587,44530
44586,44531
44585,44531
44341,44531
44340,44531
44339,44530
44338,44530
44338,44530
44337,44530
44336,44529
44335,44529
44335,44528
44334,44527
44334,44527
44333,44526
44333,44525
44333,44524
44332,44523
44332,44523
44332,44522
44332,44504
44332,44503
44332,44502
44333,44501
44333,44501
44333,44500
44334,44499
44334,44498
44335,44498
44335,44497
44336,44497
44337,44496
44338,44496
44338,44496
44339,44495
44340,44495
44341,44495
44585,44495
44586,44495
Z" /> 
<path style="fill:#000000; fill-opacity:1.0; 
stroke:#000000; stroke-width:0; stroke-opacity:1; 
stroke-linecap:round; stroke-linejoin:round;fill-rule:evenodd;"
d="M 44743,44111
44744,44111
44745,44112
44746,44112
44747,44112
44748,44113
44748,44113
44749,44114
44749,44115
44750,44115
44750,44116
44751,44117
44751,44118
44751,44118
44751,44119
44751,44120
44751,44364
44751,44365
44751,44366
44751,44367
44751,44368
44750,44368
44750,44369
44749,44370
44749,44370
44748,44371
44748,44372
44747,44372
44746,44372
44745,44373
44744,44373
44743,44373
44743,44373
44725,44373
44724,44373
44723,44373
44722,44373
44722,44372
44721,44372
44720,44372
44719,44371
44719,44370
44718,44370
44718,44369
44717,44368
44717,44368
44716,44367
44716,44366
44716,44365
44716,44364
44716,44120
44716,44119
44716,44118
44716,44118
44717,44117
44717,44116
44718,44115
44718,44115
44719,44114
44719,44113
44720,44113
44721,44112
44722,44112
44722,44112
44723,44111
44724,44111
44725,44111
44743,44111
44743,44111
Z" /> 
<path style="fill:#000000; fill-opacity:1.0; 
stroke:#000000; stroke-width:0; stroke-opacity:1; 
stroke-linecap:round; stroke-linejoin:round;fill-rule:evenodd;"
d="M 44940,44111
44941,44111
44942,44112
44943,44112
44944,44112
44944,44113
44945,44113
44946,44114
44946,44115
44947,44115
44947,44116
44948,44117
44948,44118
44948,44118
44948,44119
44948,44120
44948,44364
44948,44365
44948,44366
44948,44367
44948,44368
44947,44368
44947,44369
44946,44370
44946,44370
44945,44371
44944,44372
44944,44372
44943,44372
44942,44373
44941,44373
44940,44373
44939,44373
44922,44373
44921,44373
44920,44373
44919,44373
44918,44372
44918,44372
44917,44372
44916,44371
44915,44370
44915,44370
44914,44369
44914,44368
44914,44368
44913,44367
44913,44366
44913,44365
44913,44364
44913,44120
44913,44119
44913,44118
44913,44118
44914,44117
44914,44116
44914,44115
44915,44115
44915,44114
44916,44113
44917,44113
44918,44112
44918,44112
44919,44112
44920,44111
44921,44111
44922,44111
44939,44111
44940,44111
Z" /> 
<path style="fill:#000000; fill-opacity:1.0; 
stroke:#000000; stroke-width:0; stroke-opacity:1; 
stroke-linecap:round; stroke-linejoin:round;fill-rule:evenodd;"
d="M 45137,44111
45138,44111
45139,44112
45140,44112
45140,44112
45141,44113
45142,44113
45143,44114
45143,44115
45144,44115
45144,44116
45144,44117
45145,44118
45145,44118
45145,44119
45145,44120
45145,44364
45145,44365
45145,44366
45145,44367
45144,44368
45144,44368
45144,44369
45143,44370
45143,44370
45142,44371
45141,44372
45140,44372
45140,44372
45139,44373
45138,44373
45137,44373
45136,44373
45119,44373
45118,44373
45117,44373
45116,44373
45115,44372
45114,44372
45114,44372
45113,44371
45112,44370
45112,44370
45111,44369
45111,44368
45110,44368
45110,44367
45110,44366
45110,44365
45110,44364
45110,44120
45110,44119
45110,44118
45110,44118
45110,44117
45111,44116
45111,44115
45112,44115
45112,44114
45113,44113
45114,44113
45114,44112
45115,44112
45116,44112
45117,44111
45118,44111
45119,44111
45136,44111
45137,44111
Z" /> 
<path style="fill:#000000; fill-opacity:1.0; 
stroke:#000000; stroke-width:0; stroke-opacity:1; 
stroke-linecap:round; stroke-linejoin:round;fill-rule:evenodd;"
d="M 45334,44111
45335,44111
45336,44112
45337,44112
45337,44112
45338,44113
45339,44113
45339,44114
45340,44115
45341,44115
45341,44116
45341,44117
45342,44118
45342,44118
45342,44119
45342,44120
45342,44364
45342,44365
45342,44366
45342,44367
45341,44368
45341,44368
45341,44369
45340,44370
45339,44370
45339,44371
45338,44372
45337,44372
45337,44372
45336,44373
45335,44373
45334,44373
45333,44373
45315,44373
45315,44373
45314,44373
45313,44373
45312,44372
45311,44372
45311,44372
45310,44371
45309,44370
45309,44370
45308,44369
45308,44368
45307,44368
45307,44367
45307,44366
45307,44365
45307,44364
45307,44120
45307,44119
45307,44118
45307,44118
45307,44117
45308,44116
45308,44115
45309,44115
45309,44114
45310,44113
45311,44113
45311,44112
45312,44112
45313,44112
45314,44111
45315,44111
45315,44111
45333,44111
45334,44111
Z" /> 
<path style="fill:#000000; fill-opacity:1.0; 
stroke:#000000; stroke-width:0; stroke-opacity:1; 
stroke-linecap:round; stroke-linejoin:round;fill-rule:evenodd;"
d="M 45531,44111
45532,44111
45533,44112
45533,44112
45534,44112
45535,44113
45536,44113
45536,44114
45537,44115
45537,44115
45538,44116
45538,44117
45538,44118
45539,44118
45539,44119
45539,44120
45539,44364
45539,44365
45539,44366
45538,44367
45538,44368
45538,44368
45537,44369
45537,44370
45536,44370
45536,44371
45535,44372
45534,44372
45533,44372
45533,44373
45532,44373
45531,44373
45530,44373
45512,44373
45511,44373
45511,44373
45510,44373
45509,44372
45508,44372
45507,44372
45507,44371
45506,44370
45505,44370
45505,44369
45504,44368
45504,44368
45504,44367
45504,44366
45503,44365
45503,44364
45503,44120
45503,44119
45504,44118
45504,44118
45504,44117
45504,44116
45505,44115
45505,44115
45506,44114
45507,44113
45507,44113
45508,44112
45509,44112
45510,44112
45511,44111
45511,44111
45512,44111
45530,44111
45531,44111
Z" /> 
<path style="fill:#000000; fill-opacity:1.0; 
stroke:#000000; stroke-width:0; stroke-opacity:1; 
stroke-linecap:round; stroke-linejoin:round;fill-rule:evenodd;"
d="M 45728,44111
45729,44111
45729,44112
45730,44112
45731,44112
45732,44113
45732,44113
45733,44114
45734,44115
45734,44115
45735,44116
45735,44117
45735,44118
45736,44118
45736,44119
45736,44120
45736,44364
45736,44365
45736,44366
45735,44367
45735,44368
45735,44368
45734,44369
45734,44370
45733,44370
45732,44371
45732,44372
45731,44372
45730,44372
45729,44373
45729,44373
45728,44373
45727,44373
45709,44373
45708,44373
45707,44373
45707,44373
45706,44372
45705,44372
45704,44372
45704,44371
45703,44370
45702,44370
45702,44369
45701,44368
45701,44368
45701,44367
45700,44366
45700,44365
45700,44364
45700,44120
45700,44119
45700,44118
45701,44118
45701,44117
45701,44116
45702,44115
45702,44115
45703,44114
45704,44113
45704,44113
45705,44112
45706,44112
45707,44112
45707,44111
45708,44111
45709,44111
45727,44111
45728,44111
Z" /> 
<path style="fill:#000000; fill-opacity:1.0; 
stroke:#000000; stroke-width:0; stroke-opacity:1; 
stroke-linecap:round; stroke-linejoin:round;fill-rule:evenodd;"
d="M 46112,44495
46112,44495
46113,44496
46114,44496
46115,44496
46116,44497
46116,44497
46117,44498
46118,44498
46118,44499
46119,44500
46119,44501
46119,44501
46119,44502
46120,44503
46120,44504
46120,44522
46120,44523
46119,44523
46119,44524
46119,44525
46119,44526
46118,44527
46118,44527
46117,44528
46116,44529
46116,44529
46115,44530
46114,44530
46113,44530
46112,44530
46112,44531
46111,44531
45867,44531
45866,44531
45865,44530
45864,44530
45863,44530
45862,44530
45862,44529
45861,44529
45860,44528
45860,44527
45859,44527
45859,44526
45858,44525
45858,44524
45858,44523
45858,44523
45858,44522
45858,44504
45858,44503
45858,44502
45858,44501
45858,44501
45859,44500
45859,44499
45860,44498
45860,44498
45861,44497
45862,44497
45862,44496
45863,44496
45864,44496
45865,44495
45866,44495
45867,44495
46111,44495
46112,44495
Z" /> 
<path style="fill:#000000; fill-opacity:1.0; 
stroke:#000000; stroke-width:0; stroke-opacity:1; 
stroke-linecap:round; stroke-linejoin:round;fill-rule:evenodd;"
d="M 46112,44692
46112,44692
46113,44692
46114,44693
46115,44693
46116,44693
46116,44694
46117,44695
46118,44695
46118,44696
46119,44697
46119,44697
46119,44698
46119,44699
46120,44700
46120,44701
46120,44719
46120,44719
46119,44720
46119,44721
46119,44722
46119,44723
46118,44723
46118,44724
46117,44725
46116,44725
46116,44726
46115,44726
46114,44727
46113,44727
46112,44727
46112,44727
46111,44727
45867,44727
45866,44727
45865,44727
45864,44727
45863,44727
45862,44726
45862,44726
45861,44725
45860,44725
45860,44724
45859,44723
45859,44723
45858,44722
45858,44721
45858,44720
45858,44719
45858,44719
45858,44701
45858,44700
45858,44699
45858,44698
45858,44697
45859,44697
45859,44696
45860,44695
45860,44695
45861,44694
45862,44693
45862,44693
45863,44693
45864,44692
45865,44692
45866,44692
45867,44692
46111,44692
46112,44692
Z" /> 
<path style="fill:#000000; fill-opacity:1.0; 
stroke:#000000; stroke-width:0; stroke-opacity:1; 
stroke-linecap:round; stroke-linejoin:round;fill-rule:evenodd;"
d="M 46112,44889
46112,44889
46113,44889
46114,44890
46115,44890
46116,44890
46116,44891
46117,44891
46118,44892
46118,44893
46119,44894
46119,44894
46119,44895
46119,44896
46120,44897
46120,44898
46120,44915
46120,44916
46119,44917
46119,44918
46119,44919
46119,44920
46118,44920
46118,44921
46117,44922
46116,44922
46116,44923
46115,44923
46114,44924
46113,44924
46112,44924
46112,44924
46111,44924
45867,44924
45866,44924
45865,44924
45864,44924
45863,44924
45862,44923
45862,44923
45861,44922
45860,44922
45860,44921
45859,44920
45859,44920
45858,44919
45858,44918
45858,44917
45858,44916
45858,44915
45858,44898
45858,44897
45858,44896
45858,44895
45858,44894
45859,44894
45859,44893
45860,44892
45860,44891
45861,44891
45862,44890
45862,44890
45863,44890
45864,44889
45865,44889
45866,44889
45867,44889
46111,44889
46112,44889
Z" /> 
<path style="fill:#000000; fill-opacity:1.0; 
stroke:#000000; stroke-width:0; stroke-opacity:1; 
stroke-linecap:round; stroke-linejoin:round;fill-rule:evenodd;"
d="M 46112,45086
46112,45086
46113,45086
46114,45086
46115,45087
46116,45087
46116,45088
46117,45088
46118,45089
46118,45090
46119,45090
46119,45091
46119,45092
46119,45093
46120,45094
46120,45095
46120,45112
46120,45113
46119,45114
46119,45115
46119,45116
46119,45116
46118,45117
46118,45118
46117,45119
46116,45119
46116,45120
46115,45120
46114,45120
46113,45121
46112,45121
46112,45121
46111,45121
45867,45121
45866,45121
45865,45121
45864,45121
45863,45120
45862,45120
45862,45120
45861,45119
45860,45119
45860,45118
45859,45117
45859,45116
45858,45116
45858,45115
45858,45114
45858,45113
45858,45112
45858,45095
45858,45094
45858,45093
45858,45092
45858,45091
45859,45090
45859,45090
45860,45089
45860,45088
45861,45088
45862,45087
45862,45087
45863,45086
45864,45086
45865,45086
45866,45086
45867,45086
46111,45086
46112,45086
Z" /> 
<path style="fill:#000000; fill-opacity:1.0; 
stroke:#000000; stroke-width:0; stroke-opacity:1; 
stroke-linecap:round; stroke-linejoin:round;fill-rule:evenodd;"
d="M 46112,45283
46112,45283
46113,45283
46114,45283
46115,45284
46116,45284
46116,45285
46117,45285
46118,45286
46118,45286
46119,45287
46119,45288
46119,45289
46119,45290
46120,45291
46120,45291
46120,45309
46120,45310
46119,45311
46119,45312
46119,45313
46119,45313
46118,45314
46118,45315
46117,45315
46116,45316
46116,45316
46115,45317
46114,45317
46113,45318
46112,45318
46112,45318
46111,45318
45867,45318
45866,45318
45865,45318
45864,45318
45863,45317
45862,45317
45862,45316
45861,45316
45860,45315
45860,45315
45859,45314
45859,45313
45858,45313
45858,45312
45858,45311
45858,45310
45858,45309
45858,45291
45858,45291
45858,45290
45858,45289
45858,45288
45859,45287
45859,45286
45860,45286
45860,45285
45861,45285
45862,45284
45862,45284
45863,45283
45864,45283
45865,45283
45866,45283
45867,45283
46111,45283
46112,45283
Z" /> 
<path style="fill:#000000; fill-opacity:1.0; 
stroke:#000000; stroke-width:0; stroke-opacity:1; 
stroke-linecap:round; stroke-linejoin:round;fill-rule:evenodd;"
d="M 46112,45479
46112,45480
46113,45480
46114,45480
46115,45480
46116,45481
46116,45481
46117,45482
46118,45483
46118,45483
46119,45484
46119,45485
46119,45486
46119,45487
46120,45487
46120,45488
46120,45506
46120,45507
46119,45508
46119,45509
46119,45509
46119,45510
46118,45511
46118,45512
46117,45512
46116,45513
46116,45513
46115,45514
46114,45514
46113,45514
46112,45515
46112,45515
46111,45515
45867,45515
45866,45515
45865,45515
45864,45514
45863,45514
45862,45514
45862,45513
45861,45513
45860,45512
45860,45512
45859,45511
45859,45510
45858,45509
45858,45509
45858,45508
45858,45507
45858,45506
45858,45488
45858,45487
45858,45487
45858,45486
45858,45485
45859,45484
45859,45483
45860,45483
45860,45482
45861,45481
45862,45481
45862,45480
45863,45480
45864,45480
45865,45480
45866,45479
45867,45479
46111,45479
46112,45479
Z" /> 
<path style="fill:#000000; fill-opacity:1.0; 
stroke:#000000; stroke-width:0; stroke-opacity:1; 
stroke-linecap:round; stroke-linejoin:round;fill-rule:evenodd;"
d="M 45728,45637
45729,45637
45729,45637
45730,45638
45731,45638
45732,45638
45732,45639
45733,45639
45734,45640
45734,45641
45735,45642
45735,45642
45735,45643
45736,45644
45736,45645
45736,45646
45736,45890
45736,45891
45736,45892
45735,45892
45735,45893
45735,45894
45734,45895
45734,45895
45733,45896
45732,45897
45732,45897
45731,45898
45730,45898
45729,45898
45729,45899
45728,45899
45727,45899
45709,45899
45708,45899
45707,45899
45707,45898
45706,45898
45705,45898
45704,45897
45704,45897
45703,45896
45702,45895
45702,45895
45701,45894
45701,45893
45701,45892
45700,45892
45700,45891
45700,45890
45700,45646
45700,45645
45700,45644
45701,45643
45701,45642
45701,45642
45702,45641
45702,45640
45703,45639
45704,45639
45704,45638
45705,45638
45706,45638
45707,45637
45707,45637
45708,45637
45709,45637
45727,45637
45728,45637
Z" /> 
<path style="fill:#000000; fill-opacity:1.0; 
stroke:#000000; stroke-width:0; stroke-opacity:1; 
stroke-linecap:round; stroke-linejoin:round;fill-rule:evenodd;"
d="M 45531,45637
45532,45637
45533,45637
45533,45638
45534,45638
45535,45638
45536,45639
45536,45639
45537,45640
45537,45641
45538,45642
45538,45642
45538,45643
45539,45644
45539,45645
45539,45646
45539,45890
45539,45891
45539,45892
45538,45892
45538,45893
45538,45894
45537,45895
45537,45895
45536,45896
45536,45897
45535,45897
45534,45898
45533,45898
45533,45898
45532,45899
45531,45899
45530,45899
45512,45899
45511,45899
45511,45899
45510,45898
45509,45898
45508,45898
45507,45897
45507,45897
45506,45896
45505,45895
45505,45895
45504,45894
45504,45893
45504,45892
45504,45892
45503,45891
45503,45890
45503,45646
45503,45645
45504,45644
45504,45643
45504,45642
45504,45642
45505,45641
45505,45640
45506,45639
45507,45639
45507,45638
45508,45638
45509,45638
45510,45637
45511,45637
45511,45637
45512,45637
45530,45637
45531,45637
Z" /> 
<path style="fill:#000000; fill-opacity:1.0; 
stroke:#000000; stroke-width:0; stroke-opacity:1; 
stroke-linecap:round; stroke-linejoin:round;fill-rule:evenodd;"
d="M 45334,45637
45335,45637
45336,45637
45337,45638
45337,45638
45338,45638
45339,45639
45339,45639
45340,45640
45341,45641
45341,45642
45341,45642
45342,45643
45342,45644
45342,45645
45342,45646
45342,45890
45342,45891
45342,45892
45342,45892
45341,45893
45341,45894
45341,45895
45340,45895
45339,45896
45339,45897
45338,45897
45337,45898
45337,45898
45336,45898
45335,45899
45334,45899
45333,45899
45315,45899
45315,45899
45314,45899
45313,45898
45312,45898
45311,45898
45311,45897
45310,45897
45309,45896
45309,45895
45308,45895
45308,45894
45307,45893
45307,45892
45307,45892
45307,45891
45307,45890
45307,45646
45307,45645
45307,45644
45307,45643
45307,45642
45308,45642
45308,45641
45309,45640
45309,45639
45310,45639
45311,45638
45311,45638
45312,45638
45313,45637
45314,45637
45315,45637
45315,45637
45333,45637
45334,45637
Z" /> 
<path style="fill:#000000; fill-opacity:1.0; 
stroke:#000000; stroke-width:0; stroke-opacity:1; 
stroke-linecap:round; stroke-linejoin:round;fill-rule:evenodd;"
d="M 45137,45637
45138,45637
45139,45637
45140,45638
45140,45638
45141,45638
45142,45639
45143,45639
45143,45640
45144,45641
45144,45642
45144,45642
45145,45643
45145,45644
45145,45645
45145,45646
45145,45890
45145,45891
45145,45892
45145,45892
45144,45893
45144,45894
45144,45895
45143,45895
45143,45896
45142,45897
45141,45897
45140,45898
45140,45898
45139,45898
45138,45899
45137,45899
45136,45899
45119,45899
45118,45899
45117,45899
45116,45898
45115,45898
45114,45898
45114,45897
45113,45897
45112,45896
45112,45895
45111,45895
45111,45894
45110,45893
45110,45892
45110,45892
45110,45891
45110,45890
45110,45646
45110,45645
45110,45644
45110,45643
45110,45642
45111,45642
45111,45641
45112,45640
45112,45639
45113,45639
45114,45638
45114,45638
45115,45638
45116,45637
45117,45637
45118,45637
45119,45637
45136,45637
45137,45637
Z" /> 
<path style="fill:#000000; fill-opacity:1.0; 
stroke:#000000; stroke-width:0; stroke-opacity:1; 
stroke-linecap:round; stroke-linejoin:round;fill-rule:evenodd;"
d="M 44940,45637
44941,45637
44942,45637
44943,45638
44944,45638
44944,45638
44945,45639
44946,45639
44946,45640
44947,45641
44947,45642
44948,45642
44948,45643
44948,45644
44948,45645
44948,45646
44948,45890
44948,45891
44948,45892
44948,45892
44948,45893
44947,45894
44947,45895
44946,45895
44946,45896
44945,45897
44944,45897
44944,45898
44943,45898
44942,45898
44941,45899
44940,45899
44939,45899
44922,45899
44921,45899
44920,45899
44919,45898
44918,45898
44918,45898
44917,45897
44916,45897
44915,45896
44915,45895
44914,45895
44914,45894
44914,45893
44913,45892
44913,45892
44913,45891
44913,45890
44913,45646
44913,45645
44913,45644
44913,45643
44914,45642
44914,45642
44914,45641
44915,45640
44915,45639
44916,45639
44917,45638
44918,45638
44918,45638
44919,45637
44920,45637
44921,45637
44922,45637
44939,45637
44940,45637
Z" /> 
<path style="fill:#000000; fill-opacity:1.0; 
stroke:#000000; stroke-width:0; stroke-opacity:1; 
stroke-linecap:round; stroke-linejoin:round;fill-rule:evenodd;"
d="M 44743,45637
44744,45637
44745,45637
44746,45638
44747,45638
44748,45638
44748,45639
44749,45639
44749,45640
44750,45641
44750,45642
44751,45642
44751,45643
44751,45644
44751,45645
44751,45646
44751,45890
44751,45891
44751,45892
44751,45892
44751,45893
44750,45894
44750,45895
44749,45895
44749,45896
44748,45897
44748,45897
44747,45898
44746,45898
44745,45898
44744,45899
44743,45899
44743,45899
44725,45899
44724,45899
44723,45899
44722,45898
44722,45898
44721,45898
44720,45897
44719,45897
44719,45896
44718,45895
44718,45895
44717,45894
44717,45893
44716,45892
44716,45892
44716,45891
44716,45890
44716,45646
44716,45645
44716,45644
44716,45643
44717,45642
44717,45642
44718,45641
44718,45640
44719,45639
44719,45639
44720,45638
44721,45638
44722,45638
44722,45637
44723,45637
44724,45637
44725,45637
44743,45637
44743,45637
Z" /> 
</g>
<g >
</g>
<g >
<path style="fill:#000000; fill-opacity:1.0; 
stroke:#000000; stroke-width:0; stroke-opacity:1; 
stroke-linecap:round; stroke-linejoin:round;fill-rule:evenodd;"
d="M 43483,47379
43491,47380
43499,47382
43507,47384
43514,47388
43521,47392
43527,47397
43533,47402
43539,47408
43544,47415
43548,47422
43551,47429
43554,47437
43556,47445
43557,47453
43558,47461
43558,47626
43557,47634
43556,47642
43554,47650
43551,47658
43548,47665
43544,47672
43539,47679
43533,47685
43527,47690
43521,47695
43514,47699
43507,47703
43499,47705
43491,47707
43483,47708
43475,47709
43093,47709
43085,47708
43077,47707
43069,47705
43061,47703
43054,47699
43047,47695
43041,47690
43035,47685
43029,47679
43024,47672
43020,47665
43017,47658
43014,47650
43012,47642
43011,47634
43010,47626
43010,47461
43011,47453
43012,47445
43014,47437
43017,47429
43020,47422
43024,47415
43029,47408
43035,47402
43041,47397
43047,47392
43054,47388
43061,47384
43069,47382
43077,47380
43085,47379
43093,47378
43475,47378
43483,47379
Z" /> 
<path style="fill:#000000; fill-opacity:1.0; 
stroke:#000000; stroke-width:0; stroke-opacity:1; 
stroke-linecap:round; stroke-linejoin:round;fill-rule:evenodd;"
d="M 42479,47379
42487,47380
42495,47382
42503,47384
42510,47388
42517,47392
42523,47397
42529,47402
42535,47408
42540,47415
42544,47422
42547,47429
42550,47437
42552,47445
42553,47453
42554,47461
42554,47626
42553,47634
42552,47642
42550,47650
42547,47658
42544,47665
42540,47672
42535,47679
42529,47685
42523,47690
42517,47695
42510,47699
42503,47703
42495,47705
42487,47707
42479,47708
42471,47709
42089,47709
42081,47708
42073,47707
42065,47705
42057,47703
42050,47699
42043,47695
42037,47690
42031,47685
42025,47679
42020,47672
42016,47665
42013,47658
42010,47650
42008,47642
42007,47634
42006,47626
42006,47461
42007,47453
42008,47445
42010,47437
42013,47429
42016,47422
42020,47415
42025,47408
42031,47402
42037,47397
42043,47392
42050,47388
42057,47384
42065,47382
42073,47380
42081,47379
42089,47378
42471,47378
42479,47379
Z" /> 
<path style="fill:#000000; fill-opacity:1.0; 
stroke:#000000; stroke-width:0; stroke-opacity:1; 
stroke-linecap:round; stroke-linejoin:round;fill-rule:evenodd;"
d="M 43483,49032
43491,49033
43499,49035
43507,49038
43514,49041
43521,49046
43527,49050
43533,49056
43539,49062
43544,49068
43548,49075
43551,49083
43554,49090
43556,49098
43557,49106
43558,49114
43558,49280
43557,49288
43556,49296
43554,49304
43551,49311
43548,49319
43544,49326
43539,49332
43533,49338
43527,49344
43521,49348
43514,49353
43507,49356
43499,49359
43491,49361
43483,49362
43475,49362
43093,49362
43085,49362
43077,49361
43069,49359
43061,49356
43054,49353
43047,49348
43041,49344
43035,49338
43029,49332
43024,49326
43020,49319
43017,49311
43014,49304
43012,49296
43011,49288
43010,49280
43010,49114
43011,49106
43012,49098
43014,49090
43017,49083
43020,49075
43024,49068
43029,49062
43035,49056
43041,49050
43047,49046
43054,49041
43061,49038
43069,49035
43077,49033
43085,49032
43093,49032
43475,49032
43483,49032
Z" /> 
<path style="fill:#000000; fill-opacity:1.0; 
stroke:#000000; stroke-width:0; stroke-opacity:1; 
stroke-linecap:round; stroke-linejoin:round;fill-rule:evenodd;"
d="M 42479,49032
42487,49033
42495,49035
42503,49038
42510,49041
42517,49046
42523,49050
42529,49056
42535,49062
42540,49068
42544,49075
42547,49083
42550,49090
42552,49098
42553,49106
42554,49114
42554,49280
42553,49288
42552,49296
42550,49304
42547,49311
42544,49319
42540,49326
42535,49332
42529,49338
42523,49344
42517,49348
42510,49353
42503,49356
42495,49359
42487,49361
42479,49362
42471,49362
42089,49362
42081,49362
42073,49361
42065,49359
42057,49356
42050,49353
42043,49348
42037,49344
42031,49338
42025,49332
42020,49326
42016,49319
42013,49311
42010,49304
42008,49296
42007,49288
42006,49280
42006,49114
42007,49106
42008,49098
42010,49090
42013,49083
42016,49075
42020,49068
42025,49062
42031,49056
42037,49050
42043,49046
42050,49041
42057,49038
42065,49035
42073,49033
42081,49032
42089,49032
42471,49032
42479,49032
Z" /> 
</g>
<g >
</g>
<g >
</g>
<g >
</g>
<g >
<path style="fill:#000000; fill-opacity:1.0; 
stroke:#000000; stroke-width:0; stroke-opacity:1; 
stroke-linecap:round; stroke-linejoin:round;fill-rule:evenodd;"
d="M 45205,43629
45210,43630
45214,43631
45217,43632
45221,43634
45225,43636
45228,43639
45231,43641
45234,43644
45236,43648
45239,43651
45240,43655
45242,43659
45243,43663
45243,43667
45244,43671
45244,43756
45243,43760
45243,43764
45242,43768
45240,43772
45239,43776
45236,43779
45234,43783
45231,43786
45228,43789
45225,43791
45221,43793
45217,43795
45214,43796
45210,43797
45205,43798
45201,43798
45097,43798
45093,43798
45089,43797
45085,43796
45081,43795
45077,43793
45073,43791
45070,43789
45067,43786
45064,43783
45062,43779
45060,43776
45058,43772
45056,43768
45055,43764
45055,43760
45055,43756
45055,43671
45055,43667
45055,43663
45056,43659
45058,43655
45060,43651
45062,43648
45064,43644
45067,43641
45070,43639
45073,43636
45077,43634
45081,43632
45085,43631
45089,43630
45093,43629
45097,43629
45201,43629
45205,43629
Z" /> 
<path style="fill:#000000; fill-opacity:1.0; 
stroke:#000000; stroke-width:0; stroke-opacity:1; 
stroke-linecap:round; stroke-linejoin:round;fill-rule:evenodd;"
d="M 45205,43247
45210,43248
45214,43249
45217,43250
45221,43252
45225,43254
45228,43257
45231,43260
45234,43263
45236,43266
45239,43269
45240,43273
45242,43277
45243,43281
45243,43285
45244,43289
45244,43374
45243,43378
45243,43382
45242,43386
45240,43390
45239,43394
45236,43398
45234,43401
45231,43404
45228,43407
45225,43409
45221,43411
45217,43413
45214,43415
45210,43416
45205,43416
45201,43416
45097,43416
45093,43416
45089,43416
45085,43415
45081,43413
45077,43411
45073,43409
45070,43407
45067,43404
45064,43401
45062,43398
45060,43394
45058,43390
45056,43386
45055,43382
45055,43378
45055,43374
45055,43289
45055,43285
45055,43281
45056,43277
45058,43273
45060,43269
45062,43266
45064,43263
45067,43260
45070,43257
45073,43254
45077,43252
45081,43250
45085,43249
45089,43248
45093,43247
45097,43247
45201,43247
45205,43247
Z" /> 
</g>
<g >
<path style="fill:#000000; fill-opacity:1.0; 
stroke:#000000; stroke-width:0; stroke-opacity:1; 
stroke-linecap:round; stroke-linejoin:round;fill-rule:evenodd;"
d="M 46090,40757
46094,40758
46098,40759
46102,40760
46106,40762
46109,40764
46112,40767
46116,40769
46118,40773
46121,40776
46123,40779
46125,40783
46126,40787
46127,40791
46128,40795
46128,40799
46128,40884
46128,40888
46127,40892
46126,40896
46125,40900
46123,40904
46121,40908
46118,40911
46116,40914
46112,40917
46109,40919
46106,40921
46102,40923
46098,40925
46094,40926
46090,40926
46086,40926
45981,40926
45977,40926
45973,40926
45969,40925
45965,40923
45961,40921
45958,40919
45954,40917
45951,40914
45949,40911
45946,40908
45944,40904
45942,40900
45941,40896
45940,40892
45939,40888
45939,40884
45939,40799
45939,40795
45940,40791
45941,40787
45942,40783
45944,40779
45946,40776
45949,40773
45951,40769
45954,40767
45958,40764
45961,40762
45965,40760
45969,40759
45973,40758
45977,40757
45981,40757
46086,40757
46090,40757
Z" /> 
<path style="fill:#000000; fill-opacity:1.0; 
stroke:#000000; stroke-width:0; stroke-opacity:1; 
stroke-linecap:round; stroke-linejoin:round;fill-rule:evenodd;"
d="M 46090,41139
46094,41140
46098,41141
46102,41142
46106,41144
46109,41146
46112,41149
46116,41151
46118,41154
46121,41158
46123,41161
46125,41165
46126,41169
46127,41173
46128,41177
46128,41181
46128,41266
46128,41270
46127,41274
46126,41278
46125,41282
46123,41286
46121,41289
46118,41293
46116,41296
46112,41299
46109,41301
46106,41303
46102,41305
46098,41306
46094,41307
46090,41308
46086,41308
45981,41308
45977,41308
45973,41307
45969,41306
45965,41305
45961,41303
45958,41301
45954,41299
45951,41296
45949,41293
45946,41289
45944,41286
45942,41282
45941,41278
45940,41274
45939,41270
45939,41266
45939,41181
45939,41177
45940,41173
45941,41169
45942,41165
45944,41161
45946,41158
45949,41154
45951,41151
45954,41149
45958,41146
45961,41144
45965,41142
45969,41141
45973,41140
45977,41139
45981,41139
46086,41139
46090,41139
Z" /> 
</g>
<g >
</g>
<g >
</g>
<g >
</g>
<g >
</g>
<g >
</g>
<g >
</g>
<g >
</g>
<g >
</g>
<g >
</g>
<g >
</g>
<g >
<path style="fill:#000000; fill-opacity:1.0; 
stroke:#000000; stroke-width:0; stroke-opacity:1; 
stroke-linecap:round; stroke-linejoin:round;fill-rule:evenodd;"
d="M 44792,43629
44796,43630
44800,43631
44804,43632
44808,43634
44811,43636
44815,43639
44818,43641
44821,43644
44823,43648
44825,43651
44827,43655
44828,43659
44829,43663
44830,43667
44830,43671
44830,43756
44830,43760
44829,43764
44828,43768
44827,43772
44825,43776
44823,43779
44821,43783
44818,43786
44815,43789
44811,43791
44808,43793
44804,43795
44800,43796
44796,43797
44792,43798
44788,43798
44684,43798
44679,43798
44675,43797
44671,43796
44667,43795
44664,43793
44660,43791
44657,43789
44654,43786
44651,43783
44648,43779
44646,43776
44644,43772
44643,43768
44642,43764
44641,43760
44641,43756
44641,43671
44641,43667
44642,43663
44643,43659
44644,43655
44646,43651
44648,43648
44651,43644
44654,43641
44657,43639
44660,43636
44664,43634
44667,43632
44671,43631
44675,43630
44679,43629
44684,43629
44788,43629
44792,43629
Z" /> 
<path style="fill:#000000; fill-opacity:1.0; 
stroke:#000000; stroke-width:0; stroke-opacity:1; 
stroke-linecap:round; stroke-linejoin:round;fill-rule:evenodd;"
d="M 44792,43247
44796,43248
44800,43249
44804,43250
44808,43252
44811,43254
44815,43257
44818,43260
44821,43263
44823,43266
44825,43269
44827,43273
44828,43277
44829,43281
44830,43285
44830,43289
44830,43374
44830,43378
44829,43382
44828,43386
44827,43390
44825,43394
44823,43398
44821,43401
44818,43404
44815,43407
44811,43409
44808,43411
44804,43413
44800,43415
44796,43416
44792,43416
44788,43416
44684,43416
44679,43416
44675,43416
44671,43415
44667,43413
44664,43411
44660,43409
44657,43407
44654,43404
44651,43401
44648,43398
44646,43394
44644,43390
44643,43386
44642,43382
44641,43378
44641,43374
44641,43289
44641,43285
44642,43281
44643,43277
44644,43273
44646,43269
44648,43266
44651,43263
44654,43260
44657,43257
44660,43254
44664,43252
44667,43250
44671,43249
44675,43248
44679,43247
44684,43247
44788,43247
44792,43247
Z" /> 
</g>
<g >
<path style="fill:#000000; fill-opacity:1.0; 
stroke:#000000; stroke-width:0; stroke-opacity:1; 
stroke-linecap:round; stroke-linejoin:round;fill-rule:evenodd;"
d="M 43709,44681
43713,44681
43717,44682
43721,44684
43725,44686
43729,44688
43732,44690
43735,44693
43738,44696
43740,44699
43743,44703
43744,44707
43746,44711
43747,44715
43747,44719
43748,44723
43748,44808
43747,44812
43747,44816
43746,44820
43744,44824
43743,44828
43740,44831
43738,44834
43735,44837
43732,44840
43729,44843
43725,44845
43721,44847
43717,44848
43713,44849
43709,44850
43705,44850
43601,44850
43597,44850
43593,44849
43589,44848
43585,44847
43581,44845
43577,44843
43574,44840
43571,44837
43568,44834
43566,44831
43564,44828
43562,44824
43560,44820
43559,44816
43559,44812
43559,44808
43559,44723
43559,44719
43559,44715
43560,44711
43562,44707
43564,44703
43566,44699
43568,44696
43571,44693
43574,44690
43577,44688
43581,44686
43585,44684
43589,44682
43593,44681
43597,44681
43601,44681
43705,44681
43709,44681
Z" /> 
<path style="fill:#000000; fill-opacity:1.0; 
stroke:#000000; stroke-width:0; stroke-opacity:1; 
stroke-linecap:round; stroke-linejoin:round;fill-rule:evenodd;"
d="M 43709,45063
43713,45063
43717,45064
43721,45066
43725,45067
43729,45070
43732,45072
43735,45075
43738,45078
43740,45081
43743,45085
43744,45089
43746,45093
43747,45097
43747,45101
43748,45105
43748,45189
43747,45194
43747,45198
43746,45202
43744,45206
43743,45209
43740,45213
43738,45216
43735,45219
43732,45222
43729,45225
43725,45227
43721,45229
43717,45230
43713,45231
43709,45232
43705,45232
43601,45232
43597,45232
43593,45231
43589,45230
43585,45229
43581,45227
43577,45225
43574,45222
43571,45219
43568,45216
43566,45213
43564,45209
43562,45206
43560,45202
43559,45198
43559,45194
43559,45189
43559,45105
43559,45101
43559,45097
43560,45093
43562,45089
43564,45085
43566,45081
43568,45078
43571,45075
43574,45072
43577,45070
43581,45067
43585,45066
43589,45064
43593,45063
43597,45063
43601,45062
43705,45062
43709,45063
Z" /> 
</g>
<g >
</g>
<g >
<path style="fill:#000000; fill-opacity:1.0; 
stroke:#000000; stroke-width:0; stroke-opacity:1; 
stroke-linecap:round; stroke-linejoin:round;fill-rule:evenodd;"
d="M 40635,49831
40642,49832
40648,49833
40655,49836
40661,49839
40667,49842
40673,49846
40678,49851
40682,49856
40686,49861
40690,49867
40693,49874
40695,49880
40697,49887
40698,49894
40698,49901
40698,50041
40698,50048
40697,50055
40695,50062
40693,50068
40690,50075
40686,50080
40682,50086
40678,50091
40673,50096
40667,50100
40661,50103
40655,50106
40648,50109
40642,50110
40635,50111
40628,50112
40458,50112
40451,50111
40444,50110
40437,50109
40431,50106
40424,50103
40419,50100
40413,50096
40408,50091
40403,50086
40399,50080
40396,50075
40393,50068
40390,50062
40389,50055
40388,50048
40387,50041
40387,49901
40388,49894
40389,49887
40390,49880
40393,49874
40396,49867
40399,49861
40403,49856
40408,49851
40413,49846
40419,49842
40424,49839
40431,49836
40437,49833
40444,49832
40451,49831
40458,49830
40628,49830
40635,49831
Z" /> 
<path style="fill:#000000; fill-opacity:1.0; 
stroke:#000000; stroke-width:0; stroke-opacity:1; 
stroke-linecap:round; stroke-linejoin:round;fill-rule:evenodd;"
d="M 40635,50451
40642,50452
40648,50453
40655,50456
40661,50459
40667,50462
40673,50466
40678,50471
40682,50476
40686,50482
40690,50487
40693,50494
40695,50500
40697,50507
40698,50514
40698,50521
40698,50661
40698,50668
40697,50675
40695,50682
40693,50688
40690,50695
40686,50701
40682,50706
40678,50711
40673,50716
40667,50720
40661,50723
40655,50726
40648,50729
40642,50730
40635,50731
40628,50732
40458,50732
40451,50731
40444,50730
40437,50729
40431,50726
40424,50723
40419,50720
40413,50716
40408,50711
40403,50706
40399,50701
40396,50695
40393,50688
40390,50682
40389,50675
40388,50668
40387,50661
40387,50521
40388,50514
40389,50507
40390,50500
40393,50494
40396,50487
40399,50482
40403,50476
40408,50471
40413,50466
40419,50462
40424,50459
40431,50456
40437,50453
40444,50452
40451,50451
40458,50450
40628,50450
40635,50451
Z" /> 
</g>
<g >
<path style="fill:#000000; fill-opacity:1.0; 
stroke:#000000; stroke-width:0; stroke-opacity:1; 
stroke-linecap:round; stroke-linejoin:round;fill-rule:evenodd;"
d="M 44895,42295
44902,42296
44909,42297
44915,42300
44921,42303
44927,42306
44933,42310
44938,42315
44943,42320
44947,42326
44950,42332
44953,42338
44956,42344
44957,42351
44958,42358
44959,42365
44959,42535
44958,42542
44957,42549
44956,42556
44953,42562
44950,42568
44947,42574
44943,42580
44938,42585
44933,42590
44927,42594
44921,42597
44915,42600
44909,42602
44902,42604
44895,42605
44888,42605
44748,42605
44741,42605
44734,42604
44727,42602
44721,42600
44714,42597
44708,42594
44703,42590
44698,42585
44693,42580
44689,42574
44685,42568
44682,42562
44680,42556
44678,42549
44677,42542
44677,42535
44677,42365
44677,42358
44678,42351
44680,42344
44682,42338
44685,42332
44689,42326
44693,42320
44698,42315
44703,42310
44708,42306
44714,42303
44721,42300
44727,42297
44734,42296
44741,42295
44748,42294
44888,42294
44895,42295
Z" /> 
<path style="fill:#000000; fill-opacity:1.0; 
stroke:#000000; stroke-width:0; stroke-opacity:1; 
stroke-linecap:round; stroke-linejoin:round;fill-rule:evenodd;"
d="M 45515,42295
45522,42296
45529,42297
45535,42300
45542,42303
45547,42306
45553,42310
45558,42315
45563,42320
45567,42326
45570,42332
45573,42338
45576,42344
45577,42351
45578,42358
45579,42365
45579,42535
45578,42542
45577,42549
45576,42556
45573,42562
45570,42568
45567,42574
45563,42580
45558,42585
45553,42590
45547,42594
45542,42597
45535,42600
45529,42602
45522,42604
45515,42605
45508,42605
45368,42605
45361,42605
45354,42604
45347,42602
45341,42600
45334,42597
45328,42594
45323,42590
45318,42585
45313,42580
45309,42574
45306,42568
45303,42562
45300,42556
45299,42549
45298,42542
45297,42535
45297,42365
45298,42358
45299,42351
45300,42344
45303,42338
45306,42332
45309,42326
45313,42320
45318,42315
45323,42310
45328,42306
45334,42303
45341,42300
45347,42297
45354,42296
45361,42295
45368,42294
45508,42294
45515,42295
Z" /> 
</g>
<g >
<path style="fill:#000000; fill-opacity:1.0; 
stroke:#000000; stroke-width:0; stroke-opacity:1; 
stroke-linecap:round; stroke-linejoin:round;fill-rule:evenodd;"
d="M 43685,41429
43691,41430
43698,41431
43705,41434
43711,41437
43717,41440
43722,41444
43727,41449
43732,41454
43736,41460
43740,41466
43743,41472
43745,41478
43747,41485
43748,41492
43748,41499
43748,41639
43748,41646
43747,41653
43745,41660
43743,41666
43740,41673
43736,41679
43732,41684
43727,41689
43722,41694
43717,41698
43711,41702
43705,41704
43698,41707
43691,41708
43685,41709
43678,41710
43507,41710
43500,41709
43494,41708
43487,41707
43480,41704
43474,41702
43468,41698
43463,41694
43458,41689
43453,41684
43449,41679
43445,41673
43442,41666
43440,41660
43438,41653
43437,41646
43437,41639
43437,41499
43437,41492
43438,41485
43440,41478
43442,41472
43445,41466
43449,41460
43453,41454
43458,41449
43463,41444
43468,41440
43474,41437
43480,41434
43487,41431
43494,41430
43500,41429
43507,41428
43678,41428
43685,41429
Z" /> 
<path style="fill:#000000; fill-opacity:1.0; 
stroke:#000000; stroke-width:0; stroke-opacity:1; 
stroke-linecap:round; stroke-linejoin:round;fill-rule:evenodd;"
d="M 43685,40809
43691,40810
43698,40811
43705,40814
43711,40817
43717,40820
43722,40824
43727,40829
43732,40834
43736,40840
43740,40845
43743,40852
43745,40858
43747,40865
43748,40872
43748,40879
43748,41019
43748,41026
43747,41033
43745,41040
43743,41046
43740,41053
43736,41058
43732,41064
43727,41069
43722,41074
43717,41078
43711,41081
43705,41084
43698,41087
43691,41088
43685,41089
43678,41090
43507,41090
43500,41089
43494,41088
43487,41087
43480,41084
43474,41081
43468,41078
43463,41074
43458,41069
43453,41064
43449,41058
43445,41053
43442,41046
43440,41040
43438,41033
43437,41026
43437,41019
43437,40879
43437,40872
43438,40865
43440,40858
43442,40852
43445,40845
43449,40840
43453,40834
43458,40829
43463,40824
43468,40820
43474,40817
43480,40814
43487,40811
43494,40810
43500,40809
43507,40808
43678,40808
43685,40809
Z" /> 
</g>
<g >
<path style="fill:#000000; fill-opacity:1.0; 
stroke:#000000; stroke-width:0; stroke-opacity:1; 
stroke-linecap:round; stroke-linejoin:round;fill-rule:evenodd;"
d="M 46667,41414
46674,41415
46680,41417
46687,41419
46693,41422
46699,41425
46705,41430
46710,41434
46714,41439
46718,41445
46722,41451
46725,41457
46727,41464
46729,41470
46730,41477
46730,41484
46730,41625
46730,41632
46729,41638
46727,41645
46725,41652
46722,41658
46718,41664
46714,41669
46710,41674
46705,41679
46699,41683
46693,41687
46687,41690
46680,41692
46674,41694
46667,41695
46660,41695
46490,41695
46483,41695
46476,41694
46469,41692
46463,41690
46456,41687
46451,41683
46445,41679
46440,41674
46435,41669
46431,41664
46428,41658
46425,41652
46422,41645
46421,41638
46420,41632
46419,41625
46419,41484
46420,41477
46421,41470
46422,41464
46425,41457
46428,41451
46431,41445
46435,41439
46440,41434
46445,41430
46451,41425
46456,41422
46463,41419
46469,41417
46476,41415
46483,41414
46490,41414
46660,41414
46667,41414
Z" /> 
<path style="fill:#000000; fill-opacity:1.0; 
stroke:#000000; stroke-width:0; stroke-opacity:1; 
stroke-linecap:round; stroke-linejoin:round;fill-rule:evenodd;"
d="M 46667,40794
46674,40795
46680,40797
46687,40799
46693,40802
46699,40805
46705,40809
46710,40814
46714,40819
46718,40825
46722,40831
46725,40837
46727,40843
46729,40850
46730,40857
46730,40864
46730,41005
46730,41012
46729,41018
46727,41025
46725,41032
46722,41038
46718,41044
46714,41049
46710,41054
46705,41059
46699,41063
46693,41067
46687,41070
46680,41072
46674,41074
46667,41075
46660,41075
46490,41075
46483,41075
46476,41074
46469,41072
46463,41070
46456,41067
46451,41063
46445,41059
46440,41054
46435,41049
46431,41044
46428,41038
46425,41032
46422,41025
46421,41018
46420,41012
46419,41005
46419,40864
46420,40857
46421,40850
46422,40843
46425,40837
46428,40831
46431,40825
46435,40819
46440,40814
46445,40809
46451,40805
46456,40802
46463,40799
46469,40797
46476,40795
46483,40794
46490,40793
46660,40793
46667,40794
Z" /> 
</g>
<g >
</g>
<g >
</g>
<g >
</g>
<g >
</g>
<g >
</g>
<g >
</g>
<g >
</g>
<g >
</g>
<g >
</g>
<g >
</g>
<g >
</g>
<g >
</g>
<g >
</g>
<g >
</g>
<g >
<path style="fill:#000000; fill-opacity:1.0; 
stroke:#000000; stroke-width:0; stroke-opacity:1; 
stroke-linecap:round; stroke-linejoin:round;fill-rule:evenodd;"
d="M 45563,40848
45563,40981
45378,40981
45378,40848
45563,40848
Z" /> 
<path style="fill:#000000; fill-opacity:1.0; 
stroke:#000000; stroke-width:0; stroke-opacity:1; 
stroke-linecap:round; stroke-linejoin:round;fill-rule:evenodd;"
d="M 44594,40981
44594,40848
44779,40848
44779,40981
44594,40981
Z" /> 
<path style="fill:#000000; fill-opacity:1.0; 
stroke:#000000; stroke-width:0; stroke-opacity:1; 
stroke-linecap:round; stroke-linejoin:round;fill-rule:evenodd;"
d="M 45012,40844
45146,40844
45146,41029
45012,41029
45012,40844
Z" /> 
<path style="fill:#000000; fill-opacity:1.0; 
stroke:#000000; stroke-width:0; stroke-opacity:1; 
stroke-linecap:round; stroke-linejoin:round;fill-rule:evenodd;"
d="M 45146,41812
45012,41812
45012,41627
45146,41627
45146,41812
Z" /> 
<path style="fill:#000000; fill-opacity:1.0; 
stroke:#000000; stroke-width:0; stroke-opacity:1; 
stroke-linecap:round; stroke-linejoin:round;fill-rule:evenodd;"
d="M 45563,41399
45563,41533
45378,41533
45378,41399
45563,41399
Z" /> 
<path style="fill:#000000; fill-opacity:1.0; 
stroke:#000000; stroke-width:0; stroke-opacity:1; 
stroke-linecap:round; stroke-linejoin:round;fill-rule:evenodd;"
d="M 45563,41123
45563,41257
45378,41257
45378,41123
45563,41123
Z" /> 
<path style="fill:#000000; fill-opacity:1.0; 
stroke:#000000; stroke-width:0; stroke-opacity:1; 
stroke-linecap:round; stroke-linejoin:round;fill-rule:evenodd;"
d="M 45563,41674
45563,41808
45378,41808
45378,41674
45563,41674
Z" /> 
<path style="fill:#000000; fill-opacity:1.0; 
stroke:#000000; stroke-width:0; stroke-opacity:1; 
stroke-linecap:round; stroke-linejoin:round;fill-rule:evenodd;"
d="M 44594,41257
44594,41123
44779,41123
44779,41257
44594,41257
Z" /> 
<path style="fill:#000000; fill-opacity:1.0; 
stroke:#000000; stroke-width:0; stroke-opacity:1; 
stroke-linecap:round; stroke-linejoin:round;fill-rule:evenodd;"
d="M 44594,41808
44594,41674
44779,41674
44779,41808
44594,41808
Z" /> 
<path style="fill:#000000; fill-opacity:1.0; 
stroke:#000000; stroke-width:0; stroke-opacity:1; 
stroke-linecap:round; stroke-linejoin:round;fill-rule:evenodd;"
d="M 44594,41533
44594,41399
44779,41399
44779,41533
44594,41533
Z" /> 
</g>
<g >
<path style="fill:#000000; fill-opacity:1.0; 
stroke:#000000; stroke-width:0; stroke-opacity:1; 
stroke-linecap:round; stroke-linejoin:round;fill-rule:evenodd;"
d="M 45513,39934
45517,39935
45521,39936
45525,39937
45529,39939
45532,39941
45536,39944
45539,39947
45542,39950
45544,39953
45546,39957
45548,39960
45549,39964
45550,39968
45551,39972
45551,39977
45551,40081
45551,40085
45550,40089
45549,40093
45548,40097
45546,40101
45544,40104
45542,40108
45539,40111
45536,40114
45532,40116
45529,40118
45525,40120
45521,40121
45517,40122
45513,40123
45509,40123
45424,40123
45420,40123
45416,40122
45412,40121
45408,40120
45404,40118
45401,40116
45397,40114
45394,40111
45391,40108
45389,40104
45387,40101
45385,40097
45384,40093
45383,40089
45382,40085
45382,40081
45382,39977
45382,39972
45383,39968
45384,39964
45385,39960
45387,39957
45389,39953
45391,39950
45394,39947
45397,39944
45401,39941
45404,39939
45408,39937
45412,39936
45416,39935
45420,39934
45424,39934
45509,39934
45513,39934
Z" /> 
<path style="fill:#000000; fill-opacity:1.0; 
stroke:#000000; stroke-width:0; stroke-opacity:1; 
stroke-linecap:round; stroke-linejoin:round;fill-rule:evenodd;"
d="M 45131,39934
45135,39935
45139,39936
45143,39937
45147,39939
45150,39941
45154,39944
45157,39947
45160,39950
45162,39953
45164,39957
45166,39960
45167,39964
45168,39968
45169,39972
45169,39977
45169,40081
45169,40085
45168,40089
45167,40093
45166,40097
45164,40101
45162,40104
45160,40108
45157,40111
45154,40114
45150,40116
45147,40118
45143,40120
45139,40121
45135,40122
45131,40123
45127,40123
45042,40123
45038,40123
45034,40122
45030,40121
45026,40120
45022,40118
45019,40116
45015,40114
45012,40111
45010,40108
45007,40104
45005,40101
45003,40097
45002,40093
45001,40089
45000,40085
45000,40081
45000,39977
45000,39972
45001,39968
45002,39964
45003,39960
45005,39957
45007,39953
45010,39950
45012,39947
45015,39944
45019,39941
45022,39939
45026,39937
45030,39936
45034,39935
45038,39934
45042,39934
45127,39934
45131,39934
Z" /> 
</g>
<g >
<path style="fill:#000000; fill-opacity:1.0; 
stroke:#000000; stroke-width:0; stroke-opacity:1; 
stroke-linecap:round; stroke-linejoin:round;fill-rule:evenodd;"
d="M 44200,41149
44204,41150
44208,41151
44212,41152
44216,41154
44219,41156
44223,41158
44226,41161
44229,41164
44231,41168
44233,41171
44235,41175
44236,41179
44237,41183
44238,41187
44238,41191
44238,41276
44238,41280
44237,41284
44236,41288
44235,41292
44233,41296
44231,41299
44229,41303
44226,41306
44223,41308
44219,41311
44216,41313
44212,41315
44208,41316
44204,41317
44200,41318
44196,41318
44092,41318
44087,41318
44083,41317
44079,41316
44075,41315
44072,41313
44068,41311
44065,41308
44062,41306
44059,41303
44056,41299
44054,41296
44052,41292
44051,41288
44050,41284
44049,41280
44049,41276
44049,41191
44049,41187
44050,41183
44051,41179
44052,41175
44054,41171
44056,41168
44059,41164
44062,41161
44065,41158
44068,41156
44072,41154
44075,41152
44079,41151
44083,41150
44087,41149
44092,41149
44196,41149
44200,41149
Z" /> 
<path style="fill:#000000; fill-opacity:1.0; 
stroke:#000000; stroke-width:0; stroke-opacity:1; 
stroke-linecap:round; stroke-linejoin:round;fill-rule:evenodd;"
d="M 44200,40767
44204,40768
44208,40769
44212,40770
44216,40772
44219,40774
44223,40777
44226,40779
44229,40782
44231,40786
44233,40789
44235,40793
44236,40797
44237,40801
44238,40805
44238,40809
44238,40894
44238,40898
44237,40902
44236,40906
44235,40910
44233,40914
44231,40917
44229,40921
44226,40924
44223,40927
44219,40929
44216,40931
44212,40933
44208,40934
44204,40935
44200,40936
44196,40936
44092,40936
44087,40936
44083,40935
44079,40934
44075,40933
44072,40931
44068,40929
44065,40927
44062,40924
44059,40921
44056,40917
44054,40914
44052,40910
44051,40906
44050,40902
44049,40898
44049,40894
44049,40809
44049,40805
44050,40801
44051,40797
44052,40793
44054,40789
44056,40786
44059,40782
44062,40779
44065,40777
44068,40774
44072,40772
44075,40770
44079,40769
44083,40768
44087,40767
44092,40767
44196,40767
44200,40767
Z" /> 
</g>
<g >
</g>
<g >
<path style="fill:#000000; fill-opacity:1.0; 
stroke:#000000; stroke-width:0; stroke-opacity:1; 
stroke-linecap:round; stroke-linejoin:round;fill-rule:evenodd;"
d="M 41701,47370
41709,47371
41716,47373
41724,47376
41731,47379
41738,47384
41745,47388
41751,47394
41756,47400
41761,47406
41765,47413
41769,47421
41772,47428
41774,47436
41775,47444
41775,47452
41775,47618
41775,47626
41774,47634
41772,47642
41769,47649
41765,47657
41761,47664
41756,47670
41751,47676
41745,47682
41738,47686
41731,47691
41724,47694
41716,47697
41709,47699
41701,47700
41692,47700
41311,47700
41302,47700
41294,47699
41287,47697
41279,47694
41272,47691
41265,47686
41258,47682
41252,47676
41247,47670
41242,47664
41238,47657
41234,47649
41231,47642
41229,47634
41228,47626
41228,47618
41228,47452
41228,47444
41229,47436
41231,47428
41234,47421
41238,47413
41242,47406
41247,47400
41252,47394
41258,47388
41265,47384
41272,47379
41279,47376
41287,47373
41294,47371
41302,47370
41311,47370
41692,47370
41701,47370
Z" /> 
<path style="fill:#000000; fill-opacity:1.0; 
stroke:#000000; stroke-width:0; stroke-opacity:1; 
stroke-linecap:round; stroke-linejoin:round;fill-rule:evenodd;"
d="M 40697,47370
40705,47371
40712,47373
40720,47376
40727,47379
40734,47384
40741,47388
40747,47394
40752,47400
40757,47406
40761,47413
40765,47421
40768,47428
40770,47436
40771,47444
40771,47452
40771,47618
40771,47626
40770,47634
40768,47642
40765,47649
40761,47657
40757,47664
40752,47670
40747,47676
40741,47682
40734,47686
40727,47691
40720,47694
40712,47697
40705,47699
40697,47700
40688,47700
40307,47700
40298,47700
40290,47699
40283,47697
40275,47694
40268,47691
40261,47686
40254,47682
40248,47676
40243,47670
40238,47664
40234,47657
40230,47649
40227,47642
40225,47634
40224,47626
40224,47618
40224,47452
40224,47444
40225,47436
40227,47428
40230,47421
40234,47413
40238,47406
40243,47400
40248,47394
40254,47388
40261,47384
40268,47379
40275,47376
40283,47373
40290,47371
40298,47370
40307,47370
40688,47370
40697,47370
Z" /> 
<path style="fill:#000000; fill-opacity:1.0; 
stroke:#000000; stroke-width:0; stroke-opacity:1; 
stroke-linecap:round; stroke-linejoin:round;fill-rule:evenodd;"
d="M 41701,49024
41709,49025
41716,49027
41724,49029
41731,49033
41738,49037
41745,49042
41751,49047
41756,49053
41761,49060
41765,49067
41769,49074
41772,49082
41774,49090
41775,49098
41775,49106
41775,49271
41775,49279
41774,49287
41772,49295
41769,49303
41765,49310
41761,49317
41756,49324
41751,49330
41745,49335
41738,49340
41731,49344
41724,49348
41716,49350
41709,49352
41701,49353
41692,49354
41311,49354
41302,49353
41294,49352
41287,49350
41279,49348
41272,49344
41265,49340
41258,49335
41252,49330
41247,49324
41242,49317
41238,49310
41234,49303
41231,49295
41229,49287
41228,49279
41228,49271
41228,49106
41228,49098
41229,49090
41231,49082
41234,49074
41238,49067
41242,49060
41247,49053
41252,49047
41258,49042
41265,49037
41272,49033
41279,49029
41287,49027
41294,49025
41302,49024
41311,49023
41692,49023
41701,49024
Z" /> 
<path style="fill:#000000; fill-opacity:1.0; 
stroke:#000000; stroke-width:0; stroke-opacity:1; 
stroke-linecap:round; stroke-linejoin:round;fill-rule:evenodd;"
d="M 40697,49024
40705,49025
40712,49027
40720,49029
40727,49033
40734,49037
40741,49042
40747,49047
40752,49053
40757,49060
40761,49067
40765,49074
40768,49082
40770,49090
40771,49098
40771,49106
40771,49271
40771,49279
40770,49287
40768,49295
40765,49303
40761,49310
40757,49317
40752,49324
40747,49330
40741,49335
40734,49340
40727,49344
40720,49348
40712,49350
40705,49352
40697,49353
40688,49354
40307,49354
40298,49353
40290,49352
40283,49350
40275,49348
40268,49344
40261,49340
40254,49335
40248,49330
40243,49324
40238,49317
40234,49310
40230,49303
40227,49295
40225,49287
40224,49279
40224,49271
40224,49106
40224,49098
40225,49090
40227,49082
40230,49074
40234,49067
40238,49060
40243,49053
40248,49047
40254,49042
40261,49037
40268,49033
40275,49029
40283,49027
40290,49025
40298,49024
40307,49023
40688,49023
40697,49024
Z" /> 
</g>
<g >
</g>
<g >
</g>
<g >
</g>
<g >
</g>
<g >
<path style="fill:#000000; fill-opacity:1.0; 
stroke:#000000; stroke-width:0; stroke-opacity:1; 
stroke-linecap:round; stroke-linejoin:round;fill-rule:evenodd;"
d="M 42744,49785
42744,50746
42216,50746
42216,49785
42744,49785
Z" /> 
<path style="fill:#000000; fill-opacity:1.0; 
stroke:#000000; stroke-width:0; stroke-opacity:1; 
stroke-linecap:round; stroke-linejoin:round;fill-rule:evenodd;"
d="M 41562,49785
41562,50746
41035,50746
41035,49785
41562,49785
Z" /> 
</g>
<g >
<path style="fill:#000000; fill-opacity:1.0; 
stroke:#000000; stroke-width:0; stroke-opacity:1; 
stroke-linecap:round; stroke-linejoin:round;fill-rule:evenodd;"
d="M 42751,45937
42751,46897
42224,46897
42224,45937
42751,45937
Z" /> 
<path style="fill:#000000; fill-opacity:1.0; 
stroke:#000000; stroke-width:0; stroke-opacity:1; 
stroke-linecap:round; stroke-linejoin:round;fill-rule:evenodd;"
d="M 41570,45937
41570,46897
41043,46897
41043,45937
41570,45937
Z" /> 
</g>
<g >
<path style="fill:#000000; fill-opacity:1.0; 
stroke:#000000; stroke-width:0; stroke-opacity:1; 
stroke-linecap:round; stroke-linejoin:round;fill-rule:evenodd;"
d="M 40651,45966
40657,45967
40664,45969
40671,45971
40677,45974
40683,45978
40688,45982
40693,45987
40698,45992
40702,45997
40706,46003
40709,46009
40711,46016
40713,46023
40714,46030
40714,46036
40714,46177
40714,46184
40713,46191
40711,46198
40709,46204
40706,46210
40702,46216
40698,46222
40693,46227
40688,46232
40683,46236
40677,46239
40671,46242
40664,46245
40657,46246
40651,46247
40644,46248
40473,46248
40467,46247
40460,46246
40453,46245
40446,46242
40440,46239
40434,46236
40429,46232
40424,46227
40419,46222
40415,46216
40411,46210
40408,46204
40406,46198
40404,46191
40403,46184
40403,46177
40403,46036
40403,46030
40404,46023
40406,46016
40408,46009
40411,46003
40415,45997
40419,45992
40424,45987
40429,45982
40434,45978
40440,45974
40446,45971
40453,45969
40460,45967
40467,45966
40473,45966
40644,45966
40651,45966
Z" /> 
<path style="fill:#000000; fill-opacity:1.0; 
stroke:#000000; stroke-width:0; stroke-opacity:1; 
stroke-linecap:round; stroke-linejoin:round;fill-rule:evenodd;"
d="M 40651,46586
40657,46587
40664,46589
40671,46591
40677,46594
40683,46598
40688,46602
40693,46607
40698,46612
40702,46617
40706,46623
40709,46630
40711,46636
40713,46643
40714,46650
40714,46656
40714,46797
40714,46804
40713,46811
40711,46818
40709,46824
40706,46830
40702,46836
40698,46842
40693,46847
40688,46852
40683,46856
40677,46859
40671,46862
40664,46865
40657,46866
40651,46867
40644,46868
40473,46868
40467,46867
40460,46866
40453,46865
40446,46862
40440,46859
40434,46856
40429,46852
40424,46847
40419,46842
40415,46836
40411,46830
40408,46824
40406,46818
40404,46811
40403,46804
40403,46797
40403,46656
40403,46650
40404,46643
40406,46636
40408,46630
40411,46623
40415,46617
40419,46612
40424,46607
40429,46602
40434,46598
40440,46594
40446,46591
40453,46589
40460,46587
40467,46586
40473,46586
40644,46586
40651,46586
Z" /> 
</g>
<g >
</g>
<g >
</g>
<g >
<path style="fill:#000000; fill-opacity:1.0; 
stroke:#000000; stroke-width:0; stroke-opacity:1; 
stroke-linecap:round; stroke-linejoin:round;fill-rule:evenodd;"
d="M 45141,40397
45145,40398
45149,40399
45153,40400
45157,40402
45160,40404
45164,40406
45167,40409
45169,40412
45172,40416
45174,40419
45176,40423
45177,40427
45178,40431
45179,40435
45179,40439
45179,40543
45179,40548
45178,40552
45177,40556
45176,40560
45174,40563
45172,40567
45169,40570
45167,40573
45164,40576
45160,40579
45157,40581
45153,40583
45149,40584
45145,40585
45141,40586
45137,40586
45052,40586
45048,40586
45044,40585
45040,40584
45036,40583
45032,40581
45029,40579
45025,40576
45022,40573
45019,40570
45017,40567
45015,40563
45013,40560
45012,40556
45011,40552
45010,40548
45010,40543
45010,40439
45010,40435
45011,40431
45012,40427
45013,40423
45015,40419
45017,40416
45019,40412
45022,40409
45025,40406
45029,40404
45032,40402
45036,40400
45040,40399
45044,40398
45048,40397
45052,40397
45137,40397
45141,40397
Z" /> 
<path style="fill:#000000; fill-opacity:1.0; 
stroke:#000000; stroke-width:0; stroke-opacity:1; 
stroke-linecap:round; stroke-linejoin:round;fill-rule:evenodd;"
d="M 45523,40397
45527,40398
45531,40399
45535,40400
45539,40402
45542,40404
45546,40406
45549,40409
45551,40412
45554,40416
45556,40419
45558,40423
45559,40427
45560,40431
45561,40435
45561,40439
45561,40543
45561,40548
45560,40552
45559,40556
45558,40560
45556,40563
45554,40567
45551,40570
45549,40573
45546,40576
45542,40579
45539,40581
45535,40583
45531,40584
45527,40585
45523,40586
45519,40586
45434,40586
45430,40586
45426,40585
45422,40584
45418,40583
45414,40581
45411,40579
45407,40576
45404,40573
45401,40570
45399,40567
45397,40563
45395,40560
45394,40556
45393,40552
45392,40548
45392,40543
45392,40439
45392,40435
45393,40431
45394,40427
45395,40423
45397,40419
45399,40416
45401,40412
45404,40409
45407,40406
45411,40404
45414,40402
45418,40400
45422,40399
45426,40398
45430,40397
45434,40397
45519,40397
45523,40397
Z" /> 
</g>
<g >
</g>
<g >
</g>
<g >
</g>
<g >
</g>
<g >
</g>
<g >
</g>
<g >
</g>
<g >
</g>
<g >
</g>
<g >
</g>
<g >
</g>
<g >
</g>
<g >
</g>
<g >
</g>
<g >
</g>
<g >
</g>
<g >
</g>
<g >
</g>
<g >
</g>
<g >
</g>
<g >
</g>
<g >
</g>
<g >
</g>
<g >
</g>
<g >
</g>
<g >
</g>
<g >
</g>
<g >
</g>
<g >
</g>
<g >
</g>
<g >
</g>
<g >
</g>
<g >
</g>
<g >
</g>
<g >
</g>
<g >
</g>
<g >
</g>
<g >
</g>
<g >
</g>
<g >
</g>
<g >
</g>
<g >
</g>
<g >
</g>
<g >
</g>
<g >
</g>
<g >
</g>
<g >
</g>
<g >
</g>
<g >
</g>
<g >
</g>
<g >
</g>
<g >
</g>
<g >
</g>
<g >
</g>
<g >
</g>
<g >
</g>
<g >
</g>
<g >
</g>
<g >
</g>
<g >
</g>
<g >
</g>
<g >
</g>
<g >
</g>
<g >
</g>
<g >
</g>
</g> 
</svg>
