G04 #@! TF.GenerationSoftware,KiCad,Pcbnew,5.1.2-f72e74a~84~ubuntu18.04.1*
G04 #@! TF.CreationDate,2019-06-03T11:10:06+01:00*
G04 #@! TF.ProjectId,HealthMonitor,4865616c-7468-44d6-9f6e-69746f722e6b,rev?*
G04 #@! TF.SameCoordinates,Original*
G04 #@! TF.FileFunction,Other,User*
%FSLAX46Y46*%
G04 Gerber Fmt 4.6, Leading zero omitted, Abs format (unit mm)*
G04 Created by KiCad (PCBNEW 5.1.2-f72e74a~84~ubuntu18.04.1) date 2019-06-03 11:10:06*
%MOMM*%
%LPD*%
G04 APERTURE LIST*
%ADD10C,0.050000*%
%ADD11C,0.150000*%
G04 APERTURE END LIST*
D10*
X112275001Y-116913919D02*
X112275001Y-111713919D01*
X112275001Y-111713919D02*
X117475001Y-111713919D01*
X117475001Y-111713919D02*
X117475001Y-116913919D01*
X117475001Y-116913919D02*
X112275001Y-116913919D01*
D11*
X110750425Y-120270961D02*
X110750425Y-125452561D01*
X110750425Y-125452561D02*
X106584825Y-125452561D01*
X106584825Y-125452561D02*
X106584825Y-120220161D01*
X106584825Y-120220161D02*
X110699625Y-120220161D01*
X110699625Y-120220161D02*
X110750425Y-120270961D01*
X110750425Y-120270961D02*
X110598025Y-120220161D01*
D10*
X114210000Y-111478920D02*
X115150000Y-111478920D01*
X115150000Y-111478920D02*
X115150000Y-109618920D01*
X115150000Y-109618920D02*
X114210000Y-109618920D01*
X114210000Y-109618920D02*
X114210000Y-111478920D01*
X117396198Y-103294209D02*
X116456198Y-103294209D01*
X116456198Y-103294209D02*
X116456198Y-105154209D01*
X116456198Y-105154209D02*
X117396198Y-105154209D01*
X117396198Y-105154209D02*
X117396198Y-103294209D01*
X113160000Y-111478920D02*
X114100000Y-111478920D01*
X114100000Y-111478920D02*
X114100000Y-109618920D01*
X114100000Y-109618920D02*
X113160000Y-109618920D01*
X113160000Y-109618920D02*
X113160000Y-111478920D01*
X111350000Y-113260000D02*
X110410000Y-113260000D01*
X110410000Y-113260000D02*
X110410000Y-115120000D01*
X110410000Y-115120000D02*
X111350000Y-115120000D01*
X111350000Y-115120000D02*
X111350000Y-113260000D01*
X103710000Y-126235000D02*
X102250000Y-126235000D01*
X102250000Y-126235000D02*
X102250000Y-129195000D01*
X102250000Y-129195000D02*
X103710000Y-129195000D01*
X103710000Y-129195000D02*
X103710000Y-126235000D01*
X113146198Y-107094209D02*
X113146198Y-108554209D01*
X113146198Y-108554209D02*
X116106198Y-108554209D01*
X116106198Y-108554209D02*
X116106198Y-107094209D01*
X116106198Y-107094209D02*
X113146198Y-107094209D01*
X109996198Y-106279209D02*
X111456198Y-106279209D01*
X111456198Y-106279209D02*
X111456198Y-103319209D01*
X111456198Y-103319209D02*
X109996198Y-103319209D01*
X109996198Y-103319209D02*
X109996198Y-106279209D01*
X117571198Y-106241709D02*
X119031198Y-106241709D01*
X119031198Y-106241709D02*
X119031198Y-103281709D01*
X119031198Y-103281709D02*
X117571198Y-103281709D01*
X117571198Y-103281709D02*
X117571198Y-106241709D01*
X115931198Y-102144209D02*
X115931198Y-101204209D01*
X115931198Y-101204209D02*
X114071198Y-101204209D01*
X114071198Y-101204209D02*
X114071198Y-102144209D01*
X114071198Y-102144209D02*
X115931198Y-102144209D01*
X112596198Y-105179209D02*
X112596198Y-103319209D01*
X111656198Y-105179209D02*
X112596198Y-105179209D01*
X111656198Y-103319209D02*
X111656198Y-105179209D01*
X112596198Y-103319209D02*
X111656198Y-103319209D01*
D11*
X106222800Y-120249200D02*
X106222800Y-125430800D01*
X106222800Y-125430800D02*
X102057200Y-125430800D01*
X102057200Y-125430800D02*
X102057200Y-120198400D01*
X102057200Y-120198400D02*
X106172000Y-120198400D01*
X106172000Y-120198400D02*
X106222800Y-120249200D01*
X106222800Y-120249200D02*
X106070400Y-120198400D01*
D10*
X109050000Y-125825000D02*
X103900000Y-125825000D01*
X103900000Y-125825000D02*
X103900000Y-129525000D01*
X103900000Y-129525000D02*
X109050000Y-129525000D01*
X109050000Y-129525000D02*
X109050000Y-125825000D01*
X109070000Y-116050000D02*
X103920000Y-116050000D01*
X103920000Y-116050000D02*
X103920000Y-119750000D01*
X103920000Y-119750000D02*
X109070000Y-119750000D01*
X109070000Y-119750000D02*
X109070000Y-116050000D01*
X103750000Y-116420000D02*
X102290000Y-116420000D01*
X102290000Y-116420000D02*
X102290000Y-119380000D01*
X102290000Y-119380000D02*
X103750000Y-119380000D01*
X103750000Y-119380000D02*
X103750000Y-116420000D01*
X114096198Y-103319209D02*
X115956198Y-103319209D01*
X114096198Y-102379209D02*
X114096198Y-103319209D01*
X115956198Y-102379209D02*
X114096198Y-102379209D01*
X115956198Y-103319209D02*
X115956198Y-102379209D01*
M02*
