G04 #@! TF.GenerationSoftware,KiCad,Pcbnew,5.0.2-bee76a0~70~ubuntu18.04.1*
G04 #@! TF.CreationDate,2019-05-16T13:06:06+01:00*
G04 #@! TF.ProjectId,HealthMonitor,4865616c-7468-44d6-9f6e-69746f722e6b,rev?*
G04 #@! TF.SameCoordinates,Original*
G04 #@! TF.FileFunction,Soldermask,Top*
G04 #@! TF.FilePolarity,Negative*
%FSLAX46Y46*%
G04 Gerber Fmt 4.6, Leading zero omitted, Abs format (unit mm)*
G04 Created by KiCad (PCBNEW 5.0.2-bee76a0~70~ubuntu18.04.1) date Thu 16 May 2019 13:06:06 BST*
%MOMM*%
%LPD*%
G01*
G04 APERTURE LIST*
%ADD10C,0.100000*%
G04 APERTURE END LIST*
D10*
G36*
X126189591Y-124258085D02*
X126223569Y-124268393D01*
X126254887Y-124285133D01*
X126282339Y-124307661D01*
X126304867Y-124335113D01*
X126321607Y-124366431D01*
X126331915Y-124400409D01*
X126336000Y-124441890D01*
X126336000Y-125118110D01*
X126331915Y-125159591D01*
X126321607Y-125193569D01*
X126304867Y-125224887D01*
X126282339Y-125252339D01*
X126254887Y-125274867D01*
X126223569Y-125291607D01*
X126189591Y-125301915D01*
X126148110Y-125306000D01*
X125546890Y-125306000D01*
X125505409Y-125301915D01*
X125471431Y-125291607D01*
X125440113Y-125274867D01*
X125412661Y-125252339D01*
X125390133Y-125224887D01*
X125373393Y-125193569D01*
X125363085Y-125159591D01*
X125359000Y-125118110D01*
X125359000Y-124441890D01*
X125363085Y-124400409D01*
X125373393Y-124366431D01*
X125390133Y-124335113D01*
X125412661Y-124307661D01*
X125440113Y-124285133D01*
X125471431Y-124268393D01*
X125505409Y-124258085D01*
X125546890Y-124254000D01*
X126148110Y-124254000D01*
X126189591Y-124258085D01*
X126189591Y-124258085D01*
G37*
G36*
X124614591Y-124258085D02*
X124648569Y-124268393D01*
X124679887Y-124285133D01*
X124707339Y-124307661D01*
X124729867Y-124335113D01*
X124746607Y-124366431D01*
X124756915Y-124400409D01*
X124761000Y-124441890D01*
X124761000Y-125118110D01*
X124756915Y-125159591D01*
X124746607Y-125193569D01*
X124729867Y-125224887D01*
X124707339Y-125252339D01*
X124679887Y-125274867D01*
X124648569Y-125291607D01*
X124614591Y-125301915D01*
X124573110Y-125306000D01*
X123971890Y-125306000D01*
X123930409Y-125301915D01*
X123896431Y-125291607D01*
X123865113Y-125274867D01*
X123837661Y-125252339D01*
X123815133Y-125224887D01*
X123798393Y-125193569D01*
X123788085Y-125159591D01*
X123784000Y-125118110D01*
X123784000Y-124441890D01*
X123788085Y-124400409D01*
X123798393Y-124366431D01*
X123815133Y-124335113D01*
X123837661Y-124307661D01*
X123865113Y-124285133D01*
X123896431Y-124268393D01*
X123930409Y-124258085D01*
X123971890Y-124254000D01*
X124573110Y-124254000D01*
X124614591Y-124258085D01*
X124614591Y-124258085D01*
G37*
G36*
X164686938Y-124241716D02*
X164707556Y-124247970D01*
X164726556Y-124258126D01*
X164743208Y-124271792D01*
X164756874Y-124288444D01*
X164767030Y-124307444D01*
X164773284Y-124328062D01*
X164776000Y-124355640D01*
X164776000Y-124864360D01*
X164773284Y-124891938D01*
X164767030Y-124912556D01*
X164756874Y-124931556D01*
X164743208Y-124948208D01*
X164726556Y-124961874D01*
X164707556Y-124972030D01*
X164686938Y-124978284D01*
X164659360Y-124981000D01*
X164200640Y-124981000D01*
X164173062Y-124978284D01*
X164152444Y-124972030D01*
X164133444Y-124961874D01*
X164116792Y-124948208D01*
X164103126Y-124931556D01*
X164092970Y-124912556D01*
X164086716Y-124891938D01*
X164084000Y-124864360D01*
X164084000Y-124355640D01*
X164086716Y-124328062D01*
X164092970Y-124307444D01*
X164103126Y-124288444D01*
X164116792Y-124271792D01*
X164133444Y-124258126D01*
X164152444Y-124247970D01*
X164173062Y-124241716D01*
X164200640Y-124239000D01*
X164659360Y-124239000D01*
X164686938Y-124241716D01*
X164686938Y-124241716D01*
G37*
G36*
X163716938Y-124241716D02*
X163737556Y-124247970D01*
X163756556Y-124258126D01*
X163773208Y-124271792D01*
X163786874Y-124288444D01*
X163797030Y-124307444D01*
X163803284Y-124328062D01*
X163806000Y-124355640D01*
X163806000Y-124864360D01*
X163803284Y-124891938D01*
X163797030Y-124912556D01*
X163786874Y-124931556D01*
X163773208Y-124948208D01*
X163756556Y-124961874D01*
X163737556Y-124972030D01*
X163716938Y-124978284D01*
X163689360Y-124981000D01*
X163230640Y-124981000D01*
X163203062Y-124978284D01*
X163182444Y-124972030D01*
X163163444Y-124961874D01*
X163146792Y-124948208D01*
X163133126Y-124931556D01*
X163122970Y-124912556D01*
X163116716Y-124891938D01*
X163114000Y-124864360D01*
X163114000Y-124355640D01*
X163116716Y-124328062D01*
X163122970Y-124307444D01*
X163133126Y-124288444D01*
X163146792Y-124271792D01*
X163163444Y-124258126D01*
X163182444Y-124247970D01*
X163203062Y-124241716D01*
X163230640Y-124239000D01*
X163689360Y-124239000D01*
X163716938Y-124241716D01*
X163716938Y-124241716D01*
G37*
G36*
X153522004Y-123360544D02*
X153609059Y-123377860D01*
X153745732Y-123434472D01*
X153810391Y-123477676D01*
X153868738Y-123516662D01*
X153973338Y-123621262D01*
X153973340Y-123621265D01*
X154055528Y-123744268D01*
X154112140Y-123880941D01*
X154141000Y-124026033D01*
X154141000Y-124173967D01*
X154112140Y-124319059D01*
X154055528Y-124455732D01*
X154027118Y-124498250D01*
X153973338Y-124578738D01*
X153868738Y-124683338D01*
X153868735Y-124683340D01*
X153745732Y-124765528D01*
X153609059Y-124822140D01*
X153522004Y-124839456D01*
X153463969Y-124851000D01*
X153316031Y-124851000D01*
X153257996Y-124839456D01*
X153170941Y-124822140D01*
X153034268Y-124765528D01*
X152911265Y-124683340D01*
X152911262Y-124683338D01*
X152806662Y-124578738D01*
X152752882Y-124498250D01*
X152724472Y-124455732D01*
X152667860Y-124319059D01*
X152639000Y-124173967D01*
X152639000Y-124026033D01*
X152667860Y-123880941D01*
X152724472Y-123744268D01*
X152806660Y-123621265D01*
X152806662Y-123621262D01*
X152911262Y-123516662D01*
X152969609Y-123477676D01*
X153034268Y-123434472D01*
X153170941Y-123377860D01*
X153257996Y-123360544D01*
X153316031Y-123349000D01*
X153463969Y-123349000D01*
X153522004Y-123360544D01*
X153522004Y-123360544D01*
G37*
G36*
X159472004Y-123000544D02*
X159559059Y-123017860D01*
X159695732Y-123074472D01*
X159751585Y-123111792D01*
X159818738Y-123156662D01*
X159923338Y-123261262D01*
X159923340Y-123261265D01*
X160005528Y-123384268D01*
X160062140Y-123520941D01*
X160077468Y-123598000D01*
X160091000Y-123666031D01*
X160091000Y-123813969D01*
X160087438Y-123831874D01*
X160062140Y-123959059D01*
X160005528Y-124095732D01*
X160005527Y-124095733D01*
X159923338Y-124218738D01*
X159818738Y-124323338D01*
X159818735Y-124323340D01*
X159695732Y-124405528D01*
X159559059Y-124462140D01*
X159472004Y-124479456D01*
X159413969Y-124491000D01*
X159266031Y-124491000D01*
X159207996Y-124479456D01*
X159120941Y-124462140D01*
X158984268Y-124405528D01*
X158861265Y-124323340D01*
X158861262Y-124323338D01*
X158756662Y-124218738D01*
X158674473Y-124095733D01*
X158674472Y-124095732D01*
X158617860Y-123959059D01*
X158592562Y-123831874D01*
X158589000Y-123813969D01*
X158589000Y-123666031D01*
X158602532Y-123598000D01*
X158617860Y-123520941D01*
X158674472Y-123384268D01*
X158756660Y-123261265D01*
X158756662Y-123261262D01*
X158861262Y-123156662D01*
X158928415Y-123111792D01*
X158984268Y-123074472D01*
X159120941Y-123017860D01*
X159207996Y-123000544D01*
X159266031Y-122989000D01*
X159413969Y-122989000D01*
X159472004Y-123000544D01*
X159472004Y-123000544D01*
G37*
G36*
X117296938Y-123181716D02*
X117317556Y-123187970D01*
X117336556Y-123198126D01*
X117353208Y-123211792D01*
X117366874Y-123228444D01*
X117377030Y-123247444D01*
X117383284Y-123268062D01*
X117386000Y-123295640D01*
X117386000Y-123754360D01*
X117383284Y-123781938D01*
X117377030Y-123802556D01*
X117366874Y-123821556D01*
X117353208Y-123838208D01*
X117336556Y-123851874D01*
X117317556Y-123862030D01*
X117296938Y-123868284D01*
X117269360Y-123871000D01*
X116760640Y-123871000D01*
X116733062Y-123868284D01*
X116712444Y-123862030D01*
X116693444Y-123851874D01*
X116676792Y-123838208D01*
X116663126Y-123821556D01*
X116652970Y-123802556D01*
X116646716Y-123781938D01*
X116644000Y-123754360D01*
X116644000Y-123295640D01*
X116646716Y-123268062D01*
X116652970Y-123247444D01*
X116663126Y-123228444D01*
X116676792Y-123211792D01*
X116693444Y-123198126D01*
X116712444Y-123187970D01*
X116733062Y-123181716D01*
X116760640Y-123179000D01*
X117269360Y-123179000D01*
X117296938Y-123181716D01*
X117296938Y-123181716D01*
G37*
G36*
X122271938Y-123161716D02*
X122292556Y-123167970D01*
X122311556Y-123178126D01*
X122328208Y-123191792D01*
X122341874Y-123208444D01*
X122352030Y-123227444D01*
X122358284Y-123248062D01*
X122361000Y-123275640D01*
X122361000Y-123734360D01*
X122358284Y-123761938D01*
X122352030Y-123782556D01*
X122341874Y-123801556D01*
X122328208Y-123818208D01*
X122311556Y-123831874D01*
X122292556Y-123842030D01*
X122271938Y-123848284D01*
X122244360Y-123851000D01*
X121735640Y-123851000D01*
X121708062Y-123848284D01*
X121687444Y-123842030D01*
X121668444Y-123831874D01*
X121651792Y-123818208D01*
X121638126Y-123801556D01*
X121627970Y-123782556D01*
X121621716Y-123761938D01*
X121619000Y-123734360D01*
X121619000Y-123275640D01*
X121621716Y-123248062D01*
X121627970Y-123227444D01*
X121638126Y-123208444D01*
X121651792Y-123191792D01*
X121668444Y-123178126D01*
X121687444Y-123167970D01*
X121708062Y-123161716D01*
X121735640Y-123159000D01*
X122244360Y-123159000D01*
X122271938Y-123161716D01*
X122271938Y-123161716D01*
G37*
G36*
X123421938Y-123081716D02*
X123442556Y-123087970D01*
X123461556Y-123098126D01*
X123478208Y-123111792D01*
X123491874Y-123128444D01*
X123502030Y-123147444D01*
X123508284Y-123168062D01*
X123511000Y-123195640D01*
X123511000Y-123654360D01*
X123508284Y-123681938D01*
X123502030Y-123702556D01*
X123491874Y-123721556D01*
X123478208Y-123738208D01*
X123461556Y-123751874D01*
X123442556Y-123762030D01*
X123421938Y-123768284D01*
X123394360Y-123771000D01*
X122885640Y-123771000D01*
X122858062Y-123768284D01*
X122837444Y-123762030D01*
X122818444Y-123751874D01*
X122801792Y-123738208D01*
X122788126Y-123721556D01*
X122777970Y-123702556D01*
X122771716Y-123681938D01*
X122769000Y-123654360D01*
X122769000Y-123195640D01*
X122771716Y-123168062D01*
X122777970Y-123147444D01*
X122788126Y-123128444D01*
X122801792Y-123111792D01*
X122818444Y-123098126D01*
X122837444Y-123087970D01*
X122858062Y-123081716D01*
X122885640Y-123079000D01*
X123394360Y-123079000D01*
X123421938Y-123081716D01*
X123421938Y-123081716D01*
G37*
G36*
X165971938Y-122741716D02*
X165992556Y-122747970D01*
X166011556Y-122758126D01*
X166028208Y-122771792D01*
X166041874Y-122788444D01*
X166052030Y-122807444D01*
X166058284Y-122828062D01*
X166061000Y-122855640D01*
X166061000Y-123364360D01*
X166058284Y-123391938D01*
X166052030Y-123412556D01*
X166041874Y-123431556D01*
X166028208Y-123448208D01*
X166011556Y-123461874D01*
X165992556Y-123472030D01*
X165971938Y-123478284D01*
X165944360Y-123481000D01*
X165485640Y-123481000D01*
X165458062Y-123478284D01*
X165437444Y-123472030D01*
X165418444Y-123461874D01*
X165401792Y-123448208D01*
X165388126Y-123431556D01*
X165377970Y-123412556D01*
X165371716Y-123391938D01*
X165369000Y-123364360D01*
X165369000Y-122855640D01*
X165371716Y-122828062D01*
X165377970Y-122807444D01*
X165388126Y-122788444D01*
X165401792Y-122771792D01*
X165418444Y-122758126D01*
X165437444Y-122747970D01*
X165458062Y-122741716D01*
X165485640Y-122739000D01*
X165944360Y-122739000D01*
X165971938Y-122741716D01*
X165971938Y-122741716D01*
G37*
G36*
X165001938Y-122741716D02*
X165022556Y-122747970D01*
X165041556Y-122758126D01*
X165058208Y-122771792D01*
X165071874Y-122788444D01*
X165082030Y-122807444D01*
X165088284Y-122828062D01*
X165091000Y-122855640D01*
X165091000Y-123364360D01*
X165088284Y-123391938D01*
X165082030Y-123412556D01*
X165071874Y-123431556D01*
X165058208Y-123448208D01*
X165041556Y-123461874D01*
X165022556Y-123472030D01*
X165001938Y-123478284D01*
X164974360Y-123481000D01*
X164515640Y-123481000D01*
X164488062Y-123478284D01*
X164467444Y-123472030D01*
X164448444Y-123461874D01*
X164431792Y-123448208D01*
X164418126Y-123431556D01*
X164407970Y-123412556D01*
X164401716Y-123391938D01*
X164399000Y-123364360D01*
X164399000Y-122855640D01*
X164401716Y-122828062D01*
X164407970Y-122807444D01*
X164418126Y-122788444D01*
X164431792Y-122771792D01*
X164448444Y-122758126D01*
X164467444Y-122747970D01*
X164488062Y-122741716D01*
X164515640Y-122739000D01*
X164974360Y-122739000D01*
X165001938Y-122741716D01*
X165001938Y-122741716D01*
G37*
G36*
X124551938Y-122606716D02*
X124572556Y-122612970D01*
X124591556Y-122623126D01*
X124608208Y-122636792D01*
X124621874Y-122653444D01*
X124632030Y-122672444D01*
X124638284Y-122693062D01*
X124641000Y-122720640D01*
X124641000Y-123179360D01*
X124638284Y-123206938D01*
X124632030Y-123227556D01*
X124621874Y-123246556D01*
X124608208Y-123263208D01*
X124591556Y-123276874D01*
X124572556Y-123287030D01*
X124551938Y-123293284D01*
X124524360Y-123296000D01*
X124015640Y-123296000D01*
X123988062Y-123293284D01*
X123967444Y-123287030D01*
X123948444Y-123276874D01*
X123931792Y-123263208D01*
X123918126Y-123246556D01*
X123907970Y-123227556D01*
X123901716Y-123206938D01*
X123899000Y-123179360D01*
X123899000Y-122720640D01*
X123901716Y-122693062D01*
X123907970Y-122672444D01*
X123918126Y-122653444D01*
X123931792Y-122636792D01*
X123948444Y-122623126D01*
X123967444Y-122612970D01*
X123988062Y-122606716D01*
X124015640Y-122604000D01*
X124524360Y-122604000D01*
X124551938Y-122606716D01*
X124551938Y-122606716D01*
G37*
G36*
X117296938Y-122211716D02*
X117317556Y-122217970D01*
X117336556Y-122228126D01*
X117353208Y-122241792D01*
X117366874Y-122258444D01*
X117377030Y-122277444D01*
X117383284Y-122298062D01*
X117386000Y-122325640D01*
X117386000Y-122784360D01*
X117383284Y-122811938D01*
X117377030Y-122832556D01*
X117366874Y-122851556D01*
X117353208Y-122868208D01*
X117336556Y-122881874D01*
X117317556Y-122892030D01*
X117296938Y-122898284D01*
X117269360Y-122901000D01*
X116760640Y-122901000D01*
X116733062Y-122898284D01*
X116712444Y-122892030D01*
X116693444Y-122881874D01*
X116676792Y-122868208D01*
X116663126Y-122851556D01*
X116652970Y-122832556D01*
X116646716Y-122811938D01*
X116644000Y-122784360D01*
X116644000Y-122325640D01*
X116646716Y-122298062D01*
X116652970Y-122277444D01*
X116663126Y-122258444D01*
X116676792Y-122241792D01*
X116693444Y-122228126D01*
X116712444Y-122217970D01*
X116733062Y-122211716D01*
X116760640Y-122209000D01*
X117269360Y-122209000D01*
X117296938Y-122211716D01*
X117296938Y-122211716D01*
G37*
G36*
X122271938Y-122191716D02*
X122292556Y-122197970D01*
X122311556Y-122208126D01*
X122328208Y-122221792D01*
X122341874Y-122238444D01*
X122352030Y-122257444D01*
X122358284Y-122278062D01*
X122361000Y-122305640D01*
X122361000Y-122764360D01*
X122358284Y-122791938D01*
X122352030Y-122812556D01*
X122341874Y-122831556D01*
X122328208Y-122848208D01*
X122311556Y-122861874D01*
X122292556Y-122872030D01*
X122271938Y-122878284D01*
X122244360Y-122881000D01*
X121735640Y-122881000D01*
X121708062Y-122878284D01*
X121687444Y-122872030D01*
X121668444Y-122861874D01*
X121651792Y-122848208D01*
X121638126Y-122831556D01*
X121627970Y-122812556D01*
X121621716Y-122791938D01*
X121619000Y-122764360D01*
X121619000Y-122305640D01*
X121621716Y-122278062D01*
X121627970Y-122257444D01*
X121638126Y-122238444D01*
X121651792Y-122221792D01*
X121668444Y-122208126D01*
X121687444Y-122197970D01*
X121708062Y-122191716D01*
X121735640Y-122189000D01*
X122244360Y-122189000D01*
X122271938Y-122191716D01*
X122271938Y-122191716D01*
G37*
G36*
X123421938Y-122111716D02*
X123442556Y-122117970D01*
X123461556Y-122128126D01*
X123478208Y-122141792D01*
X123491874Y-122158444D01*
X123502030Y-122177444D01*
X123508284Y-122198062D01*
X123511000Y-122225640D01*
X123511000Y-122684360D01*
X123508284Y-122711938D01*
X123502030Y-122732556D01*
X123491874Y-122751556D01*
X123478208Y-122768208D01*
X123461556Y-122781874D01*
X123442556Y-122792030D01*
X123421938Y-122798284D01*
X123394360Y-122801000D01*
X122885640Y-122801000D01*
X122858062Y-122798284D01*
X122837444Y-122792030D01*
X122818444Y-122781874D01*
X122801792Y-122768208D01*
X122788126Y-122751556D01*
X122777970Y-122732556D01*
X122771716Y-122711938D01*
X122769000Y-122684360D01*
X122769000Y-122225640D01*
X122771716Y-122198062D01*
X122777970Y-122177444D01*
X122788126Y-122158444D01*
X122801792Y-122141792D01*
X122818444Y-122128126D01*
X122837444Y-122117970D01*
X122858062Y-122111716D01*
X122885640Y-122109000D01*
X123394360Y-122109000D01*
X123421938Y-122111716D01*
X123421938Y-122111716D01*
G37*
G36*
X161651000Y-122561000D02*
X160849000Y-122561000D01*
X160849000Y-116659000D01*
X161651000Y-116659000D01*
X161651000Y-122561000D01*
X161651000Y-122561000D01*
G37*
G36*
X124551938Y-121636716D02*
X124572556Y-121642970D01*
X124591556Y-121653126D01*
X124608208Y-121666792D01*
X124621874Y-121683444D01*
X124632030Y-121702444D01*
X124638284Y-121723062D01*
X124641000Y-121750640D01*
X124641000Y-122209360D01*
X124638284Y-122236938D01*
X124632030Y-122257556D01*
X124621874Y-122276556D01*
X124608208Y-122293208D01*
X124591556Y-122306874D01*
X124572556Y-122317030D01*
X124551938Y-122323284D01*
X124524360Y-122326000D01*
X124015640Y-122326000D01*
X123988062Y-122323284D01*
X123967444Y-122317030D01*
X123948444Y-122306874D01*
X123931792Y-122293208D01*
X123918126Y-122276556D01*
X123907970Y-122257556D01*
X123901716Y-122236938D01*
X123899000Y-122209360D01*
X123899000Y-121750640D01*
X123901716Y-121723062D01*
X123907970Y-121702444D01*
X123918126Y-121683444D01*
X123931792Y-121666792D01*
X123948444Y-121653126D01*
X123967444Y-121642970D01*
X123988062Y-121636716D01*
X124015640Y-121634000D01*
X124524360Y-121634000D01*
X124551938Y-121636716D01*
X124551938Y-121636716D01*
G37*
G36*
X159472004Y-114740544D02*
X159559059Y-114757860D01*
X159695732Y-114814472D01*
X159695733Y-114814473D01*
X159818738Y-114896662D01*
X159923338Y-115001262D01*
X159923340Y-115001265D01*
X160005528Y-115124268D01*
X160062140Y-115260941D01*
X160071390Y-115307444D01*
X160091000Y-115406031D01*
X160091000Y-115553969D01*
X160083317Y-115592592D01*
X160062140Y-115699059D01*
X160005528Y-115835732D01*
X159954196Y-115912556D01*
X159923338Y-115958738D01*
X159818738Y-116063338D01*
X159818735Y-116063340D01*
X159695732Y-116145528D01*
X159640229Y-116168518D01*
X159618625Y-116180066D01*
X159599683Y-116195612D01*
X159584137Y-116214554D01*
X159572586Y-116236165D01*
X159565473Y-116259614D01*
X159563071Y-116284000D01*
X159565473Y-116308386D01*
X159572586Y-116331836D01*
X159584137Y-116353446D01*
X159599683Y-116372388D01*
X159618625Y-116387934D01*
X159640236Y-116399485D01*
X159663685Y-116406598D01*
X159688071Y-116409000D01*
X159951000Y-116409000D01*
X159951000Y-122311000D01*
X159149000Y-122311000D01*
X159149000Y-116297284D01*
X159146598Y-116272898D01*
X159139485Y-116249449D01*
X159127934Y-116227838D01*
X159112388Y-116208896D01*
X159093446Y-116193350D01*
X159071840Y-116181801D01*
X158984268Y-116145528D01*
X158861265Y-116063340D01*
X158861262Y-116063338D01*
X158756662Y-115958738D01*
X158725804Y-115912556D01*
X158674472Y-115835732D01*
X158617860Y-115699059D01*
X158596683Y-115592592D01*
X158589000Y-115553969D01*
X158589000Y-115406031D01*
X158608610Y-115307444D01*
X158617860Y-115260941D01*
X158674472Y-115124268D01*
X158756660Y-115001265D01*
X158756662Y-115001262D01*
X158861262Y-114896662D01*
X158984267Y-114814473D01*
X158984268Y-114814472D01*
X159120941Y-114757860D01*
X159207996Y-114740544D01*
X159266031Y-114729000D01*
X159413969Y-114729000D01*
X159472004Y-114740544D01*
X159472004Y-114740544D01*
G37*
G36*
X166056000Y-122291000D02*
X163404000Y-122291000D01*
X163404000Y-121129000D01*
X166056000Y-121129000D01*
X166056000Y-122291000D01*
X166056000Y-122291000D01*
G37*
G36*
X125651938Y-121151716D02*
X125672556Y-121157970D01*
X125691556Y-121168126D01*
X125708208Y-121181792D01*
X125721874Y-121198444D01*
X125732030Y-121217444D01*
X125738284Y-121238062D01*
X125741000Y-121265640D01*
X125741000Y-121724360D01*
X125738284Y-121751938D01*
X125732030Y-121772556D01*
X125721874Y-121791556D01*
X125708208Y-121808208D01*
X125691556Y-121821874D01*
X125672556Y-121832030D01*
X125651938Y-121838284D01*
X125624360Y-121841000D01*
X125115640Y-121841000D01*
X125088062Y-121838284D01*
X125067444Y-121832030D01*
X125048444Y-121821874D01*
X125031792Y-121808208D01*
X125018126Y-121791556D01*
X125007970Y-121772556D01*
X125001716Y-121751938D01*
X124999000Y-121724360D01*
X124999000Y-121265640D01*
X125001716Y-121238062D01*
X125007970Y-121217444D01*
X125018126Y-121198444D01*
X125031792Y-121181792D01*
X125048444Y-121168126D01*
X125067444Y-121157970D01*
X125088062Y-121151716D01*
X125115640Y-121149000D01*
X125624360Y-121149000D01*
X125651938Y-121151716D01*
X125651938Y-121151716D01*
G37*
G36*
X120441000Y-119564000D02*
X120443402Y-119588386D01*
X120450515Y-119611835D01*
X120462066Y-119633446D01*
X120477612Y-119652388D01*
X120496554Y-119667934D01*
X120518165Y-119679485D01*
X120541614Y-119686598D01*
X120566000Y-119689000D01*
X121291000Y-119689000D01*
X121291000Y-121591000D01*
X120566000Y-121591000D01*
X120541614Y-121593402D01*
X120518165Y-121600515D01*
X120496554Y-121612066D01*
X120477612Y-121627612D01*
X120462066Y-121646554D01*
X120450515Y-121668165D01*
X120443402Y-121691614D01*
X120441000Y-121716000D01*
X120441000Y-121791000D01*
X120139000Y-121791000D01*
X120139000Y-121716000D01*
X120136598Y-121691614D01*
X120129485Y-121668165D01*
X120117934Y-121646554D01*
X120102388Y-121627612D01*
X120083446Y-121612066D01*
X120061835Y-121600515D01*
X120038386Y-121593402D01*
X120014000Y-121591000D01*
X119289000Y-121591000D01*
X119289000Y-120316000D01*
X119991000Y-120316000D01*
X119991000Y-120964000D01*
X119993402Y-120988386D01*
X120000515Y-121011835D01*
X120012066Y-121033446D01*
X120027612Y-121052388D01*
X120046554Y-121067934D01*
X120068165Y-121079485D01*
X120091614Y-121086598D01*
X120116000Y-121089000D01*
X120464000Y-121089000D01*
X120488386Y-121086598D01*
X120511835Y-121079485D01*
X120533446Y-121067934D01*
X120552388Y-121052388D01*
X120567934Y-121033446D01*
X120579485Y-121011835D01*
X120586598Y-120988386D01*
X120589000Y-120964000D01*
X120589000Y-120316000D01*
X120586598Y-120291614D01*
X120579485Y-120268165D01*
X120567934Y-120246554D01*
X120552388Y-120227612D01*
X120533446Y-120212066D01*
X120511835Y-120200515D01*
X120488386Y-120193402D01*
X120464000Y-120191000D01*
X120116000Y-120191000D01*
X120091614Y-120193402D01*
X120068165Y-120200515D01*
X120046554Y-120212066D01*
X120027612Y-120227612D01*
X120012066Y-120246554D01*
X120000515Y-120268165D01*
X119993402Y-120291614D01*
X119991000Y-120316000D01*
X119289000Y-120316000D01*
X119289000Y-119689000D01*
X119614000Y-119689000D01*
X119638386Y-119686598D01*
X119661835Y-119679485D01*
X119683446Y-119667934D01*
X119702388Y-119652388D01*
X119717934Y-119633446D01*
X119729485Y-119611835D01*
X119736598Y-119588386D01*
X119739000Y-119564000D01*
X119739000Y-119489000D01*
X120441000Y-119489000D01*
X120441000Y-119564000D01*
X120441000Y-119564000D01*
G37*
G36*
X116242040Y-119676126D02*
X116263420Y-119680379D01*
X116293630Y-119692893D01*
X116293632Y-119692894D01*
X116320820Y-119711060D01*
X116326612Y-119716852D01*
X116345554Y-119732398D01*
X116367165Y-119743949D01*
X116390614Y-119751062D01*
X116415000Y-119753464D01*
X116439386Y-119751062D01*
X116462835Y-119743949D01*
X116484446Y-119732398D01*
X116503388Y-119716852D01*
X116509180Y-119711060D01*
X116536368Y-119692894D01*
X116536370Y-119692893D01*
X116566580Y-119680379D01*
X116587960Y-119676126D01*
X116598649Y-119674000D01*
X116631351Y-119674000D01*
X116642040Y-119676126D01*
X116663420Y-119680379D01*
X116693630Y-119692893D01*
X116693632Y-119692894D01*
X116720820Y-119711060D01*
X116726612Y-119716852D01*
X116745554Y-119732398D01*
X116767165Y-119743949D01*
X116790614Y-119751062D01*
X116815000Y-119753464D01*
X116839386Y-119751062D01*
X116862835Y-119743949D01*
X116884446Y-119732398D01*
X116903388Y-119716852D01*
X116909180Y-119711060D01*
X116936368Y-119692894D01*
X116936370Y-119692893D01*
X116966580Y-119680379D01*
X116987960Y-119676126D01*
X116998649Y-119674000D01*
X117031351Y-119674000D01*
X117042040Y-119676126D01*
X117063420Y-119680379D01*
X117093630Y-119692893D01*
X117093632Y-119692894D01*
X117120820Y-119711060D01*
X117126612Y-119716852D01*
X117145554Y-119732398D01*
X117167165Y-119743949D01*
X117190614Y-119751062D01*
X117215000Y-119753464D01*
X117239386Y-119751062D01*
X117262835Y-119743949D01*
X117284446Y-119732398D01*
X117303388Y-119716852D01*
X117309180Y-119711060D01*
X117336368Y-119692894D01*
X117336370Y-119692893D01*
X117366580Y-119680379D01*
X117387960Y-119676126D01*
X117398649Y-119674000D01*
X117431351Y-119674000D01*
X117442040Y-119676126D01*
X117463420Y-119680379D01*
X117493630Y-119692893D01*
X117493632Y-119692894D01*
X117520820Y-119711060D01*
X117543940Y-119734180D01*
X117562106Y-119761368D01*
X117562107Y-119761370D01*
X117574621Y-119791580D01*
X117581000Y-119823650D01*
X117581000Y-119856350D01*
X117574621Y-119888420D01*
X117566424Y-119908208D01*
X117562106Y-119918632D01*
X117543940Y-119945820D01*
X117538148Y-119951612D01*
X117522602Y-119970554D01*
X117511051Y-119992165D01*
X117503938Y-120015614D01*
X117501536Y-120040000D01*
X117503938Y-120064386D01*
X117511051Y-120087835D01*
X117522602Y-120109446D01*
X117538148Y-120128388D01*
X117543940Y-120134180D01*
X117562106Y-120161368D01*
X117562107Y-120161370D01*
X117574621Y-120191580D01*
X117581000Y-120223650D01*
X117581000Y-120256350D01*
X117574621Y-120288420D01*
X117563196Y-120316000D01*
X117562106Y-120318632D01*
X117543940Y-120345820D01*
X117538148Y-120351612D01*
X117522602Y-120370554D01*
X117511051Y-120392165D01*
X117503938Y-120415614D01*
X117501536Y-120440000D01*
X117503938Y-120464386D01*
X117511051Y-120487835D01*
X117522602Y-120509446D01*
X117538148Y-120528388D01*
X117543940Y-120534180D01*
X117561860Y-120561000D01*
X117562107Y-120561370D01*
X117574621Y-120591580D01*
X117581000Y-120623650D01*
X117581000Y-120656350D01*
X117574621Y-120688420D01*
X117562107Y-120718630D01*
X117562106Y-120718632D01*
X117543940Y-120745820D01*
X117538148Y-120751612D01*
X117522602Y-120770554D01*
X117511051Y-120792165D01*
X117503938Y-120815614D01*
X117501536Y-120840000D01*
X117503938Y-120864386D01*
X117511051Y-120887835D01*
X117522602Y-120909446D01*
X117538148Y-120928388D01*
X117543940Y-120934180D01*
X117562106Y-120961368D01*
X117562107Y-120961370D01*
X117574621Y-120991580D01*
X117581000Y-121023650D01*
X117581000Y-121056350D01*
X117574621Y-121088420D01*
X117562107Y-121118630D01*
X117562106Y-121118632D01*
X117543940Y-121145820D01*
X117538148Y-121151612D01*
X117522602Y-121170554D01*
X117511051Y-121192165D01*
X117503938Y-121215614D01*
X117501536Y-121240000D01*
X117503938Y-121264386D01*
X117511051Y-121287835D01*
X117522602Y-121309446D01*
X117538148Y-121328388D01*
X117543940Y-121334180D01*
X117562106Y-121361368D01*
X117562107Y-121361370D01*
X117574621Y-121391580D01*
X117581000Y-121423650D01*
X117581000Y-121456350D01*
X117574621Y-121488420D01*
X117562107Y-121518630D01*
X117562106Y-121518632D01*
X117543940Y-121545820D01*
X117520820Y-121568940D01*
X117493632Y-121587106D01*
X117493631Y-121587107D01*
X117493630Y-121587107D01*
X117463420Y-121599621D01*
X117442040Y-121603874D01*
X117431351Y-121606000D01*
X117398649Y-121606000D01*
X117387960Y-121603874D01*
X117366580Y-121599621D01*
X117336370Y-121587107D01*
X117336369Y-121587107D01*
X117336368Y-121587106D01*
X117309180Y-121568940D01*
X117303388Y-121563148D01*
X117284446Y-121547602D01*
X117262835Y-121536051D01*
X117239386Y-121528938D01*
X117215000Y-121526536D01*
X117190614Y-121528938D01*
X117167165Y-121536051D01*
X117145554Y-121547602D01*
X117126612Y-121563148D01*
X117120820Y-121568940D01*
X117093632Y-121587106D01*
X117093631Y-121587107D01*
X117093630Y-121587107D01*
X117063420Y-121599621D01*
X117042040Y-121603874D01*
X117031351Y-121606000D01*
X116998649Y-121606000D01*
X116987960Y-121603874D01*
X116966580Y-121599621D01*
X116936370Y-121587107D01*
X116936369Y-121587107D01*
X116936368Y-121587106D01*
X116909180Y-121568940D01*
X116903388Y-121563148D01*
X116884446Y-121547602D01*
X116862835Y-121536051D01*
X116839386Y-121528938D01*
X116815000Y-121526536D01*
X116790614Y-121528938D01*
X116767165Y-121536051D01*
X116745554Y-121547602D01*
X116726612Y-121563148D01*
X116720820Y-121568940D01*
X116693632Y-121587106D01*
X116693631Y-121587107D01*
X116693630Y-121587107D01*
X116663420Y-121599621D01*
X116642040Y-121603874D01*
X116631351Y-121606000D01*
X116598649Y-121606000D01*
X116587960Y-121603874D01*
X116566580Y-121599621D01*
X116536370Y-121587107D01*
X116536369Y-121587107D01*
X116536368Y-121587106D01*
X116509180Y-121568940D01*
X116503388Y-121563148D01*
X116484446Y-121547602D01*
X116462835Y-121536051D01*
X116439386Y-121528938D01*
X116415000Y-121526536D01*
X116390614Y-121528938D01*
X116367165Y-121536051D01*
X116345554Y-121547602D01*
X116326612Y-121563148D01*
X116320820Y-121568940D01*
X116293632Y-121587106D01*
X116293631Y-121587107D01*
X116293630Y-121587107D01*
X116263420Y-121599621D01*
X116242040Y-121603874D01*
X116231351Y-121606000D01*
X116198649Y-121606000D01*
X116187960Y-121603874D01*
X116166580Y-121599621D01*
X116136370Y-121587107D01*
X116136369Y-121587107D01*
X116136368Y-121587106D01*
X116109180Y-121568940D01*
X116086060Y-121545820D01*
X116067894Y-121518632D01*
X116067893Y-121518630D01*
X116055379Y-121488420D01*
X116049000Y-121456350D01*
X116049000Y-121423650D01*
X116055379Y-121391580D01*
X116067893Y-121361370D01*
X116067894Y-121361368D01*
X116086060Y-121334180D01*
X116091852Y-121328388D01*
X116107398Y-121309446D01*
X116118949Y-121287835D01*
X116126062Y-121264386D01*
X116128464Y-121240000D01*
X116126062Y-121215614D01*
X116118949Y-121192165D01*
X116107398Y-121170554D01*
X116091852Y-121151612D01*
X116086060Y-121145820D01*
X116067894Y-121118632D01*
X116067893Y-121118630D01*
X116055379Y-121088420D01*
X116049000Y-121056350D01*
X116049000Y-121023650D01*
X116055379Y-120991580D01*
X116067893Y-120961370D01*
X116067894Y-120961368D01*
X116086060Y-120934180D01*
X116091852Y-120928388D01*
X116107398Y-120909446D01*
X116118949Y-120887835D01*
X116126062Y-120864386D01*
X116128464Y-120840000D01*
X116126062Y-120815614D01*
X116118949Y-120792165D01*
X116107398Y-120770554D01*
X116091852Y-120751612D01*
X116086060Y-120745820D01*
X116067894Y-120718632D01*
X116067893Y-120718630D01*
X116055379Y-120688420D01*
X116049000Y-120656350D01*
X116049000Y-120623650D01*
X116055379Y-120591580D01*
X116067893Y-120561370D01*
X116068140Y-120561000D01*
X116086060Y-120534180D01*
X116091852Y-120528388D01*
X116107398Y-120509446D01*
X116118949Y-120487835D01*
X116126062Y-120464386D01*
X116128464Y-120440000D01*
X116126062Y-120415614D01*
X116118949Y-120392165D01*
X116107398Y-120370554D01*
X116091852Y-120351612D01*
X116086060Y-120345820D01*
X116067894Y-120318632D01*
X116066804Y-120316000D01*
X116055379Y-120288420D01*
X116049000Y-120256350D01*
X116049000Y-120223650D01*
X116055379Y-120191580D01*
X116067893Y-120161370D01*
X116067894Y-120161368D01*
X116086060Y-120134180D01*
X116091852Y-120128388D01*
X116107398Y-120109446D01*
X116118949Y-120087835D01*
X116126062Y-120064386D01*
X116128464Y-120040000D01*
X116126062Y-120015614D01*
X116118949Y-119992165D01*
X116107398Y-119970554D01*
X116091852Y-119951612D01*
X116086060Y-119945820D01*
X116067894Y-119918632D01*
X116063576Y-119908208D01*
X116055379Y-119888420D01*
X116049000Y-119856350D01*
X116049000Y-119823650D01*
X116055379Y-119791580D01*
X116067893Y-119761370D01*
X116067894Y-119761368D01*
X116086060Y-119734180D01*
X116109180Y-119711060D01*
X116136368Y-119692894D01*
X116136370Y-119692893D01*
X116166580Y-119680379D01*
X116187960Y-119676126D01*
X116198649Y-119674000D01*
X116231351Y-119674000D01*
X116242040Y-119676126D01*
X116242040Y-119676126D01*
G37*
G36*
X115231938Y-120391716D02*
X115252556Y-120397970D01*
X115271556Y-120408126D01*
X115288208Y-120421792D01*
X115301874Y-120438444D01*
X115312030Y-120457444D01*
X115318284Y-120478062D01*
X115321000Y-120505640D01*
X115321000Y-120964360D01*
X115318284Y-120991938D01*
X115312030Y-121012556D01*
X115301874Y-121031556D01*
X115288208Y-121048208D01*
X115271556Y-121061874D01*
X115252556Y-121072030D01*
X115231938Y-121078284D01*
X115204360Y-121081000D01*
X114695640Y-121081000D01*
X114668062Y-121078284D01*
X114647444Y-121072030D01*
X114628444Y-121061874D01*
X114611792Y-121048208D01*
X114598126Y-121031556D01*
X114587970Y-121012556D01*
X114581716Y-120991938D01*
X114579000Y-120964360D01*
X114579000Y-120505640D01*
X114581716Y-120478062D01*
X114587970Y-120457444D01*
X114598126Y-120438444D01*
X114611792Y-120421792D01*
X114628444Y-120408126D01*
X114647444Y-120397970D01*
X114668062Y-120391716D01*
X114695640Y-120389000D01*
X115204360Y-120389000D01*
X115231938Y-120391716D01*
X115231938Y-120391716D01*
G37*
G36*
X124411938Y-120221716D02*
X124432556Y-120227970D01*
X124451556Y-120238126D01*
X124468208Y-120251792D01*
X124481874Y-120268444D01*
X124492030Y-120287444D01*
X124498284Y-120308062D01*
X124501000Y-120335640D01*
X124501000Y-120794360D01*
X124498284Y-120821938D01*
X124492030Y-120842556D01*
X124481874Y-120861556D01*
X124468208Y-120878208D01*
X124451556Y-120891874D01*
X124432556Y-120902030D01*
X124411938Y-120908284D01*
X124384360Y-120911000D01*
X123875640Y-120911000D01*
X123848062Y-120908284D01*
X123827444Y-120902030D01*
X123808444Y-120891874D01*
X123791792Y-120878208D01*
X123778126Y-120861556D01*
X123767970Y-120842556D01*
X123761716Y-120821938D01*
X123759000Y-120794360D01*
X123759000Y-120335640D01*
X123761716Y-120308062D01*
X123767970Y-120287444D01*
X123778126Y-120268444D01*
X123791792Y-120251792D01*
X123808444Y-120238126D01*
X123827444Y-120227970D01*
X123848062Y-120221716D01*
X123875640Y-120219000D01*
X124384360Y-120219000D01*
X124411938Y-120221716D01*
X124411938Y-120221716D01*
G37*
G36*
X125651938Y-120181716D02*
X125672556Y-120187970D01*
X125691556Y-120198126D01*
X125708208Y-120211792D01*
X125721874Y-120228444D01*
X125732030Y-120247444D01*
X125738284Y-120268062D01*
X125741000Y-120295640D01*
X125741000Y-120754360D01*
X125738284Y-120781938D01*
X125732030Y-120802556D01*
X125721874Y-120821556D01*
X125708208Y-120838208D01*
X125691556Y-120851874D01*
X125672556Y-120862030D01*
X125651938Y-120868284D01*
X125624360Y-120871000D01*
X125115640Y-120871000D01*
X125088062Y-120868284D01*
X125067444Y-120862030D01*
X125048444Y-120851874D01*
X125031792Y-120838208D01*
X125018126Y-120821556D01*
X125007970Y-120802556D01*
X125001716Y-120781938D01*
X124999000Y-120754360D01*
X124999000Y-120295640D01*
X125001716Y-120268062D01*
X125007970Y-120247444D01*
X125018126Y-120228444D01*
X125031792Y-120211792D01*
X125048444Y-120198126D01*
X125067444Y-120187970D01*
X125088062Y-120181716D01*
X125115640Y-120179000D01*
X125624360Y-120179000D01*
X125651938Y-120181716D01*
X125651938Y-120181716D01*
G37*
G36*
X115231938Y-119421716D02*
X115252556Y-119427970D01*
X115271556Y-119438126D01*
X115288208Y-119451792D01*
X115301874Y-119468444D01*
X115312030Y-119487444D01*
X115318284Y-119508062D01*
X115321000Y-119535640D01*
X115321000Y-119994360D01*
X115318284Y-120021938D01*
X115312030Y-120042556D01*
X115301874Y-120061556D01*
X115288208Y-120078208D01*
X115271556Y-120091874D01*
X115252556Y-120102030D01*
X115231938Y-120108284D01*
X115204360Y-120111000D01*
X114695640Y-120111000D01*
X114668062Y-120108284D01*
X114647444Y-120102030D01*
X114628444Y-120091874D01*
X114611792Y-120078208D01*
X114598126Y-120061556D01*
X114587970Y-120042556D01*
X114581716Y-120021938D01*
X114579000Y-119994360D01*
X114579000Y-119535640D01*
X114581716Y-119508062D01*
X114587970Y-119487444D01*
X114598126Y-119468444D01*
X114611792Y-119451792D01*
X114628444Y-119438126D01*
X114647444Y-119427970D01*
X114668062Y-119421716D01*
X114695640Y-119419000D01*
X115204360Y-119419000D01*
X115231938Y-119421716D01*
X115231938Y-119421716D01*
G37*
G36*
X164156000Y-120091000D02*
X163404000Y-120091000D01*
X163404000Y-118929000D01*
X164156000Y-118929000D01*
X164156000Y-120091000D01*
X164156000Y-120091000D01*
G37*
G36*
X166056000Y-120091000D02*
X165304000Y-120091000D01*
X165304000Y-118929000D01*
X166056000Y-118929000D01*
X166056000Y-120091000D01*
X166056000Y-120091000D01*
G37*
G36*
X124411938Y-119251716D02*
X124432556Y-119257970D01*
X124451556Y-119268126D01*
X124468208Y-119281792D01*
X124481874Y-119298444D01*
X124492030Y-119317444D01*
X124498284Y-119338062D01*
X124501000Y-119365640D01*
X124501000Y-119824360D01*
X124498284Y-119851938D01*
X124492030Y-119872556D01*
X124481874Y-119891556D01*
X124468208Y-119908208D01*
X124451556Y-119921874D01*
X124432556Y-119932030D01*
X124411938Y-119938284D01*
X124384360Y-119941000D01*
X123875640Y-119941000D01*
X123848062Y-119938284D01*
X123827444Y-119932030D01*
X123808444Y-119921874D01*
X123791792Y-119908208D01*
X123778126Y-119891556D01*
X123767970Y-119872556D01*
X123761716Y-119851938D01*
X123759000Y-119824360D01*
X123759000Y-119365640D01*
X123761716Y-119338062D01*
X123767970Y-119317444D01*
X123778126Y-119298444D01*
X123791792Y-119281792D01*
X123808444Y-119268126D01*
X123827444Y-119257970D01*
X123848062Y-119251716D01*
X123875640Y-119249000D01*
X124384360Y-119249000D01*
X124411938Y-119251716D01*
X124411938Y-119251716D01*
G37*
G36*
X118901938Y-118491716D02*
X118922556Y-118497970D01*
X118941556Y-118508126D01*
X118958208Y-118521792D01*
X118971874Y-118538444D01*
X118982030Y-118557444D01*
X118988284Y-118578062D01*
X118991000Y-118605640D01*
X118991000Y-119114360D01*
X118988284Y-119141938D01*
X118982030Y-119162556D01*
X118971874Y-119181556D01*
X118958208Y-119198208D01*
X118941556Y-119211874D01*
X118922556Y-119222030D01*
X118901938Y-119228284D01*
X118874360Y-119231000D01*
X118415640Y-119231000D01*
X118388062Y-119228284D01*
X118367444Y-119222030D01*
X118348444Y-119211874D01*
X118331792Y-119198208D01*
X118318126Y-119181556D01*
X118307970Y-119162556D01*
X118301716Y-119141938D01*
X118299000Y-119114360D01*
X118299000Y-118605640D01*
X118301716Y-118578062D01*
X118307970Y-118557444D01*
X118318126Y-118538444D01*
X118331792Y-118521792D01*
X118348444Y-118508126D01*
X118367444Y-118497970D01*
X118388062Y-118491716D01*
X118415640Y-118489000D01*
X118874360Y-118489000D01*
X118901938Y-118491716D01*
X118901938Y-118491716D01*
G37*
G36*
X119871938Y-118491716D02*
X119892556Y-118497970D01*
X119911556Y-118508126D01*
X119928208Y-118521792D01*
X119941874Y-118538444D01*
X119952030Y-118557444D01*
X119958284Y-118578062D01*
X119961000Y-118605640D01*
X119961000Y-119114360D01*
X119958284Y-119141938D01*
X119952030Y-119162556D01*
X119941874Y-119181556D01*
X119928208Y-119198208D01*
X119911556Y-119211874D01*
X119892556Y-119222030D01*
X119871938Y-119228284D01*
X119844360Y-119231000D01*
X119385640Y-119231000D01*
X119358062Y-119228284D01*
X119337444Y-119222030D01*
X119318444Y-119211874D01*
X119301792Y-119198208D01*
X119288126Y-119181556D01*
X119277970Y-119162556D01*
X119271716Y-119141938D01*
X119269000Y-119114360D01*
X119269000Y-118605640D01*
X119271716Y-118578062D01*
X119277970Y-118557444D01*
X119288126Y-118538444D01*
X119301792Y-118521792D01*
X119318444Y-118508126D01*
X119337444Y-118497970D01*
X119358062Y-118491716D01*
X119385640Y-118489000D01*
X119844360Y-118489000D01*
X119871938Y-118491716D01*
X119871938Y-118491716D01*
G37*
G36*
X121156938Y-118201716D02*
X121177556Y-118207970D01*
X121196556Y-118218126D01*
X121213208Y-118231792D01*
X121226874Y-118248444D01*
X121237030Y-118267444D01*
X121243284Y-118288062D01*
X121246000Y-118315640D01*
X121246000Y-118824360D01*
X121243284Y-118851938D01*
X121237030Y-118872556D01*
X121226874Y-118891556D01*
X121213208Y-118908208D01*
X121196556Y-118921874D01*
X121177556Y-118932030D01*
X121156938Y-118938284D01*
X121129360Y-118941000D01*
X120670640Y-118941000D01*
X120643062Y-118938284D01*
X120622444Y-118932030D01*
X120603444Y-118921874D01*
X120586792Y-118908208D01*
X120573126Y-118891556D01*
X120562970Y-118872556D01*
X120556716Y-118851938D01*
X120554000Y-118824360D01*
X120554000Y-118315640D01*
X120556716Y-118288062D01*
X120562970Y-118267444D01*
X120573126Y-118248444D01*
X120586792Y-118231792D01*
X120603444Y-118218126D01*
X120622444Y-118207970D01*
X120643062Y-118201716D01*
X120670640Y-118199000D01*
X121129360Y-118199000D01*
X121156938Y-118201716D01*
X121156938Y-118201716D01*
G37*
G36*
X122126938Y-118201716D02*
X122147556Y-118207970D01*
X122166556Y-118218126D01*
X122183208Y-118231792D01*
X122196874Y-118248444D01*
X122207030Y-118267444D01*
X122213284Y-118288062D01*
X122216000Y-118315640D01*
X122216000Y-118824360D01*
X122213284Y-118851938D01*
X122207030Y-118872556D01*
X122196874Y-118891556D01*
X122183208Y-118908208D01*
X122166556Y-118921874D01*
X122147556Y-118932030D01*
X122126938Y-118938284D01*
X122099360Y-118941000D01*
X121640640Y-118941000D01*
X121613062Y-118938284D01*
X121592444Y-118932030D01*
X121573444Y-118921874D01*
X121556792Y-118908208D01*
X121543126Y-118891556D01*
X121532970Y-118872556D01*
X121526716Y-118851938D01*
X121524000Y-118824360D01*
X121524000Y-118315640D01*
X121526716Y-118288062D01*
X121532970Y-118267444D01*
X121543126Y-118248444D01*
X121556792Y-118231792D01*
X121573444Y-118218126D01*
X121592444Y-118207970D01*
X121613062Y-118201716D01*
X121640640Y-118199000D01*
X122099360Y-118199000D01*
X122126938Y-118201716D01*
X122126938Y-118201716D01*
G37*
G36*
X123181938Y-118191716D02*
X123202556Y-118197970D01*
X123221556Y-118208126D01*
X123238208Y-118221792D01*
X123251874Y-118238444D01*
X123262030Y-118257444D01*
X123268284Y-118278062D01*
X123271000Y-118305640D01*
X123271000Y-118814360D01*
X123268284Y-118841938D01*
X123262030Y-118862556D01*
X123251874Y-118881556D01*
X123238208Y-118898208D01*
X123221556Y-118911874D01*
X123202556Y-118922030D01*
X123181938Y-118928284D01*
X123154360Y-118931000D01*
X122695640Y-118931000D01*
X122668062Y-118928284D01*
X122647444Y-118922030D01*
X122628444Y-118911874D01*
X122611792Y-118898208D01*
X122598126Y-118881556D01*
X122587970Y-118862556D01*
X122581716Y-118841938D01*
X122579000Y-118814360D01*
X122579000Y-118305640D01*
X122581716Y-118278062D01*
X122587970Y-118257444D01*
X122598126Y-118238444D01*
X122611792Y-118221792D01*
X122628444Y-118208126D01*
X122647444Y-118197970D01*
X122668062Y-118191716D01*
X122695640Y-118189000D01*
X123154360Y-118189000D01*
X123181938Y-118191716D01*
X123181938Y-118191716D01*
G37*
G36*
X124151938Y-118191716D02*
X124172556Y-118197970D01*
X124191556Y-118208126D01*
X124208208Y-118221792D01*
X124221874Y-118238444D01*
X124232030Y-118257444D01*
X124238284Y-118278062D01*
X124241000Y-118305640D01*
X124241000Y-118814360D01*
X124238284Y-118841938D01*
X124232030Y-118862556D01*
X124221874Y-118881556D01*
X124208208Y-118898208D01*
X124191556Y-118911874D01*
X124172556Y-118922030D01*
X124151938Y-118928284D01*
X124124360Y-118931000D01*
X123665640Y-118931000D01*
X123638062Y-118928284D01*
X123617444Y-118922030D01*
X123598444Y-118911874D01*
X123581792Y-118898208D01*
X123568126Y-118881556D01*
X123557970Y-118862556D01*
X123551716Y-118841938D01*
X123549000Y-118814360D01*
X123549000Y-118305640D01*
X123551716Y-118278062D01*
X123557970Y-118257444D01*
X123568126Y-118238444D01*
X123581792Y-118221792D01*
X123598444Y-118208126D01*
X123617444Y-118197970D01*
X123638062Y-118191716D01*
X123665640Y-118189000D01*
X124124360Y-118189000D01*
X124151938Y-118191716D01*
X124151938Y-118191716D01*
G37*
G36*
X165266938Y-117741716D02*
X165287556Y-117747970D01*
X165306556Y-117758126D01*
X165323208Y-117771792D01*
X165336874Y-117788444D01*
X165347030Y-117807444D01*
X165353284Y-117828062D01*
X165356000Y-117855640D01*
X165356000Y-118364360D01*
X165353284Y-118391938D01*
X165347030Y-118412556D01*
X165336874Y-118431556D01*
X165323208Y-118448208D01*
X165306556Y-118461874D01*
X165287556Y-118472030D01*
X165266938Y-118478284D01*
X165239360Y-118481000D01*
X164780640Y-118481000D01*
X164753062Y-118478284D01*
X164732444Y-118472030D01*
X164713444Y-118461874D01*
X164696792Y-118448208D01*
X164683126Y-118431556D01*
X164672970Y-118412556D01*
X164666716Y-118391938D01*
X164664000Y-118364360D01*
X164664000Y-117855640D01*
X164666716Y-117828062D01*
X164672970Y-117807444D01*
X164683126Y-117788444D01*
X164696792Y-117771792D01*
X164713444Y-117758126D01*
X164732444Y-117747970D01*
X164753062Y-117741716D01*
X164780640Y-117739000D01*
X165239360Y-117739000D01*
X165266938Y-117741716D01*
X165266938Y-117741716D01*
G37*
G36*
X164296938Y-117741716D02*
X164317556Y-117747970D01*
X164336556Y-117758126D01*
X164353208Y-117771792D01*
X164366874Y-117788444D01*
X164377030Y-117807444D01*
X164383284Y-117828062D01*
X164386000Y-117855640D01*
X164386000Y-118364360D01*
X164383284Y-118391938D01*
X164377030Y-118412556D01*
X164366874Y-118431556D01*
X164353208Y-118448208D01*
X164336556Y-118461874D01*
X164317556Y-118472030D01*
X164296938Y-118478284D01*
X164269360Y-118481000D01*
X163810640Y-118481000D01*
X163783062Y-118478284D01*
X163762444Y-118472030D01*
X163743444Y-118461874D01*
X163726792Y-118448208D01*
X163713126Y-118431556D01*
X163702970Y-118412556D01*
X163696716Y-118391938D01*
X163694000Y-118364360D01*
X163694000Y-117855640D01*
X163696716Y-117828062D01*
X163702970Y-117807444D01*
X163713126Y-117788444D01*
X163726792Y-117771792D01*
X163743444Y-117758126D01*
X163762444Y-117747970D01*
X163783062Y-117741716D01*
X163810640Y-117739000D01*
X164269360Y-117739000D01*
X164296938Y-117741716D01*
X164296938Y-117741716D01*
G37*
G36*
X121031938Y-117141716D02*
X121052556Y-117147970D01*
X121071556Y-117158126D01*
X121088208Y-117171792D01*
X121101874Y-117188444D01*
X121112030Y-117207444D01*
X121118284Y-117228062D01*
X121121000Y-117255640D01*
X121121000Y-117714360D01*
X121118284Y-117741938D01*
X121112030Y-117762556D01*
X121101874Y-117781556D01*
X121088208Y-117798208D01*
X121071556Y-117811874D01*
X121052556Y-117822030D01*
X121031938Y-117828284D01*
X121004360Y-117831000D01*
X120495640Y-117831000D01*
X120468062Y-117828284D01*
X120447444Y-117822030D01*
X120428444Y-117811874D01*
X120411792Y-117798208D01*
X120398126Y-117781556D01*
X120387970Y-117762556D01*
X120381716Y-117741938D01*
X120379000Y-117714360D01*
X120379000Y-117255640D01*
X120381716Y-117228062D01*
X120387970Y-117207444D01*
X120398126Y-117188444D01*
X120411792Y-117171792D01*
X120428444Y-117158126D01*
X120447444Y-117147970D01*
X120468062Y-117141716D01*
X120495640Y-117139000D01*
X121004360Y-117139000D01*
X121031938Y-117141716D01*
X121031938Y-117141716D01*
G37*
G36*
X122121938Y-117081716D02*
X122142556Y-117087970D01*
X122161556Y-117098126D01*
X122178208Y-117111792D01*
X122191874Y-117128444D01*
X122202030Y-117147444D01*
X122208284Y-117168062D01*
X122211000Y-117195640D01*
X122211000Y-117704360D01*
X122208284Y-117731938D01*
X122202030Y-117752556D01*
X122191874Y-117771556D01*
X122178208Y-117788208D01*
X122161556Y-117801874D01*
X122142556Y-117812030D01*
X122121938Y-117818284D01*
X122094360Y-117821000D01*
X121635640Y-117821000D01*
X121608062Y-117818284D01*
X121587444Y-117812030D01*
X121568444Y-117801874D01*
X121551792Y-117788208D01*
X121538126Y-117771556D01*
X121527970Y-117752556D01*
X121521716Y-117731938D01*
X121519000Y-117704360D01*
X121519000Y-117195640D01*
X121521716Y-117168062D01*
X121527970Y-117147444D01*
X121538126Y-117128444D01*
X121551792Y-117111792D01*
X121568444Y-117098126D01*
X121587444Y-117087970D01*
X121608062Y-117081716D01*
X121635640Y-117079000D01*
X122094360Y-117079000D01*
X122121938Y-117081716D01*
X122121938Y-117081716D01*
G37*
G36*
X123091938Y-117081716D02*
X123112556Y-117087970D01*
X123131556Y-117098126D01*
X123148208Y-117111792D01*
X123161874Y-117128444D01*
X123172030Y-117147444D01*
X123178284Y-117168062D01*
X123181000Y-117195640D01*
X123181000Y-117704360D01*
X123178284Y-117731938D01*
X123172030Y-117752556D01*
X123161874Y-117771556D01*
X123148208Y-117788208D01*
X123131556Y-117801874D01*
X123112556Y-117812030D01*
X123091938Y-117818284D01*
X123064360Y-117821000D01*
X122605640Y-117821000D01*
X122578062Y-117818284D01*
X122557444Y-117812030D01*
X122538444Y-117801874D01*
X122521792Y-117788208D01*
X122508126Y-117771556D01*
X122497970Y-117752556D01*
X122491716Y-117731938D01*
X122489000Y-117704360D01*
X122489000Y-117195640D01*
X122491716Y-117168062D01*
X122497970Y-117147444D01*
X122508126Y-117128444D01*
X122521792Y-117111792D01*
X122538444Y-117098126D01*
X122557444Y-117087970D01*
X122578062Y-117081716D01*
X122605640Y-117079000D01*
X123064360Y-117079000D01*
X123091938Y-117081716D01*
X123091938Y-117081716D01*
G37*
G36*
X115581938Y-117091716D02*
X115602556Y-117097970D01*
X115621556Y-117108126D01*
X115638208Y-117121792D01*
X115651874Y-117138444D01*
X115662030Y-117157444D01*
X115668284Y-117178062D01*
X115671000Y-117205640D01*
X115671000Y-117664360D01*
X115668284Y-117691938D01*
X115662030Y-117712556D01*
X115651874Y-117731556D01*
X115638208Y-117748208D01*
X115621556Y-117761874D01*
X115602556Y-117772030D01*
X115581938Y-117778284D01*
X115554360Y-117781000D01*
X115045640Y-117781000D01*
X115018062Y-117778284D01*
X114997444Y-117772030D01*
X114978444Y-117761874D01*
X114961792Y-117748208D01*
X114948126Y-117731556D01*
X114937970Y-117712556D01*
X114931716Y-117691938D01*
X114929000Y-117664360D01*
X114929000Y-117205640D01*
X114931716Y-117178062D01*
X114937970Y-117157444D01*
X114948126Y-117138444D01*
X114961792Y-117121792D01*
X114978444Y-117108126D01*
X114997444Y-117097970D01*
X115018062Y-117091716D01*
X115045640Y-117089000D01*
X115554360Y-117089000D01*
X115581938Y-117091716D01*
X115581938Y-117091716D01*
G37*
G36*
X117511999Y-117774800D02*
X116100401Y-117774800D01*
X116100401Y-117104800D01*
X117511999Y-117104800D01*
X117511999Y-117774800D01*
X117511999Y-117774800D01*
G37*
G36*
X119899599Y-117774800D02*
X118488001Y-117774800D01*
X118488001Y-117104800D01*
X119899599Y-117104800D01*
X119899599Y-117774800D01*
X119899599Y-117774800D01*
G37*
G36*
X129581000Y-117551000D02*
X128479000Y-117551000D01*
X128479000Y-116449000D01*
X129581000Y-116449000D01*
X129581000Y-117551000D01*
X129581000Y-117551000D01*
G37*
G36*
X164011938Y-116501716D02*
X164032556Y-116507970D01*
X164051556Y-116518126D01*
X164068208Y-116531792D01*
X164081874Y-116548444D01*
X164092030Y-116567444D01*
X164098284Y-116588062D01*
X164101000Y-116615640D01*
X164101000Y-117074360D01*
X164098284Y-117101938D01*
X164092030Y-117122556D01*
X164081874Y-117141556D01*
X164068208Y-117158208D01*
X164051556Y-117171874D01*
X164032556Y-117182030D01*
X164011938Y-117188284D01*
X163984360Y-117191000D01*
X163475640Y-117191000D01*
X163448062Y-117188284D01*
X163427444Y-117182030D01*
X163408444Y-117171874D01*
X163391792Y-117158208D01*
X163378126Y-117141556D01*
X163367970Y-117122556D01*
X163361716Y-117101938D01*
X163359000Y-117074360D01*
X163359000Y-116615640D01*
X163361716Y-116588062D01*
X163367970Y-116567444D01*
X163378126Y-116548444D01*
X163391792Y-116531792D01*
X163408444Y-116518126D01*
X163427444Y-116507970D01*
X163448062Y-116501716D01*
X163475640Y-116499000D01*
X163984360Y-116499000D01*
X164011938Y-116501716D01*
X164011938Y-116501716D01*
G37*
G36*
X169751938Y-116241716D02*
X169772556Y-116247970D01*
X169791556Y-116258126D01*
X169808208Y-116271792D01*
X169821874Y-116288444D01*
X169832030Y-116307444D01*
X169838284Y-116328062D01*
X169841000Y-116355640D01*
X169841000Y-116864360D01*
X169838284Y-116891938D01*
X169832030Y-116912556D01*
X169821874Y-116931556D01*
X169808208Y-116948208D01*
X169791556Y-116961874D01*
X169772556Y-116972030D01*
X169751938Y-116978284D01*
X169724360Y-116981000D01*
X169265640Y-116981000D01*
X169238062Y-116978284D01*
X169217444Y-116972030D01*
X169198444Y-116961874D01*
X169181792Y-116948208D01*
X169168126Y-116931556D01*
X169157970Y-116912556D01*
X169151716Y-116891938D01*
X169149000Y-116864360D01*
X169149000Y-116355640D01*
X169151716Y-116328062D01*
X169157970Y-116307444D01*
X169168126Y-116288444D01*
X169181792Y-116271792D01*
X169198444Y-116258126D01*
X169217444Y-116247970D01*
X169238062Y-116241716D01*
X169265640Y-116239000D01*
X169724360Y-116239000D01*
X169751938Y-116241716D01*
X169751938Y-116241716D01*
G37*
G36*
X170721938Y-116241716D02*
X170742556Y-116247970D01*
X170761556Y-116258126D01*
X170778208Y-116271792D01*
X170791874Y-116288444D01*
X170802030Y-116307444D01*
X170808284Y-116328062D01*
X170811000Y-116355640D01*
X170811000Y-116864360D01*
X170808284Y-116891938D01*
X170802030Y-116912556D01*
X170791874Y-116931556D01*
X170778208Y-116948208D01*
X170761556Y-116961874D01*
X170742556Y-116972030D01*
X170721938Y-116978284D01*
X170694360Y-116981000D01*
X170235640Y-116981000D01*
X170208062Y-116978284D01*
X170187444Y-116972030D01*
X170168444Y-116961874D01*
X170151792Y-116948208D01*
X170138126Y-116931556D01*
X170127970Y-116912556D01*
X170121716Y-116891938D01*
X170119000Y-116864360D01*
X170119000Y-116355640D01*
X170121716Y-116328062D01*
X170127970Y-116307444D01*
X170138126Y-116288444D01*
X170151792Y-116271792D01*
X170168444Y-116258126D01*
X170187444Y-116247970D01*
X170208062Y-116241716D01*
X170235640Y-116239000D01*
X170694360Y-116239000D01*
X170721938Y-116241716D01*
X170721938Y-116241716D01*
G37*
G36*
X121031938Y-116171716D02*
X121052556Y-116177970D01*
X121071556Y-116188126D01*
X121088208Y-116201792D01*
X121101874Y-116218444D01*
X121112030Y-116237444D01*
X121118284Y-116258062D01*
X121121000Y-116285640D01*
X121121000Y-116744360D01*
X121118284Y-116771938D01*
X121112030Y-116792556D01*
X121101874Y-116811556D01*
X121088208Y-116828208D01*
X121071556Y-116841874D01*
X121052556Y-116852030D01*
X121031938Y-116858284D01*
X121004360Y-116861000D01*
X120495640Y-116861000D01*
X120468062Y-116858284D01*
X120447444Y-116852030D01*
X120428444Y-116841874D01*
X120411792Y-116828208D01*
X120398126Y-116811556D01*
X120387970Y-116792556D01*
X120381716Y-116771938D01*
X120379000Y-116744360D01*
X120379000Y-116285640D01*
X120381716Y-116258062D01*
X120387970Y-116237444D01*
X120398126Y-116218444D01*
X120411792Y-116201792D01*
X120428444Y-116188126D01*
X120447444Y-116177970D01*
X120468062Y-116171716D01*
X120495640Y-116169000D01*
X121004360Y-116169000D01*
X121031938Y-116171716D01*
X121031938Y-116171716D01*
G37*
G36*
X119899599Y-116835000D02*
X118488001Y-116835000D01*
X118488001Y-116165000D01*
X119899599Y-116165000D01*
X119899599Y-116835000D01*
X119899599Y-116835000D01*
G37*
G36*
X117511999Y-116835000D02*
X116100401Y-116835000D01*
X116100401Y-116165000D01*
X117511999Y-116165000D01*
X117511999Y-116835000D01*
X117511999Y-116835000D01*
G37*
G36*
X115581938Y-116121716D02*
X115602556Y-116127970D01*
X115621556Y-116138126D01*
X115638208Y-116151792D01*
X115651874Y-116168444D01*
X115662030Y-116187444D01*
X115668284Y-116208062D01*
X115671000Y-116235640D01*
X115671000Y-116694360D01*
X115668284Y-116721938D01*
X115662030Y-116742556D01*
X115651874Y-116761556D01*
X115638208Y-116778208D01*
X115621556Y-116791874D01*
X115602556Y-116802030D01*
X115581938Y-116808284D01*
X115554360Y-116811000D01*
X115045640Y-116811000D01*
X115018062Y-116808284D01*
X114997444Y-116802030D01*
X114978444Y-116791874D01*
X114961792Y-116778208D01*
X114948126Y-116761556D01*
X114937970Y-116742556D01*
X114931716Y-116721938D01*
X114929000Y-116694360D01*
X114929000Y-116235640D01*
X114931716Y-116208062D01*
X114937970Y-116187444D01*
X114948126Y-116168444D01*
X114961792Y-116151792D01*
X114978444Y-116138126D01*
X114997444Y-116127970D01*
X115018062Y-116121716D01*
X115045640Y-116119000D01*
X115554360Y-116119000D01*
X115581938Y-116121716D01*
X115581938Y-116121716D01*
G37*
G36*
X123992091Y-115578085D02*
X124026069Y-115588393D01*
X124057387Y-115605133D01*
X124084839Y-115627661D01*
X124107367Y-115655113D01*
X124124107Y-115686431D01*
X124134415Y-115720409D01*
X124138500Y-115761890D01*
X124138500Y-116438110D01*
X124134415Y-116479591D01*
X124124107Y-116513569D01*
X124107367Y-116544887D01*
X124084839Y-116572339D01*
X124057387Y-116594867D01*
X124026069Y-116611607D01*
X123992091Y-116621915D01*
X123950610Y-116626000D01*
X123349390Y-116626000D01*
X123307909Y-116621915D01*
X123273931Y-116611607D01*
X123242613Y-116594867D01*
X123215161Y-116572339D01*
X123192633Y-116544887D01*
X123175893Y-116513569D01*
X123165585Y-116479591D01*
X123161500Y-116438110D01*
X123161500Y-115761890D01*
X123165585Y-115720409D01*
X123175893Y-115686431D01*
X123192633Y-115655113D01*
X123215161Y-115627661D01*
X123242613Y-115605133D01*
X123273931Y-115588393D01*
X123307909Y-115578085D01*
X123349390Y-115574000D01*
X123950610Y-115574000D01*
X123992091Y-115578085D01*
X123992091Y-115578085D01*
G37*
G36*
X122417091Y-115578085D02*
X122451069Y-115588393D01*
X122482387Y-115605133D01*
X122509839Y-115627661D01*
X122532367Y-115655113D01*
X122549107Y-115686431D01*
X122559415Y-115720409D01*
X122563500Y-115761890D01*
X122563500Y-116438110D01*
X122559415Y-116479591D01*
X122549107Y-116513569D01*
X122532367Y-116544887D01*
X122509839Y-116572339D01*
X122482387Y-116594867D01*
X122451069Y-116611607D01*
X122417091Y-116621915D01*
X122375610Y-116626000D01*
X121774390Y-116626000D01*
X121732909Y-116621915D01*
X121698931Y-116611607D01*
X121667613Y-116594867D01*
X121640161Y-116572339D01*
X121617633Y-116544887D01*
X121600893Y-116513569D01*
X121590585Y-116479591D01*
X121586500Y-116438110D01*
X121586500Y-115761890D01*
X121590585Y-115720409D01*
X121600893Y-115686431D01*
X121617633Y-115655113D01*
X121640161Y-115627661D01*
X121667613Y-115605133D01*
X121698931Y-115588393D01*
X121732909Y-115578085D01*
X121774390Y-115574000D01*
X122375610Y-115574000D01*
X122417091Y-115578085D01*
X122417091Y-115578085D01*
G37*
G36*
X167657300Y-113821599D02*
X167659702Y-113845985D01*
X167666815Y-113869434D01*
X167678366Y-113891045D01*
X167693912Y-113909987D01*
X167712854Y-113925533D01*
X167734465Y-113937084D01*
X167757914Y-113944197D01*
X167782300Y-113946599D01*
X168630399Y-113946599D01*
X168630399Y-116273401D01*
X167782300Y-116273401D01*
X167757914Y-116275803D01*
X167734465Y-116282916D01*
X167712854Y-116294467D01*
X167693912Y-116310013D01*
X167678366Y-116328955D01*
X167666815Y-116350566D01*
X167659702Y-116374015D01*
X167657300Y-116398401D01*
X167657300Y-116405600D01*
X165802700Y-116405600D01*
X165802700Y-116398401D01*
X165800298Y-116374015D01*
X165793185Y-116350566D01*
X165781634Y-116328955D01*
X165766088Y-116310013D01*
X165747146Y-116294467D01*
X165725535Y-116282916D01*
X165702086Y-116275803D01*
X165677700Y-116273401D01*
X164829601Y-116273401D01*
X164829601Y-113946599D01*
X165677700Y-113946599D01*
X165702086Y-113944197D01*
X165725535Y-113937084D01*
X165747146Y-113925533D01*
X165766088Y-113909987D01*
X165781634Y-113891045D01*
X165793185Y-113869434D01*
X165800298Y-113845985D01*
X165802700Y-113821599D01*
X165802700Y-113814400D01*
X167657300Y-113814400D01*
X167657300Y-113821599D01*
X167657300Y-113821599D01*
G37*
G36*
X164011938Y-115531716D02*
X164032556Y-115537970D01*
X164051556Y-115548126D01*
X164068208Y-115561792D01*
X164081874Y-115578444D01*
X164092030Y-115597444D01*
X164098284Y-115618062D01*
X164101000Y-115645640D01*
X164101000Y-116104360D01*
X164098284Y-116131938D01*
X164092030Y-116152556D01*
X164081874Y-116171556D01*
X164068208Y-116188208D01*
X164051556Y-116201874D01*
X164032556Y-116212030D01*
X164011938Y-116218284D01*
X163984360Y-116221000D01*
X163475640Y-116221000D01*
X163448062Y-116218284D01*
X163427444Y-116212030D01*
X163408444Y-116201874D01*
X163391792Y-116188208D01*
X163378126Y-116171556D01*
X163367970Y-116152556D01*
X163361716Y-116131938D01*
X163359000Y-116104360D01*
X163359000Y-115645640D01*
X163361716Y-115618062D01*
X163367970Y-115597444D01*
X163378126Y-115578444D01*
X163391792Y-115561792D01*
X163408444Y-115548126D01*
X163427444Y-115537970D01*
X163448062Y-115531716D01*
X163475640Y-115529000D01*
X163984360Y-115529000D01*
X164011938Y-115531716D01*
X164011938Y-115531716D01*
G37*
G36*
X129581000Y-116151000D02*
X128479000Y-116151000D01*
X128479000Y-115049000D01*
X129581000Y-115049000D01*
X129581000Y-116151000D01*
X129581000Y-116151000D01*
G37*
G36*
X170721938Y-115241716D02*
X170742556Y-115247970D01*
X170761556Y-115258126D01*
X170778208Y-115271792D01*
X170791874Y-115288444D01*
X170802030Y-115307444D01*
X170808284Y-115328062D01*
X170811000Y-115355640D01*
X170811000Y-115864360D01*
X170808284Y-115891938D01*
X170802030Y-115912556D01*
X170791874Y-115931556D01*
X170778208Y-115948208D01*
X170761556Y-115961874D01*
X170742556Y-115972030D01*
X170721938Y-115978284D01*
X170694360Y-115981000D01*
X170235640Y-115981000D01*
X170208062Y-115978284D01*
X170187444Y-115972030D01*
X170168444Y-115961874D01*
X170151792Y-115948208D01*
X170138126Y-115931556D01*
X170127970Y-115912556D01*
X170121716Y-115891938D01*
X170119000Y-115864360D01*
X170119000Y-115355640D01*
X170121716Y-115328062D01*
X170127970Y-115307444D01*
X170138126Y-115288444D01*
X170151792Y-115271792D01*
X170168444Y-115258126D01*
X170187444Y-115247970D01*
X170208062Y-115241716D01*
X170235640Y-115239000D01*
X170694360Y-115239000D01*
X170721938Y-115241716D01*
X170721938Y-115241716D01*
G37*
G36*
X169751938Y-115241716D02*
X169772556Y-115247970D01*
X169791556Y-115258126D01*
X169808208Y-115271792D01*
X169821874Y-115288444D01*
X169832030Y-115307444D01*
X169838284Y-115328062D01*
X169841000Y-115355640D01*
X169841000Y-115864360D01*
X169838284Y-115891938D01*
X169832030Y-115912556D01*
X169821874Y-115931556D01*
X169808208Y-115948208D01*
X169791556Y-115961874D01*
X169772556Y-115972030D01*
X169751938Y-115978284D01*
X169724360Y-115981000D01*
X169265640Y-115981000D01*
X169238062Y-115978284D01*
X169217444Y-115972030D01*
X169198444Y-115961874D01*
X169181792Y-115948208D01*
X169168126Y-115931556D01*
X169157970Y-115912556D01*
X169151716Y-115891938D01*
X169149000Y-115864360D01*
X169149000Y-115355640D01*
X169151716Y-115328062D01*
X169157970Y-115307444D01*
X169168126Y-115288444D01*
X169181792Y-115271792D01*
X169198444Y-115258126D01*
X169217444Y-115247970D01*
X169238062Y-115241716D01*
X169265640Y-115239000D01*
X169724360Y-115239000D01*
X169751938Y-115241716D01*
X169751938Y-115241716D01*
G37*
G36*
X119899599Y-115895200D02*
X118488001Y-115895200D01*
X118488001Y-115225200D01*
X119899599Y-115225200D01*
X119899599Y-115895200D01*
X119899599Y-115895200D01*
G37*
G36*
X117511999Y-115895200D02*
X116100401Y-115895200D01*
X116100401Y-115225200D01*
X117511999Y-115225200D01*
X117511999Y-115895200D01*
X117511999Y-115895200D01*
G37*
G36*
X153522004Y-114380544D02*
X153609059Y-114397860D01*
X153745732Y-114454472D01*
X153826031Y-114508126D01*
X153868738Y-114536662D01*
X153973338Y-114641262D01*
X153973340Y-114641265D01*
X154055528Y-114764268D01*
X154112140Y-114900941D01*
X154120108Y-114941000D01*
X154141000Y-115046031D01*
X154141000Y-115193969D01*
X154134295Y-115227676D01*
X154112140Y-115339059D01*
X154055528Y-115475732D01*
X153989867Y-115574000D01*
X153973338Y-115598738D01*
X153868738Y-115703338D01*
X153868735Y-115703340D01*
X153745732Y-115785528D01*
X153609059Y-115842140D01*
X153522004Y-115859456D01*
X153463969Y-115871000D01*
X153316031Y-115871000D01*
X153257996Y-115859456D01*
X153170941Y-115842140D01*
X153034268Y-115785528D01*
X152911265Y-115703340D01*
X152911262Y-115703338D01*
X152806662Y-115598738D01*
X152790133Y-115574000D01*
X152724472Y-115475732D01*
X152667860Y-115339059D01*
X152645705Y-115227676D01*
X152639000Y-115193969D01*
X152639000Y-115046031D01*
X152659892Y-114941000D01*
X152667860Y-114900941D01*
X152724472Y-114764268D01*
X152806660Y-114641265D01*
X152806662Y-114641262D01*
X152911262Y-114536662D01*
X152953969Y-114508126D01*
X153034268Y-114454472D01*
X153170941Y-114397860D01*
X153257996Y-114380544D01*
X153316031Y-114369000D01*
X153463969Y-114369000D01*
X153522004Y-114380544D01*
X153522004Y-114380544D01*
G37*
G36*
X163971938Y-114491716D02*
X163992556Y-114497970D01*
X164011556Y-114508126D01*
X164028208Y-114521792D01*
X164041874Y-114538444D01*
X164052030Y-114557444D01*
X164058284Y-114578062D01*
X164061000Y-114605640D01*
X164061000Y-115114360D01*
X164058284Y-115141938D01*
X164052030Y-115162556D01*
X164041874Y-115181556D01*
X164028208Y-115198208D01*
X164011556Y-115211874D01*
X163992556Y-115222030D01*
X163971938Y-115228284D01*
X163944360Y-115231000D01*
X163485640Y-115231000D01*
X163458062Y-115228284D01*
X163437444Y-115222030D01*
X163418444Y-115211874D01*
X163401792Y-115198208D01*
X163388126Y-115181556D01*
X163377970Y-115162556D01*
X163371716Y-115141938D01*
X163369000Y-115114360D01*
X163369000Y-114605640D01*
X163371716Y-114578062D01*
X163377970Y-114557444D01*
X163388126Y-114538444D01*
X163401792Y-114521792D01*
X163418444Y-114508126D01*
X163437444Y-114497970D01*
X163458062Y-114491716D01*
X163485640Y-114489000D01*
X163944360Y-114489000D01*
X163971938Y-114491716D01*
X163971938Y-114491716D01*
G37*
G36*
X163001938Y-114491716D02*
X163022556Y-114497970D01*
X163041556Y-114508126D01*
X163058208Y-114521792D01*
X163071874Y-114538444D01*
X163082030Y-114557444D01*
X163088284Y-114578062D01*
X163091000Y-114605640D01*
X163091000Y-115114360D01*
X163088284Y-115141938D01*
X163082030Y-115162556D01*
X163071874Y-115181556D01*
X163058208Y-115198208D01*
X163041556Y-115211874D01*
X163022556Y-115222030D01*
X163001938Y-115228284D01*
X162974360Y-115231000D01*
X162515640Y-115231000D01*
X162488062Y-115228284D01*
X162467444Y-115222030D01*
X162448444Y-115211874D01*
X162431792Y-115198208D01*
X162418126Y-115181556D01*
X162407970Y-115162556D01*
X162401716Y-115141938D01*
X162399000Y-115114360D01*
X162399000Y-114605640D01*
X162401716Y-114578062D01*
X162407970Y-114557444D01*
X162418126Y-114538444D01*
X162431792Y-114521792D01*
X162448444Y-114508126D01*
X162467444Y-114497970D01*
X162488062Y-114491716D01*
X162515640Y-114489000D01*
X162974360Y-114489000D01*
X163001938Y-114491716D01*
X163001938Y-114491716D01*
G37*
G36*
X170011938Y-114251716D02*
X170032556Y-114257970D01*
X170051556Y-114268126D01*
X170068208Y-114281792D01*
X170081874Y-114298444D01*
X170092030Y-114317444D01*
X170098284Y-114338062D01*
X170101000Y-114365640D01*
X170101000Y-114824360D01*
X170098284Y-114851938D01*
X170092030Y-114872556D01*
X170081874Y-114891556D01*
X170068208Y-114908208D01*
X170051556Y-114921874D01*
X170032556Y-114932030D01*
X170011938Y-114938284D01*
X169984360Y-114941000D01*
X169475640Y-114941000D01*
X169448062Y-114938284D01*
X169427444Y-114932030D01*
X169408444Y-114921874D01*
X169391792Y-114908208D01*
X169378126Y-114891556D01*
X169367970Y-114872556D01*
X169361716Y-114851938D01*
X169359000Y-114824360D01*
X169359000Y-114365640D01*
X169361716Y-114338062D01*
X169367970Y-114317444D01*
X169378126Y-114298444D01*
X169391792Y-114281792D01*
X169408444Y-114268126D01*
X169427444Y-114257970D01*
X169448062Y-114251716D01*
X169475640Y-114249000D01*
X169984360Y-114249000D01*
X170011938Y-114251716D01*
X170011938Y-114251716D01*
G37*
G36*
X129581000Y-114751000D02*
X128479000Y-114751000D01*
X128479000Y-113649000D01*
X129581000Y-113649000D01*
X129581000Y-114751000D01*
X129581000Y-114751000D01*
G37*
G36*
X170011938Y-113281716D02*
X170032556Y-113287970D01*
X170051556Y-113298126D01*
X170068208Y-113311792D01*
X170081874Y-113328444D01*
X170092030Y-113347444D01*
X170098284Y-113368062D01*
X170101000Y-113395640D01*
X170101000Y-113854360D01*
X170098284Y-113881938D01*
X170092030Y-113902556D01*
X170081874Y-113921556D01*
X170068208Y-113938208D01*
X170051556Y-113951874D01*
X170032556Y-113962030D01*
X170011938Y-113968284D01*
X169984360Y-113971000D01*
X169475640Y-113971000D01*
X169448062Y-113968284D01*
X169427444Y-113962030D01*
X169408444Y-113951874D01*
X169391792Y-113938208D01*
X169378126Y-113921556D01*
X169367970Y-113902556D01*
X169361716Y-113881938D01*
X169359000Y-113854360D01*
X169359000Y-113395640D01*
X169361716Y-113368062D01*
X169367970Y-113347444D01*
X169378126Y-113328444D01*
X169391792Y-113311792D01*
X169408444Y-113298126D01*
X169427444Y-113287970D01*
X169448062Y-113281716D01*
X169475640Y-113279000D01*
X169984360Y-113279000D01*
X170011938Y-113281716D01*
X170011938Y-113281716D01*
G37*
G36*
X155681000Y-113761000D02*
X154579000Y-113761000D01*
X154579000Y-112659000D01*
X155681000Y-112659000D01*
X155681000Y-113761000D01*
X155681000Y-113761000D01*
G37*
G36*
X163971938Y-112991716D02*
X163992556Y-112997970D01*
X164011556Y-113008126D01*
X164028208Y-113021792D01*
X164041874Y-113038444D01*
X164052030Y-113057444D01*
X164058284Y-113078062D01*
X164061000Y-113105640D01*
X164061000Y-113614360D01*
X164058284Y-113641938D01*
X164052030Y-113662556D01*
X164041874Y-113681556D01*
X164028208Y-113698208D01*
X164011556Y-113711874D01*
X163992556Y-113722030D01*
X163971938Y-113728284D01*
X163944360Y-113731000D01*
X163485640Y-113731000D01*
X163458062Y-113728284D01*
X163437444Y-113722030D01*
X163418444Y-113711874D01*
X163401792Y-113698208D01*
X163388126Y-113681556D01*
X163377970Y-113662556D01*
X163371716Y-113641938D01*
X163369000Y-113614360D01*
X163369000Y-113105640D01*
X163371716Y-113078062D01*
X163377970Y-113057444D01*
X163388126Y-113038444D01*
X163401792Y-113021792D01*
X163418444Y-113008126D01*
X163437444Y-112997970D01*
X163458062Y-112991716D01*
X163485640Y-112989000D01*
X163944360Y-112989000D01*
X163971938Y-112991716D01*
X163971938Y-112991716D01*
G37*
G36*
X159501938Y-112991716D02*
X159522556Y-112997970D01*
X159541556Y-113008126D01*
X159558208Y-113021792D01*
X159571874Y-113038444D01*
X159582030Y-113057444D01*
X159588284Y-113078062D01*
X159591000Y-113105640D01*
X159591000Y-113614360D01*
X159588284Y-113641938D01*
X159582030Y-113662556D01*
X159571874Y-113681556D01*
X159558208Y-113698208D01*
X159541556Y-113711874D01*
X159522556Y-113722030D01*
X159501938Y-113728284D01*
X159474360Y-113731000D01*
X159015640Y-113731000D01*
X158988062Y-113728284D01*
X158967444Y-113722030D01*
X158948444Y-113711874D01*
X158931792Y-113698208D01*
X158918126Y-113681556D01*
X158907970Y-113662556D01*
X158901716Y-113641938D01*
X158899000Y-113614360D01*
X158899000Y-113105640D01*
X158901716Y-113078062D01*
X158907970Y-113057444D01*
X158918126Y-113038444D01*
X158931792Y-113021792D01*
X158948444Y-113008126D01*
X158967444Y-112997970D01*
X158988062Y-112991716D01*
X159015640Y-112989000D01*
X159474360Y-112989000D01*
X159501938Y-112991716D01*
X159501938Y-112991716D01*
G37*
G36*
X160471938Y-112991716D02*
X160492556Y-112997970D01*
X160511556Y-113008126D01*
X160528208Y-113021792D01*
X160541874Y-113038444D01*
X160552030Y-113057444D01*
X160558284Y-113078062D01*
X160561000Y-113105640D01*
X160561000Y-113614360D01*
X160558284Y-113641938D01*
X160552030Y-113662556D01*
X160541874Y-113681556D01*
X160528208Y-113698208D01*
X160511556Y-113711874D01*
X160492556Y-113722030D01*
X160471938Y-113728284D01*
X160444360Y-113731000D01*
X159985640Y-113731000D01*
X159958062Y-113728284D01*
X159937444Y-113722030D01*
X159918444Y-113711874D01*
X159901792Y-113698208D01*
X159888126Y-113681556D01*
X159877970Y-113662556D01*
X159871716Y-113641938D01*
X159869000Y-113614360D01*
X159869000Y-113105640D01*
X159871716Y-113078062D01*
X159877970Y-113057444D01*
X159888126Y-113038444D01*
X159901792Y-113021792D01*
X159918444Y-113008126D01*
X159937444Y-112997970D01*
X159958062Y-112991716D01*
X159985640Y-112989000D01*
X160444360Y-112989000D01*
X160471938Y-112991716D01*
X160471938Y-112991716D01*
G37*
G36*
X158456938Y-112991716D02*
X158477556Y-112997970D01*
X158496556Y-113008126D01*
X158513208Y-113021792D01*
X158526874Y-113038444D01*
X158537030Y-113057444D01*
X158543284Y-113078062D01*
X158546000Y-113105640D01*
X158546000Y-113614360D01*
X158543284Y-113641938D01*
X158537030Y-113662556D01*
X158526874Y-113681556D01*
X158513208Y-113698208D01*
X158496556Y-113711874D01*
X158477556Y-113722030D01*
X158456938Y-113728284D01*
X158429360Y-113731000D01*
X157970640Y-113731000D01*
X157943062Y-113728284D01*
X157922444Y-113722030D01*
X157903444Y-113711874D01*
X157886792Y-113698208D01*
X157873126Y-113681556D01*
X157862970Y-113662556D01*
X157856716Y-113641938D01*
X157854000Y-113614360D01*
X157854000Y-113105640D01*
X157856716Y-113078062D01*
X157862970Y-113057444D01*
X157873126Y-113038444D01*
X157886792Y-113021792D01*
X157903444Y-113008126D01*
X157922444Y-112997970D01*
X157943062Y-112991716D01*
X157970640Y-112989000D01*
X158429360Y-112989000D01*
X158456938Y-112991716D01*
X158456938Y-112991716D01*
G37*
G36*
X157486938Y-112991716D02*
X157507556Y-112997970D01*
X157526556Y-113008126D01*
X157543208Y-113021792D01*
X157556874Y-113038444D01*
X157567030Y-113057444D01*
X157573284Y-113078062D01*
X157576000Y-113105640D01*
X157576000Y-113614360D01*
X157573284Y-113641938D01*
X157567030Y-113662556D01*
X157556874Y-113681556D01*
X157543208Y-113698208D01*
X157526556Y-113711874D01*
X157507556Y-113722030D01*
X157486938Y-113728284D01*
X157459360Y-113731000D01*
X157000640Y-113731000D01*
X156973062Y-113728284D01*
X156952444Y-113722030D01*
X156933444Y-113711874D01*
X156916792Y-113698208D01*
X156903126Y-113681556D01*
X156892970Y-113662556D01*
X156886716Y-113641938D01*
X156884000Y-113614360D01*
X156884000Y-113105640D01*
X156886716Y-113078062D01*
X156892970Y-113057444D01*
X156903126Y-113038444D01*
X156916792Y-113021792D01*
X156933444Y-113008126D01*
X156952444Y-112997970D01*
X156973062Y-112991716D01*
X157000640Y-112989000D01*
X157459360Y-112989000D01*
X157486938Y-112991716D01*
X157486938Y-112991716D01*
G37*
G36*
X163001938Y-112991716D02*
X163022556Y-112997970D01*
X163041556Y-113008126D01*
X163058208Y-113021792D01*
X163071874Y-113038444D01*
X163082030Y-113057444D01*
X163088284Y-113078062D01*
X163091000Y-113105640D01*
X163091000Y-113614360D01*
X163088284Y-113641938D01*
X163082030Y-113662556D01*
X163071874Y-113681556D01*
X163058208Y-113698208D01*
X163041556Y-113711874D01*
X163022556Y-113722030D01*
X163001938Y-113728284D01*
X162974360Y-113731000D01*
X162515640Y-113731000D01*
X162488062Y-113728284D01*
X162467444Y-113722030D01*
X162448444Y-113711874D01*
X162431792Y-113698208D01*
X162418126Y-113681556D01*
X162407970Y-113662556D01*
X162401716Y-113641938D01*
X162399000Y-113614360D01*
X162399000Y-113105640D01*
X162401716Y-113078062D01*
X162407970Y-113057444D01*
X162418126Y-113038444D01*
X162431792Y-113021792D01*
X162448444Y-113008126D01*
X162467444Y-112997970D01*
X162488062Y-112991716D01*
X162515640Y-112989000D01*
X162974360Y-112989000D01*
X163001938Y-112991716D01*
X163001938Y-112991716D01*
G37*
G36*
X129581000Y-113351000D02*
X128479000Y-113351000D01*
X128479000Y-112249000D01*
X129581000Y-112249000D01*
X129581000Y-113351000D01*
X129581000Y-113351000D01*
G37*
G36*
X153731000Y-113061000D02*
X152629000Y-113061000D01*
X152629000Y-111959000D01*
X153731000Y-111959000D01*
X153731000Y-113061000D01*
X153731000Y-113061000D01*
G37*
G36*
X125356938Y-112066716D02*
X125377556Y-112072970D01*
X125396556Y-112083126D01*
X125413208Y-112096792D01*
X125426874Y-112113444D01*
X125437030Y-112132444D01*
X125443284Y-112153062D01*
X125446000Y-112180640D01*
X125446000Y-112639360D01*
X125443284Y-112666938D01*
X125437030Y-112687556D01*
X125426874Y-112706556D01*
X125413208Y-112723208D01*
X125396556Y-112736874D01*
X125377556Y-112747030D01*
X125356938Y-112753284D01*
X125329360Y-112756000D01*
X124820640Y-112756000D01*
X124793062Y-112753284D01*
X124772444Y-112747030D01*
X124753444Y-112736874D01*
X124736792Y-112723208D01*
X124723126Y-112706556D01*
X124712970Y-112687556D01*
X124706716Y-112666938D01*
X124704000Y-112639360D01*
X124704000Y-112180640D01*
X124706716Y-112153062D01*
X124712970Y-112132444D01*
X124723126Y-112113444D01*
X124736792Y-112096792D01*
X124753444Y-112083126D01*
X124772444Y-112072970D01*
X124793062Y-112066716D01*
X124820640Y-112064000D01*
X125329360Y-112064000D01*
X125356938Y-112066716D01*
X125356938Y-112066716D01*
G37*
G36*
X155681000Y-112361000D02*
X154579000Y-112361000D01*
X154579000Y-111259000D01*
X155681000Y-111259000D01*
X155681000Y-112361000D01*
X155681000Y-112361000D01*
G37*
G36*
X123901000Y-109949000D02*
X123903402Y-109973386D01*
X123910515Y-109996835D01*
X123922066Y-110018446D01*
X123937612Y-110037388D01*
X123956554Y-110052934D01*
X123978165Y-110064485D01*
X124001614Y-110071598D01*
X124026000Y-110074000D01*
X124191000Y-110074000D01*
X124191000Y-111526000D01*
X124026000Y-111526000D01*
X124001614Y-111528402D01*
X123978165Y-111535515D01*
X123956554Y-111547066D01*
X123937612Y-111562612D01*
X123922066Y-111581554D01*
X123910515Y-111603165D01*
X123903402Y-111626614D01*
X123901000Y-111651000D01*
X123901000Y-112316000D01*
X121449000Y-112316000D01*
X121449000Y-111651000D01*
X121446598Y-111626614D01*
X121439485Y-111603165D01*
X121427934Y-111581554D01*
X121412388Y-111562612D01*
X121393446Y-111547066D01*
X121371835Y-111535515D01*
X121348386Y-111528402D01*
X121324000Y-111526000D01*
X121159000Y-111526000D01*
X121159000Y-110074000D01*
X121324000Y-110074000D01*
X121348386Y-110071598D01*
X121371835Y-110064485D01*
X121393446Y-110052934D01*
X121412388Y-110037388D01*
X121425837Y-110021000D01*
X121771000Y-110021000D01*
X121771000Y-111579000D01*
X121773402Y-111603386D01*
X121780515Y-111626835D01*
X121792066Y-111648446D01*
X121807612Y-111667388D01*
X121826554Y-111682934D01*
X121848165Y-111694485D01*
X121871614Y-111701598D01*
X121896000Y-111704000D01*
X123454000Y-111704000D01*
X123478386Y-111701598D01*
X123501835Y-111694485D01*
X123523446Y-111682934D01*
X123542388Y-111667388D01*
X123557934Y-111648446D01*
X123569485Y-111626835D01*
X123576598Y-111603386D01*
X123579000Y-111579000D01*
X123579000Y-110021000D01*
X123576598Y-109996614D01*
X123569485Y-109973165D01*
X123557934Y-109951554D01*
X123542388Y-109932612D01*
X123523446Y-109917066D01*
X123501835Y-109905515D01*
X123478386Y-109898402D01*
X123454000Y-109896000D01*
X121896000Y-109896000D01*
X121871614Y-109898402D01*
X121848165Y-109905515D01*
X121826554Y-109917066D01*
X121807612Y-109932612D01*
X121792066Y-109951554D01*
X121780515Y-109973165D01*
X121773402Y-109996614D01*
X121771000Y-110021000D01*
X121425837Y-110021000D01*
X121427934Y-110018446D01*
X121439485Y-109996835D01*
X121446598Y-109973386D01*
X121449000Y-109949000D01*
X121449000Y-109284000D01*
X123901000Y-109284000D01*
X123901000Y-109949000D01*
X123901000Y-109949000D01*
G37*
G36*
X166982701Y-111499066D02*
X167003319Y-111505320D01*
X167022319Y-111515476D01*
X167038971Y-111529142D01*
X167052637Y-111545794D01*
X167062793Y-111564794D01*
X167069047Y-111585412D01*
X167071763Y-111612990D01*
X167071763Y-112121710D01*
X167069047Y-112149288D01*
X167062793Y-112169906D01*
X167052637Y-112188906D01*
X167038971Y-112205558D01*
X167022319Y-112219224D01*
X167003319Y-112229380D01*
X166982701Y-112235634D01*
X166955123Y-112238350D01*
X166496403Y-112238350D01*
X166468825Y-112235634D01*
X166448207Y-112229380D01*
X166429207Y-112219224D01*
X166412555Y-112205558D01*
X166398889Y-112188906D01*
X166388733Y-112169906D01*
X166382479Y-112149288D01*
X166379763Y-112121710D01*
X166379763Y-111612990D01*
X166382479Y-111585412D01*
X166388733Y-111564794D01*
X166398889Y-111545794D01*
X166412555Y-111529142D01*
X166429207Y-111515476D01*
X166448207Y-111505320D01*
X166468825Y-111499066D01*
X166496403Y-111496350D01*
X166955123Y-111496350D01*
X166982701Y-111499066D01*
X166982701Y-111499066D01*
G37*
G36*
X167952701Y-111499066D02*
X167973319Y-111505320D01*
X167992319Y-111515476D01*
X168008971Y-111529142D01*
X168022637Y-111545794D01*
X168032793Y-111564794D01*
X168039047Y-111585412D01*
X168041763Y-111612990D01*
X168041763Y-112121710D01*
X168039047Y-112149288D01*
X168032793Y-112169906D01*
X168022637Y-112188906D01*
X168008971Y-112205558D01*
X167992319Y-112219224D01*
X167973319Y-112229380D01*
X167952701Y-112235634D01*
X167925123Y-112238350D01*
X167466403Y-112238350D01*
X167438825Y-112235634D01*
X167418207Y-112229380D01*
X167399207Y-112219224D01*
X167382555Y-112205558D01*
X167368889Y-112188906D01*
X167358733Y-112169906D01*
X167352479Y-112149288D01*
X167349763Y-112121710D01*
X167349763Y-111612990D01*
X167352479Y-111585412D01*
X167358733Y-111564794D01*
X167368889Y-111545794D01*
X167382555Y-111529142D01*
X167399207Y-111515476D01*
X167418207Y-111505320D01*
X167438825Y-111499066D01*
X167466403Y-111496350D01*
X167925123Y-111496350D01*
X167952701Y-111499066D01*
X167952701Y-111499066D01*
G37*
G36*
X129581000Y-111951000D02*
X128479000Y-111951000D01*
X128479000Y-110849000D01*
X129581000Y-110849000D01*
X129581000Y-111951000D01*
X129581000Y-111951000D01*
G37*
G36*
X125356938Y-111096716D02*
X125377556Y-111102970D01*
X125396556Y-111113126D01*
X125413208Y-111126792D01*
X125426874Y-111143444D01*
X125437030Y-111162444D01*
X125443284Y-111183062D01*
X125446000Y-111210640D01*
X125446000Y-111669360D01*
X125443284Y-111696938D01*
X125437030Y-111717556D01*
X125426874Y-111736556D01*
X125413208Y-111753208D01*
X125396556Y-111766874D01*
X125377556Y-111777030D01*
X125356938Y-111783284D01*
X125329360Y-111786000D01*
X124820640Y-111786000D01*
X124793062Y-111783284D01*
X124772444Y-111777030D01*
X124753444Y-111766874D01*
X124736792Y-111753208D01*
X124723126Y-111736556D01*
X124712970Y-111717556D01*
X124706716Y-111696938D01*
X124704000Y-111669360D01*
X124704000Y-111210640D01*
X124706716Y-111183062D01*
X124712970Y-111162444D01*
X124723126Y-111143444D01*
X124736792Y-111126792D01*
X124753444Y-111113126D01*
X124772444Y-111102970D01*
X124793062Y-111096716D01*
X124820640Y-111094000D01*
X125329360Y-111094000D01*
X125356938Y-111096716D01*
X125356938Y-111096716D01*
G37*
G36*
X153731000Y-111661000D02*
X152629000Y-111661000D01*
X152629000Y-110559000D01*
X153731000Y-110559000D01*
X153731000Y-111661000D01*
X153731000Y-111661000D01*
G37*
G36*
X159919699Y-111456101D02*
X158050901Y-111456101D01*
X158050901Y-109063899D01*
X159919699Y-109063899D01*
X159919699Y-111456101D01*
X159919699Y-111456101D01*
G37*
G36*
X164009099Y-111456101D02*
X162140301Y-111456101D01*
X162140301Y-109063899D01*
X164009099Y-109063899D01*
X164009099Y-111456101D01*
X164009099Y-111456101D01*
G37*
G36*
X168386163Y-109020649D02*
X168284463Y-109020649D01*
X168260077Y-109023051D01*
X168236628Y-109030164D01*
X168215017Y-109041715D01*
X168196075Y-109057261D01*
X168180529Y-109076203D01*
X168168978Y-109097814D01*
X168161865Y-109121263D01*
X168159463Y-109145649D01*
X168159463Y-110089051D01*
X168161865Y-110113437D01*
X168168978Y-110136886D01*
X168180529Y-110158497D01*
X168196075Y-110177439D01*
X168215017Y-110192985D01*
X168236628Y-110204536D01*
X168260077Y-110211649D01*
X168284463Y-110214051D01*
X168386163Y-110214051D01*
X168386163Y-111022449D01*
X166535363Y-111022449D01*
X166535363Y-110214051D01*
X166637063Y-110214051D01*
X166661449Y-110211649D01*
X166684898Y-110204536D01*
X166706509Y-110192985D01*
X166725451Y-110177439D01*
X166740997Y-110158497D01*
X166752548Y-110136886D01*
X166759661Y-110113437D01*
X166762063Y-110089051D01*
X166762063Y-109145649D01*
X166759661Y-109121263D01*
X166752548Y-109097814D01*
X166740997Y-109076203D01*
X166725451Y-109057261D01*
X166706509Y-109041715D01*
X166684898Y-109030164D01*
X166661449Y-109023051D01*
X166637063Y-109020649D01*
X166535363Y-109020649D01*
X166535363Y-108212251D01*
X168386163Y-108212251D01*
X168386163Y-109020649D01*
X168386163Y-109020649D01*
G37*
G36*
X125356938Y-110091716D02*
X125377556Y-110097970D01*
X125396556Y-110108126D01*
X125413208Y-110121792D01*
X125426874Y-110138444D01*
X125437030Y-110157444D01*
X125443284Y-110178062D01*
X125446000Y-110205640D01*
X125446000Y-110664360D01*
X125443284Y-110691938D01*
X125437030Y-110712556D01*
X125426874Y-110731556D01*
X125413208Y-110748208D01*
X125396556Y-110761874D01*
X125377556Y-110772030D01*
X125356938Y-110778284D01*
X125329360Y-110781000D01*
X124820640Y-110781000D01*
X124793062Y-110778284D01*
X124772444Y-110772030D01*
X124753444Y-110761874D01*
X124736792Y-110748208D01*
X124723126Y-110731556D01*
X124712970Y-110712556D01*
X124706716Y-110691938D01*
X124704000Y-110664360D01*
X124704000Y-110205640D01*
X124706716Y-110178062D01*
X124712970Y-110157444D01*
X124723126Y-110138444D01*
X124736792Y-110121792D01*
X124753444Y-110108126D01*
X124772444Y-110097970D01*
X124793062Y-110091716D01*
X124820640Y-110089000D01*
X125329360Y-110089000D01*
X125356938Y-110091716D01*
X125356938Y-110091716D01*
G37*
G36*
X129581000Y-110551000D02*
X128479000Y-110551000D01*
X128479000Y-109449000D01*
X129581000Y-109449000D01*
X129581000Y-110551000D01*
X129581000Y-110551000D01*
G37*
G36*
X153731000Y-110261000D02*
X152629000Y-110261000D01*
X152629000Y-109159000D01*
X153731000Y-109159000D01*
X153731000Y-110261000D01*
X153731000Y-110261000D01*
G37*
G36*
X125356938Y-109121716D02*
X125377556Y-109127970D01*
X125396556Y-109138126D01*
X125413208Y-109151792D01*
X125426874Y-109168444D01*
X125437030Y-109187444D01*
X125443284Y-109208062D01*
X125446000Y-109235640D01*
X125446000Y-109694360D01*
X125443284Y-109721938D01*
X125437030Y-109742556D01*
X125426874Y-109761556D01*
X125413208Y-109778208D01*
X125396556Y-109791874D01*
X125377556Y-109802030D01*
X125356938Y-109808284D01*
X125329360Y-109811000D01*
X124820640Y-109811000D01*
X124793062Y-109808284D01*
X124772444Y-109802030D01*
X124753444Y-109791874D01*
X124736792Y-109778208D01*
X124723126Y-109761556D01*
X124712970Y-109742556D01*
X124706716Y-109721938D01*
X124704000Y-109694360D01*
X124704000Y-109235640D01*
X124706716Y-109208062D01*
X124712970Y-109187444D01*
X124723126Y-109168444D01*
X124736792Y-109151792D01*
X124753444Y-109138126D01*
X124772444Y-109127970D01*
X124793062Y-109121716D01*
X124820640Y-109119000D01*
X125329360Y-109119000D01*
X125356938Y-109121716D01*
X125356938Y-109121716D01*
G37*
G36*
X108401000Y-109506000D02*
X106899000Y-109506000D01*
X106899000Y-108654000D01*
X108401000Y-108654000D01*
X108401000Y-109506000D01*
X108401000Y-109506000D01*
G37*
G36*
X105371938Y-108756716D02*
X105392556Y-108762970D01*
X105411556Y-108773126D01*
X105428208Y-108786792D01*
X105441874Y-108803444D01*
X105452030Y-108822444D01*
X105458284Y-108843062D01*
X105461000Y-108870640D01*
X105461000Y-109379360D01*
X105458284Y-109406938D01*
X105452030Y-109427556D01*
X105441874Y-109446556D01*
X105428208Y-109463208D01*
X105411556Y-109476874D01*
X105392556Y-109487030D01*
X105371938Y-109493284D01*
X105344360Y-109496000D01*
X104885640Y-109496000D01*
X104858062Y-109493284D01*
X104837444Y-109487030D01*
X104818444Y-109476874D01*
X104801792Y-109463208D01*
X104788126Y-109446556D01*
X104777970Y-109427556D01*
X104771716Y-109406938D01*
X104769000Y-109379360D01*
X104769000Y-108870640D01*
X104771716Y-108843062D01*
X104777970Y-108822444D01*
X104788126Y-108803444D01*
X104801792Y-108786792D01*
X104818444Y-108773126D01*
X104837444Y-108762970D01*
X104858062Y-108756716D01*
X104885640Y-108754000D01*
X105344360Y-108754000D01*
X105371938Y-108756716D01*
X105371938Y-108756716D01*
G37*
G36*
X106341938Y-108756716D02*
X106362556Y-108762970D01*
X106381556Y-108773126D01*
X106398208Y-108786792D01*
X106411874Y-108803444D01*
X106422030Y-108822444D01*
X106428284Y-108843062D01*
X106431000Y-108870640D01*
X106431000Y-109379360D01*
X106428284Y-109406938D01*
X106422030Y-109427556D01*
X106411874Y-109446556D01*
X106398208Y-109463208D01*
X106381556Y-109476874D01*
X106362556Y-109487030D01*
X106341938Y-109493284D01*
X106314360Y-109496000D01*
X105855640Y-109496000D01*
X105828062Y-109493284D01*
X105807444Y-109487030D01*
X105788444Y-109476874D01*
X105771792Y-109463208D01*
X105758126Y-109446556D01*
X105747970Y-109427556D01*
X105741716Y-109406938D01*
X105739000Y-109379360D01*
X105739000Y-108870640D01*
X105741716Y-108843062D01*
X105747970Y-108822444D01*
X105758126Y-108803444D01*
X105771792Y-108786792D01*
X105788444Y-108773126D01*
X105807444Y-108762970D01*
X105828062Y-108756716D01*
X105855640Y-108754000D01*
X106314360Y-108754000D01*
X106341938Y-108756716D01*
X106341938Y-108756716D01*
G37*
G36*
X129581000Y-109151000D02*
X128479000Y-109151000D01*
X128479000Y-108049000D01*
X129581000Y-108049000D01*
X129581000Y-109151000D01*
X129581000Y-109151000D01*
G37*
G36*
X153731000Y-108861000D02*
X152629000Y-108861000D01*
X152629000Y-107759000D01*
X153731000Y-107759000D01*
X153731000Y-108861000D01*
X153731000Y-108861000D01*
G37*
G36*
X122856938Y-107841716D02*
X122877556Y-107847970D01*
X122896556Y-107858126D01*
X122913208Y-107871792D01*
X122926874Y-107888444D01*
X122937030Y-107907444D01*
X122943284Y-107928062D01*
X122946000Y-107955640D01*
X122946000Y-108414360D01*
X122943284Y-108441938D01*
X122937030Y-108462556D01*
X122926874Y-108481556D01*
X122913208Y-108498208D01*
X122896556Y-108511874D01*
X122877556Y-108522030D01*
X122856938Y-108528284D01*
X122829360Y-108531000D01*
X122320640Y-108531000D01*
X122293062Y-108528284D01*
X122272444Y-108522030D01*
X122253444Y-108511874D01*
X122236792Y-108498208D01*
X122223126Y-108481556D01*
X122212970Y-108462556D01*
X122206716Y-108441938D01*
X122204000Y-108414360D01*
X122204000Y-107955640D01*
X122206716Y-107928062D01*
X122212970Y-107907444D01*
X122223126Y-107888444D01*
X122236792Y-107871792D01*
X122253444Y-107858126D01*
X122272444Y-107847970D01*
X122293062Y-107841716D01*
X122320640Y-107839000D01*
X122829360Y-107839000D01*
X122856938Y-107841716D01*
X122856938Y-107841716D01*
G37*
G36*
X123906938Y-107841716D02*
X123927556Y-107847970D01*
X123946556Y-107858126D01*
X123963208Y-107871792D01*
X123976874Y-107888444D01*
X123987030Y-107907444D01*
X123993284Y-107928062D01*
X123996000Y-107955640D01*
X123996000Y-108414360D01*
X123993284Y-108441938D01*
X123987030Y-108462556D01*
X123976874Y-108481556D01*
X123963208Y-108498208D01*
X123946556Y-108511874D01*
X123927556Y-108522030D01*
X123906938Y-108528284D01*
X123879360Y-108531000D01*
X123370640Y-108531000D01*
X123343062Y-108528284D01*
X123322444Y-108522030D01*
X123303444Y-108511874D01*
X123286792Y-108498208D01*
X123273126Y-108481556D01*
X123262970Y-108462556D01*
X123256716Y-108441938D01*
X123254000Y-108414360D01*
X123254000Y-107955640D01*
X123256716Y-107928062D01*
X123262970Y-107907444D01*
X123273126Y-107888444D01*
X123286792Y-107871792D01*
X123303444Y-107858126D01*
X123322444Y-107847970D01*
X123343062Y-107841716D01*
X123370640Y-107839000D01*
X123879360Y-107839000D01*
X123906938Y-107841716D01*
X123906938Y-107841716D01*
G37*
G36*
X159321938Y-107391716D02*
X159342556Y-107397970D01*
X159361556Y-107408126D01*
X159378208Y-107421792D01*
X159391874Y-107438444D01*
X159402030Y-107457444D01*
X159408284Y-107478062D01*
X159411000Y-107505640D01*
X159411000Y-108014360D01*
X159408284Y-108041938D01*
X159402030Y-108062556D01*
X159391874Y-108081556D01*
X159378208Y-108098208D01*
X159361556Y-108111874D01*
X159342556Y-108122030D01*
X159321938Y-108128284D01*
X159294360Y-108131000D01*
X158835640Y-108131000D01*
X158808062Y-108128284D01*
X158787444Y-108122030D01*
X158768444Y-108111874D01*
X158751792Y-108098208D01*
X158738126Y-108081556D01*
X158727970Y-108062556D01*
X158721716Y-108041938D01*
X158719000Y-108014360D01*
X158719000Y-107505640D01*
X158721716Y-107478062D01*
X158727970Y-107457444D01*
X158738126Y-107438444D01*
X158751792Y-107421792D01*
X158768444Y-107408126D01*
X158787444Y-107397970D01*
X158808062Y-107391716D01*
X158835640Y-107389000D01*
X159294360Y-107389000D01*
X159321938Y-107391716D01*
X159321938Y-107391716D01*
G37*
G36*
X158351938Y-107391716D02*
X158372556Y-107397970D01*
X158391556Y-107408126D01*
X158408208Y-107421792D01*
X158421874Y-107438444D01*
X158432030Y-107457444D01*
X158438284Y-107478062D01*
X158441000Y-107505640D01*
X158441000Y-108014360D01*
X158438284Y-108041938D01*
X158432030Y-108062556D01*
X158421874Y-108081556D01*
X158408208Y-108098208D01*
X158391556Y-108111874D01*
X158372556Y-108122030D01*
X158351938Y-108128284D01*
X158324360Y-108131000D01*
X157865640Y-108131000D01*
X157838062Y-108128284D01*
X157817444Y-108122030D01*
X157798444Y-108111874D01*
X157781792Y-108098208D01*
X157768126Y-108081556D01*
X157757970Y-108062556D01*
X157751716Y-108041938D01*
X157749000Y-108014360D01*
X157749000Y-107505640D01*
X157751716Y-107478062D01*
X157757970Y-107457444D01*
X157768126Y-107438444D01*
X157781792Y-107421792D01*
X157798444Y-107408126D01*
X157817444Y-107397970D01*
X157838062Y-107391716D01*
X157865640Y-107389000D01*
X158324360Y-107389000D01*
X158351938Y-107391716D01*
X158351938Y-107391716D01*
G37*
G36*
X108401000Y-108046000D02*
X106899000Y-108046000D01*
X106899000Y-107194000D01*
X108401000Y-107194000D01*
X108401000Y-108046000D01*
X108401000Y-108046000D01*
G37*
G36*
X106331938Y-107231716D02*
X106352556Y-107237970D01*
X106371556Y-107248126D01*
X106388208Y-107261792D01*
X106401874Y-107278444D01*
X106412030Y-107297444D01*
X106418284Y-107318062D01*
X106421000Y-107345640D01*
X106421000Y-107854360D01*
X106418284Y-107881938D01*
X106412030Y-107902556D01*
X106401874Y-107921556D01*
X106388208Y-107938208D01*
X106371556Y-107951874D01*
X106352556Y-107962030D01*
X106331938Y-107968284D01*
X106304360Y-107971000D01*
X105845640Y-107971000D01*
X105818062Y-107968284D01*
X105797444Y-107962030D01*
X105778444Y-107951874D01*
X105761792Y-107938208D01*
X105748126Y-107921556D01*
X105737970Y-107902556D01*
X105731716Y-107881938D01*
X105729000Y-107854360D01*
X105729000Y-107345640D01*
X105731716Y-107318062D01*
X105737970Y-107297444D01*
X105748126Y-107278444D01*
X105761792Y-107261792D01*
X105778444Y-107248126D01*
X105797444Y-107237970D01*
X105818062Y-107231716D01*
X105845640Y-107229000D01*
X106304360Y-107229000D01*
X106331938Y-107231716D01*
X106331938Y-107231716D01*
G37*
G36*
X105361938Y-107231716D02*
X105382556Y-107237970D01*
X105401556Y-107248126D01*
X105418208Y-107261792D01*
X105431874Y-107278444D01*
X105442030Y-107297444D01*
X105448284Y-107318062D01*
X105451000Y-107345640D01*
X105451000Y-107854360D01*
X105448284Y-107881938D01*
X105442030Y-107902556D01*
X105431874Y-107921556D01*
X105418208Y-107938208D01*
X105401556Y-107951874D01*
X105382556Y-107962030D01*
X105361938Y-107968284D01*
X105334360Y-107971000D01*
X104875640Y-107971000D01*
X104848062Y-107968284D01*
X104827444Y-107962030D01*
X104808444Y-107951874D01*
X104791792Y-107938208D01*
X104778126Y-107921556D01*
X104767970Y-107902556D01*
X104761716Y-107881938D01*
X104759000Y-107854360D01*
X104759000Y-107345640D01*
X104761716Y-107318062D01*
X104767970Y-107297444D01*
X104778126Y-107278444D01*
X104791792Y-107261792D01*
X104808444Y-107248126D01*
X104827444Y-107237970D01*
X104848062Y-107231716D01*
X104875640Y-107229000D01*
X105334360Y-107229000D01*
X105361938Y-107231716D01*
X105361938Y-107231716D01*
G37*
G36*
X123906938Y-106871716D02*
X123927556Y-106877970D01*
X123946556Y-106888126D01*
X123963208Y-106901792D01*
X123976874Y-106918444D01*
X123987030Y-106937444D01*
X123993284Y-106958062D01*
X123996000Y-106985640D01*
X123996000Y-107444360D01*
X123993284Y-107471938D01*
X123987030Y-107492556D01*
X123976874Y-107511556D01*
X123963208Y-107528208D01*
X123946556Y-107541874D01*
X123927556Y-107552030D01*
X123906938Y-107558284D01*
X123879360Y-107561000D01*
X123370640Y-107561000D01*
X123343062Y-107558284D01*
X123322444Y-107552030D01*
X123303444Y-107541874D01*
X123286792Y-107528208D01*
X123273126Y-107511556D01*
X123262970Y-107492556D01*
X123256716Y-107471938D01*
X123254000Y-107444360D01*
X123254000Y-106985640D01*
X123256716Y-106958062D01*
X123262970Y-106937444D01*
X123273126Y-106918444D01*
X123286792Y-106901792D01*
X123303444Y-106888126D01*
X123322444Y-106877970D01*
X123343062Y-106871716D01*
X123370640Y-106869000D01*
X123879360Y-106869000D01*
X123906938Y-106871716D01*
X123906938Y-106871716D01*
G37*
G36*
X122856938Y-106871716D02*
X122877556Y-106877970D01*
X122896556Y-106888126D01*
X122913208Y-106901792D01*
X122926874Y-106918444D01*
X122937030Y-106937444D01*
X122943284Y-106958062D01*
X122946000Y-106985640D01*
X122946000Y-107444360D01*
X122943284Y-107471938D01*
X122937030Y-107492556D01*
X122926874Y-107511556D01*
X122913208Y-107528208D01*
X122896556Y-107541874D01*
X122877556Y-107552030D01*
X122856938Y-107558284D01*
X122829360Y-107561000D01*
X122320640Y-107561000D01*
X122293062Y-107558284D01*
X122272444Y-107552030D01*
X122253444Y-107541874D01*
X122236792Y-107528208D01*
X122223126Y-107511556D01*
X122212970Y-107492556D01*
X122206716Y-107471938D01*
X122204000Y-107444360D01*
X122204000Y-106985640D01*
X122206716Y-106958062D01*
X122212970Y-106937444D01*
X122223126Y-106918444D01*
X122236792Y-106901792D01*
X122253444Y-106888126D01*
X122272444Y-106877970D01*
X122293062Y-106871716D01*
X122320640Y-106869000D01*
X122829360Y-106869000D01*
X122856938Y-106871716D01*
X122856938Y-106871716D01*
G37*
G36*
X153731000Y-107461000D02*
X152629000Y-107461000D01*
X152629000Y-106359000D01*
X153731000Y-106359000D01*
X153731000Y-107461000D01*
X153731000Y-107461000D01*
G37*
G36*
X167742701Y-106759066D02*
X167763319Y-106765320D01*
X167782319Y-106775476D01*
X167798971Y-106789142D01*
X167812637Y-106805794D01*
X167822793Y-106824794D01*
X167829047Y-106845412D01*
X167831763Y-106872990D01*
X167831763Y-107331710D01*
X167829047Y-107359288D01*
X167822793Y-107379906D01*
X167812637Y-107398906D01*
X167798971Y-107415558D01*
X167782319Y-107429224D01*
X167763319Y-107439380D01*
X167742701Y-107445634D01*
X167715123Y-107448350D01*
X167206403Y-107448350D01*
X167178825Y-107445634D01*
X167158207Y-107439380D01*
X167139207Y-107429224D01*
X167122555Y-107415558D01*
X167108889Y-107398906D01*
X167098733Y-107379906D01*
X167092479Y-107359288D01*
X167089763Y-107331710D01*
X167089763Y-106872990D01*
X167092479Y-106845412D01*
X167098733Y-106824794D01*
X167108889Y-106805794D01*
X167122555Y-106789142D01*
X167139207Y-106775476D01*
X167158207Y-106765320D01*
X167178825Y-106759066D01*
X167206403Y-106756350D01*
X167715123Y-106756350D01*
X167742701Y-106759066D01*
X167742701Y-106759066D01*
G37*
G36*
X166742701Y-106759066D02*
X166763319Y-106765320D01*
X166782319Y-106775476D01*
X166798971Y-106789142D01*
X166812637Y-106805794D01*
X166822793Y-106824794D01*
X166829047Y-106845412D01*
X166831763Y-106872990D01*
X166831763Y-107331710D01*
X166829047Y-107359288D01*
X166822793Y-107379906D01*
X166812637Y-107398906D01*
X166798971Y-107415558D01*
X166782319Y-107429224D01*
X166763319Y-107439380D01*
X166742701Y-107445634D01*
X166715123Y-107448350D01*
X166206403Y-107448350D01*
X166178825Y-107445634D01*
X166158207Y-107439380D01*
X166139207Y-107429224D01*
X166122555Y-107415558D01*
X166108889Y-107398906D01*
X166098733Y-107379906D01*
X166092479Y-107359288D01*
X166089763Y-107331710D01*
X166089763Y-106872990D01*
X166092479Y-106845412D01*
X166098733Y-106824794D01*
X166108889Y-106805794D01*
X166122555Y-106789142D01*
X166139207Y-106775476D01*
X166158207Y-106765320D01*
X166178825Y-106759066D01*
X166206403Y-106756350D01*
X166715123Y-106756350D01*
X166742701Y-106759066D01*
X166742701Y-106759066D01*
G37*
G36*
X127261938Y-106481716D02*
X127282556Y-106487970D01*
X127301556Y-106498126D01*
X127318208Y-106511792D01*
X127331874Y-106528444D01*
X127342030Y-106547444D01*
X127348284Y-106568062D01*
X127351000Y-106595640D01*
X127351000Y-107104360D01*
X127348284Y-107131938D01*
X127342030Y-107152556D01*
X127331874Y-107171556D01*
X127318208Y-107188208D01*
X127301556Y-107201874D01*
X127282556Y-107212030D01*
X127261938Y-107218284D01*
X127234360Y-107221000D01*
X126775640Y-107221000D01*
X126748062Y-107218284D01*
X126727444Y-107212030D01*
X126708444Y-107201874D01*
X126691792Y-107188208D01*
X126678126Y-107171556D01*
X126667970Y-107152556D01*
X126661716Y-107131938D01*
X126659000Y-107104360D01*
X126659000Y-106595640D01*
X126661716Y-106568062D01*
X126667970Y-106547444D01*
X126678126Y-106528444D01*
X126691792Y-106511792D01*
X126708444Y-106498126D01*
X126727444Y-106487970D01*
X126748062Y-106481716D01*
X126775640Y-106479000D01*
X127234360Y-106479000D01*
X127261938Y-106481716D01*
X127261938Y-106481716D01*
G37*
G36*
X128231938Y-106481716D02*
X128252556Y-106487970D01*
X128271556Y-106498126D01*
X128288208Y-106511792D01*
X128301874Y-106528444D01*
X128312030Y-106547444D01*
X128318284Y-106568062D01*
X128321000Y-106595640D01*
X128321000Y-107104360D01*
X128318284Y-107131938D01*
X128312030Y-107152556D01*
X128301874Y-107171556D01*
X128288208Y-107188208D01*
X128271556Y-107201874D01*
X128252556Y-107212030D01*
X128231938Y-107218284D01*
X128204360Y-107221000D01*
X127745640Y-107221000D01*
X127718062Y-107218284D01*
X127697444Y-107212030D01*
X127678444Y-107201874D01*
X127661792Y-107188208D01*
X127648126Y-107171556D01*
X127637970Y-107152556D01*
X127631716Y-107131938D01*
X127629000Y-107104360D01*
X127629000Y-106595640D01*
X127631716Y-106568062D01*
X127637970Y-106547444D01*
X127648126Y-106528444D01*
X127661792Y-106511792D01*
X127678444Y-106498126D01*
X127697444Y-106487970D01*
X127718062Y-106481716D01*
X127745640Y-106479000D01*
X128204360Y-106479000D01*
X128231938Y-106481716D01*
X128231938Y-106481716D01*
G37*
G36*
X130831000Y-107211000D02*
X129729000Y-107211000D01*
X129729000Y-106109000D01*
X130831000Y-106109000D01*
X130831000Y-107211000D01*
X130831000Y-107211000D01*
G37*
G36*
X167742701Y-105789066D02*
X167763319Y-105795320D01*
X167782319Y-105805476D01*
X167798971Y-105819142D01*
X167812637Y-105835794D01*
X167822793Y-105854794D01*
X167829047Y-105875412D01*
X167831763Y-105902990D01*
X167831763Y-106361710D01*
X167829047Y-106389288D01*
X167822793Y-106409906D01*
X167812637Y-106428906D01*
X167798971Y-106445558D01*
X167782319Y-106459224D01*
X167763319Y-106469380D01*
X167742701Y-106475634D01*
X167715123Y-106478350D01*
X167206403Y-106478350D01*
X167178825Y-106475634D01*
X167158207Y-106469380D01*
X167139207Y-106459224D01*
X167122555Y-106445558D01*
X167108889Y-106428906D01*
X167098733Y-106409906D01*
X167092479Y-106389288D01*
X167089763Y-106361710D01*
X167089763Y-105902990D01*
X167092479Y-105875412D01*
X167098733Y-105854794D01*
X167108889Y-105835794D01*
X167122555Y-105819142D01*
X167139207Y-105805476D01*
X167158207Y-105795320D01*
X167178825Y-105789066D01*
X167206403Y-105786350D01*
X167715123Y-105786350D01*
X167742701Y-105789066D01*
X167742701Y-105789066D01*
G37*
G36*
X166742701Y-105789066D02*
X166763319Y-105795320D01*
X166782319Y-105805476D01*
X166798971Y-105819142D01*
X166812637Y-105835794D01*
X166822793Y-105854794D01*
X166829047Y-105875412D01*
X166831763Y-105902990D01*
X166831763Y-106361710D01*
X166829047Y-106389288D01*
X166822793Y-106409906D01*
X166812637Y-106428906D01*
X166798971Y-106445558D01*
X166782319Y-106459224D01*
X166763319Y-106469380D01*
X166742701Y-106475634D01*
X166715123Y-106478350D01*
X166206403Y-106478350D01*
X166178825Y-106475634D01*
X166158207Y-106469380D01*
X166139207Y-106459224D01*
X166122555Y-106445558D01*
X166108889Y-106428906D01*
X166098733Y-106409906D01*
X166092479Y-106389288D01*
X166089763Y-106361710D01*
X166089763Y-105902990D01*
X166092479Y-105875412D01*
X166098733Y-105854794D01*
X166108889Y-105835794D01*
X166122555Y-105819142D01*
X166139207Y-105805476D01*
X166158207Y-105795320D01*
X166178825Y-105789066D01*
X166206403Y-105786350D01*
X166715123Y-105786350D01*
X166742701Y-105789066D01*
X166742701Y-105789066D01*
G37*
G36*
X125781938Y-105541716D02*
X125802556Y-105547970D01*
X125821556Y-105558126D01*
X125838208Y-105571792D01*
X125851874Y-105588444D01*
X125862030Y-105607444D01*
X125868284Y-105628062D01*
X125871000Y-105655640D01*
X125871000Y-106114360D01*
X125868284Y-106141938D01*
X125862030Y-106162556D01*
X125851874Y-106181556D01*
X125838208Y-106198208D01*
X125821556Y-106211874D01*
X125802556Y-106222030D01*
X125781938Y-106228284D01*
X125754360Y-106231000D01*
X125245640Y-106231000D01*
X125218062Y-106228284D01*
X125197444Y-106222030D01*
X125178444Y-106211874D01*
X125161792Y-106198208D01*
X125148126Y-106181556D01*
X125137970Y-106162556D01*
X125131716Y-106141938D01*
X125129000Y-106114360D01*
X125129000Y-105655640D01*
X125131716Y-105628062D01*
X125137970Y-105607444D01*
X125148126Y-105588444D01*
X125161792Y-105571792D01*
X125178444Y-105558126D01*
X125197444Y-105547970D01*
X125218062Y-105541716D01*
X125245640Y-105539000D01*
X125754360Y-105539000D01*
X125781938Y-105541716D01*
X125781938Y-105541716D01*
G37*
G36*
X127276197Y-106151141D02*
X126724197Y-106151141D01*
X126724197Y-105599141D01*
X127276197Y-105599141D01*
X127276197Y-106151141D01*
X127276197Y-106151141D01*
G37*
G36*
X128126141Y-106151141D02*
X127574141Y-106151141D01*
X127574141Y-105599141D01*
X128126141Y-105599141D01*
X128126141Y-106151141D01*
X128126141Y-106151141D01*
G37*
G36*
X153731000Y-106061000D02*
X152629000Y-106061000D01*
X152629000Y-104959000D01*
X153731000Y-104959000D01*
X153731000Y-106061000D01*
X153731000Y-106061000D01*
G37*
G36*
X163071938Y-105141716D02*
X163092556Y-105147970D01*
X163111556Y-105158126D01*
X163128208Y-105171792D01*
X163141874Y-105188444D01*
X163152030Y-105207444D01*
X163158284Y-105228062D01*
X163161000Y-105255640D01*
X163161000Y-105764360D01*
X163158284Y-105791938D01*
X163152030Y-105812556D01*
X163141874Y-105831556D01*
X163128208Y-105848208D01*
X163111556Y-105861874D01*
X163092556Y-105872030D01*
X163071938Y-105878284D01*
X163044360Y-105881000D01*
X162585640Y-105881000D01*
X162558062Y-105878284D01*
X162537444Y-105872030D01*
X162518444Y-105861874D01*
X162501792Y-105848208D01*
X162488126Y-105831556D01*
X162477970Y-105812556D01*
X162471716Y-105791938D01*
X162469000Y-105764360D01*
X162469000Y-105255640D01*
X162471716Y-105228062D01*
X162477970Y-105207444D01*
X162488126Y-105188444D01*
X162501792Y-105171792D01*
X162518444Y-105158126D01*
X162537444Y-105147970D01*
X162558062Y-105141716D01*
X162585640Y-105139000D01*
X163044360Y-105139000D01*
X163071938Y-105141716D01*
X163071938Y-105141716D01*
G37*
G36*
X162101938Y-105141716D02*
X162122556Y-105147970D01*
X162141556Y-105158126D01*
X162158208Y-105171792D01*
X162171874Y-105188444D01*
X162182030Y-105207444D01*
X162188284Y-105228062D01*
X162191000Y-105255640D01*
X162191000Y-105764360D01*
X162188284Y-105791938D01*
X162182030Y-105812556D01*
X162171874Y-105831556D01*
X162158208Y-105848208D01*
X162141556Y-105861874D01*
X162122556Y-105872030D01*
X162101938Y-105878284D01*
X162074360Y-105881000D01*
X161615640Y-105881000D01*
X161588062Y-105878284D01*
X161567444Y-105872030D01*
X161548444Y-105861874D01*
X161531792Y-105848208D01*
X161518126Y-105831556D01*
X161507970Y-105812556D01*
X161501716Y-105791938D01*
X161499000Y-105764360D01*
X161499000Y-105255640D01*
X161501716Y-105228062D01*
X161507970Y-105207444D01*
X161518126Y-105188444D01*
X161531792Y-105171792D01*
X161548444Y-105158126D01*
X161567444Y-105147970D01*
X161588062Y-105141716D01*
X161615640Y-105139000D01*
X162074360Y-105139000D01*
X162101938Y-105141716D01*
X162101938Y-105141716D01*
G37*
G36*
X130831000Y-105811000D02*
X129729000Y-105811000D01*
X129729000Y-104709000D01*
X130831000Y-104709000D01*
X130831000Y-105811000D01*
X130831000Y-105811000D01*
G37*
G36*
X106041938Y-105056716D02*
X106062556Y-105062970D01*
X106081556Y-105073126D01*
X106098208Y-105086792D01*
X106111874Y-105103444D01*
X106122030Y-105122444D01*
X106128284Y-105143062D01*
X106131000Y-105170640D01*
X106131000Y-105679360D01*
X106128284Y-105706938D01*
X106122030Y-105727556D01*
X106111874Y-105746556D01*
X106098208Y-105763208D01*
X106081556Y-105776874D01*
X106062556Y-105787030D01*
X106041938Y-105793284D01*
X106014360Y-105796000D01*
X105555640Y-105796000D01*
X105528062Y-105793284D01*
X105507444Y-105787030D01*
X105488444Y-105776874D01*
X105471792Y-105763208D01*
X105458126Y-105746556D01*
X105447970Y-105727556D01*
X105441716Y-105706938D01*
X105439000Y-105679360D01*
X105439000Y-105170640D01*
X105441716Y-105143062D01*
X105447970Y-105122444D01*
X105458126Y-105103444D01*
X105471792Y-105086792D01*
X105488444Y-105073126D01*
X105507444Y-105062970D01*
X105528062Y-105056716D01*
X105555640Y-105054000D01*
X106014360Y-105054000D01*
X106041938Y-105056716D01*
X106041938Y-105056716D01*
G37*
G36*
X105071938Y-105056716D02*
X105092556Y-105062970D01*
X105111556Y-105073126D01*
X105128208Y-105086792D01*
X105141874Y-105103444D01*
X105152030Y-105122444D01*
X105158284Y-105143062D01*
X105161000Y-105170640D01*
X105161000Y-105679360D01*
X105158284Y-105706938D01*
X105152030Y-105727556D01*
X105141874Y-105746556D01*
X105128208Y-105763208D01*
X105111556Y-105776874D01*
X105092556Y-105787030D01*
X105071938Y-105793284D01*
X105044360Y-105796000D01*
X104585640Y-105796000D01*
X104558062Y-105793284D01*
X104537444Y-105787030D01*
X104518444Y-105776874D01*
X104501792Y-105763208D01*
X104488126Y-105746556D01*
X104477970Y-105727556D01*
X104471716Y-105706938D01*
X104469000Y-105679360D01*
X104469000Y-105170640D01*
X104471716Y-105143062D01*
X104477970Y-105122444D01*
X104488126Y-105103444D01*
X104501792Y-105086792D01*
X104518444Y-105073126D01*
X104537444Y-105062970D01*
X104558062Y-105056716D01*
X104585640Y-105054000D01*
X105044360Y-105054000D01*
X105071938Y-105056716D01*
X105071938Y-105056716D01*
G37*
G36*
X124623240Y-105500430D02*
X123022640Y-105500430D01*
X123022640Y-104699930D01*
X124623240Y-104699930D01*
X124623240Y-105500430D01*
X124623240Y-105500430D01*
G37*
G36*
X110625300Y-105500430D02*
X109024700Y-105500430D01*
X109024700Y-104699930D01*
X110625300Y-104699930D01*
X110625300Y-105500430D01*
X110625300Y-105500430D01*
G37*
G36*
X128126141Y-105301197D02*
X127574141Y-105301197D01*
X127574141Y-104749197D01*
X128126141Y-104749197D01*
X128126141Y-105301197D01*
X128126141Y-105301197D01*
G37*
G36*
X127276000Y-105301000D02*
X126724000Y-105301000D01*
X126724000Y-104749000D01*
X127276000Y-104749000D01*
X127276000Y-105301000D01*
X127276000Y-105301000D01*
G37*
G36*
X125781938Y-104571716D02*
X125802556Y-104577970D01*
X125821556Y-104588126D01*
X125838208Y-104601792D01*
X125851874Y-104618444D01*
X125862030Y-104637444D01*
X125868284Y-104658062D01*
X125871000Y-104685640D01*
X125871000Y-105144360D01*
X125868284Y-105171938D01*
X125862030Y-105192556D01*
X125851874Y-105211556D01*
X125838208Y-105228208D01*
X125821556Y-105241874D01*
X125802556Y-105252030D01*
X125781938Y-105258284D01*
X125754360Y-105261000D01*
X125245640Y-105261000D01*
X125218062Y-105258284D01*
X125197444Y-105252030D01*
X125178444Y-105241874D01*
X125161792Y-105228208D01*
X125148126Y-105211556D01*
X125137970Y-105192556D01*
X125131716Y-105171938D01*
X125129000Y-105144360D01*
X125129000Y-104685640D01*
X125131716Y-104658062D01*
X125137970Y-104637444D01*
X125148126Y-104618444D01*
X125161792Y-104601792D01*
X125178444Y-104588126D01*
X125197444Y-104577970D01*
X125218062Y-104571716D01*
X125245640Y-104569000D01*
X125754360Y-104569000D01*
X125781938Y-104571716D01*
X125781938Y-104571716D01*
G37*
G36*
X164188402Y-103766614D02*
X164186000Y-103791000D01*
X164186000Y-104661000D01*
X161374000Y-104661000D01*
X161374000Y-103791000D01*
X161371598Y-103766614D01*
X161367238Y-103752240D01*
X161381612Y-103756600D01*
X161405998Y-103759002D01*
X164154002Y-103759002D01*
X164178388Y-103756600D01*
X164192762Y-103752240D01*
X164188402Y-103766614D01*
X164188402Y-103766614D01*
G37*
G36*
X153731000Y-104661000D02*
X152629000Y-104661000D01*
X152629000Y-103559000D01*
X153731000Y-103559000D01*
X153731000Y-104661000D01*
X153731000Y-104661000D01*
G37*
G36*
X167301938Y-103891716D02*
X167322556Y-103897970D01*
X167341556Y-103908126D01*
X167358208Y-103921792D01*
X167371874Y-103938444D01*
X167382030Y-103957444D01*
X167388284Y-103978062D01*
X167391000Y-104005640D01*
X167391000Y-104514360D01*
X167388284Y-104541938D01*
X167382030Y-104562556D01*
X167371874Y-104581556D01*
X167358208Y-104598208D01*
X167341556Y-104611874D01*
X167322556Y-104622030D01*
X167301938Y-104628284D01*
X167274360Y-104631000D01*
X166815640Y-104631000D01*
X166788062Y-104628284D01*
X166767444Y-104622030D01*
X166748444Y-104611874D01*
X166731792Y-104598208D01*
X166718126Y-104581556D01*
X166707970Y-104562556D01*
X166701716Y-104541938D01*
X166699000Y-104514360D01*
X166699000Y-104005640D01*
X166701716Y-103978062D01*
X166707970Y-103957444D01*
X166718126Y-103938444D01*
X166731792Y-103921792D01*
X166748444Y-103908126D01*
X166767444Y-103897970D01*
X166788062Y-103891716D01*
X166815640Y-103889000D01*
X167274360Y-103889000D01*
X167301938Y-103891716D01*
X167301938Y-103891716D01*
G37*
G36*
X170271938Y-103891716D02*
X170292556Y-103897970D01*
X170311556Y-103908126D01*
X170328208Y-103921792D01*
X170341874Y-103938444D01*
X170352030Y-103957444D01*
X170358284Y-103978062D01*
X170361000Y-104005640D01*
X170361000Y-104514360D01*
X170358284Y-104541938D01*
X170352030Y-104562556D01*
X170341874Y-104581556D01*
X170328208Y-104598208D01*
X170311556Y-104611874D01*
X170292556Y-104622030D01*
X170271938Y-104628284D01*
X170244360Y-104631000D01*
X169785640Y-104631000D01*
X169758062Y-104628284D01*
X169737444Y-104622030D01*
X169718444Y-104611874D01*
X169701792Y-104598208D01*
X169688126Y-104581556D01*
X169677970Y-104562556D01*
X169671716Y-104541938D01*
X169669000Y-104514360D01*
X169669000Y-104005640D01*
X169671716Y-103978062D01*
X169677970Y-103957444D01*
X169688126Y-103938444D01*
X169701792Y-103921792D01*
X169718444Y-103908126D01*
X169737444Y-103897970D01*
X169758062Y-103891716D01*
X169785640Y-103889000D01*
X170244360Y-103889000D01*
X170271938Y-103891716D01*
X170271938Y-103891716D01*
G37*
G36*
X169301938Y-103891716D02*
X169322556Y-103897970D01*
X169341556Y-103908126D01*
X169358208Y-103921792D01*
X169371874Y-103938444D01*
X169382030Y-103957444D01*
X169388284Y-103978062D01*
X169391000Y-104005640D01*
X169391000Y-104514360D01*
X169388284Y-104541938D01*
X169382030Y-104562556D01*
X169371874Y-104581556D01*
X169358208Y-104598208D01*
X169341556Y-104611874D01*
X169322556Y-104622030D01*
X169301938Y-104628284D01*
X169274360Y-104631000D01*
X168815640Y-104631000D01*
X168788062Y-104628284D01*
X168767444Y-104622030D01*
X168748444Y-104611874D01*
X168731792Y-104598208D01*
X168718126Y-104581556D01*
X168707970Y-104562556D01*
X168701716Y-104541938D01*
X168699000Y-104514360D01*
X168699000Y-104005640D01*
X168701716Y-103978062D01*
X168707970Y-103957444D01*
X168718126Y-103938444D01*
X168731792Y-103921792D01*
X168748444Y-103908126D01*
X168767444Y-103897970D01*
X168788062Y-103891716D01*
X168815640Y-103889000D01*
X169274360Y-103889000D01*
X169301938Y-103891716D01*
X169301938Y-103891716D01*
G37*
G36*
X168271938Y-103891716D02*
X168292556Y-103897970D01*
X168311556Y-103908126D01*
X168328208Y-103921792D01*
X168341874Y-103938444D01*
X168352030Y-103957444D01*
X168358284Y-103978062D01*
X168361000Y-104005640D01*
X168361000Y-104514360D01*
X168358284Y-104541938D01*
X168352030Y-104562556D01*
X168341874Y-104581556D01*
X168328208Y-104598208D01*
X168311556Y-104611874D01*
X168292556Y-104622030D01*
X168271938Y-104628284D01*
X168244360Y-104631000D01*
X167785640Y-104631000D01*
X167758062Y-104628284D01*
X167737444Y-104622030D01*
X167718444Y-104611874D01*
X167701792Y-104598208D01*
X167688126Y-104581556D01*
X167677970Y-104562556D01*
X167671716Y-104541938D01*
X167669000Y-104514360D01*
X167669000Y-104005640D01*
X167671716Y-103978062D01*
X167677970Y-103957444D01*
X167688126Y-103938444D01*
X167701792Y-103921792D01*
X167718444Y-103908126D01*
X167737444Y-103897970D01*
X167758062Y-103891716D01*
X167785640Y-103889000D01*
X168244360Y-103889000D01*
X168271938Y-103891716D01*
X168271938Y-103891716D01*
G37*
G36*
X116175700Y-103863777D02*
X116239527Y-103890215D01*
X116296974Y-103928600D01*
X116345820Y-103977446D01*
X116384205Y-104034893D01*
X116410643Y-104098720D01*
X116424120Y-104166475D01*
X116424120Y-104235565D01*
X116410643Y-104303320D01*
X116384205Y-104367147D01*
X116345820Y-104424594D01*
X116296974Y-104473440D01*
X116239527Y-104511825D01*
X116175700Y-104538263D01*
X116107945Y-104551740D01*
X116038855Y-104551740D01*
X115971100Y-104538263D01*
X115907273Y-104511825D01*
X115849826Y-104473440D01*
X115800980Y-104424594D01*
X115762595Y-104367147D01*
X115736157Y-104303320D01*
X115722680Y-104235565D01*
X115722680Y-104166475D01*
X115736157Y-104098720D01*
X115762595Y-104034893D01*
X115800980Y-103977446D01*
X115849826Y-103928600D01*
X115907273Y-103890215D01*
X115971100Y-103863777D01*
X116038855Y-103850300D01*
X116107945Y-103850300D01*
X116175700Y-103863777D01*
X116175700Y-103863777D01*
G37*
G36*
X119175440Y-103863777D02*
X119239267Y-103890215D01*
X119296714Y-103928600D01*
X119345560Y-103977446D01*
X119383945Y-104034893D01*
X119410383Y-104098720D01*
X119423860Y-104166475D01*
X119423860Y-104235565D01*
X119410383Y-104303320D01*
X119383945Y-104367147D01*
X119345560Y-104424594D01*
X119296714Y-104473440D01*
X119239267Y-104511825D01*
X119175440Y-104538263D01*
X119107685Y-104551740D01*
X119038595Y-104551740D01*
X118970840Y-104538263D01*
X118907013Y-104511825D01*
X118849566Y-104473440D01*
X118800720Y-104424594D01*
X118762335Y-104367147D01*
X118735897Y-104303320D01*
X118722420Y-104235565D01*
X118722420Y-104166475D01*
X118735897Y-104098720D01*
X118762335Y-104034893D01*
X118800720Y-103977446D01*
X118849566Y-103928600D01*
X118907013Y-103890215D01*
X118970840Y-103863777D01*
X119038595Y-103850300D01*
X119107685Y-103850300D01*
X119175440Y-103863777D01*
X119175440Y-103863777D01*
G37*
G36*
X114677100Y-103863777D02*
X114740927Y-103890215D01*
X114798374Y-103928600D01*
X114847220Y-103977446D01*
X114885605Y-104034893D01*
X114912043Y-104098720D01*
X114925520Y-104166475D01*
X114925520Y-104235565D01*
X114912043Y-104303320D01*
X114885605Y-104367147D01*
X114847220Y-104424594D01*
X114798374Y-104473440D01*
X114740927Y-104511825D01*
X114677100Y-104538263D01*
X114609345Y-104551740D01*
X114540255Y-104551740D01*
X114472500Y-104538263D01*
X114408673Y-104511825D01*
X114351226Y-104473440D01*
X114302380Y-104424594D01*
X114263995Y-104367147D01*
X114237557Y-104303320D01*
X114224080Y-104235565D01*
X114224080Y-104166475D01*
X114237557Y-104098720D01*
X114263995Y-104034893D01*
X114302380Y-103977446D01*
X114351226Y-103928600D01*
X114408673Y-103890215D01*
X114472500Y-103863777D01*
X114540255Y-103850300D01*
X114609345Y-103850300D01*
X114677100Y-103863777D01*
X114677100Y-103863777D01*
G37*
G36*
X117676840Y-103863777D02*
X117740667Y-103890215D01*
X117798114Y-103928600D01*
X117846960Y-103977446D01*
X117885345Y-104034893D01*
X117911783Y-104098720D01*
X117925260Y-104166475D01*
X117925260Y-104235565D01*
X117911783Y-104303320D01*
X117885345Y-104367147D01*
X117846960Y-104424594D01*
X117798114Y-104473440D01*
X117740667Y-104511825D01*
X117676840Y-104538263D01*
X117609085Y-104551740D01*
X117539995Y-104551740D01*
X117472240Y-104538263D01*
X117408413Y-104511825D01*
X117350966Y-104473440D01*
X117302120Y-104424594D01*
X117263735Y-104367147D01*
X117237297Y-104303320D01*
X117223820Y-104235565D01*
X117223820Y-104166475D01*
X117237297Y-104098720D01*
X117263735Y-104034893D01*
X117302120Y-103977446D01*
X117350966Y-103928600D01*
X117408413Y-103890215D01*
X117472240Y-103863777D01*
X117539995Y-103850300D01*
X117609085Y-103850300D01*
X117676840Y-103863777D01*
X117676840Y-103863777D01*
G37*
G36*
X108126000Y-104526000D02*
X105624000Y-104526000D01*
X105624000Y-102974000D01*
X108126000Y-102974000D01*
X108126000Y-104526000D01*
X108126000Y-104526000D01*
G37*
G36*
X124623240Y-104400610D02*
X123022640Y-104400610D01*
X123022640Y-103600110D01*
X124623240Y-103600110D01*
X124623240Y-104400610D01*
X124623240Y-104400610D01*
G37*
G36*
X110625300Y-104400610D02*
X109024700Y-104400610D01*
X109024700Y-103600110D01*
X110625300Y-103600110D01*
X110625300Y-104400610D01*
X110625300Y-104400610D01*
G37*
G36*
X158551938Y-103141716D02*
X158572556Y-103147970D01*
X158591556Y-103158126D01*
X158608208Y-103171792D01*
X158621874Y-103188444D01*
X158632030Y-103207444D01*
X158638284Y-103228062D01*
X158641000Y-103255640D01*
X158641000Y-103764360D01*
X158638284Y-103791938D01*
X158632030Y-103812556D01*
X158621874Y-103831556D01*
X158608208Y-103848208D01*
X158591556Y-103861874D01*
X158572556Y-103872030D01*
X158551938Y-103878284D01*
X158524360Y-103881000D01*
X158065640Y-103881000D01*
X158038062Y-103878284D01*
X158017444Y-103872030D01*
X157998444Y-103861874D01*
X157981792Y-103848208D01*
X157968126Y-103831556D01*
X157957970Y-103812556D01*
X157951716Y-103791938D01*
X157949000Y-103764360D01*
X157949000Y-103255640D01*
X157951716Y-103228062D01*
X157957970Y-103207444D01*
X157968126Y-103188444D01*
X157981792Y-103171792D01*
X157998444Y-103158126D01*
X158017444Y-103147970D01*
X158038062Y-103141716D01*
X158065640Y-103139000D01*
X158524360Y-103139000D01*
X158551938Y-103141716D01*
X158551938Y-103141716D01*
G37*
G36*
X159521938Y-103141716D02*
X159542556Y-103147970D01*
X159561556Y-103158126D01*
X159578208Y-103171792D01*
X159591874Y-103188444D01*
X159602030Y-103207444D01*
X159608284Y-103228062D01*
X159611000Y-103255640D01*
X159611000Y-103764360D01*
X159608284Y-103791938D01*
X159602030Y-103812556D01*
X159591874Y-103831556D01*
X159578208Y-103848208D01*
X159561556Y-103861874D01*
X159542556Y-103872030D01*
X159521938Y-103878284D01*
X159494360Y-103881000D01*
X159035640Y-103881000D01*
X159008062Y-103878284D01*
X158987444Y-103872030D01*
X158968444Y-103861874D01*
X158951792Y-103848208D01*
X158938126Y-103831556D01*
X158927970Y-103812556D01*
X158921716Y-103791938D01*
X158919000Y-103764360D01*
X158919000Y-103255640D01*
X158921716Y-103228062D01*
X158927970Y-103207444D01*
X158938126Y-103188444D01*
X158951792Y-103171792D01*
X158968444Y-103158126D01*
X158987444Y-103147970D01*
X159008062Y-103141716D01*
X159035640Y-103139000D01*
X159494360Y-103139000D01*
X159521938Y-103141716D01*
X159521938Y-103141716D01*
G37*
G36*
X127501000Y-97727262D02*
X127503402Y-97751648D01*
X127510515Y-97775097D01*
X127522066Y-97796708D01*
X127537612Y-97815650D01*
X127556554Y-97831196D01*
X127578165Y-97842747D01*
X127601614Y-97849860D01*
X127626000Y-97852262D01*
X127650386Y-97849860D01*
X127673835Y-97842747D01*
X127695446Y-97831196D01*
X127714388Y-97815650D01*
X127736236Y-97786192D01*
X127759644Y-97742400D01*
X127828499Y-97658499D01*
X127912400Y-97589644D01*
X128008121Y-97538479D01*
X128111985Y-97506973D01*
X128192933Y-97499000D01*
X128247067Y-97499000D01*
X128328015Y-97506973D01*
X128431879Y-97538479D01*
X128527600Y-97589644D01*
X128611501Y-97658499D01*
X128680356Y-97742400D01*
X128731521Y-97838121D01*
X128763027Y-97941985D01*
X128773666Y-98050000D01*
X128763027Y-98158015D01*
X128731521Y-98261879D01*
X128680356Y-98357600D01*
X128611501Y-98441501D01*
X128527600Y-98510356D01*
X128431879Y-98561521D01*
X128419142Y-98565385D01*
X128396507Y-98574760D01*
X128376133Y-98588374D01*
X128358806Y-98605701D01*
X128345192Y-98626076D01*
X128335814Y-98648715D01*
X128331034Y-98672748D01*
X128331034Y-98697252D01*
X128335815Y-98721286D01*
X128345192Y-98743925D01*
X128358806Y-98764299D01*
X128376133Y-98781626D01*
X128396508Y-98795240D01*
X128419142Y-98804615D01*
X128431879Y-98808479D01*
X128527600Y-98859644D01*
X128611501Y-98928499D01*
X128680356Y-99012400D01*
X128731521Y-99108121D01*
X128763027Y-99211985D01*
X128773666Y-99320000D01*
X128763027Y-99428015D01*
X128731521Y-99531879D01*
X128680356Y-99627600D01*
X128611501Y-99711501D01*
X128527600Y-99780356D01*
X128431879Y-99831521D01*
X128419142Y-99835385D01*
X128396507Y-99844760D01*
X128376133Y-99858374D01*
X128358806Y-99875701D01*
X128345192Y-99896076D01*
X128335814Y-99918715D01*
X128331034Y-99942748D01*
X128331034Y-99967252D01*
X128335815Y-99991286D01*
X128345192Y-100013925D01*
X128358806Y-100034299D01*
X128376133Y-100051626D01*
X128396508Y-100065240D01*
X128419142Y-100074615D01*
X128431879Y-100078479D01*
X128527600Y-100129644D01*
X128611501Y-100198499D01*
X128680356Y-100282400D01*
X128731521Y-100378121D01*
X128763027Y-100481985D01*
X128773666Y-100590000D01*
X128763027Y-100698015D01*
X128731521Y-100801879D01*
X128680356Y-100897600D01*
X128611501Y-100981501D01*
X128527600Y-101050356D01*
X128431879Y-101101521D01*
X128419142Y-101105385D01*
X128396507Y-101114760D01*
X128376133Y-101128374D01*
X128358806Y-101145701D01*
X128345192Y-101166076D01*
X128335814Y-101188715D01*
X128331034Y-101212748D01*
X128331034Y-101237252D01*
X128335815Y-101261286D01*
X128345192Y-101283925D01*
X128358806Y-101304299D01*
X128376133Y-101321626D01*
X128396508Y-101335240D01*
X128419142Y-101344615D01*
X128431879Y-101348479D01*
X128527600Y-101399644D01*
X128611501Y-101468499D01*
X128680356Y-101552400D01*
X128731521Y-101648121D01*
X128763027Y-101751985D01*
X128773666Y-101860000D01*
X128763027Y-101968015D01*
X128731521Y-102071879D01*
X128680356Y-102167600D01*
X128611501Y-102251501D01*
X128527600Y-102320356D01*
X128431879Y-102371521D01*
X128419142Y-102375385D01*
X128396507Y-102384760D01*
X128376133Y-102398374D01*
X128358806Y-102415701D01*
X128345192Y-102436076D01*
X128335814Y-102458715D01*
X128331034Y-102482748D01*
X128331034Y-102507252D01*
X128335815Y-102531286D01*
X128345192Y-102553925D01*
X128358806Y-102574299D01*
X128376133Y-102591626D01*
X128396508Y-102605240D01*
X128419142Y-102614615D01*
X128431879Y-102618479D01*
X128527600Y-102669644D01*
X128611501Y-102738499D01*
X128680356Y-102822400D01*
X128731521Y-102918121D01*
X128763027Y-103021985D01*
X128773666Y-103130000D01*
X128763027Y-103238015D01*
X128731521Y-103341879D01*
X128680356Y-103437600D01*
X128611501Y-103521501D01*
X128527600Y-103590356D01*
X128431879Y-103641521D01*
X128328015Y-103673027D01*
X128247067Y-103681000D01*
X128192933Y-103681000D01*
X128111985Y-103673027D01*
X128008121Y-103641521D01*
X127912400Y-103590356D01*
X127828499Y-103521501D01*
X127759644Y-103437600D01*
X127708479Y-103341879D01*
X127704615Y-103329142D01*
X127695240Y-103306507D01*
X127681626Y-103286133D01*
X127664299Y-103268806D01*
X127643924Y-103255192D01*
X127621285Y-103245814D01*
X127597252Y-103241034D01*
X127572748Y-103241034D01*
X127548714Y-103245815D01*
X127526075Y-103255192D01*
X127505701Y-103268806D01*
X127488374Y-103286133D01*
X127474760Y-103306508D01*
X127465385Y-103329142D01*
X127461521Y-103341879D01*
X127410356Y-103437600D01*
X127341501Y-103521501D01*
X127257600Y-103590356D01*
X127161879Y-103641521D01*
X127058015Y-103673027D01*
X126977067Y-103681000D01*
X126922933Y-103681000D01*
X126841985Y-103673027D01*
X126738121Y-103641521D01*
X126642400Y-103590356D01*
X126558499Y-103521501D01*
X126489644Y-103437600D01*
X126438479Y-103341879D01*
X126406973Y-103238015D01*
X126396334Y-103130000D01*
X126406973Y-103021985D01*
X126438479Y-102918121D01*
X126489644Y-102822400D01*
X126558499Y-102738499D01*
X126642400Y-102669644D01*
X126738121Y-102618479D01*
X126750858Y-102614615D01*
X126773493Y-102605240D01*
X126793867Y-102591626D01*
X126811194Y-102574299D01*
X126824808Y-102553924D01*
X126834186Y-102531285D01*
X126838966Y-102507252D01*
X126838966Y-102482748D01*
X127061034Y-102482748D01*
X127061034Y-102507252D01*
X127065815Y-102531286D01*
X127075192Y-102553925D01*
X127088806Y-102574299D01*
X127106133Y-102591626D01*
X127126508Y-102605240D01*
X127149142Y-102614615D01*
X127161879Y-102618479D01*
X127257600Y-102669644D01*
X127341501Y-102738499D01*
X127410356Y-102822400D01*
X127461521Y-102918121D01*
X127465383Y-102930854D01*
X127474760Y-102953493D01*
X127488374Y-102973867D01*
X127505701Y-102991194D01*
X127526076Y-103004808D01*
X127548715Y-103014186D01*
X127572748Y-103018966D01*
X127597252Y-103018966D01*
X127621286Y-103014185D01*
X127643925Y-103004808D01*
X127664299Y-102991194D01*
X127681626Y-102973867D01*
X127695240Y-102953492D01*
X127704617Y-102930854D01*
X127708479Y-102918121D01*
X127759644Y-102822400D01*
X127828499Y-102738499D01*
X127912400Y-102669644D01*
X128008121Y-102618479D01*
X128020858Y-102614615D01*
X128043493Y-102605240D01*
X128063867Y-102591626D01*
X128081194Y-102574299D01*
X128094808Y-102553924D01*
X128104186Y-102531285D01*
X128108966Y-102507252D01*
X128108966Y-102482748D01*
X128104185Y-102458714D01*
X128094808Y-102436075D01*
X128081194Y-102415701D01*
X128063867Y-102398374D01*
X128043492Y-102384760D01*
X128020858Y-102375385D01*
X128008121Y-102371521D01*
X127912400Y-102320356D01*
X127828499Y-102251501D01*
X127759644Y-102167600D01*
X127708479Y-102071879D01*
X127704615Y-102059142D01*
X127695240Y-102036507D01*
X127681626Y-102016133D01*
X127664299Y-101998806D01*
X127643924Y-101985192D01*
X127621285Y-101975814D01*
X127597252Y-101971034D01*
X127572748Y-101971034D01*
X127548714Y-101975815D01*
X127526075Y-101985192D01*
X127505701Y-101998806D01*
X127488374Y-102016133D01*
X127474760Y-102036508D01*
X127465385Y-102059142D01*
X127461521Y-102071879D01*
X127410356Y-102167600D01*
X127341501Y-102251501D01*
X127257600Y-102320356D01*
X127161879Y-102371521D01*
X127149142Y-102375385D01*
X127126507Y-102384760D01*
X127106133Y-102398374D01*
X127088806Y-102415701D01*
X127075192Y-102436076D01*
X127065814Y-102458715D01*
X127061034Y-102482748D01*
X126838966Y-102482748D01*
X126834185Y-102458714D01*
X126824808Y-102436075D01*
X126811194Y-102415701D01*
X126793867Y-102398374D01*
X126773492Y-102384760D01*
X126750858Y-102375385D01*
X126738121Y-102371521D01*
X126642400Y-102320356D01*
X126558499Y-102251501D01*
X126489644Y-102167600D01*
X126438479Y-102071879D01*
X126406973Y-101968015D01*
X126396334Y-101860000D01*
X126406973Y-101751985D01*
X126438479Y-101648121D01*
X126489644Y-101552400D01*
X126558499Y-101468499D01*
X126642400Y-101399644D01*
X126738121Y-101348479D01*
X126750858Y-101344615D01*
X126773493Y-101335240D01*
X126793867Y-101321626D01*
X126811194Y-101304299D01*
X126824808Y-101283924D01*
X126834186Y-101261285D01*
X126838966Y-101237252D01*
X126838966Y-101212748D01*
X127061034Y-101212748D01*
X127061034Y-101237252D01*
X127065815Y-101261286D01*
X127075192Y-101283925D01*
X127088806Y-101304299D01*
X127106133Y-101321626D01*
X127126508Y-101335240D01*
X127149142Y-101344615D01*
X127161879Y-101348479D01*
X127257600Y-101399644D01*
X127341501Y-101468499D01*
X127410356Y-101552400D01*
X127461521Y-101648121D01*
X127465383Y-101660854D01*
X127474760Y-101683493D01*
X127488374Y-101703867D01*
X127505701Y-101721194D01*
X127526076Y-101734808D01*
X127548715Y-101744186D01*
X127572748Y-101748966D01*
X127597252Y-101748966D01*
X127621286Y-101744185D01*
X127643925Y-101734808D01*
X127664299Y-101721194D01*
X127681626Y-101703867D01*
X127695240Y-101683492D01*
X127704617Y-101660854D01*
X127708479Y-101648121D01*
X127759644Y-101552400D01*
X127828499Y-101468499D01*
X127912400Y-101399644D01*
X128008121Y-101348479D01*
X128020858Y-101344615D01*
X128043493Y-101335240D01*
X128063867Y-101321626D01*
X128081194Y-101304299D01*
X128094808Y-101283924D01*
X128104186Y-101261285D01*
X128108966Y-101237252D01*
X128108966Y-101212748D01*
X128104185Y-101188714D01*
X128094808Y-101166075D01*
X128081194Y-101145701D01*
X128063867Y-101128374D01*
X128043492Y-101114760D01*
X128020858Y-101105385D01*
X128008121Y-101101521D01*
X127912400Y-101050356D01*
X127828499Y-100981501D01*
X127759644Y-100897600D01*
X127708479Y-100801879D01*
X127704615Y-100789142D01*
X127695240Y-100766507D01*
X127681626Y-100746133D01*
X127664299Y-100728806D01*
X127643924Y-100715192D01*
X127621285Y-100705814D01*
X127597252Y-100701034D01*
X127572748Y-100701034D01*
X127548714Y-100705815D01*
X127526075Y-100715192D01*
X127505701Y-100728806D01*
X127488374Y-100746133D01*
X127474760Y-100766508D01*
X127465385Y-100789142D01*
X127461521Y-100801879D01*
X127410356Y-100897600D01*
X127341501Y-100981501D01*
X127257600Y-101050356D01*
X127161879Y-101101521D01*
X127149142Y-101105385D01*
X127126507Y-101114760D01*
X127106133Y-101128374D01*
X127088806Y-101145701D01*
X127075192Y-101166076D01*
X127065814Y-101188715D01*
X127061034Y-101212748D01*
X126838966Y-101212748D01*
X126834185Y-101188714D01*
X126824808Y-101166075D01*
X126811194Y-101145701D01*
X126793867Y-101128374D01*
X126773492Y-101114760D01*
X126750858Y-101105385D01*
X126738121Y-101101521D01*
X126642400Y-101050356D01*
X126558499Y-100981501D01*
X126489644Y-100897600D01*
X126438479Y-100801879D01*
X126406973Y-100698015D01*
X126396334Y-100590000D01*
X126406973Y-100481985D01*
X126438479Y-100378121D01*
X126489644Y-100282400D01*
X126558499Y-100198499D01*
X126642400Y-100129644D01*
X126738121Y-100078479D01*
X126750858Y-100074615D01*
X126773493Y-100065240D01*
X126793867Y-100051626D01*
X126811194Y-100034299D01*
X126824808Y-100013924D01*
X126834186Y-99991285D01*
X126838966Y-99967252D01*
X126838966Y-99942748D01*
X127061034Y-99942748D01*
X127061034Y-99967252D01*
X127065815Y-99991286D01*
X127075192Y-100013925D01*
X127088806Y-100034299D01*
X127106133Y-100051626D01*
X127126508Y-100065240D01*
X127149142Y-100074615D01*
X127161879Y-100078479D01*
X127257600Y-100129644D01*
X127341501Y-100198499D01*
X127410356Y-100282400D01*
X127461521Y-100378121D01*
X127465383Y-100390854D01*
X127474760Y-100413493D01*
X127488374Y-100433867D01*
X127505701Y-100451194D01*
X127526076Y-100464808D01*
X127548715Y-100474186D01*
X127572748Y-100478966D01*
X127597252Y-100478966D01*
X127621286Y-100474185D01*
X127643925Y-100464808D01*
X127664299Y-100451194D01*
X127681626Y-100433867D01*
X127695240Y-100413492D01*
X127704617Y-100390854D01*
X127708479Y-100378121D01*
X127759644Y-100282400D01*
X127828499Y-100198499D01*
X127912400Y-100129644D01*
X128008121Y-100078479D01*
X128020858Y-100074615D01*
X128043493Y-100065240D01*
X128063867Y-100051626D01*
X128081194Y-100034299D01*
X128094808Y-100013924D01*
X128104186Y-99991285D01*
X128108966Y-99967252D01*
X128108966Y-99942748D01*
X128104185Y-99918714D01*
X128094808Y-99896075D01*
X128081194Y-99875701D01*
X128063867Y-99858374D01*
X128043492Y-99844760D01*
X128020858Y-99835385D01*
X128008121Y-99831521D01*
X127912400Y-99780356D01*
X127828499Y-99711501D01*
X127759644Y-99627600D01*
X127708479Y-99531879D01*
X127704615Y-99519142D01*
X127695240Y-99496507D01*
X127681626Y-99476133D01*
X127664299Y-99458806D01*
X127643924Y-99445192D01*
X127621285Y-99435814D01*
X127597252Y-99431034D01*
X127572748Y-99431034D01*
X127548714Y-99435815D01*
X127526075Y-99445192D01*
X127505701Y-99458806D01*
X127488374Y-99476133D01*
X127474760Y-99496508D01*
X127465385Y-99519142D01*
X127461521Y-99531879D01*
X127410356Y-99627600D01*
X127341501Y-99711501D01*
X127257600Y-99780356D01*
X127161879Y-99831521D01*
X127149142Y-99835385D01*
X127126507Y-99844760D01*
X127106133Y-99858374D01*
X127088806Y-99875701D01*
X127075192Y-99896076D01*
X127065814Y-99918715D01*
X127061034Y-99942748D01*
X126838966Y-99942748D01*
X126834185Y-99918714D01*
X126824808Y-99896075D01*
X126811194Y-99875701D01*
X126793867Y-99858374D01*
X126773492Y-99844760D01*
X126750858Y-99835385D01*
X126738121Y-99831521D01*
X126642400Y-99780356D01*
X126558499Y-99711501D01*
X126489644Y-99627600D01*
X126438479Y-99531879D01*
X126406973Y-99428015D01*
X126396334Y-99320000D01*
X126406973Y-99211985D01*
X126438479Y-99108121D01*
X126489644Y-99012400D01*
X126558499Y-98928499D01*
X126642400Y-98859644D01*
X126686195Y-98836234D01*
X126706561Y-98822626D01*
X126723889Y-98805299D01*
X126737502Y-98784924D01*
X126746880Y-98762285D01*
X126751660Y-98738252D01*
X126751660Y-98726000D01*
X127147738Y-98726000D01*
X127150140Y-98750386D01*
X127157253Y-98773835D01*
X127168804Y-98795446D01*
X127184350Y-98814388D01*
X127213808Y-98836236D01*
X127257600Y-98859644D01*
X127341501Y-98928499D01*
X127410356Y-99012400D01*
X127461521Y-99108121D01*
X127462659Y-99111874D01*
X127465383Y-99120854D01*
X127474760Y-99143493D01*
X127488374Y-99163867D01*
X127505701Y-99181194D01*
X127526076Y-99194808D01*
X127548715Y-99204186D01*
X127572748Y-99208966D01*
X127597252Y-99208966D01*
X127621286Y-99204185D01*
X127643925Y-99194808D01*
X127664299Y-99181194D01*
X127681626Y-99163867D01*
X127695240Y-99143492D01*
X127704617Y-99120854D01*
X127707341Y-99111874D01*
X127708479Y-99108121D01*
X127759644Y-99012400D01*
X127828499Y-98928499D01*
X127912400Y-98859644D01*
X128008121Y-98808479D01*
X128020858Y-98804615D01*
X128043493Y-98795240D01*
X128063867Y-98781626D01*
X128081194Y-98764299D01*
X128094808Y-98743924D01*
X128104186Y-98721285D01*
X128108966Y-98697252D01*
X128108966Y-98672748D01*
X128104185Y-98648714D01*
X128094808Y-98626075D01*
X128081194Y-98605701D01*
X128063867Y-98588374D01*
X128043492Y-98574760D01*
X128020858Y-98565385D01*
X128008121Y-98561521D01*
X127912400Y-98510356D01*
X127828499Y-98441501D01*
X127759644Y-98357600D01*
X127736234Y-98313805D01*
X127722626Y-98293439D01*
X127705299Y-98276111D01*
X127684924Y-98262498D01*
X127662285Y-98253120D01*
X127638252Y-98248340D01*
X127613748Y-98248340D01*
X127589714Y-98253121D01*
X127567075Y-98262498D01*
X127546701Y-98276112D01*
X127529373Y-98293439D01*
X127515760Y-98313814D01*
X127506382Y-98336453D01*
X127501000Y-98372738D01*
X127501000Y-98601000D01*
X127272738Y-98601000D01*
X127248352Y-98603402D01*
X127224903Y-98610515D01*
X127203292Y-98622066D01*
X127184350Y-98637612D01*
X127168804Y-98656554D01*
X127157253Y-98678165D01*
X127150140Y-98701614D01*
X127147738Y-98726000D01*
X126751660Y-98726000D01*
X126751660Y-98713748D01*
X126746879Y-98689714D01*
X126737502Y-98667075D01*
X126723888Y-98646701D01*
X126706561Y-98629373D01*
X126686186Y-98615760D01*
X126663547Y-98606382D01*
X126627262Y-98601000D01*
X126399000Y-98601000D01*
X126399000Y-97499000D01*
X127501000Y-97499000D01*
X127501000Y-97727262D01*
X127501000Y-97727262D01*
G37*
G36*
X164286614Y-100851598D02*
X164311000Y-100854000D01*
X165181000Y-100854000D01*
X165181000Y-103666000D01*
X164311000Y-103666000D01*
X164286614Y-103668402D01*
X164272240Y-103672762D01*
X164276600Y-103658388D01*
X164279002Y-103634002D01*
X164279002Y-100885998D01*
X164276600Y-100861612D01*
X164272240Y-100847238D01*
X164286614Y-100851598D01*
X164286614Y-100851598D01*
G37*
G36*
X161283400Y-100861612D02*
X161280998Y-100885998D01*
X161280998Y-103634002D01*
X161283400Y-103658388D01*
X161287760Y-103672762D01*
X161273386Y-103668402D01*
X161249000Y-103666000D01*
X160379000Y-103666000D01*
X160379000Y-100854000D01*
X161249000Y-100854000D01*
X161273386Y-100851598D01*
X161287760Y-100847238D01*
X161283400Y-100861612D01*
X161283400Y-100861612D01*
G37*
G36*
X167301938Y-102891716D02*
X167322556Y-102897970D01*
X167341556Y-102908126D01*
X167358208Y-102921792D01*
X167371874Y-102938444D01*
X167382030Y-102957444D01*
X167388284Y-102978062D01*
X167391000Y-103005640D01*
X167391000Y-103514360D01*
X167388284Y-103541938D01*
X167382030Y-103562556D01*
X167371874Y-103581556D01*
X167358208Y-103598208D01*
X167341556Y-103611874D01*
X167322556Y-103622030D01*
X167301938Y-103628284D01*
X167274360Y-103631000D01*
X166815640Y-103631000D01*
X166788062Y-103628284D01*
X166767444Y-103622030D01*
X166748444Y-103611874D01*
X166731792Y-103598208D01*
X166718126Y-103581556D01*
X166707970Y-103562556D01*
X166701716Y-103541938D01*
X166699000Y-103514360D01*
X166699000Y-103005640D01*
X166701716Y-102978062D01*
X166707970Y-102957444D01*
X166718126Y-102938444D01*
X166731792Y-102921792D01*
X166748444Y-102908126D01*
X166767444Y-102897970D01*
X166788062Y-102891716D01*
X166815640Y-102889000D01*
X167274360Y-102889000D01*
X167301938Y-102891716D01*
X167301938Y-102891716D01*
G37*
G36*
X170256938Y-102891716D02*
X170277556Y-102897970D01*
X170296556Y-102908126D01*
X170313208Y-102921792D01*
X170326874Y-102938444D01*
X170337030Y-102957444D01*
X170343284Y-102978062D01*
X170346000Y-103005640D01*
X170346000Y-103514360D01*
X170343284Y-103541938D01*
X170337030Y-103562556D01*
X170326874Y-103581556D01*
X170313208Y-103598208D01*
X170296556Y-103611874D01*
X170277556Y-103622030D01*
X170256938Y-103628284D01*
X170229360Y-103631000D01*
X169770640Y-103631000D01*
X169743062Y-103628284D01*
X169722444Y-103622030D01*
X169703444Y-103611874D01*
X169686792Y-103598208D01*
X169673126Y-103581556D01*
X169662970Y-103562556D01*
X169656716Y-103541938D01*
X169654000Y-103514360D01*
X169654000Y-103005640D01*
X169656716Y-102978062D01*
X169662970Y-102957444D01*
X169673126Y-102938444D01*
X169686792Y-102921792D01*
X169703444Y-102908126D01*
X169722444Y-102897970D01*
X169743062Y-102891716D01*
X169770640Y-102889000D01*
X170229360Y-102889000D01*
X170256938Y-102891716D01*
X170256938Y-102891716D01*
G37*
G36*
X169286938Y-102891716D02*
X169307556Y-102897970D01*
X169326556Y-102908126D01*
X169343208Y-102921792D01*
X169356874Y-102938444D01*
X169367030Y-102957444D01*
X169373284Y-102978062D01*
X169376000Y-103005640D01*
X169376000Y-103514360D01*
X169373284Y-103541938D01*
X169367030Y-103562556D01*
X169356874Y-103581556D01*
X169343208Y-103598208D01*
X169326556Y-103611874D01*
X169307556Y-103622030D01*
X169286938Y-103628284D01*
X169259360Y-103631000D01*
X168800640Y-103631000D01*
X168773062Y-103628284D01*
X168752444Y-103622030D01*
X168733444Y-103611874D01*
X168716792Y-103598208D01*
X168703126Y-103581556D01*
X168692970Y-103562556D01*
X168686716Y-103541938D01*
X168684000Y-103514360D01*
X168684000Y-103005640D01*
X168686716Y-102978062D01*
X168692970Y-102957444D01*
X168703126Y-102938444D01*
X168716792Y-102921792D01*
X168733444Y-102908126D01*
X168752444Y-102897970D01*
X168773062Y-102891716D01*
X168800640Y-102889000D01*
X169259360Y-102889000D01*
X169286938Y-102891716D01*
X169286938Y-102891716D01*
G37*
G36*
X168271938Y-102891716D02*
X168292556Y-102897970D01*
X168311556Y-102908126D01*
X168328208Y-102921792D01*
X168341874Y-102938444D01*
X168352030Y-102957444D01*
X168358284Y-102978062D01*
X168361000Y-103005640D01*
X168361000Y-103514360D01*
X168358284Y-103541938D01*
X168352030Y-103562556D01*
X168341874Y-103581556D01*
X168328208Y-103598208D01*
X168311556Y-103611874D01*
X168292556Y-103622030D01*
X168271938Y-103628284D01*
X168244360Y-103631000D01*
X167785640Y-103631000D01*
X167758062Y-103628284D01*
X167737444Y-103622030D01*
X167718444Y-103611874D01*
X167701792Y-103598208D01*
X167688126Y-103581556D01*
X167677970Y-103562556D01*
X167671716Y-103541938D01*
X167669000Y-103514360D01*
X167669000Y-103005640D01*
X167671716Y-102978062D01*
X167677970Y-102957444D01*
X167688126Y-102938444D01*
X167701792Y-102921792D01*
X167718444Y-102908126D01*
X167737444Y-102897970D01*
X167758062Y-102891716D01*
X167785640Y-102889000D01*
X168244360Y-102889000D01*
X168271938Y-102891716D01*
X168271938Y-102891716D01*
G37*
G36*
X163981000Y-103461000D02*
X161579000Y-103461000D01*
X161579000Y-101059000D01*
X163981000Y-101059000D01*
X163981000Y-103461000D01*
X163981000Y-103461000D01*
G37*
G36*
X114677100Y-102664897D02*
X114740927Y-102691335D01*
X114798374Y-102729720D01*
X114847220Y-102778566D01*
X114885605Y-102836013D01*
X114912043Y-102899840D01*
X114925520Y-102967595D01*
X114925520Y-103036685D01*
X114912043Y-103104440D01*
X114885605Y-103168267D01*
X114847220Y-103225714D01*
X114798374Y-103274560D01*
X114740927Y-103312945D01*
X114677100Y-103339383D01*
X114609345Y-103352860D01*
X114540255Y-103352860D01*
X114472500Y-103339383D01*
X114408673Y-103312945D01*
X114351226Y-103274560D01*
X114302380Y-103225714D01*
X114263995Y-103168267D01*
X114237557Y-103104440D01*
X114224080Y-103036685D01*
X114224080Y-102967595D01*
X114237557Y-102899840D01*
X114263995Y-102836013D01*
X114302380Y-102778566D01*
X114351226Y-102729720D01*
X114408673Y-102691335D01*
X114472500Y-102664897D01*
X114540255Y-102651420D01*
X114609345Y-102651420D01*
X114677100Y-102664897D01*
X114677100Y-102664897D01*
G37*
G36*
X119175440Y-102664897D02*
X119239267Y-102691335D01*
X119296714Y-102729720D01*
X119345560Y-102778566D01*
X119383945Y-102836013D01*
X119410383Y-102899840D01*
X119423860Y-102967595D01*
X119423860Y-103036685D01*
X119410383Y-103104440D01*
X119383945Y-103168267D01*
X119345560Y-103225714D01*
X119296714Y-103274560D01*
X119239267Y-103312945D01*
X119175440Y-103339383D01*
X119107685Y-103352860D01*
X119038595Y-103352860D01*
X118970840Y-103339383D01*
X118907013Y-103312945D01*
X118849566Y-103274560D01*
X118800720Y-103225714D01*
X118762335Y-103168267D01*
X118735897Y-103104440D01*
X118722420Y-103036685D01*
X118722420Y-102967595D01*
X118735897Y-102899840D01*
X118762335Y-102836013D01*
X118800720Y-102778566D01*
X118849566Y-102729720D01*
X118907013Y-102691335D01*
X118970840Y-102664897D01*
X119038595Y-102651420D01*
X119107685Y-102651420D01*
X119175440Y-102664897D01*
X119175440Y-102664897D01*
G37*
G36*
X117676840Y-102664897D02*
X117740667Y-102691335D01*
X117798114Y-102729720D01*
X117846960Y-102778566D01*
X117885345Y-102836013D01*
X117911783Y-102899840D01*
X117925260Y-102967595D01*
X117925260Y-103036685D01*
X117911783Y-103104440D01*
X117885345Y-103168267D01*
X117846960Y-103225714D01*
X117798114Y-103274560D01*
X117740667Y-103312945D01*
X117676840Y-103339383D01*
X117609085Y-103352860D01*
X117539995Y-103352860D01*
X117472240Y-103339383D01*
X117408413Y-103312945D01*
X117350966Y-103274560D01*
X117302120Y-103225714D01*
X117263735Y-103168267D01*
X117237297Y-103104440D01*
X117223820Y-103036685D01*
X117223820Y-102967595D01*
X117237297Y-102899840D01*
X117263735Y-102836013D01*
X117302120Y-102778566D01*
X117350966Y-102729720D01*
X117408413Y-102691335D01*
X117472240Y-102664897D01*
X117539995Y-102651420D01*
X117609085Y-102651420D01*
X117676840Y-102664897D01*
X117676840Y-102664897D01*
G37*
G36*
X116175700Y-102664897D02*
X116239527Y-102691335D01*
X116296974Y-102729720D01*
X116345820Y-102778566D01*
X116384205Y-102836013D01*
X116410643Y-102899840D01*
X116424120Y-102967595D01*
X116424120Y-103036685D01*
X116410643Y-103104440D01*
X116384205Y-103168267D01*
X116345820Y-103225714D01*
X116296974Y-103274560D01*
X116239527Y-103312945D01*
X116175700Y-103339383D01*
X116107945Y-103352860D01*
X116038855Y-103352860D01*
X115971100Y-103339383D01*
X115907273Y-103312945D01*
X115849826Y-103274560D01*
X115800980Y-103225714D01*
X115762595Y-103168267D01*
X115736157Y-103104440D01*
X115722680Y-103036685D01*
X115722680Y-102967595D01*
X115736157Y-102899840D01*
X115762595Y-102836013D01*
X115800980Y-102778566D01*
X115849826Y-102729720D01*
X115907273Y-102691335D01*
X115971100Y-102664897D01*
X116038855Y-102651420D01*
X116107945Y-102651420D01*
X116175700Y-102664897D01*
X116175700Y-102664897D01*
G37*
G36*
X110625300Y-103300790D02*
X109024700Y-103300790D01*
X109024700Y-102500290D01*
X110625300Y-102500290D01*
X110625300Y-103300790D01*
X110625300Y-103300790D01*
G37*
G36*
X124623240Y-103300790D02*
X123022640Y-103300790D01*
X123022640Y-102500290D01*
X124623240Y-102500290D01*
X124623240Y-103300790D01*
X124623240Y-103300790D01*
G37*
G36*
X153731000Y-103261000D02*
X152629000Y-103261000D01*
X152629000Y-102159000D01*
X153731000Y-102159000D01*
X153731000Y-103261000D01*
X153731000Y-103261000D01*
G37*
G36*
X168551938Y-101891716D02*
X168572556Y-101897970D01*
X168591556Y-101908126D01*
X168608208Y-101921792D01*
X168621874Y-101938444D01*
X168632030Y-101957444D01*
X168638284Y-101978062D01*
X168641000Y-102005640D01*
X168641000Y-102514360D01*
X168638284Y-102541938D01*
X168632030Y-102562556D01*
X168621874Y-102581556D01*
X168608208Y-102598208D01*
X168591556Y-102611874D01*
X168572556Y-102622030D01*
X168551938Y-102628284D01*
X168524360Y-102631000D01*
X168065640Y-102631000D01*
X168038062Y-102628284D01*
X168017444Y-102622030D01*
X167998444Y-102611874D01*
X167981792Y-102598208D01*
X167968126Y-102581556D01*
X167957970Y-102562556D01*
X167951716Y-102541938D01*
X167949000Y-102514360D01*
X167949000Y-102005640D01*
X167951716Y-101978062D01*
X167957970Y-101957444D01*
X167968126Y-101938444D01*
X167981792Y-101921792D01*
X167998444Y-101908126D01*
X168017444Y-101897970D01*
X168038062Y-101891716D01*
X168065640Y-101889000D01*
X168524360Y-101889000D01*
X168551938Y-101891716D01*
X168551938Y-101891716D01*
G37*
G36*
X169521938Y-101891716D02*
X169542556Y-101897970D01*
X169561556Y-101908126D01*
X169578208Y-101921792D01*
X169591874Y-101938444D01*
X169602030Y-101957444D01*
X169608284Y-101978062D01*
X169611000Y-102005640D01*
X169611000Y-102514360D01*
X169608284Y-102541938D01*
X169602030Y-102562556D01*
X169591874Y-102581556D01*
X169578208Y-102598208D01*
X169561556Y-102611874D01*
X169542556Y-102622030D01*
X169521938Y-102628284D01*
X169494360Y-102631000D01*
X169035640Y-102631000D01*
X169008062Y-102628284D01*
X168987444Y-102622030D01*
X168968444Y-102611874D01*
X168951792Y-102598208D01*
X168938126Y-102581556D01*
X168927970Y-102562556D01*
X168921716Y-102541938D01*
X168919000Y-102514360D01*
X168919000Y-102005640D01*
X168921716Y-101978062D01*
X168927970Y-101957444D01*
X168938126Y-101938444D01*
X168951792Y-101921792D01*
X168968444Y-101908126D01*
X168987444Y-101897970D01*
X169008062Y-101891716D01*
X169035640Y-101889000D01*
X169494360Y-101889000D01*
X169521938Y-101891716D01*
X169521938Y-101891716D01*
G37*
G36*
X159786938Y-101641716D02*
X159807556Y-101647970D01*
X159826556Y-101658126D01*
X159843208Y-101671792D01*
X159856874Y-101688444D01*
X159867030Y-101707444D01*
X159873284Y-101728062D01*
X159876000Y-101755640D01*
X159876000Y-102264360D01*
X159873284Y-102291938D01*
X159867030Y-102312556D01*
X159856874Y-102331556D01*
X159843208Y-102348208D01*
X159826556Y-102361874D01*
X159807556Y-102372030D01*
X159786938Y-102378284D01*
X159759360Y-102381000D01*
X159300640Y-102381000D01*
X159273062Y-102378284D01*
X159252444Y-102372030D01*
X159233444Y-102361874D01*
X159216792Y-102348208D01*
X159203126Y-102331556D01*
X159192970Y-102312556D01*
X159186716Y-102291938D01*
X159184000Y-102264360D01*
X159184000Y-101755640D01*
X159186716Y-101728062D01*
X159192970Y-101707444D01*
X159203126Y-101688444D01*
X159216792Y-101671792D01*
X159233444Y-101658126D01*
X159252444Y-101647970D01*
X159273062Y-101641716D01*
X159300640Y-101639000D01*
X159759360Y-101639000D01*
X159786938Y-101641716D01*
X159786938Y-101641716D01*
G37*
G36*
X158816938Y-101641716D02*
X158837556Y-101647970D01*
X158856556Y-101658126D01*
X158873208Y-101671792D01*
X158886874Y-101688444D01*
X158897030Y-101707444D01*
X158903284Y-101728062D01*
X158906000Y-101755640D01*
X158906000Y-102264360D01*
X158903284Y-102291938D01*
X158897030Y-102312556D01*
X158886874Y-102331556D01*
X158873208Y-102348208D01*
X158856556Y-102361874D01*
X158837556Y-102372030D01*
X158816938Y-102378284D01*
X158789360Y-102381000D01*
X158330640Y-102381000D01*
X158303062Y-102378284D01*
X158282444Y-102372030D01*
X158263444Y-102361874D01*
X158246792Y-102348208D01*
X158233126Y-102331556D01*
X158222970Y-102312556D01*
X158216716Y-102291938D01*
X158214000Y-102264360D01*
X158214000Y-101755640D01*
X158216716Y-101728062D01*
X158222970Y-101707444D01*
X158233126Y-101688444D01*
X158246792Y-101671792D01*
X158263444Y-101658126D01*
X158282444Y-101647970D01*
X158303062Y-101641716D01*
X158330640Y-101639000D01*
X158789360Y-101639000D01*
X158816938Y-101641716D01*
X158816938Y-101641716D01*
G37*
G36*
X110625300Y-102200970D02*
X109024700Y-102200970D01*
X109024700Y-101400470D01*
X110625300Y-101400470D01*
X110625300Y-102200970D01*
X110625300Y-102200970D01*
G37*
G36*
X124623240Y-102200970D02*
X123022640Y-102200970D01*
X123022640Y-101400470D01*
X124623240Y-101400470D01*
X124623240Y-102200970D01*
X124623240Y-102200970D01*
G37*
G36*
X119175440Y-101463477D02*
X119239267Y-101489915D01*
X119296714Y-101528300D01*
X119345560Y-101577146D01*
X119383945Y-101634593D01*
X119410383Y-101698420D01*
X119423860Y-101766175D01*
X119423860Y-101835265D01*
X119410383Y-101903020D01*
X119383945Y-101966847D01*
X119345560Y-102024294D01*
X119296714Y-102073140D01*
X119239267Y-102111525D01*
X119175440Y-102137963D01*
X119107685Y-102151440D01*
X119038595Y-102151440D01*
X118970840Y-102137963D01*
X118907013Y-102111525D01*
X118849566Y-102073140D01*
X118800720Y-102024294D01*
X118762335Y-101966847D01*
X118735897Y-101903020D01*
X118722420Y-101835265D01*
X118722420Y-101766175D01*
X118735897Y-101698420D01*
X118762335Y-101634593D01*
X118800720Y-101577146D01*
X118849566Y-101528300D01*
X118907013Y-101489915D01*
X118970840Y-101463477D01*
X119038595Y-101450000D01*
X119107685Y-101450000D01*
X119175440Y-101463477D01*
X119175440Y-101463477D01*
G37*
G36*
X117676840Y-101463477D02*
X117740667Y-101489915D01*
X117798114Y-101528300D01*
X117846960Y-101577146D01*
X117885345Y-101634593D01*
X117911783Y-101698420D01*
X117925260Y-101766175D01*
X117925260Y-101835265D01*
X117911783Y-101903020D01*
X117885345Y-101966847D01*
X117846960Y-102024294D01*
X117798114Y-102073140D01*
X117740667Y-102111525D01*
X117676840Y-102137963D01*
X117609085Y-102151440D01*
X117539995Y-102151440D01*
X117472240Y-102137963D01*
X117408413Y-102111525D01*
X117350966Y-102073140D01*
X117302120Y-102024294D01*
X117263735Y-101966847D01*
X117237297Y-101903020D01*
X117223820Y-101835265D01*
X117223820Y-101766175D01*
X117237297Y-101698420D01*
X117263735Y-101634593D01*
X117302120Y-101577146D01*
X117350966Y-101528300D01*
X117408413Y-101489915D01*
X117472240Y-101463477D01*
X117539995Y-101450000D01*
X117609085Y-101450000D01*
X117676840Y-101463477D01*
X117676840Y-101463477D01*
G37*
G36*
X116175700Y-101463477D02*
X116239527Y-101489915D01*
X116296974Y-101528300D01*
X116345820Y-101577146D01*
X116384205Y-101634593D01*
X116410643Y-101698420D01*
X116424120Y-101766175D01*
X116424120Y-101835265D01*
X116410643Y-101903020D01*
X116384205Y-101966847D01*
X116345820Y-102024294D01*
X116296974Y-102073140D01*
X116239527Y-102111525D01*
X116175700Y-102137963D01*
X116107945Y-102151440D01*
X116038855Y-102151440D01*
X115971100Y-102137963D01*
X115907273Y-102111525D01*
X115849826Y-102073140D01*
X115800980Y-102024294D01*
X115762595Y-101966847D01*
X115736157Y-101903020D01*
X115722680Y-101835265D01*
X115722680Y-101766175D01*
X115736157Y-101698420D01*
X115762595Y-101634593D01*
X115800980Y-101577146D01*
X115849826Y-101528300D01*
X115907273Y-101489915D01*
X115971100Y-101463477D01*
X116038855Y-101450000D01*
X116107945Y-101450000D01*
X116175700Y-101463477D01*
X116175700Y-101463477D01*
G37*
G36*
X114677100Y-101463477D02*
X114740927Y-101489915D01*
X114798374Y-101528300D01*
X114847220Y-101577146D01*
X114885605Y-101634593D01*
X114912043Y-101698420D01*
X114925520Y-101766175D01*
X114925520Y-101835265D01*
X114912043Y-101903020D01*
X114885605Y-101966847D01*
X114847220Y-102024294D01*
X114798374Y-102073140D01*
X114740927Y-102111525D01*
X114677100Y-102137963D01*
X114609345Y-102151440D01*
X114540255Y-102151440D01*
X114472500Y-102137963D01*
X114408673Y-102111525D01*
X114351226Y-102073140D01*
X114302380Y-102024294D01*
X114263995Y-101966847D01*
X114237557Y-101903020D01*
X114224080Y-101835265D01*
X114224080Y-101766175D01*
X114237557Y-101698420D01*
X114263995Y-101634593D01*
X114302380Y-101577146D01*
X114351226Y-101528300D01*
X114408673Y-101489915D01*
X114472500Y-101463477D01*
X114540255Y-101450000D01*
X114609345Y-101450000D01*
X114677100Y-101463477D01*
X114677100Y-101463477D01*
G37*
G36*
X153731000Y-101861000D02*
X152629000Y-101861000D01*
X152629000Y-100759000D01*
X153731000Y-100759000D01*
X153731000Y-101861000D01*
X153731000Y-101861000D01*
G37*
G36*
X168271938Y-100891716D02*
X168292556Y-100897970D01*
X168311556Y-100908126D01*
X168328208Y-100921792D01*
X168341874Y-100938444D01*
X168352030Y-100957444D01*
X168358284Y-100978062D01*
X168361000Y-101005640D01*
X168361000Y-101514360D01*
X168358284Y-101541938D01*
X168352030Y-101562556D01*
X168341874Y-101581556D01*
X168328208Y-101598208D01*
X168311556Y-101611874D01*
X168292556Y-101622030D01*
X168271938Y-101628284D01*
X168244360Y-101631000D01*
X167785640Y-101631000D01*
X167758062Y-101628284D01*
X167737444Y-101622030D01*
X167718444Y-101611874D01*
X167701792Y-101598208D01*
X167688126Y-101581556D01*
X167677970Y-101562556D01*
X167671716Y-101541938D01*
X167669000Y-101514360D01*
X167669000Y-101005640D01*
X167671716Y-100978062D01*
X167677970Y-100957444D01*
X167688126Y-100938444D01*
X167701792Y-100921792D01*
X167718444Y-100908126D01*
X167737444Y-100897970D01*
X167758062Y-100891716D01*
X167785640Y-100889000D01*
X168244360Y-100889000D01*
X168271938Y-100891716D01*
X168271938Y-100891716D01*
G37*
G36*
X167301938Y-100891716D02*
X167322556Y-100897970D01*
X167341556Y-100908126D01*
X167358208Y-100921792D01*
X167371874Y-100938444D01*
X167382030Y-100957444D01*
X167388284Y-100978062D01*
X167391000Y-101005640D01*
X167391000Y-101514360D01*
X167388284Y-101541938D01*
X167382030Y-101562556D01*
X167371874Y-101581556D01*
X167358208Y-101598208D01*
X167341556Y-101611874D01*
X167322556Y-101622030D01*
X167301938Y-101628284D01*
X167274360Y-101631000D01*
X166815640Y-101631000D01*
X166788062Y-101628284D01*
X166767444Y-101622030D01*
X166748444Y-101611874D01*
X166731792Y-101598208D01*
X166718126Y-101581556D01*
X166707970Y-101562556D01*
X166701716Y-101541938D01*
X166699000Y-101514360D01*
X166699000Y-101005640D01*
X166701716Y-100978062D01*
X166707970Y-100957444D01*
X166718126Y-100938444D01*
X166731792Y-100921792D01*
X166748444Y-100908126D01*
X166767444Y-100897970D01*
X166788062Y-100891716D01*
X166815640Y-100889000D01*
X167274360Y-100889000D01*
X167301938Y-100891716D01*
X167301938Y-100891716D01*
G37*
G36*
X169561938Y-100901716D02*
X169582556Y-100907970D01*
X169601556Y-100918126D01*
X169618208Y-100931792D01*
X169631874Y-100948444D01*
X169642030Y-100967444D01*
X169648284Y-100988062D01*
X169651000Y-101015640D01*
X169651000Y-101474360D01*
X169648284Y-101501938D01*
X169642030Y-101522556D01*
X169631874Y-101541556D01*
X169618208Y-101558208D01*
X169601556Y-101571874D01*
X169582556Y-101582030D01*
X169561938Y-101588284D01*
X169534360Y-101591000D01*
X169025640Y-101591000D01*
X168998062Y-101588284D01*
X168977444Y-101582030D01*
X168958444Y-101571874D01*
X168941792Y-101558208D01*
X168928126Y-101541556D01*
X168917970Y-101522556D01*
X168911716Y-101501938D01*
X168909000Y-101474360D01*
X168909000Y-101015640D01*
X168911716Y-100988062D01*
X168917970Y-100967444D01*
X168928126Y-100948444D01*
X168941792Y-100931792D01*
X168958444Y-100918126D01*
X168977444Y-100907970D01*
X168998062Y-100901716D01*
X169025640Y-100899000D01*
X169534360Y-100899000D01*
X169561938Y-100901716D01*
X169561938Y-100901716D01*
G37*
G36*
X159614466Y-100163565D02*
X159653137Y-100175296D01*
X159688779Y-100194348D01*
X159720017Y-100219983D01*
X159745652Y-100251221D01*
X159764704Y-100286863D01*
X159776435Y-100325534D01*
X159781000Y-100371888D01*
X159781000Y-101023112D01*
X159776435Y-101069466D01*
X159764704Y-101108137D01*
X159745652Y-101143779D01*
X159720017Y-101175017D01*
X159688779Y-101200652D01*
X159653137Y-101219704D01*
X159614466Y-101231435D01*
X159568112Y-101236000D01*
X158491888Y-101236000D01*
X158445534Y-101231435D01*
X158406863Y-101219704D01*
X158371221Y-101200652D01*
X158339983Y-101175017D01*
X158314348Y-101143779D01*
X158295296Y-101108137D01*
X158283565Y-101069466D01*
X158279000Y-101023112D01*
X158279000Y-100371888D01*
X158283565Y-100325534D01*
X158295296Y-100286863D01*
X158314348Y-100251221D01*
X158339983Y-100219983D01*
X158371221Y-100194348D01*
X158406863Y-100175296D01*
X158445534Y-100163565D01*
X158491888Y-100159000D01*
X159568112Y-100159000D01*
X159614466Y-100163565D01*
X159614466Y-100163565D01*
G37*
G36*
X110625300Y-101101150D02*
X109024700Y-101101150D01*
X109024700Y-100300650D01*
X110625300Y-100300650D01*
X110625300Y-101101150D01*
X110625300Y-101101150D01*
G37*
G36*
X124623240Y-101101150D02*
X123022640Y-101101150D01*
X123022640Y-100300650D01*
X124623240Y-100300650D01*
X124623240Y-101101150D01*
X124623240Y-101101150D01*
G37*
G36*
X117676840Y-100264597D02*
X117740667Y-100291035D01*
X117798114Y-100329420D01*
X117846960Y-100378266D01*
X117885345Y-100435713D01*
X117911783Y-100499540D01*
X117925260Y-100567295D01*
X117925260Y-100636385D01*
X117911783Y-100704140D01*
X117885345Y-100767967D01*
X117846960Y-100825414D01*
X117798114Y-100874260D01*
X117740667Y-100912645D01*
X117676840Y-100939083D01*
X117609085Y-100952560D01*
X117539995Y-100952560D01*
X117472240Y-100939083D01*
X117408413Y-100912645D01*
X117350966Y-100874260D01*
X117302120Y-100825414D01*
X117263735Y-100767967D01*
X117237297Y-100704140D01*
X117223820Y-100636385D01*
X117223820Y-100567295D01*
X117237297Y-100499540D01*
X117263735Y-100435713D01*
X117302120Y-100378266D01*
X117350966Y-100329420D01*
X117408413Y-100291035D01*
X117472240Y-100264597D01*
X117539995Y-100251120D01*
X117609085Y-100251120D01*
X117676840Y-100264597D01*
X117676840Y-100264597D01*
G37*
G36*
X119175440Y-100264597D02*
X119239267Y-100291035D01*
X119296714Y-100329420D01*
X119345560Y-100378266D01*
X119383945Y-100435713D01*
X119410383Y-100499540D01*
X119423860Y-100567295D01*
X119423860Y-100636385D01*
X119410383Y-100704140D01*
X119383945Y-100767967D01*
X119345560Y-100825414D01*
X119296714Y-100874260D01*
X119239267Y-100912645D01*
X119175440Y-100939083D01*
X119107685Y-100952560D01*
X119038595Y-100952560D01*
X118970840Y-100939083D01*
X118907013Y-100912645D01*
X118849566Y-100874260D01*
X118800720Y-100825414D01*
X118762335Y-100767967D01*
X118735897Y-100704140D01*
X118722420Y-100636385D01*
X118722420Y-100567295D01*
X118735897Y-100499540D01*
X118762335Y-100435713D01*
X118800720Y-100378266D01*
X118849566Y-100329420D01*
X118907013Y-100291035D01*
X118970840Y-100264597D01*
X119038595Y-100251120D01*
X119107685Y-100251120D01*
X119175440Y-100264597D01*
X119175440Y-100264597D01*
G37*
G36*
X114677100Y-100264597D02*
X114740927Y-100291035D01*
X114798374Y-100329420D01*
X114847220Y-100378266D01*
X114885605Y-100435713D01*
X114912043Y-100499540D01*
X114925520Y-100567295D01*
X114925520Y-100636385D01*
X114912043Y-100704140D01*
X114885605Y-100767967D01*
X114847220Y-100825414D01*
X114798374Y-100874260D01*
X114740927Y-100912645D01*
X114677100Y-100939083D01*
X114609345Y-100952560D01*
X114540255Y-100952560D01*
X114472500Y-100939083D01*
X114408673Y-100912645D01*
X114351226Y-100874260D01*
X114302380Y-100825414D01*
X114263995Y-100767967D01*
X114237557Y-100704140D01*
X114224080Y-100636385D01*
X114224080Y-100567295D01*
X114237557Y-100499540D01*
X114263995Y-100435713D01*
X114302380Y-100378266D01*
X114351226Y-100329420D01*
X114408673Y-100291035D01*
X114472500Y-100264597D01*
X114540255Y-100251120D01*
X114609345Y-100251120D01*
X114677100Y-100264597D01*
X114677100Y-100264597D01*
G37*
G36*
X116175700Y-100264597D02*
X116239527Y-100291035D01*
X116296974Y-100329420D01*
X116345820Y-100378266D01*
X116384205Y-100435713D01*
X116410643Y-100499540D01*
X116424120Y-100567295D01*
X116424120Y-100636385D01*
X116410643Y-100704140D01*
X116384205Y-100767967D01*
X116345820Y-100825414D01*
X116296974Y-100874260D01*
X116239527Y-100912645D01*
X116175700Y-100939083D01*
X116107945Y-100952560D01*
X116038855Y-100952560D01*
X115971100Y-100939083D01*
X115907273Y-100912645D01*
X115849826Y-100874260D01*
X115800980Y-100825414D01*
X115762595Y-100767967D01*
X115736157Y-100704140D01*
X115722680Y-100636385D01*
X115722680Y-100567295D01*
X115736157Y-100499540D01*
X115762595Y-100435713D01*
X115800980Y-100378266D01*
X115849826Y-100329420D01*
X115907273Y-100291035D01*
X115971100Y-100264597D01*
X116038855Y-100251120D01*
X116107945Y-100251120D01*
X116175700Y-100264597D01*
X116175700Y-100264597D01*
G37*
G36*
X164186000Y-100729000D02*
X164188402Y-100753386D01*
X164192762Y-100767760D01*
X164178388Y-100763400D01*
X164154002Y-100760998D01*
X161405998Y-100760998D01*
X161381612Y-100763400D01*
X161367238Y-100767760D01*
X161371598Y-100753386D01*
X161374000Y-100729000D01*
X161374000Y-99859000D01*
X164186000Y-99859000D01*
X164186000Y-100729000D01*
X164186000Y-100729000D01*
G37*
G36*
X167301938Y-99891716D02*
X167322556Y-99897970D01*
X167341556Y-99908126D01*
X167358208Y-99921792D01*
X167371874Y-99938444D01*
X167382030Y-99957444D01*
X167388284Y-99978062D01*
X167391000Y-100005640D01*
X167391000Y-100514360D01*
X167388284Y-100541938D01*
X167382030Y-100562556D01*
X167371874Y-100581556D01*
X167358208Y-100598208D01*
X167341556Y-100611874D01*
X167322556Y-100622030D01*
X167301938Y-100628284D01*
X167274360Y-100631000D01*
X166815640Y-100631000D01*
X166788062Y-100628284D01*
X166767444Y-100622030D01*
X166748444Y-100611874D01*
X166731792Y-100598208D01*
X166718126Y-100581556D01*
X166707970Y-100562556D01*
X166701716Y-100541938D01*
X166699000Y-100514360D01*
X166699000Y-100005640D01*
X166701716Y-99978062D01*
X166707970Y-99957444D01*
X166718126Y-99938444D01*
X166731792Y-99921792D01*
X166748444Y-99908126D01*
X166767444Y-99897970D01*
X166788062Y-99891716D01*
X166815640Y-99889000D01*
X167274360Y-99889000D01*
X167301938Y-99891716D01*
X167301938Y-99891716D01*
G37*
G36*
X168271938Y-99891716D02*
X168292556Y-99897970D01*
X168311556Y-99908126D01*
X168328208Y-99921792D01*
X168341874Y-99938444D01*
X168352030Y-99957444D01*
X168358284Y-99978062D01*
X168361000Y-100005640D01*
X168361000Y-100514360D01*
X168358284Y-100541938D01*
X168352030Y-100562556D01*
X168341874Y-100581556D01*
X168328208Y-100598208D01*
X168311556Y-100611874D01*
X168292556Y-100622030D01*
X168271938Y-100628284D01*
X168244360Y-100631000D01*
X167785640Y-100631000D01*
X167758062Y-100628284D01*
X167737444Y-100622030D01*
X167718444Y-100611874D01*
X167701792Y-100598208D01*
X167688126Y-100581556D01*
X167677970Y-100562556D01*
X167671716Y-100541938D01*
X167669000Y-100514360D01*
X167669000Y-100005640D01*
X167671716Y-99978062D01*
X167677970Y-99957444D01*
X167688126Y-99938444D01*
X167701792Y-99921792D01*
X167718444Y-99908126D01*
X167737444Y-99897970D01*
X167758062Y-99891716D01*
X167785640Y-99889000D01*
X168244360Y-99889000D01*
X168271938Y-99891716D01*
X168271938Y-99891716D01*
G37*
G36*
X169561938Y-99931716D02*
X169582556Y-99937970D01*
X169601556Y-99948126D01*
X169618208Y-99961792D01*
X169631874Y-99978444D01*
X169642030Y-99997444D01*
X169648284Y-100018062D01*
X169651000Y-100045640D01*
X169651000Y-100504360D01*
X169648284Y-100531938D01*
X169642030Y-100552556D01*
X169631874Y-100571556D01*
X169618208Y-100588208D01*
X169601556Y-100601874D01*
X169582556Y-100612030D01*
X169561938Y-100618284D01*
X169534360Y-100621000D01*
X169025640Y-100621000D01*
X168998062Y-100618284D01*
X168977444Y-100612030D01*
X168958444Y-100601874D01*
X168941792Y-100588208D01*
X168928126Y-100571556D01*
X168917970Y-100552556D01*
X168911716Y-100531938D01*
X168909000Y-100504360D01*
X168909000Y-100045640D01*
X168911716Y-100018062D01*
X168917970Y-99997444D01*
X168928126Y-99978444D01*
X168941792Y-99961792D01*
X168958444Y-99948126D01*
X168977444Y-99937970D01*
X168998062Y-99931716D01*
X169025640Y-99929000D01*
X169534360Y-99929000D01*
X169561938Y-99931716D01*
X169561938Y-99931716D01*
G37*
G36*
X153731000Y-100461000D02*
X152629000Y-100461000D01*
X152629000Y-99359000D01*
X153731000Y-99359000D01*
X153731000Y-100461000D01*
X153731000Y-100461000D01*
G37*
G36*
X124623240Y-100001330D02*
X123022640Y-100001330D01*
X123022640Y-99200830D01*
X124623240Y-99200830D01*
X124623240Y-100001330D01*
X124623240Y-100001330D01*
G37*
G36*
X110625300Y-100001330D02*
X109024700Y-100001330D01*
X109024700Y-99200830D01*
X110625300Y-99200830D01*
X110625300Y-100001330D01*
X110625300Y-100001330D01*
G37*
G36*
X117676840Y-99063177D02*
X117740667Y-99089615D01*
X117798114Y-99128000D01*
X117846960Y-99176846D01*
X117885345Y-99234293D01*
X117911783Y-99298120D01*
X117925260Y-99365875D01*
X117925260Y-99434965D01*
X117911783Y-99502720D01*
X117885345Y-99566547D01*
X117846960Y-99623994D01*
X117798114Y-99672840D01*
X117740667Y-99711225D01*
X117676840Y-99737663D01*
X117609085Y-99751140D01*
X117539995Y-99751140D01*
X117472240Y-99737663D01*
X117408413Y-99711225D01*
X117350966Y-99672840D01*
X117302120Y-99623994D01*
X117263735Y-99566547D01*
X117237297Y-99502720D01*
X117223820Y-99434965D01*
X117223820Y-99365875D01*
X117237297Y-99298120D01*
X117263735Y-99234293D01*
X117302120Y-99176846D01*
X117350966Y-99128000D01*
X117408413Y-99089615D01*
X117472240Y-99063177D01*
X117539995Y-99049700D01*
X117609085Y-99049700D01*
X117676840Y-99063177D01*
X117676840Y-99063177D01*
G37*
G36*
X114677100Y-99063177D02*
X114740927Y-99089615D01*
X114798374Y-99128000D01*
X114847220Y-99176846D01*
X114885605Y-99234293D01*
X114912043Y-99298120D01*
X114925520Y-99365875D01*
X114925520Y-99434965D01*
X114912043Y-99502720D01*
X114885605Y-99566547D01*
X114847220Y-99623994D01*
X114798374Y-99672840D01*
X114740927Y-99711225D01*
X114677100Y-99737663D01*
X114609345Y-99751140D01*
X114540255Y-99751140D01*
X114472500Y-99737663D01*
X114408673Y-99711225D01*
X114351226Y-99672840D01*
X114302380Y-99623994D01*
X114263995Y-99566547D01*
X114237557Y-99502720D01*
X114224080Y-99434965D01*
X114224080Y-99365875D01*
X114237557Y-99298120D01*
X114263995Y-99234293D01*
X114302380Y-99176846D01*
X114351226Y-99128000D01*
X114408673Y-99089615D01*
X114472500Y-99063177D01*
X114540255Y-99049700D01*
X114609345Y-99049700D01*
X114677100Y-99063177D01*
X114677100Y-99063177D01*
G37*
G36*
X119175440Y-99063177D02*
X119239267Y-99089615D01*
X119296714Y-99128000D01*
X119345560Y-99176846D01*
X119383945Y-99234293D01*
X119410383Y-99298120D01*
X119423860Y-99365875D01*
X119423860Y-99434965D01*
X119410383Y-99502720D01*
X119383945Y-99566547D01*
X119345560Y-99623994D01*
X119296714Y-99672840D01*
X119239267Y-99711225D01*
X119175440Y-99737663D01*
X119107685Y-99751140D01*
X119038595Y-99751140D01*
X118970840Y-99737663D01*
X118907013Y-99711225D01*
X118849566Y-99672840D01*
X118800720Y-99623994D01*
X118762335Y-99566547D01*
X118735897Y-99502720D01*
X118722420Y-99434965D01*
X118722420Y-99365875D01*
X118735897Y-99298120D01*
X118762335Y-99234293D01*
X118800720Y-99176846D01*
X118849566Y-99128000D01*
X118907013Y-99089615D01*
X118970840Y-99063177D01*
X119038595Y-99049700D01*
X119107685Y-99049700D01*
X119175440Y-99063177D01*
X119175440Y-99063177D01*
G37*
G36*
X116175700Y-99063177D02*
X116239527Y-99089615D01*
X116296974Y-99128000D01*
X116345820Y-99176846D01*
X116384205Y-99234293D01*
X116410643Y-99298120D01*
X116424120Y-99365875D01*
X116424120Y-99434965D01*
X116410643Y-99502720D01*
X116384205Y-99566547D01*
X116345820Y-99623994D01*
X116296974Y-99672840D01*
X116239527Y-99711225D01*
X116175700Y-99737663D01*
X116107945Y-99751140D01*
X116038855Y-99751140D01*
X115971100Y-99737663D01*
X115907273Y-99711225D01*
X115849826Y-99672840D01*
X115800980Y-99623994D01*
X115762595Y-99566547D01*
X115736157Y-99502720D01*
X115722680Y-99434965D01*
X115722680Y-99365875D01*
X115736157Y-99298120D01*
X115762595Y-99234293D01*
X115800980Y-99176846D01*
X115849826Y-99128000D01*
X115907273Y-99089615D01*
X115971100Y-99063177D01*
X116038855Y-99049700D01*
X116107945Y-99049700D01*
X116175700Y-99063177D01*
X116175700Y-99063177D01*
G37*
G36*
X170271938Y-98891716D02*
X170292556Y-98897970D01*
X170311556Y-98908126D01*
X170328208Y-98921792D01*
X170341874Y-98938444D01*
X170352030Y-98957444D01*
X170358284Y-98978062D01*
X170361000Y-99005640D01*
X170361000Y-99514360D01*
X170358284Y-99541938D01*
X170352030Y-99562556D01*
X170341874Y-99581556D01*
X170328208Y-99598208D01*
X170311556Y-99611874D01*
X170292556Y-99622030D01*
X170271938Y-99628284D01*
X170244360Y-99631000D01*
X169785640Y-99631000D01*
X169758062Y-99628284D01*
X169737444Y-99622030D01*
X169718444Y-99611874D01*
X169701792Y-99598208D01*
X169688126Y-99581556D01*
X169677970Y-99562556D01*
X169671716Y-99541938D01*
X169669000Y-99514360D01*
X169669000Y-99005640D01*
X169671716Y-98978062D01*
X169677970Y-98957444D01*
X169688126Y-98938444D01*
X169701792Y-98921792D01*
X169718444Y-98908126D01*
X169737444Y-98897970D01*
X169758062Y-98891716D01*
X169785640Y-98889000D01*
X170244360Y-98889000D01*
X170271938Y-98891716D01*
X170271938Y-98891716D01*
G37*
G36*
X169301938Y-98891716D02*
X169322556Y-98897970D01*
X169341556Y-98908126D01*
X169358208Y-98921792D01*
X169371874Y-98938444D01*
X169382030Y-98957444D01*
X169388284Y-98978062D01*
X169391000Y-99005640D01*
X169391000Y-99514360D01*
X169388284Y-99541938D01*
X169382030Y-99562556D01*
X169371874Y-99581556D01*
X169358208Y-99598208D01*
X169341556Y-99611874D01*
X169322556Y-99622030D01*
X169301938Y-99628284D01*
X169274360Y-99631000D01*
X168815640Y-99631000D01*
X168788062Y-99628284D01*
X168767444Y-99622030D01*
X168748444Y-99611874D01*
X168731792Y-99598208D01*
X168718126Y-99581556D01*
X168707970Y-99562556D01*
X168701716Y-99541938D01*
X168699000Y-99514360D01*
X168699000Y-99005640D01*
X168701716Y-98978062D01*
X168707970Y-98957444D01*
X168718126Y-98938444D01*
X168731792Y-98921792D01*
X168748444Y-98908126D01*
X168767444Y-98897970D01*
X168788062Y-98891716D01*
X168815640Y-98889000D01*
X169274360Y-98889000D01*
X169301938Y-98891716D01*
X169301938Y-98891716D01*
G37*
G36*
X160811938Y-98901716D02*
X160832556Y-98907970D01*
X160851556Y-98918126D01*
X160868208Y-98931792D01*
X160881874Y-98948444D01*
X160892030Y-98967444D01*
X160898284Y-98988062D01*
X160901000Y-99015640D01*
X160901000Y-99474360D01*
X160898284Y-99501938D01*
X160892030Y-99522556D01*
X160881874Y-99541556D01*
X160868208Y-99558208D01*
X160851556Y-99571874D01*
X160832556Y-99582030D01*
X160811938Y-99588284D01*
X160784360Y-99591000D01*
X160275640Y-99591000D01*
X160248062Y-99588284D01*
X160227444Y-99582030D01*
X160208444Y-99571874D01*
X160191792Y-99558208D01*
X160178126Y-99541556D01*
X160167970Y-99522556D01*
X160161716Y-99501938D01*
X160159000Y-99474360D01*
X160159000Y-99015640D01*
X160161716Y-98988062D01*
X160167970Y-98967444D01*
X160178126Y-98948444D01*
X160191792Y-98931792D01*
X160208444Y-98918126D01*
X160227444Y-98907970D01*
X160248062Y-98901716D01*
X160275640Y-98899000D01*
X160784360Y-98899000D01*
X160811938Y-98901716D01*
X160811938Y-98901716D01*
G37*
G36*
X159614466Y-98288565D02*
X159653137Y-98300296D01*
X159688779Y-98319348D01*
X159720017Y-98344983D01*
X159745652Y-98376221D01*
X159764704Y-98411863D01*
X159776435Y-98450534D01*
X159781000Y-98496888D01*
X159781000Y-99148112D01*
X159776435Y-99194466D01*
X159764704Y-99233137D01*
X159745652Y-99268779D01*
X159720017Y-99300017D01*
X159688779Y-99325652D01*
X159653137Y-99344704D01*
X159614466Y-99356435D01*
X159568112Y-99361000D01*
X158491888Y-99361000D01*
X158445534Y-99356435D01*
X158406863Y-99344704D01*
X158371221Y-99325652D01*
X158339983Y-99300017D01*
X158314348Y-99268779D01*
X158295296Y-99233137D01*
X158283565Y-99194466D01*
X158279000Y-99148112D01*
X158279000Y-98496888D01*
X158283565Y-98450534D01*
X158295296Y-98411863D01*
X158314348Y-98376221D01*
X158339983Y-98344983D01*
X158371221Y-98319348D01*
X158406863Y-98300296D01*
X158445534Y-98288565D01*
X158491888Y-98284000D01*
X159568112Y-98284000D01*
X159614466Y-98288565D01*
X159614466Y-98288565D01*
G37*
G36*
X104756938Y-98466716D02*
X104777556Y-98472970D01*
X104796556Y-98483126D01*
X104813208Y-98496792D01*
X104826874Y-98513444D01*
X104837030Y-98532444D01*
X104843284Y-98553062D01*
X104846000Y-98580640D01*
X104846000Y-99039360D01*
X104843284Y-99066938D01*
X104837030Y-99087556D01*
X104826874Y-99106556D01*
X104813208Y-99123208D01*
X104796556Y-99136874D01*
X104777556Y-99147030D01*
X104756938Y-99153284D01*
X104729360Y-99156000D01*
X104220640Y-99156000D01*
X104193062Y-99153284D01*
X104172444Y-99147030D01*
X104153444Y-99136874D01*
X104136792Y-99123208D01*
X104123126Y-99106556D01*
X104112970Y-99087556D01*
X104106716Y-99066938D01*
X104104000Y-99039360D01*
X104104000Y-98580640D01*
X104106716Y-98553062D01*
X104112970Y-98532444D01*
X104123126Y-98513444D01*
X104136792Y-98496792D01*
X104153444Y-98483126D01*
X104172444Y-98472970D01*
X104193062Y-98466716D01*
X104220640Y-98464000D01*
X104729360Y-98464000D01*
X104756938Y-98466716D01*
X104756938Y-98466716D01*
G37*
G36*
X161801938Y-98391716D02*
X161822556Y-98397970D01*
X161841556Y-98408126D01*
X161858208Y-98421792D01*
X161871874Y-98438444D01*
X161882030Y-98457444D01*
X161888284Y-98478062D01*
X161891000Y-98505640D01*
X161891000Y-99014360D01*
X161888284Y-99041938D01*
X161882030Y-99062556D01*
X161871874Y-99081556D01*
X161858208Y-99098208D01*
X161841556Y-99111874D01*
X161822556Y-99122030D01*
X161801938Y-99128284D01*
X161774360Y-99131000D01*
X161315640Y-99131000D01*
X161288062Y-99128284D01*
X161267444Y-99122030D01*
X161248444Y-99111874D01*
X161231792Y-99098208D01*
X161218126Y-99081556D01*
X161207970Y-99062556D01*
X161201716Y-99041938D01*
X161199000Y-99014360D01*
X161199000Y-98505640D01*
X161201716Y-98478062D01*
X161207970Y-98457444D01*
X161218126Y-98438444D01*
X161231792Y-98421792D01*
X161248444Y-98408126D01*
X161267444Y-98397970D01*
X161288062Y-98391716D01*
X161315640Y-98389000D01*
X161774360Y-98389000D01*
X161801938Y-98391716D01*
X161801938Y-98391716D01*
G37*
G36*
X162771938Y-98391716D02*
X162792556Y-98397970D01*
X162811556Y-98408126D01*
X162828208Y-98421792D01*
X162841874Y-98438444D01*
X162852030Y-98457444D01*
X162858284Y-98478062D01*
X162861000Y-98505640D01*
X162861000Y-99014360D01*
X162858284Y-99041938D01*
X162852030Y-99062556D01*
X162841874Y-99081556D01*
X162828208Y-99098208D01*
X162811556Y-99111874D01*
X162792556Y-99122030D01*
X162771938Y-99128284D01*
X162744360Y-99131000D01*
X162285640Y-99131000D01*
X162258062Y-99128284D01*
X162237444Y-99122030D01*
X162218444Y-99111874D01*
X162201792Y-99098208D01*
X162188126Y-99081556D01*
X162177970Y-99062556D01*
X162171716Y-99041938D01*
X162169000Y-99014360D01*
X162169000Y-98505640D01*
X162171716Y-98478062D01*
X162177970Y-98457444D01*
X162188126Y-98438444D01*
X162201792Y-98421792D01*
X162218444Y-98408126D01*
X162237444Y-98397970D01*
X162258062Y-98391716D01*
X162285640Y-98389000D01*
X162744360Y-98389000D01*
X162771938Y-98391716D01*
X162771938Y-98391716D01*
G37*
G36*
X163811938Y-98401716D02*
X163832556Y-98407970D01*
X163851556Y-98418126D01*
X163868208Y-98431792D01*
X163881874Y-98448444D01*
X163892030Y-98467444D01*
X163898284Y-98488062D01*
X163901000Y-98515640D01*
X163901000Y-98974360D01*
X163898284Y-99001938D01*
X163892030Y-99022556D01*
X163881874Y-99041556D01*
X163868208Y-99058208D01*
X163851556Y-99071874D01*
X163832556Y-99082030D01*
X163811938Y-99088284D01*
X163784360Y-99091000D01*
X163275640Y-99091000D01*
X163248062Y-99088284D01*
X163227444Y-99082030D01*
X163208444Y-99071874D01*
X163191792Y-99058208D01*
X163178126Y-99041556D01*
X163167970Y-99022556D01*
X163161716Y-99001938D01*
X163159000Y-98974360D01*
X163159000Y-98515640D01*
X163161716Y-98488062D01*
X163167970Y-98467444D01*
X163178126Y-98448444D01*
X163191792Y-98431792D01*
X163208444Y-98418126D01*
X163227444Y-98407970D01*
X163248062Y-98401716D01*
X163275640Y-98399000D01*
X163784360Y-98399000D01*
X163811938Y-98401716D01*
X163811938Y-98401716D01*
G37*
G36*
X153731000Y-99061000D02*
X152629000Y-99061000D01*
X152629000Y-97959000D01*
X153731000Y-97959000D01*
X153731000Y-99061000D01*
X153731000Y-99061000D01*
G37*
G36*
X110625300Y-98901510D02*
X109024700Y-98901510D01*
X109024700Y-98101010D01*
X110625300Y-98101010D01*
X110625300Y-98901510D01*
X110625300Y-98901510D01*
G37*
G36*
X124623240Y-98901510D02*
X123022640Y-98901510D01*
X123022640Y-98101010D01*
X124623240Y-98101010D01*
X124623240Y-98901510D01*
X124623240Y-98901510D01*
G37*
G36*
X167316938Y-98141716D02*
X167337556Y-98147970D01*
X167356556Y-98158126D01*
X167373208Y-98171792D01*
X167386874Y-98188444D01*
X167397030Y-98207444D01*
X167403284Y-98228062D01*
X167406000Y-98255640D01*
X167406000Y-98764360D01*
X167403284Y-98791938D01*
X167397030Y-98812556D01*
X167386874Y-98831556D01*
X167373208Y-98848208D01*
X167356556Y-98861874D01*
X167337556Y-98872030D01*
X167316938Y-98878284D01*
X167289360Y-98881000D01*
X166830640Y-98881000D01*
X166803062Y-98878284D01*
X166782444Y-98872030D01*
X166763444Y-98861874D01*
X166746792Y-98848208D01*
X166733126Y-98831556D01*
X166722970Y-98812556D01*
X166716716Y-98791938D01*
X166714000Y-98764360D01*
X166714000Y-98255640D01*
X166716716Y-98228062D01*
X166722970Y-98207444D01*
X166733126Y-98188444D01*
X166746792Y-98171792D01*
X166763444Y-98158126D01*
X166782444Y-98147970D01*
X166803062Y-98141716D01*
X166830640Y-98139000D01*
X167289360Y-98139000D01*
X167316938Y-98141716D01*
X167316938Y-98141716D01*
G37*
G36*
X168286938Y-98141716D02*
X168307556Y-98147970D01*
X168326556Y-98158126D01*
X168343208Y-98171792D01*
X168356874Y-98188444D01*
X168367030Y-98207444D01*
X168373284Y-98228062D01*
X168376000Y-98255640D01*
X168376000Y-98764360D01*
X168373284Y-98791938D01*
X168367030Y-98812556D01*
X168356874Y-98831556D01*
X168343208Y-98848208D01*
X168326556Y-98861874D01*
X168307556Y-98872030D01*
X168286938Y-98878284D01*
X168259360Y-98881000D01*
X167800640Y-98881000D01*
X167773062Y-98878284D01*
X167752444Y-98872030D01*
X167733444Y-98861874D01*
X167716792Y-98848208D01*
X167703126Y-98831556D01*
X167692970Y-98812556D01*
X167686716Y-98791938D01*
X167684000Y-98764360D01*
X167684000Y-98255640D01*
X167686716Y-98228062D01*
X167692970Y-98207444D01*
X167703126Y-98188444D01*
X167716792Y-98171792D01*
X167733444Y-98158126D01*
X167752444Y-98147970D01*
X167773062Y-98141716D01*
X167800640Y-98139000D01*
X168259360Y-98139000D01*
X168286938Y-98141716D01*
X168286938Y-98141716D01*
G37*
G36*
X108126000Y-98626000D02*
X105624000Y-98626000D01*
X105624000Y-97074000D01*
X108126000Y-97074000D01*
X108126000Y-98626000D01*
X108126000Y-98626000D01*
G37*
G36*
X160811938Y-97931716D02*
X160832556Y-97937970D01*
X160851556Y-97948126D01*
X160868208Y-97961792D01*
X160881874Y-97978444D01*
X160892030Y-97997444D01*
X160898284Y-98018062D01*
X160901000Y-98045640D01*
X160901000Y-98504360D01*
X160898284Y-98531938D01*
X160892030Y-98552556D01*
X160881874Y-98571556D01*
X160868208Y-98588208D01*
X160851556Y-98601874D01*
X160832556Y-98612030D01*
X160811938Y-98618284D01*
X160784360Y-98621000D01*
X160275640Y-98621000D01*
X160248062Y-98618284D01*
X160227444Y-98612030D01*
X160208444Y-98601874D01*
X160191792Y-98588208D01*
X160178126Y-98571556D01*
X160167970Y-98552556D01*
X160161716Y-98531938D01*
X160159000Y-98504360D01*
X160159000Y-98045640D01*
X160161716Y-98018062D01*
X160167970Y-97997444D01*
X160178126Y-97978444D01*
X160191792Y-97961792D01*
X160208444Y-97948126D01*
X160227444Y-97937970D01*
X160248062Y-97931716D01*
X160275640Y-97929000D01*
X160784360Y-97929000D01*
X160811938Y-97931716D01*
X160811938Y-97931716D01*
G37*
G36*
X114677100Y-97864297D02*
X114740927Y-97890735D01*
X114798374Y-97929120D01*
X114847220Y-97977966D01*
X114885605Y-98035413D01*
X114912043Y-98099240D01*
X114925520Y-98166995D01*
X114925520Y-98236085D01*
X114912043Y-98303840D01*
X114885605Y-98367667D01*
X114847220Y-98425114D01*
X114798374Y-98473960D01*
X114740927Y-98512345D01*
X114677100Y-98538783D01*
X114609345Y-98552260D01*
X114540255Y-98552260D01*
X114472500Y-98538783D01*
X114408673Y-98512345D01*
X114351226Y-98473960D01*
X114302380Y-98425114D01*
X114263995Y-98367667D01*
X114237557Y-98303840D01*
X114224080Y-98236085D01*
X114224080Y-98166995D01*
X114237557Y-98099240D01*
X114263995Y-98035413D01*
X114302380Y-97977966D01*
X114351226Y-97929120D01*
X114408673Y-97890735D01*
X114472500Y-97864297D01*
X114540255Y-97850820D01*
X114609345Y-97850820D01*
X114677100Y-97864297D01*
X114677100Y-97864297D01*
G37*
G36*
X119175440Y-97864297D02*
X119239267Y-97890735D01*
X119296714Y-97929120D01*
X119345560Y-97977966D01*
X119383945Y-98035413D01*
X119410383Y-98099240D01*
X119423860Y-98166995D01*
X119423860Y-98236085D01*
X119410383Y-98303840D01*
X119383945Y-98367667D01*
X119345560Y-98425114D01*
X119296714Y-98473960D01*
X119239267Y-98512345D01*
X119175440Y-98538783D01*
X119107685Y-98552260D01*
X119038595Y-98552260D01*
X118970840Y-98538783D01*
X118907013Y-98512345D01*
X118849566Y-98473960D01*
X118800720Y-98425114D01*
X118762335Y-98367667D01*
X118735897Y-98303840D01*
X118722420Y-98236085D01*
X118722420Y-98166995D01*
X118735897Y-98099240D01*
X118762335Y-98035413D01*
X118800720Y-97977966D01*
X118849566Y-97929120D01*
X118907013Y-97890735D01*
X118970840Y-97864297D01*
X119038595Y-97850820D01*
X119107685Y-97850820D01*
X119175440Y-97864297D01*
X119175440Y-97864297D01*
G37*
G36*
X117676840Y-97864297D02*
X117740667Y-97890735D01*
X117798114Y-97929120D01*
X117846960Y-97977966D01*
X117885345Y-98035413D01*
X117911783Y-98099240D01*
X117925260Y-98166995D01*
X117925260Y-98236085D01*
X117911783Y-98303840D01*
X117885345Y-98367667D01*
X117846960Y-98425114D01*
X117798114Y-98473960D01*
X117740667Y-98512345D01*
X117676840Y-98538783D01*
X117609085Y-98552260D01*
X117539995Y-98552260D01*
X117472240Y-98538783D01*
X117408413Y-98512345D01*
X117350966Y-98473960D01*
X117302120Y-98425114D01*
X117263735Y-98367667D01*
X117237297Y-98303840D01*
X117223820Y-98236085D01*
X117223820Y-98166995D01*
X117237297Y-98099240D01*
X117263735Y-98035413D01*
X117302120Y-97977966D01*
X117350966Y-97929120D01*
X117408413Y-97890735D01*
X117472240Y-97864297D01*
X117539995Y-97850820D01*
X117609085Y-97850820D01*
X117676840Y-97864297D01*
X117676840Y-97864297D01*
G37*
G36*
X116175700Y-97864297D02*
X116239527Y-97890735D01*
X116296974Y-97929120D01*
X116345820Y-97977966D01*
X116384205Y-98035413D01*
X116410643Y-98099240D01*
X116424120Y-98166995D01*
X116424120Y-98236085D01*
X116410643Y-98303840D01*
X116384205Y-98367667D01*
X116345820Y-98425114D01*
X116296974Y-98473960D01*
X116239527Y-98512345D01*
X116175700Y-98538783D01*
X116107945Y-98552260D01*
X116038855Y-98552260D01*
X115971100Y-98538783D01*
X115907273Y-98512345D01*
X115849826Y-98473960D01*
X115800980Y-98425114D01*
X115762595Y-98367667D01*
X115736157Y-98303840D01*
X115722680Y-98236085D01*
X115722680Y-98166995D01*
X115736157Y-98099240D01*
X115762595Y-98035413D01*
X115800980Y-97977966D01*
X115849826Y-97929120D01*
X115907273Y-97890735D01*
X115971100Y-97864297D01*
X116038855Y-97850820D01*
X116107945Y-97850820D01*
X116175700Y-97864297D01*
X116175700Y-97864297D01*
G37*
G36*
X104756938Y-97496716D02*
X104777556Y-97502970D01*
X104796556Y-97513126D01*
X104813208Y-97526792D01*
X104826874Y-97543444D01*
X104837030Y-97562444D01*
X104843284Y-97583062D01*
X104846000Y-97610640D01*
X104846000Y-98069360D01*
X104843284Y-98096938D01*
X104837030Y-98117556D01*
X104826874Y-98136556D01*
X104813208Y-98153208D01*
X104796556Y-98166874D01*
X104777556Y-98177030D01*
X104756938Y-98183284D01*
X104729360Y-98186000D01*
X104220640Y-98186000D01*
X104193062Y-98183284D01*
X104172444Y-98177030D01*
X104153444Y-98166874D01*
X104136792Y-98153208D01*
X104123126Y-98136556D01*
X104112970Y-98117556D01*
X104106716Y-98096938D01*
X104104000Y-98069360D01*
X104104000Y-97610640D01*
X104106716Y-97583062D01*
X104112970Y-97562444D01*
X104123126Y-97543444D01*
X104136792Y-97526792D01*
X104153444Y-97513126D01*
X104172444Y-97502970D01*
X104193062Y-97496716D01*
X104220640Y-97494000D01*
X104729360Y-97494000D01*
X104756938Y-97496716D01*
X104756938Y-97496716D01*
G37*
G36*
X161801938Y-97391716D02*
X161822556Y-97397970D01*
X161841556Y-97408126D01*
X161858208Y-97421792D01*
X161871874Y-97438444D01*
X161882030Y-97457444D01*
X161888284Y-97478062D01*
X161891000Y-97505640D01*
X161891000Y-98014360D01*
X161888284Y-98041938D01*
X161882030Y-98062556D01*
X161871874Y-98081556D01*
X161858208Y-98098208D01*
X161841556Y-98111874D01*
X161822556Y-98122030D01*
X161801938Y-98128284D01*
X161774360Y-98131000D01*
X161315640Y-98131000D01*
X161288062Y-98128284D01*
X161267444Y-98122030D01*
X161248444Y-98111874D01*
X161231792Y-98098208D01*
X161218126Y-98081556D01*
X161207970Y-98062556D01*
X161201716Y-98041938D01*
X161199000Y-98014360D01*
X161199000Y-97505640D01*
X161201716Y-97478062D01*
X161207970Y-97457444D01*
X161218126Y-97438444D01*
X161231792Y-97421792D01*
X161248444Y-97408126D01*
X161267444Y-97397970D01*
X161288062Y-97391716D01*
X161315640Y-97389000D01*
X161774360Y-97389000D01*
X161801938Y-97391716D01*
X161801938Y-97391716D01*
G37*
G36*
X162771938Y-97391716D02*
X162792556Y-97397970D01*
X162811556Y-97408126D01*
X162828208Y-97421792D01*
X162841874Y-97438444D01*
X162852030Y-97457444D01*
X162858284Y-97478062D01*
X162861000Y-97505640D01*
X162861000Y-98014360D01*
X162858284Y-98041938D01*
X162852030Y-98062556D01*
X162841874Y-98081556D01*
X162828208Y-98098208D01*
X162811556Y-98111874D01*
X162792556Y-98122030D01*
X162771938Y-98128284D01*
X162744360Y-98131000D01*
X162285640Y-98131000D01*
X162258062Y-98128284D01*
X162237444Y-98122030D01*
X162218444Y-98111874D01*
X162201792Y-98098208D01*
X162188126Y-98081556D01*
X162177970Y-98062556D01*
X162171716Y-98041938D01*
X162169000Y-98014360D01*
X162169000Y-97505640D01*
X162171716Y-97478062D01*
X162177970Y-97457444D01*
X162188126Y-97438444D01*
X162201792Y-97421792D01*
X162218444Y-97408126D01*
X162237444Y-97397970D01*
X162258062Y-97391716D01*
X162285640Y-97389000D01*
X162744360Y-97389000D01*
X162771938Y-97391716D01*
X162771938Y-97391716D01*
G37*
G36*
X163811938Y-97431716D02*
X163832556Y-97437970D01*
X163851556Y-97448126D01*
X163868208Y-97461792D01*
X163881874Y-97478444D01*
X163892030Y-97497444D01*
X163898284Y-97518062D01*
X163901000Y-97545640D01*
X163901000Y-98004360D01*
X163898284Y-98031938D01*
X163892030Y-98052556D01*
X163881874Y-98071556D01*
X163868208Y-98088208D01*
X163851556Y-98101874D01*
X163832556Y-98112030D01*
X163811938Y-98118284D01*
X163784360Y-98121000D01*
X163275640Y-98121000D01*
X163248062Y-98118284D01*
X163227444Y-98112030D01*
X163208444Y-98101874D01*
X163191792Y-98088208D01*
X163178126Y-98071556D01*
X163167970Y-98052556D01*
X163161716Y-98031938D01*
X163159000Y-98004360D01*
X163159000Y-97545640D01*
X163161716Y-97518062D01*
X163167970Y-97497444D01*
X163178126Y-97478444D01*
X163191792Y-97461792D01*
X163208444Y-97448126D01*
X163227444Y-97437970D01*
X163248062Y-97431716D01*
X163275640Y-97429000D01*
X163784360Y-97429000D01*
X163811938Y-97431716D01*
X163811938Y-97431716D01*
G37*
G36*
X124623240Y-97801690D02*
X123022640Y-97801690D01*
X123022640Y-97001190D01*
X124623240Y-97001190D01*
X124623240Y-97801690D01*
X124623240Y-97801690D01*
G37*
G36*
X110625300Y-97801690D02*
X109024700Y-97801690D01*
X109024700Y-97001190D01*
X110625300Y-97001190D01*
X110625300Y-97801690D01*
X110625300Y-97801690D01*
G37*
G36*
X153731000Y-97661000D02*
X152629000Y-97661000D01*
X152629000Y-96559000D01*
X153731000Y-96559000D01*
X153731000Y-97661000D01*
X153731000Y-97661000D01*
G37*
M02*
