  0
SECTION
  2
HEADER
  9
$ANGBASE
  50
0.0
  9
$ANGDIR
  70
  1
  9
$MEASUREMENT
  70
0
  0
ENDSEC
  0
SECTION
  2
TABLES
  0
TABLE
  2
LTYPE
  70
4
  0
LTYPE
  5
40F
  2
CONTINUOUS
  70
0
  3
Solid line
  72
65
  73
0
  40
0.0
  0
LTYPE
  5
410
  2
DASHDOT
 70
0
  3
Dash Dot ____ _ ____ _
 72
65
 73
4
 40
2.0
 49
1.25
 49
-0.25
 49
0.25
 49
-0.25
  0
LTYPE
  5
411
  2
DASHED
 70
0
  3
Dashed __ __ __ __ __
 72
65
 73
2
 40
0.75
 49
0.5
 49
-0.25
  0
LTYPE
  5
43B
  2
DOTTED
 70
0
  3
Dotted .  .  .  .
 72
65
 73
2
 40
0.2
 49
0.0
 49
-0.2
  0
ENDTAB
  0
TABLE
  2
STYLE
  70
4
  0
STYLE
  2
KICAD
  70
0
  40
0
  41
1
  42
1
  50
0
  71
0
  3
isocp.shx
  0
STYLE
  2
KICADB
  70
0
  40
0
  41
1
  42
1
  50
0
  71
0
  3
isocp.shx
  0
STYLE
  2
KICADI
  70
0
  40
0
  41
1
  42
1
  50
15
  71
0
  3
isocp.shx
  0
STYLE
  2
KICADBI
  70
0
  40
0
  41
1
  42
1
  50
15
  71
0
  3
isocp.shx
  0
ENDTAB
  0
TABLE
  2
LAYER
  70
30
  0
LAYER
  2
BLACK
  70
0
  62
7
  6
CONTINUOUS
  0
LAYER
  2
GRAY1
  70
0
  62
251
  6
CONTINUOUS
  0
LAYER
  2
GRAY2
  70
0
  62
8
  6
CONTINUOUS
  0
LAYER
  2
GRAY3
  70
0
  62
9
  6
CONTINUOUS
  0
LAYER
  2
WHITE
  70
0
  62
7
  6
CONTINUOUS
  0
LAYER
  2
LYELLOW
  70
0
  62
51
  6
CONTINUOUS
  0
LAYER
  2
BLUE1
  70
0
  62
178
  6
CONTINUOUS
  0
LAYER
  2
GREEN1
  70
0
  62
98
  6
CONTINUOUS
  0
LAYER
  2
CYAN1
  70
0
  62
138
  6
CONTINUOUS
  0
LAYER
  2
RED1
  70
0
  62
18
  6
CONTINUOUS
  0
LAYER
  2
MAGENTA1
  70
0
  62
228
  6
CONTINUOUS
  0
LAYER
  2
BROWN1
  70
0
  62
58
  6
CONTINUOUS
  0
LAYER
  2
BLUE2
  70
0
  62
5
  6
CONTINUOUS
  0
LAYER
  2
GREEN2
  70
0
  62
3
  6
CONTINUOUS
  0
LAYER
  2
CYAN2
  70
0
  62
4
  6
CONTINUOUS
  0
LAYER
  2
RED2
  70
0
  62
1
  6
CONTINUOUS
  0
LAYER
  2
MAGENTA2
  70
0
  62
6
  6
CONTINUOUS
  0
LAYER
  2
BROWN2
  70
0
  62
54
  6
CONTINUOUS
  0
LAYER
  2
BLUE3
  70
0
  62
171
  6
CONTINUOUS
  0
LAYER
  2
GREEN3
  70
0
  62
91
  6
CONTINUOUS
  0
LAYER
  2
CYAN3
  70
0
  62
131
  6
CONTINUOUS
  0
LAYER
  2
RED3
  70
0
  62
11
  6
CONTINUOUS
  0
LAYER
  2
MAGENTA3
  70
0
  62
221
  6
CONTINUOUS
  0
LAYER
  2
YELLOW3
  70
0
  62
2
  6
CONTINUOUS
  0
LAYER
  2
BLUE4
  70
0
  62
5
  6
CONTINUOUS
  0
LAYER
  2
GREEN4
  70
0
  62
3
  6
CONTINUOUS
  0
LAYER
  2
CYAN4
  70
0
  62
4
  6
CONTINUOUS
  0
LAYER
  2
RED4
  70
0
  62
1
  6
CONTINUOUS
  0
LAYER
  2
MAGENTA4
  70
0
  62
6
  6
CONTINUOUS
  0
LAYER
  2
YELLOW4
  70
0
  62
2
  6
CONTINUOUS
  0
ENDTAB
  0
ENDSEC
  0
SECTION
  2
ENTITIES
0
LINE
8
BLACK
6
CONTINUOUS
10
110.52
20
-124.985
11
109.22
21
-124.985
0
LINE
8
BLACK
6
CONTINUOUS
10
109.22
20
-124.985
11
109.22
21
-122.585
0
LINE
8
BLACK
6
CONTINUOUS
10
109.22
20
-122.585
11
110.52
21
-122.585
0
LINE
8
BLACK
6
CONTINUOUS
10
110.52
20
-122.585
11
110.52
21
-124.985
0
LINE
8
BLACK
6
CONTINUOUS
10
107.52
20
-124.985
11
106.22
21
-124.985
0
LINE
8
BLACK
6
CONTINUOUS
10
106.22
20
-124.985
11
106.22
21
-122.585
0
LINE
8
BLACK
6
CONTINUOUS
10
106.22
20
-122.585
11
107.52
21
-122.585
0
LINE
8
BLACK
6
CONTINUOUS
10
107.52
20
-122.585
11
107.52
21
-124.985
0
LINE
8
BLACK
6
CONTINUOUS
10
105.214
20
-124.285
11
105.265
21
-124.314
0
LINE
8
BLACK
6
CONTINUOUS
10
105.265
20
-124.314
11
105.302
21
-124.359
0
LINE
8
BLACK
6
CONTINUOUS
10
105.302
20
-124.359
11
105.325
21
-124.444
0
LINE
8
BLACK
6
CONTINUOUS
10
105.325
20
-124.444
11
105.325
21
-124.781
0
LINE
8
BLACK
6
CONTINUOUS
10
105.325
20
-124.781
11
105.315
21
-124.839
0
LINE
8
BLACK
6
CONTINUOUS
10
105.315
20
-124.839
11
105.286
21
-124.89
0
LINE
8
BLACK
6
CONTINUOUS
10
105.286
20
-124.89
11
105.241
21
-124.927
0
LINE
8
BLACK
6
CONTINUOUS
10
105.241
20
-124.927
11
105.156
21
-124.95
0
LINE
8
BLACK
6
CONTINUOUS
10
105.156
20
-124.95
11
104.744
21
-124.95
0
LINE
8
BLACK
6
CONTINUOUS
10
104.744
20
-124.95
11
104.686
21
-124.94
0
LINE
8
BLACK
6
CONTINUOUS
10
104.686
20
-124.94
11
104.635
21
-124.911
0
LINE
8
BLACK
6
CONTINUOUS
10
104.635
20
-124.911
11
104.598
21
-124.866
0
LINE
8
BLACK
6
CONTINUOUS
10
104.598
20
-124.866
11
104.575
21
-124.781
0
LINE
8
BLACK
6
CONTINUOUS
10
104.575
20
-124.781
11
104.575
21
-124.444
0
LINE
8
BLACK
6
CONTINUOUS
10
104.575
20
-124.444
11
104.585
21
-124.386
0
LINE
8
BLACK
6
CONTINUOUS
10
104.585
20
-124.386
11
104.614
21
-124.335
0
LINE
8
BLACK
6
CONTINUOUS
10
104.614
20
-124.335
11
104.659
21
-124.298
0
LINE
8
BLACK
6
CONTINUOUS
10
104.659
20
-124.298
11
104.744
21
-124.275
0
LINE
8
BLACK
6
CONTINUOUS
10
104.744
20
-124.275
11
105.156
21
-124.275
0
LINE
8
BLACK
6
CONTINUOUS
10
105.156
20
-124.275
11
105.214
21
-124.285
0
LINE
8
BLACK
6
CONTINUOUS
10
105.214
20
-122.71
11
105.265
21
-122.739
0
LINE
8
BLACK
6
CONTINUOUS
10
105.265
20
-122.739
11
105.302
21
-122.784
0
LINE
8
BLACK
6
CONTINUOUS
10
105.302
20
-122.784
11
105.325
21
-122.869
0
LINE
8
BLACK
6
CONTINUOUS
10
105.325
20
-122.869
11
105.325
21
-123.206
0
LINE
8
BLACK
6
CONTINUOUS
10
105.325
20
-123.206
11
105.315
21
-123.264
0
LINE
8
BLACK
6
CONTINUOUS
10
105.315
20
-123.264
11
105.286
21
-123.315
0
LINE
8
BLACK
6
CONTINUOUS
10
105.286
20
-123.315
11
105.241
21
-123.352
0
LINE
8
BLACK
6
CONTINUOUS
10
105.241
20
-123.352
11
105.156
21
-123.375
0
LINE
8
BLACK
6
CONTINUOUS
10
105.156
20
-123.375
11
104.744
21
-123.375
0
LINE
8
BLACK
6
CONTINUOUS
10
104.744
20
-123.375
11
104.686
21
-123.365
0
LINE
8
BLACK
6
CONTINUOUS
10
104.686
20
-123.365
11
104.635
21
-123.336
0
LINE
8
BLACK
6
CONTINUOUS
10
104.635
20
-123.336
11
104.598
21
-123.291
0
LINE
8
BLACK
6
CONTINUOUS
10
104.598
20
-123.291
11
104.575
21
-123.206
0
LINE
8
BLACK
6
CONTINUOUS
10
104.575
20
-123.206
11
104.575
21
-122.869
0
LINE
8
BLACK
6
CONTINUOUS
10
104.575
20
-122.869
11
104.585
21
-122.811
0
LINE
8
BLACK
6
CONTINUOUS
10
104.585
20
-122.811
11
104.614
21
-122.76
0
LINE
8
BLACK
6
CONTINUOUS
10
104.614
20
-122.76
11
104.659
21
-122.723
0
LINE
8
BLACK
6
CONTINUOUS
10
104.659
20
-122.723
11
104.744
21
-122.7
0
LINE
8
BLACK
6
CONTINUOUS
10
104.744
20
-122.7
11
105.156
21
-122.7
0
LINE
8
BLACK
6
CONTINUOUS
10
105.156
20
-122.7
11
105.214
21
-122.71
0
LINE
8
BLACK
6
CONTINUOUS
10
112.456
20
-120.684
11
112.516
21
-120.719
0
LINE
8
BLACK
6
CONTINUOUS
10
112.516
20
-120.719
11
112.561
21
-120.772
0
LINE
8
BLACK
6
CONTINUOUS
10
112.561
20
-120.772
11
112.588
21
-120.872
0
LINE
8
BLACK
6
CONTINUOUS
10
112.588
20
-120.872
11
112.588
21
-121.272
0
LINE
8
BLACK
6
CONTINUOUS
10
112.588
20
-121.272
11
112.576
21
-121.34
0
LINE
8
BLACK
6
CONTINUOUS
10
112.576
20
-121.34
11
112.541
21
-121.4
0
LINE
8
BLACK
6
CONTINUOUS
10
112.541
20
-121.4
11
112.488
21
-121.445
0
LINE
8
BLACK
6
CONTINUOUS
10
112.488
20
-121.445
11
112.388
21
-121.472
0
LINE
8
BLACK
6
CONTINUOUS
10
112.388
20
-121.472
11
111.438
21
-121.472
0
LINE
8
BLACK
6
CONTINUOUS
10
111.438
20
-121.472
11
111.369
21
-121.46
0
LINE
8
BLACK
6
CONTINUOUS
10
111.369
20
-121.46
11
111.309
21
-121.425
0
LINE
8
BLACK
6
CONTINUOUS
10
111.309
20
-121.425
11
111.264
21
-121.372
0
LINE
8
BLACK
6
CONTINUOUS
10
111.264
20
-121.372
11
111.238
21
-121.272
0
LINE
8
BLACK
6
CONTINUOUS
10
111.238
20
-121.272
11
111.238
21
-120.872
0
LINE
8
BLACK
6
CONTINUOUS
10
111.238
20
-120.872
11
111.25
21
-120.803
0
LINE
8
BLACK
6
CONTINUOUS
10
111.25
20
-120.803
11
111.284
21
-120.743
0
LINE
8
BLACK
6
CONTINUOUS
10
111.284
20
-120.743
11
111.338
21
-120.699
0
LINE
8
BLACK
6
CONTINUOUS
10
111.338
20
-120.699
11
111.438
21
-120.672
0
LINE
8
BLACK
6
CONTINUOUS
10
111.438
20
-120.672
11
112.388
21
-120.672
0
LINE
8
BLACK
6
CONTINUOUS
10
112.388
20
-120.672
11
112.456
21
-120.684
0
LINE
8
BLACK
6
CONTINUOUS
10
109.906
20
-120.684
11
109.966
21
-120.719
0
LINE
8
BLACK
6
CONTINUOUS
10
109.966
20
-120.719
11
110.011
21
-120.772
0
LINE
8
BLACK
6
CONTINUOUS
10
110.011
20
-120.772
11
110.038
21
-120.872
0
LINE
8
BLACK
6
CONTINUOUS
10
110.038
20
-120.872
11
110.038
21
-121.272
0
LINE
8
BLACK
6
CONTINUOUS
10
110.038
20
-121.272
11
110.026
21
-121.34
0
LINE
8
BLACK
6
CONTINUOUS
10
110.026
20
-121.34
11
109.991
21
-121.4
0
LINE
8
BLACK
6
CONTINUOUS
10
109.991
20
-121.4
11
109.938
21
-121.445
0
LINE
8
BLACK
6
CONTINUOUS
10
109.938
20
-121.445
11
109.838
21
-121.472
0
LINE
8
BLACK
6
CONTINUOUS
10
109.838
20
-121.472
11
108.888
21
-121.472
0
LINE
8
BLACK
6
CONTINUOUS
10
108.888
20
-121.472
11
108.819
21
-121.46
0
LINE
8
BLACK
6
CONTINUOUS
10
108.819
20
-121.46
11
108.759
21
-121.425
0
LINE
8
BLACK
6
CONTINUOUS
10
108.759
20
-121.425
11
108.714
21
-121.372
0
LINE
8
BLACK
6
CONTINUOUS
10
108.714
20
-121.372
11
108.688
21
-121.272
0
LINE
8
BLACK
6
CONTINUOUS
10
108.688
20
-121.272
11
108.688
21
-120.872
0
LINE
8
BLACK
6
CONTINUOUS
10
108.688
20
-120.872
11
108.7
21
-120.803
0
LINE
8
BLACK
6
CONTINUOUS
10
108.7
20
-120.803
11
108.734
21
-120.743
0
LINE
8
BLACK
6
CONTINUOUS
10
108.734
20
-120.743
11
108.788
21
-120.699
0
LINE
8
BLACK
6
CONTINUOUS
10
108.788
20
-120.699
11
108.888
21
-120.672
0
LINE
8
BLACK
6
CONTINUOUS
10
108.888
20
-120.672
11
109.838
21
-120.672
0
LINE
8
BLACK
6
CONTINUOUS
10
109.838
20
-120.672
11
109.906
21
-120.684
0
LINE
8
BLACK
6
CONTINUOUS
10
105.378
20
-120.662
11
105.439
21
-120.697
0
LINE
8
BLACK
6
CONTINUOUS
10
105.439
20
-120.697
11
105.483
21
-120.75
0
LINE
8
BLACK
6
CONTINUOUS
10
105.483
20
-120.75
11
105.51
21
-120.85
0
LINE
8
BLACK
6
CONTINUOUS
10
105.51
20
-120.85
11
105.51
21
-121.25
0
LINE
8
BLACK
6
CONTINUOUS
10
105.51
20
-121.25
11
105.498
21
-121.318
0
LINE
8
BLACK
6
CONTINUOUS
10
105.498
20
-121.318
11
105.463
21
-121.379
0
LINE
8
BLACK
6
CONTINUOUS
10
105.463
20
-121.379
11
105.41
21
-121.423
0
LINE
8
BLACK
6
CONTINUOUS
10
105.41
20
-121.423
11
105.31
21
-121.45
0
LINE
8
BLACK
6
CONTINUOUS
10
105.31
20
-121.45
11
104.36
21
-121.45
0
LINE
8
BLACK
6
CONTINUOUS
10
104.36
20
-121.45
11
104.292
21
-121.438
0
LINE
8
BLACK
6
CONTINUOUS
10
104.292
20
-121.438
11
104.231
21
-121.403
0
LINE
8
BLACK
6
CONTINUOUS
10
104.231
20
-121.403
11
104.187
21
-121.35
0
LINE
8
BLACK
6
CONTINUOUS
10
104.187
20
-121.35
11
104.16
21
-121.25
0
LINE
8
BLACK
6
CONTINUOUS
10
104.16
20
-121.25
11
104.16
21
-120.85
0
LINE
8
BLACK
6
CONTINUOUS
10
104.16
20
-120.85
11
104.172
21
-120.782
0
LINE
8
BLACK
6
CONTINUOUS
10
104.172
20
-120.782
11
104.207
21
-120.721
0
LINE
8
BLACK
6
CONTINUOUS
10
104.207
20
-120.721
11
104.26
21
-120.677
0
LINE
8
BLACK
6
CONTINUOUS
10
104.26
20
-120.677
11
104.36
21
-120.65
0
LINE
8
BLACK
6
CONTINUOUS
10
104.36
20
-120.65
11
105.31
21
-120.65
0
LINE
8
BLACK
6
CONTINUOUS
10
105.31
20
-120.65
11
105.378
21
-120.662
0
LINE
8
BLACK
6
CONTINUOUS
10
107.928
20
-120.662
11
107.989
21
-120.697
0
LINE
8
BLACK
6
CONTINUOUS
10
107.989
20
-120.697
11
108.033
21
-120.75
0
LINE
8
BLACK
6
CONTINUOUS
10
108.033
20
-120.75
11
108.06
21
-120.85
0
LINE
8
BLACK
6
CONTINUOUS
10
108.06
20
-120.85
11
108.06
21
-121.25
0
LINE
8
BLACK
6
CONTINUOUS
10
108.06
20
-121.25
11
108.048
21
-121.318
0
LINE
8
BLACK
6
CONTINUOUS
10
108.048
20
-121.318
11
108.013
21
-121.379
0
LINE
8
BLACK
6
CONTINUOUS
10
108.013
20
-121.379
11
107.96
21
-121.423
0
LINE
8
BLACK
6
CONTINUOUS
10
107.96
20
-121.423
11
107.86
21
-121.45
0
LINE
8
BLACK
6
CONTINUOUS
10
107.86
20
-121.45
11
106.91
21
-121.45
0
LINE
8
BLACK
6
CONTINUOUS
10
106.91
20
-121.45
11
106.842
21
-121.438
0
LINE
8
BLACK
6
CONTINUOUS
10
106.842
20
-121.438
11
106.781
21
-121.403
0
LINE
8
BLACK
6
CONTINUOUS
10
106.781
20
-121.403
11
106.737
21
-121.35
0
LINE
8
BLACK
6
CONTINUOUS
10
106.737
20
-121.35
11
106.71
21
-121.25
0
LINE
8
BLACK
6
CONTINUOUS
10
106.71
20
-121.25
11
106.71
21
-120.85
0
LINE
8
BLACK
6
CONTINUOUS
10
106.71
20
-120.85
11
106.722
21
-120.782
0
LINE
8
BLACK
6
CONTINUOUS
10
106.722
20
-120.782
11
106.757
21
-120.721
0
LINE
8
BLACK
6
CONTINUOUS
10
106.757
20
-120.721
11
106.81
21
-120.677
0
LINE
8
BLACK
6
CONTINUOUS
10
106.81
20
-120.677
11
106.91
21
-120.65
0
LINE
8
BLACK
6
CONTINUOUS
10
106.91
20
-120.65
11
107.86
21
-120.65
0
LINE
8
BLACK
6
CONTINUOUS
10
107.86
20
-120.65
11
107.928
21
-120.662
0
LINE
8
BLACK
6
CONTINUOUS
10
109.906
20
-116.484
11
109.966
21
-116.519
0
LINE
8
BLACK
6
CONTINUOUS
10
109.966
20
-116.519
11
110.011
21
-116.572
0
LINE
8
BLACK
6
CONTINUOUS
10
110.011
20
-116.572
11
110.038
21
-116.672
0
LINE
8
BLACK
6
CONTINUOUS
10
110.038
20
-116.672
11
110.038
21
-117.072
0
LINE
8
BLACK
6
CONTINUOUS
10
110.038
20
-117.072
11
110.026
21
-117.14
0
LINE
8
BLACK
6
CONTINUOUS
10
110.026
20
-117.14
11
109.991
21
-117.2
0
LINE
8
BLACK
6
CONTINUOUS
10
109.991
20
-117.2
11
109.938
21
-117.245
0
LINE
8
BLACK
6
CONTINUOUS
10
109.938
20
-117.245
11
109.838
21
-117.272
0
LINE
8
BLACK
6
CONTINUOUS
10
109.838
20
-117.272
11
108.888
21
-117.272
0
LINE
8
BLACK
6
CONTINUOUS
10
108.888
20
-117.272
11
108.819
21
-117.26
0
LINE
8
BLACK
6
CONTINUOUS
10
108.819
20
-117.26
11
108.759
21
-117.225
0
LINE
8
BLACK
6
CONTINUOUS
10
108.759
20
-117.225
11
108.714
21
-117.172
0
LINE
8
BLACK
6
CONTINUOUS
10
108.714
20
-117.172
11
108.688
21
-117.072
0
LINE
8
BLACK
6
CONTINUOUS
10
108.688
20
-117.072
11
108.688
21
-116.672
0
LINE
8
BLACK
6
CONTINUOUS
10
108.688
20
-116.672
11
108.7
21
-116.603
0
LINE
8
BLACK
6
CONTINUOUS
10
108.7
20
-116.603
11
108.734
21
-116.543
0
LINE
8
BLACK
6
CONTINUOUS
10
108.734
20
-116.543
11
108.788
21
-116.499
0
LINE
8
BLACK
6
CONTINUOUS
10
108.788
20
-116.499
11
108.888
21
-116.472
0
LINE
8
BLACK
6
CONTINUOUS
10
108.888
20
-116.472
11
109.838
21
-116.472
0
LINE
8
BLACK
6
CONTINUOUS
10
109.838
20
-116.472
11
109.906
21
-116.484
0
LINE
8
BLACK
6
CONTINUOUS
10
112.456
20
-116.484
11
112.516
21
-116.519
0
LINE
8
BLACK
6
CONTINUOUS
10
112.516
20
-116.519
11
112.561
21
-116.572
0
LINE
8
BLACK
6
CONTINUOUS
10
112.561
20
-116.572
11
112.588
21
-116.672
0
LINE
8
BLACK
6
CONTINUOUS
10
112.588
20
-116.672
11
112.588
21
-117.072
0
LINE
8
BLACK
6
CONTINUOUS
10
112.588
20
-117.072
11
112.576
21
-117.14
0
LINE
8
BLACK
6
CONTINUOUS
10
112.576
20
-117.14
11
112.541
21
-117.2
0
LINE
8
BLACK
6
CONTINUOUS
10
112.541
20
-117.2
11
112.488
21
-117.245
0
LINE
8
BLACK
6
CONTINUOUS
10
112.488
20
-117.245
11
112.388
21
-117.272
0
LINE
8
BLACK
6
CONTINUOUS
10
112.388
20
-117.272
11
111.438
21
-117.272
0
LINE
8
BLACK
6
CONTINUOUS
10
111.438
20
-117.272
11
111.369
21
-117.26
0
LINE
8
BLACK
6
CONTINUOUS
10
111.369
20
-117.26
11
111.309
21
-117.225
0
LINE
8
BLACK
6
CONTINUOUS
10
111.309
20
-117.225
11
111.264
21
-117.172
0
LINE
8
BLACK
6
CONTINUOUS
10
111.264
20
-117.172
11
111.238
21
-117.072
0
LINE
8
BLACK
6
CONTINUOUS
10
111.238
20
-117.072
11
111.238
21
-116.672
0
LINE
8
BLACK
6
CONTINUOUS
10
111.238
20
-116.672
11
111.25
21
-116.603
0
LINE
8
BLACK
6
CONTINUOUS
10
111.25
20
-116.603
11
111.284
21
-116.543
0
LINE
8
BLACK
6
CONTINUOUS
10
111.284
20
-116.543
11
111.338
21
-116.499
0
LINE
8
BLACK
6
CONTINUOUS
10
111.338
20
-116.499
11
111.438
21
-116.472
0
LINE
8
BLACK
6
CONTINUOUS
10
111.438
20
-116.472
11
112.388
21
-116.472
0
LINE
8
BLACK
6
CONTINUOUS
10
112.388
20
-116.472
11
112.456
21
-116.484
0
LINE
8
BLACK
6
CONTINUOUS
10
105.378
20
-116.462
11
105.439
21
-116.497
0
LINE
8
BLACK
6
CONTINUOUS
10
105.439
20
-116.497
11
105.483
21
-116.55
0
LINE
8
BLACK
6
CONTINUOUS
10
105.483
20
-116.55
11
105.51
21
-116.65
0
LINE
8
BLACK
6
CONTINUOUS
10
105.51
20
-116.65
11
105.51
21
-117.05
0
LINE
8
BLACK
6
CONTINUOUS
10
105.51
20
-117.05
11
105.498
21
-117.118
0
LINE
8
BLACK
6
CONTINUOUS
10
105.498
20
-117.118
11
105.463
21
-117.179
0
LINE
8
BLACK
6
CONTINUOUS
10
105.463
20
-117.179
11
105.41
21
-117.223
0
LINE
8
BLACK
6
CONTINUOUS
10
105.41
20
-117.223
11
105.31
21
-117.25
0
LINE
8
BLACK
6
CONTINUOUS
10
105.31
20
-117.25
11
104.36
21
-117.25
0
LINE
8
BLACK
6
CONTINUOUS
10
104.36
20
-117.25
11
104.292
21
-117.238
0
LINE
8
BLACK
6
CONTINUOUS
10
104.292
20
-117.238
11
104.231
21
-117.203
0
LINE
8
BLACK
6
CONTINUOUS
10
104.231
20
-117.203
11
104.187
21
-117.15
0
LINE
8
BLACK
6
CONTINUOUS
10
104.187
20
-117.15
11
104.16
21
-117.05
0
LINE
8
BLACK
6
CONTINUOUS
10
104.16
20
-117.05
11
104.16
21
-116.65
0
LINE
8
BLACK
6
CONTINUOUS
10
104.16
20
-116.65
11
104.172
21
-116.582
0
LINE
8
BLACK
6
CONTINUOUS
10
104.172
20
-116.582
11
104.207
21
-116.521
0
LINE
8
BLACK
6
CONTINUOUS
10
104.207
20
-116.521
11
104.26
21
-116.477
0
LINE
8
BLACK
6
CONTINUOUS
10
104.26
20
-116.477
11
104.36
21
-116.45
0
LINE
8
BLACK
6
CONTINUOUS
10
104.36
20
-116.45
11
105.31
21
-116.45
0
LINE
8
BLACK
6
CONTINUOUS
10
105.31
20
-116.45
11
105.378
21
-116.462
0
LINE
8
BLACK
6
CONTINUOUS
10
107.928
20
-116.462
11
107.989
21
-116.497
0
LINE
8
BLACK
6
CONTINUOUS
10
107.989
20
-116.497
11
108.033
21
-116.55
0
LINE
8
BLACK
6
CONTINUOUS
10
108.033
20
-116.55
11
108.06
21
-116.65
0
LINE
8
BLACK
6
CONTINUOUS
10
108.06
20
-116.65
11
108.06
21
-117.05
0
LINE
8
BLACK
6
CONTINUOUS
10
108.06
20
-117.05
11
108.048
21
-117.118
0
LINE
8
BLACK
6
CONTINUOUS
10
108.048
20
-117.118
11
108.013
21
-117.179
0
LINE
8
BLACK
6
CONTINUOUS
10
108.013
20
-117.179
11
107.96
21
-117.223
0
LINE
8
BLACK
6
CONTINUOUS
10
107.96
20
-117.223
11
107.86
21
-117.25
0
LINE
8
BLACK
6
CONTINUOUS
10
107.86
20
-117.25
11
106.91
21
-117.25
0
LINE
8
BLACK
6
CONTINUOUS
10
106.91
20
-117.25
11
106.842
21
-117.238
0
LINE
8
BLACK
6
CONTINUOUS
10
106.842
20
-117.238
11
106.781
21
-117.203
0
LINE
8
BLACK
6
CONTINUOUS
10
106.781
20
-117.203
11
106.737
21
-117.15
0
LINE
8
BLACK
6
CONTINUOUS
10
106.737
20
-117.15
11
106.71
21
-117.05
0
LINE
8
BLACK
6
CONTINUOUS
10
106.71
20
-117.05
11
106.71
21
-116.65
0
LINE
8
BLACK
6
CONTINUOUS
10
106.71
20
-116.65
11
106.722
21
-116.582
0
LINE
8
BLACK
6
CONTINUOUS
10
106.722
20
-116.582
11
106.757
21
-116.521
0
LINE
8
BLACK
6
CONTINUOUS
10
106.757
20
-116.521
11
106.81
21
-116.477
0
LINE
8
BLACK
6
CONTINUOUS
10
106.81
20
-116.477
11
106.91
21
-116.45
0
LINE
8
BLACK
6
CONTINUOUS
10
106.91
20
-116.45
11
107.86
21
-116.45
0
LINE
8
BLACK
6
CONTINUOUS
10
107.86
20
-116.45
11
107.928
21
-116.462
0
LINE
8
BLACK
6
CONTINUOUS
10
110.54
20
-115.21
11
109.24
21
-115.21
0
LINE
8
BLACK
6
CONTINUOUS
10
109.24
20
-115.21
11
109.24
21
-112.81
0
LINE
8
BLACK
6
CONTINUOUS
10
109.24
20
-112.81
11
110.54
21
-112.81
0
LINE
8
BLACK
6
CONTINUOUS
10
110.54
20
-112.81
11
110.54
21
-115.21
0
LINE
8
BLACK
6
CONTINUOUS
10
107.54
20
-115.21
11
106.24
21
-115.21
0
LINE
8
BLACK
6
CONTINUOUS
10
106.24
20
-115.21
11
106.24
21
-112.81
0
LINE
8
BLACK
6
CONTINUOUS
10
106.24
20
-112.81
11
107.54
21
-112.81
0
LINE
8
BLACK
6
CONTINUOUS
10
107.54
20
-112.81
11
107.54
21
-115.21
0
LINE
8
BLACK
6
CONTINUOUS
10
105.254
20
-114.47
11
105.305
21
-114.499
0
LINE
8
BLACK
6
CONTINUOUS
10
105.305
20
-114.499
11
105.342
21
-114.544
0
LINE
8
BLACK
6
CONTINUOUS
10
105.342
20
-114.544
11
105.365
21
-114.629
0
LINE
8
BLACK
6
CONTINUOUS
10
105.365
20
-114.629
11
105.365
21
-114.966
0
LINE
8
BLACK
6
CONTINUOUS
10
105.365
20
-114.966
11
105.355
21
-115.024
0
LINE
8
BLACK
6
CONTINUOUS
10
105.355
20
-115.024
11
105.326
21
-115.075
0
LINE
8
BLACK
6
CONTINUOUS
10
105.326
20
-115.075
11
105.281
21
-115.112
0
LINE
8
BLACK
6
CONTINUOUS
10
105.281
20
-115.112
11
105.196
21
-115.135
0
LINE
8
BLACK
6
CONTINUOUS
10
105.196
20
-115.135
11
104.784
21
-115.135
0
LINE
8
BLACK
6
CONTINUOUS
10
104.784
20
-115.135
11
104.726
21
-115.125
0
LINE
8
BLACK
6
CONTINUOUS
10
104.726
20
-115.125
11
104.675
21
-115.096
0
LINE
8
BLACK
6
CONTINUOUS
10
104.675
20
-115.096
11
104.638
21
-115.051
0
LINE
8
BLACK
6
CONTINUOUS
10
104.638
20
-115.051
11
104.615
21
-114.966
0
LINE
8
BLACK
6
CONTINUOUS
10
104.615
20
-114.966
11
104.615
21
-114.629
0
LINE
8
BLACK
6
CONTINUOUS
10
104.615
20
-114.629
11
104.625
21
-114.571
0
LINE
8
BLACK
6
CONTINUOUS
10
104.625
20
-114.571
11
104.654
21
-114.52
0
LINE
8
BLACK
6
CONTINUOUS
10
104.654
20
-114.52
11
104.699
21
-114.483
0
LINE
8
BLACK
6
CONTINUOUS
10
104.699
20
-114.483
11
104.784
21
-114.46
0
LINE
8
BLACK
6
CONTINUOUS
10
104.784
20
-114.46
11
105.196
21
-114.46
0
LINE
8
BLACK
6
CONTINUOUS
10
105.196
20
-114.46
11
105.254
21
-114.47
0
LINE
8
BLACK
6
CONTINUOUS
10
105.254
20
-112.895
11
105.305
21
-112.924
0
LINE
8
BLACK
6
CONTINUOUS
10
105.305
20
-112.924
11
105.342
21
-112.969
0
LINE
8
BLACK
6
CONTINUOUS
10
105.342
20
-112.969
11
105.365
21
-113.054
0
LINE
8
BLACK
6
CONTINUOUS
10
105.365
20
-113.054
11
105.365
21
-113.391
0
LINE
8
BLACK
6
CONTINUOUS
10
105.365
20
-113.391
11
105.355
21
-113.449
0
LINE
8
BLACK
6
CONTINUOUS
10
105.355
20
-113.449
11
105.326
21
-113.5
0
LINE
8
BLACK
6
CONTINUOUS
10
105.326
20
-113.5
11
105.281
21
-113.537
0
LINE
8
BLACK
6
CONTINUOUS
10
105.281
20
-113.537
11
105.196
21
-113.56
0
LINE
8
BLACK
6
CONTINUOUS
10
105.196
20
-113.56
11
104.784
21
-113.56
0
LINE
8
BLACK
6
CONTINUOUS
10
104.784
20
-113.56
11
104.726
21
-113.55
0
LINE
8
BLACK
6
CONTINUOUS
10
104.726
20
-113.55
11
104.675
21
-113.521
0
LINE
8
BLACK
6
CONTINUOUS
10
104.675
20
-113.521
11
104.638
21
-113.476
0
LINE
8
BLACK
6
CONTINUOUS
10
104.638
20
-113.476
11
104.615
21
-113.391
0
LINE
8
BLACK
6
CONTINUOUS
10
104.615
20
-113.391
11
104.615
21
-113.054
0
LINE
8
BLACK
6
CONTINUOUS
10
104.615
20
-113.054
11
104.625
21
-112.996
0
LINE
8
BLACK
6
CONTINUOUS
10
104.625
20
-112.996
11
104.654
21
-112.945
0
LINE
8
BLACK
6
CONTINUOUS
10
104.654
20
-112.945
11
104.699
21
-112.908
0
LINE
8
BLACK
6
CONTINUOUS
10
104.699
20
-112.908
11
104.784
21
-112.885
0
LINE
8
BLACK
6
CONTINUOUS
10
104.784
20
-112.885
11
105.196
21
-112.885
0
LINE
8
BLACK
6
CONTINUOUS
10
105.196
20
-112.885
11
105.254
21
-112.895
0
LINE
8
BLACK
6
CONTINUOUS
10
118.112
20
-112.05
11
118.116
21
-112.052
0
LINE
8
BLACK
6
CONTINUOUS
10
118.116
20
-112.052
11
118.118
21
-112.055
0
LINE
8
BLACK
6
CONTINUOUS
10
118.118
20
-112.055
11
118.12
21
-112.061
0
LINE
8
BLACK
6
CONTINUOUS
10
118.12
20
-112.061
11
118.12
21
-112.661
0
LINE
8
BLACK
6
CONTINUOUS
10
118.12
20
-112.661
11
118.119
21
-112.666
0
LINE
8
BLACK
6
CONTINUOUS
10
118.119
20
-112.666
11
118.117
21
-112.669
0
LINE
8
BLACK
6
CONTINUOUS
10
118.117
20
-112.669
11
118.114
21
-112.672
0
LINE
8
BLACK
6
CONTINUOUS
10
118.114
20
-112.672
11
118.108
21
-112.674
0
LINE
8
BLACK
6
CONTINUOUS
10
118.108
20
-112.674
11
118.083
21
-112.674
0
LINE
8
BLACK
6
CONTINUOUS
10
118.083
20
-112.674
11
118.078
21
-112.673
0
LINE
8
BLACK
6
CONTINUOUS
10
118.078
20
-112.673
11
118.074
21
-112.671
0
LINE
8
BLACK
6
CONTINUOUS
10
118.074
20
-112.671
11
118.072
21
-112.668
0
LINE
8
BLACK
6
CONTINUOUS
10
118.072
20
-112.668
11
118.07
21
-112.661
0
LINE
8
BLACK
6
CONTINUOUS
10
118.07
20
-112.661
11
118.07
21
-112.061
0
LINE
8
BLACK
6
CONTINUOUS
10
118.07
20
-112.061
11
118.071
21
-112.057
0
LINE
8
BLACK
6
CONTINUOUS
10
118.071
20
-112.057
11
118.073
21
-112.053
0
LINE
8
BLACK
6
CONTINUOUS
10
118.073
20
-112.053
11
118.076
21
-112.051
0
LINE
8
BLACK
6
CONTINUOUS
10
118.076
20
-112.051
11
118.083
21
-112.049
0
LINE
8
BLACK
6
CONTINUOUS
10
118.083
20
-112.049
11
118.108
21
-112.049
0
LINE
8
BLACK
6
CONTINUOUS
10
118.108
20
-112.049
11
118.112
21
-112.05
0
LINE
8
BLACK
6
CONTINUOUS
10
115.612
20
-112.05
11
115.616
21
-112.052
0
LINE
8
BLACK
6
CONTINUOUS
10
115.616
20
-112.052
11
115.618
21
-112.055
0
LINE
8
BLACK
6
CONTINUOUS
10
115.618
20
-112.055
11
115.62
21
-112.061
0
LINE
8
BLACK
6
CONTINUOUS
10
115.62
20
-112.061
11
115.62
21
-112.661
0
LINE
8
BLACK
6
CONTINUOUS
10
115.62
20
-112.661
11
115.619
21
-112.666
0
LINE
8
BLACK
6
CONTINUOUS
10
115.619
20
-112.666
11
115.617
21
-112.669
0
LINE
8
BLACK
6
CONTINUOUS
10
115.617
20
-112.669
11
115.614
21
-112.672
0
LINE
8
BLACK
6
CONTINUOUS
10
115.614
20
-112.672
11
115.608
21
-112.674
0
LINE
8
BLACK
6
CONTINUOUS
10
115.608
20
-112.674
11
115.583
21
-112.674
0
LINE
8
BLACK
6
CONTINUOUS
10
115.583
20
-112.674
11
115.578
21
-112.673
0
LINE
8
BLACK
6
CONTINUOUS
10
115.578
20
-112.673
11
115.574
21
-112.671
0
LINE
8
BLACK
6
CONTINUOUS
10
115.574
20
-112.671
11
115.572
21
-112.668
0
LINE
8
BLACK
6
CONTINUOUS
10
115.572
20
-112.668
11
115.57
21
-112.661
0
LINE
8
BLACK
6
CONTINUOUS
10
115.57
20
-112.661
11
115.57
21
-112.061
0
LINE
8
BLACK
6
CONTINUOUS
10
115.57
20
-112.061
11
115.571
21
-112.057
0
LINE
8
BLACK
6
CONTINUOUS
10
115.571
20
-112.057
11
115.573
21
-112.053
0
LINE
8
BLACK
6
CONTINUOUS
10
115.573
20
-112.053
11
115.576
21
-112.051
0
LINE
8
BLACK
6
CONTINUOUS
10
115.576
20
-112.051
11
115.583
21
-112.049
0
LINE
8
BLACK
6
CONTINUOUS
10
115.583
20
-112.049
11
115.608
21
-112.049
0
LINE
8
BLACK
6
CONTINUOUS
10
115.608
20
-112.049
11
115.612
21
-112.05
0
LINE
8
BLACK
6
CONTINUOUS
10
116.112
20
-112.05
11
116.116
21
-112.052
0
LINE
8
BLACK
6
CONTINUOUS
10
116.116
20
-112.052
11
116.118
21
-112.055
0
LINE
8
BLACK
6
CONTINUOUS
10
116.118
20
-112.055
11
116.12
21
-112.061
0
LINE
8
BLACK
6
CONTINUOUS
10
116.12
20
-112.061
11
116.12
21
-112.661
0
LINE
8
BLACK
6
CONTINUOUS
10
116.12
20
-112.661
11
116.119
21
-112.666
0
LINE
8
BLACK
6
CONTINUOUS
10
116.119
20
-112.666
11
116.117
21
-112.669
0
LINE
8
BLACK
6
CONTINUOUS
10
116.117
20
-112.669
11
116.114
21
-112.672
0
LINE
8
BLACK
6
CONTINUOUS
10
116.114
20
-112.672
11
116.108
21
-112.674
0
LINE
8
BLACK
6
CONTINUOUS
10
116.108
20
-112.674
11
116.083
21
-112.674
0
LINE
8
BLACK
6
CONTINUOUS
10
116.083
20
-112.674
11
116.078
21
-112.673
0
LINE
8
BLACK
6
CONTINUOUS
10
116.078
20
-112.673
11
116.074
21
-112.671
0
LINE
8
BLACK
6
CONTINUOUS
10
116.074
20
-112.671
11
116.072
21
-112.668
0
LINE
8
BLACK
6
CONTINUOUS
10
116.072
20
-112.668
11
116.07
21
-112.661
0
LINE
8
BLACK
6
CONTINUOUS
10
116.07
20
-112.661
11
116.07
21
-112.061
0
LINE
8
BLACK
6
CONTINUOUS
10
116.07
20
-112.061
11
116.071
21
-112.057
0
LINE
8
BLACK
6
CONTINUOUS
10
116.071
20
-112.057
11
116.073
21
-112.053
0
LINE
8
BLACK
6
CONTINUOUS
10
116.073
20
-112.053
11
116.076
21
-112.051
0
LINE
8
BLACK
6
CONTINUOUS
10
116.076
20
-112.051
11
116.083
21
-112.049
0
LINE
8
BLACK
6
CONTINUOUS
10
116.083
20
-112.049
11
116.108
21
-112.049
0
LINE
8
BLACK
6
CONTINUOUS
10
116.108
20
-112.049
11
116.112
21
-112.05
0
LINE
8
BLACK
6
CONTINUOUS
10
116.612
20
-112.05
11
116.616
21
-112.052
0
LINE
8
BLACK
6
CONTINUOUS
10
116.616
20
-112.052
11
116.618
21
-112.055
0
LINE
8
BLACK
6
CONTINUOUS
10
116.618
20
-112.055
11
116.62
21
-112.061
0
LINE
8
BLACK
6
CONTINUOUS
10
116.62
20
-112.061
11
116.62
21
-112.661
0
LINE
8
BLACK
6
CONTINUOUS
10
116.62
20
-112.661
11
116.619
21
-112.666
0
LINE
8
BLACK
6
CONTINUOUS
10
116.619
20
-112.666
11
116.617
21
-112.669
0
LINE
8
BLACK
6
CONTINUOUS
10
116.617
20
-112.669
11
116.614
21
-112.672
0
LINE
8
BLACK
6
CONTINUOUS
10
116.614
20
-112.672
11
116.608
21
-112.674
0
LINE
8
BLACK
6
CONTINUOUS
10
116.608
20
-112.674
11
116.583
21
-112.674
0
LINE
8
BLACK
6
CONTINUOUS
10
116.583
20
-112.674
11
116.578
21
-112.673
0
LINE
8
BLACK
6
CONTINUOUS
10
116.578
20
-112.673
11
116.574
21
-112.671
0
LINE
8
BLACK
6
CONTINUOUS
10
116.574
20
-112.671
11
116.572
21
-112.668
0
LINE
8
BLACK
6
CONTINUOUS
10
116.572
20
-112.668
11
116.57
21
-112.661
0
LINE
8
BLACK
6
CONTINUOUS
10
116.57
20
-112.661
11
116.57
21
-112.061
0
LINE
8
BLACK
6
CONTINUOUS
10
116.57
20
-112.061
11
116.571
21
-112.057
0
LINE
8
BLACK
6
CONTINUOUS
10
116.571
20
-112.057
11
116.573
21
-112.053
0
LINE
8
BLACK
6
CONTINUOUS
10
116.573
20
-112.053
11
116.576
21
-112.051
0
LINE
8
BLACK
6
CONTINUOUS
10
116.576
20
-112.051
11
116.583
21
-112.049
0
LINE
8
BLACK
6
CONTINUOUS
10
116.583
20
-112.049
11
116.608
21
-112.049
0
LINE
8
BLACK
6
CONTINUOUS
10
116.608
20
-112.049
11
116.612
21
-112.05
0
LINE
8
BLACK
6
CONTINUOUS
10
117.112
20
-112.05
11
117.116
21
-112.052
0
LINE
8
BLACK
6
CONTINUOUS
10
117.116
20
-112.052
11
117.118
21
-112.055
0
LINE
8
BLACK
6
CONTINUOUS
10
117.118
20
-112.055
11
117.12
21
-112.061
0
LINE
8
BLACK
6
CONTINUOUS
10
117.12
20
-112.061
11
117.12
21
-112.661
0
LINE
8
BLACK
6
CONTINUOUS
10
117.12
20
-112.661
11
117.119
21
-112.666
0
LINE
8
BLACK
6
CONTINUOUS
10
117.119
20
-112.666
11
117.117
21
-112.669
0
LINE
8
BLACK
6
CONTINUOUS
10
117.117
20
-112.669
11
117.114
21
-112.672
0
LINE
8
BLACK
6
CONTINUOUS
10
117.114
20
-112.672
11
117.108
21
-112.674
0
LINE
8
BLACK
6
CONTINUOUS
10
117.108
20
-112.674
11
117.083
21
-112.674
0
LINE
8
BLACK
6
CONTINUOUS
10
117.083
20
-112.674
11
117.078
21
-112.673
0
LINE
8
BLACK
6
CONTINUOUS
10
117.078
20
-112.673
11
117.074
21
-112.671
0
LINE
8
BLACK
6
CONTINUOUS
10
117.074
20
-112.671
11
117.072
21
-112.668
0
LINE
8
BLACK
6
CONTINUOUS
10
117.072
20
-112.668
11
117.07
21
-112.661
0
LINE
8
BLACK
6
CONTINUOUS
10
117.07
20
-112.661
11
117.07
21
-112.061
0
LINE
8
BLACK
6
CONTINUOUS
10
117.07
20
-112.061
11
117.071
21
-112.057
0
LINE
8
BLACK
6
CONTINUOUS
10
117.071
20
-112.057
11
117.073
21
-112.053
0
LINE
8
BLACK
6
CONTINUOUS
10
117.073
20
-112.053
11
117.076
21
-112.051
0
LINE
8
BLACK
6
CONTINUOUS
10
117.076
20
-112.051
11
117.083
21
-112.049
0
LINE
8
BLACK
6
CONTINUOUS
10
117.083
20
-112.049
11
117.108
21
-112.049
0
LINE
8
BLACK
6
CONTINUOUS
10
117.108
20
-112.049
11
117.112
21
-112.05
0
LINE
8
BLACK
6
CONTINUOUS
10
117.612
20
-112.05
11
117.616
21
-112.052
0
LINE
8
BLACK
6
CONTINUOUS
10
117.616
20
-112.052
11
117.618
21
-112.055
0
LINE
8
BLACK
6
CONTINUOUS
10
117.618
20
-112.055
11
117.62
21
-112.061
0
LINE
8
BLACK
6
CONTINUOUS
10
117.62
20
-112.061
11
117.62
21
-112.661
0
LINE
8
BLACK
6
CONTINUOUS
10
117.62
20
-112.661
11
117.619
21
-112.666
0
LINE
8
BLACK
6
CONTINUOUS
10
117.619
20
-112.666
11
117.617
21
-112.669
0
LINE
8
BLACK
6
CONTINUOUS
10
117.617
20
-112.669
11
117.614
21
-112.672
0
LINE
8
BLACK
6
CONTINUOUS
10
117.614
20
-112.672
11
117.608
21
-112.674
0
LINE
8
BLACK
6
CONTINUOUS
10
117.608
20
-112.674
11
117.583
21
-112.674
0
LINE
8
BLACK
6
CONTINUOUS
10
117.583
20
-112.674
11
117.578
21
-112.673
0
LINE
8
BLACK
6
CONTINUOUS
10
117.578
20
-112.673
11
117.574
21
-112.671
0
LINE
8
BLACK
6
CONTINUOUS
10
117.574
20
-112.671
11
117.572
21
-112.668
0
LINE
8
BLACK
6
CONTINUOUS
10
117.572
20
-112.668
11
117.57
21
-112.661
0
LINE
8
BLACK
6
CONTINUOUS
10
117.57
20
-112.661
11
117.57
21
-112.061
0
LINE
8
BLACK
6
CONTINUOUS
10
117.57
20
-112.061
11
117.571
21
-112.057
0
LINE
8
BLACK
6
CONTINUOUS
10
117.571
20
-112.057
11
117.573
21
-112.053
0
LINE
8
BLACK
6
CONTINUOUS
10
117.573
20
-112.053
11
117.576
21
-112.051
0
LINE
8
BLACK
6
CONTINUOUS
10
117.576
20
-112.051
11
117.583
21
-112.049
0
LINE
8
BLACK
6
CONTINUOUS
10
117.583
20
-112.049
11
117.608
21
-112.049
0
LINE
8
BLACK
6
CONTINUOUS
10
117.608
20
-112.049
11
117.612
21
-112.05
0
LINE
8
BLACK
6
CONTINUOUS
10
115.212
20
-111.65
11
115.216
21
-111.652
0
LINE
8
BLACK
6
CONTINUOUS
10
115.216
20
-111.652
11
115.218
21
-111.655
0
LINE
8
BLACK
6
CONTINUOUS
10
115.218
20
-111.655
11
115.22
21
-111.661
0
LINE
8
BLACK
6
CONTINUOUS
10
115.22
20
-111.661
11
115.22
21
-111.686
0
LINE
8
BLACK
6
CONTINUOUS
10
115.22
20
-111.686
11
115.219
21
-111.691
0
LINE
8
BLACK
6
CONTINUOUS
10
115.219
20
-111.691
11
115.217
21
-111.694
0
LINE
8
BLACK
6
CONTINUOUS
10
115.217
20
-111.694
11
115.214
21
-111.697
0
LINE
8
BLACK
6
CONTINUOUS
10
115.214
20
-111.697
11
115.208
21
-111.699
0
LINE
8
BLACK
6
CONTINUOUS
10
115.208
20
-111.699
11
114.608
21
-111.699
0
LINE
8
BLACK
6
CONTINUOUS
10
114.608
20
-111.699
11
114.603
21
-111.698
0
LINE
8
BLACK
6
CONTINUOUS
10
114.603
20
-111.698
11
114.599
21
-111.696
0
LINE
8
BLACK
6
CONTINUOUS
10
114.599
20
-111.696
11
114.597
21
-111.693
0
LINE
8
BLACK
6
CONTINUOUS
10
114.597
20
-111.693
11
114.595
21
-111.686
0
LINE
8
BLACK
6
CONTINUOUS
10
114.595
20
-111.686
11
114.595
21
-111.661
0
LINE
8
BLACK
6
CONTINUOUS
10
114.595
20
-111.661
11
114.596
21
-111.657
0
LINE
8
BLACK
6
CONTINUOUS
10
114.596
20
-111.657
11
114.598
21
-111.653
0
LINE
8
BLACK
6
CONTINUOUS
10
114.598
20
-111.653
11
114.601
21
-111.651
0
LINE
8
BLACK
6
CONTINUOUS
10
114.601
20
-111.651
11
114.608
21
-111.649
0
LINE
8
BLACK
6
CONTINUOUS
10
114.608
20
-111.649
11
115.208
21
-111.649
0
LINE
8
BLACK
6
CONTINUOUS
10
115.208
20
-111.649
11
115.212
21
-111.65
0
LINE
8
BLACK
6
CONTINUOUS
10
119.087
20
-111.65
11
119.091
21
-111.652
0
LINE
8
BLACK
6
CONTINUOUS
10
119.091
20
-111.652
11
119.093
21
-111.655
0
LINE
8
BLACK
6
CONTINUOUS
10
119.093
20
-111.655
11
119.095
21
-111.661
0
LINE
8
BLACK
6
CONTINUOUS
10
119.095
20
-111.661
11
119.095
21
-111.686
0
LINE
8
BLACK
6
CONTINUOUS
10
119.095
20
-111.686
11
119.094
21
-111.691
0
LINE
8
BLACK
6
CONTINUOUS
10
119.094
20
-111.691
11
119.092
21
-111.694
0
LINE
8
BLACK
6
CONTINUOUS
10
119.092
20
-111.694
11
119.089
21
-111.697
0
LINE
8
BLACK
6
CONTINUOUS
10
119.089
20
-111.697
11
119.083
21
-111.699
0
LINE
8
BLACK
6
CONTINUOUS
10
119.083
20
-111.699
11
118.483
21
-111.699
0
LINE
8
BLACK
6
CONTINUOUS
10
118.483
20
-111.699
11
118.478
21
-111.698
0
LINE
8
BLACK
6
CONTINUOUS
10
118.478
20
-111.698
11
118.474
21
-111.696
0
LINE
8
BLACK
6
CONTINUOUS
10
118.474
20
-111.696
11
118.472
21
-111.693
0
LINE
8
BLACK
6
CONTINUOUS
10
118.472
20
-111.693
11
118.47
21
-111.686
0
LINE
8
BLACK
6
CONTINUOUS
10
118.47
20
-111.686
11
118.47
21
-111.661
0
LINE
8
BLACK
6
CONTINUOUS
10
118.47
20
-111.661
11
118.471
21
-111.657
0
LINE
8
BLACK
6
CONTINUOUS
10
118.471
20
-111.657
11
118.473
21
-111.653
0
LINE
8
BLACK
6
CONTINUOUS
10
118.473
20
-111.653
11
118.476
21
-111.651
0
LINE
8
BLACK
6
CONTINUOUS
10
118.476
20
-111.651
11
118.483
21
-111.649
0
LINE
8
BLACK
6
CONTINUOUS
10
118.483
20
-111.649
11
119.083
21
-111.649
0
LINE
8
BLACK
6
CONTINUOUS
10
119.083
20
-111.649
11
119.087
21
-111.65
0
LINE
8
BLACK
6
CONTINUOUS
10
117.856
20
-110.564
11
117.931
21
-110.607
0
LINE
8
BLACK
6
CONTINUOUS
10
117.931
20
-110.607
11
117.987
21
-110.674
0
LINE
8
BLACK
6
CONTINUOUS
10
117.987
20
-110.674
11
118.02
21
-110.799
0
LINE
8
BLACK
6
CONTINUOUS
10
118.02
20
-110.799
11
118.02
21
-111.349
0
LINE
8
BLACK
6
CONTINUOUS
10
118.02
20
-111.349
11
118.005
21
-111.434
0
LINE
8
BLACK
6
CONTINUOUS
10
118.005
20
-111.434
11
117.962
21
-111.51
0
LINE
8
BLACK
6
CONTINUOUS
10
117.962
20
-111.51
11
117.895
21
-111.565
0
LINE
8
BLACK
6
CONTINUOUS
10
117.895
20
-111.565
11
117.77
21
-111.599
0
LINE
8
BLACK
6
CONTINUOUS
10
117.77
20
-111.599
11
117.22
21
-111.599
0
LINE
8
BLACK
6
CONTINUOUS
10
117.22
20
-111.599
11
117.134
21
-111.584
0
LINE
8
BLACK
6
CONTINUOUS
10
117.134
20
-111.584
11
117.059
21
-111.54
0
LINE
8
BLACK
6
CONTINUOUS
10
117.059
20
-111.54
11
117.003
21
-111.474
0
LINE
8
BLACK
6
CONTINUOUS
10
117.003
20
-111.474
11
116.97
21
-111.349
0
LINE
8
BLACK
6
CONTINUOUS
10
116.97
20
-111.349
11
116.97
21
-110.799
0
LINE
8
BLACK
6
CONTINUOUS
10
116.97
20
-110.799
11
116.985
21
-110.713
0
LINE
8
BLACK
6
CONTINUOUS
10
116.985
20
-110.713
11
117.028
21
-110.638
0
LINE
8
BLACK
6
CONTINUOUS
10
117.028
20
-110.638
11
117.095
21
-110.582
0
LINE
8
BLACK
6
CONTINUOUS
10
117.095
20
-110.582
11
117.22
21
-110.549
0
LINE
8
BLACK
6
CONTINUOUS
10
117.22
20
-110.549
11
117.77
21
-110.549
0
LINE
8
BLACK
6
CONTINUOUS
10
117.77
20
-110.549
11
117.856
21
-110.564
0
LINE
8
BLACK
6
CONTINUOUS
10
116.556
20
-110.564
11
116.631
21
-110.607
0
LINE
8
BLACK
6
CONTINUOUS
10
116.631
20
-110.607
11
116.687
21
-110.674
0
LINE
8
BLACK
6
CONTINUOUS
10
116.687
20
-110.674
11
116.72
21
-110.799
0
LINE
8
BLACK
6
CONTINUOUS
10
116.72
20
-110.799
11
116.72
21
-111.349
0
LINE
8
BLACK
6
CONTINUOUS
10
116.72
20
-111.349
11
116.705
21
-111.434
0
LINE
8
BLACK
6
CONTINUOUS
10
116.705
20
-111.434
11
116.662
21
-111.51
0
LINE
8
BLACK
6
CONTINUOUS
10
116.662
20
-111.51
11
116.595
21
-111.565
0
LINE
8
BLACK
6
CONTINUOUS
10
116.595
20
-111.565
11
116.47
21
-111.599
0
LINE
8
BLACK
6
CONTINUOUS
10
116.47
20
-111.599
11
115.92
21
-111.599
0
LINE
8
BLACK
6
CONTINUOUS
10
115.92
20
-111.599
11
115.834
21
-111.584
0
LINE
8
BLACK
6
CONTINUOUS
10
115.834
20
-111.584
11
115.759
21
-111.54
0
LINE
8
BLACK
6
CONTINUOUS
10
115.759
20
-111.54
11
115.703
21
-111.474
0
LINE
8
BLACK
6
CONTINUOUS
10
115.703
20
-111.474
11
115.67
21
-111.349
0
LINE
8
BLACK
6
CONTINUOUS
10
115.67
20
-111.349
11
115.67
21
-110.799
0
LINE
8
BLACK
6
CONTINUOUS
10
115.67
20
-110.799
11
115.685
21
-110.713
0
LINE
8
BLACK
6
CONTINUOUS
10
115.685
20
-110.713
11
115.728
21
-110.638
0
LINE
8
BLACK
6
CONTINUOUS
10
115.728
20
-110.638
11
115.795
21
-110.582
0
LINE
8
BLACK
6
CONTINUOUS
10
115.795
20
-110.582
11
115.92
21
-110.549
0
LINE
8
BLACK
6
CONTINUOUS
10
115.92
20
-110.549
11
116.47
21
-110.549
0
LINE
8
BLACK
6
CONTINUOUS
10
116.47
20
-110.549
11
116.556
21
-110.564
0
LINE
8
BLACK
6
CONTINUOUS
10
115.212
20
-111.15
11
115.216
21
-111.152
0
LINE
8
BLACK
6
CONTINUOUS
10
115.216
20
-111.152
11
115.218
21
-111.155
0
LINE
8
BLACK
6
CONTINUOUS
10
115.218
20
-111.155
11
115.22
21
-111.161
0
LINE
8
BLACK
6
CONTINUOUS
10
115.22
20
-111.161
11
115.22
21
-111.186
0
LINE
8
BLACK
6
CONTINUOUS
10
115.22
20
-111.186
11
115.219
21
-111.191
0
LINE
8
BLACK
6
CONTINUOUS
10
115.219
20
-111.191
11
115.217
21
-111.194
0
LINE
8
BLACK
6
CONTINUOUS
10
115.217
20
-111.194
11
115.214
21
-111.197
0
LINE
8
BLACK
6
CONTINUOUS
10
115.214
20
-111.197
11
115.208
21
-111.199
0
LINE
8
BLACK
6
CONTINUOUS
10
115.208
20
-111.199
11
114.608
21
-111.199
0
LINE
8
BLACK
6
CONTINUOUS
10
114.608
20
-111.199
11
114.603
21
-111.198
0
LINE
8
BLACK
6
CONTINUOUS
10
114.603
20
-111.198
11
114.599
21
-111.196
0
LINE
8
BLACK
6
CONTINUOUS
10
114.599
20
-111.196
11
114.597
21
-111.193
0
LINE
8
BLACK
6
CONTINUOUS
10
114.597
20
-111.193
11
114.595
21
-111.186
0
LINE
8
BLACK
6
CONTINUOUS
10
114.595
20
-111.186
11
114.595
21
-111.161
0
LINE
8
BLACK
6
CONTINUOUS
10
114.595
20
-111.161
11
114.596
21
-111.157
0
LINE
8
BLACK
6
CONTINUOUS
10
114.596
20
-111.157
11
114.598
21
-111.153
0
LINE
8
BLACK
6
CONTINUOUS
10
114.598
20
-111.153
11
114.601
21
-111.151
0
LINE
8
BLACK
6
CONTINUOUS
10
114.601
20
-111.151
11
114.608
21
-111.149
0
LINE
8
BLACK
6
CONTINUOUS
10
114.608
20
-111.149
11
115.208
21
-111.149
0
LINE
8
BLACK
6
CONTINUOUS
10
115.208
20
-111.149
11
115.212
21
-111.15
0
LINE
8
BLACK
6
CONTINUOUS
10
119.087
20
-111.15
11
119.091
21
-111.152
0
LINE
8
BLACK
6
CONTINUOUS
10
119.091
20
-111.152
11
119.093
21
-111.155
0
LINE
8
BLACK
6
CONTINUOUS
10
119.093
20
-111.155
11
119.095
21
-111.161
0
LINE
8
BLACK
6
CONTINUOUS
10
119.095
20
-111.161
11
119.095
21
-111.186
0
LINE
8
BLACK
6
CONTINUOUS
10
119.095
20
-111.186
11
119.094
21
-111.191
0
LINE
8
BLACK
6
CONTINUOUS
10
119.094
20
-111.191
11
119.092
21
-111.194
0
LINE
8
BLACK
6
CONTINUOUS
10
119.092
20
-111.194
11
119.089
21
-111.197
0
LINE
8
BLACK
6
CONTINUOUS
10
119.089
20
-111.197
11
119.083
21
-111.199
0
LINE
8
BLACK
6
CONTINUOUS
10
119.083
20
-111.199
11
118.483
21
-111.199
0
LINE
8
BLACK
6
CONTINUOUS
10
118.483
20
-111.199
11
118.478
21
-111.198
0
LINE
8
BLACK
6
CONTINUOUS
10
118.478
20
-111.198
11
118.474
21
-111.196
0
LINE
8
BLACK
6
CONTINUOUS
10
118.474
20
-111.196
11
118.472
21
-111.193
0
LINE
8
BLACK
6
CONTINUOUS
10
118.472
20
-111.193
11
118.47
21
-111.186
0
LINE
8
BLACK
6
CONTINUOUS
10
118.47
20
-111.186
11
118.47
21
-111.161
0
LINE
8
BLACK
6
CONTINUOUS
10
118.47
20
-111.161
11
118.471
21
-111.157
0
LINE
8
BLACK
6
CONTINUOUS
10
118.471
20
-111.157
11
118.473
21
-111.153
0
LINE
8
BLACK
6
CONTINUOUS
10
118.473
20
-111.153
11
118.476
21
-111.151
0
LINE
8
BLACK
6
CONTINUOUS
10
118.476
20
-111.151
11
118.483
21
-111.149
0
LINE
8
BLACK
6
CONTINUOUS
10
118.483
20
-111.149
11
119.083
21
-111.149
0
LINE
8
BLACK
6
CONTINUOUS
10
119.083
20
-111.149
11
119.087
21
-111.15
0
LINE
8
BLACK
6
CONTINUOUS
10
113.006
20
-110.596
11
113.035
21
-110.613
0
LINE
8
BLACK
6
CONTINUOUS
10
113.035
20
-110.613
11
113.057
21
-110.639
0
LINE
8
BLACK
6
CONTINUOUS
10
113.057
20
-110.639
11
113.07
21
-110.688
0
LINE
8
BLACK
6
CONTINUOUS
10
113.07
20
-110.688
11
113.07
21
-110.882
0
LINE
8
BLACK
6
CONTINUOUS
10
113.07
20
-110.882
11
113.064
21
-110.916
0
LINE
8
BLACK
6
CONTINUOUS
10
113.064
20
-110.916
11
113.047
21
-110.945
0
LINE
8
BLACK
6
CONTINUOUS
10
113.047
20
-110.945
11
113.021
21
-110.967
0
LINE
8
BLACK
6
CONTINUOUS
10
113.021
20
-110.967
11
112.972
21
-110.98
0
LINE
8
BLACK
6
CONTINUOUS
10
112.972
20
-110.98
11
112.727
21
-110.98
0
LINE
8
BLACK
6
CONTINUOUS
10
112.727
20
-110.98
11
112.694
21
-110.974
0
LINE
8
BLACK
6
CONTINUOUS
10
112.694
20
-110.974
11
112.665
21
-110.957
0
LINE
8
BLACK
6
CONTINUOUS
10
112.665
20
-110.957
11
112.643
21
-110.931
0
LINE
8
BLACK
6
CONTINUOUS
10
112.643
20
-110.931
11
112.63
21
-110.882
0
LINE
8
BLACK
6
CONTINUOUS
10
112.63
20
-110.882
11
112.63
21
-110.688
0
LINE
8
BLACK
6
CONTINUOUS
10
112.63
20
-110.688
11
112.636
21
-110.654
0
LINE
8
BLACK
6
CONTINUOUS
10
112.636
20
-110.654
11
112.653
21
-110.625
0
LINE
8
BLACK
6
CONTINUOUS
10
112.653
20
-110.625
11
112.679
21
-110.603
0
LINE
8
BLACK
6
CONTINUOUS
10
112.679
20
-110.603
11
112.727
21
-110.59
0
LINE
8
BLACK
6
CONTINUOUS
10
112.727
20
-110.59
11
112.972
21
-110.59
0
LINE
8
BLACK
6
CONTINUOUS
10
112.972
20
-110.59
11
113.006
21
-110.596
0
LINE
8
BLACK
6
CONTINUOUS
10
119.087
20
-110.65
11
119.091
21
-110.652
0
LINE
8
BLACK
6
CONTINUOUS
10
119.091
20
-110.652
11
119.093
21
-110.655
0
LINE
8
BLACK
6
CONTINUOUS
10
119.093
20
-110.655
11
119.095
21
-110.661
0
LINE
8
BLACK
6
CONTINUOUS
10
119.095
20
-110.661
11
119.095
21
-110.686
0
LINE
8
BLACK
6
CONTINUOUS
10
119.095
20
-110.686
11
119.094
21
-110.691
0
LINE
8
BLACK
6
CONTINUOUS
10
119.094
20
-110.691
11
119.092
21
-110.694
0
LINE
8
BLACK
6
CONTINUOUS
10
119.092
20
-110.694
11
119.089
21
-110.697
0
LINE
8
BLACK
6
CONTINUOUS
10
119.089
20
-110.697
11
119.083
21
-110.699
0
LINE
8
BLACK
6
CONTINUOUS
10
119.083
20
-110.699
11
118.483
21
-110.699
0
LINE
8
BLACK
6
CONTINUOUS
10
118.483
20
-110.699
11
118.478
21
-110.698
0
LINE
8
BLACK
6
CONTINUOUS
10
118.478
20
-110.698
11
118.474
21
-110.696
0
LINE
8
BLACK
6
CONTINUOUS
10
118.474
20
-110.696
11
118.472
21
-110.693
0
LINE
8
BLACK
6
CONTINUOUS
10
118.472
20
-110.693
11
118.47
21
-110.686
0
LINE
8
BLACK
6
CONTINUOUS
10
118.47
20
-110.686
11
118.47
21
-110.661
0
LINE
8
BLACK
6
CONTINUOUS
10
118.47
20
-110.661
11
118.471
21
-110.657
0
LINE
8
BLACK
6
CONTINUOUS
10
118.471
20
-110.657
11
118.473
21
-110.653
0
LINE
8
BLACK
6
CONTINUOUS
10
118.473
20
-110.653
11
118.476
21
-110.651
0
LINE
8
BLACK
6
CONTINUOUS
10
118.476
20
-110.651
11
118.483
21
-110.649
0
LINE
8
BLACK
6
CONTINUOUS
10
118.483
20
-110.649
11
119.083
21
-110.649
0
LINE
8
BLACK
6
CONTINUOUS
10
119.083
20
-110.649
11
119.087
21
-110.65
0
LINE
8
BLACK
6
CONTINUOUS
10
115.212
20
-110.65
11
115.216
21
-110.652
0
LINE
8
BLACK
6
CONTINUOUS
10
115.216
20
-110.652
11
115.218
21
-110.655
0
LINE
8
BLACK
6
CONTINUOUS
10
115.218
20
-110.655
11
115.22
21
-110.661
0
LINE
8
BLACK
6
CONTINUOUS
10
115.22
20
-110.661
11
115.22
21
-110.686
0
LINE
8
BLACK
6
CONTINUOUS
10
115.22
20
-110.686
11
115.219
21
-110.691
0
LINE
8
BLACK
6
CONTINUOUS
10
115.219
20
-110.691
11
115.217
21
-110.694
0
LINE
8
BLACK
6
CONTINUOUS
10
115.217
20
-110.694
11
115.214
21
-110.697
0
LINE
8
BLACK
6
CONTINUOUS
10
115.214
20
-110.697
11
115.208
21
-110.699
0
LINE
8
BLACK
6
CONTINUOUS
10
115.208
20
-110.699
11
114.608
21
-110.699
0
LINE
8
BLACK
6
CONTINUOUS
10
114.608
20
-110.699
11
114.603
21
-110.698
0
LINE
8
BLACK
6
CONTINUOUS
10
114.603
20
-110.698
11
114.599
21
-110.696
0
LINE
8
BLACK
6
CONTINUOUS
10
114.599
20
-110.696
11
114.597
21
-110.693
0
LINE
8
BLACK
6
CONTINUOUS
10
114.597
20
-110.693
11
114.595
21
-110.686
0
LINE
8
BLACK
6
CONTINUOUS
10
114.595
20
-110.686
11
114.595
21
-110.661
0
LINE
8
BLACK
6
CONTINUOUS
10
114.595
20
-110.661
11
114.596
21
-110.657
0
LINE
8
BLACK
6
CONTINUOUS
10
114.596
20
-110.657
11
114.598
21
-110.653
0
LINE
8
BLACK
6
CONTINUOUS
10
114.598
20
-110.653
11
114.601
21
-110.651
0
LINE
8
BLACK
6
CONTINUOUS
10
114.601
20
-110.651
11
114.608
21
-110.649
0
LINE
8
BLACK
6
CONTINUOUS
10
114.608
20
-110.649
11
115.208
21
-110.649
0
LINE
8
BLACK
6
CONTINUOUS
10
115.208
20
-110.649
11
115.212
21
-110.65
0
LINE
8
BLACK
6
CONTINUOUS
10
116.556
20
-109.264
11
116.631
21
-109.307
0
LINE
8
BLACK
6
CONTINUOUS
10
116.631
20
-109.307
11
116.687
21
-109.374
0
LINE
8
BLACK
6
CONTINUOUS
10
116.687
20
-109.374
11
116.72
21
-109.499
0
LINE
8
BLACK
6
CONTINUOUS
10
116.72
20
-109.499
11
116.72
21
-110.049
0
LINE
8
BLACK
6
CONTINUOUS
10
116.72
20
-110.049
11
116.705
21
-110.134
0
LINE
8
BLACK
6
CONTINUOUS
10
116.705
20
-110.134
11
116.662
21
-110.21
0
LINE
8
BLACK
6
CONTINUOUS
10
116.662
20
-110.21
11
116.595
21
-110.265
0
LINE
8
BLACK
6
CONTINUOUS
10
116.595
20
-110.265
11
116.47
21
-110.299
0
LINE
8
BLACK
6
CONTINUOUS
10
116.47
20
-110.299
11
115.92
21
-110.299
0
LINE
8
BLACK
6
CONTINUOUS
10
115.92
20
-110.299
11
115.834
21
-110.284
0
LINE
8
BLACK
6
CONTINUOUS
10
115.834
20
-110.284
11
115.759
21
-110.24
0
LINE
8
BLACK
6
CONTINUOUS
10
115.759
20
-110.24
11
115.703
21
-110.174
0
LINE
8
BLACK
6
CONTINUOUS
10
115.703
20
-110.174
11
115.67
21
-110.049
0
LINE
8
BLACK
6
CONTINUOUS
10
115.67
20
-110.049
11
115.67
21
-109.499
0
LINE
8
BLACK
6
CONTINUOUS
10
115.67
20
-109.499
11
115.685
21
-109.413
0
LINE
8
BLACK
6
CONTINUOUS
10
115.685
20
-109.413
11
115.728
21
-109.338
0
LINE
8
BLACK
6
CONTINUOUS
10
115.728
20
-109.338
11
115.795
21
-109.282
0
LINE
8
BLACK
6
CONTINUOUS
10
115.795
20
-109.282
11
115.92
21
-109.249
0
LINE
8
BLACK
6
CONTINUOUS
10
115.92
20
-109.249
11
116.47
21
-109.249
0
LINE
8
BLACK
6
CONTINUOUS
10
116.47
20
-109.249
11
116.556
21
-109.264
0
LINE
8
BLACK
6
CONTINUOUS
10
117.856
20
-109.264
11
117.931
21
-109.307
0
LINE
8
BLACK
6
CONTINUOUS
10
117.931
20
-109.307
11
117.987
21
-109.374
0
LINE
8
BLACK
6
CONTINUOUS
10
117.987
20
-109.374
11
118.02
21
-109.499
0
LINE
8
BLACK
6
CONTINUOUS
10
118.02
20
-109.499
11
118.02
21
-110.049
0
LINE
8
BLACK
6
CONTINUOUS
10
118.02
20
-110.049
11
118.005
21
-110.134
0
LINE
8
BLACK
6
CONTINUOUS
10
118.005
20
-110.134
11
117.962
21
-110.21
0
LINE
8
BLACK
6
CONTINUOUS
10
117.962
20
-110.21
11
117.895
21
-110.265
0
LINE
8
BLACK
6
CONTINUOUS
10
117.895
20
-110.265
11
117.77
21
-110.299
0
LINE
8
BLACK
6
CONTINUOUS
10
117.77
20
-110.299
11
117.22
21
-110.299
0
LINE
8
BLACK
6
CONTINUOUS
10
117.22
20
-110.299
11
117.134
21
-110.284
0
LINE
8
BLACK
6
CONTINUOUS
10
117.134
20
-110.284
11
117.059
21
-110.24
0
LINE
8
BLACK
6
CONTINUOUS
10
117.059
20
-110.24
11
117.003
21
-110.174
0
LINE
8
BLACK
6
CONTINUOUS
10
117.003
20
-110.174
11
116.97
21
-110.049
0
LINE
8
BLACK
6
CONTINUOUS
10
116.97
20
-110.049
11
116.97
21
-109.499
0
LINE
8
BLACK
6
CONTINUOUS
10
116.97
20
-109.499
11
116.985
21
-109.413
0
LINE
8
BLACK
6
CONTINUOUS
10
116.985
20
-109.413
11
117.028
21
-109.338
0
LINE
8
BLACK
6
CONTINUOUS
10
117.028
20
-109.338
11
117.095
21
-109.282
0
LINE
8
BLACK
6
CONTINUOUS
10
117.095
20
-109.282
11
117.22
21
-109.249
0
LINE
8
BLACK
6
CONTINUOUS
10
117.22
20
-109.249
11
117.77
21
-109.249
0
LINE
8
BLACK
6
CONTINUOUS
10
117.77
20
-109.249
11
117.856
21
-109.264
0
LINE
8
BLACK
6
CONTINUOUS
10
115.212
20
-110.15
11
115.216
21
-110.152
0
LINE
8
BLACK
6
CONTINUOUS
10
115.216
20
-110.152
11
115.218
21
-110.155
0
LINE
8
BLACK
6
CONTINUOUS
10
115.218
20
-110.155
11
115.22
21
-110.161
0
LINE
8
BLACK
6
CONTINUOUS
10
115.22
20
-110.161
11
115.22
21
-110.186
0
LINE
8
BLACK
6
CONTINUOUS
10
115.22
20
-110.186
11
115.219
21
-110.191
0
LINE
8
BLACK
6
CONTINUOUS
10
115.219
20
-110.191
11
115.217
21
-110.194
0
LINE
8
BLACK
6
CONTINUOUS
10
115.217
20
-110.194
11
115.214
21
-110.197
0
LINE
8
BLACK
6
CONTINUOUS
10
115.214
20
-110.197
11
115.208
21
-110.199
0
LINE
8
BLACK
6
CONTINUOUS
10
115.208
20
-110.199
11
114.608
21
-110.199
0
LINE
8
BLACK
6
CONTINUOUS
10
114.608
20
-110.199
11
114.603
21
-110.198
0
LINE
8
BLACK
6
CONTINUOUS
10
114.603
20
-110.198
11
114.599
21
-110.196
0
LINE
8
BLACK
6
CONTINUOUS
10
114.599
20
-110.196
11
114.597
21
-110.193
0
LINE
8
BLACK
6
CONTINUOUS
10
114.597
20
-110.193
11
114.595
21
-110.186
0
LINE
8
BLACK
6
CONTINUOUS
10
114.595
20
-110.186
11
114.595
21
-110.161
0
LINE
8
BLACK
6
CONTINUOUS
10
114.595
20
-110.161
11
114.596
21
-110.157
0
LINE
8
BLACK
6
CONTINUOUS
10
114.596
20
-110.157
11
114.598
21
-110.153
0
LINE
8
BLACK
6
CONTINUOUS
10
114.598
20
-110.153
11
114.601
21
-110.151
0
LINE
8
BLACK
6
CONTINUOUS
10
114.601
20
-110.151
11
114.608
21
-110.149
0
LINE
8
BLACK
6
CONTINUOUS
10
114.608
20
-110.149
11
115.208
21
-110.149
0
LINE
8
BLACK
6
CONTINUOUS
10
115.208
20
-110.149
11
115.212
21
-110.15
0
LINE
8
BLACK
6
CONTINUOUS
10
119.087
20
-110.15
11
119.091
21
-110.152
0
LINE
8
BLACK
6
CONTINUOUS
10
119.091
20
-110.152
11
119.093
21
-110.155
0
LINE
8
BLACK
6
CONTINUOUS
10
119.093
20
-110.155
11
119.095
21
-110.161
0
LINE
8
BLACK
6
CONTINUOUS
10
119.095
20
-110.161
11
119.095
21
-110.186
0
LINE
8
BLACK
6
CONTINUOUS
10
119.095
20
-110.186
11
119.094
21
-110.191
0
LINE
8
BLACK
6
CONTINUOUS
10
119.094
20
-110.191
11
119.092
21
-110.194
0
LINE
8
BLACK
6
CONTINUOUS
10
119.092
20
-110.194
11
119.089
21
-110.197
0
LINE
8
BLACK
6
CONTINUOUS
10
119.089
20
-110.197
11
119.083
21
-110.199
0
LINE
8
BLACK
6
CONTINUOUS
10
119.083
20
-110.199
11
118.483
21
-110.199
0
LINE
8
BLACK
6
CONTINUOUS
10
118.483
20
-110.199
11
118.478
21
-110.198
0
LINE
8
BLACK
6
CONTINUOUS
10
118.478
20
-110.198
11
118.474
21
-110.196
0
LINE
8
BLACK
6
CONTINUOUS
10
118.474
20
-110.196
11
118.472
21
-110.193
0
LINE
8
BLACK
6
CONTINUOUS
10
118.472
20
-110.193
11
118.47
21
-110.186
0
LINE
8
BLACK
6
CONTINUOUS
10
118.47
20
-110.186
11
118.47
21
-110.161
0
LINE
8
BLACK
6
CONTINUOUS
10
118.47
20
-110.161
11
118.471
21
-110.157
0
LINE
8
BLACK
6
CONTINUOUS
10
118.471
20
-110.157
11
118.473
21
-110.153
0
LINE
8
BLACK
6
CONTINUOUS
10
118.473
20
-110.153
11
118.476
21
-110.151
0
LINE
8
BLACK
6
CONTINUOUS
10
118.476
20
-110.151
11
118.483
21
-110.149
0
LINE
8
BLACK
6
CONTINUOUS
10
118.483
20
-110.149
11
119.083
21
-110.149
0
LINE
8
BLACK
6
CONTINUOUS
10
119.083
20
-110.149
11
119.087
21
-110.15
0
LINE
8
BLACK
6
CONTINUOUS
10
113.006
20
-109.626
11
113.035
21
-109.643
0
LINE
8
BLACK
6
CONTINUOUS
10
113.035
20
-109.643
11
113.057
21
-109.669
0
LINE
8
BLACK
6
CONTINUOUS
10
113.057
20
-109.669
11
113.07
21
-109.718
0
LINE
8
BLACK
6
CONTINUOUS
10
113.07
20
-109.718
11
113.07
21
-109.912
0
LINE
8
BLACK
6
CONTINUOUS
10
113.07
20
-109.912
11
113.064
21
-109.946
0
LINE
8
BLACK
6
CONTINUOUS
10
113.064
20
-109.946
11
113.047
21
-109.975
0
LINE
8
BLACK
6
CONTINUOUS
10
113.047
20
-109.975
11
113.021
21
-109.997
0
LINE
8
BLACK
6
CONTINUOUS
10
113.021
20
-109.997
11
112.972
21
-110.01
0
LINE
8
BLACK
6
CONTINUOUS
10
112.972
20
-110.01
11
112.727
21
-110.01
0
LINE
8
BLACK
6
CONTINUOUS
10
112.727
20
-110.01
11
112.694
21
-110.004
0
LINE
8
BLACK
6
CONTINUOUS
10
112.694
20
-110.004
11
112.665
21
-109.987
0
LINE
8
BLACK
6
CONTINUOUS
10
112.665
20
-109.987
11
112.643
21
-109.961
0
LINE
8
BLACK
6
CONTINUOUS
10
112.643
20
-109.961
11
112.63
21
-109.912
0
LINE
8
BLACK
6
CONTINUOUS
10
112.63
20
-109.912
11
112.63
21
-109.718
0
LINE
8
BLACK
6
CONTINUOUS
10
112.63
20
-109.718
11
112.636
21
-109.684
0
LINE
8
BLACK
6
CONTINUOUS
10
112.636
20
-109.684
11
112.653
21
-109.655
0
LINE
8
BLACK
6
CONTINUOUS
10
112.653
20
-109.655
11
112.679
21
-109.633
0
LINE
8
BLACK
6
CONTINUOUS
10
112.679
20
-109.633
11
112.727
21
-109.62
0
LINE
8
BLACK
6
CONTINUOUS
10
112.727
20
-109.62
11
112.972
21
-109.62
0
LINE
8
BLACK
6
CONTINUOUS
10
112.972
20
-109.62
11
113.006
21
-109.626
0
LINE
8
BLACK
6
CONTINUOUS
10
119.087
20
-109.65
11
119.091
21
-109.652
0
LINE
8
BLACK
6
CONTINUOUS
10
119.091
20
-109.652
11
119.093
21
-109.655
0
LINE
8
BLACK
6
CONTINUOUS
10
119.093
20
-109.655
11
119.095
21
-109.661
0
LINE
8
BLACK
6
CONTINUOUS
10
119.095
20
-109.661
11
119.095
21
-109.686
0
LINE
8
BLACK
6
CONTINUOUS
10
119.095
20
-109.686
11
119.094
21
-109.691
0
LINE
8
BLACK
6
CONTINUOUS
10
119.094
20
-109.691
11
119.092
21
-109.694
0
LINE
8
BLACK
6
CONTINUOUS
10
119.092
20
-109.694
11
119.089
21
-109.697
0
LINE
8
BLACK
6
CONTINUOUS
10
119.089
20
-109.697
11
119.083
21
-109.699
0
LINE
8
BLACK
6
CONTINUOUS
10
119.083
20
-109.699
11
118.483
21
-109.699
0
LINE
8
BLACK
6
CONTINUOUS
10
118.483
20
-109.699
11
118.478
21
-109.698
0
LINE
8
BLACK
6
CONTINUOUS
10
118.478
20
-109.698
11
118.474
21
-109.696
0
LINE
8
BLACK
6
CONTINUOUS
10
118.474
20
-109.696
11
118.472
21
-109.693
0
LINE
8
BLACK
6
CONTINUOUS
10
118.472
20
-109.693
11
118.47
21
-109.686
0
LINE
8
BLACK
6
CONTINUOUS
10
118.47
20
-109.686
11
118.47
21
-109.661
0
LINE
8
BLACK
6
CONTINUOUS
10
118.47
20
-109.661
11
118.471
21
-109.657
0
LINE
8
BLACK
6
CONTINUOUS
10
118.471
20
-109.657
11
118.473
21
-109.653
0
LINE
8
BLACK
6
CONTINUOUS
10
118.473
20
-109.653
11
118.476
21
-109.651
0
LINE
8
BLACK
6
CONTINUOUS
10
118.476
20
-109.651
11
118.483
21
-109.649
0
LINE
8
BLACK
6
CONTINUOUS
10
118.483
20
-109.649
11
119.083
21
-109.649
0
LINE
8
BLACK
6
CONTINUOUS
10
119.083
20
-109.649
11
119.087
21
-109.65
0
LINE
8
BLACK
6
CONTINUOUS
10
115.212
20
-109.65
11
115.216
21
-109.652
0
LINE
8
BLACK
6
CONTINUOUS
10
115.216
20
-109.652
11
115.218
21
-109.655
0
LINE
8
BLACK
6
CONTINUOUS
10
115.218
20
-109.655
11
115.22
21
-109.661
0
LINE
8
BLACK
6
CONTINUOUS
10
115.22
20
-109.661
11
115.22
21
-109.686
0
LINE
8
BLACK
6
CONTINUOUS
10
115.22
20
-109.686
11
115.219
21
-109.691
0
LINE
8
BLACK
6
CONTINUOUS
10
115.219
20
-109.691
11
115.217
21
-109.694
0
LINE
8
BLACK
6
CONTINUOUS
10
115.217
20
-109.694
11
115.214
21
-109.697
0
LINE
8
BLACK
6
CONTINUOUS
10
115.214
20
-109.697
11
115.208
21
-109.699
0
LINE
8
BLACK
6
CONTINUOUS
10
115.208
20
-109.699
11
114.608
21
-109.699
0
LINE
8
BLACK
6
CONTINUOUS
10
114.608
20
-109.699
11
114.603
21
-109.698
0
LINE
8
BLACK
6
CONTINUOUS
10
114.603
20
-109.698
11
114.599
21
-109.696
0
LINE
8
BLACK
6
CONTINUOUS
10
114.599
20
-109.696
11
114.597
21
-109.693
0
LINE
8
BLACK
6
CONTINUOUS
10
114.597
20
-109.693
11
114.595
21
-109.686
0
LINE
8
BLACK
6
CONTINUOUS
10
114.595
20
-109.686
11
114.595
21
-109.661
0
LINE
8
BLACK
6
CONTINUOUS
10
114.595
20
-109.661
11
114.596
21
-109.657
0
LINE
8
BLACK
6
CONTINUOUS
10
114.596
20
-109.657
11
114.598
21
-109.653
0
LINE
8
BLACK
6
CONTINUOUS
10
114.598
20
-109.653
11
114.601
21
-109.651
0
LINE
8
BLACK
6
CONTINUOUS
10
114.601
20
-109.651
11
114.608
21
-109.649
0
LINE
8
BLACK
6
CONTINUOUS
10
114.608
20
-109.649
11
115.208
21
-109.649
0
LINE
8
BLACK
6
CONTINUOUS
10
115.208
20
-109.649
11
115.212
21
-109.65
0
LINE
8
BLACK
6
CONTINUOUS
10
115.212
20
-109.15
11
115.216
21
-109.152
0
LINE
8
BLACK
6
CONTINUOUS
10
115.216
20
-109.152
11
115.218
21
-109.155
0
LINE
8
BLACK
6
CONTINUOUS
10
115.218
20
-109.155
11
115.22
21
-109.161
0
LINE
8
BLACK
6
CONTINUOUS
10
115.22
20
-109.161
11
115.22
21
-109.186
0
LINE
8
BLACK
6
CONTINUOUS
10
115.22
20
-109.186
11
115.219
21
-109.191
0
LINE
8
BLACK
6
CONTINUOUS
10
115.219
20
-109.191
11
115.217
21
-109.194
0
LINE
8
BLACK
6
CONTINUOUS
10
115.217
20
-109.194
11
115.214
21
-109.197
0
LINE
8
BLACK
6
CONTINUOUS
10
115.214
20
-109.197
11
115.208
21
-109.199
0
LINE
8
BLACK
6
CONTINUOUS
10
115.208
20
-109.199
11
114.608
21
-109.199
0
LINE
8
BLACK
6
CONTINUOUS
10
114.608
20
-109.199
11
114.603
21
-109.198
0
LINE
8
BLACK
6
CONTINUOUS
10
114.603
20
-109.198
11
114.599
21
-109.196
0
LINE
8
BLACK
6
CONTINUOUS
10
114.599
20
-109.196
11
114.597
21
-109.193
0
LINE
8
BLACK
6
CONTINUOUS
10
114.597
20
-109.193
11
114.595
21
-109.186
0
LINE
8
BLACK
6
CONTINUOUS
10
114.595
20
-109.186
11
114.595
21
-109.161
0
LINE
8
BLACK
6
CONTINUOUS
10
114.595
20
-109.161
11
114.596
21
-109.157
0
LINE
8
BLACK
6
CONTINUOUS
10
114.596
20
-109.157
11
114.598
21
-109.153
0
LINE
8
BLACK
6
CONTINUOUS
10
114.598
20
-109.153
11
114.601
21
-109.151
0
LINE
8
BLACK
6
CONTINUOUS
10
114.601
20
-109.151
11
114.608
21
-109.149
0
LINE
8
BLACK
6
CONTINUOUS
10
114.608
20
-109.149
11
115.208
21
-109.149
0
LINE
8
BLACK
6
CONTINUOUS
10
115.208
20
-109.149
11
115.212
21
-109.15
0
LINE
8
BLACK
6
CONTINUOUS
10
119.087
20
-109.15
11
119.091
21
-109.152
0
LINE
8
BLACK
6
CONTINUOUS
10
119.091
20
-109.152
11
119.093
21
-109.155
0
LINE
8
BLACK
6
CONTINUOUS
10
119.093
20
-109.155
11
119.095
21
-109.161
0
LINE
8
BLACK
6
CONTINUOUS
10
119.095
20
-109.161
11
119.095
21
-109.186
0
LINE
8
BLACK
6
CONTINUOUS
10
119.095
20
-109.186
11
119.094
21
-109.191
0
LINE
8
BLACK
6
CONTINUOUS
10
119.094
20
-109.191
11
119.092
21
-109.194
0
LINE
8
BLACK
6
CONTINUOUS
10
119.092
20
-109.194
11
119.089
21
-109.197
0
LINE
8
BLACK
6
CONTINUOUS
10
119.089
20
-109.197
11
119.083
21
-109.199
0
LINE
8
BLACK
6
CONTINUOUS
10
119.083
20
-109.199
11
118.483
21
-109.199
0
LINE
8
BLACK
6
CONTINUOUS
10
118.483
20
-109.199
11
118.478
21
-109.198
0
LINE
8
BLACK
6
CONTINUOUS
10
118.478
20
-109.198
11
118.474
21
-109.196
0
LINE
8
BLACK
6
CONTINUOUS
10
118.474
20
-109.196
11
118.472
21
-109.193
0
LINE
8
BLACK
6
CONTINUOUS
10
118.472
20
-109.193
11
118.47
21
-109.186
0
LINE
8
BLACK
6
CONTINUOUS
10
118.47
20
-109.186
11
118.47
21
-109.161
0
LINE
8
BLACK
6
CONTINUOUS
10
118.47
20
-109.161
11
118.471
21
-109.157
0
LINE
8
BLACK
6
CONTINUOUS
10
118.471
20
-109.157
11
118.473
21
-109.153
0
LINE
8
BLACK
6
CONTINUOUS
10
118.473
20
-109.153
11
118.476
21
-109.151
0
LINE
8
BLACK
6
CONTINUOUS
10
118.476
20
-109.151
11
118.483
21
-109.149
0
LINE
8
BLACK
6
CONTINUOUS
10
118.483
20
-109.149
11
119.083
21
-109.149
0
LINE
8
BLACK
6
CONTINUOUS
10
119.083
20
-109.149
11
119.087
21
-109.15
0
LINE
8
BLACK
6
CONTINUOUS
10
115.612
20
-108.175
11
115.616
21
-108.177
0
LINE
8
BLACK
6
CONTINUOUS
10
115.616
20
-108.177
11
115.618
21
-108.18
0
LINE
8
BLACK
6
CONTINUOUS
10
115.618
20
-108.18
11
115.62
21
-108.186
0
LINE
8
BLACK
6
CONTINUOUS
10
115.62
20
-108.186
11
115.62
21
-108.786
0
LINE
8
BLACK
6
CONTINUOUS
10
115.62
20
-108.786
11
115.619
21
-108.791
0
LINE
8
BLACK
6
CONTINUOUS
10
115.619
20
-108.791
11
115.617
21
-108.794
0
LINE
8
BLACK
6
CONTINUOUS
10
115.617
20
-108.794
11
115.614
21
-108.797
0
LINE
8
BLACK
6
CONTINUOUS
10
115.614
20
-108.797
11
115.608
21
-108.799
0
LINE
8
BLACK
6
CONTINUOUS
10
115.608
20
-108.799
11
115.583
21
-108.799
0
LINE
8
BLACK
6
CONTINUOUS
10
115.583
20
-108.799
11
115.578
21
-108.798
0
LINE
8
BLACK
6
CONTINUOUS
10
115.578
20
-108.798
11
115.574
21
-108.796
0
LINE
8
BLACK
6
CONTINUOUS
10
115.574
20
-108.796
11
115.572
21
-108.793
0
LINE
8
BLACK
6
CONTINUOUS
10
115.572
20
-108.793
11
115.57
21
-108.786
0
LINE
8
BLACK
6
CONTINUOUS
10
115.57
20
-108.786
11
115.57
21
-108.186
0
LINE
8
BLACK
6
CONTINUOUS
10
115.57
20
-108.186
11
115.571
21
-108.182
0
LINE
8
BLACK
6
CONTINUOUS
10
115.571
20
-108.182
11
115.573
21
-108.178
0
LINE
8
BLACK
6
CONTINUOUS
10
115.573
20
-108.178
11
115.576
21
-108.176
0
LINE
8
BLACK
6
CONTINUOUS
10
115.576
20
-108.176
11
115.583
21
-108.174
0
LINE
8
BLACK
6
CONTINUOUS
10
115.583
20
-108.174
11
115.608
21
-108.174
0
LINE
8
BLACK
6
CONTINUOUS
10
115.608
20
-108.174
11
115.612
21
-108.175
0
LINE
8
BLACK
6
CONTINUOUS
10
116.112
20
-108.175
11
116.116
21
-108.177
0
LINE
8
BLACK
6
CONTINUOUS
10
116.116
20
-108.177
11
116.118
21
-108.18
0
LINE
8
BLACK
6
CONTINUOUS
10
116.118
20
-108.18
11
116.12
21
-108.186
0
LINE
8
BLACK
6
CONTINUOUS
10
116.12
20
-108.186
11
116.12
21
-108.786
0
LINE
8
BLACK
6
CONTINUOUS
10
116.12
20
-108.786
11
116.119
21
-108.791
0
LINE
8
BLACK
6
CONTINUOUS
10
116.119
20
-108.791
11
116.117
21
-108.794
0
LINE
8
BLACK
6
CONTINUOUS
10
116.117
20
-108.794
11
116.114
21
-108.797
0
LINE
8
BLACK
6
CONTINUOUS
10
116.114
20
-108.797
11
116.108
21
-108.799
0
LINE
8
BLACK
6
CONTINUOUS
10
116.108
20
-108.799
11
116.083
21
-108.799
0
LINE
8
BLACK
6
CONTINUOUS
10
116.083
20
-108.799
11
116.078
21
-108.798
0
LINE
8
BLACK
6
CONTINUOUS
10
116.078
20
-108.798
11
116.074
21
-108.796
0
LINE
8
BLACK
6
CONTINUOUS
10
116.074
20
-108.796
11
116.072
21
-108.793
0
LINE
8
BLACK
6
CONTINUOUS
10
116.072
20
-108.793
11
116.07
21
-108.786
0
LINE
8
BLACK
6
CONTINUOUS
10
116.07
20
-108.786
11
116.07
21
-108.186
0
LINE
8
BLACK
6
CONTINUOUS
10
116.07
20
-108.186
11
116.071
21
-108.182
0
LINE
8
BLACK
6
CONTINUOUS
10
116.071
20
-108.182
11
116.073
21
-108.178
0
LINE
8
BLACK
6
CONTINUOUS
10
116.073
20
-108.178
11
116.076
21
-108.176
0
LINE
8
BLACK
6
CONTINUOUS
10
116.076
20
-108.176
11
116.083
21
-108.174
0
LINE
8
BLACK
6
CONTINUOUS
10
116.083
20
-108.174
11
116.108
21
-108.174
0
LINE
8
BLACK
6
CONTINUOUS
10
116.108
20
-108.174
11
116.112
21
-108.175
0
LINE
8
BLACK
6
CONTINUOUS
10
118.112
20
-108.175
11
118.116
21
-108.177
0
LINE
8
BLACK
6
CONTINUOUS
10
118.116
20
-108.177
11
118.118
21
-108.18
0
LINE
8
BLACK
6
CONTINUOUS
10
118.118
20
-108.18
11
118.12
21
-108.186
0
LINE
8
BLACK
6
CONTINUOUS
10
118.12
20
-108.186
11
118.12
21
-108.786
0
LINE
8
BLACK
6
CONTINUOUS
10
118.12
20
-108.786
11
118.119
21
-108.791
0
LINE
8
BLACK
6
CONTINUOUS
10
118.119
20
-108.791
11
118.117
21
-108.794
0
LINE
8
BLACK
6
CONTINUOUS
10
118.117
20
-108.794
11
118.114
21
-108.797
0
LINE
8
BLACK
6
CONTINUOUS
10
118.114
20
-108.797
11
118.108
21
-108.799
0
LINE
8
BLACK
6
CONTINUOUS
10
118.108
20
-108.799
11
118.083
21
-108.799
0
LINE
8
BLACK
6
CONTINUOUS
10
118.083
20
-108.799
11
118.078
21
-108.798
0
LINE
8
BLACK
6
CONTINUOUS
10
118.078
20
-108.798
11
118.074
21
-108.796
0
LINE
8
BLACK
6
CONTINUOUS
10
118.074
20
-108.796
11
118.072
21
-108.793
0
LINE
8
BLACK
6
CONTINUOUS
10
118.072
20
-108.793
11
118.07
21
-108.786
0
LINE
8
BLACK
6
CONTINUOUS
10
118.07
20
-108.786
11
118.07
21
-108.186
0
LINE
8
BLACK
6
CONTINUOUS
10
118.07
20
-108.186
11
118.071
21
-108.182
0
LINE
8
BLACK
6
CONTINUOUS
10
118.071
20
-108.182
11
118.073
21
-108.178
0
LINE
8
BLACK
6
CONTINUOUS
10
118.073
20
-108.178
11
118.076
21
-108.176
0
LINE
8
BLACK
6
CONTINUOUS
10
118.076
20
-108.176
11
118.083
21
-108.174
0
LINE
8
BLACK
6
CONTINUOUS
10
118.083
20
-108.174
11
118.108
21
-108.174
0
LINE
8
BLACK
6
CONTINUOUS
10
118.108
20
-108.174
11
118.112
21
-108.175
0
LINE
8
BLACK
6
CONTINUOUS
10
117.612
20
-108.175
11
117.616
21
-108.177
0
LINE
8
BLACK
6
CONTINUOUS
10
117.616
20
-108.177
11
117.618
21
-108.18
0
LINE
8
BLACK
6
CONTINUOUS
10
117.618
20
-108.18
11
117.62
21
-108.186
0
LINE
8
BLACK
6
CONTINUOUS
10
117.62
20
-108.186
11
117.62
21
-108.786
0
LINE
8
BLACK
6
CONTINUOUS
10
117.62
20
-108.786
11
117.619
21
-108.791
0
LINE
8
BLACK
6
CONTINUOUS
10
117.619
20
-108.791
11
117.617
21
-108.794
0
LINE
8
BLACK
6
CONTINUOUS
10
117.617
20
-108.794
11
117.614
21
-108.797
0
LINE
8
BLACK
6
CONTINUOUS
10
117.614
20
-108.797
11
117.608
21
-108.799
0
LINE
8
BLACK
6
CONTINUOUS
10
117.608
20
-108.799
11
117.583
21
-108.799
0
LINE
8
BLACK
6
CONTINUOUS
10
117.583
20
-108.799
11
117.578
21
-108.798
0
LINE
8
BLACK
6
CONTINUOUS
10
117.578
20
-108.798
11
117.574
21
-108.796
0
LINE
8
BLACK
6
CONTINUOUS
10
117.574
20
-108.796
11
117.572
21
-108.793
0
LINE
8
BLACK
6
CONTINUOUS
10
117.572
20
-108.793
11
117.57
21
-108.786
0
LINE
8
BLACK
6
CONTINUOUS
10
117.57
20
-108.786
11
117.57
21
-108.186
0
LINE
8
BLACK
6
CONTINUOUS
10
117.57
20
-108.186
11
117.571
21
-108.182
0
LINE
8
BLACK
6
CONTINUOUS
10
117.571
20
-108.182
11
117.573
21
-108.178
0
LINE
8
BLACK
6
CONTINUOUS
10
117.573
20
-108.178
11
117.576
21
-108.176
0
LINE
8
BLACK
6
CONTINUOUS
10
117.576
20
-108.176
11
117.583
21
-108.174
0
LINE
8
BLACK
6
CONTINUOUS
10
117.583
20
-108.174
11
117.608
21
-108.174
0
LINE
8
BLACK
6
CONTINUOUS
10
117.608
20
-108.174
11
117.612
21
-108.175
0
LINE
8
BLACK
6
CONTINUOUS
10
116.612
20
-108.175
11
116.616
21
-108.177
0
LINE
8
BLACK
6
CONTINUOUS
10
116.616
20
-108.177
11
116.618
21
-108.18
0
LINE
8
BLACK
6
CONTINUOUS
10
116.618
20
-108.18
11
116.62
21
-108.186
0
LINE
8
BLACK
6
CONTINUOUS
10
116.62
20
-108.186
11
116.62
21
-108.786
0
LINE
8
BLACK
6
CONTINUOUS
10
116.62
20
-108.786
11
116.619
21
-108.791
0
LINE
8
BLACK
6
CONTINUOUS
10
116.619
20
-108.791
11
116.617
21
-108.794
0
LINE
8
BLACK
6
CONTINUOUS
10
116.617
20
-108.794
11
116.614
21
-108.797
0
LINE
8
BLACK
6
CONTINUOUS
10
116.614
20
-108.797
11
116.608
21
-108.799
0
LINE
8
BLACK
6
CONTINUOUS
10
116.608
20
-108.799
11
116.583
21
-108.799
0
LINE
8
BLACK
6
CONTINUOUS
10
116.583
20
-108.799
11
116.578
21
-108.798
0
LINE
8
BLACK
6
CONTINUOUS
10
116.578
20
-108.798
11
116.574
21
-108.796
0
LINE
8
BLACK
6
CONTINUOUS
10
116.574
20
-108.796
11
116.572
21
-108.793
0
LINE
8
BLACK
6
CONTINUOUS
10
116.572
20
-108.793
11
116.57
21
-108.786
0
LINE
8
BLACK
6
CONTINUOUS
10
116.57
20
-108.786
11
116.57
21
-108.186
0
LINE
8
BLACK
6
CONTINUOUS
10
116.57
20
-108.186
11
116.571
21
-108.182
0
LINE
8
BLACK
6
CONTINUOUS
10
116.571
20
-108.182
11
116.573
21
-108.178
0
LINE
8
BLACK
6
CONTINUOUS
10
116.573
20
-108.178
11
116.576
21
-108.176
0
LINE
8
BLACK
6
CONTINUOUS
10
116.576
20
-108.176
11
116.583
21
-108.174
0
LINE
8
BLACK
6
CONTINUOUS
10
116.583
20
-108.174
11
116.608
21
-108.174
0
LINE
8
BLACK
6
CONTINUOUS
10
116.608
20
-108.174
11
116.612
21
-108.175
0
LINE
8
BLACK
6
CONTINUOUS
10
117.112
20
-108.175
11
117.116
21
-108.177
0
LINE
8
BLACK
6
CONTINUOUS
10
117.116
20
-108.177
11
117.118
21
-108.18
0
LINE
8
BLACK
6
CONTINUOUS
10
117.118
20
-108.18
11
117.12
21
-108.186
0
LINE
8
BLACK
6
CONTINUOUS
10
117.12
20
-108.186
11
117.12
21
-108.786
0
LINE
8
BLACK
6
CONTINUOUS
10
117.12
20
-108.786
11
117.119
21
-108.791
0
LINE
8
BLACK
6
CONTINUOUS
10
117.119
20
-108.791
11
117.117
21
-108.794
0
LINE
8
BLACK
6
CONTINUOUS
10
117.117
20
-108.794
11
117.114
21
-108.797
0
LINE
8
BLACK
6
CONTINUOUS
10
117.114
20
-108.797
11
117.108
21
-108.799
0
LINE
8
BLACK
6
CONTINUOUS
10
117.108
20
-108.799
11
117.083
21
-108.799
0
LINE
8
BLACK
6
CONTINUOUS
10
117.083
20
-108.799
11
117.078
21
-108.798
0
LINE
8
BLACK
6
CONTINUOUS
10
117.078
20
-108.798
11
117.074
21
-108.796
0
LINE
8
BLACK
6
CONTINUOUS
10
117.074
20
-108.796
11
117.072
21
-108.793
0
LINE
8
BLACK
6
CONTINUOUS
10
117.072
20
-108.793
11
117.07
21
-108.786
0
LINE
8
BLACK
6
CONTINUOUS
10
117.07
20
-108.786
11
117.07
21
-108.186
0
LINE
8
BLACK
6
CONTINUOUS
10
117.07
20
-108.186
11
117.071
21
-108.182
0
LINE
8
BLACK
6
CONTINUOUS
10
117.071
20
-108.182
11
117.073
21
-108.178
0
LINE
8
BLACK
6
CONTINUOUS
10
117.073
20
-108.178
11
117.076
21
-108.176
0
LINE
8
BLACK
6
CONTINUOUS
10
117.076
20
-108.176
11
117.083
21
-108.174
0
LINE
8
BLACK
6
CONTINUOUS
10
117.083
20
-108.174
11
117.108
21
-108.174
0
LINE
8
BLACK
6
CONTINUOUS
10
117.108
20
-108.174
11
117.112
21
-108.175
0
LINE
8
BLACK
6
CONTINUOUS
10
115.756
20
-106.955
11
115.785
21
-106.972
0
LINE
8
BLACK
6
CONTINUOUS
10
115.785
20
-106.972
11
115.807
21
-106.998
0
LINE
8
BLACK
6
CONTINUOUS
10
115.807
20
-106.998
11
115.82
21
-107.046
0
LINE
8
BLACK
6
CONTINUOUS
10
115.82
20
-107.046
11
115.82
21
-107.241
0
LINE
8
BLACK
6
CONTINUOUS
10
115.82
20
-107.241
11
115.814
21
-107.275
0
LINE
8
BLACK
6
CONTINUOUS
10
115.814
20
-107.275
11
115.797
21
-107.304
0
LINE
8
BLACK
6
CONTINUOUS
10
115.797
20
-107.304
11
115.771
21
-107.326
0
LINE
8
BLACK
6
CONTINUOUS
10
115.771
20
-107.326
11
115.722
21
-107.339
0
LINE
8
BLACK
6
CONTINUOUS
10
115.722
20
-107.339
11
115.477
21
-107.339
0
LINE
8
BLACK
6
CONTINUOUS
10
115.477
20
-107.339
11
115.444
21
-107.333
0
LINE
8
BLACK
6
CONTINUOUS
10
115.444
20
-107.333
11
115.415
21
-107.316
0
LINE
8
BLACK
6
CONTINUOUS
10
115.415
20
-107.316
11
115.393
21
-107.29
0
LINE
8
BLACK
6
CONTINUOUS
10
115.393
20
-107.29
11
115.38
21
-107.241
0
LINE
8
BLACK
6
CONTINUOUS
10
115.38
20
-107.241
11
115.38
21
-107.046
0
LINE
8
BLACK
6
CONTINUOUS
10
115.38
20
-107.046
11
115.386
21
-107.013
0
LINE
8
BLACK
6
CONTINUOUS
10
115.386
20
-107.013
11
115.403
21
-106.984
0
LINE
8
BLACK
6
CONTINUOUS
10
115.403
20
-106.984
11
115.429
21
-106.962
0
LINE
8
BLACK
6
CONTINUOUS
10
115.429
20
-106.962
11
115.477
21
-106.949
0
LINE
8
BLACK
6
CONTINUOUS
10
115.477
20
-106.949
11
115.722
21
-106.949
0
LINE
8
BLACK
6
CONTINUOUS
10
115.722
20
-106.949
11
115.756
21
-106.955
0
LINE
8
BLACK
6
CONTINUOUS
10
116.806
20
-106.955
11
116.835
21
-106.972
0
LINE
8
BLACK
6
CONTINUOUS
10
116.835
20
-106.972
11
116.857
21
-106.998
0
LINE
8
BLACK
6
CONTINUOUS
10
116.857
20
-106.998
11
116.87
21
-107.046
0
LINE
8
BLACK
6
CONTINUOUS
10
116.87
20
-107.046
11
116.87
21
-107.241
0
LINE
8
BLACK
6
CONTINUOUS
10
116.87
20
-107.241
11
116.864
21
-107.275
0
LINE
8
BLACK
6
CONTINUOUS
10
116.864
20
-107.275
11
116.847
21
-107.304
0
LINE
8
BLACK
6
CONTINUOUS
10
116.847
20
-107.304
11
116.821
21
-107.326
0
LINE
8
BLACK
6
CONTINUOUS
10
116.821
20
-107.326
11
116.772
21
-107.339
0
LINE
8
BLACK
6
CONTINUOUS
10
116.772
20
-107.339
11
116.527
21
-107.339
0
LINE
8
BLACK
6
CONTINUOUS
10
116.527
20
-107.339
11
116.494
21
-107.333
0
LINE
8
BLACK
6
CONTINUOUS
10
116.494
20
-107.333
11
116.465
21
-107.316
0
LINE
8
BLACK
6
CONTINUOUS
10
116.465
20
-107.316
11
116.443
21
-107.29
0
LINE
8
BLACK
6
CONTINUOUS
10
116.443
20
-107.29
11
116.43
21
-107.241
0
LINE
8
BLACK
6
CONTINUOUS
10
116.43
20
-107.241
11
116.43
21
-107.046
0
LINE
8
BLACK
6
CONTINUOUS
10
116.43
20
-107.046
11
116.436
21
-107.013
0
LINE
8
BLACK
6
CONTINUOUS
10
116.436
20
-107.013
11
116.453
21
-106.984
0
LINE
8
BLACK
6
CONTINUOUS
10
116.453
20
-106.984
11
116.479
21
-106.962
0
LINE
8
BLACK
6
CONTINUOUS
10
116.479
20
-106.962
11
116.527
21
-106.949
0
LINE
8
BLACK
6
CONTINUOUS
10
116.527
20
-106.949
11
116.772
21
-106.949
0
LINE
8
BLACK
6
CONTINUOUS
10
116.772
20
-106.949
11
116.806
21
-106.955
0
LINE
8
BLACK
6
CONTINUOUS
10
116.806
20
-105.985
11
116.835
21
-106.002
0
LINE
8
BLACK
6
CONTINUOUS
10
116.835
20
-106.002
11
116.857
21
-106.028
0
LINE
8
BLACK
6
CONTINUOUS
10
116.857
20
-106.028
11
116.87
21
-106.076
0
LINE
8
BLACK
6
CONTINUOUS
10
116.87
20
-106.076
11
116.87
21
-106.271
0
LINE
8
BLACK
6
CONTINUOUS
10
116.87
20
-106.271
11
116.864
21
-106.305
0
LINE
8
BLACK
6
CONTINUOUS
10
116.864
20
-106.305
11
116.847
21
-106.334
0
LINE
8
BLACK
6
CONTINUOUS
10
116.847
20
-106.334
11
116.821
21
-106.356
0
LINE
8
BLACK
6
CONTINUOUS
10
116.821
20
-106.356
11
116.772
21
-106.369
0
LINE
8
BLACK
6
CONTINUOUS
10
116.772
20
-106.369
11
116.527
21
-106.369
0
LINE
8
BLACK
6
CONTINUOUS
10
116.527
20
-106.369
11
116.494
21
-106.363
0
LINE
8
BLACK
6
CONTINUOUS
10
116.494
20
-106.363
11
116.465
21
-106.346
0
LINE
8
BLACK
6
CONTINUOUS
10
116.465
20
-106.346
11
116.443
21
-106.32
0
LINE
8
BLACK
6
CONTINUOUS
10
116.443
20
-106.32
11
116.43
21
-106.271
0
LINE
8
BLACK
6
CONTINUOUS
10
116.43
20
-106.271
11
116.43
21
-106.076
0
LINE
8
BLACK
6
CONTINUOUS
10
116.43
20
-106.076
11
116.436
21
-106.043
0
LINE
8
BLACK
6
CONTINUOUS
10
116.436
20
-106.043
11
116.453
21
-106.014
0
LINE
8
BLACK
6
CONTINUOUS
10
116.453
20
-106.014
11
116.479
21
-105.992
0
LINE
8
BLACK
6
CONTINUOUS
10
116.479
20
-105.992
11
116.527
21
-105.979
0
LINE
8
BLACK
6
CONTINUOUS
10
116.527
20
-105.979
11
116.772
21
-105.979
0
LINE
8
BLACK
6
CONTINUOUS
10
116.772
20
-105.979
11
116.806
21
-105.985
0
LINE
8
BLACK
6
CONTINUOUS
10
115.756
20
-105.985
11
115.785
21
-106.002
0
LINE
8
BLACK
6
CONTINUOUS
10
115.785
20
-106.002
11
115.807
21
-106.028
0
LINE
8
BLACK
6
CONTINUOUS
10
115.807
20
-106.028
11
115.82
21
-106.076
0
LINE
8
BLACK
6
CONTINUOUS
10
115.82
20
-106.076
11
115.82
21
-106.271
0
LINE
8
BLACK
6
CONTINUOUS
10
115.82
20
-106.271
11
115.814
21
-106.305
0
LINE
8
BLACK
6
CONTINUOUS
10
115.814
20
-106.305
11
115.797
21
-106.334
0
LINE
8
BLACK
6
CONTINUOUS
10
115.797
20
-106.334
11
115.771
21
-106.356
0
LINE
8
BLACK
6
CONTINUOUS
10
115.771
20
-106.356
11
115.722
21
-106.369
0
LINE
8
BLACK
6
CONTINUOUS
10
115.722
20
-106.369
11
115.477
21
-106.369
0
LINE
8
BLACK
6
CONTINUOUS
10
115.477
20
-106.369
11
115.444
21
-106.363
0
LINE
8
BLACK
6
CONTINUOUS
10
115.444
20
-106.363
11
115.415
21
-106.346
0
LINE
8
BLACK
6
CONTINUOUS
10
115.415
20
-106.346
11
115.393
21
-106.32
0
LINE
8
BLACK
6
CONTINUOUS
10
115.393
20
-106.32
11
115.38
21
-106.271
0
LINE
8
BLACK
6
CONTINUOUS
10
115.38
20
-106.271
11
115.38
21
-106.076
0
LINE
8
BLACK
6
CONTINUOUS
10
115.38
20
-106.076
11
115.386
21
-106.043
0
LINE
8
BLACK
6
CONTINUOUS
10
115.386
20
-106.043
11
115.403
21
-106.014
0
LINE
8
BLACK
6
CONTINUOUS
10
115.403
20
-106.014
11
115.429
21
-105.992
0
LINE
8
BLACK
6
CONTINUOUS
10
115.429
20
-105.992
11
115.477
21
-105.979
0
LINE
8
BLACK
6
CONTINUOUS
10
115.477
20
-105.979
11
115.722
21
-105.979
0
LINE
8
BLACK
6
CONTINUOUS
10
115.722
20
-105.979
11
115.756
21
-105.985
0
LINE
8
BLACK
6
CONTINUOUS
10
117.61
20
-103.569
11
117.661
21
-103.599
0
LINE
8
BLACK
6
CONTINUOUS
10
117.661
20
-103.599
11
117.699
21
-103.644
0
LINE
8
BLACK
6
CONTINUOUS
10
117.699
20
-103.644
11
117.721
21
-103.728
0
LINE
8
BLACK
6
CONTINUOUS
10
117.721
20
-103.728
11
117.721
21
-104.14
0
LINE
8
BLACK
6
CONTINUOUS
10
117.721
20
-104.14
11
117.711
21
-104.198
0
LINE
8
BLACK
6
CONTINUOUS
10
117.711
20
-104.198
11
117.682
21
-104.249
0
LINE
8
BLACK
6
CONTINUOUS
10
117.682
20
-104.249
11
117.637
21
-104.287
0
LINE
8
BLACK
6
CONTINUOUS
10
117.637
20
-104.287
11
117.552
21
-104.309
0
LINE
8
BLACK
6
CONTINUOUS
10
117.552
20
-104.309
11
117.215
21
-104.309
0
LINE
8
BLACK
6
CONTINUOUS
10
117.215
20
-104.309
11
117.157
21
-104.299
0
LINE
8
BLACK
6
CONTINUOUS
10
117.157
20
-104.299
11
117.106
21
-104.27
0
LINE
8
BLACK
6
CONTINUOUS
10
117.106
20
-104.27
11
117.069
21
-104.225
0
LINE
8
BLACK
6
CONTINUOUS
10
117.069
20
-104.225
11
117.046
21
-104.14
0
LINE
8
BLACK
6
CONTINUOUS
10
117.046
20
-104.14
11
117.046
21
-103.728
0
LINE
8
BLACK
6
CONTINUOUS
10
117.046
20
-103.728
11
117.056
21
-103.67
0
LINE
8
BLACK
6
CONTINUOUS
10
117.056
20
-103.67
11
117.086
21
-103.619
0
LINE
8
BLACK
6
CONTINUOUS
10
117.086
20
-103.619
11
117.131
21
-103.582
0
LINE
8
BLACK
6
CONTINUOUS
10
117.131
20
-103.582
11
117.215
21
-103.559
0
LINE
8
BLACK
6
CONTINUOUS
10
117.215
20
-103.559
11
117.552
21
-103.559
0
LINE
8
BLACK
6
CONTINUOUS
10
117.552
20
-103.559
11
117.61
21
-103.569
0
LINE
8
BLACK
6
CONTINUOUS
10
116.035
20
-103.569
11
116.086
21
-103.599
0
LINE
8
BLACK
6
CONTINUOUS
10
116.086
20
-103.599
11
116.124
21
-103.644
0
LINE
8
BLACK
6
CONTINUOUS
10
116.124
20
-103.644
11
116.146
21
-103.728
0
LINE
8
BLACK
6
CONTINUOUS
10
116.146
20
-103.728
11
116.146
21
-104.14
0
LINE
8
BLACK
6
CONTINUOUS
10
116.146
20
-104.14
11
116.136
21
-104.198
0
LINE
8
BLACK
6
CONTINUOUS
10
116.136
20
-104.198
11
116.107
21
-104.249
0
LINE
8
BLACK
6
CONTINUOUS
10
116.107
20
-104.249
11
116.062
21
-104.287
0
LINE
8
BLACK
6
CONTINUOUS
10
116.062
20
-104.287
11
115.977
21
-104.309
0
LINE
8
BLACK
6
CONTINUOUS
10
115.977
20
-104.309
11
115.64
21
-104.309
0
LINE
8
BLACK
6
CONTINUOUS
10
115.64
20
-104.309
11
115.582
21
-104.299
0
LINE
8
BLACK
6
CONTINUOUS
10
115.582
20
-104.299
11
115.531
21
-104.27
0
LINE
8
BLACK
6
CONTINUOUS
10
115.531
20
-104.27
11
115.494
21
-104.225
0
LINE
8
BLACK
6
CONTINUOUS
10
115.494
20
-104.225
11
115.471
21
-104.14
0
LINE
8
BLACK
6
CONTINUOUS
10
115.471
20
-104.14
11
115.471
21
-103.728
0
LINE
8
BLACK
6
CONTINUOUS
10
115.471
20
-103.728
11
115.481
21
-103.67
0
LINE
8
BLACK
6
CONTINUOUS
10
115.481
20
-103.67
11
115.511
21
-103.619
0
LINE
8
BLACK
6
CONTINUOUS
10
115.511
20
-103.619
11
115.556
21
-103.582
0
LINE
8
BLACK
6
CONTINUOUS
10
115.556
20
-103.582
11
115.64
21
-103.559
0
LINE
8
BLACK
6
CONTINUOUS
10
115.64
20
-103.559
11
115.977
21
-103.559
0
LINE
8
BLACK
6
CONTINUOUS
10
115.977
20
-103.559
11
116.035
21
-103.569
0
LINE
8
BLACK
6
CONTINUOUS
10
116.621
20
-102.294
11
116.321
21
-102.294
0
LINE
8
BLACK
6
CONTINUOUS
10
116.321
20
-102.294
11
116.321
21
-101.864
0
LINE
8
BLACK
6
CONTINUOUS
10
116.321
20
-101.864
11
116.621
21
-101.864
0
LINE
8
BLACK
6
CONTINUOUS
10
116.621
20
-101.864
11
116.621
21
-102.294
0
LINE
8
BLACK
6
CONTINUOUS
10
117.681
20
-102.284
11
117.251
21
-102.284
0
LINE
8
BLACK
6
CONTINUOUS
10
117.251
20
-102.284
11
117.251
21
-101.984
0
LINE
8
BLACK
6
CONTINUOUS
10
117.251
20
-101.984
11
117.681
21
-101.984
0
LINE
8
BLACK
6
CONTINUOUS
10
117.681
20
-101.984
11
117.681
21
-102.284
0
LINE
8
BLACK
6
CONTINUOUS
10
115.691
20
-102.284
11
115.261
21
-102.284
0
LINE
8
BLACK
6
CONTINUOUS
10
115.261
20
-102.284
11
115.261
21
-101.984
0
LINE
8
BLACK
6
CONTINUOUS
10
115.261
20
-101.984
11
115.691
21
-101.984
0
LINE
8
BLACK
6
CONTINUOUS
10
115.691
20
-101.984
11
115.691
21
-102.284
0
LINE
8
BLACK
6
CONTINUOUS
10
112.96
20
-101.369
11
113.011
21
-101.399
0
LINE
8
BLACK
6
CONTINUOUS
10
113.011
20
-101.399
11
113.049
21
-101.444
0
LINE
8
BLACK
6
CONTINUOUS
10
113.049
20
-101.444
11
113.071
21
-101.528
0
LINE
8
BLACK
6
CONTINUOUS
10
113.071
20
-101.528
11
113.071
21
-101.865
0
LINE
8
BLACK
6
CONTINUOUS
10
113.071
20
-101.865
11
113.061
21
-101.923
0
LINE
8
BLACK
6
CONTINUOUS
10
113.061
20
-101.923
11
113.032
21
-101.974
0
LINE
8
BLACK
6
CONTINUOUS
10
113.032
20
-101.974
11
112.987
21
-102.012
0
LINE
8
BLACK
6
CONTINUOUS
10
112.987
20
-102.012
11
112.902
21
-102.034
0
LINE
8
BLACK
6
CONTINUOUS
10
112.902
20
-102.034
11
112.49
21
-102.034
0
LINE
8
BLACK
6
CONTINUOUS
10
112.49
20
-102.034
11
112.432
21
-102.024
0
LINE
8
BLACK
6
CONTINUOUS
10
112.432
20
-102.024
11
112.381
21
-101.995
0
LINE
8
BLACK
6
CONTINUOUS
10
112.381
20
-101.995
11
112.344
21
-101.95
0
LINE
8
BLACK
6
CONTINUOUS
10
112.344
20
-101.95
11
112.321
21
-101.865
0
LINE
8
BLACK
6
CONTINUOUS
10
112.321
20
-101.865
11
112.321
21
-101.528
0
LINE
8
BLACK
6
CONTINUOUS
10
112.321
20
-101.528
11
112.331
21
-101.47
0
LINE
8
BLACK
6
CONTINUOUS
10
112.331
20
-101.47
11
112.361
21
-101.419
0
LINE
8
BLACK
6
CONTINUOUS
10
112.361
20
-101.419
11
112.406
21
-101.382
0
LINE
8
BLACK
6
CONTINUOUS
10
112.406
20
-101.382
11
112.49
21
-101.359
0
LINE
8
BLACK
6
CONTINUOUS
10
112.49
20
-101.359
11
112.902
21
-101.359
0
LINE
8
BLACK
6
CONTINUOUS
10
112.902
20
-101.359
11
112.96
21
-101.369
0
LINE
8
BLACK
6
CONTINUOUS
10
120.535
20
-101.332
11
120.586
21
-101.361
0
LINE
8
BLACK
6
CONTINUOUS
10
120.586
20
-101.361
11
120.624
21
-101.406
0
LINE
8
BLACK
6
CONTINUOUS
10
120.624
20
-101.406
11
120.646
21
-101.49
0
LINE
8
BLACK
6
CONTINUOUS
10
120.646
20
-101.49
11
120.646
21
-101.828
0
LINE
8
BLACK
6
CONTINUOUS
10
120.646
20
-101.828
11
120.636
21
-101.886
0
LINE
8
BLACK
6
CONTINUOUS
10
120.636
20
-101.886
11
120.607
21
-101.936
0
LINE
8
BLACK
6
CONTINUOUS
10
120.607
20
-101.936
11
120.562
21
-101.974
0
LINE
8
BLACK
6
CONTINUOUS
10
120.562
20
-101.974
11
120.477
21
-101.997
0
LINE
8
BLACK
6
CONTINUOUS
10
120.477
20
-101.997
11
120.065
21
-101.997
0
LINE
8
BLACK
6
CONTINUOUS
10
120.065
20
-101.997
11
120.007
21
-101.987
0
LINE
8
BLACK
6
CONTINUOUS
10
120.007
20
-101.987
11
119.956
21
-101.957
0
LINE
8
BLACK
6
CONTINUOUS
10
119.956
20
-101.957
11
119.919
21
-101.912
0
LINE
8
BLACK
6
CONTINUOUS
10
119.919
20
-101.912
11
119.896
21
-101.828
0
LINE
8
BLACK
6
CONTINUOUS
10
119.896
20
-101.828
11
119.896
21
-101.49
0
LINE
8
BLACK
6
CONTINUOUS
10
119.896
20
-101.49
11
119.906
21
-101.433
0
LINE
8
BLACK
6
CONTINUOUS
10
119.906
20
-101.433
11
119.936
21
-101.382
0
LINE
8
BLACK
6
CONTINUOUS
10
119.936
20
-101.382
11
119.981
21
-101.344
0
LINE
8
BLACK
6
CONTINUOUS
10
119.981
20
-101.344
11
120.065
21
-101.322
0
LINE
8
BLACK
6
CONTINUOUS
10
120.065
20
-101.322
11
120.477
21
-101.322
0
LINE
8
BLACK
6
CONTINUOUS
10
120.477
20
-101.322
11
120.535
21
-101.332
0
LINE
8
BLACK
6
CONTINUOUS
10
115.691
20
-101.584
11
115.261
21
-101.584
0
LINE
8
BLACK
6
CONTINUOUS
10
115.261
20
-101.584
11
115.261
21
-101.284
0
LINE
8
BLACK
6
CONTINUOUS
10
115.261
20
-101.284
11
115.691
21
-101.284
0
LINE
8
BLACK
6
CONTINUOUS
10
115.691
20
-101.284
11
115.691
21
-101.584
0
LINE
8
BLACK
6
CONTINUOUS
10
117.681
20
-101.584
11
117.251
21
-101.584
0
LINE
8
BLACK
6
CONTINUOUS
10
117.251
20
-101.584
11
117.251
21
-101.284
0
LINE
8
BLACK
6
CONTINUOUS
10
117.251
20
-101.284
11
117.681
21
-101.284
0
LINE
8
BLACK
6
CONTINUOUS
10
117.681
20
-101.284
11
117.681
21
-101.584
0
LINE
8
BLACK
6
CONTINUOUS
10
114.252
20
-100.655
11
114.281
21
-100.672
0
LINE
8
BLACK
6
CONTINUOUS
10
114.281
20
-100.672
11
114.303
21
-100.698
0
LINE
8
BLACK
6
CONTINUOUS
10
114.303
20
-100.698
11
114.316
21
-100.747
0
LINE
8
BLACK
6
CONTINUOUS
10
114.316
20
-100.747
11
114.316
21
-100.942
0
LINE
8
BLACK
6
CONTINUOUS
10
114.316
20
-100.942
11
114.31
21
-100.975
0
LINE
8
BLACK
6
CONTINUOUS
10
114.31
20
-100.975
11
114.293
21
-101.004
0
LINE
8
BLACK
6
CONTINUOUS
10
114.293
20
-101.004
11
114.267
21
-101.026
0
LINE
8
BLACK
6
CONTINUOUS
10
114.267
20
-101.026
11
114.219
21
-101.039
0
LINE
8
BLACK
6
CONTINUOUS
10
114.219
20
-101.039
11
113.974
21
-101.039
0
LINE
8
BLACK
6
CONTINUOUS
10
113.974
20
-101.039
11
113.94
21
-101.033
0
LINE
8
BLACK
6
CONTINUOUS
10
113.94
20
-101.033
11
113.911
21
-101.016
0
LINE
8
BLACK
6
CONTINUOUS
10
113.911
20
-101.016
11
113.889
21
-100.99
0
LINE
8
BLACK
6
CONTINUOUS
10
113.889
20
-100.99
11
113.876
21
-100.942
0
LINE
8
BLACK
6
CONTINUOUS
10
113.876
20
-100.942
11
113.876
21
-100.747
0
LINE
8
BLACK
6
CONTINUOUS
10
113.876
20
-100.747
11
113.882
21
-100.713
0
LINE
8
BLACK
6
CONTINUOUS
10
113.882
20
-100.713
11
113.899
21
-100.684
0
LINE
8
BLACK
6
CONTINUOUS
10
113.899
20
-100.684
11
113.925
21
-100.662
0
LINE
8
BLACK
6
CONTINUOUS
10
113.925
20
-100.662
11
113.974
21
-100.649
0
LINE
8
BLACK
6
CONTINUOUS
10
113.974
20
-100.649
11
114.219
21
-100.649
0
LINE
8
BLACK
6
CONTINUOUS
10
114.219
20
-100.649
11
114.252
21
-100.655
0
LINE
8
BLACK
6
CONTINUOUS
10
119.052
20
-100.63
11
119.081
21
-100.647
0
LINE
8
BLACK
6
CONTINUOUS
10
119.081
20
-100.647
11
119.103
21
-100.673
0
LINE
8
BLACK
6
CONTINUOUS
10
119.103
20
-100.673
11
119.116
21
-100.722
0
LINE
8
BLACK
6
CONTINUOUS
10
119.116
20
-100.722
11
119.116
21
-100.917
0
LINE
8
BLACK
6
CONTINUOUS
10
119.116
20
-100.917
11
119.11
21
-100.95
0
LINE
8
BLACK
6
CONTINUOUS
10
119.11
20
-100.95
11
119.093
21
-100.979
0
LINE
8
BLACK
6
CONTINUOUS
10
119.093
20
-100.979
11
119.067
21
-101.001
0
LINE
8
BLACK
6
CONTINUOUS
10
119.067
20
-101.001
11
119.019
21
-101.014
0
LINE
8
BLACK
6
CONTINUOUS
10
119.019
20
-101.014
11
118.774
21
-101.014
0
LINE
8
BLACK
6
CONTINUOUS
10
118.774
20
-101.014
11
118.74
21
-101.008
0
LINE
8
BLACK
6
CONTINUOUS
10
118.74
20
-101.008
11
118.711
21
-100.991
0
LINE
8
BLACK
6
CONTINUOUS
10
118.711
20
-100.991
11
118.689
21
-100.965
0
LINE
8
BLACK
6
CONTINUOUS
10
118.689
20
-100.965
11
118.676
21
-100.917
0
LINE
8
BLACK
6
CONTINUOUS
10
118.676
20
-100.917
11
118.676
21
-100.722
0
LINE
8
BLACK
6
CONTINUOUS
10
118.676
20
-100.722
11
118.682
21
-100.688
0
LINE
8
BLACK
6
CONTINUOUS
10
118.682
20
-100.688
11
118.699
21
-100.659
0
LINE
8
BLACK
6
CONTINUOUS
10
118.699
20
-100.659
11
118.725
21
-100.637
0
LINE
8
BLACK
6
CONTINUOUS
10
118.725
20
-100.637
11
118.774
21
-100.624
0
LINE
8
BLACK
6
CONTINUOUS
10
118.774
20
-100.624
11
119.019
21
-100.624
0
LINE
8
BLACK
6
CONTINUOUS
10
119.019
20
-100.624
11
119.052
21
-100.63
0
LINE
8
BLACK
6
CONTINUOUS
10
115.691
20
-100.884
11
115.261
21
-100.884
0
LINE
8
BLACK
6
CONTINUOUS
10
115.261
20
-100.884
11
115.261
21
-100.584
0
LINE
8
BLACK
6
CONTINUOUS
10
115.261
20
-100.584
11
115.691
21
-100.584
0
LINE
8
BLACK
6
CONTINUOUS
10
115.691
20
-100.584
11
115.691
21
-100.884
0
LINE
8
BLACK
6
CONTINUOUS
10
117.681
20
-100.884
11
117.251
21
-100.884
0
LINE
8
BLACK
6
CONTINUOUS
10
117.251
20
-100.884
11
117.251
21
-100.584
0
LINE
8
BLACK
6
CONTINUOUS
10
117.251
20
-100.584
11
117.681
21
-100.584
0
LINE
8
BLACK
6
CONTINUOUS
10
117.681
20
-100.584
11
117.681
21
-100.884
0
LINE
8
BLACK
6
CONTINUOUS
10
112.96
20
-99.7944
11
113.011
21
-99.8237
0
LINE
8
BLACK
6
CONTINUOUS
10
113.011
20
-99.8237
11
113.049
21
-99.8686
0
LINE
8
BLACK
6
CONTINUOUS
10
113.049
20
-99.8686
11
113.071
21
-99.953
0
LINE
8
BLACK
6
CONTINUOUS
10
113.071
20
-99.953
11
113.071
21
-100.29
0
LINE
8
BLACK
6
CONTINUOUS
10
113.071
20
-100.29
11
113.061
21
-100.348
0
LINE
8
BLACK
6
CONTINUOUS
10
113.061
20
-100.348
11
113.032
21
-100.399
0
LINE
8
BLACK
6
CONTINUOUS
10
113.032
20
-100.399
11
112.987
21
-100.437
0
LINE
8
BLACK
6
CONTINUOUS
10
112.987
20
-100.437
11
112.902
21
-100.459
0
LINE
8
BLACK
6
CONTINUOUS
10
112.902
20
-100.459
11
112.49
21
-100.459
0
LINE
8
BLACK
6
CONTINUOUS
10
112.49
20
-100.459
11
112.432
21
-100.449
0
LINE
8
BLACK
6
CONTINUOUS
10
112.432
20
-100.449
11
112.381
21
-100.42
0
LINE
8
BLACK
6
CONTINUOUS
10
112.381
20
-100.42
11
112.344
21
-100.375
0
LINE
8
BLACK
6
CONTINUOUS
10
112.344
20
-100.375
11
112.321
21
-100.29
0
LINE
8
BLACK
6
CONTINUOUS
10
112.321
20
-100.29
11
112.321
21
-99.953
0
LINE
8
BLACK
6
CONTINUOUS
10
112.321
20
-99.953
11
112.331
21
-99.8952
0
LINE
8
BLACK
6
CONTINUOUS
10
112.331
20
-99.8952
11
112.361
21
-99.8445
0
LINE
8
BLACK
6
CONTINUOUS
10
112.361
20
-99.8445
11
112.406
21
-99.8068
0
LINE
8
BLACK
6
CONTINUOUS
10
112.406
20
-99.8068
11
112.49
21
-99.7842
0
LINE
8
BLACK
6
CONTINUOUS
10
112.49
20
-99.7842
11
112.902
21
-99.7842
0
LINE
8
BLACK
6
CONTINUOUS
10
112.902
20
-99.7842
11
112.96
21
-99.7944
0
LINE
8
BLACK
6
CONTINUOUS
10
120.535
20
-99.7569
11
120.586
21
-99.7862
0
LINE
8
BLACK
6
CONTINUOUS
10
120.586
20
-99.7862
11
120.624
21
-99.8311
0
LINE
8
BLACK
6
CONTINUOUS
10
120.624
20
-99.8311
11
120.646
21
-99.9155
0
LINE
8
BLACK
6
CONTINUOUS
10
120.646
20
-99.9155
11
120.646
21
-100.253
0
LINE
8
BLACK
6
CONTINUOUS
10
120.646
20
-100.253
11
120.636
21
-100.311
0
LINE
8
BLACK
6
CONTINUOUS
10
120.636
20
-100.311
11
120.607
21
-100.361
0
LINE
8
BLACK
6
CONTINUOUS
10
120.607
20
-100.361
11
120.562
21
-100.399
0
LINE
8
BLACK
6
CONTINUOUS
10
120.562
20
-100.399
11
120.477
21
-100.422
0
LINE
8
BLACK
6
CONTINUOUS
10
120.477
20
-100.422
11
120.065
21
-100.422
0
LINE
8
BLACK
6
CONTINUOUS
10
120.065
20
-100.422
11
120.007
21
-100.412
0
LINE
8
BLACK
6
CONTINUOUS
10
120.007
20
-100.412
11
119.956
21
-100.382
0
LINE
8
BLACK
6
CONTINUOUS
10
119.956
20
-100.382
11
119.919
21
-100.337
0
LINE
8
BLACK
6
CONTINUOUS
10
119.919
20
-100.337
11
119.896
21
-100.253
0
LINE
8
BLACK
6
CONTINUOUS
10
119.896
20
-100.253
11
119.896
21
-99.9155
0
LINE
8
BLACK
6
CONTINUOUS
10
119.896
20
-99.9155
11
119.906
21
-99.8577
0
LINE
8
BLACK
6
CONTINUOUS
10
119.906
20
-99.8577
11
119.936
21
-99.807
0
LINE
8
BLACK
6
CONTINUOUS
10
119.936
20
-99.807
11
119.981
21
-99.7693
0
LINE
8
BLACK
6
CONTINUOUS
10
119.981
20
-99.7693
11
120.065
21
-99.7467
0
LINE
8
BLACK
6
CONTINUOUS
10
120.065
20
-99.7467
11
120.477
21
-99.7467
0
LINE
8
BLACK
6
CONTINUOUS
10
120.477
20
-99.7467
11
120.535
21
-99.7569
0
LINE
8
BLACK
6
CONTINUOUS
10
116.621
20
-100.304
11
116.321
21
-100.304
0
LINE
8
BLACK
6
CONTINUOUS
10
116.321
20
-100.304
11
116.321
21
-99.8742
0
LINE
8
BLACK
6
CONTINUOUS
10
116.321
20
-99.8742
11
116.621
21
-99.8742
0
LINE
8
BLACK
6
CONTINUOUS
10
116.621
20
-99.8742
11
116.621
21
-100.304
0
LINE
8
BLACK
6
CONTINUOUS
10
117.681
20
-100.184
11
117.251
21
-100.184
0
LINE
8
BLACK
6
CONTINUOUS
10
117.251
20
-100.184
11
117.251
21
-99.8842
0
LINE
8
BLACK
6
CONTINUOUS
10
117.251
20
-99.8842
11
117.681
21
-99.8842
0
LINE
8
BLACK
6
CONTINUOUS
10
117.681
20
-99.8842
11
117.681
21
-100.184
0
LINE
8
BLACK
6
CONTINUOUS
10
115.691
20
-100.184
11
115.261
21
-100.184
0
LINE
8
BLACK
6
CONTINUOUS
10
115.261
20
-100.184
11
115.261
21
-99.8842
0
LINE
8
BLACK
6
CONTINUOUS
10
115.261
20
-99.8842
11
115.691
21
-99.8842
0
LINE
8
BLACK
6
CONTINUOUS
10
115.691
20
-99.8842
11
115.691
21
-100.184
0
LINE
8
BLACK
6
CONTINUOUS
10
114.252
20
-99.6851
11
114.281
21
-99.702
0
LINE
8
BLACK
6
CONTINUOUS
10
114.281
20
-99.702
11
114.303
21
-99.728
0
LINE
8
BLACK
6
CONTINUOUS
10
114.303
20
-99.728
11
114.316
21
-99.7767
0
LINE
8
BLACK
6
CONTINUOUS
10
114.316
20
-99.7767
11
114.316
21
-99.9717
0
LINE
8
BLACK
6
CONTINUOUS
10
114.316
20
-99.9717
11
114.31
21
-100.005
0
LINE
8
BLACK
6
CONTINUOUS
10
114.31
20
-100.005
11
114.293
21
-100.034
0
LINE
8
BLACK
6
CONTINUOUS
10
114.293
20
-100.034
11
114.267
21
-100.056
0
LINE
8
BLACK
6
CONTINUOUS
10
114.267
20
-100.056
11
114.219
21
-100.069
0
LINE
8
BLACK
6
CONTINUOUS
10
114.219
20
-100.069
11
113.974
21
-100.069
0
LINE
8
BLACK
6
CONTINUOUS
10
113.974
20
-100.069
11
113.94
21
-100.063
0
LINE
8
BLACK
6
CONTINUOUS
10
113.94
20
-100.063
11
113.911
21
-100.046
0
LINE
8
BLACK
6
CONTINUOUS
10
113.911
20
-100.046
11
113.889
21
-100.02
0
LINE
8
BLACK
6
CONTINUOUS
10
113.889
20
-100.02
11
113.876
21
-99.9717
0
LINE
8
BLACK
6
CONTINUOUS
10
113.876
20
-99.9717
11
113.876
21
-99.7767
0
LINE
8
BLACK
6
CONTINUOUS
10
113.876
20
-99.7767
11
113.882
21
-99.7434
0
LINE
8
BLACK
6
CONTINUOUS
10
113.882
20
-99.7434
11
113.899
21
-99.714
0
LINE
8
BLACK
6
CONTINUOUS
10
113.899
20
-99.714
11
113.925
21
-99.6923
0
LINE
8
BLACK
6
CONTINUOUS
10
113.925
20
-99.6923
11
113.974
21
-99.6792
0
LINE
8
BLACK
6
CONTINUOUS
10
113.974
20
-99.6792
11
114.219
21
-99.6792
0
LINE
8
BLACK
6
CONTINUOUS
10
114.219
20
-99.6792
11
114.252
21
-99.6851
0
LINE
8
BLACK
6
CONTINUOUS
10
119.052
20
-99.6601
11
119.081
21
-99.677
0
LINE
8
BLACK
6
CONTINUOUS
10
119.081
20
-99.677
11
119.103
21
-99.703
0
LINE
8
BLACK
6
CONTINUOUS
10
119.103
20
-99.703
11
119.116
21
-99.7517
0
LINE
8
BLACK
6
CONTINUOUS
10
119.116
20
-99.7517
11
119.116
21
-99.9467
0
LINE
8
BLACK
6
CONTINUOUS
10
119.116
20
-99.9467
11
119.11
21
-99.9801
0
LINE
8
BLACK
6
CONTINUOUS
10
119.11
20
-99.9801
11
119.093
21
-100.009
0
LINE
8
BLACK
6
CONTINUOUS
10
119.093
20
-100.009
11
119.067
21
-100.031
0
LINE
8
BLACK
6
CONTINUOUS
10
119.067
20
-100.031
11
119.019
21
-100.044
0
LINE
8
BLACK
6
CONTINUOUS
10
119.019
20
-100.044
11
118.774
21
-100.044
0
LINE
8
BLACK
6
CONTINUOUS
10
118.774
20
-100.044
11
118.74
21
-100.038
0
LINE
8
BLACK
6
CONTINUOUS
10
118.74
20
-100.038
11
118.711
21
-100.021
0
LINE
8
BLACK
6
CONTINUOUS
10
118.711
20
-100.021
11
118.689
21
-99.9955
0
LINE
8
BLACK
6
CONTINUOUS
10
118.689
20
-99.9955
11
118.676
21
-99.9467
0
LINE
8
BLACK
6
CONTINUOUS
10
118.676
20
-99.9467
11
118.676
21
-99.7517
0
LINE
8
BLACK
6
CONTINUOUS
10
118.676
20
-99.7517
11
118.682
21
-99.7184
0
LINE
8
BLACK
6
CONTINUOUS
10
118.682
20
-99.7184
11
118.699
21
-99.689
0
LINE
8
BLACK
6
CONTINUOUS
10
118.699
20
-99.689
11
118.725
21
-99.6673
0
LINE
8
BLACK
6
CONTINUOUS
10
118.725
20
-99.6673
11
118.774
21
-99.6542
0
LINE
8
BLACK
6
CONTINUOUS
10
118.774
20
-99.6542
11
119.019
21
-99.6542
0
LINE
8
BLACK
6
CONTINUOUS
10
119.019
20
-99.6542
11
119.052
21
-99.6601
0
LINE
8
BLACK
6
CONTINUOUS
10
117.612
20
-98.7451
11
117.641
21
-98.762
0
LINE
8
BLACK
6
CONTINUOUS
10
117.641
20
-98.762
11
117.663
21
-98.788
0
LINE
8
BLACK
6
CONTINUOUS
10
117.663
20
-98.788
11
117.676
21
-98.8367
0
LINE
8
BLACK
6
CONTINUOUS
10
117.676
20
-98.8367
11
117.676
21
-99.0817
0
LINE
8
BLACK
6
CONTINUOUS
10
117.676
20
-99.0817
11
117.67
21
-99.1151
0
LINE
8
BLACK
6
CONTINUOUS
10
117.67
20
-99.1151
11
117.653
21
-99.1444
0
LINE
8
BLACK
6
CONTINUOUS
10
117.653
20
-99.1444
11
117.627
21
-99.1661
0
LINE
8
BLACK
6
CONTINUOUS
10
117.627
20
-99.1661
11
117.579
21
-99.1792
0
LINE
8
BLACK
6
CONTINUOUS
10
117.579
20
-99.1792
11
117.384
21
-99.1792
0
LINE
8
BLACK
6
CONTINUOUS
10
117.384
20
-99.1792
11
117.35
21
-99.1733
0
LINE
8
BLACK
6
CONTINUOUS
10
117.35
20
-99.1733
11
117.321
21
-99.1564
0
LINE
8
BLACK
6
CONTINUOUS
10
117.321
20
-99.1564
11
117.299
21
-99.1305
0
LINE
8
BLACK
6
CONTINUOUS
10
117.299
20
-99.1305
11
117.286
21
-99.0817
0
LINE
8
BLACK
6
CONTINUOUS
10
117.286
20
-99.0817
11
117.286
21
-98.8367
0
LINE
8
BLACK
6
CONTINUOUS
10
117.286
20
-98.8367
11
117.292
21
-98.8034
0
LINE
8
BLACK
6
CONTINUOUS
10
117.292
20
-98.8034
11
117.309
21
-98.774
0
LINE
8
BLACK
6
CONTINUOUS
10
117.309
20
-98.774
11
117.335
21
-98.7523
0
LINE
8
BLACK
6
CONTINUOUS
10
117.335
20
-98.7523
11
117.384
21
-98.7392
0
LINE
8
BLACK
6
CONTINUOUS
10
117.384
20
-98.7392
11
117.579
21
-98.7392
0
LINE
8
BLACK
6
CONTINUOUS
10
117.579
20
-98.7392
11
117.612
21
-98.7451
0
LINE
8
BLACK
6
CONTINUOUS
10
116.642
20
-98.7451
11
116.671
21
-98.762
0
LINE
8
BLACK
6
CONTINUOUS
10
116.671
20
-98.762
11
116.693
21
-98.788
0
LINE
8
BLACK
6
CONTINUOUS
10
116.693
20
-98.788
11
116.706
21
-98.8367
0
LINE
8
BLACK
6
CONTINUOUS
10
116.706
20
-98.8367
11
116.706
21
-99.0817
0
LINE
8
BLACK
6
CONTINUOUS
10
116.706
20
-99.0817
11
116.7
21
-99.1151
0
LINE
8
BLACK
6
CONTINUOUS
10
116.7
20
-99.1151
11
116.683
21
-99.1444
0
LINE
8
BLACK
6
CONTINUOUS
10
116.683
20
-99.1444
11
116.657
21
-99.1661
0
LINE
8
BLACK
6
CONTINUOUS
10
116.657
20
-99.1661
11
116.609
21
-99.1792
0
LINE
8
BLACK
6
CONTINUOUS
10
116.609
20
-99.1792
11
116.414
21
-99.1792
0
LINE
8
BLACK
6
CONTINUOUS
10
116.414
20
-99.1792
11
116.38
21
-99.1733
0
LINE
8
BLACK
6
CONTINUOUS
10
116.38
20
-99.1733
11
116.351
21
-99.1564
0
LINE
8
BLACK
6
CONTINUOUS
10
116.351
20
-99.1564
11
116.329
21
-99.1305
0
LINE
8
BLACK
6
CONTINUOUS
10
116.329
20
-99.1305
11
116.316
21
-99.0817
0
LINE
8
BLACK
6
CONTINUOUS
10
116.316
20
-99.0817
11
116.316
21
-98.8367
0
LINE
8
BLACK
6
CONTINUOUS
10
116.316
20
-98.8367
11
116.322
21
-98.8034
0
LINE
8
BLACK
6
CONTINUOUS
10
116.322
20
-98.8034
11
116.339
21
-98.774
0
LINE
8
BLACK
6
CONTINUOUS
10
116.339
20
-98.774
11
116.365
21
-98.7523
0
LINE
8
BLACK
6
CONTINUOUS
10
116.365
20
-98.7523
11
116.414
21
-98.7392
0
LINE
8
BLACK
6
CONTINUOUS
10
116.414
20
-98.7392
11
116.609
21
-98.7392
0
LINE
8
BLACK
6
CONTINUOUS
10
116.609
20
-98.7392
11
116.642
21
-98.7451
0
LINE
8
BLACK
6
CONTINUOUS
10
116.617
20
-97.5701
11
116.646
21
-97.587
0
LINE
8
BLACK
6
CONTINUOUS
10
116.646
20
-97.587
11
116.668
21
-97.613
0
LINE
8
BLACK
6
CONTINUOUS
10
116.668
20
-97.613
11
116.681
21
-97.6617
0
LINE
8
BLACK
6
CONTINUOUS
10
116.681
20
-97.6617
11
116.681
21
-97.9067
0
LINE
8
BLACK
6
CONTINUOUS
10
116.681
20
-97.9067
11
116.675
21
-97.9401
0
LINE
8
BLACK
6
CONTINUOUS
10
116.675
20
-97.9401
11
116.658
21
-97.9694
0
LINE
8
BLACK
6
CONTINUOUS
10
116.658
20
-97.9694
11
116.632
21
-97.9911
0
LINE
8
BLACK
6
CONTINUOUS
10
116.632
20
-97.9911
11
116.584
21
-98.0042
0
LINE
8
BLACK
6
CONTINUOUS
10
116.584
20
-98.0042
11
116.389
21
-98.0042
0
LINE
8
BLACK
6
CONTINUOUS
10
116.389
20
-98.0042
11
116.355
21
-97.9983
0
LINE
8
BLACK
6
CONTINUOUS
10
116.355
20
-97.9983
11
116.326
21
-97.9814
0
LINE
8
BLACK
6
CONTINUOUS
10
116.326
20
-97.9814
11
116.304
21
-97.9555
0
LINE
8
BLACK
6
CONTINUOUS
10
116.304
20
-97.9555
11
116.291
21
-97.9067
0
LINE
8
BLACK
6
CONTINUOUS
10
116.291
20
-97.9067
11
116.291
21
-97.6617
0
LINE
8
BLACK
6
CONTINUOUS
10
116.291
20
-97.6617
11
116.297
21
-97.6284
0
LINE
8
BLACK
6
CONTINUOUS
10
116.297
20
-97.6284
11
116.314
21
-97.599
0
LINE
8
BLACK
6
CONTINUOUS
10
116.314
20
-97.599
11
116.34
21
-97.5773
0
LINE
8
BLACK
6
CONTINUOUS
10
116.34
20
-97.5773
11
116.389
21
-97.5642
0
LINE
8
BLACK
6
CONTINUOUS
10
116.389
20
-97.5642
11
116.584
21
-97.5642
0
LINE
8
BLACK
6
CONTINUOUS
10
116.584
20
-97.5642
11
116.617
21
-97.5701
0
LINE
8
BLACK
6
CONTINUOUS
10
117.587
20
-97.5701
11
117.616
21
-97.587
0
LINE
8
BLACK
6
CONTINUOUS
10
117.616
20
-97.587
11
117.638
21
-97.613
0
LINE
8
BLACK
6
CONTINUOUS
10
117.638
20
-97.613
11
117.651
21
-97.6617
0
LINE
8
BLACK
6
CONTINUOUS
10
117.651
20
-97.6617
11
117.651
21
-97.9067
0
LINE
8
BLACK
6
CONTINUOUS
10
117.651
20
-97.9067
11
117.645
21
-97.9401
0
LINE
8
BLACK
6
CONTINUOUS
10
117.645
20
-97.9401
11
117.628
21
-97.9694
0
LINE
8
BLACK
6
CONTINUOUS
10
117.628
20
-97.9694
11
117.602
21
-97.9911
0
LINE
8
BLACK
6
CONTINUOUS
10
117.602
20
-97.9911
11
117.554
21
-98.0042
0
LINE
8
BLACK
6
CONTINUOUS
10
117.554
20
-98.0042
11
117.359
21
-98.0042
0
LINE
8
BLACK
6
CONTINUOUS
10
117.359
20
-98.0042
11
117.325
21
-97.9983
0
LINE
8
BLACK
6
CONTINUOUS
10
117.325
20
-97.9983
11
117.296
21
-97.9814
0
LINE
8
BLACK
6
CONTINUOUS
10
117.296
20
-97.9814
11
117.274
21
-97.9555
0
LINE
8
BLACK
6
CONTINUOUS
10
117.274
20
-97.9555
11
117.261
21
-97.9067
0
LINE
8
BLACK
6
CONTINUOUS
10
117.261
20
-97.9067
11
117.261
21
-97.6617
0
LINE
8
BLACK
6
CONTINUOUS
10
117.261
20
-97.6617
11
117.267
21
-97.6284
0
LINE
8
BLACK
6
CONTINUOUS
10
117.267
20
-97.6284
11
117.284
21
-97.599
0
LINE
8
BLACK
6
CONTINUOUS
10
117.284
20
-97.599
11
117.31
21
-97.5773
0
LINE
8
BLACK
6
CONTINUOUS
10
117.31
20
-97.5773
11
117.359
21
-97.5642
0
LINE
8
BLACK
6
CONTINUOUS
10
117.359
20
-97.5642
11
117.554
21
-97.5642
0
LINE
8
BLACK
6
CONTINUOUS
10
117.554
20
-97.5642
11
117.587
21
-97.5701
  0
ENDSEC
  0
EOF
