M48
INCH,TZ
T1C0.0118
T2C0.0197
T3C0.0256
%
G90
G05
T1
X39972Y-47555
X40736Y-46709
X41173Y-41846
X41177Y-40508
X41232Y-43037
X41890Y-48299
X41898Y-50315
X42800Y-44800
X42803Y-44213
X43161Y-45252
X43161Y-45606
X43280Y-50551
X43315Y-49882
X43535Y-46335
X43752Y-47543
X43906Y-44354
X43976Y-45197
X44039Y-44854
X44059Y-41807
X44189Y-42921
X44362Y-43815
X44630Y-40020
X44717Y-48382
X44764Y-47217
X44776Y-40476
X45244Y-45008
X45291Y-48465
X45528Y-43677
X45681Y-47059
X45681Y-47732
X45701Y-42870
X45772Y-48264
X45791Y-49685
X46004Y-48650
X46209Y-50205
X46417Y-45100
X46547Y-45764
X46551Y-49646
X46567Y-42102
X46815Y-43161
X47067Y-45217
X47071Y-40921
X47276Y-41429
X47276Y-49098
X47297Y-49457
X47327Y-45980
X47404Y-42476
X47561Y-48933
X47561Y-48933
X47695Y-44947
X47941Y-44945
X48230Y-43470
X48230Y-44110
X48457Y-41610
X48457Y-42264
X48476Y-39819
X48831Y-45669
X48924Y-43931
X48969Y-43215
X49923Y-43195
X60193Y-42089
X60428Y-46848
X60917Y-42809
X61291Y-48360
X61327Y-49167
X61665Y-46923
X61783Y-46096
X62106Y-44951
X62118Y-47573
X62591Y-42415
X62689Y-43301
X63031Y-44407
X63276Y-45900
X63319Y-44781
X63378Y-45112
X63457Y-45604
X63457Y-47967
X63870Y-44738
X64106Y-46904
X64602Y-43608
X64874Y-47848
X64933Y-43750
X65110Y-46136
X65150Y-47356
X65201Y-47695
T3
X65559Y-50234
X66449Y-50781
X50516Y-43524
X50024Y-46492
X50024Y-47043
X66449Y-50230
X50024Y-47594
X66449Y-46923
X66449Y-48026
X39768Y-44610
X66449Y-45270
X65681Y-44443
X65681Y-44994
X50024Y-45941
X50024Y-44839
X66449Y-47474
X49205Y-40134
X49205Y-40634
X49205Y-41134
X49205Y-41634
X49205Y-42134
X49705Y-40134
X49705Y-40634
X49705Y-41134
X49705Y-41634
X49705Y-42134
X66449Y-48577
X50024Y-44287
X50024Y-45390
X66449Y-49679
X66449Y-49128
X66449Y-44719
X50516Y-42972
X66449Y-45821
X66449Y-46372
X42953Y-43673
T2
G00X63067Y-40148
M15
G01X63067Y-39911
M16
G05
G00X63209Y-42490
M15
G01X63209Y-42254
M16
G05
G00X66461Y-42490
M15
G01X66461Y-42254
M16
G05
G00X66602Y-40148
M15
G01X66602Y-39911
M16
G05
T0
M30
