<?xml version="1.0" standalone="no"?>
 <!DOCTYPE svg PUBLIC "-//W3C//DTD SVG 1.1//EN" 
 "http://www.w3.org/Graphics/SVG/1.1/DTD/svg11.dtd"> 
<svg xmlns="http://www.w3.org/2000/svg" version="1.1" 
    width="29.7002cm" height="21.0007cm" viewBox="0 0 116930 82680 ">
<title>SVG Picture created as HealthMonitor-B.Paste.svg date 2019/05/29 10:58:55 </title>
  <desc>Picture generated by PCBNEW </desc>
<g style="fill:#000000; fill-opacity:1;stroke:#000000; stroke-opacity:1;
stroke-linecap:round; stroke-linejoin:round; "
 transform="translate(0 0) scale(1 1)">
</g>
<g style="fill:#000000; fill-opacity:0.0; 
stroke:#000000; stroke-width:-0.000393701; stroke-opacity:1; 
stroke-linecap:round; stroke-linejoin:round;">
</g>
<g style="fill:#000000; fill-opacity:0.0; 
stroke:#000000; stroke-width:59.0551; stroke-opacity:1; 
stroke-linecap:round; stroke-linejoin:round;">
<path d="M59055 51181
L66929 51181
" />
<path d="M66929 39370
L59055 39370
" />
<path d="M51181 39374
L51181 51185
" />
<path d="M59055 39374
L59055 51185
" />
<path d="M51181 51181
L39370 51181
" />
<path d="M39370 39370
L39370 51181
" />
<path d="M51181 39370
L39370 39370
" />
<path d="M66933 39370
L66933 51181
" />
</g>
<g style="fill:#000000; fill-opacity:0.0; 
stroke:#000000; stroke-width:0; stroke-opacity:1; 
stroke-linecap:round; stroke-linejoin:round;">
</g>
<g style="fill:#000000; fill-opacity:1.0; 
stroke:#000000; stroke-width:0; stroke-opacity:1; 
stroke-linecap:round; stroke-linejoin:round;">
<polyline style="fill-rule:evenodd;"
points="42744,45944
42744,46889
42232,46889
42232,45944
42744,45944
" /> 
<polyline style="fill-rule:evenodd;"
points="41562,45944
41562,46889
41051,46889
41051,45944
41562,45944
" /> 
<polyline style="fill-rule:evenodd;"
points="43479,47386
43486,47388
43494,47389
43501,47392
43508,47395
43515,47399
43521,47404
43527,47409
43532,47415
43536,47421
43540,47428
43544,47435
43546,47442
43548,47449
43549,47457
43550,47465
43550,47622
43549,47630
43548,47638
43546,47645
43544,47652
43540,47659
43536,47666
43532,47672
43527,47678
43521,47683
43515,47688
43508,47692
43501,47695
43494,47698
43486,47699
43479,47701
43471,47701
43097,47701
43089,47701
43082,47699
43074,47698
43067,47695
43060,47692
43053,47688
43047,47683
43041,47678
43036,47672
43032,47666
43028,47659
43024,47652
43022,47645
43020,47638
43019,47630
43018,47622
43018,47465
43019,47457
43020,47449
43022,47442
43024,47435
43028,47428
43032,47421
43036,47415
43041,47409
43047,47404
43053,47399
43060,47395
43067,47392
43074,47389
43082,47388
43089,47386
43097,47386
43471,47386
43479,47386
" /> 
<polyline style="fill-rule:evenodd;"
points="42475,47386
42482,47388
42490,47389
42497,47392
42504,47395
42511,47399
42517,47404
42523,47409
42528,47415
42533,47421
42537,47428
42540,47435
42542,47442
42544,47449
42545,47457
42546,47465
42546,47622
42545,47630
42544,47638
42542,47645
42540,47652
42537,47659
42533,47666
42528,47672
42523,47678
42517,47683
42511,47688
42504,47692
42497,47695
42490,47698
42482,47699
42475,47701
42467,47701
42093,47701
42085,47701
42078,47699
42070,47698
42063,47695
42056,47692
42049,47688
42043,47683
42037,47678
42032,47672
42028,47666
42024,47659
42020,47652
42018,47645
42016,47638
42015,47630
42014,47622
42014,47465
42015,47457
42016,47449
42018,47442
42020,47435
42024,47428
42028,47421
42032,47415
42037,47409
42043,47404
42049,47399
42056,47395
42063,47392
42070,47389
42078,47388
42085,47386
42093,47386
42467,47386
42475,47386
" /> 
<polyline style="fill-rule:evenodd;"
points="43479,49040
43486,49041
43494,49043
43501,49046
43508,49049
43515,49053
43521,49057
43527,49063
43532,49068
43536,49075
43540,49081
43544,49088
43546,49095
43548,49103
43549,49111
43550,49118
43550,49276
43549,49284
43548,49291
43546,49299
43544,49306
43540,49313
43536,49320
43532,49326
43527,49331
43521,49337
43515,49341
43508,49345
43501,49349
43494,49351
43486,49353
43479,49354
43471,49355
43097,49355
43089,49354
43082,49353
43074,49351
43067,49349
43060,49345
43053,49341
43047,49337
43041,49331
43036,49326
43032,49320
43028,49313
43024,49306
43022,49299
43020,49291
43019,49284
43018,49276
43018,49118
43019,49111
43020,49103
43022,49095
43024,49088
43028,49081
43032,49075
43036,49068
43041,49063
43047,49057
43053,49053
43060,49049
43067,49046
43074,49043
43082,49041
43089,49040
43097,49040
43471,49040
43479,49040
" /> 
<polyline style="fill-rule:evenodd;"
points="42475,49040
42482,49041
42490,49043
42497,49046
42504,49049
42511,49053
42517,49057
42523,49063
42528,49068
42533,49075
42537,49081
42540,49088
42542,49095
42544,49103
42545,49111
42546,49118
42546,49276
42545,49284
42544,49291
42542,49299
42540,49306
42537,49313
42533,49320
42528,49326
42523,49331
42517,49337
42511,49341
42504,49345
42497,49349
42490,49351
42482,49353
42475,49354
42467,49355
42093,49355
42085,49354
42078,49353
42070,49351
42063,49349
42056,49345
42049,49341
42043,49337
42037,49331
42032,49326
42028,49320
42024,49313
42020,49306
42018,49299
42016,49291
42015,49284
42014,49276
42014,49118
42015,49111
42016,49103
42018,49095
42020,49088
42024,49081
42028,49075
42032,49068
42037,49063
42043,49057
42049,49053
42056,49049
42063,49046
42070,49043
42078,49041
42085,49040
42093,49040
42467,49040
42475,49040
" /> 
<polyline style="fill-rule:evenodd;"
points="45088,45055
45097,45056
45107,45058
45116,45062
45125,45066
45133,45071
45141,45077
45148,45083
45154,45090
45160,45098
45165,45106
45169,45115
45172,45124
45175,45133
45176,45143
45177,45153
45177,45369
45176,45379
45175,45388
45172,45398
45169,45407
45165,45416
45160,45424
45154,45432
45148,45439
45141,45445
45133,45451
45125,45456
45116,45460
45107,45463
45097,45466
45088,45467
45078,45468
44862,45468
44852,45467
44843,45466
44833,45463
44824,45460
44815,45456
44807,45451
44799,45445
44792,45439
44786,45432
44780,45424
44775,45416
44771,45407
44768,45398
44765,45388
44764,45379
44763,45369
44763,45153
44764,45143
44765,45133
44768,45124
44771,45115
44775,45106
44780,45098
44786,45090
44792,45083
44799,45077
44807,45071
44815,45066
44824,45062
44833,45058
44843,45056
44852,45055
44862,45054
45078,45054
45088,45055
" /> 
<polyline style="fill-rule:evenodd;"
points="45088,44543
45097,44544
45107,44547
45116,44550
45125,44554
45133,44559
45141,44565
45148,44571
45154,44578
45160,44586
45165,44594
45169,44603
45172,44612
45175,44622
45176,44631
45177,44641
45177,44857
45176,44867
45175,44877
45172,44886
45169,44895
45165,44904
45160,44912
45154,44920
45148,44927
45141,44933
45133,44939
45125,44944
45116,44948
45107,44952
45097,44954
45088,44955
45078,44956
44862,44956
44852,44955
44843,44954
44833,44952
44824,44948
44815,44944
44807,44939
44799,44933
44792,44927
44786,44920
44780,44912
44775,44904
44771,44895
44768,44886
44765,44877
44764,44867
44763,44857
44763,44641
44764,44631
44765,44622
44768,44612
44771,44603
44775,44594
44780,44586
44786,44578
44792,44571
44799,44565
44807,44559
44815,44554
44824,44550
44833,44547
44843,44544
44852,44543
44862,44542
45078,44542
45088,44543
" /> 
<polyline style="fill-rule:evenodd;"
points="45600,45055
45609,45056
45619,45058
45628,45062
45636,45066
45645,45071
45652,45077
45660,45083
45666,45090
45672,45098
45677,45106
45681,45115
45684,45124
45687,45133
45688,45143
45688,45153
45688,45369
45688,45379
45687,45388
45684,45398
45681,45407
45677,45416
45672,45424
45666,45432
45660,45439
45652,45445
45645,45451
45636,45456
45628,45460
45619,45463
45609,45466
45600,45467
45590,45468
45374,45468
45364,45467
45354,45466
45345,45463
45336,45460
45327,45456
45319,45451
45311,45445
45304,45439
45297,45432
45292,45424
45287,45416
45283,45407
45279,45398
45277,45388
45276,45379
45275,45369
45275,45153
45276,45143
45277,45133
45279,45124
45283,45115
45287,45106
45292,45098
45297,45090
45304,45083
45311,45077
45319,45071
45327,45066
45336,45062
45345,45058
45354,45056
45364,45055
45374,45054
45590,45054
45600,45055
" /> 
<polyline style="fill-rule:evenodd;"
points="45600,44543
45609,44544
45619,44547
45628,44550
45636,44554
45645,44559
45652,44565
45660,44571
45666,44578
45672,44586
45677,44594
45681,44603
45684,44612
45687,44622
45688,44631
45688,44641
45688,44857
45688,44867
45687,44877
45684,44886
45681,44895
45677,44904
45672,44912
45666,44920
45660,44927
45652,44933
45645,44939
45636,44944
45628,44948
45619,44952
45609,44954
45600,44955
45590,44956
45374,44956
45364,44955
45354,44954
45345,44952
45336,44948
45327,44944
45319,44939
45311,44933
45304,44927
45297,44920
45292,44912
45287,44904
45283,44895
45279,44886
45277,44877
45276,44867
45275,44857
45275,44641
45276,44631
45277,44622
45279,44612
45283,44603
45287,44594
45292,44586
45297,44578
45304,44571
45311,44565
45319,44559
45327,44554
45336,44550
45345,44547
45354,44544
45364,44543
45374,44542
45590,44542
45600,44543
" /> 
<polyline style="fill-rule:evenodd;"
points="44582,45487
44582,45487
44583,45487
44583,45488
44584,45488
44584,45488
44584,45488
44585,45489
44585,45489
44585,45489
44586,45490
44586,45490
44586,45491
44586,45491
44586,45492
44586,45492
44586,45502
44586,45503
44586,45503
44586,45503
44586,45504
44586,45504
44585,45505
44585,45505
44585,45506
44584,45506
44584,45506
44584,45506
44583,45507
44583,45507
44582,45507
44582,45507
44581,45507
44345,45507
44344,45507
44344,45507
44344,45507
44343,45507
44343,45506
44342,45506
44342,45506
44341,45506
44341,45505
44341,45505
44341,45504
44340,45504
44340,45503
44340,45503
44340,45503
44340,45502
44340,45492
44340,45492
44340,45491
44340,45491
44340,45490
44341,45490
44341,45489
44341,45489
44341,45489
44342,45488
44342,45488
44343,45488
44343,45488
44344,45487
44344,45487
44344,45487
44345,45487
44581,45487
44582,45487
" /> 
<polyline style="fill-rule:evenodd;"
points="44582,45290
44582,45291
44583,45291
44583,45291
44584,45291
44584,45291
44584,45292
44585,45292
44585,45292
44585,45293
44586,45293
44586,45293
44586,45294
44586,45294
44586,45295
44586,45295
44586,45305
44586,45306
44586,45306
44586,45307
44586,45307
44586,45307
44585,45308
44585,45308
44585,45309
44584,45309
44584,45309
44584,45310
44583,45310
44583,45310
44582,45310
44582,45310
44581,45310
44345,45310
44344,45310
44344,45310
44344,45310
44343,45310
44343,45310
44342,45309
44342,45309
44341,45309
44341,45308
44341,45308
44341,45307
44340,45307
44340,45307
44340,45306
44340,45306
44340,45305
44340,45295
44340,45295
44340,45294
44340,45294
44340,45293
44341,45293
44341,45293
44341,45292
44341,45292
44342,45292
44342,45291
44343,45291
44343,45291
44344,45291
44344,45291
44344,45290
44345,45290
44581,45290
44582,45290
" /> 
<polyline style="fill-rule:evenodd;"
points="44582,45094
44582,45094
44583,45094
44583,45094
44584,45094
44584,45094
44584,45095
44585,45095
44585,45095
44585,45096
44586,45096
44586,45097
44586,45097
44586,45098
44586,45098
44586,45098
44586,45108
44586,45109
44586,45109
44586,45110
44586,45110
44586,45111
44585,45111
44585,45111
44585,45112
44584,45112
44584,45112
44584,45113
44583,45113
44583,45113
44582,45113
44582,45113
44581,45113
44345,45113
44344,45113
44344,45113
44344,45113
44343,45113
44343,45113
44342,45112
44342,45112
44341,45112
44341,45111
44341,45111
44341,45111
44340,45110
44340,45110
44340,45109
44340,45109
44340,45108
44340,45098
44340,45098
44340,45098
44340,45097
44340,45097
44341,45096
44341,45096
44341,45095
44341,45095
44342,45095
44342,45094
44343,45094
44343,45094
44344,45094
44344,45094
44344,45094
44345,45094
44581,45094
44582,45094
" /> 
<polyline style="fill-rule:evenodd;"
points="44582,44897
44582,44897
44583,44897
44583,44897
44584,44897
44584,44898
44584,44898
44585,44898
44585,44899
44585,44899
44586,44899
44586,44900
44586,44900
44586,44901
44586,44901
44586,44902
44586,44911
44586,44912
44586,44912
44586,44913
44586,44913
44586,44914
44585,44914
44585,44915
44585,44915
44584,44915
44584,44916
44584,44916
44583,44916
44583,44916
44582,44916
44582,44916
44581,44916
44345,44916
44344,44916
44344,44916
44344,44916
44343,44916
44343,44916
44342,44916
44342,44915
44341,44915
44341,44915
44341,44914
44341,44914
44340,44913
44340,44913
44340,44912
44340,44912
44340,44911
44340,44902
44340,44901
44340,44901
44340,44900
44340,44900
44341,44899
44341,44899
44341,44899
44341,44898
44342,44898
44342,44898
44343,44897
44343,44897
44344,44897
44344,44897
44344,44897
44345,44897
44581,44897
44582,44897
" /> 
<polyline style="fill-rule:evenodd;"
points="44582,44700
44582,44700
44583,44700
44583,44700
44584,44700
44584,44701
44584,44701
44585,44701
44585,44702
44585,44702
44586,44702
44586,44703
44586,44703
44586,44704
44586,44704
44586,44705
44586,44715
44586,44715
44586,44716
44586,44716
44586,44717
44586,44717
44585,44717
44585,44718
44585,44718
44584,44718
44584,44719
44584,44719
44583,44719
44583,44719
44582,44719
44582,44720
44581,44720
44345,44720
44344,44720
44344,44719
44344,44719
44343,44719
44343,44719
44342,44719
44342,44718
44341,44718
44341,44718
44341,44717
44341,44717
44340,44717
44340,44716
44340,44716
44340,44715
44340,44715
44340,44705
44340,44704
44340,44704
44340,44703
44340,44703
44341,44702
44341,44702
44341,44702
44341,44701
44342,44701
44342,44701
44343,44700
44343,44700
44344,44700
44344,44700
44344,44700
44345,44700
44581,44700
44582,44700
" /> 
<polyline style="fill-rule:evenodd;"
points="44582,44503
44582,44503
44583,44503
44583,44503
44584,44504
44584,44504
44584,44504
44585,44504
44585,44505
44585,44505
44586,44506
44586,44506
44586,44507
44586,44507
44586,44507
44586,44508
44586,44518
44586,44518
44586,44519
44586,44519
44586,44520
44586,44520
44585,44521
44585,44521
44585,44521
44584,44522
44584,44522
44584,44522
44583,44522
44583,44522
44582,44523
44582,44523
44581,44523
44345,44523
44344,44523
44344,44523
44344,44522
44343,44522
44343,44522
44342,44522
44342,44522
44341,44521
44341,44521
44341,44521
44341,44520
44340,44520
44340,44519
44340,44519
44340,44518
44340,44518
44340,44508
44340,44507
44340,44507
44340,44507
44340,44506
44341,44506
44341,44505
44341,44505
44341,44504
44342,44504
44342,44504
44343,44504
44343,44503
44344,44503
44344,44503
44344,44503
44345,44503
44581,44503
44582,44503
" /> 
<polyline style="fill-rule:evenodd;"
points="44739,44119
44740,44119
44740,44119
44741,44120
44741,44120
44741,44120
44742,44120
44742,44121
44742,44121
44743,44121
44743,44122
44743,44122
44743,44123
44744,44123
44744,44124
44744,44124
44744,44360
44744,44361
44744,44361
44743,44362
44743,44362
44743,44363
44743,44363
44742,44363
44742,44364
44742,44364
44741,44364
44741,44365
44741,44365
44740,44365
44740,44365
44739,44365
44739,44365
44729,44365
44728,44365
44728,44365
44727,44365
44727,44365
44727,44365
44726,44364
44726,44364
44725,44364
44725,44363
44725,44363
44724,44363
44724,44362
44724,44362
44724,44361
44724,44361
44724,44360
44724,44124
44724,44124
44724,44123
44724,44123
44724,44122
44724,44122
44725,44121
44725,44121
44725,44121
44726,44120
44726,44120
44727,44120
44727,44120
44727,44119
44728,44119
44728,44119
44729,44119
44739,44119
44739,44119
" /> 
<polyline style="fill-rule:evenodd;"
points="44936,44119
44936,44119
44937,44119
44937,44120
44938,44120
44938,44120
44939,44120
44939,44121
44939,44121
44940,44121
44940,44122
44940,44122
44940,44123
44940,44123
44940,44124
44940,44124
44940,44360
44940,44361
44940,44361
44940,44362
44940,44362
44940,44363
44940,44363
44939,44363
44939,44364
44939,44364
44938,44364
44938,44365
44937,44365
44937,44365
44936,44365
44936,44365
44936,44365
44926,44365
44925,44365
44925,44365
44924,44365
44924,44365
44923,44365
44923,44364
44923,44364
44922,44364
44922,44363
44922,44363
44921,44363
44921,44362
44921,44362
44921,44361
44921,44361
44921,44360
44921,44124
44921,44124
44921,44123
44921,44123
44921,44122
44921,44122
44922,44121
44922,44121
44922,44121
44923,44120
44923,44120
44923,44120
44924,44120
44924,44119
44925,44119
44925,44119
44926,44119
44936,44119
44936,44119
" /> 
<polyline style="fill-rule:evenodd;"
points="45133,44119
45133,44119
45134,44119
45134,44120
45135,44120
45135,44120
45135,44120
45136,44121
45136,44121
45136,44121
45137,44122
45137,44122
45137,44123
45137,44123
45137,44124
45137,44124
45137,44360
45137,44361
45137,44361
45137,44362
45137,44362
45137,44363
45136,44363
45136,44363
45136,44364
45135,44364
45135,44364
45135,44365
45134,44365
45134,44365
45133,44365
45133,44365
45132,44365
45123,44365
45122,44365
45122,44365
45121,44365
45121,44365
45120,44365
45120,44364
45119,44364
45119,44364
45119,44363
45118,44363
45118,44363
45118,44362
45118,44362
45118,44361
45118,44361
45118,44360
45118,44124
45118,44124
45118,44123
45118,44123
45118,44122
45118,44122
45118,44121
45119,44121
45119,44121
45119,44120
45120,44120
45120,44120
45121,44120
45121,44119
45122,44119
45122,44119
45123,44119
45132,44119
45133,44119
" /> 
<polyline style="fill-rule:evenodd;"
points="45330,44119
45330,44119
45331,44119
45331,44120
45332,44120
45332,44120
45332,44120
45333,44121
45333,44121
45333,44121
45334,44122
45334,44122
45334,44123
45334,44123
45334,44124
45334,44124
45334,44360
45334,44361
45334,44361
45334,44362
45334,44362
45334,44363
45333,44363
45333,44363
45333,44364
45332,44364
45332,44364
45332,44365
45331,44365
45331,44365
45330,44365
45330,44365
45329,44365
45319,44365
45319,44365
45318,44365
45318,44365
45317,44365
45317,44365
45317,44364
45316,44364
45316,44364
45316,44363
45315,44363
45315,44363
45315,44362
45315,44362
45315,44361
45314,44361
45314,44360
45314,44124
45314,44124
45315,44123
45315,44123
45315,44122
45315,44122
45315,44121
45316,44121
45316,44121
45316,44120
45317,44120
45317,44120
45317,44120
45318,44119
45318,44119
45319,44119
45319,44119
45329,44119
45330,44119
" /> 
<polyline style="fill-rule:evenodd;"
points="45527,44119
45527,44119
45528,44119
45528,44120
45528,44120
45529,44120
45529,44120
45530,44121
45530,44121
45530,44121
45530,44122
45531,44122
45531,44123
45531,44123
45531,44124
45531,44124
45531,44360
45531,44361
45531,44361
45531,44362
45531,44362
45530,44363
45530,44363
45530,44363
45530,44364
45529,44364
45529,44364
45528,44365
45528,44365
45528,44365
45527,44365
45527,44365
45526,44365
45516,44365
45516,44365
45515,44365
45515,44365
45514,44365
45514,44365
45513,44364
45513,44364
45513,44364
45512,44363
45512,44363
45512,44363
45512,44362
45512,44362
45511,44361
45511,44361
45511,44360
45511,44124
45511,44124
45511,44123
45512,44123
45512,44122
45512,44122
45512,44121
45512,44121
45513,44121
45513,44120
45513,44120
45514,44120
45514,44120
45515,44119
45515,44119
45516,44119
45516,44119
45526,44119
45527,44119
" /> 
<polyline style="fill-rule:evenodd;"
points="45723,44119
45724,44119
45724,44119
45725,44120
45725,44120
45726,44120
45726,44120
45726,44121
45727,44121
45727,44121
45727,44122
45727,44122
45728,44123
45728,44123
45728,44124
45728,44124
45728,44360
45728,44361
45728,44361
45728,44362
45727,44362
45727,44363
45727,44363
45727,44363
45726,44364
45726,44364
45726,44364
45725,44365
45725,44365
45724,44365
45724,44365
45723,44365
45723,44365
45713,44365
45713,44365
45712,44365
45712,44365
45711,44365
45711,44365
45710,44364
45710,44364
45710,44364
45709,44363
45709,44363
45709,44363
45709,44362
45708,44362
45708,44361
45708,44361
45708,44360
45708,44124
45708,44124
45708,44123
45708,44123
45709,44122
45709,44122
45709,44121
45709,44121
45710,44121
45710,44120
45710,44120
45711,44120
45711,44120
45712,44119
45712,44119
45713,44119
45713,44119
45723,44119
45723,44119
" /> 
<polyline style="fill-rule:evenodd;"
points="46107,44503
46108,44503
46108,44503
46109,44503
46109,44504
46110,44504
46110,44504
46110,44504
46111,44505
46111,44505
46111,44506
46111,44506
46111,44507
46112,44507
46112,44507
46112,44508
46112,44518
46112,44518
46112,44519
46111,44519
46111,44520
46111,44520
46111,44521
46111,44521
46110,44521
46110,44522
46110,44522
46109,44522
46109,44522
46108,44522
46108,44523
46107,44523
46107,44523
45871,44523
45870,44523
45870,44523
45869,44522
45869,44522
45868,44522
45868,44522
45867,44522
45867,44521
45867,44521
45866,44521
45866,44520
45866,44520
45866,44519
45866,44519
45866,44518
45866,44518
45866,44508
45866,44507
45866,44507
45866,44507
45866,44506
45866,44506
45866,44505
45867,44505
45867,44504
45867,44504
45868,44504
45868,44504
45869,44503
45869,44503
45870,44503
45870,44503
45871,44503
46107,44503
46107,44503
" /> 
<polyline style="fill-rule:evenodd;"
points="46107,44700
46108,44700
46108,44700
46109,44700
46109,44700
46110,44701
46110,44701
46110,44701
46111,44702
46111,44702
46111,44702
46111,44703
46111,44703
46112,44704
46112,44704
46112,44705
46112,44715
46112,44715
46112,44716
46111,44716
46111,44717
46111,44717
46111,44717
46111,44718
46110,44718
46110,44718
46110,44719
46109,44719
46109,44719
46108,44719
46108,44719
46107,44720
46107,44720
45871,44720
45870,44720
45870,44719
45869,44719
45869,44719
45868,44719
45868,44719
45867,44718
45867,44718
45867,44718
45866,44717
45866,44717
45866,44717
45866,44716
45866,44716
45866,44715
45866,44715
45866,44705
45866,44704
45866,44704
45866,44703
45866,44703
45866,44702
45866,44702
45867,44702
45867,44701
45867,44701
45868,44701
45868,44700
45869,44700
45869,44700
45870,44700
45870,44700
45871,44700
46107,44700
46107,44700
" /> 
<polyline style="fill-rule:evenodd;"
points="46107,44897
46108,44897
46108,44897
46109,44897
46109,44897
46110,44898
46110,44898
46110,44898
46111,44899
46111,44899
46111,44899
46111,44900
46111,44900
46112,44901
46112,44901
46112,44902
46112,44911
46112,44912
46112,44912
46111,44913
46111,44913
46111,44914
46111,44914
46111,44915
46110,44915
46110,44915
46110,44916
46109,44916
46109,44916
46108,44916
46108,44916
46107,44916
46107,44916
45871,44916
45870,44916
45870,44916
45869,44916
45869,44916
45868,44916
45868,44916
45867,44915
45867,44915
45867,44915
45866,44914
45866,44914
45866,44913
45866,44913
45866,44912
45866,44912
45866,44911
45866,44902
45866,44901
45866,44901
45866,44900
45866,44900
45866,44899
45866,44899
45867,44899
45867,44898
45867,44898
45868,44898
45868,44897
45869,44897
45869,44897
45870,44897
45870,44897
45871,44897
46107,44897
46107,44897
" /> 
<polyline style="fill-rule:evenodd;"
points="46107,45094
46108,45094
46108,45094
46109,45094
46109,45094
46110,45094
46110,45095
46110,45095
46111,45095
46111,45096
46111,45096
46111,45097
46111,45097
46112,45098
46112,45098
46112,45098
46112,45108
46112,45109
46112,45109
46111,45110
46111,45110
46111,45111
46111,45111
46111,45111
46110,45112
46110,45112
46110,45112
46109,45113
46109,45113
46108,45113
46108,45113
46107,45113
46107,45113
45871,45113
45870,45113
45870,45113
45869,45113
45869,45113
45868,45113
45868,45112
45867,45112
45867,45112
45867,45111
45866,45111
45866,45111
45866,45110
45866,45110
45866,45109
45866,45109
45866,45108
45866,45098
45866,45098
45866,45098
45866,45097
45866,45097
45866,45096
45866,45096
45867,45095
45867,45095
45867,45095
45868,45094
45868,45094
45869,45094
45869,45094
45870,45094
45870,45094
45871,45094
46107,45094
46107,45094
" /> 
<polyline style="fill-rule:evenodd;"
points="46107,45290
46108,45291
46108,45291
46109,45291
46109,45291
46110,45291
46110,45292
46110,45292
46111,45292
46111,45293
46111,45293
46111,45293
46111,45294
46112,45294
46112,45295
46112,45295
46112,45305
46112,45306
46112,45306
46111,45307
46111,45307
46111,45307
46111,45308
46111,45308
46110,45309
46110,45309
46110,45309
46109,45310
46109,45310
46108,45310
46108,45310
46107,45310
46107,45310
45871,45310
45870,45310
45870,45310
45869,45310
45869,45310
45868,45310
45868,45309
45867,45309
45867,45309
45867,45308
45866,45308
45866,45307
45866,45307
45866,45307
45866,45306
45866,45306
45866,45305
45866,45295
45866,45295
45866,45294
45866,45294
45866,45293
45866,45293
45866,45293
45867,45292
45867,45292
45867,45292
45868,45291
45868,45291
45869,45291
45869,45291
45870,45291
45870,45290
45871,45290
46107,45290
46107,45290
" /> 
<polyline style="fill-rule:evenodd;"
points="46107,45487
46108,45487
46108,45487
46109,45488
46109,45488
46110,45488
46110,45488
46110,45489
46111,45489
46111,45489
46111,45490
46111,45490
46111,45491
46112,45491
46112,45492
46112,45492
46112,45502
46112,45503
46112,45503
46111,45503
46111,45504
46111,45504
46111,45505
46111,45505
46110,45506
46110,45506
46110,45506
46109,45506
46109,45507
46108,45507
46108,45507
46107,45507
46107,45507
45871,45507
45870,45507
45870,45507
45869,45507
45869,45507
45868,45506
45868,45506
45867,45506
45867,45506
45867,45505
45866,45505
45866,45504
45866,45504
45866,45503
45866,45503
45866,45503
45866,45502
45866,45492
45866,45492
45866,45491
45866,45491
45866,45490
45866,45490
45866,45489
45867,45489
45867,45489
45867,45488
45868,45488
45868,45488
45869,45488
45869,45487
45870,45487
45870,45487
45871,45487
46107,45487
46107,45487
" /> 
<polyline style="fill-rule:evenodd;"
points="45723,45645
45724,45645
45724,45645
45725,45645
45725,45645
45726,45646
45726,45646
45726,45646
45727,45647
45727,45647
45727,45647
45727,45648
45728,45648
45728,45649
45728,45649
45728,45650
45728,45886
45728,45886
45728,45887
45728,45887
45727,45888
45727,45888
45727,45889
45727,45889
45726,45889
45726,45890
45726,45890
45725,45890
45725,45890
45724,45891
45724,45891
45723,45891
45723,45891
45713,45891
45713,45891
45712,45891
45712,45891
45711,45890
45711,45890
45710,45890
45710,45890
45710,45889
45709,45889
45709,45889
45709,45888
45709,45888
45708,45887
45708,45887
45708,45886
45708,45886
45708,45650
45708,45649
45708,45649
45708,45648
45709,45648
45709,45647
45709,45647
45709,45647
45710,45646
45710,45646
45710,45646
45711,45645
45711,45645
45712,45645
45712,45645
45713,45645
45713,45645
45723,45645
45723,45645
" /> 
<polyline style="fill-rule:evenodd;"
points="45527,45645
45527,45645
45528,45645
45528,45645
45528,45645
45529,45646
45529,45646
45530,45646
45530,45647
45530,45647
45530,45647
45531,45648
45531,45648
45531,45649
45531,45649
45531,45650
45531,45886
45531,45886
45531,45887
45531,45887
45531,45888
45530,45888
45530,45889
45530,45889
45530,45889
45529,45890
45529,45890
45528,45890
45528,45890
45528,45891
45527,45891
45527,45891
45526,45891
45516,45891
45516,45891
45515,45891
45515,45891
45514,45890
45514,45890
45513,45890
45513,45890
45513,45889
45512,45889
45512,45889
45512,45888
45512,45888
45512,45887
45511,45887
45511,45886
45511,45886
45511,45650
45511,45649
45511,45649
45512,45648
45512,45648
45512,45647
45512,45647
45512,45647
45513,45646
45513,45646
45513,45646
45514,45645
45514,45645
45515,45645
45515,45645
45516,45645
45516,45645
45526,45645
45527,45645
" /> 
<polyline style="fill-rule:evenodd;"
points="45330,45645
45330,45645
45331,45645
45331,45645
45332,45645
45332,45646
45332,45646
45333,45646
45333,45647
45333,45647
45334,45647
45334,45648
45334,45648
45334,45649
45334,45649
45334,45650
45334,45886
45334,45886
45334,45887
45334,45887
45334,45888
45334,45888
45333,45889
45333,45889
45333,45889
45332,45890
45332,45890
45332,45890
45331,45890
45331,45891
45330,45891
45330,45891
45329,45891
45319,45891
45319,45891
45318,45891
45318,45891
45317,45890
45317,45890
45317,45890
45316,45890
45316,45889
45316,45889
45315,45889
45315,45888
45315,45888
45315,45887
45315,45887
45314,45886
45314,45886
45314,45650
45314,45649
45315,45649
45315,45648
45315,45648
45315,45647
45315,45647
45316,45647
45316,45646
45316,45646
45317,45646
45317,45645
45317,45645
45318,45645
45318,45645
45319,45645
45319,45645
45329,45645
45330,45645
" /> 
<polyline style="fill-rule:evenodd;"
points="45133,45645
45133,45645
45134,45645
45134,45645
45135,45645
45135,45646
45135,45646
45136,45646
45136,45647
45136,45647
45137,45647
45137,45648
45137,45648
45137,45649
45137,45649
45137,45650
45137,45886
45137,45886
45137,45887
45137,45887
45137,45888
45137,45888
45136,45889
45136,45889
45136,45889
45135,45890
45135,45890
45135,45890
45134,45890
45134,45891
45133,45891
45133,45891
45132,45891
45123,45891
45122,45891
45122,45891
45121,45891
45121,45890
45120,45890
45120,45890
45119,45890
45119,45889
45119,45889
45118,45889
45118,45888
45118,45888
45118,45887
45118,45887
45118,45886
45118,45886
45118,45650
45118,45649
45118,45649
45118,45648
45118,45648
45118,45647
45118,45647
45119,45647
45119,45646
45119,45646
45120,45646
45120,45645
45121,45645
45121,45645
45122,45645
45122,45645
45123,45645
45132,45645
45133,45645
" /> 
<polyline style="fill-rule:evenodd;"
points="44936,45645
44936,45645
44937,45645
44937,45645
44938,45645
44938,45646
44939,45646
44939,45646
44939,45647
44940,45647
44940,45647
44940,45648
44940,45648
44940,45649
44940,45649
44940,45650
44940,45886
44940,45886
44940,45887
44940,45887
44940,45888
44940,45888
44940,45889
44939,45889
44939,45889
44939,45890
44938,45890
44938,45890
44937,45890
44937,45891
44936,45891
44936,45891
44936,45891
44926,45891
44925,45891
44925,45891
44924,45891
44924,45890
44923,45890
44923,45890
44923,45890
44922,45889
44922,45889
44922,45889
44921,45888
44921,45888
44921,45887
44921,45887
44921,45886
44921,45886
44921,45650
44921,45649
44921,45649
44921,45648
44921,45648
44921,45647
44922,45647
44922,45647
44922,45646
44923,45646
44923,45646
44923,45645
44924,45645
44924,45645
44925,45645
44925,45645
44926,45645
44936,45645
44936,45645
" /> 
<polyline style="fill-rule:evenodd;"
points="44739,45645
44740,45645
44740,45645
44741,45645
44741,45645
44741,45646
44742,45646
44742,45646
44742,45647
44743,45647
44743,45647
44743,45648
44743,45648
44744,45649
44744,45649
44744,45650
44744,45886
44744,45886
44744,45887
44743,45887
44743,45888
44743,45888
44743,45889
44742,45889
44742,45889
44742,45890
44741,45890
44741,45890
44741,45890
44740,45891
44740,45891
44739,45891
44739,45891
44729,45891
44728,45891
44728,45891
44727,45891
44727,45890
44727,45890
44726,45890
44726,45890
44725,45889
44725,45889
44725,45889
44724,45888
44724,45888
44724,45887
44724,45887
44724,45886
44724,45886
44724,45650
44724,45649
44724,45649
44724,45648
44724,45648
44724,45647
44725,45647
44725,45647
44725,45646
44726,45646
44726,45646
44727,45645
44727,45645
44727,45645
44728,45645
44728,45645
44729,45645
44739,45645
44739,45645
" /> 
<polyline style="fill-rule:evenodd;"
points="45555,40855
45555,40974
45386,40974
45386,40855
45555,40855
" /> 
<polyline style="fill-rule:evenodd;"
points="44602,40974
44602,40855
44772,40855
44772,40974
44602,40974
" /> 
<polyline style="fill-rule:evenodd;"
points="45020,40852
45138,40852
45138,41021
45020,41021
45020,40852
" /> 
<polyline style="fill-rule:evenodd;"
points="45138,41804
45020,41804
45020,41635
45138,41635
45138,41804
" /> 
<polyline style="fill-rule:evenodd;"
points="45555,41407
45555,41525
45386,41525
45386,41407
45555,41407
" /> 
<polyline style="fill-rule:evenodd;"
points="45555,41131
45555,41249
45386,41249
45386,41131
45555,41131
" /> 
<polyline style="fill-rule:evenodd;"
points="45555,41682
45555,41800
45386,41800
45386,41682
45555,41682
" /> 
<polyline style="fill-rule:evenodd;"
points="44602,41249
44602,41131
44772,41131
44772,41249
44602,41249
" /> 
<polyline style="fill-rule:evenodd;"
points="44602,41800
44602,41682
44772,41682
44772,41800
44602,41800
" /> 
<polyline style="fill-rule:evenodd;"
points="44602,41525
44602,41407
44772,41407
44772,41525
44602,41525
" /> 
<polyline style="fill-rule:evenodd;"
points="45137,40405
45140,40405
45144,40406
45148,40408
45151,40409
45154,40411
45157,40413
45160,40416
45163,40419
45165,40422
45167,40425
45168,40428
45170,40432
45170,40436
45171,40439
45171,40443
45171,40540
45171,40543
45170,40547
45170,40551
45168,40554
45167,40558
45165,40561
45163,40564
45160,40567
45157,40569
45154,40571
45151,40573
45148,40575
45144,40576
45140,40577
45137,40578
45133,40578
45056,40578
45052,40578
45049,40577
45045,40576
45041,40575
45038,40573
45035,40571
45032,40569
45029,40567
45026,40564
45024,40561
45022,40558
45021,40554
45019,40551
45018,40547
45018,40543
45018,40540
45018,40443
45018,40439
45018,40436
45019,40432
45021,40428
45022,40425
45024,40422
45026,40419
45029,40416
45032,40413
45035,40411
45038,40409
45041,40408
45045,40406
45049,40405
45052,40405
45056,40405
45133,40405
45137,40405
" /> 
<polyline style="fill-rule:evenodd;"
points="45518,40405
45522,40405
45526,40406
45529,40408
45533,40409
45536,40411
45539,40413
45542,40416
45544,40419
45547,40422
45549,40425
45550,40428
45551,40432
45552,40436
45553,40439
45553,40443
45553,40540
45553,40543
45552,40547
45551,40551
45550,40554
45549,40558
45547,40561
45544,40564
45542,40567
45539,40569
45536,40571
45533,40573
45529,40575
45526,40576
45522,40577
45518,40578
45515,40578
45438,40578
45434,40578
45430,40577
45427,40576
45423,40575
45420,40573
45417,40571
45414,40569
45411,40567
45408,40564
45406,40561
45404,40558
45403,40554
45401,40551
45400,40547
45400,40543
45400,40540
45400,40443
45400,40439
45400,40436
45401,40432
45403,40428
45404,40425
45406,40422
45408,40419
45411,40416
45414,40413
45417,40411
45420,40409
45423,40408
45427,40406
45430,40405
45434,40405
45438,40405
45515,40405
45518,40405
" /> 
<polyline style="fill-rule:evenodd;"
points="45509,39942
45512,39943
45516,39944
45520,39945
45523,39947
45526,39949
45529,39951
45532,39953
45535,39956
45537,39959
45539,39962
45540,39966
45542,39969
45543,39973
45543,39977
45543,39980
45543,40077
45543,40081
45543,40084
45542,40088
45540,40092
45539,40095
45537,40098
45535,40101
45532,40104
45529,40107
45526,40109
45523,40111
45520,40112
45516,40114
45512,40115
45509,40115
45505,40115
45428,40115
45424,40115
45421,40115
45417,40114
45413,40112
45410,40111
45407,40109
45404,40107
45401,40104
45398,40101
45396,40098
45394,40095
45393,40092
45391,40088
45390,40084
45390,40081
45390,40077
45390,39980
45390,39977
45390,39973
45391,39969
45393,39966
45394,39962
45396,39959
45398,39956
45401,39953
45404,39951
45407,39949
45410,39947
45413,39945
45417,39944
45421,39943
45424,39942
45428,39942
45505,39942
45509,39942
" /> 
<polyline style="fill-rule:evenodd;"
points="45127,39942
45130,39943
45134,39944
45138,39945
45141,39947
45144,39949
45147,39951
45150,39953
45153,39956
45155,39959
45157,39962
45158,39966
45160,39969
45161,39973
45161,39977
45161,39980
45161,40077
45161,40081
45161,40084
45160,40088
45158,40092
45157,40095
45155,40098
45153,40101
45150,40104
45147,40107
45144,40109
45141,40111
45138,40112
45134,40114
45130,40115
45127,40115
45123,40115
45046,40115
45042,40115
45039,40115
45035,40114
45032,40112
45028,40111
45025,40109
45022,40107
45019,40104
45017,40101
45014,40098
45012,40095
45011,40092
45009,40088
45009,40084
45008,40081
45008,40077
45008,39980
45008,39977
45009,39973
45009,39969
45011,39966
45012,39962
45014,39959
45017,39956
45019,39953
45022,39951
45025,39949
45028,39947
45032,39945
45035,39944
45039,39943
45042,39942
45046,39942
45123,39942
45127,39942
" /> 
<polyline style="fill-rule:evenodd;"
points="44196,41157
44199,41157
44203,41158
44207,41160
44210,41161
44213,41163
44216,41165
44219,41168
44222,41171
44224,41174
44226,41177
44227,41180
44229,41184
44230,41188
44230,41191
44230,41195
44230,41272
44230,41276
44230,41279
44229,41283
44227,41287
44226,41290
44224,41293
44222,41296
44219,41299
44216,41301
44213,41304
44210,41306
44207,41307
44203,41309
44199,41309
44196,41310
44192,41310
44095,41310
44092,41310
44088,41309
44084,41309
44081,41307
44077,41306
44074,41304
44071,41301
44068,41299
44066,41296
44064,41293
44062,41290
44060,41287
44059,41283
44058,41279
44057,41276
44057,41272
44057,41195
44057,41191
44058,41188
44059,41184
44060,41180
44062,41177
44064,41174
44066,41171
44068,41168
44071,41165
44074,41163
44077,41161
44081,41160
44084,41158
44088,41157
44092,41157
44095,41157
44192,41157
44196,41157
" /> 
<polyline style="fill-rule:evenodd;"
points="44196,40775
44199,40776
44203,40776
44207,40778
44210,40779
44213,40781
44216,40783
44219,40786
44222,40789
44224,40792
44226,40795
44227,40798
44229,40802
44230,40806
44230,40809
44230,40813
44230,40890
44230,40894
44230,40897
44229,40901
44227,40905
44226,40908
44224,40911
44222,40914
44219,40917
44216,40920
44213,40922
44210,40924
44207,40925
44203,40927
44199,40928
44196,40928
44192,40928
44095,40928
44092,40928
44088,40928
44084,40927
44081,40925
44077,40924
44074,40922
44071,40920
44068,40917
44066,40914
44064,40911
44062,40908
44060,40905
44059,40901
44058,40897
44057,40894
44057,40890
44057,40813
44057,40809
44058,40806
44059,40802
44060,40798
44062,40795
44064,40792
44066,40789
44068,40786
44071,40783
44074,40781
44077,40779
44081,40778
44084,40776
44088,40776
44092,40775
44095,40775
44192,40775
44196,40775
" /> 
<polyline style="fill-rule:evenodd;"
points="40631,49838
40637,49839
40643,49841
40649,49843
40655,49846
40661,49849
40666,49853
40671,49858
40675,49862
40679,49868
40683,49873
40685,49879
40688,49885
40689,49892
40690,49898
40690,49905
40690,50037
40690,50044
40689,50050
40688,50057
40685,50063
40683,50069
40679,50074
40675,50080
40671,50084
40666,50089
40661,50093
40655,50096
40649,50099
40643,50101
40637,50103
40631,50104
40624,50104
40462,50104
40455,50104
40449,50103
40442,50101
40436,50099
40430,50096
40425,50093
40419,50089
40415,50084
40410,50080
40406,50074
40403,50069
40400,50063
40398,50057
40396,50050
40395,50044
40395,50037
40395,49905
40395,49898
40396,49892
40398,49885
40400,49879
40403,49873
40406,49868
40410,49862
40415,49858
40419,49853
40425,49849
40430,49846
40436,49843
40442,49841
40449,49839
40455,49838
40462,49838
40624,49838
40631,49838
" /> 
<polyline style="fill-rule:evenodd;"
points="40631,50458
40637,50459
40643,50461
40649,50463
40655,50466
40661,50469
40666,50473
40671,50478
40675,50482
40679,50488
40683,50493
40685,50499
40688,50505
40689,50512
40690,50518
40690,50525
40690,50657
40690,50664
40689,50670
40688,50677
40685,50683
40683,50689
40679,50694
40675,50700
40671,50704
40666,50709
40661,50713
40655,50716
40649,50719
40643,50721
40637,50723
40631,50724
40624,50724
40462,50724
40455,50724
40449,50723
40442,50721
40436,50719
40430,50716
40425,50713
40419,50709
40415,50704
40410,50700
40406,50694
40403,50689
40400,50683
40398,50677
40396,50670
40395,50664
40395,50657
40395,50525
40395,50518
40396,50512
40398,50505
40400,50499
40403,50493
40406,50488
40410,50482
40415,50478
40419,50473
40425,50469
40430,50466
40436,50463
40442,50461
40449,50459
40455,50458
40462,50458
40624,50458
40631,50458
" /> 
<polyline style="fill-rule:evenodd;"
points="40646,45974
40653,45975
40659,45977
40665,45979
40671,45982
40677,45985
40682,45989
40687,45993
40691,45998
40695,46003
40698,46009
40701,46015
40703,46021
40705,46027
40706,46034
40706,46040
40706,46173
40706,46180
40705,46186
40703,46193
40701,46199
40698,46205
40695,46210
40691,46215
40687,46220
40682,46225
40677,46228
40671,46232
40665,46235
40659,46237
40653,46238
40646,46239
40640,46240
40477,46240
40471,46239
40464,46238
40458,46237
40452,46235
40446,46232
40440,46228
40435,46225
40430,46220
40426,46215
40422,46210
40419,46205
40416,46199
40414,46193
40412,46186
40411,46180
40411,46173
40411,46040
40411,46034
40412,46027
40414,46021
40416,46015
40419,46009
40422,46003
40426,45998
40430,45993
40435,45989
40440,45985
40446,45982
40452,45979
40458,45977
40464,45975
40471,45974
40477,45974
40640,45974
40646,45974
" /> 
<polyline style="fill-rule:evenodd;"
points="40646,46594
40653,46595
40659,46597
40665,46599
40671,46602
40677,46605
40682,46609
40687,46613
40691,46618
40695,46624
40698,46629
40701,46635
40703,46641
40705,46647
40706,46654
40706,46660
40706,46793
40706,46800
40705,46806
40703,46813
40701,46819
40698,46825
40695,46830
40691,46835
40687,46840
40682,46845
40677,46849
40671,46852
40665,46855
40659,46857
40653,46858
40646,46859
40640,46860
40477,46860
40471,46859
40464,46858
40458,46857
40452,46855
40446,46852
40440,46849
40435,46845
40430,46840
40426,46835
40422,46830
40419,46825
40416,46819
40414,46813
40412,46806
40411,46800
40411,46793
40411,46660
40411,46654
40412,46647
40414,46641
40416,46635
40419,46629
40422,46624
40426,46618
40430,46613
40435,46609
40440,46605
40446,46602
40452,46599
40458,46597
40464,46595
40471,46594
40477,46594
40640,46594
40646,46594
" /> 
<polyline style="fill-rule:evenodd;"
points="42736,49793
42736,50738
42224,50738
42224,49793
42736,49793
" /> 
<polyline style="fill-rule:evenodd;"
points="41555,49793
41555,50738
41043,50738
41043,49793
41555,49793
" /> 
<polyline style="fill-rule:evenodd;"
points="41696,47378
41704,47379
41711,47381
41719,47383
41726,47387
41732,47391
41738,47395
41744,47401
41749,47406
41754,47412
41758,47419
41761,47426
41764,47433
41766,47441
41767,47448
41767,47456
41767,47614
41767,47621
41766,47629
41764,47637
41761,47644
41758,47651
41754,47657
41749,47664
41744,47669
41738,47675
41732,47679
41726,47683
41719,47686
41711,47689
41704,47691
41696,47692
41688,47692
41314,47692
41307,47692
41299,47691
41292,47689
41284,47686
41277,47683
41271,47679
41265,47675
41259,47669
41254,47664
41249,47657
41245,47651
41242,47644
41239,47637
41237,47629
41236,47621
41236,47614
41236,47456
41236,47448
41237,47441
41239,47433
41242,47426
41245,47419
41249,47412
41254,47406
41259,47401
41265,47395
41271,47391
41277,47387
41284,47383
41292,47381
41299,47379
41307,47378
41314,47377
41688,47377
41696,47378
" /> 
<polyline style="fill-rule:evenodd;"
points="40692,47378
40700,47379
40707,47381
40715,47383
40722,47387
40728,47391
40734,47395
40740,47401
40745,47406
40750,47412
40754,47419
40757,47426
40760,47433
40762,47441
40763,47448
40763,47456
40763,47614
40763,47621
40762,47629
40760,47637
40757,47644
40754,47651
40750,47657
40745,47664
40740,47669
40734,47675
40728,47679
40722,47683
40715,47686
40707,47689
40700,47691
40692,47692
40685,47692
40311,47692
40303,47692
40295,47691
40288,47689
40280,47686
40273,47683
40267,47679
40261,47675
40255,47669
40250,47664
40245,47657
40241,47651
40238,47644
40235,47637
40233,47629
40232,47621
40232,47614
40232,47456
40232,47448
40233,47441
40235,47433
40238,47426
40241,47419
40245,47412
40250,47406
40255,47401
40261,47395
40267,47391
40273,47387
40280,47383
40288,47381
40295,47379
40303,47378
40311,47377
40685,47377
40692,47378
" /> 
<polyline style="fill-rule:evenodd;"
points="41696,49031
41704,49033
41711,49034
41719,49037
41726,49040
41732,49044
41738,49049
41744,49054
41749,49060
41754,49066
41758,49073
41761,49080
41764,49087
41766,49094
41767,49102
41767,49110
41767,49267
41767,49275
41766,49283
41764,49290
41761,49297
41758,49304
41754,49311
41749,49317
41744,49323
41738,49328
41732,49333
41726,49337
41719,49340
41711,49343
41704,49344
41696,49346
41688,49346
41314,49346
41307,49346
41299,49344
41292,49343
41284,49340
41277,49337
41271,49333
41265,49328
41259,49323
41254,49317
41249,49311
41245,49304
41242,49297
41239,49290
41237,49283
41236,49275
41236,49267
41236,49110
41236,49102
41237,49094
41239,49087
41242,49080
41245,49073
41249,49066
41254,49060
41259,49054
41265,49049
41271,49044
41277,49040
41284,49037
41292,49034
41299,49033
41307,49031
41314,49031
41688,49031
41696,49031
" /> 
<polyline style="fill-rule:evenodd;"
points="40692,49031
40700,49033
40707,49034
40715,49037
40722,49040
40728,49044
40734,49049
40740,49054
40745,49060
40750,49066
40754,49073
40757,49080
40760,49087
40762,49094
40763,49102
40763,49110
40763,49267
40763,49275
40762,49283
40760,49290
40757,49297
40754,49304
40750,49311
40745,49317
40740,49323
40734,49328
40728,49333
40722,49337
40715,49340
40707,49343
40700,49344
40692,49346
40685,49346
40311,49346
40303,49346
40295,49344
40288,49343
40280,49340
40273,49337
40267,49333
40261,49328
40255,49323
40250,49317
40245,49311
40241,49304
40238,49297
40235,49290
40233,49283
40232,49275
40232,49267
40232,49110
40232,49102
40233,49094
40235,49087
40238,49080
40241,49073
40245,49066
40250,49060
40255,49054
40261,49049
40267,49044
40273,49040
40280,49037
40288,49034
40295,49033
40303,49031
40311,49031
40685,49031
40692,49031
" /> 
<polyline style="fill-rule:evenodd;"
points="45201,43637
45205,43638
45208,43639
45212,43640
45215,43641
45219,43643
45222,43646
45224,43648
45227,43651
45229,43654
45231,43657
45233,43661
45234,43664
45235,43668
45236,43671
45236,43675
45236,43752
45236,43756
45235,43760
45234,43763
45233,43767
45231,43770
45229,43773
45227,43776
45224,43779
45222,43782
45219,43784
45215,43786
45212,43787
45208,43789
45205,43790
45201,43790
45197,43790
45101,43790
45097,43790
45093,43790
45090,43789
45086,43787
45083,43786
45080,43784
45077,43782
45074,43779
45071,43776
45069,43773
45067,43770
45065,43767
45064,43763
45063,43760
45063,43756
45062,43752
45062,43675
45063,43671
45063,43668
45064,43664
45065,43661
45067,43657
45069,43654
45071,43651
45074,43648
45077,43646
45080,43643
45083,43641
45086,43640
45090,43639
45093,43638
45097,43637
45101,43637
45197,43637
45201,43637
" /> 
<polyline style="fill-rule:evenodd;"
points="45201,43255
45205,43256
45208,43257
45212,43258
45215,43260
45219,43261
45222,43264
45224,43266
45227,43269
45229,43272
45231,43275
45233,43279
45234,43282
45235,43286
45236,43290
45236,43293
45236,43370
45236,43374
45235,43378
45234,43381
45233,43385
45231,43388
45229,43391
45227,43394
45224,43397
45222,43400
45219,43402
45215,43404
45212,43406
45208,43407
45205,43408
45201,43408
45197,43409
45101,43409
45097,43408
45093,43408
45090,43407
45086,43406
45083,43404
45080,43402
45077,43400
45074,43397
45071,43394
45069,43391
45067,43388
45065,43385
45064,43381
45063,43378
45063,43374
45062,43370
45062,43293
45063,43290
45063,43286
45064,43282
45065,43279
45067,43275
45069,43272
45071,43269
45074,43266
45077,43264
45080,43261
45083,43260
45086,43258
45090,43257
45093,43256
45097,43255
45101,43255
45197,43255
45201,43255
" /> 
<polyline style="fill-rule:evenodd;"
points="46085,40765
46089,40766
46093,40767
46096,40768
46100,40769
46103,40771
46106,40774
46109,40776
46111,40779
46114,40782
46116,40785
46117,40789
46118,40792
46119,40796
46120,40800
46120,40803
46120,40880
46120,40884
46119,40888
46118,40891
46117,40895
46116,40898
46114,40901
46111,40904
46109,40907
46106,40910
46103,40912
46100,40914
46096,40916
46093,40917
46089,40918
46085,40918
46082,40918
45985,40918
45981,40918
45978,40918
45974,40917
45971,40916
45967,40914
45964,40912
45961,40910
45958,40907
45956,40904
45953,40901
45951,40898
45950,40895
45948,40891
45948,40888
45947,40884
45947,40880
45947,40803
45947,40800
45948,40796
45948,40792
45950,40789
45951,40785
45953,40782
45956,40779
45958,40776
45961,40774
45964,40771
45967,40769
45971,40768
45974,40767
45978,40766
45981,40765
45985,40765
46082,40765
46085,40765
" /> 
<polyline style="fill-rule:evenodd;"
points="46085,41147
46089,41148
46093,41148
46096,41150
46100,41151
46103,41153
46106,41156
46109,41158
46111,41161
46114,41164
46116,41167
46117,41171
46118,41174
46119,41178
46120,41181
46120,41185
46120,41262
46120,41266
46119,41269
46118,41273
46117,41277
46116,41280
46114,41283
46111,41286
46109,41289
46106,41292
46103,41294
46100,41296
46096,41297
46093,41299
46089,41300
46085,41300
46082,41300
45985,41300
45981,41300
45978,41300
45974,41299
45971,41297
45967,41296
45964,41294
45961,41292
45958,41289
45956,41286
45953,41283
45951,41280
45950,41277
45948,41273
45948,41269
45947,41266
45947,41262
45947,41185
45947,41181
45948,41178
45948,41174
45950,41171
45951,41167
45953,41164
45956,41161
45958,41158
45961,41156
45964,41153
45967,41151
45971,41150
45974,41148
45978,41148
45981,41147
45985,41147
46082,41147
46085,41147
" /> 
<polyline style="fill-rule:evenodd;"
points="44788,43637
44791,43638
44795,43639
44799,43640
44802,43641
44805,43643
44808,43646
44811,43648
44814,43651
44816,43654
44818,43657
44819,43661
44821,43664
44822,43668
44822,43671
44822,43675
44822,43752
44822,43756
44822,43760
44821,43763
44819,43767
44818,43770
44816,43773
44814,43776
44811,43779
44808,43782
44805,43784
44802,43786
44799,43787
44795,43789
44791,43790
44788,43790
44784,43790
44687,43790
44684,43790
44680,43790
44676,43789
44673,43787
44669,43786
44666,43784
44663,43782
44660,43779
44658,43776
44656,43773
44654,43770
44652,43767
44651,43763
44650,43760
44649,43756
44649,43752
44649,43675
44649,43671
44650,43668
44651,43664
44652,43661
44654,43657
44656,43654
44658,43651
44660,43648
44663,43646
44666,43643
44669,43641
44673,43640
44676,43639
44680,43638
44684,43637
44687,43637
44784,43637
44788,43637
" /> 
<polyline style="fill-rule:evenodd;"
points="44788,43255
44791,43256
44795,43257
44799,43258
44802,43260
44805,43261
44808,43264
44811,43266
44814,43269
44816,43272
44818,43275
44819,43279
44821,43282
44822,43286
44822,43290
44822,43293
44822,43370
44822,43374
44822,43378
44821,43381
44819,43385
44818,43388
44816,43391
44814,43394
44811,43397
44808,43400
44805,43402
44802,43404
44799,43406
44795,43407
44791,43408
44788,43408
44784,43409
44687,43409
44684,43408
44680,43408
44676,43407
44673,43406
44669,43404
44666,43402
44663,43400
44660,43397
44658,43394
44656,43391
44654,43388
44652,43385
44651,43381
44650,43378
44649,43374
44649,43370
44649,43293
44649,43290
44650,43286
44651,43282
44652,43279
44654,43275
44656,43272
44658,43269
44660,43266
44663,43264
44666,43261
44669,43260
44673,43258
44676,43257
44680,43256
44684,43255
44687,43255
44784,43255
44788,43255
" /> 
<polyline style="fill-rule:evenodd;"
points="43705,44689
43709,44689
43712,44690
43716,44691
43719,44693
43723,44695
43726,44697
43728,44700
43731,44703
43733,44706
43735,44709
43737,44712
43738,44716
43739,44719
43739,44723
43740,44727
43740,44804
43739,44807
43739,44811
43738,44815
43737,44818
43735,44822
43733,44825
43731,44828
43728,44831
43726,44833
43723,44836
43719,44837
43716,44839
43712,44840
43709,44841
43705,44842
43701,44842
43605,44842
43601,44842
43597,44841
43594,44840
43590,44839
43587,44837
43583,44836
43580,44833
43578,44831
43575,44828
43573,44825
43571,44822
43569,44818
43568,44815
43567,44811
43567,44807
43566,44804
43566,44727
43567,44723
43567,44719
43568,44716
43569,44712
43571,44709
43573,44706
43575,44703
43578,44700
43580,44697
43583,44695
43587,44693
43590,44691
43594,44690
43597,44689
43601,44689
43605,44688
43701,44688
43705,44689
" /> 
<polyline style="fill-rule:evenodd;"
points="43705,45071
43709,45071
43712,45072
43716,45073
43719,45075
43723,45077
43726,45079
43728,45082
43731,45084
43733,45087
43735,45091
43737,45094
43738,45098
43739,45101
43739,45105
43740,45109
43740,45186
43739,45189
43739,45193
43738,45197
43737,45200
43735,45204
43733,45207
43731,45210
43728,45213
43726,45215
43723,45217
43719,45219
43716,45221
43712,45222
43709,45223
43705,45224
43701,45224
43605,45224
43601,45224
43597,45223
43594,45222
43590,45221
43587,45219
43583,45217
43580,45215
43578,45213
43575,45210
43573,45207
43571,45204
43569,45200
43568,45197
43567,45193
43567,45189
43566,45186
43566,45109
43567,45105
43567,45101
43568,45098
43569,45094
43571,45091
43573,45087
43575,45084
43578,45082
43580,45079
43583,45077
43587,45075
43590,45073
43594,45072
43597,45071
43601,45071
43605,45070
43701,45070
43705,45071
" /> 
<polyline style="fill-rule:evenodd;"
points="44891,42303
44897,42304
44904,42305
44910,42307
44916,42310
44921,42314
44926,42317
44931,42322
44936,42327
44940,42332
44943,42337
44946,42343
44948,42349
44949,42356
44950,42362
44951,42369
44951,42531
44950,42538
44949,42544
44948,42550
44946,42557
44943,42562
44940,42568
44936,42573
44931,42578
44926,42583
44921,42586
44916,42590
44910,42593
44904,42595
44897,42596
44891,42597
44884,42598
44751,42598
44745,42597
44738,42596
44732,42595
44726,42593
44720,42590
44715,42586
44709,42583
44704,42578
44700,42573
44696,42568
44693,42562
44690,42557
44688,42550
44686,42544
44685,42538
44685,42531
44685,42369
44685,42362
44686,42356
44688,42349
44690,42343
44693,42337
44696,42332
44700,42327
44704,42322
44709,42317
44715,42314
44720,42310
44726,42307
44732,42305
44738,42304
44745,42303
44751,42302
44884,42302
44891,42303
" /> 
<polyline style="fill-rule:evenodd;"
points="45511,42303
45517,42304
45524,42305
45530,42307
45536,42310
45541,42314
45547,42317
45551,42322
45556,42327
45560,42332
45563,42337
45566,42343
45568,42349
45570,42356
45571,42362
45571,42369
45571,42531
45571,42538
45570,42544
45568,42550
45566,42557
45563,42562
45560,42568
45556,42573
45551,42578
45547,42583
45541,42586
45536,42590
45530,42593
45524,42595
45517,42596
45511,42597
45504,42598
45372,42598
45365,42597
45359,42596
45352,42595
45346,42593
45340,42590
45335,42586
45329,42583
45325,42578
45320,42573
45316,42568
45313,42562
45310,42557
45308,42550
45306,42544
45305,42538
45305,42531
45305,42369
45305,42362
45306,42356
45308,42349
45310,42343
45313,42337
45316,42332
45320,42327
45325,42322
45329,42317
45335,42314
45340,42310
45346,42307
45352,42305
45359,42304
45365,42303
45372,42302
45504,42302
45511,42303
" /> 
<polyline style="fill-rule:evenodd;"
points="43680,41437
43687,41437
43693,41439
43699,41441
43705,41444
43711,41447
43716,41451
43721,41456
43725,41460
43729,41466
43732,41471
43735,41477
43737,41483
43739,41490
43740,41496
43740,41503
43740,41636
43740,41642
43739,41648
43737,41655
43735,41661
43732,41667
43729,41672
43725,41678
43721,41682
43716,41687
43711,41691
43705,41694
43699,41697
43693,41699
43687,41701
43680,41702
43674,41702
43511,41702
43505,41702
43498,41701
43492,41699
43486,41697
43480,41694
43474,41691
43469,41687
43464,41682
43460,41678
43456,41672
43453,41667
43450,41661
43448,41655
43446,41648
43445,41642
43445,41636
43445,41503
43445,41496
43446,41490
43448,41483
43450,41477
43453,41471
43456,41466
43460,41460
43464,41456
43469,41451
43474,41447
43480,41444
43486,41441
43492,41439
43498,41437
43505,41437
43511,41436
43674,41436
43680,41437
" /> 
<polyline style="fill-rule:evenodd;"
points="43680,40816
43687,40817
43693,40819
43699,40821
43705,40824
43711,40827
43716,40831
43721,40836
43725,40840
43729,40846
43732,40851
43735,40857
43737,40863
43739,40870
43740,40876
43740,40883
43740,41015
43740,41022
43739,41028
43737,41035
43735,41041
43732,41047
43729,41052
43725,41058
43721,41062
43716,41067
43711,41071
43705,41074
43699,41077
43693,41079
43687,41081
43680,41082
43674,41082
43511,41082
43505,41082
43498,41081
43492,41079
43486,41077
43480,41074
43474,41071
43469,41067
43464,41062
43460,41058
43456,41052
43453,41047
43450,41041
43448,41035
43446,41028
43445,41022
43445,41015
43445,40883
43445,40876
43446,40870
43448,40863
43450,40857
43453,40851
43456,40846
43460,40840
43464,40836
43469,40831
43474,40827
43480,40824
43486,40821
43492,40819
43498,40817
43505,40816
43511,40816
43674,40816
43680,40816
" /> 
<polyline style="fill-rule:evenodd;"
points="46662,41422
46669,41423
46675,41424
46681,41426
46687,41429
46693,41433
46698,41437
46703,41441
46707,41446
46711,41451
46715,41457
46717,41462
46720,41469
46721,41475
46722,41481
46722,41488
46722,41621
46722,41627
46721,41634
46720,41640
46717,41646
46715,41652
46711,41658
46707,41663
46703,41668
46698,41672
46693,41676
46687,41679
46681,41682
46675,41684
46669,41686
46662,41687
46656,41687
46494,41687
46487,41687
46481,41686
46474,41684
46468,41682
46462,41679
46457,41676
46451,41672
46447,41668
46442,41663
46438,41658
46435,41652
46432,41646
46430,41640
46428,41634
46427,41627
46427,41621
46427,41488
46427,41481
46428,41475
46430,41469
46432,41462
46435,41457
46438,41451
46442,41446
46447,41441
46451,41437
46457,41433
46462,41429
46468,41426
46474,41424
46481,41423
46487,41422
46494,41421
46656,41421
46662,41422
" /> 
<polyline style="fill-rule:evenodd;"
points="46662,40802
46669,40803
46675,40804
46681,40806
46687,40809
46693,40813
46698,40816
46703,40821
46707,40826
46711,40831
46715,40836
46717,40842
46720,40849
46721,40855
46722,40861
46722,40868
46722,41001
46722,41007
46721,41014
46720,41020
46717,41026
46715,41032
46711,41038
46707,41043
46703,41048
46698,41052
46693,41056
46687,41059
46681,41062
46675,41064
46669,41066
46662,41067
46656,41067
46494,41067
46487,41067
46481,41066
46474,41064
46468,41062
46462,41059
46457,41056
46451,41052
46447,41048
46442,41043
46438,41038
46435,41032
46432,41026
46430,41020
46428,41014
46427,41007
46427,41001
46427,40868
46427,40861
46428,40855
46430,40849
46432,40842
46435,40836
46438,40831
46442,40826
46447,40821
46451,40816
46457,40813
46462,40809
46468,40806
46474,40804
46481,40803
46487,40802
46494,40801
46656,40801
46662,40802
" /> 
</g> 
</svg>
