M48
METRIC,TZ
T1C0.300
T2C0.650
T3C1.100
%
G90
G05
T1
X103500Y-116900
X104270Y-114970
X106550Y-102400
X106560Y-99000
X106700Y-105425
X108370Y-118790
X108390Y-123910
X109600Y-109450
X111600Y-111050
X111600Y-111950
X111900Y-124510
X111990Y-122810
X112550Y-113800
X113100Y-116870
X113490Y-108770
X113670Y-110910
X113830Y-110040
X113880Y-102300
X114210Y-105130
X114650Y-107400
X115330Y-97760
X115550Y-119000
X115670Y-116040
X115700Y-98920
X116890Y-110430
X117010Y-119210
X117610Y-107050
X118000Y-115640
X118000Y-117350
X118050Y-105000
X118230Y-118700
X118280Y-122310
X118820Y-119680
X119340Y-123630
X119870Y-110665
X120200Y-112350
X120210Y-122210
X120250Y-103050
X120880Y-105740
X121530Y-100050
X122050Y-101340
X122050Y-120820
X122105Y-121730
X122270Y-110380
X122360Y-111240
X122375Y-104000
X122775Y-120400
X122775Y-120400
X123110Y-110370
X124475Y-106525
X124475Y-108150
X125050Y-101800
X125050Y-103460
X125100Y-97250
X126238Y-107696
X126350Y-105875
X128775Y-105825
X156280Y-119360
X156350Y-104950
X156480Y-105810
X156580Y-108910
X157180Y-104560
X159130Y-106960
X159730Y-112460
X160780Y-104260
X160780Y-110260
X160980Y-111510
X161130Y-112350
X161240Y-109510
X161860Y-113300
X162430Y-119110
X162430Y-120210
X162730Y-116110
X162980Y-118360
X164180Y-105260
X164210Y-111920
X165030Y-109010
X165330Y-106910
X166190Y-101210
X166280Y-103260
X167230Y-117360
X168472Y-107102
T2
X153180Y-106910
X153180Y-105510
X153180Y-102710
X130280Y-105260
X155130Y-111810
X129030Y-117000
X153180Y-98510
X129030Y-110000
X153180Y-108310
X153180Y-112510
X129030Y-114200
X130280Y-106660
X153180Y-99910
X155130Y-113210
X126950Y-98050
X126950Y-99320
X126950Y-100590
X126950Y-101860
X126950Y-103130
X128220Y-98050
X128220Y-99320
X128220Y-100590
X128220Y-101860
X128220Y-103130
X153180Y-101310
X153180Y-109710
X129030Y-111400
X153180Y-104110
X129030Y-108600
X153180Y-97110
X153180Y-111110
X129030Y-112800
X129030Y-115600
T3
X153390Y-115120
X153390Y-124100
X159340Y-115480
X159340Y-123740
T0
M30
