<svg id="Layer_1" data-name="Layer 1" xmlns="http://www.w3.org/2000/svg" viewBox="0 0 764.03 796.21"><defs><style>.cls-1{fill:#fff;}.cls-1,.cls-2{stroke:#231f20;stroke-miterlimit:10;}.cls-2{fill:none;}</style></defs><title>PolygonesCut</title><polyline class="cls-1" points="457.22 260.21 532.19 130.36 457.22 0.5 307.27 0.5 232.3 130.36 307.27 260.21"/><path class="cls-1" d="M502.92,410" transform="translate(-39.7 -197.17)"/><path class="cls-1" d="M353,410" transform="translate(-39.7 -197.17)"/><polyline class="cls-1" points="307.27 535.99 232.3 665.85 307.27 795.71 457.22 795.71 532.19 665.85 457.22 535.99"/><path class="cls-1" d="M347,733.16" transform="translate(-39.7 -197.17)"/><path class="cls-1" d="M496.92,733.16" transform="translate(-39.7 -197.17)"/><polyline class="cls-1" points="538.53 394.09 688.48 394.09 763.45 264.23 688.48 134.37 538.53 134.37 463.56 264.23"/><path class="cls-1" d="M578.23,591.26" transform="translate(-39.7 -197.17)"/><path class="cls-1" d="M503.26,461.4" transform="translate(-39.7 -197.17)"/><polyline class="cls-1" points="463.56 532.36 538.53 662.21 688.48 662.21 763.45 532.36 688.48 402.5 538.53 402.5"/><path class="cls-1" d="M503.26,729.53" transform="translate(-39.7 -197.17)"/><path class="cls-1" d="M578.23,599.67" transform="translate(-39.7 -197.17)"/><path class="cls-1" d="M265.2,599.29" transform="translate(-39.7 -197.17)"/><path class="cls-1" d="M340.17,729.15" transform="translate(-39.7 -197.17)"/><path class="cls-1" d="M265.2,599.29" transform="translate(-39.7 -197.17)"/><polyline class="cls-1" points="75.55 402.12 0.58 531.98 75.55 661.84 225.5 661.84 300.47 531.98"/><polyline class="cls-1" points="300.47 264.23 225.5 134.37 75.55 134.37 0.58 264.23 75.55 394.09 225.5 394.09"/><line class="cls-2" x1="75.55" y1="402.12" x2="225.5" y2="402.12"/><line class="cls-2" x1="300.47" y1="264.23" x2="307.27" y2="260.21"/><line class="cls-2" x1="457.22" y1="260.21" x2="463.56" y2="264.23"/><line class="cls-2" x1="538.53" y1="394.09" x2="538.53" y2="402.5"/><line class="cls-2" x1="457.22" y1="535.99" x2="463.56" y2="532.36"/><line class="cls-2" x1="300.47" y1="531.98" x2="307.27" y2="535.99"/><line class="cls-2" x1="225.5" y1="394.09" x2="225.5" y2="402.12"/></svg>